M48
; DRILL file {KiCad (5.1.8)-1} date 11/26/21 20:45:32
; FORMAT={-:-/ absolute / inch / decimal}
; #@! TF.CreationDate,2021-11-26T20:45:32-07:00
; #@! TF.GenerationSoftware,Kicad,Pcbnew,(5.1.8)-1
; #@! TF.FileFunction,Plated,1,2,PTH
FMAT,2
INCH
T1C0.0157
T2C0.0315
T3C0.0394
T4C0.1200
%
G90
G05
T1
X3.3597Y-4.389
X3.4097Y-3.989
X3.4097Y-4.909
X3.4797Y-3.889
X3.4797Y-4.909
X3.5597Y-4.529
X3.6097Y-4.909
X3.6397Y-3.789
X3.7097Y-3.689
X3.7097Y-4.909
X3.7597Y-3.229
X3.7597Y-4.529
X3.8097Y-3.589
X3.8097Y-4.909
X3.9097Y-3.489
X3.9097Y-4.909
X3.9597Y-2.859
X3.9597Y-3.929
X4.0097Y-3.389
X4.0097Y-4.909
X4.0797Y-3.289
X4.0797Y-4.909
X4.2097Y-4.909
X4.2497Y-3.429
X4.3097Y-3.529
X4.3097Y-4.909
X4.3797Y-3.229
X4.4097Y-3.929
X4.4097Y-4.909
X4.5097Y-3.829
X4.5097Y-4.909
X4.6097Y-3.189
X4.6097Y-3.389
X4.6097Y-4.909
X4.6897Y-3.539
X4.6897Y-4.909
X4.8097Y-4.909
X4.8397Y-3.059
X4.8397Y-3.289
X4.9097Y-4.699
X4.9097Y-4.909
X5.0097Y-4.729
X5.0097Y-4.909
X5.1097Y-4.759
X5.1097Y-4.909
X5.1697Y-2.979
X5.2097Y-4.789
X5.2097Y-4.909
X5.2597Y-3.929
X5.3097Y-4.819
X5.3097Y-4.909
X5.3597Y-2.899
X5.3597Y-3.1121
X5.3597Y-4.849
X5.4397Y-3.429
X5.4397Y-4.849
X5.4797Y-2.979
X5.4797Y-4.589
X5.5197Y-2.829
X5.5197Y-4.129
X5.6097Y-4.289
X5.6097Y-4.909
X5.6897Y-4.389
X5.6897Y-4.909
X5.8097Y-4.909
X5.8297Y-4.489
X5.9097Y-4.629
X5.9097Y-4.909
X6.0097Y-4.529
X6.0097Y-4.909
X6.1097Y-4.429
X6.1097Y-4.909
X6.1597Y-4.159
X6.1697Y-2.779
X6.2097Y-4.329
X6.2097Y-4.909
X6.2897Y-4.229
X6.2897Y-4.909
X6.3597Y-2.719
X6.3597Y-2.899
X6.3597Y-4.909
X6.4397Y-4.589
X6.4397Y-4.909
X6.4597Y-3.189
X6.4597Y-4.089
X6.4897Y-3.229
X6.4897Y-3.889
X6.4897Y-4.699
X6.5197Y-3.159
X6.5197Y-3.989
X6.5197Y-4.729
X6.5597Y-3.289
X6.5597Y-4.089
X6.5597Y-4.759
X6.5897Y-3.059
X6.5897Y-4.389
X6.5897Y-4.789
X6.6197Y-2.989
X6.6197Y-4.819
X6.6497Y-2.859
X6.6497Y-4.489
X6.6797Y-2.829
X6.6797Y-4.539
X6.8597Y-2.889
X6.8597Y-3.089
X6.8597Y-3.589
X6.8597Y-4.289
X6.8597Y-4.589
X6.9097Y-3.329
X6.9097Y-4.219
X6.9597Y-2.719
X6.9597Y-3.779
X6.9597Y-4.159
X7.0597Y-2.719
X7.1497Y-4.909
T2
X4.7597Y-3.309
X4.7597Y-3.409
X4.7597Y-3.509
X4.7597Y-3.609
X4.7597Y-3.709
X4.7597Y-3.809
X4.7597Y-3.909
X4.7597Y-4.009
X4.7597Y-4.109
X4.7597Y-4.209
X4.7597Y-4.309
X4.7597Y-4.409
X4.7597Y-4.509
X4.7597Y-4.609
X5.3597Y-3.309
X5.3597Y-3.409
X5.3597Y-3.509
X5.3597Y-3.609
X5.3597Y-3.709
X5.3597Y-3.809
X5.3597Y-3.909
X5.3597Y-4.009
X5.3597Y-4.109
X5.3597Y-4.209
X5.3597Y-4.309
X5.3597Y-4.409
X5.3597Y-4.509
X5.3597Y-4.609
X6.8628Y-2.779
X7.0597Y-2.779
X6.8628Y-3.779
X7.0597Y-3.779
X6.1628Y-2.979
X6.3597Y-2.979
X6.7597Y-3.909
X6.7597Y-4.009
X6.7597Y-4.109
X6.7597Y-4.209
X6.7597Y-4.309
X6.7597Y-4.409
X6.7597Y-4.509
X6.7597Y-4.609
X7.0597Y-3.909
X7.0597Y-4.009
X7.0597Y-4.109
X7.0597Y-4.209
X7.0597Y-4.309
X7.0597Y-4.409
X7.0597Y-4.509
X7.0597Y-4.609
X6.7597Y-2.909
X6.7597Y-3.009
X6.7597Y-3.109
X6.7597Y-3.209
X6.7597Y-3.309
X6.7597Y-3.409
X6.7597Y-3.509
X6.7597Y-3.609
X7.0597Y-2.909
X7.0597Y-3.009
X7.0597Y-3.109
X7.0597Y-3.209
X7.0597Y-3.309
X7.0597Y-3.409
X7.0597Y-3.509
X7.0597Y-3.609
X5.1628Y-3.179
X5.3597Y-3.179
X5.7597Y-3.109
X5.7597Y-3.209
X5.7597Y-3.309
X5.7597Y-3.409
X5.7597Y-3.509
X5.7597Y-3.609
X5.7597Y-3.709
X5.7597Y-3.809
X5.7597Y-3.909
X5.7597Y-4.009
X5.7597Y-4.109
X5.7597Y-4.209
X5.7597Y-4.309
X5.7597Y-4.409
X5.7597Y-4.509
X5.7597Y-4.609
X6.3597Y-3.109
X6.3597Y-3.209
X6.3597Y-3.309
X6.3597Y-3.409
X6.3597Y-3.509
X6.3597Y-3.609
X6.3597Y-3.709
X6.3597Y-3.809
X6.3597Y-3.909
X6.3597Y-4.009
X6.3597Y-4.109
X6.3597Y-4.209
X6.3597Y-4.309
X6.3597Y-4.409
X6.3597Y-4.509
X6.3597Y-4.609
X4.3797Y-3.1121
X4.3797Y-3.309
T3
X3.5597Y-3.109
X3.5597Y-3.209
X3.5597Y-3.309
X3.5597Y-3.409
X3.5597Y-3.509
X3.5597Y-3.609
X3.5597Y-3.709
X3.5597Y-3.809
X3.5597Y-3.909
X3.5597Y-4.009
X3.5597Y-4.109
X3.5597Y-4.209
X3.5597Y-4.309
X3.5597Y-4.409
X4.1597Y-3.109
X4.1597Y-3.209
X4.1597Y-3.309
X4.1597Y-3.409
X4.1597Y-3.509
X4.1597Y-3.609
X4.1597Y-3.709
X4.1597Y-3.809
X4.1597Y-3.909
X4.1597Y-4.009
X4.1597Y-4.109
X4.1597Y-4.209
X4.1597Y-4.309
X4.1597Y-4.409
T4
X7.1497Y-4.809
X7.1497Y-2.559
T0
M30
