G04 #@! TF.GenerationSoftware,KiCad,Pcbnew,(5.1.8)-1*
G04 #@! TF.CreationDate,2021-11-26T20:45:30-07:00*
G04 #@! TF.ProjectId,512k,3531326b-2e6b-4696-9361-645f70636258,rev?*
G04 #@! TF.SameCoordinates,Original*
G04 #@! TF.FileFunction,Copper,L2,Bot*
G04 #@! TF.FilePolarity,Positive*
%FSLAX46Y46*%
G04 Gerber Fmt 4.6, Leading zero omitted, Abs format (unit mm)*
G04 Created by KiCad (PCBNEW (5.1.8)-1) date 2021-11-26 20:45:30*
%MOMM*%
%LPD*%
G01*
G04 APERTURE LIST*
G04 #@! TA.AperFunction,ComponentPad*
%ADD10C,3.556000*%
G04 #@! TD*
G04 #@! TA.AperFunction,ComponentPad*
%ADD11O,1.600000X1.600000*%
G04 #@! TD*
G04 #@! TA.AperFunction,ComponentPad*
%ADD12R,1.600000X1.600000*%
G04 #@! TD*
G04 #@! TA.AperFunction,ComponentPad*
%ADD13C,1.600000*%
G04 #@! TD*
G04 #@! TA.AperFunction,ComponentPad*
%ADD14O,2.000000X1.440000*%
G04 #@! TD*
G04 #@! TA.AperFunction,ComponentPad*
%ADD15R,2.000000X1.440000*%
G04 #@! TD*
G04 #@! TA.AperFunction,ConnectorPad*
%ADD16R,1.780000X7.620000*%
G04 #@! TD*
G04 #@! TA.AperFunction,ViaPad*
%ADD17C,0.800000*%
G04 #@! TD*
G04 #@! TA.AperFunction,Conductor*
%ADD18C,0.330200*%
G04 #@! TD*
G04 #@! TA.AperFunction,Conductor*
%ADD19C,0.250000*%
G04 #@! TD*
G04 APERTURE END LIST*
D10*
G04 #@! TO.P,R,1*
G04 #@! TO.N,/GND*
X181602380Y-122148600D03*
G04 #@! TD*
G04 #@! TO.P,R,1*
G04 #@! TO.N,N/C*
X181602380Y-64998600D03*
G04 #@! TD*
D11*
G04 #@! TO.P,U5,16*
G04 #@! TO.N,/5+*
X179316380Y-99288600D03*
G04 #@! TO.P,U5,8*
G04 #@! TO.N,/GND*
X171696380Y-117068600D03*
G04 #@! TO.P,U5,15*
G04 #@! TO.N,Net-(U5-Pad15)*
X179316380Y-101828600D03*
G04 #@! TO.P,U5,7*
G04 #@! TO.N,/32K_ROM_CS*
X171696380Y-114528600D03*
G04 #@! TO.P,U5,14*
G04 #@! TO.N,Net-(U5-Pad14)*
X179316380Y-104368600D03*
G04 #@! TO.P,U5,6*
G04 #@! TO.N,/A18*
X171696380Y-111988600D03*
G04 #@! TO.P,U5,13*
G04 #@! TO.N,Net-(U5-Pad13)*
X179316380Y-106908600D03*
G04 #@! TO.P,U5,5*
G04 #@! TO.N,/GND*
X171696380Y-109448600D03*
G04 #@! TO.P,U5,12*
G04 #@! TO.N,Net-(U5-Pad12)*
X179316380Y-109448600D03*
G04 #@! TO.P,U5,4*
G04 #@! TO.N,/UPPER_512K*
X171696380Y-106908600D03*
G04 #@! TO.P,U5,11*
G04 #@! TO.N,Net-(U5-Pad11)*
X179316380Y-111988600D03*
G04 #@! TO.P,U5,3*
G04 #@! TO.N,/A17*
X171696380Y-104368600D03*
G04 #@! TO.P,U5,10*
G04 #@! TO.N,Net-(U5-Pad10)*
X179316380Y-114528600D03*
G04 #@! TO.P,U5,2*
G04 #@! TO.N,/A16*
X171696380Y-101828600D03*
G04 #@! TO.P,U5,9*
G04 #@! TO.N,/32K_RAM_CS*
X179316380Y-117068600D03*
D12*
G04 #@! TO.P,U5,1*
G04 #@! TO.N,/A15*
X171696380Y-99288600D03*
G04 #@! TD*
D11*
G04 #@! TO.P,U4,16*
G04 #@! TO.N,/5+*
X179316380Y-73888600D03*
G04 #@! TO.P,U4,8*
G04 #@! TO.N,/GND*
X171696380Y-91668600D03*
G04 #@! TO.P,U4,15*
G04 #@! TO.N,N/C*
X179316380Y-76428600D03*
G04 #@! TO.P,U4,7*
G04 #@! TO.N,Net-(U4-Pad7)*
X171696380Y-89128600D03*
G04 #@! TO.P,U4,14*
G04 #@! TO.N,N/C*
X179316380Y-78968600D03*
G04 #@! TO.P,U4,6*
G04 #@! TO.N,Net-(U4-Pad6)*
X171696380Y-86588600D03*
G04 #@! TO.P,U4,13*
G04 #@! TO.N,N/C*
X179316380Y-81508600D03*
G04 #@! TO.P,U4,5*
G04 #@! TO.N,/UPPER_512K*
X171696380Y-84048600D03*
G04 #@! TO.P,U4,12*
G04 #@! TO.N,N/C*
X179316380Y-84048600D03*
G04 #@! TO.P,U4,4*
G04 #@! TO.N,/512K_CS*
X171696380Y-81508600D03*
G04 #@! TO.P,U4,11*
G04 #@! TO.N,N/C*
X179316380Y-86588600D03*
G04 #@! TO.P,U4,3*
G04 #@! TO.N,/GND*
X171696380Y-78968600D03*
G04 #@! TO.P,U4,10*
G04 #@! TO.N,N/C*
X179316380Y-89128600D03*
G04 #@! TO.P,U4,2*
G04 #@! TO.N,/A19*
X171696380Y-76428600D03*
G04 #@! TO.P,U4,9*
G04 #@! TO.N,N/C*
X179316380Y-91668600D03*
D12*
G04 #@! TO.P,U4,1*
G04 #@! TO.N,/GND*
X171696380Y-73888600D03*
G04 #@! TD*
D13*
G04 #@! TO.P,C5,2*
G04 #@! TO.N,/5+*
X179316380Y-95986600D03*
G04 #@! TO.P,C5,1*
G04 #@! TO.N,/GND*
X174316380Y-95986600D03*
G04 #@! TD*
G04 #@! TO.P,C4,2*
G04 #@! TO.N,/5+*
X179316380Y-70586600D03*
G04 #@! TO.P,C4,1*
G04 #@! TO.N,/GND*
X174316380Y-70586600D03*
G04 #@! TD*
G04 #@! TO.P,C3,2*
G04 #@! TO.N,/5+*
X161536380Y-75666600D03*
G04 #@! TO.P,C3,1*
G04 #@! TO.N,/GND*
X156536380Y-75666600D03*
G04 #@! TD*
G04 #@! TO.P,C2,2*
G04 #@! TO.N,/5+*
X136136380Y-80746600D03*
G04 #@! TO.P,C2,1*
G04 #@! TO.N,/GND*
X131136380Y-80746600D03*
G04 #@! TD*
D14*
G04 #@! TO.P,U2,15*
G04 #@! TO.N,/D3*
X105656380Y-111988600D03*
G04 #@! TO.P,U2,14*
G04 #@! TO.N,/GND*
X90416380Y-111988600D03*
G04 #@! TO.P,U2,16*
G04 #@! TO.N,/D4*
X105656380Y-109448600D03*
G04 #@! TO.P,U2,13*
G04 #@! TO.N,/D2*
X90416380Y-109448600D03*
G04 #@! TO.P,U2,17*
G04 #@! TO.N,/D5*
X105656380Y-106908600D03*
G04 #@! TO.P,U2,12*
G04 #@! TO.N,/D1*
X90416380Y-106908600D03*
G04 #@! TO.P,U2,18*
G04 #@! TO.N,/D6*
X105656380Y-104368600D03*
G04 #@! TO.P,U2,11*
G04 #@! TO.N,/D0*
X90416380Y-104368600D03*
G04 #@! TO.P,U2,19*
G04 #@! TO.N,/D7*
X105656380Y-101828600D03*
G04 #@! TO.P,U2,10*
G04 #@! TO.N,/A0*
X90416380Y-101828600D03*
G04 #@! TO.P,U2,20*
G04 #@! TO.N,/32K_ROM_CS*
X105656380Y-99288600D03*
G04 #@! TO.P,U2,9*
G04 #@! TO.N,/A1*
X90416380Y-99288600D03*
G04 #@! TO.P,U2,21*
G04 #@! TO.N,/A10*
X105656380Y-96748600D03*
G04 #@! TO.P,U2,8*
G04 #@! TO.N,/A2*
X90416380Y-96748600D03*
G04 #@! TO.P,U2,22*
G04 #@! TO.N,/MRD*
X105656380Y-94208600D03*
G04 #@! TO.P,U2,7*
G04 #@! TO.N,/A3*
X90416380Y-94208600D03*
G04 #@! TO.P,U2,23*
G04 #@! TO.N,/A11*
X105656380Y-91668600D03*
G04 #@! TO.P,U2,6*
G04 #@! TO.N,/A4*
X90416380Y-91668600D03*
G04 #@! TO.P,U2,24*
G04 #@! TO.N,/A9*
X105656380Y-89128600D03*
G04 #@! TO.P,U2,5*
G04 #@! TO.N,/A5*
X90416380Y-89128600D03*
G04 #@! TO.P,U2,25*
G04 #@! TO.N,/A8*
X105656380Y-86588600D03*
G04 #@! TO.P,U2,4*
G04 #@! TO.N,/A6*
X90416380Y-86588600D03*
G04 #@! TO.P,U2,26*
G04 #@! TO.N,/A13*
X105656380Y-84048600D03*
G04 #@! TO.P,U2,3*
G04 #@! TO.N,/A7*
X90416380Y-84048600D03*
G04 #@! TO.P,U2,27*
G04 #@! TO.N,/5+*
X105656380Y-81508600D03*
G04 #@! TO.P,U2,2*
G04 #@! TO.N,/A12*
X90416380Y-81508600D03*
G04 #@! TO.P,U2,28*
G04 #@! TO.N,/5+*
X105656380Y-78968600D03*
D15*
G04 #@! TO.P,U2,1*
G04 #@! TO.N,/A14*
X90416380Y-78968600D03*
G04 #@! TD*
D11*
G04 #@! TO.P,U1,28*
G04 #@! TO.N,/5+*
X136136380Y-84048600D03*
G04 #@! TO.P,U1,14*
G04 #@! TO.N,/GND*
X120896380Y-117068600D03*
G04 #@! TO.P,U1,27*
G04 #@! TO.N,/MWR*
X136136380Y-86588600D03*
G04 #@! TO.P,U1,13*
G04 #@! TO.N,/D2*
X120896380Y-114528600D03*
G04 #@! TO.P,U1,26*
G04 #@! TO.N,/A13*
X136136380Y-89128600D03*
G04 #@! TO.P,U1,12*
G04 #@! TO.N,/D1*
X120896380Y-111988600D03*
G04 #@! TO.P,U1,25*
G04 #@! TO.N,/A8*
X136136380Y-91668600D03*
G04 #@! TO.P,U1,11*
G04 #@! TO.N,/D0*
X120896380Y-109448600D03*
G04 #@! TO.P,U1,24*
G04 #@! TO.N,/A9*
X136136380Y-94208600D03*
G04 #@! TO.P,U1,10*
G04 #@! TO.N,/A0*
X120896380Y-106908600D03*
G04 #@! TO.P,U1,23*
G04 #@! TO.N,/A11*
X136136380Y-96748600D03*
G04 #@! TO.P,U1,9*
G04 #@! TO.N,/A1*
X120896380Y-104368600D03*
G04 #@! TO.P,U1,22*
G04 #@! TO.N,/MRD*
X136136380Y-99288600D03*
G04 #@! TO.P,U1,8*
G04 #@! TO.N,/A2*
X120896380Y-101828600D03*
G04 #@! TO.P,U1,21*
G04 #@! TO.N,/A10*
X136136380Y-101828600D03*
G04 #@! TO.P,U1,7*
G04 #@! TO.N,/A3*
X120896380Y-99288600D03*
G04 #@! TO.P,U1,20*
G04 #@! TO.N,/32K_RAM_CS*
X136136380Y-104368600D03*
G04 #@! TO.P,U1,6*
G04 #@! TO.N,/A4*
X120896380Y-96748600D03*
G04 #@! TO.P,U1,19*
G04 #@! TO.N,/D7*
X136136380Y-106908600D03*
G04 #@! TO.P,U1,5*
G04 #@! TO.N,/A5*
X120896380Y-94208600D03*
G04 #@! TO.P,U1,18*
G04 #@! TO.N,/D6*
X136136380Y-109448600D03*
G04 #@! TO.P,U1,4*
G04 #@! TO.N,/A6*
X120896380Y-91668600D03*
G04 #@! TO.P,U1,17*
G04 #@! TO.N,/D5*
X136136380Y-111988600D03*
G04 #@! TO.P,U1,3*
G04 #@! TO.N,/A7*
X120896380Y-89128600D03*
G04 #@! TO.P,U1,16*
G04 #@! TO.N,/D4*
X136136380Y-114528600D03*
G04 #@! TO.P,U1,2*
G04 #@! TO.N,/A12*
X120896380Y-86588600D03*
G04 #@! TO.P,U1,15*
G04 #@! TO.N,/D3*
X136136380Y-117068600D03*
D12*
G04 #@! TO.P,U1,1*
G04 #@! TO.N,/A14*
X120896380Y-84048600D03*
G04 #@! TD*
D16*
G04 #@! TO.P,J9,31*
G04 #@! TO.N,/GND*
X85336380Y-129768600D03*
G04 #@! TO.P,J9,30*
G04 #@! TO.N,/OSC88*
X87876380Y-129768600D03*
G04 #@! TO.P,J9,29*
G04 #@! TO.N,/5+*
X90416380Y-129768600D03*
G04 #@! TO.P,J9,28*
G04 #@! TO.N,/ALE*
X92956380Y-129768600D03*
G04 #@! TO.P,J9,27*
G04 #@! TO.N,/TC*
X95496380Y-129768600D03*
G04 #@! TO.P,J9,26*
G04 #@! TO.N,/DACK2*
X98036380Y-129768600D03*
G04 #@! TO.P,J9,25*
G04 #@! TO.N,/IRQ3*
X100576380Y-129768600D03*
G04 #@! TO.P,J9,24*
G04 #@! TO.N,/IRQ4*
X103116380Y-129768600D03*
G04 #@! TO.P,J9,23*
G04 #@! TO.N,/IRQ5*
X105656380Y-129768600D03*
G04 #@! TO.P,J9,22*
G04 #@! TO.N,/IRQ6*
X108196380Y-129768600D03*
G04 #@! TO.P,J9,21*
G04 #@! TO.N,/IRQ7*
X110736380Y-129768600D03*
G04 #@! TO.P,J9,20*
G04 #@! TO.N,/CLK88*
X113276380Y-129768600D03*
G04 #@! TO.P,J9,19*
G04 #@! TO.N,/REFRQ*
X115816380Y-129768600D03*
G04 #@! TO.P,J9,18*
G04 #@! TO.N,/DRQ1*
X118356380Y-129768600D03*
G04 #@! TO.P,J9,17*
G04 #@! TO.N,/DACK1*
X120896380Y-129768600D03*
G04 #@! TO.P,J9,16*
G04 #@! TO.N,/DRQ3*
X123436380Y-129768600D03*
G04 #@! TO.P,J9,15*
G04 #@! TO.N,/DACK3*
X125976380Y-129768600D03*
G04 #@! TO.P,J9,14*
G04 #@! TO.N,/IORD*
X128516380Y-129768600D03*
G04 #@! TO.P,J9,13*
G04 #@! TO.N,/IOWR*
X131056380Y-129768600D03*
G04 #@! TO.P,J9,12*
G04 #@! TO.N,/MRD*
X133596380Y-129768600D03*
G04 #@! TO.P,J9,11*
G04 #@! TO.N,/MWR*
X136136380Y-129768600D03*
G04 #@! TO.P,J9,10*
G04 #@! TO.N,/GND*
X138676380Y-129768600D03*
G04 #@! TO.P,J9,9*
G04 #@! TO.N,/12+*
X141216380Y-129768600D03*
G04 #@! TO.P,J9,8*
G04 #@! TO.N,/NC*
X143756380Y-129768600D03*
G04 #@! TO.P,J9,7*
G04 #@! TO.N,/12-*
X146296380Y-129768600D03*
G04 #@! TO.P,J9,6*
G04 #@! TO.N,/DRQ2*
X148836380Y-129768600D03*
G04 #@! TO.P,J9,5*
G04 #@! TO.N,/5-*
X151376380Y-129768600D03*
G04 #@! TO.P,J9,4*
G04 #@! TO.N,/IRQ2*
X153916380Y-129768600D03*
G04 #@! TO.P,J9,3*
G04 #@! TO.N,/5+*
X156456380Y-129768600D03*
G04 #@! TO.P,J9,2*
G04 #@! TO.N,/RESOUT*
X158996380Y-129768600D03*
G04 #@! TO.P,J9,1*
G04 #@! TO.N,/GND*
X161536380Y-129768600D03*
G04 #@! TD*
D13*
G04 #@! TO.P,C1,2*
G04 #@! TO.N,/5+*
X111244380Y-79048600D03*
G04 #@! TO.P,C1,1*
G04 #@! TO.N,/GND*
X111244380Y-84048600D03*
G04 #@! TD*
D11*
G04 #@! TO.P,U3,32*
G04 #@! TO.N,/5+*
X161536380Y-78968600D03*
G04 #@! TO.P,U3,16*
G04 #@! TO.N,/GND*
X146296380Y-117068600D03*
G04 #@! TO.P,U3,31*
G04 #@! TO.N,/A15*
X161536380Y-81508600D03*
G04 #@! TO.P,U3,15*
G04 #@! TO.N,/D2*
X146296380Y-114528600D03*
G04 #@! TO.P,U3,30*
G04 #@! TO.N,/A17*
X161536380Y-84048600D03*
G04 #@! TO.P,U3,14*
G04 #@! TO.N,/D1*
X146296380Y-111988600D03*
G04 #@! TO.P,U3,29*
G04 #@! TO.N,/MWR*
X161536380Y-86588600D03*
G04 #@! TO.P,U3,13*
G04 #@! TO.N,/D0*
X146296380Y-109448600D03*
G04 #@! TO.P,U3,28*
G04 #@! TO.N,/A13*
X161536380Y-89128600D03*
G04 #@! TO.P,U3,12*
G04 #@! TO.N,/A0*
X146296380Y-106908600D03*
G04 #@! TO.P,U3,27*
G04 #@! TO.N,/A8*
X161536380Y-91668600D03*
G04 #@! TO.P,U3,11*
G04 #@! TO.N,/A1*
X146296380Y-104368600D03*
G04 #@! TO.P,U3,26*
G04 #@! TO.N,/A9*
X161536380Y-94208600D03*
G04 #@! TO.P,U3,10*
G04 #@! TO.N,/A2*
X146296380Y-101828600D03*
G04 #@! TO.P,U3,25*
G04 #@! TO.N,/A11*
X161536380Y-96748600D03*
G04 #@! TO.P,U3,9*
G04 #@! TO.N,/A3*
X146296380Y-99288600D03*
G04 #@! TO.P,U3,24*
G04 #@! TO.N,/MRD*
X161536380Y-99288600D03*
G04 #@! TO.P,U3,8*
G04 #@! TO.N,/A4*
X146296380Y-96748600D03*
G04 #@! TO.P,U3,23*
G04 #@! TO.N,/A10*
X161536380Y-101828600D03*
G04 #@! TO.P,U3,7*
G04 #@! TO.N,/A5*
X146296380Y-94208600D03*
G04 #@! TO.P,U3,22*
G04 #@! TO.N,/512K_CS*
X161536380Y-104368600D03*
G04 #@! TO.P,U3,6*
G04 #@! TO.N,/A6*
X146296380Y-91668600D03*
G04 #@! TO.P,U3,21*
G04 #@! TO.N,/D7*
X161536380Y-106908600D03*
G04 #@! TO.P,U3,5*
G04 #@! TO.N,/A7*
X146296380Y-89128600D03*
G04 #@! TO.P,U3,20*
G04 #@! TO.N,/D6*
X161536380Y-109448600D03*
G04 #@! TO.P,U3,4*
G04 #@! TO.N,/A12*
X146296380Y-86588600D03*
G04 #@! TO.P,U3,19*
G04 #@! TO.N,/D5*
X161536380Y-111988600D03*
G04 #@! TO.P,U3,3*
G04 #@! TO.N,/A14*
X146296380Y-84048600D03*
G04 #@! TO.P,U3,18*
G04 #@! TO.N,/D4*
X161536380Y-114528600D03*
G04 #@! TO.P,U3,2*
G04 #@! TO.N,/A16*
X146296380Y-81508600D03*
G04 #@! TO.P,U3,17*
G04 #@! TO.N,/D3*
X161536380Y-117068600D03*
D12*
G04 #@! TO.P,U3,1*
G04 #@! TO.N,/A18*
X146296380Y-78968600D03*
G04 #@! TD*
D17*
G04 #@! TO.N,/5+*
X161536380Y-69062600D03*
X161536380Y-73634600D03*
X136136380Y-73634600D03*
X136136380Y-79048600D03*
X111244380Y-82016600D03*
X179316380Y-69062600D03*
X176776380Y-69062600D03*
X176776380Y-95986600D03*
X90416380Y-115036600D03*
X95496380Y-115036600D03*
X95496380Y-82016600D03*
X156456380Y-105638600D03*
X176776380Y-105638600D03*
G04 #@! TO.N,/GND*
X85336380Y-111480600D03*
X139184380Y-116560600D03*
X161536380Y-124688600D03*
X163568380Y-124688600D03*
X181602380Y-124688600D03*
X174236380Y-116560600D03*
X174236380Y-108940600D03*
X174236380Y-78460600D03*
X174236380Y-91160600D03*
X131310380Y-75666600D03*
X156710380Y-70586600D03*
X174236380Y-73380600D03*
X139184380Y-75666600D03*
X163568380Y-116560600D03*
G04 #@! TO.N,/D7*
X159758380Y-107416600D03*
X159758380Y-124688608D03*
G04 #@! TO.N,/D6*
X157726380Y-124688600D03*
X157726380Y-109956600D03*
G04 #@! TO.N,/D5*
X155186380Y-124688600D03*
X155186380Y-112496600D03*
G04 #@! TO.N,/D4*
X152646380Y-124688600D03*
X152646380Y-115036600D03*
G04 #@! TO.N,/D3*
X150106380Y-124688600D03*
X150106380Y-117576600D03*
G04 #@! TO.N,/D2*
X147566380Y-124688600D03*
X148074380Y-114020600D03*
G04 #@! TO.N,/D1*
X144518380Y-124688600D03*
X144518380Y-111480600D03*
G04 #@! TO.N,/D0*
X142486380Y-124688600D03*
X142486380Y-108940600D03*
G04 #@! TO.N,/A19*
X134866380Y-124688600D03*
X134866380Y-122402600D03*
X168140380Y-122402600D03*
X168140380Y-75920600D03*
G04 #@! TO.N,/A18*
X132326380Y-124688600D03*
X132326380Y-121640600D03*
X167378380Y-121640600D03*
X167378380Y-111480600D03*
X167378380Y-77698600D03*
G04 #@! TO.N,/A17*
X129786380Y-124688600D03*
X129786380Y-120878600D03*
X166616380Y-120878622D03*
X166616380Y-103860600D03*
X166616380Y-83540600D03*
G04 #@! TO.N,/A16*
X127246380Y-124688600D03*
X127246380Y-120116600D03*
X165600380Y-120116600D03*
X165600380Y-101320600D03*
X165600380Y-80238600D03*
G04 #@! TO.N,/A15*
X124706380Y-124688600D03*
X124706380Y-119354600D03*
X164838380Y-119354600D03*
X164838380Y-98780600D03*
X164838380Y-82016600D03*
G04 #@! TO.N,/A14*
X122166380Y-124688600D03*
X122928380Y-83540600D03*
X122928380Y-77698600D03*
G04 #@! TO.N,/A13*
X119118380Y-124688600D03*
X119118380Y-89890600D03*
G04 #@! TO.N,/A12*
X117086380Y-124688600D03*
X117086380Y-86080600D03*
X117086380Y-81000600D03*
G04 #@! TO.N,/A11*
X114546380Y-124688600D03*
X114546380Y-97256600D03*
G04 #@! TO.N,/A10*
X112006380Y-124688600D03*
X112006380Y-99796600D03*
G04 #@! TO.N,/A9*
X109466380Y-124688600D03*
X109466380Y-89636600D03*
G04 #@! TO.N,/A8*
X106926380Y-124688600D03*
X107942380Y-87096600D03*
G04 #@! TO.N,/A7*
X103624380Y-83540600D03*
X103624380Y-124688600D03*
G04 #@! TO.N,/A6*
X101846380Y-124688600D03*
X101846380Y-86080600D03*
G04 #@! TO.N,/A5*
X99306380Y-124688600D03*
X99306380Y-88620600D03*
G04 #@! TO.N,/A4*
X96766380Y-124688600D03*
X96766380Y-91160600D03*
G04 #@! TO.N,/A3*
X94226380Y-124688600D03*
X94226380Y-93700600D03*
G04 #@! TO.N,/A2*
X91686380Y-124688600D03*
X92448380Y-96240600D03*
G04 #@! TO.N,/A1*
X88384380Y-124688600D03*
X88384380Y-98780600D03*
G04 #@! TO.N,/A0*
X86606380Y-124688600D03*
X86606380Y-101320600D03*
G04 #@! TO.N,/MWR*
X136136380Y-123164600D03*
X138168380Y-123164600D03*
X138168380Y-87096600D03*
G04 #@! TO.N,/MRD*
X133596380Y-99796600D03*
G04 #@! TO.N,/32K_RAM_CS*
X169664380Y-115290600D03*
X140200380Y-104876600D03*
X140200380Y-71856600D03*
X169664380Y-71856600D03*
G04 #@! TO.N,/32K_ROM_CS*
X168902380Y-114020600D03*
X168902380Y-72618600D03*
X100576380Y-99796600D03*
X100576380Y-72618600D03*
G04 #@! TO.N,/512K_CS*
X164076380Y-103860600D03*
X164076380Y-81000600D03*
G04 #@! TO.N,/UPPER_512K*
X175506380Y-84556600D03*
X175506380Y-107162600D03*
G04 #@! TD*
D18*
G04 #@! TO.N,/5+*
X161536380Y-69062600D02*
X161536380Y-73634600D01*
X161536380Y-75666600D02*
X161536380Y-73634600D01*
X161536380Y-78968600D02*
X161536380Y-75666600D01*
X136136380Y-73634600D02*
X136136380Y-79048600D01*
X136136380Y-79048600D02*
X136136380Y-80746600D01*
X136136380Y-80746600D02*
X136136380Y-84048600D01*
X105736380Y-79048600D02*
X105656380Y-78968600D01*
X111244380Y-79048600D02*
X105736380Y-79048600D01*
X111244380Y-79048600D02*
X111244380Y-82016600D01*
X111244380Y-82016600D02*
X111244380Y-82016600D01*
X179316380Y-69062600D02*
X179316380Y-70586600D01*
X179316380Y-70586600D02*
X179316380Y-73888600D01*
X176776380Y-69062600D02*
X176776380Y-95986600D01*
X179316380Y-95986600D02*
X179316380Y-99288600D01*
X90416380Y-129768600D02*
X90416380Y-115036600D01*
X90416380Y-115036600D02*
X90416380Y-115036600D01*
X95496380Y-115036600D02*
X95496380Y-82016600D01*
X95496380Y-82016600D02*
X95496380Y-82016600D01*
X156456380Y-129768600D02*
X156456380Y-110153598D01*
X156456380Y-110153598D02*
X156456380Y-105638600D01*
X156456380Y-105638600D02*
X156456380Y-105638600D01*
X176776380Y-95986600D02*
X176776380Y-105638600D01*
X176776380Y-105638600D02*
X176776380Y-105638600D01*
G04 #@! TO.N,/GND*
X85336380Y-129768600D02*
X85336380Y-111480600D01*
X85336380Y-111480600D02*
X85336380Y-111480600D01*
X138676380Y-129768600D02*
X138676380Y-127482600D01*
X138676380Y-127482600D02*
X139184380Y-126974600D01*
X139184380Y-126974600D02*
X139184380Y-116814600D01*
X139184380Y-116814600D02*
X139184380Y-116560600D01*
X139184380Y-116560600D02*
X139184380Y-116560600D01*
D19*
X163568380Y-124688600D02*
X163568380Y-124688600D01*
X161536380Y-129768600D02*
X161536380Y-124688600D01*
X161536380Y-124688600D02*
X161536380Y-124688600D01*
X163568380Y-124688600D02*
X163568380Y-116560600D01*
X181602380Y-124688600D02*
X181602380Y-122148600D01*
D18*
X174236380Y-96066600D02*
X174236380Y-108940600D01*
X174316380Y-95986600D02*
X174236380Y-96066600D01*
X174236380Y-116560600D02*
X174236380Y-116560600D01*
X174236380Y-108940600D02*
X174236380Y-116560600D01*
X174236380Y-95906600D02*
X174316380Y-95986600D01*
X174236380Y-70666600D02*
X174236380Y-73380600D01*
X174316380Y-70586600D02*
X174236380Y-70666600D01*
X174236380Y-78460600D02*
X174236380Y-91160600D01*
X174236380Y-91160600D02*
X174236380Y-95906600D01*
X111244380Y-84048600D02*
X111498380Y-84048600D01*
X131310380Y-80572600D02*
X131136380Y-80746600D01*
X131310380Y-75666600D02*
X131310380Y-80572600D01*
X156710380Y-75492600D02*
X156710380Y-70586600D01*
X156536380Y-75666600D02*
X156710380Y-75492600D01*
X174236380Y-73380600D02*
X174236380Y-78460600D01*
X139184380Y-116560600D02*
X139184380Y-75666600D01*
X139184380Y-75666600D02*
X139184380Y-75666600D01*
D19*
G04 #@! TO.N,/D7*
X159758380Y-107416600D02*
X159758380Y-107416600D01*
X159758380Y-107416600D02*
X159758380Y-124688608D01*
G04 #@! TO.N,/D6*
X157726380Y-124688600D02*
X157726380Y-109956600D01*
X157726380Y-109956600D02*
X157726380Y-109956600D01*
G04 #@! TO.N,/D5*
X155186380Y-124688600D02*
X155186380Y-112496600D01*
X155186380Y-112496600D02*
X155186380Y-112496600D01*
G04 #@! TO.N,/D4*
X152646380Y-124688600D02*
X152646380Y-115036600D01*
X152646380Y-115036600D02*
X152646380Y-115036600D01*
G04 #@! TO.N,/D3*
X150106380Y-124688600D02*
X150106380Y-117576600D01*
X150106380Y-117576600D02*
X150106380Y-117576600D01*
G04 #@! TO.N,/D2*
X147566380Y-124688600D02*
X148074380Y-124180600D01*
X148074380Y-124180600D02*
X148074380Y-114020600D01*
X148074380Y-114020600D02*
X148074380Y-114020600D01*
G04 #@! TO.N,/D1*
X144518380Y-111480600D02*
X144518380Y-111480600D01*
X144518380Y-111480600D02*
X144518380Y-124688600D01*
G04 #@! TO.N,/D0*
X142486380Y-124688600D02*
X142486380Y-108940600D01*
X142486380Y-108940600D02*
X142486380Y-108940600D01*
G04 #@! TO.N,/A19*
X134866380Y-124688600D02*
X134866380Y-122402600D01*
X134866380Y-122402600D02*
X134866380Y-122402600D01*
X168140380Y-122402600D02*
X168140380Y-75920600D01*
X168140380Y-75920600D02*
X168140380Y-75920600D01*
G04 #@! TO.N,/A18*
X132326380Y-124688600D02*
X132326380Y-121640600D01*
X132326380Y-121640600D02*
X132326380Y-121640600D01*
X167378380Y-121640600D02*
X167378380Y-111480600D01*
X167378380Y-111480600D02*
X167378380Y-111480600D01*
X167378380Y-77698600D02*
X167378380Y-111480600D01*
G04 #@! TO.N,/A17*
X129786380Y-124688600D02*
X129786380Y-120878600D01*
X129786380Y-120878600D02*
X129786380Y-120878600D01*
X166616380Y-120878622D02*
X166616380Y-103860600D01*
X166616380Y-103860600D02*
X166616380Y-103860600D01*
X166616380Y-103860600D02*
X166616380Y-83540600D01*
X166616380Y-83540600D02*
X166616380Y-83540600D01*
G04 #@! TO.N,/A16*
X127246380Y-124688600D02*
X127246380Y-120116600D01*
X127246380Y-120116600D02*
X127246380Y-120116600D01*
X165600380Y-120116600D02*
X165600380Y-101320600D01*
X165600380Y-101320600D02*
X165600380Y-101320600D01*
X165600380Y-101320600D02*
X165600380Y-80238600D01*
X165600380Y-80238600D02*
X165600380Y-80238600D01*
G04 #@! TO.N,/A15*
X124706380Y-124688600D02*
X124706380Y-119354600D01*
X124706380Y-119354600D02*
X124706380Y-119354600D01*
X164838380Y-119354600D02*
X164838380Y-98780600D01*
X164838380Y-98780600D02*
X164838380Y-98780600D01*
X164838380Y-98780600D02*
X164838380Y-82016600D01*
X164838380Y-82016600D02*
X164838380Y-82016600D01*
G04 #@! TO.N,/A14*
X122166380Y-124688600D02*
X122928380Y-123926600D01*
X122928380Y-123926600D02*
X122928380Y-83540600D01*
X122928380Y-83540600D02*
X122928380Y-83540600D01*
X122928380Y-77698600D02*
X122928380Y-83540600D01*
G04 #@! TO.N,/A13*
X119118380Y-124122915D02*
X119118380Y-124688600D01*
X119118380Y-89890600D02*
X119118380Y-124122915D01*
G04 #@! TO.N,/A12*
X117086380Y-124688600D02*
X117086380Y-86080600D01*
X117086380Y-86080600D02*
X117086380Y-86080600D01*
X117086380Y-81000600D02*
X117086380Y-86080600D01*
G04 #@! TO.N,/A11*
X114546380Y-124688600D02*
X114546380Y-97256600D01*
X114546380Y-97256600D02*
X114546380Y-97256600D01*
G04 #@! TO.N,/A10*
X112006380Y-124688600D02*
X112006380Y-99796600D01*
X112006380Y-99796600D02*
X112006380Y-99796600D01*
G04 #@! TO.N,/A9*
X109466380Y-124688600D02*
X109466380Y-89636600D01*
X109466380Y-89636600D02*
X109466380Y-89636600D01*
G04 #@! TO.N,/A8*
X106926380Y-124688600D02*
X107942380Y-123672600D01*
X107942380Y-123672600D02*
X107942380Y-87096600D01*
X107942380Y-87096600D02*
X107942380Y-87096600D01*
G04 #@! TO.N,/A7*
X103624380Y-83540600D02*
X103624380Y-83540600D01*
X103624380Y-83540600D02*
X103624380Y-124688600D01*
G04 #@! TO.N,/A6*
X101846380Y-124688600D02*
X101846380Y-86080600D01*
G04 #@! TO.N,/A5*
X99306380Y-124688600D02*
X99306380Y-88620600D01*
G04 #@! TO.N,/A4*
X96766380Y-124688600D02*
X96766380Y-91160600D01*
G04 #@! TO.N,/A3*
X94226380Y-124688600D02*
X94226380Y-93700600D01*
G04 #@! TO.N,/A2*
X91686380Y-124688600D02*
X92448380Y-123926600D01*
X92448380Y-123926600D02*
X92448380Y-96240600D01*
X92448380Y-96240600D02*
X92448380Y-96240600D01*
G04 #@! TO.N,/A1*
X88384380Y-98780600D02*
X88384380Y-98780600D01*
X88384380Y-98780600D02*
X88384380Y-124688600D01*
G04 #@! TO.N,/A0*
X86606380Y-124688600D02*
X86606380Y-101320600D01*
X86606380Y-101320600D02*
X86606380Y-101320600D01*
G04 #@! TO.N,/MWR*
X136136380Y-129768600D02*
X136136380Y-123164600D01*
X136136380Y-123164600D02*
X136136380Y-123164600D01*
X138168380Y-123164600D02*
X138168380Y-87096600D01*
X138168380Y-87096600D02*
X138168380Y-87096600D01*
G04 #@! TO.N,/MRD*
X133596380Y-129768600D02*
X133596380Y-99796600D01*
X133596380Y-99796600D02*
X133596380Y-99796600D01*
G04 #@! TO.N,/32K_RAM_CS*
X169664380Y-115290600D02*
X169664380Y-71856600D01*
X140200380Y-104876600D02*
X140200380Y-75609598D01*
X140200380Y-75609598D02*
X140200380Y-71856600D01*
X140200380Y-71856600D02*
X140200380Y-71856600D01*
G04 #@! TO.N,/32K_ROM_CS*
X168902380Y-114020600D02*
X168902380Y-72618600D01*
X168902380Y-72618600D02*
X168902380Y-72618600D01*
X100576380Y-99796600D02*
X100576380Y-72618600D01*
X100576380Y-72618600D02*
X100576380Y-72618600D01*
G04 #@! TO.N,/512K_CS*
X164076380Y-103860600D02*
X164076380Y-103860600D01*
X164076380Y-103860600D02*
X164076380Y-81000600D01*
G04 #@! TO.N,/UPPER_512K*
X175506380Y-97002600D02*
X175506380Y-107162600D01*
X175760380Y-96748600D02*
X175506380Y-97002600D01*
X175760380Y-94970600D02*
X175760380Y-96748600D01*
X175506380Y-94716600D02*
X175760380Y-94970600D01*
X175506380Y-84556600D02*
X175506380Y-94716600D01*
G04 #@! TD*
M02*
