G04 #@! TF.GenerationSoftware,KiCad,Pcbnew,(5.1.8)-1*
G04 #@! TF.CreationDate,2021-11-26T20:47:01-07:00*
G04 #@! TF.ProjectId,80188,38303138-382e-46b6-9963-61645f706362,rev?*
G04 #@! TF.SameCoordinates,Original*
G04 #@! TF.FileFunction,Legend,Top*
G04 #@! TF.FilePolarity,Positive*
%FSLAX46Y46*%
G04 Gerber Fmt 4.6, Leading zero omitted, Abs format (unit mm)*
G04 Created by KiCad (PCBNEW (5.1.8)-1) date 2021-11-26 20:47:01*
%MOMM*%
%LPD*%
G01*
G04 APERTURE LIST*
%ADD10C,0.150000*%
%ADD11C,0.120000*%
G04 APERTURE END LIST*
D10*
X47571975Y-111220171D02*
X47905308Y-111220171D01*
X48048165Y-111743980D02*
X47571975Y-111743980D01*
X47571975Y-110743980D01*
X48048165Y-110743980D01*
X48476737Y-111743980D02*
X48476737Y-110743980D01*
X48810070Y-111458266D01*
X49143403Y-110743980D01*
X49143403Y-111743980D01*
X49619594Y-111743980D02*
X49619594Y-110743980D01*
X49952927Y-111458266D01*
X50286260Y-110743980D01*
X50286260Y-111743980D01*
X52095784Y-111648742D02*
X52048165Y-111696361D01*
X51905308Y-111743980D01*
X51810070Y-111743980D01*
X51667213Y-111696361D01*
X51571975Y-111601123D01*
X51524356Y-111505885D01*
X51476737Y-111315409D01*
X51476737Y-111172552D01*
X51524356Y-110982076D01*
X51571975Y-110886838D01*
X51667213Y-110791600D01*
X51810070Y-110743980D01*
X51905308Y-110743980D01*
X52048165Y-110791600D01*
X52095784Y-110839219D01*
X52714832Y-110743980D02*
X52905308Y-110743980D01*
X53000546Y-110791600D01*
X53095784Y-110886838D01*
X53143403Y-111077314D01*
X53143403Y-111410647D01*
X53095784Y-111601123D01*
X53000546Y-111696361D01*
X52905308Y-111743980D01*
X52714832Y-111743980D01*
X52619594Y-111696361D01*
X52524356Y-111601123D01*
X52476737Y-111410647D01*
X52476737Y-111077314D01*
X52524356Y-110886838D01*
X52619594Y-110791600D01*
X52714832Y-110743980D01*
X53571975Y-111743980D02*
X53571975Y-110743980D01*
X53905308Y-111458266D01*
X54238641Y-110743980D01*
X54238641Y-111743980D01*
X54714832Y-111743980D02*
X54714832Y-110743980D01*
X55095784Y-110743980D01*
X55191022Y-110791600D01*
X55238641Y-110839219D01*
X55286260Y-110934457D01*
X55286260Y-111077314D01*
X55238641Y-111172552D01*
X55191022Y-111220171D01*
X55095784Y-111267790D01*
X54714832Y-111267790D01*
X55714832Y-110743980D02*
X55714832Y-111553504D01*
X55762451Y-111648742D01*
X55810070Y-111696361D01*
X55905308Y-111743980D01*
X56095784Y-111743980D01*
X56191022Y-111696361D01*
X56238641Y-111648742D01*
X56286260Y-111553504D01*
X56286260Y-110743980D01*
X56619594Y-110743980D02*
X57191022Y-110743980D01*
X56905308Y-111743980D02*
X56905308Y-110743980D01*
X57524356Y-111220171D02*
X57857689Y-111220171D01*
X58000546Y-111743980D02*
X57524356Y-111743980D01*
X57524356Y-110743980D01*
X58000546Y-110743980D01*
X59000546Y-111743980D02*
X58667213Y-111267790D01*
X58429118Y-111743980D02*
X58429118Y-110743980D01*
X58810070Y-110743980D01*
X58905308Y-110791600D01*
X58952927Y-110839219D01*
X59000546Y-110934457D01*
X59000546Y-111077314D01*
X58952927Y-111172552D01*
X58905308Y-111220171D01*
X58810070Y-111267790D01*
X58429118Y-111267790D01*
X59381499Y-111696361D02*
X59524356Y-111743980D01*
X59762451Y-111743980D01*
X59857689Y-111696361D01*
X59905308Y-111648742D01*
X59952927Y-111553504D01*
X59952927Y-111458266D01*
X59905308Y-111363028D01*
X59857689Y-111315409D01*
X59762451Y-111267790D01*
X59571975Y-111220171D01*
X59476737Y-111172552D01*
X59429118Y-111124933D01*
X59381499Y-111029695D01*
X59381499Y-110934457D01*
X59429118Y-110839219D01*
X59476737Y-110791600D01*
X59571975Y-110743980D01*
X59810070Y-110743980D01*
X59952927Y-110791600D01*
X47714832Y-112822552D02*
X47619594Y-112774933D01*
X47571975Y-112727314D01*
X47524356Y-112632076D01*
X47524356Y-112584457D01*
X47571975Y-112489219D01*
X47619594Y-112441600D01*
X47714832Y-112393980D01*
X47905308Y-112393980D01*
X48000546Y-112441600D01*
X48048165Y-112489219D01*
X48095784Y-112584457D01*
X48095784Y-112632076D01*
X48048165Y-112727314D01*
X48000546Y-112774933D01*
X47905308Y-112822552D01*
X47714832Y-112822552D01*
X47619594Y-112870171D01*
X47571975Y-112917790D01*
X47524356Y-113013028D01*
X47524356Y-113203504D01*
X47571975Y-113298742D01*
X47619594Y-113346361D01*
X47714832Y-113393980D01*
X47905308Y-113393980D01*
X48000546Y-113346361D01*
X48048165Y-113298742D01*
X48095784Y-113203504D01*
X48095784Y-113013028D01*
X48048165Y-112917790D01*
X48000546Y-112870171D01*
X47905308Y-112822552D01*
X48714832Y-112393980D02*
X48810070Y-112393980D01*
X48905308Y-112441600D01*
X48952927Y-112489219D01*
X49000546Y-112584457D01*
X49048165Y-112774933D01*
X49048165Y-113013028D01*
X49000546Y-113203504D01*
X48952927Y-113298742D01*
X48905308Y-113346361D01*
X48810070Y-113393980D01*
X48714832Y-113393980D01*
X48619594Y-113346361D01*
X48571975Y-113298742D01*
X48524356Y-113203504D01*
X48476737Y-113013028D01*
X48476737Y-112774933D01*
X48524356Y-112584457D01*
X48571975Y-112489219D01*
X48619594Y-112441600D01*
X48714832Y-112393980D01*
X50000546Y-113393980D02*
X49429118Y-113393980D01*
X49714832Y-113393980D02*
X49714832Y-112393980D01*
X49619594Y-112536838D01*
X49524356Y-112632076D01*
X49429118Y-112679695D01*
X50571975Y-112822552D02*
X50476737Y-112774933D01*
X50429118Y-112727314D01*
X50381499Y-112632076D01*
X50381499Y-112584457D01*
X50429118Y-112489219D01*
X50476737Y-112441600D01*
X50571975Y-112393980D01*
X50762451Y-112393980D01*
X50857689Y-112441600D01*
X50905308Y-112489219D01*
X50952927Y-112584457D01*
X50952927Y-112632076D01*
X50905308Y-112727314D01*
X50857689Y-112774933D01*
X50762451Y-112822552D01*
X50571975Y-112822552D01*
X50476737Y-112870171D01*
X50429118Y-112917790D01*
X50381499Y-113013028D01*
X50381499Y-113203504D01*
X50429118Y-113298742D01*
X50476737Y-113346361D01*
X50571975Y-113393980D01*
X50762451Y-113393980D01*
X50857689Y-113346361D01*
X50905308Y-113298742D01*
X50952927Y-113203504D01*
X50952927Y-113013028D01*
X50905308Y-112917790D01*
X50857689Y-112870171D01*
X50762451Y-112822552D01*
X51524356Y-112822552D02*
X51429118Y-112774933D01*
X51381499Y-112727314D01*
X51333880Y-112632076D01*
X51333880Y-112584457D01*
X51381499Y-112489219D01*
X51429118Y-112441600D01*
X51524356Y-112393980D01*
X51714832Y-112393980D01*
X51810070Y-112441600D01*
X51857689Y-112489219D01*
X51905308Y-112584457D01*
X51905308Y-112632076D01*
X51857689Y-112727314D01*
X51810070Y-112774933D01*
X51714832Y-112822552D01*
X51524356Y-112822552D01*
X51429118Y-112870171D01*
X51381499Y-112917790D01*
X51333880Y-113013028D01*
X51333880Y-113203504D01*
X51381499Y-113298742D01*
X51429118Y-113346361D01*
X51524356Y-113393980D01*
X51714832Y-113393980D01*
X51810070Y-113346361D01*
X51857689Y-113298742D01*
X51905308Y-113203504D01*
X51905308Y-113013028D01*
X51857689Y-112917790D01*
X51810070Y-112870171D01*
X51714832Y-112822552D01*
X53095784Y-113393980D02*
X53095784Y-112393980D01*
X53476737Y-112393980D01*
X53571975Y-112441600D01*
X53619594Y-112489219D01*
X53667213Y-112584457D01*
X53667213Y-112727314D01*
X53619594Y-112822552D01*
X53571975Y-112870171D01*
X53476737Y-112917790D01*
X53095784Y-112917790D01*
X54667213Y-113393980D02*
X54333880Y-112917790D01*
X54095784Y-113393980D02*
X54095784Y-112393980D01*
X54476737Y-112393980D01*
X54571975Y-112441600D01*
X54619594Y-112489219D01*
X54667213Y-112584457D01*
X54667213Y-112727314D01*
X54619594Y-112822552D01*
X54571975Y-112870171D01*
X54476737Y-112917790D01*
X54095784Y-112917790D01*
X55286260Y-112393980D02*
X55476737Y-112393980D01*
X55571975Y-112441600D01*
X55667213Y-112536838D01*
X55714832Y-112727314D01*
X55714832Y-113060647D01*
X55667213Y-113251123D01*
X55571975Y-113346361D01*
X55476737Y-113393980D01*
X55286260Y-113393980D01*
X55191022Y-113346361D01*
X55095784Y-113251123D01*
X55048165Y-113060647D01*
X55048165Y-112727314D01*
X55095784Y-112536838D01*
X55191022Y-112441600D01*
X55286260Y-112393980D01*
X56714832Y-113298742D02*
X56667213Y-113346361D01*
X56524356Y-113393980D01*
X56429118Y-113393980D01*
X56286260Y-113346361D01*
X56191022Y-113251123D01*
X56143403Y-113155885D01*
X56095784Y-112965409D01*
X56095784Y-112822552D01*
X56143403Y-112632076D01*
X56191022Y-112536838D01*
X56286260Y-112441600D01*
X56429118Y-112393980D01*
X56524356Y-112393980D01*
X56667213Y-112441600D01*
X56714832Y-112489219D01*
X57143403Y-112870171D02*
X57476737Y-112870171D01*
X57619594Y-113393980D02*
X57143403Y-113393980D01*
X57143403Y-112393980D01*
X57619594Y-112393980D01*
X58000546Y-113346361D02*
X58143403Y-113393980D01*
X58381499Y-113393980D01*
X58476737Y-113346361D01*
X58524356Y-113298742D01*
X58571975Y-113203504D01*
X58571975Y-113108266D01*
X58524356Y-113013028D01*
X58476737Y-112965409D01*
X58381499Y-112917790D01*
X58191022Y-112870171D01*
X58095784Y-112822552D01*
X58048165Y-112774933D01*
X58000546Y-112679695D01*
X58000546Y-112584457D01*
X58048165Y-112489219D01*
X58095784Y-112441600D01*
X58191022Y-112393980D01*
X58429118Y-112393980D01*
X58571975Y-112441600D01*
X58952927Y-113346361D02*
X59095784Y-113393980D01*
X59333880Y-113393980D01*
X59429118Y-113346361D01*
X59476737Y-113298742D01*
X59524356Y-113203504D01*
X59524356Y-113108266D01*
X59476737Y-113013028D01*
X59429118Y-112965409D01*
X59333880Y-112917790D01*
X59143403Y-112870171D01*
X59048165Y-112822552D01*
X59000546Y-112774933D01*
X58952927Y-112679695D01*
X58952927Y-112584457D01*
X59000546Y-112489219D01*
X59048165Y-112441600D01*
X59143403Y-112393980D01*
X59381499Y-112393980D01*
X59524356Y-112441600D01*
X60143403Y-112393980D02*
X60333880Y-112393980D01*
X60429118Y-112441600D01*
X60524356Y-112536838D01*
X60571975Y-112727314D01*
X60571975Y-113060647D01*
X60524356Y-113251123D01*
X60429118Y-113346361D01*
X60333880Y-113393980D01*
X60143403Y-113393980D01*
X60048165Y-113346361D01*
X59952927Y-113251123D01*
X59905308Y-113060647D01*
X59905308Y-112727314D01*
X59952927Y-112536838D01*
X60048165Y-112441600D01*
X60143403Y-112393980D01*
X61571975Y-113393980D02*
X61238641Y-112917790D01*
X61000546Y-113393980D02*
X61000546Y-112393980D01*
X61381499Y-112393980D01*
X61476737Y-112441600D01*
X61524356Y-112489219D01*
X61571975Y-112584457D01*
X61571975Y-112727314D01*
X61524356Y-112822552D01*
X61476737Y-112870171D01*
X61381499Y-112917790D01*
X61000546Y-112917790D01*
X62048165Y-113346361D02*
X62048165Y-113393980D01*
X62000546Y-113489219D01*
X61952927Y-113536838D01*
X63381499Y-112822552D02*
X63286260Y-112774933D01*
X63238641Y-112727314D01*
X63191022Y-112632076D01*
X63191022Y-112584457D01*
X63238641Y-112489219D01*
X63286260Y-112441600D01*
X63381499Y-112393980D01*
X63571975Y-112393980D01*
X63667213Y-112441600D01*
X63714832Y-112489219D01*
X63762451Y-112584457D01*
X63762451Y-112632076D01*
X63714832Y-112727314D01*
X63667213Y-112774933D01*
X63571975Y-112822552D01*
X63381499Y-112822552D01*
X63286260Y-112870171D01*
X63238641Y-112917790D01*
X63191022Y-113013028D01*
X63191022Y-113203504D01*
X63238641Y-113298742D01*
X63286260Y-113346361D01*
X63381499Y-113393980D01*
X63571975Y-113393980D01*
X63667213Y-113346361D01*
X63714832Y-113298742D01*
X63762451Y-113203504D01*
X63762451Y-113013028D01*
X63714832Y-112917790D01*
X63667213Y-112870171D01*
X63571975Y-112822552D01*
X64143403Y-112489219D02*
X64191022Y-112441600D01*
X64286260Y-112393980D01*
X64524356Y-112393980D01*
X64619594Y-112441600D01*
X64667213Y-112489219D01*
X64714832Y-112584457D01*
X64714832Y-112679695D01*
X64667213Y-112822552D01*
X64095784Y-113393980D01*
X64714832Y-113393980D01*
X65619594Y-112393980D02*
X65143403Y-112393980D01*
X65095784Y-112870171D01*
X65143403Y-112822552D01*
X65238641Y-112774933D01*
X65476737Y-112774933D01*
X65571975Y-112822552D01*
X65619594Y-112870171D01*
X65667213Y-112965409D01*
X65667213Y-113203504D01*
X65619594Y-113298742D01*
X65571975Y-113346361D01*
X65476737Y-113393980D01*
X65238641Y-113393980D01*
X65143403Y-113346361D01*
X65095784Y-113298742D01*
X66143403Y-113393980D02*
X66333880Y-113393980D01*
X66429118Y-113346361D01*
X66476737Y-113298742D01*
X66571975Y-113155885D01*
X66619594Y-112965409D01*
X66619594Y-112584457D01*
X66571975Y-112489219D01*
X66524356Y-112441600D01*
X66429118Y-112393980D01*
X66238641Y-112393980D01*
X66143403Y-112441600D01*
X66095784Y-112489219D01*
X66048165Y-112584457D01*
X66048165Y-112822552D01*
X66095784Y-112917790D01*
X66143403Y-112965409D01*
X66238641Y-113013028D01*
X66429118Y-113013028D01*
X66524356Y-112965409D01*
X66571975Y-112917790D01*
X66619594Y-112822552D01*
X67095784Y-113346361D02*
X67095784Y-113393980D01*
X67048165Y-113489219D01*
X67000546Y-113536838D01*
X68429118Y-112822552D02*
X68333880Y-112774933D01*
X68286260Y-112727314D01*
X68238641Y-112632076D01*
X68238641Y-112584457D01*
X68286260Y-112489219D01*
X68333880Y-112441600D01*
X68429118Y-112393980D01*
X68619594Y-112393980D01*
X68714832Y-112441600D01*
X68762451Y-112489219D01*
X68810070Y-112584457D01*
X68810070Y-112632076D01*
X68762451Y-112727314D01*
X68714832Y-112774933D01*
X68619594Y-112822552D01*
X68429118Y-112822552D01*
X68333880Y-112870171D01*
X68286260Y-112917790D01*
X68238641Y-113013028D01*
X68238641Y-113203504D01*
X68286260Y-113298742D01*
X68333880Y-113346361D01*
X68429118Y-113393980D01*
X68619594Y-113393980D01*
X68714832Y-113346361D01*
X68762451Y-113298742D01*
X68810070Y-113203504D01*
X68810070Y-113013028D01*
X68762451Y-112917790D01*
X68714832Y-112870171D01*
X68619594Y-112822552D01*
X69191022Y-112489219D02*
X69238641Y-112441600D01*
X69333880Y-112393980D01*
X69571975Y-112393980D01*
X69667213Y-112441600D01*
X69714832Y-112489219D01*
X69762451Y-112584457D01*
X69762451Y-112679695D01*
X69714832Y-112822552D01*
X69143403Y-113393980D01*
X69762451Y-113393980D01*
X70667213Y-112393980D02*
X70191022Y-112393980D01*
X70143403Y-112870171D01*
X70191022Y-112822552D01*
X70286260Y-112774933D01*
X70524356Y-112774933D01*
X70619594Y-112822552D01*
X70667213Y-112870171D01*
X70714832Y-112965409D01*
X70714832Y-113203504D01*
X70667213Y-113298742D01*
X70619594Y-113346361D01*
X70524356Y-113393980D01*
X70286260Y-113393980D01*
X70191022Y-113346361D01*
X70143403Y-113298742D01*
X71048165Y-112393980D02*
X71667213Y-112393980D01*
X71333880Y-112774933D01*
X71476737Y-112774933D01*
X71571975Y-112822552D01*
X71619594Y-112870171D01*
X71667213Y-112965409D01*
X71667213Y-113203504D01*
X71619594Y-113298742D01*
X71571975Y-113346361D01*
X71476737Y-113393980D01*
X71191022Y-113393980D01*
X71095784Y-113346361D01*
X71048165Y-113298742D01*
X48143403Y-114948742D02*
X48095784Y-114996361D01*
X47952927Y-115043980D01*
X47857689Y-115043980D01*
X47714832Y-114996361D01*
X47619594Y-114901123D01*
X47571975Y-114805885D01*
X47524356Y-114615409D01*
X47524356Y-114472552D01*
X47571975Y-114282076D01*
X47619594Y-114186838D01*
X47714832Y-114091600D01*
X47857689Y-114043980D01*
X47952927Y-114043980D01*
X48095784Y-114091600D01*
X48143403Y-114139219D01*
X48714832Y-115043980D02*
X48619594Y-114996361D01*
X48571975Y-114948742D01*
X48524356Y-114853504D01*
X48524356Y-114567790D01*
X48571975Y-114472552D01*
X48619594Y-114424933D01*
X48714832Y-114377314D01*
X48857689Y-114377314D01*
X48952927Y-114424933D01*
X49000546Y-114472552D01*
X49048165Y-114567790D01*
X49048165Y-114853504D01*
X49000546Y-114948742D01*
X48952927Y-114996361D01*
X48857689Y-115043980D01*
X48714832Y-115043980D01*
X49476737Y-114377314D02*
X49476737Y-115377314D01*
X49476737Y-114424933D02*
X49571975Y-114377314D01*
X49762451Y-114377314D01*
X49857689Y-114424933D01*
X49905308Y-114472552D01*
X49952927Y-114567790D01*
X49952927Y-114853504D01*
X49905308Y-114948742D01*
X49857689Y-114996361D01*
X49762451Y-115043980D01*
X49571975Y-115043980D01*
X49476737Y-114996361D01*
X50286260Y-114377314D02*
X50524356Y-115043980D01*
X50762451Y-114377314D02*
X50524356Y-115043980D01*
X50429118Y-115282076D01*
X50381499Y-115329695D01*
X50286260Y-115377314D01*
X51143403Y-115043980D02*
X51143403Y-114377314D01*
X51143403Y-114567790D02*
X51191022Y-114472552D01*
X51238641Y-114424933D01*
X51333880Y-114377314D01*
X51429118Y-114377314D01*
X51762451Y-115043980D02*
X51762451Y-114377314D01*
X51762451Y-114043980D02*
X51714832Y-114091600D01*
X51762451Y-114139219D01*
X51810070Y-114091600D01*
X51762451Y-114043980D01*
X51762451Y-114139219D01*
X52667213Y-114377314D02*
X52667213Y-115186838D01*
X52619594Y-115282076D01*
X52571975Y-115329695D01*
X52476737Y-115377314D01*
X52333880Y-115377314D01*
X52238641Y-115329695D01*
X52667213Y-114996361D02*
X52571975Y-115043980D01*
X52381499Y-115043980D01*
X52286260Y-114996361D01*
X52238641Y-114948742D01*
X52191022Y-114853504D01*
X52191022Y-114567790D01*
X52238641Y-114472552D01*
X52286260Y-114424933D01*
X52381499Y-114377314D01*
X52571975Y-114377314D01*
X52667213Y-114424933D01*
X53143403Y-115043980D02*
X53143403Y-114043980D01*
X53571975Y-115043980D02*
X53571975Y-114520171D01*
X53524356Y-114424933D01*
X53429118Y-114377314D01*
X53286260Y-114377314D01*
X53191022Y-114424933D01*
X53143403Y-114472552D01*
X53905308Y-114377314D02*
X54286260Y-114377314D01*
X54048165Y-114043980D02*
X54048165Y-114901123D01*
X54095784Y-114996361D01*
X54191022Y-115043980D01*
X54286260Y-115043980D01*
X55667213Y-115424933D02*
X55619594Y-115377314D01*
X55524356Y-115234457D01*
X55476737Y-115139219D01*
X55429118Y-114996361D01*
X55381499Y-114758266D01*
X55381499Y-114567790D01*
X55429118Y-114329695D01*
X55476737Y-114186838D01*
X55524356Y-114091600D01*
X55619594Y-113948742D01*
X55667213Y-113901123D01*
X56619594Y-114948742D02*
X56571975Y-114996361D01*
X56429118Y-115043980D01*
X56333880Y-115043980D01*
X56191022Y-114996361D01*
X56095784Y-114901123D01*
X56048165Y-114805885D01*
X56000546Y-114615409D01*
X56000546Y-114472552D01*
X56048165Y-114282076D01*
X56095784Y-114186838D01*
X56191022Y-114091600D01*
X56333880Y-114043980D01*
X56429118Y-114043980D01*
X56571975Y-114091600D01*
X56619594Y-114139219D01*
X56952927Y-115424933D02*
X57000546Y-115377314D01*
X57095784Y-115234457D01*
X57143403Y-115139219D01*
X57191022Y-114996361D01*
X57238641Y-114758266D01*
X57238641Y-114567790D01*
X57191022Y-114329695D01*
X57143403Y-114186838D01*
X57095784Y-114091600D01*
X57000546Y-113948742D01*
X56952927Y-113901123D01*
X58429118Y-114139219D02*
X58476737Y-114091600D01*
X58571975Y-114043980D01*
X58810070Y-114043980D01*
X58905308Y-114091600D01*
X58952927Y-114139219D01*
X59000546Y-114234457D01*
X59000546Y-114329695D01*
X58952927Y-114472552D01*
X58381499Y-115043980D01*
X59000546Y-115043980D01*
X59619594Y-114043980D02*
X59714832Y-114043980D01*
X59810070Y-114091600D01*
X59857689Y-114139219D01*
X59905308Y-114234457D01*
X59952927Y-114424933D01*
X59952927Y-114663028D01*
X59905308Y-114853504D01*
X59857689Y-114948742D01*
X59810070Y-114996361D01*
X59714832Y-115043980D01*
X59619594Y-115043980D01*
X59524356Y-114996361D01*
X59476737Y-114948742D01*
X59429118Y-114853504D01*
X59381499Y-114663028D01*
X59381499Y-114424933D01*
X59429118Y-114234457D01*
X59476737Y-114139219D01*
X59524356Y-114091600D01*
X59619594Y-114043980D01*
X60333880Y-114139219D02*
X60381499Y-114091600D01*
X60476737Y-114043980D01*
X60714832Y-114043980D01*
X60810070Y-114091600D01*
X60857689Y-114139219D01*
X60905308Y-114234457D01*
X60905308Y-114329695D01*
X60857689Y-114472552D01*
X60286260Y-115043980D01*
X60905308Y-115043980D01*
X61857689Y-115043980D02*
X61286260Y-115043980D01*
X61571975Y-115043980D02*
X61571975Y-114043980D01*
X61476737Y-114186838D01*
X61381499Y-114282076D01*
X61286260Y-114329695D01*
X63048165Y-114520171D02*
X63381499Y-114520171D01*
X63524356Y-115043980D02*
X63048165Y-115043980D01*
X63048165Y-114043980D01*
X63524356Y-114043980D01*
X63952927Y-115043980D02*
X63952927Y-114043980D01*
X64286260Y-114758266D01*
X64619594Y-114043980D01*
X64619594Y-115043980D01*
X65095784Y-115043980D02*
X65095784Y-114043980D01*
X65429118Y-114758266D01*
X65762451Y-114043980D01*
X65762451Y-115043980D01*
X47476737Y-116027314D02*
X47667213Y-116693980D01*
X47857689Y-116217790D01*
X48048165Y-116693980D01*
X48238641Y-116027314D01*
X48524356Y-116027314D02*
X48714832Y-116693980D01*
X48905308Y-116217790D01*
X49095784Y-116693980D01*
X49286260Y-116027314D01*
X49571975Y-116027314D02*
X49762451Y-116693980D01*
X49952927Y-116217790D01*
X50143403Y-116693980D01*
X50333880Y-116027314D01*
X50714832Y-116598742D02*
X50762451Y-116646361D01*
X50714832Y-116693980D01*
X50667213Y-116646361D01*
X50714832Y-116598742D01*
X50714832Y-116693980D01*
X51191022Y-116693980D02*
X51191022Y-115693980D01*
X51619594Y-116693980D02*
X51619594Y-116170171D01*
X51571975Y-116074933D01*
X51476737Y-116027314D01*
X51333880Y-116027314D01*
X51238641Y-116074933D01*
X51191022Y-116122552D01*
X52238641Y-116693980D02*
X52143403Y-116646361D01*
X52095784Y-116598742D01*
X52048165Y-116503504D01*
X52048165Y-116217790D01*
X52095784Y-116122552D01*
X52143403Y-116074933D01*
X52238641Y-116027314D01*
X52381499Y-116027314D01*
X52476737Y-116074933D01*
X52524356Y-116122552D01*
X52571975Y-116217790D01*
X52571975Y-116503504D01*
X52524356Y-116598742D01*
X52476737Y-116646361D01*
X52381499Y-116693980D01*
X52238641Y-116693980D01*
X53000546Y-116693980D02*
X53000546Y-116027314D01*
X53000546Y-116122552D02*
X53048165Y-116074933D01*
X53143403Y-116027314D01*
X53286260Y-116027314D01*
X53381499Y-116074933D01*
X53429118Y-116170171D01*
X53429118Y-116693980D01*
X53429118Y-116170171D02*
X53476737Y-116074933D01*
X53571975Y-116027314D01*
X53714832Y-116027314D01*
X53810070Y-116074933D01*
X53857689Y-116170171D01*
X53857689Y-116693980D01*
X54714832Y-116646361D02*
X54619594Y-116693980D01*
X54429118Y-116693980D01*
X54333880Y-116646361D01*
X54286260Y-116551123D01*
X54286260Y-116170171D01*
X54333880Y-116074933D01*
X54429118Y-116027314D01*
X54619594Y-116027314D01*
X54714832Y-116074933D01*
X54762451Y-116170171D01*
X54762451Y-116265409D01*
X54286260Y-116360647D01*
X55191022Y-116693980D02*
X55191022Y-115693980D01*
X55191022Y-116074933D02*
X55286260Y-116027314D01*
X55476737Y-116027314D01*
X55571975Y-116074933D01*
X55619594Y-116122552D01*
X55667213Y-116217790D01*
X55667213Y-116503504D01*
X55619594Y-116598742D01*
X55571975Y-116646361D01*
X55476737Y-116693980D01*
X55286260Y-116693980D01*
X55191022Y-116646361D01*
X56095784Y-116693980D02*
X56095784Y-116027314D01*
X56095784Y-116217790D02*
X56143403Y-116122552D01*
X56191022Y-116074933D01*
X56286260Y-116027314D01*
X56381499Y-116027314D01*
X57095784Y-116646361D02*
X57000546Y-116693980D01*
X56810070Y-116693980D01*
X56714832Y-116646361D01*
X56667213Y-116551123D01*
X56667213Y-116170171D01*
X56714832Y-116074933D01*
X56810070Y-116027314D01*
X57000546Y-116027314D01*
X57095784Y-116074933D01*
X57143403Y-116170171D01*
X57143403Y-116265409D01*
X56667213Y-116360647D01*
X57476737Y-116027314D02*
X57667213Y-116693980D01*
X57857689Y-116217790D01*
X58048165Y-116693980D01*
X58238641Y-116027314D01*
X58762451Y-116122552D02*
X58667213Y-116074933D01*
X58619594Y-116027314D01*
X58571975Y-115932076D01*
X58571975Y-115884457D01*
X58619594Y-115789219D01*
X58667213Y-115741600D01*
X58762451Y-115693980D01*
X58952927Y-115693980D01*
X59048165Y-115741600D01*
X59095784Y-115789219D01*
X59143403Y-115884457D01*
X59143403Y-115932076D01*
X59095784Y-116027314D01*
X59048165Y-116074933D01*
X58952927Y-116122552D01*
X58762451Y-116122552D01*
X58667213Y-116170171D01*
X58619594Y-116217790D01*
X58571975Y-116313028D01*
X58571975Y-116503504D01*
X58619594Y-116598742D01*
X58667213Y-116646361D01*
X58762451Y-116693980D01*
X58952927Y-116693980D01*
X59048165Y-116646361D01*
X59095784Y-116598742D01*
X59143403Y-116503504D01*
X59143403Y-116313028D01*
X59095784Y-116217790D01*
X59048165Y-116170171D01*
X58952927Y-116122552D01*
X59762451Y-115693980D02*
X59857689Y-115693980D01*
X59952927Y-115741600D01*
X60000546Y-115789219D01*
X60048165Y-115884457D01*
X60095784Y-116074933D01*
X60095784Y-116313028D01*
X60048165Y-116503504D01*
X60000546Y-116598742D01*
X59952927Y-116646361D01*
X59857689Y-116693980D01*
X59762451Y-116693980D01*
X59667213Y-116646361D01*
X59619594Y-116598742D01*
X59571975Y-116503504D01*
X59524356Y-116313028D01*
X59524356Y-116074933D01*
X59571975Y-115884457D01*
X59619594Y-115789219D01*
X59667213Y-115741600D01*
X59762451Y-115693980D01*
X60667213Y-116122552D02*
X60571975Y-116074933D01*
X60524356Y-116027314D01*
X60476737Y-115932076D01*
X60476737Y-115884457D01*
X60524356Y-115789219D01*
X60571975Y-115741600D01*
X60667213Y-115693980D01*
X60857689Y-115693980D01*
X60952927Y-115741600D01*
X61000546Y-115789219D01*
X61048165Y-115884457D01*
X61048165Y-115932076D01*
X61000546Y-116027314D01*
X60952927Y-116074933D01*
X60857689Y-116122552D01*
X60667213Y-116122552D01*
X60571975Y-116170171D01*
X60524356Y-116217790D01*
X60476737Y-116313028D01*
X60476737Y-116503504D01*
X60524356Y-116598742D01*
X60571975Y-116646361D01*
X60667213Y-116693980D01*
X60857689Y-116693980D01*
X60952927Y-116646361D01*
X61000546Y-116598742D01*
X61048165Y-116503504D01*
X61048165Y-116313028D01*
X61000546Y-116217790D01*
X60952927Y-116170171D01*
X60857689Y-116122552D01*
X61619594Y-116122552D02*
X61524356Y-116074933D01*
X61476737Y-116027314D01*
X61429118Y-115932076D01*
X61429118Y-115884457D01*
X61476737Y-115789219D01*
X61524356Y-115741600D01*
X61619594Y-115693980D01*
X61810070Y-115693980D01*
X61905308Y-115741600D01*
X61952927Y-115789219D01*
X62000546Y-115884457D01*
X62000546Y-115932076D01*
X61952927Y-116027314D01*
X61905308Y-116074933D01*
X61810070Y-116122552D01*
X61619594Y-116122552D01*
X61524356Y-116170171D01*
X61476737Y-116217790D01*
X61429118Y-116313028D01*
X61429118Y-116503504D01*
X61476737Y-116598742D01*
X61524356Y-116646361D01*
X61619594Y-116693980D01*
X61810070Y-116693980D01*
X61905308Y-116646361D01*
X61952927Y-116598742D01*
X62000546Y-116503504D01*
X62000546Y-116313028D01*
X61952927Y-116217790D01*
X61905308Y-116170171D01*
X61810070Y-116122552D01*
X62429118Y-116598742D02*
X62476737Y-116646361D01*
X62429118Y-116693980D01*
X62381499Y-116646361D01*
X62429118Y-116598742D01*
X62429118Y-116693980D01*
X63333879Y-116646361D02*
X63238641Y-116693980D01*
X63048165Y-116693980D01*
X62952927Y-116646361D01*
X62905308Y-116598742D01*
X62857689Y-116503504D01*
X62857689Y-116217790D01*
X62905308Y-116122552D01*
X62952927Y-116074933D01*
X63048165Y-116027314D01*
X63238641Y-116027314D01*
X63333879Y-116074933D01*
X63905308Y-116693980D02*
X63810070Y-116646361D01*
X63762451Y-116598742D01*
X63714832Y-116503504D01*
X63714832Y-116217790D01*
X63762451Y-116122552D01*
X63810070Y-116074933D01*
X63905308Y-116027314D01*
X64048165Y-116027314D01*
X64143403Y-116074933D01*
X64191022Y-116122552D01*
X64238641Y-116217790D01*
X64238641Y-116503504D01*
X64191022Y-116598742D01*
X64143403Y-116646361D01*
X64048165Y-116693980D01*
X63905308Y-116693980D01*
X64667213Y-116693980D02*
X64667213Y-116027314D01*
X64667213Y-116122552D02*
X64714832Y-116074933D01*
X64810070Y-116027314D01*
X64952927Y-116027314D01*
X65048165Y-116074933D01*
X65095784Y-116170171D01*
X65095784Y-116693980D01*
X65095784Y-116170171D02*
X65143403Y-116074933D01*
X65238641Y-116027314D01*
X65381499Y-116027314D01*
X65476737Y-116074933D01*
X65524356Y-116170171D01*
X65524356Y-116693980D01*
D11*
G04 #@! TO.C,R2*
X155416380Y-73888600D02*
X154646380Y-73888600D01*
X147336380Y-73888600D02*
X148106380Y-73888600D01*
X154646380Y-72518600D02*
X148106380Y-72518600D01*
X154646380Y-75258600D02*
X154646380Y-72518600D01*
X148106380Y-75258600D02*
X154646380Y-75258600D01*
X148106380Y-72518600D02*
X148106380Y-75258600D01*
G04 #@! TO.C,Y1*
X63579380Y-65491600D02*
X69829380Y-65491600D01*
X63579380Y-60441600D02*
X69829380Y-60441600D01*
X69829380Y-65491600D02*
G75*
G03*
X69829380Y-60441600I0J2525000D01*
G01*
X63579380Y-65491600D02*
G75*
G02*
X63579380Y-60441600I0J2525000D01*
G01*
G04 #@! TO.C,80188*
X79371380Y-70963600D02*
X64746380Y-70963600D01*
X79371380Y-102213600D02*
X79371380Y-70963600D01*
X48121380Y-102213600D02*
X79371380Y-102213600D01*
X48121380Y-71963600D02*
X48121380Y-102213600D01*
X49121380Y-70963600D02*
X48121380Y-71963600D01*
X62746380Y-70963600D02*
X49121380Y-70963600D01*
G04 #@! TO.C,U8*
X134926380Y-70188600D02*
X134926380Y-68538600D01*
X114486380Y-70188600D02*
X134926380Y-70188600D01*
X114486380Y-64888600D02*
X114486380Y-70188600D01*
X134926380Y-64888600D02*
X114486380Y-64888600D01*
X134926380Y-66538600D02*
X134926380Y-64888600D01*
X134926380Y-68538600D02*
G75*
G02*
X134926380Y-66538600I0J1000000D01*
G01*
G04 #@! TO.C,U7*
X175616380Y-87798600D02*
X170156380Y-87798600D01*
X175616380Y-118398600D02*
X175616380Y-87798600D01*
X162696380Y-118398600D02*
X175616380Y-118398600D01*
X162696380Y-87798600D02*
X162696380Y-118398600D01*
X168156380Y-87798600D02*
X162696380Y-87798600D01*
X170156380Y-87798600D02*
G75*
G02*
X168156380Y-87798600I-1000000J0D01*
G01*
G04 #@! TO.C,U6*
X155296380Y-82718600D02*
X149836380Y-82718600D01*
X155296380Y-118398600D02*
X155296380Y-82718600D01*
X142376380Y-118398600D02*
X155296380Y-118398600D01*
X142376380Y-82718600D02*
X142376380Y-118398600D01*
X147836380Y-82718600D02*
X142376380Y-82718600D01*
X149836380Y-82718600D02*
G75*
G02*
X147836380Y-82718600I-1000000J0D01*
G01*
G04 #@! TO.C,R5*
X155416380Y-67792600D02*
X154646380Y-67792600D01*
X147336380Y-67792600D02*
X148106380Y-67792600D01*
X154646380Y-66422600D02*
X148106380Y-66422600D01*
X154646380Y-69162600D02*
X154646380Y-66422600D01*
X148106380Y-69162600D02*
X154646380Y-69162600D01*
X148106380Y-66422600D02*
X148106380Y-69162600D01*
G04 #@! TO.C,R1*
X155416380Y-70840600D02*
X154646380Y-70840600D01*
X147336380Y-70840600D02*
X148106380Y-70840600D01*
X154646380Y-69470600D02*
X148106380Y-69470600D01*
X154646380Y-72210600D02*
X154646380Y-69470600D01*
X148106380Y-72210600D02*
X154646380Y-72210600D01*
X148106380Y-69470600D02*
X148106380Y-72210600D01*
G04 #@! TO.C,C8*
X135843380Y-71118600D02*
X135828380Y-71118600D01*
X137968380Y-71118600D02*
X137953380Y-71118600D01*
X135843380Y-66578600D02*
X135828380Y-66578600D01*
X137968380Y-66578600D02*
X137953380Y-66578600D01*
X135828380Y-66578600D02*
X135828380Y-71118600D01*
X137968380Y-66578600D02*
X137968380Y-71118600D01*
G04 #@! TO.C,C7*
X156226380Y-81801600D02*
X156226380Y-81816600D01*
X156226380Y-79676600D02*
X156226380Y-79691600D01*
X151686380Y-81801600D02*
X151686380Y-81816600D01*
X151686380Y-79676600D02*
X151686380Y-79691600D01*
X151686380Y-81816600D02*
X156226380Y-81816600D01*
X151686380Y-79676600D02*
X156226380Y-79676600D01*
G04 #@! TO.C,C6*
X176546380Y-86881600D02*
X176546380Y-86896600D01*
X176546380Y-84756600D02*
X176546380Y-84771600D01*
X172006380Y-86881600D02*
X172006380Y-86896600D01*
X172006380Y-84756600D02*
X172006380Y-84771600D01*
X172006380Y-86896600D02*
X176546380Y-86896600D01*
X172006380Y-84756600D02*
X176546380Y-84756600D01*
G04 #@! TO.C,C5*
X80217380Y-86278600D02*
X80202380Y-86278600D01*
X82342380Y-86278600D02*
X82327380Y-86278600D01*
X80217380Y-81738600D02*
X80202380Y-81738600D01*
X82342380Y-81738600D02*
X82327380Y-81738600D01*
X80202380Y-81738600D02*
X80202380Y-86278600D01*
X82342380Y-81738600D02*
X82342380Y-86278600D01*
G04 #@! TO.C,U4*
X134976380Y-85258600D02*
X133326380Y-85258600D01*
X134976380Y-110778600D02*
X134976380Y-85258600D01*
X129676380Y-110778600D02*
X134976380Y-110778600D01*
X129676380Y-85258600D02*
X129676380Y-110778600D01*
X131326380Y-85258600D02*
X129676380Y-85258600D01*
X133326380Y-85258600D02*
G75*
G02*
X131326380Y-85258600I-1000000J0D01*
G01*
G04 #@! TO.C,U3*
X109526380Y-70188600D02*
X109526380Y-68538600D01*
X84006380Y-70188600D02*
X109526380Y-70188600D01*
X84006380Y-64888600D02*
X84006380Y-70188600D01*
X109526380Y-64888600D02*
X84006380Y-64888600D01*
X109526380Y-66538600D02*
X109526380Y-64888600D01*
X109526380Y-68538600D02*
G75*
G02*
X109526380Y-66538600I0J1000000D01*
G01*
G04 #@! TO.C,U2*
X106986380Y-115908600D02*
X106986380Y-114258600D01*
X81466380Y-115908600D02*
X106986380Y-115908600D01*
X81466380Y-110608600D02*
X81466380Y-115908600D01*
X106986380Y-110608600D02*
X81466380Y-110608600D01*
X106986380Y-112258600D02*
X106986380Y-110608600D01*
X106986380Y-114258600D02*
G75*
G02*
X106986380Y-112258600I0J1000000D01*
G01*
G04 #@! TO.C,C4*
X135906380Y-84341600D02*
X135906380Y-84356600D01*
X135906380Y-82216600D02*
X135906380Y-82231600D01*
X131366380Y-84341600D02*
X131366380Y-84356600D01*
X131366380Y-82216600D02*
X131366380Y-82231600D01*
X131366380Y-84356600D02*
X135906380Y-84356600D01*
X131366380Y-82216600D02*
X135906380Y-82216600D01*
G04 #@! TO.C,C3*
X110443380Y-71118600D02*
X110428380Y-71118600D01*
X112568380Y-71118600D02*
X112553380Y-71118600D01*
X110443380Y-66578600D02*
X110428380Y-66578600D01*
X112568380Y-66578600D02*
X112553380Y-66578600D01*
X110428380Y-66578600D02*
X110428380Y-71118600D01*
X112568380Y-66578600D02*
X112568380Y-71118600D01*
G04 #@! TO.C,C2*
X107903380Y-116838600D02*
X107888380Y-116838600D01*
X110028380Y-116838600D02*
X110013380Y-116838600D01*
X107903380Y-112298600D02*
X107888380Y-112298600D01*
X110028380Y-112298600D02*
X110013380Y-112298600D01*
X107888380Y-112298600D02*
X107888380Y-116838600D01*
X110028380Y-112298600D02*
X110028380Y-116838600D01*
G04 #@! TO.C,R2*
D10*
X151209713Y-71970980D02*
X150876380Y-71494790D01*
X150638284Y-71970980D02*
X150638284Y-70970980D01*
X151019237Y-70970980D01*
X151114475Y-71018600D01*
X151162094Y-71066219D01*
X151209713Y-71161457D01*
X151209713Y-71304314D01*
X151162094Y-71399552D01*
X151114475Y-71447171D01*
X151019237Y-71494790D01*
X150638284Y-71494790D01*
X151590665Y-71066219D02*
X151638284Y-71018600D01*
X151733522Y-70970980D01*
X151971618Y-70970980D01*
X152066856Y-71018600D01*
X152114475Y-71066219D01*
X152162094Y-71161457D01*
X152162094Y-71256695D01*
X152114475Y-71399552D01*
X151543046Y-71970980D01*
X152162094Y-71970980D01*
G04 #@! TO.C,Y1*
X64918665Y-66848742D02*
X64871046Y-66896361D01*
X64728189Y-66943980D01*
X64632951Y-66943980D01*
X64490094Y-66896361D01*
X64394856Y-66801123D01*
X64347237Y-66705885D01*
X64299618Y-66515409D01*
X64299618Y-66372552D01*
X64347237Y-66182076D01*
X64394856Y-66086838D01*
X64490094Y-65991600D01*
X64632951Y-65943980D01*
X64728189Y-65943980D01*
X64871046Y-65991600D01*
X64918665Y-66039219D01*
X65347237Y-66943980D02*
X65347237Y-66277314D01*
X65347237Y-66467790D02*
X65394856Y-66372552D01*
X65442475Y-66324933D01*
X65537713Y-66277314D01*
X65632951Y-66277314D01*
X65871046Y-66277314D02*
X66109141Y-66943980D01*
X66347237Y-66277314D02*
X66109141Y-66943980D01*
X66013903Y-67182076D01*
X65966284Y-67229695D01*
X65871046Y-67277314D01*
X66680570Y-66896361D02*
X66775808Y-66943980D01*
X66966284Y-66943980D01*
X67061522Y-66896361D01*
X67109141Y-66801123D01*
X67109141Y-66753504D01*
X67061522Y-66658266D01*
X66966284Y-66610647D01*
X66823427Y-66610647D01*
X66728189Y-66563028D01*
X66680570Y-66467790D01*
X66680570Y-66420171D01*
X66728189Y-66324933D01*
X66823427Y-66277314D01*
X66966284Y-66277314D01*
X67061522Y-66324933D01*
X67394856Y-66277314D02*
X67775808Y-66277314D01*
X67537713Y-65943980D02*
X67537713Y-66801123D01*
X67585332Y-66896361D01*
X67680570Y-66943980D01*
X67775808Y-66943980D01*
X68537713Y-66943980D02*
X68537713Y-66420171D01*
X68490094Y-66324933D01*
X68394856Y-66277314D01*
X68204380Y-66277314D01*
X68109141Y-66324933D01*
X68537713Y-66896361D02*
X68442475Y-66943980D01*
X68204380Y-66943980D01*
X68109141Y-66896361D01*
X68061522Y-66801123D01*
X68061522Y-66705885D01*
X68109141Y-66610647D01*
X68204380Y-66563028D01*
X68442475Y-66563028D01*
X68537713Y-66515409D01*
X69156760Y-66943980D02*
X69061522Y-66896361D01*
X69013903Y-66801123D01*
X69013903Y-65943980D01*
G04 #@! TO.C,80188*
X61746380Y-102979552D02*
X61651141Y-102931933D01*
X61603522Y-102884314D01*
X61555903Y-102789076D01*
X61555903Y-102741457D01*
X61603522Y-102646219D01*
X61651141Y-102598600D01*
X61746380Y-102550980D01*
X61936856Y-102550980D01*
X62032094Y-102598600D01*
X62079713Y-102646219D01*
X62127332Y-102741457D01*
X62127332Y-102789076D01*
X62079713Y-102884314D01*
X62032094Y-102931933D01*
X61936856Y-102979552D01*
X61746380Y-102979552D01*
X61651141Y-103027171D01*
X61603522Y-103074790D01*
X61555903Y-103170028D01*
X61555903Y-103360504D01*
X61603522Y-103455742D01*
X61651141Y-103503361D01*
X61746380Y-103550980D01*
X61936856Y-103550980D01*
X62032094Y-103503361D01*
X62079713Y-103455742D01*
X62127332Y-103360504D01*
X62127332Y-103170028D01*
X62079713Y-103074790D01*
X62032094Y-103027171D01*
X61936856Y-102979552D01*
X62746380Y-102550980D02*
X62841618Y-102550980D01*
X62936856Y-102598600D01*
X62984475Y-102646219D01*
X63032094Y-102741457D01*
X63079713Y-102931933D01*
X63079713Y-103170028D01*
X63032094Y-103360504D01*
X62984475Y-103455742D01*
X62936856Y-103503361D01*
X62841618Y-103550980D01*
X62746380Y-103550980D01*
X62651141Y-103503361D01*
X62603522Y-103455742D01*
X62555903Y-103360504D01*
X62508284Y-103170028D01*
X62508284Y-102931933D01*
X62555903Y-102741457D01*
X62603522Y-102646219D01*
X62651141Y-102598600D01*
X62746380Y-102550980D01*
X64032094Y-103550980D02*
X63460665Y-103550980D01*
X63746380Y-103550980D02*
X63746380Y-102550980D01*
X63651141Y-102693838D01*
X63555903Y-102789076D01*
X63460665Y-102836695D01*
X64603522Y-102979552D02*
X64508284Y-102931933D01*
X64460665Y-102884314D01*
X64413046Y-102789076D01*
X64413046Y-102741457D01*
X64460665Y-102646219D01*
X64508284Y-102598600D01*
X64603522Y-102550980D01*
X64793999Y-102550980D01*
X64889237Y-102598600D01*
X64936856Y-102646219D01*
X64984475Y-102741457D01*
X64984475Y-102789076D01*
X64936856Y-102884314D01*
X64889237Y-102931933D01*
X64793999Y-102979552D01*
X64603522Y-102979552D01*
X64508284Y-103027171D01*
X64460665Y-103074790D01*
X64413046Y-103170028D01*
X64413046Y-103360504D01*
X64460665Y-103455742D01*
X64508284Y-103503361D01*
X64603522Y-103550980D01*
X64793999Y-103550980D01*
X64889237Y-103503361D01*
X64936856Y-103455742D01*
X64984475Y-103360504D01*
X64984475Y-103170028D01*
X64936856Y-103074790D01*
X64889237Y-103027171D01*
X64793999Y-102979552D01*
X65555903Y-102979552D02*
X65460665Y-102931933D01*
X65413046Y-102884314D01*
X65365427Y-102789076D01*
X65365427Y-102741457D01*
X65413046Y-102646219D01*
X65460665Y-102598600D01*
X65555903Y-102550980D01*
X65746380Y-102550980D01*
X65841618Y-102598600D01*
X65889237Y-102646219D01*
X65936856Y-102741457D01*
X65936856Y-102789076D01*
X65889237Y-102884314D01*
X65841618Y-102931933D01*
X65746380Y-102979552D01*
X65555903Y-102979552D01*
X65460665Y-103027171D01*
X65413046Y-103074790D01*
X65365427Y-103170028D01*
X65365427Y-103360504D01*
X65413046Y-103455742D01*
X65460665Y-103503361D01*
X65555903Y-103550980D01*
X65746380Y-103550980D01*
X65841618Y-103503361D01*
X65889237Y-103455742D01*
X65936856Y-103360504D01*
X65936856Y-103170028D01*
X65889237Y-103074790D01*
X65841618Y-103027171D01*
X65746380Y-102979552D01*
G04 #@! TO.C,U8*
X114033999Y-64419552D02*
X114033999Y-65086219D01*
X113033999Y-64657647D01*
X113700665Y-65895742D02*
X113033999Y-65895742D01*
X114081618Y-65657647D02*
X113367332Y-65419552D01*
X113367332Y-66038600D01*
X113033999Y-66895742D02*
X113033999Y-66419552D01*
X114033999Y-66419552D01*
X113081618Y-67181457D02*
X113033999Y-67324314D01*
X113033999Y-67562409D01*
X113081618Y-67657647D01*
X113129237Y-67705266D01*
X113224475Y-67752885D01*
X113319713Y-67752885D01*
X113414951Y-67705266D01*
X113462570Y-67657647D01*
X113510189Y-67562409D01*
X113557808Y-67371933D01*
X113605427Y-67276695D01*
X113653046Y-67229076D01*
X113748284Y-67181457D01*
X113843522Y-67181457D01*
X113938760Y-67229076D01*
X113986380Y-67276695D01*
X114033999Y-67371933D01*
X114033999Y-67610028D01*
X113986380Y-67752885D01*
X113938760Y-68133838D02*
X113986380Y-68181457D01*
X114033999Y-68276695D01*
X114033999Y-68514790D01*
X113986380Y-68610028D01*
X113938760Y-68657647D01*
X113843522Y-68705266D01*
X113748284Y-68705266D01*
X113605427Y-68657647D01*
X113033999Y-68086219D01*
X113033999Y-68705266D01*
X114033999Y-69610028D02*
X114033999Y-69133838D01*
X113557808Y-69086219D01*
X113605427Y-69133838D01*
X113653046Y-69229076D01*
X113653046Y-69467171D01*
X113605427Y-69562409D01*
X113557808Y-69610028D01*
X113462570Y-69657647D01*
X113224475Y-69657647D01*
X113129237Y-69610028D01*
X113081618Y-69562409D01*
X113033999Y-69467171D01*
X113033999Y-69229076D01*
X113081618Y-69133838D01*
X113129237Y-69086219D01*
X114033999Y-69990980D02*
X114033999Y-70657647D01*
X113033999Y-70229076D01*
G04 #@! TO.C,U7*
X167632570Y-119279552D02*
X167537332Y-119231933D01*
X167489713Y-119184314D01*
X167442094Y-119089076D01*
X167442094Y-119041457D01*
X167489713Y-118946219D01*
X167537332Y-118898600D01*
X167632570Y-118850980D01*
X167823046Y-118850980D01*
X167918284Y-118898600D01*
X167965903Y-118946219D01*
X168013522Y-119041457D01*
X168013522Y-119089076D01*
X167965903Y-119184314D01*
X167918284Y-119231933D01*
X167823046Y-119279552D01*
X167632570Y-119279552D01*
X167537332Y-119327171D01*
X167489713Y-119374790D01*
X167442094Y-119470028D01*
X167442094Y-119660504D01*
X167489713Y-119755742D01*
X167537332Y-119803361D01*
X167632570Y-119850980D01*
X167823046Y-119850980D01*
X167918284Y-119803361D01*
X167965903Y-119755742D01*
X168013522Y-119660504D01*
X168013522Y-119470028D01*
X167965903Y-119374790D01*
X167918284Y-119327171D01*
X167823046Y-119279552D01*
X168394475Y-118946219D02*
X168442094Y-118898600D01*
X168537332Y-118850980D01*
X168775427Y-118850980D01*
X168870665Y-118898600D01*
X168918284Y-118946219D01*
X168965903Y-119041457D01*
X168965903Y-119136695D01*
X168918284Y-119279552D01*
X168346856Y-119850980D01*
X168965903Y-119850980D01*
X169870665Y-118850980D02*
X169394475Y-118850980D01*
X169346856Y-119327171D01*
X169394475Y-119279552D01*
X169489713Y-119231933D01*
X169727808Y-119231933D01*
X169823046Y-119279552D01*
X169870665Y-119327171D01*
X169918284Y-119422409D01*
X169918284Y-119660504D01*
X169870665Y-119755742D01*
X169823046Y-119803361D01*
X169727808Y-119850980D01*
X169489713Y-119850980D01*
X169394475Y-119803361D01*
X169346856Y-119755742D01*
X170251618Y-118850980D02*
X170870665Y-118850980D01*
X170537332Y-119231933D01*
X170680189Y-119231933D01*
X170775427Y-119279552D01*
X170823046Y-119327171D01*
X170870665Y-119422409D01*
X170870665Y-119660504D01*
X170823046Y-119755742D01*
X170775427Y-119803361D01*
X170680189Y-119850980D01*
X170394475Y-119850980D01*
X170299237Y-119803361D01*
X170251618Y-119755742D01*
G04 #@! TO.C,U6*
X147312570Y-119279552D02*
X147217332Y-119231933D01*
X147169713Y-119184314D01*
X147122094Y-119089076D01*
X147122094Y-119041457D01*
X147169713Y-118946219D01*
X147217332Y-118898600D01*
X147312570Y-118850980D01*
X147503046Y-118850980D01*
X147598284Y-118898600D01*
X147645903Y-118946219D01*
X147693522Y-119041457D01*
X147693522Y-119089076D01*
X147645903Y-119184314D01*
X147598284Y-119231933D01*
X147503046Y-119279552D01*
X147312570Y-119279552D01*
X147217332Y-119327171D01*
X147169713Y-119374790D01*
X147122094Y-119470028D01*
X147122094Y-119660504D01*
X147169713Y-119755742D01*
X147217332Y-119803361D01*
X147312570Y-119850980D01*
X147503046Y-119850980D01*
X147598284Y-119803361D01*
X147645903Y-119755742D01*
X147693522Y-119660504D01*
X147693522Y-119470028D01*
X147645903Y-119374790D01*
X147598284Y-119327171D01*
X147503046Y-119279552D01*
X148074475Y-118946219D02*
X148122094Y-118898600D01*
X148217332Y-118850980D01*
X148455427Y-118850980D01*
X148550665Y-118898600D01*
X148598284Y-118946219D01*
X148645903Y-119041457D01*
X148645903Y-119136695D01*
X148598284Y-119279552D01*
X148026856Y-119850980D01*
X148645903Y-119850980D01*
X149550665Y-118850980D02*
X149074475Y-118850980D01*
X149026856Y-119327171D01*
X149074475Y-119279552D01*
X149169713Y-119231933D01*
X149407808Y-119231933D01*
X149503046Y-119279552D01*
X149550665Y-119327171D01*
X149598284Y-119422409D01*
X149598284Y-119660504D01*
X149550665Y-119755742D01*
X149503046Y-119803361D01*
X149407808Y-119850980D01*
X149169713Y-119850980D01*
X149074475Y-119803361D01*
X149026856Y-119755742D01*
X150074475Y-119850980D02*
X150264951Y-119850980D01*
X150360189Y-119803361D01*
X150407808Y-119755742D01*
X150503046Y-119612885D01*
X150550665Y-119422409D01*
X150550665Y-119041457D01*
X150503046Y-118946219D01*
X150455427Y-118898600D01*
X150360189Y-118850980D01*
X150169713Y-118850980D01*
X150074475Y-118898600D01*
X150026856Y-118946219D01*
X149979237Y-119041457D01*
X149979237Y-119279552D01*
X150026856Y-119374790D01*
X150074475Y-119422409D01*
X150169713Y-119470028D01*
X150360189Y-119470028D01*
X150455427Y-119422409D01*
X150503046Y-119374790D01*
X150550665Y-119279552D01*
G04 #@! TO.C,R5*
X148733522Y-68244980D02*
X148162094Y-68244980D01*
X148447808Y-68244980D02*
X148447808Y-67244980D01*
X148352570Y-67387838D01*
X148257332Y-67483076D01*
X148162094Y-67530695D01*
X149352570Y-67244980D02*
X149447808Y-67244980D01*
X149543046Y-67292600D01*
X149590665Y-67340219D01*
X149638284Y-67435457D01*
X149685903Y-67625933D01*
X149685903Y-67864028D01*
X149638284Y-68054504D01*
X149590665Y-68149742D01*
X149543046Y-68197361D01*
X149447808Y-68244980D01*
X149352570Y-68244980D01*
X149257332Y-68197361D01*
X149209713Y-68149742D01*
X149162094Y-68054504D01*
X149114475Y-67864028D01*
X149114475Y-67625933D01*
X149162094Y-67435457D01*
X149209713Y-67340219D01*
X149257332Y-67292600D01*
X149352570Y-67244980D01*
X150114475Y-68244980D02*
X150114475Y-67244980D01*
X150685903Y-68244980D02*
X150257332Y-67673552D01*
X150685903Y-67244980D02*
X150114475Y-67816409D01*
X152019237Y-68244980D02*
X151923999Y-68197361D01*
X151876380Y-68149742D01*
X151828760Y-68054504D01*
X151828760Y-67768790D01*
X151876380Y-67673552D01*
X151923999Y-67625933D01*
X152019237Y-67578314D01*
X152162094Y-67578314D01*
X152257332Y-67625933D01*
X152304951Y-67673552D01*
X152352570Y-67768790D01*
X152352570Y-68054504D01*
X152304951Y-68149742D01*
X152257332Y-68197361D01*
X152162094Y-68244980D01*
X152019237Y-68244980D01*
X152781141Y-68244980D02*
X152781141Y-67244980D01*
X153209713Y-68244980D02*
X153209713Y-67721171D01*
X153162094Y-67625933D01*
X153066856Y-67578314D01*
X152923999Y-67578314D01*
X152828760Y-67625933D01*
X152781141Y-67673552D01*
X153685903Y-68244980D02*
X153685903Y-67578314D01*
X153685903Y-67673552D02*
X153733522Y-67625933D01*
X153828760Y-67578314D01*
X153971618Y-67578314D01*
X154066856Y-67625933D01*
X154114475Y-67721171D01*
X154114475Y-68244980D01*
X154114475Y-67721171D02*
X154162094Y-67625933D01*
X154257332Y-67578314D01*
X154400189Y-67578314D01*
X154495427Y-67625933D01*
X154543046Y-67721171D01*
X154543046Y-68244980D01*
G04 #@! TO.C,R1*
X148733522Y-71292980D02*
X148162094Y-71292980D01*
X148447808Y-71292980D02*
X148447808Y-70292980D01*
X148352570Y-70435838D01*
X148257332Y-70531076D01*
X148162094Y-70578695D01*
X149352570Y-70292980D02*
X149447808Y-70292980D01*
X149543046Y-70340600D01*
X149590665Y-70388219D01*
X149638284Y-70483457D01*
X149685903Y-70673933D01*
X149685903Y-70912028D01*
X149638284Y-71102504D01*
X149590665Y-71197742D01*
X149543046Y-71245361D01*
X149447808Y-71292980D01*
X149352570Y-71292980D01*
X149257332Y-71245361D01*
X149209713Y-71197742D01*
X149162094Y-71102504D01*
X149114475Y-70912028D01*
X149114475Y-70673933D01*
X149162094Y-70483457D01*
X149209713Y-70388219D01*
X149257332Y-70340600D01*
X149352570Y-70292980D01*
X150114475Y-71292980D02*
X150114475Y-70292980D01*
X150685903Y-71292980D02*
X150257332Y-70721552D01*
X150685903Y-70292980D02*
X150114475Y-70864409D01*
X152019237Y-71292980D02*
X151923999Y-71245361D01*
X151876380Y-71197742D01*
X151828760Y-71102504D01*
X151828760Y-70816790D01*
X151876380Y-70721552D01*
X151923999Y-70673933D01*
X152019237Y-70626314D01*
X152162094Y-70626314D01*
X152257332Y-70673933D01*
X152304951Y-70721552D01*
X152352570Y-70816790D01*
X152352570Y-71102504D01*
X152304951Y-71197742D01*
X152257332Y-71245361D01*
X152162094Y-71292980D01*
X152019237Y-71292980D01*
X152781141Y-71292980D02*
X152781141Y-70292980D01*
X153209713Y-71292980D02*
X153209713Y-70769171D01*
X153162094Y-70673933D01*
X153066856Y-70626314D01*
X152923999Y-70626314D01*
X152828760Y-70673933D01*
X152781141Y-70721552D01*
X153685903Y-71292980D02*
X153685903Y-70626314D01*
X153685903Y-70721552D02*
X153733522Y-70673933D01*
X153828760Y-70626314D01*
X153971618Y-70626314D01*
X154066856Y-70673933D01*
X154114475Y-70769171D01*
X154114475Y-71292980D01*
X154114475Y-70769171D02*
X154162094Y-70673933D01*
X154257332Y-70626314D01*
X154400189Y-70626314D01*
X154495427Y-70673933D01*
X154543046Y-70769171D01*
X154543046Y-71292980D01*
G04 #@! TO.C,C8*
X139477999Y-67165742D02*
X139477999Y-67260980D01*
X139430380Y-67356219D01*
X139382760Y-67403838D01*
X139287522Y-67451457D01*
X139097046Y-67499076D01*
X138858951Y-67499076D01*
X138668475Y-67451457D01*
X138573237Y-67403838D01*
X138525618Y-67356219D01*
X138477999Y-67260980D01*
X138477999Y-67165742D01*
X138525618Y-67070504D01*
X138573237Y-67022885D01*
X138668475Y-66975266D01*
X138858951Y-66927647D01*
X139097046Y-66927647D01*
X139287522Y-66975266D01*
X139382760Y-67022885D01*
X139430380Y-67070504D01*
X139477999Y-67165742D01*
X138573237Y-67927647D02*
X138525618Y-67975266D01*
X138477999Y-67927647D01*
X138525618Y-67880028D01*
X138573237Y-67927647D01*
X138477999Y-67927647D01*
X138477999Y-68927647D02*
X138477999Y-68356219D01*
X138477999Y-68641933D02*
X139477999Y-68641933D01*
X139335141Y-68546695D01*
X139239903Y-68451457D01*
X139192284Y-68356219D01*
X139144665Y-69784790D02*
X138477999Y-69784790D01*
X139144665Y-69356219D02*
X138620856Y-69356219D01*
X138525618Y-69403838D01*
X138477999Y-69499076D01*
X138477999Y-69641933D01*
X138525618Y-69737171D01*
X138573237Y-69784790D01*
X139001808Y-70594314D02*
X139001808Y-70260980D01*
X138477999Y-70260980D02*
X139477999Y-70260980D01*
X139477999Y-70737171D01*
G04 #@! TO.C,C7*
X152527522Y-78166980D02*
X152622760Y-78166980D01*
X152717999Y-78214600D01*
X152765618Y-78262219D01*
X152813237Y-78357457D01*
X152860856Y-78547933D01*
X152860856Y-78786028D01*
X152813237Y-78976504D01*
X152765618Y-79071742D01*
X152717999Y-79119361D01*
X152622760Y-79166980D01*
X152527522Y-79166980D01*
X152432284Y-79119361D01*
X152384665Y-79071742D01*
X152337046Y-78976504D01*
X152289427Y-78786028D01*
X152289427Y-78547933D01*
X152337046Y-78357457D01*
X152384665Y-78262219D01*
X152432284Y-78214600D01*
X152527522Y-78166980D01*
X153289427Y-79071742D02*
X153337046Y-79119361D01*
X153289427Y-79166980D01*
X153241808Y-79119361D01*
X153289427Y-79071742D01*
X153289427Y-79166980D01*
X154289427Y-79166980D02*
X153717999Y-79166980D01*
X154003713Y-79166980D02*
X154003713Y-78166980D01*
X153908475Y-78309838D01*
X153813237Y-78405076D01*
X153717999Y-78452695D01*
X155146570Y-78500314D02*
X155146570Y-79166980D01*
X154717999Y-78500314D02*
X154717999Y-79024123D01*
X154765618Y-79119361D01*
X154860856Y-79166980D01*
X155003713Y-79166980D01*
X155098951Y-79119361D01*
X155146570Y-79071742D01*
X155956094Y-78643171D02*
X155622760Y-78643171D01*
X155622760Y-79166980D02*
X155622760Y-78166980D01*
X156098951Y-78166980D01*
G04 #@! TO.C,C6*
X172633522Y-83246980D02*
X172728760Y-83246980D01*
X172823999Y-83294600D01*
X172871618Y-83342219D01*
X172919237Y-83437457D01*
X172966856Y-83627933D01*
X172966856Y-83866028D01*
X172919237Y-84056504D01*
X172871618Y-84151742D01*
X172823999Y-84199361D01*
X172728760Y-84246980D01*
X172633522Y-84246980D01*
X172538284Y-84199361D01*
X172490665Y-84151742D01*
X172443046Y-84056504D01*
X172395427Y-83866028D01*
X172395427Y-83627933D01*
X172443046Y-83437457D01*
X172490665Y-83342219D01*
X172538284Y-83294600D01*
X172633522Y-83246980D01*
X173395427Y-84151742D02*
X173443046Y-84199361D01*
X173395427Y-84246980D01*
X173347808Y-84199361D01*
X173395427Y-84151742D01*
X173395427Y-84246980D01*
X174395427Y-84246980D02*
X173823999Y-84246980D01*
X174109713Y-84246980D02*
X174109713Y-83246980D01*
X174014475Y-83389838D01*
X173919237Y-83485076D01*
X173823999Y-83532695D01*
X175252570Y-83580314D02*
X175252570Y-84246980D01*
X174823999Y-83580314D02*
X174823999Y-84104123D01*
X174871618Y-84199361D01*
X174966856Y-84246980D01*
X175109713Y-84246980D01*
X175204951Y-84199361D01*
X175252570Y-84151742D01*
X176062094Y-83723171D02*
X175728760Y-83723171D01*
X175728760Y-84246980D02*
X175728760Y-83246980D01*
X176204951Y-83246980D01*
G04 #@! TO.C,C5*
X83851999Y-82325742D02*
X83851999Y-82420980D01*
X83804380Y-82516219D01*
X83756760Y-82563838D01*
X83661522Y-82611457D01*
X83471046Y-82659076D01*
X83232951Y-82659076D01*
X83042475Y-82611457D01*
X82947237Y-82563838D01*
X82899618Y-82516219D01*
X82851999Y-82420980D01*
X82851999Y-82325742D01*
X82899618Y-82230504D01*
X82947237Y-82182885D01*
X83042475Y-82135266D01*
X83232951Y-82087647D01*
X83471046Y-82087647D01*
X83661522Y-82135266D01*
X83756760Y-82182885D01*
X83804380Y-82230504D01*
X83851999Y-82325742D01*
X82947237Y-83087647D02*
X82899618Y-83135266D01*
X82851999Y-83087647D01*
X82899618Y-83040028D01*
X82947237Y-83087647D01*
X82851999Y-83087647D01*
X82851999Y-84087647D02*
X82851999Y-83516219D01*
X82851999Y-83801933D02*
X83851999Y-83801933D01*
X83709141Y-83706695D01*
X83613903Y-83611457D01*
X83566284Y-83516219D01*
X83518665Y-84944790D02*
X82851999Y-84944790D01*
X83518665Y-84516219D02*
X82994856Y-84516219D01*
X82899618Y-84563838D01*
X82851999Y-84659076D01*
X82851999Y-84801933D01*
X82899618Y-84897171D01*
X82947237Y-84944790D01*
X83375808Y-85754314D02*
X83375808Y-85420980D01*
X82851999Y-85420980D02*
X83851999Y-85420980D01*
X83851999Y-85897171D01*
G04 #@! TO.C,U4*
X129207332Y-111230980D02*
X129873999Y-111230980D01*
X129445427Y-112230980D01*
X130683522Y-111564314D02*
X130683522Y-112230980D01*
X130445427Y-111183361D02*
X130207332Y-111897647D01*
X130826380Y-111897647D01*
X131683522Y-112230980D02*
X131207332Y-112230980D01*
X131207332Y-111230980D01*
X131969237Y-112183361D02*
X132112094Y-112230980D01*
X132350189Y-112230980D01*
X132445427Y-112183361D01*
X132493046Y-112135742D01*
X132540665Y-112040504D01*
X132540665Y-111945266D01*
X132493046Y-111850028D01*
X132445427Y-111802409D01*
X132350189Y-111754790D01*
X132159713Y-111707171D01*
X132064475Y-111659552D01*
X132016856Y-111611933D01*
X131969237Y-111516695D01*
X131969237Y-111421457D01*
X132016856Y-111326219D01*
X132064475Y-111278600D01*
X132159713Y-111230980D01*
X132397808Y-111230980D01*
X132540665Y-111278600D01*
X132921618Y-111326219D02*
X132969237Y-111278600D01*
X133064475Y-111230980D01*
X133302570Y-111230980D01*
X133397808Y-111278600D01*
X133445427Y-111326219D01*
X133493046Y-111421457D01*
X133493046Y-111516695D01*
X133445427Y-111659552D01*
X132873999Y-112230980D01*
X133493046Y-112230980D01*
X134350189Y-111564314D02*
X134350189Y-112230980D01*
X134112094Y-111183361D02*
X133873999Y-111897647D01*
X134493046Y-111897647D01*
X135350189Y-111230980D02*
X134873999Y-111230980D01*
X134826380Y-111707171D01*
X134873999Y-111659552D01*
X134969237Y-111611933D01*
X135207332Y-111611933D01*
X135302570Y-111659552D01*
X135350189Y-111707171D01*
X135397808Y-111802409D01*
X135397808Y-112040504D01*
X135350189Y-112135742D01*
X135302570Y-112183361D01*
X135207332Y-112230980D01*
X134969237Y-112230980D01*
X134873999Y-112183361D01*
X134826380Y-112135742D01*
G04 #@! TO.C,U3*
X83553999Y-64419552D02*
X83553999Y-65086219D01*
X82553999Y-64657647D01*
X83220665Y-65895742D02*
X82553999Y-65895742D01*
X83601618Y-65657647D02*
X82887332Y-65419552D01*
X82887332Y-66038600D01*
X82553999Y-66895742D02*
X82553999Y-66419552D01*
X83553999Y-66419552D01*
X82601618Y-67181457D02*
X82553999Y-67324314D01*
X82553999Y-67562409D01*
X82601618Y-67657647D01*
X82649237Y-67705266D01*
X82744475Y-67752885D01*
X82839713Y-67752885D01*
X82934951Y-67705266D01*
X82982570Y-67657647D01*
X83030189Y-67562409D01*
X83077808Y-67371933D01*
X83125427Y-67276695D01*
X83173046Y-67229076D01*
X83268284Y-67181457D01*
X83363522Y-67181457D01*
X83458760Y-67229076D01*
X83506380Y-67276695D01*
X83553999Y-67371933D01*
X83553999Y-67610028D01*
X83506380Y-67752885D01*
X83553999Y-68657647D02*
X83553999Y-68181457D01*
X83077808Y-68133838D01*
X83125427Y-68181457D01*
X83173046Y-68276695D01*
X83173046Y-68514790D01*
X83125427Y-68610028D01*
X83077808Y-68657647D01*
X82982570Y-68705266D01*
X82744475Y-68705266D01*
X82649237Y-68657647D01*
X82601618Y-68610028D01*
X82553999Y-68514790D01*
X82553999Y-68276695D01*
X82601618Y-68181457D01*
X82649237Y-68133838D01*
X83553999Y-69038600D02*
X83553999Y-69705266D01*
X82553999Y-69276695D01*
X83553999Y-69990980D02*
X83553999Y-70610028D01*
X83173046Y-70276695D01*
X83173046Y-70419552D01*
X83125427Y-70514790D01*
X83077808Y-70562409D01*
X82982570Y-70610028D01*
X82744475Y-70610028D01*
X82649237Y-70562409D01*
X82601618Y-70514790D01*
X82553999Y-70419552D01*
X82553999Y-70133838D01*
X82601618Y-70038600D01*
X82649237Y-69990980D01*
G04 #@! TO.C,U2*
X81013999Y-110139552D02*
X81013999Y-110806219D01*
X80013999Y-110377647D01*
X80680665Y-111615742D02*
X80013999Y-111615742D01*
X81061618Y-111377647D02*
X80347332Y-111139552D01*
X80347332Y-111758600D01*
X80013999Y-112615742D02*
X80013999Y-112139552D01*
X81013999Y-112139552D01*
X80061618Y-112901457D02*
X80013999Y-113044314D01*
X80013999Y-113282409D01*
X80061618Y-113377647D01*
X80109237Y-113425266D01*
X80204475Y-113472885D01*
X80299713Y-113472885D01*
X80394951Y-113425266D01*
X80442570Y-113377647D01*
X80490189Y-113282409D01*
X80537808Y-113091933D01*
X80585427Y-112996695D01*
X80633046Y-112949076D01*
X80728284Y-112901457D01*
X80823522Y-112901457D01*
X80918760Y-112949076D01*
X80966380Y-112996695D01*
X81013999Y-113091933D01*
X81013999Y-113330028D01*
X80966380Y-113472885D01*
X81013999Y-114377647D02*
X81013999Y-113901457D01*
X80537808Y-113853838D01*
X80585427Y-113901457D01*
X80633046Y-113996695D01*
X80633046Y-114234790D01*
X80585427Y-114330028D01*
X80537808Y-114377647D01*
X80442570Y-114425266D01*
X80204475Y-114425266D01*
X80109237Y-114377647D01*
X80061618Y-114330028D01*
X80013999Y-114234790D01*
X80013999Y-113996695D01*
X80061618Y-113901457D01*
X80109237Y-113853838D01*
X81013999Y-114758600D02*
X81013999Y-115425266D01*
X80013999Y-114996695D01*
X81013999Y-115710980D02*
X81013999Y-116330028D01*
X80633046Y-115996695D01*
X80633046Y-116139552D01*
X80585427Y-116234790D01*
X80537808Y-116282409D01*
X80442570Y-116330028D01*
X80204475Y-116330028D01*
X80109237Y-116282409D01*
X80061618Y-116234790D01*
X80013999Y-116139552D01*
X80013999Y-115853838D01*
X80061618Y-115758600D01*
X80109237Y-115710980D01*
G04 #@! TO.C,C4*
X132207522Y-80706980D02*
X132302760Y-80706980D01*
X132397999Y-80754600D01*
X132445618Y-80802219D01*
X132493237Y-80897457D01*
X132540856Y-81087933D01*
X132540856Y-81326028D01*
X132493237Y-81516504D01*
X132445618Y-81611742D01*
X132397999Y-81659361D01*
X132302760Y-81706980D01*
X132207522Y-81706980D01*
X132112284Y-81659361D01*
X132064665Y-81611742D01*
X132017046Y-81516504D01*
X131969427Y-81326028D01*
X131969427Y-81087933D01*
X132017046Y-80897457D01*
X132064665Y-80802219D01*
X132112284Y-80754600D01*
X132207522Y-80706980D01*
X132969427Y-81611742D02*
X133017046Y-81659361D01*
X132969427Y-81706980D01*
X132921808Y-81659361D01*
X132969427Y-81611742D01*
X132969427Y-81706980D01*
X133969427Y-81706980D02*
X133397999Y-81706980D01*
X133683713Y-81706980D02*
X133683713Y-80706980D01*
X133588475Y-80849838D01*
X133493237Y-80945076D01*
X133397999Y-80992695D01*
X134826570Y-81040314D02*
X134826570Y-81706980D01*
X134397999Y-81040314D02*
X134397999Y-81564123D01*
X134445618Y-81659361D01*
X134540856Y-81706980D01*
X134683713Y-81706980D01*
X134778951Y-81659361D01*
X134826570Y-81611742D01*
X135636094Y-81183171D02*
X135302760Y-81183171D01*
X135302760Y-81706980D02*
X135302760Y-80706980D01*
X135778951Y-80706980D01*
G04 #@! TO.C,C3*
X112045999Y-67165742D02*
X112045999Y-67260980D01*
X111998380Y-67356219D01*
X111950760Y-67403838D01*
X111855522Y-67451457D01*
X111665046Y-67499076D01*
X111426951Y-67499076D01*
X111236475Y-67451457D01*
X111141237Y-67403838D01*
X111093618Y-67356219D01*
X111045999Y-67260980D01*
X111045999Y-67165742D01*
X111093618Y-67070504D01*
X111141237Y-67022885D01*
X111236475Y-66975266D01*
X111426951Y-66927647D01*
X111665046Y-66927647D01*
X111855522Y-66975266D01*
X111950760Y-67022885D01*
X111998380Y-67070504D01*
X112045999Y-67165742D01*
X111141237Y-67927647D02*
X111093618Y-67975266D01*
X111045999Y-67927647D01*
X111093618Y-67880028D01*
X111141237Y-67927647D01*
X111045999Y-67927647D01*
X111045999Y-68927647D02*
X111045999Y-68356219D01*
X111045999Y-68641933D02*
X112045999Y-68641933D01*
X111903141Y-68546695D01*
X111807903Y-68451457D01*
X111760284Y-68356219D01*
X111712665Y-69784790D02*
X111045999Y-69784790D01*
X111712665Y-69356219D02*
X111188856Y-69356219D01*
X111093618Y-69403838D01*
X111045999Y-69499076D01*
X111045999Y-69641933D01*
X111093618Y-69737171D01*
X111141237Y-69784790D01*
X111569808Y-70594314D02*
X111569808Y-70260980D01*
X111045999Y-70260980D02*
X112045999Y-70260980D01*
X112045999Y-70737171D01*
G04 #@! TO.C,C2*
X111537999Y-112885742D02*
X111537999Y-112980980D01*
X111490380Y-113076219D01*
X111442760Y-113123838D01*
X111347522Y-113171457D01*
X111157046Y-113219076D01*
X110918951Y-113219076D01*
X110728475Y-113171457D01*
X110633237Y-113123838D01*
X110585618Y-113076219D01*
X110537999Y-112980980D01*
X110537999Y-112885742D01*
X110585618Y-112790504D01*
X110633237Y-112742885D01*
X110728475Y-112695266D01*
X110918951Y-112647647D01*
X111157046Y-112647647D01*
X111347522Y-112695266D01*
X111442760Y-112742885D01*
X111490380Y-112790504D01*
X111537999Y-112885742D01*
X110633237Y-113647647D02*
X110585618Y-113695266D01*
X110537999Y-113647647D01*
X110585618Y-113600028D01*
X110633237Y-113647647D01*
X110537999Y-113647647D01*
X110537999Y-114647647D02*
X110537999Y-114076219D01*
X110537999Y-114361933D02*
X111537999Y-114361933D01*
X111395141Y-114266695D01*
X111299903Y-114171457D01*
X111252284Y-114076219D01*
X111204665Y-115504790D02*
X110537999Y-115504790D01*
X111204665Y-115076219D02*
X110680856Y-115076219D01*
X110585618Y-115123838D01*
X110537999Y-115219076D01*
X110537999Y-115361933D01*
X110585618Y-115457171D01*
X110633237Y-115504790D01*
X111061808Y-116314314D02*
X111061808Y-115980980D01*
X110537999Y-115980980D02*
X111537999Y-115980980D01*
X111537999Y-116457171D01*
G04 #@! TO.C,*
G04 #@! TD*
M02*
