G04 #@! TF.GenerationSoftware,KiCad,Pcbnew,(5.1.8)-1*
G04 #@! TF.CreationDate,2021-11-26T20:47:01-07:00*
G04 #@! TF.ProjectId,80188,38303138-382e-46b6-9963-61645f706362,rev?*
G04 #@! TF.SameCoordinates,Original*
G04 #@! TF.FileFunction,Soldermask,Bot*
G04 #@! TF.FilePolarity,Negative*
%FSLAX46Y46*%
G04 Gerber Fmt 4.6, Leading zero omitted, Abs format (unit mm)*
G04 Created by KiCad (PCBNEW (5.1.8)-1) date 2021-11-26 20:47:01*
%MOMM*%
%LPD*%
G01*
G04 APERTURE LIST*
%ADD10O,1.600000X1.600000*%
%ADD11C,1.600000*%
%ADD12C,1.500000*%
%ADD13C,1.422400*%
%ADD14R,1.422400X1.422400*%
%ADD15R,1.600000X1.600000*%
%ADD16R,1.780000X7.620000*%
%ADD17C,3.556000*%
G04 APERTURE END LIST*
D10*
G04 #@! TO.C,R2*
X156456380Y-73888600D03*
D11*
X146296380Y-73888600D03*
G04 #@! TD*
D12*
G04 #@! TO.C,Y1*
X69154380Y-62966600D03*
X64254380Y-62966600D03*
G04 #@! TD*
D13*
G04 #@! TO.C,80188*
X76446380Y-76428600D03*
X76446380Y-78968600D03*
X76446380Y-81508600D03*
X76446380Y-84048600D03*
X76446380Y-86588600D03*
X76446380Y-89128600D03*
X76446380Y-91668600D03*
X76446380Y-94208600D03*
X73906380Y-73888600D03*
X73906380Y-78968600D03*
X73906380Y-81508600D03*
X73906380Y-84048600D03*
X73906380Y-86588600D03*
X73906380Y-89128600D03*
X73906380Y-91668600D03*
X73906380Y-94208600D03*
X73906380Y-96748600D03*
X73906380Y-99288600D03*
X71366380Y-99288600D03*
X68826380Y-99288600D03*
X66286380Y-99288600D03*
X63746380Y-99288600D03*
X61206380Y-99288600D03*
X58666380Y-99288600D03*
X56126380Y-99288600D03*
X53586380Y-99288600D03*
X76446380Y-96748600D03*
X71366380Y-96748600D03*
X68826380Y-96748600D03*
X66286380Y-96748600D03*
X63746380Y-96748600D03*
X61206380Y-96748600D03*
X58666380Y-96748600D03*
X56126380Y-96748600D03*
X53586380Y-96748600D03*
X51046380Y-96748600D03*
X51046380Y-94208600D03*
X51046380Y-91668600D03*
X51046380Y-89128600D03*
X51046380Y-86588600D03*
X51046380Y-84048600D03*
X51046380Y-81508600D03*
X51046380Y-78968600D03*
X51046380Y-76428600D03*
X53586380Y-94208600D03*
X53586380Y-91668600D03*
X53586380Y-89128600D03*
X53586380Y-86588600D03*
X53586380Y-84048600D03*
X53586380Y-81508600D03*
X53586380Y-78968600D03*
X53586380Y-76428600D03*
X71366380Y-73888600D03*
X68826380Y-73888600D03*
X66286380Y-73888600D03*
X53586380Y-73888600D03*
X56126380Y-73888600D03*
X58666380Y-73888600D03*
X61206380Y-73888600D03*
D14*
X63746380Y-73888600D03*
D13*
X73906380Y-76428600D03*
X71366380Y-76428600D03*
X68826380Y-76428600D03*
X66286380Y-76428600D03*
X56126380Y-76428600D03*
X58666380Y-76428600D03*
X61206380Y-76428600D03*
X63746380Y-76428600D03*
G04 #@! TD*
D10*
G04 #@! TO.C,U8*
X133596380Y-71348600D03*
X115816380Y-63728600D03*
X131056380Y-71348600D03*
X118356380Y-63728600D03*
X128516380Y-71348600D03*
X120896380Y-63728600D03*
X125976380Y-71348600D03*
X123436380Y-63728600D03*
X123436380Y-71348600D03*
X125976380Y-63728600D03*
X120896380Y-71348600D03*
X128516380Y-63728600D03*
X118356380Y-71348600D03*
X131056380Y-63728600D03*
X115816380Y-71348600D03*
D15*
X133596380Y-63728600D03*
G04 #@! TD*
D10*
G04 #@! TO.C,U7*
X176776380Y-89128600D03*
X161536380Y-117068600D03*
X176776380Y-91668600D03*
X161536380Y-114528600D03*
X176776380Y-94208600D03*
X161536380Y-111988600D03*
X176776380Y-96748600D03*
X161536380Y-109448600D03*
X176776380Y-99288600D03*
X161536380Y-106908600D03*
X176776380Y-101828600D03*
X161536380Y-104368600D03*
X176776380Y-104368600D03*
X161536380Y-101828600D03*
X176776380Y-106908600D03*
X161536380Y-99288600D03*
X176776380Y-109448600D03*
X161536380Y-96748600D03*
X176776380Y-111988600D03*
X161536380Y-94208600D03*
X176776380Y-114528600D03*
X161536380Y-91668600D03*
X176776380Y-117068600D03*
D15*
X161536380Y-89128600D03*
G04 #@! TD*
D10*
G04 #@! TO.C,U6*
X156456380Y-84048600D03*
X141216380Y-117068600D03*
X156456380Y-86588600D03*
X141216380Y-114528600D03*
X156456380Y-89128600D03*
X141216380Y-111988600D03*
X156456380Y-91668600D03*
X141216380Y-109448600D03*
X156456380Y-94208600D03*
X141216380Y-106908600D03*
X156456380Y-96748600D03*
X141216380Y-104368600D03*
X156456380Y-99288600D03*
X141216380Y-101828600D03*
X156456380Y-101828600D03*
X141216380Y-99288600D03*
X156456380Y-104368600D03*
X141216380Y-96748600D03*
X156456380Y-106908600D03*
X141216380Y-94208600D03*
X156456380Y-109448600D03*
X141216380Y-91668600D03*
X156456380Y-111988600D03*
X141216380Y-89128600D03*
X156456380Y-114528600D03*
X141216380Y-86588600D03*
X156456380Y-117068600D03*
D15*
X141216380Y-84048600D03*
G04 #@! TD*
D10*
G04 #@! TO.C,R5*
X156456380Y-67792600D03*
D11*
X146296380Y-67792600D03*
G04 #@! TD*
D10*
G04 #@! TO.C,R1*
X156456380Y-70840600D03*
D11*
X146296380Y-70840600D03*
G04 #@! TD*
G04 #@! TO.C,C8*
X136898380Y-71348600D03*
X136898380Y-66348600D03*
G04 #@! TD*
G04 #@! TO.C,C7*
X156456380Y-80746600D03*
X151456380Y-80746600D03*
G04 #@! TD*
G04 #@! TO.C,C6*
X176776380Y-85826600D03*
X171776380Y-85826600D03*
G04 #@! TD*
G04 #@! TO.C,C5*
X81272380Y-86508600D03*
X81272380Y-81508600D03*
G04 #@! TD*
D16*
G04 #@! TO.C,J1*
X57396380Y-129768600D03*
X59936380Y-129768600D03*
X62476380Y-129768600D03*
X65016380Y-129768600D03*
X67556380Y-129768600D03*
X70096380Y-129768600D03*
X72636380Y-129768600D03*
X75176380Y-129768600D03*
G04 #@! TD*
D10*
G04 #@! TO.C,U4*
X136136380Y-86588600D03*
X128516380Y-109448600D03*
X136136380Y-89128600D03*
X128516380Y-106908600D03*
X136136380Y-91668600D03*
X128516380Y-104368600D03*
X136136380Y-94208600D03*
X128516380Y-101828600D03*
X136136380Y-96748600D03*
X128516380Y-99288600D03*
X136136380Y-99288600D03*
X128516380Y-96748600D03*
X136136380Y-101828600D03*
X128516380Y-94208600D03*
X136136380Y-104368600D03*
X128516380Y-91668600D03*
X136136380Y-106908600D03*
X128516380Y-89128600D03*
X136136380Y-109448600D03*
D15*
X128516380Y-86588600D03*
G04 #@! TD*
D10*
G04 #@! TO.C,U3*
X108196380Y-71348600D03*
X85336380Y-63728600D03*
X105656380Y-71348600D03*
X87876380Y-63728600D03*
X103116380Y-71348600D03*
X90416380Y-63728600D03*
X100576380Y-71348600D03*
X92956380Y-63728600D03*
X98036380Y-71348600D03*
X95496380Y-63728600D03*
X95496380Y-71348600D03*
X98036380Y-63728600D03*
X92956380Y-71348600D03*
X100576380Y-63728600D03*
X90416380Y-71348600D03*
X103116380Y-63728600D03*
X87876380Y-71348600D03*
X105656380Y-63728600D03*
X85336380Y-71348600D03*
D15*
X108196380Y-63728600D03*
G04 #@! TD*
D10*
G04 #@! TO.C,U2*
X105656380Y-117068600D03*
X82796380Y-109448600D03*
X103116380Y-117068600D03*
X85336380Y-109448600D03*
X100576380Y-117068600D03*
X87876380Y-109448600D03*
X98036380Y-117068600D03*
X90416380Y-109448600D03*
X95496380Y-117068600D03*
X92956380Y-109448600D03*
X92956380Y-117068600D03*
X95496380Y-109448600D03*
X90416380Y-117068600D03*
X98036380Y-109448600D03*
X87876380Y-117068600D03*
X100576380Y-109448600D03*
X85336380Y-117068600D03*
X103116380Y-109448600D03*
X82796380Y-117068600D03*
D15*
X105656380Y-109448600D03*
G04 #@! TD*
D11*
G04 #@! TO.C,C4*
X136136380Y-83286600D03*
X131136380Y-83286600D03*
G04 #@! TD*
G04 #@! TO.C,C3*
X111498380Y-71348600D03*
X111498380Y-66348600D03*
G04 #@! TD*
G04 #@! TO.C,C2*
X108958380Y-117068600D03*
X108958380Y-112068600D03*
G04 #@! TD*
D16*
G04 #@! TO.C,J9*
X85336380Y-129768600D03*
X87876380Y-129768600D03*
X90416380Y-129768600D03*
X92956380Y-129768600D03*
X95496380Y-129768600D03*
X98036380Y-129768600D03*
X100576380Y-129768600D03*
X103116380Y-129768600D03*
X105656380Y-129768600D03*
X108196380Y-129768600D03*
X110736380Y-129768600D03*
X113276380Y-129768600D03*
X115816380Y-129768600D03*
X118356380Y-129768600D03*
X120896380Y-129768600D03*
X123436380Y-129768600D03*
X125976380Y-129768600D03*
X128516380Y-129768600D03*
X131056380Y-129768600D03*
X133596380Y-129768600D03*
X136136380Y-129768600D03*
X138676380Y-129768600D03*
X141216380Y-129768600D03*
X143756380Y-129768600D03*
X146296380Y-129768600D03*
X148836380Y-129768600D03*
X151376380Y-129768600D03*
X153916380Y-129768600D03*
X156456380Y-129768600D03*
X158996380Y-129768600D03*
X161536380Y-129768600D03*
G04 #@! TD*
D17*
G04 #@! TO.C,R*
X181602380Y-122148600D03*
G04 #@! TD*
G04 #@! TO.C,R*
X181602380Y-64998600D03*
G04 #@! TD*
M02*
