G04 #@! TF.GenerationSoftware,KiCad,Pcbnew,(5.1.8)-1*
G04 #@! TF.CreationDate,2022-06-12T13:47:46-06:00*
G04 #@! TF.ProjectId,USB Adapter,55534220-4164-4617-9074-65722e6b6963,rev?*
G04 #@! TF.SameCoordinates,Original*
G04 #@! TF.FileFunction,Legend,Top*
G04 #@! TF.FilePolarity,Positive*
%FSLAX46Y46*%
G04 Gerber Fmt 4.6, Leading zero omitted, Abs format (unit mm)*
G04 Created by KiCad (PCBNEW (5.1.8)-1) date 2022-06-12 13:47:46*
%MOMM*%
%LPD*%
G01*
G04 APERTURE LIST*
%ADD10C,0.190500*%
%ADD11C,0.150000*%
%ADD12C,0.120000*%
G04 APERTURE END LIST*
D10*
X145501178Y-83363253D02*
X145501178Y-83617253D01*
X145102035Y-83726110D02*
X145102035Y-83363253D01*
X145864035Y-83363253D01*
X145864035Y-83726110D01*
X145102035Y-84052682D02*
X145864035Y-84052682D01*
X145319750Y-84306682D01*
X145864035Y-84560682D01*
X145102035Y-84560682D01*
X145102035Y-84923539D02*
X145864035Y-84923539D01*
X145319750Y-85177539D01*
X145864035Y-85431539D01*
X145102035Y-85431539D01*
X145174607Y-86810396D02*
X145138321Y-86774110D01*
X145102035Y-86665253D01*
X145102035Y-86592682D01*
X145138321Y-86483825D01*
X145210892Y-86411253D01*
X145283464Y-86374967D01*
X145428607Y-86338682D01*
X145537464Y-86338682D01*
X145682607Y-86374967D01*
X145755178Y-86411253D01*
X145827750Y-86483825D01*
X145864035Y-86592682D01*
X145864035Y-86665253D01*
X145827750Y-86774110D01*
X145791464Y-86810396D01*
X145864035Y-87282110D02*
X145864035Y-87427253D01*
X145827750Y-87499825D01*
X145755178Y-87572396D01*
X145610035Y-87608682D01*
X145356035Y-87608682D01*
X145210892Y-87572396D01*
X145138321Y-87499825D01*
X145102035Y-87427253D01*
X145102035Y-87282110D01*
X145138321Y-87209539D01*
X145210892Y-87136967D01*
X145356035Y-87100682D01*
X145610035Y-87100682D01*
X145755178Y-87136967D01*
X145827750Y-87209539D01*
X145864035Y-87282110D01*
X145102035Y-87935253D02*
X145864035Y-87935253D01*
X145319750Y-88189253D01*
X145864035Y-88443253D01*
X145102035Y-88443253D01*
X145102035Y-88806110D02*
X145864035Y-88806110D01*
X145864035Y-89096396D01*
X145827750Y-89168967D01*
X145791464Y-89205253D01*
X145718892Y-89241539D01*
X145610035Y-89241539D01*
X145537464Y-89205253D01*
X145501178Y-89168967D01*
X145464892Y-89096396D01*
X145464892Y-88806110D01*
X145864035Y-89568110D02*
X145247178Y-89568110D01*
X145174607Y-89604396D01*
X145138321Y-89640682D01*
X145102035Y-89713253D01*
X145102035Y-89858396D01*
X145138321Y-89930967D01*
X145174607Y-89967253D01*
X145247178Y-90003539D01*
X145864035Y-90003539D01*
X145864035Y-90257539D02*
X145864035Y-90692967D01*
X145102035Y-90475253D02*
X145864035Y-90475253D01*
X145501178Y-90946967D02*
X145501178Y-91200967D01*
X145102035Y-91309825D02*
X145102035Y-90946967D01*
X145864035Y-90946967D01*
X145864035Y-91309825D01*
X145102035Y-92071825D02*
X145464892Y-91817825D01*
X145102035Y-91636396D02*
X145864035Y-91636396D01*
X145864035Y-91926682D01*
X145827750Y-91999253D01*
X145791464Y-92035539D01*
X145718892Y-92071825D01*
X145610035Y-92071825D01*
X145537464Y-92035539D01*
X145501178Y-91999253D01*
X145464892Y-91926682D01*
X145464892Y-91636396D01*
X145138321Y-92362110D02*
X145102035Y-92470967D01*
X145102035Y-92652396D01*
X145138321Y-92724967D01*
X145174607Y-92761253D01*
X145247178Y-92797539D01*
X145319750Y-92797539D01*
X145392321Y-92761253D01*
X145428607Y-92724967D01*
X145464892Y-92652396D01*
X145501178Y-92507253D01*
X145537464Y-92434682D01*
X145573750Y-92398396D01*
X145646321Y-92362110D01*
X145718892Y-92362110D01*
X145791464Y-92398396D01*
X145827750Y-92434682D01*
X145864035Y-92507253D01*
X145864035Y-92688682D01*
X145827750Y-92797539D01*
X144276535Y-83290682D02*
X143768535Y-83435825D01*
X144131392Y-83580967D01*
X143768535Y-83726110D01*
X144276535Y-83871253D01*
X144276535Y-84088967D02*
X143768535Y-84234110D01*
X144131392Y-84379253D01*
X143768535Y-84524396D01*
X144276535Y-84669539D01*
X144276535Y-84887253D02*
X143768535Y-85032396D01*
X144131392Y-85177539D01*
X143768535Y-85322682D01*
X144276535Y-85467825D01*
X143841107Y-85758110D02*
X143804821Y-85794396D01*
X143768535Y-85758110D01*
X143804821Y-85721825D01*
X143841107Y-85758110D01*
X143768535Y-85758110D01*
X143768535Y-86120967D02*
X144530535Y-86120967D01*
X143768535Y-86447539D02*
X144167678Y-86447539D01*
X144240250Y-86411253D01*
X144276535Y-86338682D01*
X144276535Y-86229825D01*
X144240250Y-86157253D01*
X144203964Y-86120967D01*
X143768535Y-86919253D02*
X143804821Y-86846682D01*
X143841107Y-86810396D01*
X143913678Y-86774110D01*
X144131392Y-86774110D01*
X144203964Y-86810396D01*
X144240250Y-86846682D01*
X144276535Y-86919253D01*
X144276535Y-87028110D01*
X144240250Y-87100682D01*
X144203964Y-87136967D01*
X144131392Y-87173253D01*
X143913678Y-87173253D01*
X143841107Y-87136967D01*
X143804821Y-87100682D01*
X143768535Y-87028110D01*
X143768535Y-86919253D01*
X143768535Y-87499825D02*
X144276535Y-87499825D01*
X144203964Y-87499825D02*
X144240250Y-87536110D01*
X144276535Y-87608682D01*
X144276535Y-87717539D01*
X144240250Y-87790110D01*
X144167678Y-87826396D01*
X143768535Y-87826396D01*
X144167678Y-87826396D02*
X144240250Y-87862682D01*
X144276535Y-87935253D01*
X144276535Y-88044110D01*
X144240250Y-88116682D01*
X144167678Y-88152967D01*
X143768535Y-88152967D01*
X143804821Y-88806110D02*
X143768535Y-88733539D01*
X143768535Y-88588396D01*
X143804821Y-88515825D01*
X143877392Y-88479539D01*
X144167678Y-88479539D01*
X144240250Y-88515825D01*
X144276535Y-88588396D01*
X144276535Y-88733539D01*
X144240250Y-88806110D01*
X144167678Y-88842396D01*
X144095107Y-88842396D01*
X144022535Y-88479539D01*
X143768535Y-89168967D02*
X144530535Y-89168967D01*
X144240250Y-89168967D02*
X144276535Y-89241539D01*
X144276535Y-89386682D01*
X144240250Y-89459253D01*
X144203964Y-89495539D01*
X144131392Y-89531825D01*
X143913678Y-89531825D01*
X143841107Y-89495539D01*
X143804821Y-89459253D01*
X143768535Y-89386682D01*
X143768535Y-89241539D01*
X143804821Y-89168967D01*
X143768535Y-89858396D02*
X144276535Y-89858396D01*
X144131392Y-89858396D02*
X144203964Y-89894682D01*
X144240250Y-89930967D01*
X144276535Y-90003539D01*
X144276535Y-90076110D01*
X143804821Y-90620396D02*
X143768535Y-90547825D01*
X143768535Y-90402682D01*
X143804821Y-90330110D01*
X143877392Y-90293825D01*
X144167678Y-90293825D01*
X144240250Y-90330110D01*
X144276535Y-90402682D01*
X144276535Y-90547825D01*
X144240250Y-90620396D01*
X144167678Y-90656682D01*
X144095107Y-90656682D01*
X144022535Y-90293825D01*
X144276535Y-90910682D02*
X143768535Y-91055825D01*
X144131392Y-91200967D01*
X143768535Y-91346110D01*
X144276535Y-91491253D01*
X144203964Y-91890396D02*
X144240250Y-91817825D01*
X144276535Y-91781539D01*
X144349107Y-91745253D01*
X144385392Y-91745253D01*
X144457964Y-91781539D01*
X144494250Y-91817825D01*
X144530535Y-91890396D01*
X144530535Y-92035539D01*
X144494250Y-92108110D01*
X144457964Y-92144396D01*
X144385392Y-92180682D01*
X144349107Y-92180682D01*
X144276535Y-92144396D01*
X144240250Y-92108110D01*
X144203964Y-92035539D01*
X144203964Y-91890396D01*
X144167678Y-91817825D01*
X144131392Y-91781539D01*
X144058821Y-91745253D01*
X143913678Y-91745253D01*
X143841107Y-91781539D01*
X143804821Y-91817825D01*
X143768535Y-91890396D01*
X143768535Y-92035539D01*
X143804821Y-92108110D01*
X143841107Y-92144396D01*
X143913678Y-92180682D01*
X144058821Y-92180682D01*
X144131392Y-92144396D01*
X144167678Y-92108110D01*
X144203964Y-92035539D01*
X144530535Y-92652396D02*
X144530535Y-92724967D01*
X144494250Y-92797539D01*
X144457964Y-92833825D01*
X144385392Y-92870110D01*
X144240250Y-92906396D01*
X144058821Y-92906396D01*
X143913678Y-92870110D01*
X143841107Y-92833825D01*
X143804821Y-92797539D01*
X143768535Y-92724967D01*
X143768535Y-92652396D01*
X143804821Y-92579825D01*
X143841107Y-92543539D01*
X143913678Y-92507253D01*
X144058821Y-92470967D01*
X144240250Y-92470967D01*
X144385392Y-92507253D01*
X144457964Y-92543539D01*
X144494250Y-92579825D01*
X144530535Y-92652396D01*
X144203964Y-93341825D02*
X144240250Y-93269253D01*
X144276535Y-93232967D01*
X144349107Y-93196682D01*
X144385392Y-93196682D01*
X144457964Y-93232967D01*
X144494250Y-93269253D01*
X144530535Y-93341825D01*
X144530535Y-93486967D01*
X144494250Y-93559539D01*
X144457964Y-93595825D01*
X144385392Y-93632110D01*
X144349107Y-93632110D01*
X144276535Y-93595825D01*
X144240250Y-93559539D01*
X144203964Y-93486967D01*
X144203964Y-93341825D01*
X144167678Y-93269253D01*
X144131392Y-93232967D01*
X144058821Y-93196682D01*
X143913678Y-93196682D01*
X143841107Y-93232967D01*
X143804821Y-93269253D01*
X143768535Y-93341825D01*
X143768535Y-93486967D01*
X143804821Y-93559539D01*
X143841107Y-93595825D01*
X143913678Y-93632110D01*
X144058821Y-93632110D01*
X144131392Y-93595825D01*
X144167678Y-93559539D01*
X144203964Y-93486967D01*
X144203964Y-94067539D02*
X144240250Y-93994967D01*
X144276535Y-93958682D01*
X144349107Y-93922396D01*
X144385392Y-93922396D01*
X144457964Y-93958682D01*
X144494250Y-93994967D01*
X144530535Y-94067539D01*
X144530535Y-94212682D01*
X144494250Y-94285253D01*
X144457964Y-94321539D01*
X144385392Y-94357825D01*
X144349107Y-94357825D01*
X144276535Y-94321539D01*
X144240250Y-94285253D01*
X144203964Y-94212682D01*
X144203964Y-94067539D01*
X144167678Y-93994967D01*
X144131392Y-93958682D01*
X144058821Y-93922396D01*
X143913678Y-93922396D01*
X143841107Y-93958682D01*
X143804821Y-93994967D01*
X143768535Y-94067539D01*
X143768535Y-94212682D01*
X143804821Y-94285253D01*
X143841107Y-94321539D01*
X143913678Y-94357825D01*
X144058821Y-94357825D01*
X144131392Y-94321539D01*
X144167678Y-94285253D01*
X144203964Y-94212682D01*
X143841107Y-94684396D02*
X143804821Y-94720682D01*
X143768535Y-94684396D01*
X143804821Y-94648110D01*
X143841107Y-94684396D01*
X143768535Y-94684396D01*
X143804821Y-95373825D02*
X143768535Y-95301253D01*
X143768535Y-95156110D01*
X143804821Y-95083539D01*
X143841107Y-95047253D01*
X143913678Y-95010967D01*
X144131392Y-95010967D01*
X144203964Y-95047253D01*
X144240250Y-95083539D01*
X144276535Y-95156110D01*
X144276535Y-95301253D01*
X144240250Y-95373825D01*
X143768535Y-95809253D02*
X143804821Y-95736682D01*
X143841107Y-95700396D01*
X143913678Y-95664110D01*
X144131392Y-95664110D01*
X144203964Y-95700396D01*
X144240250Y-95736682D01*
X144276535Y-95809253D01*
X144276535Y-95918110D01*
X144240250Y-95990682D01*
X144203964Y-96026967D01*
X144131392Y-96063253D01*
X143913678Y-96063253D01*
X143841107Y-96026967D01*
X143804821Y-95990682D01*
X143768535Y-95918110D01*
X143768535Y-95809253D01*
X143768535Y-96389825D02*
X144276535Y-96389825D01*
X144203964Y-96389825D02*
X144240250Y-96426110D01*
X144276535Y-96498682D01*
X144276535Y-96607539D01*
X144240250Y-96680110D01*
X144167678Y-96716396D01*
X143768535Y-96716396D01*
X144167678Y-96716396D02*
X144240250Y-96752682D01*
X144276535Y-96825253D01*
X144276535Y-96934110D01*
X144240250Y-97006682D01*
X144167678Y-97042967D01*
X143768535Y-97042967D01*
D11*
X154582857Y-93813333D02*
X154535238Y-93765714D01*
X154487619Y-93622857D01*
X154487619Y-93527619D01*
X154535238Y-93384761D01*
X154630476Y-93289523D01*
X154725714Y-93241904D01*
X154916190Y-93194285D01*
X155059047Y-93194285D01*
X155249523Y-93241904D01*
X155344761Y-93289523D01*
X155440000Y-93384761D01*
X155487619Y-93527619D01*
X155487619Y-93622857D01*
X155440000Y-93765714D01*
X155392380Y-93813333D01*
X154535238Y-94194285D02*
X154487619Y-94337142D01*
X154487619Y-94575238D01*
X154535238Y-94670476D01*
X154582857Y-94718095D01*
X154678095Y-94765714D01*
X154773333Y-94765714D01*
X154868571Y-94718095D01*
X154916190Y-94670476D01*
X154963809Y-94575238D01*
X155011428Y-94384761D01*
X155059047Y-94289523D01*
X155106666Y-94241904D01*
X155201904Y-94194285D01*
X155297142Y-94194285D01*
X155392380Y-94241904D01*
X155440000Y-94289523D01*
X155487619Y-94384761D01*
X155487619Y-94622857D01*
X155440000Y-94765714D01*
X155487619Y-98679047D02*
X155487619Y-98202857D01*
X155011428Y-98155238D01*
X155059047Y-98202857D01*
X155106666Y-98298095D01*
X155106666Y-98536190D01*
X155059047Y-98631428D01*
X155011428Y-98679047D01*
X154916190Y-98726666D01*
X154678095Y-98726666D01*
X154582857Y-98679047D01*
X154535238Y-98631428D01*
X154487619Y-98536190D01*
X154487619Y-98298095D01*
X154535238Y-98202857D01*
X154582857Y-98155238D01*
X154868571Y-99155238D02*
X154868571Y-99917142D01*
X154487619Y-99536190D02*
X155249523Y-99536190D01*
X155440000Y-95939428D02*
X155487619Y-95866857D01*
X155487619Y-95758000D01*
X155440000Y-95649142D01*
X155344761Y-95576571D01*
X155249523Y-95540285D01*
X155059047Y-95504000D01*
X154916190Y-95504000D01*
X154725714Y-95540285D01*
X154630476Y-95576571D01*
X154535238Y-95649142D01*
X154487619Y-95758000D01*
X154487619Y-95830571D01*
X154535238Y-95939428D01*
X154582857Y-95975714D01*
X154916190Y-95975714D01*
X154916190Y-95830571D01*
X154487619Y-96302285D02*
X155487619Y-96302285D01*
X154487619Y-96737714D01*
X155487619Y-96737714D01*
X154487619Y-97100571D02*
X155487619Y-97100571D01*
X155487619Y-97282000D01*
X155440000Y-97390857D01*
X155344761Y-97463428D01*
X155249523Y-97499714D01*
X155059047Y-97536000D01*
X154916190Y-97536000D01*
X154725714Y-97499714D01*
X154630476Y-97463428D01*
X154535238Y-97390857D01*
X154487619Y-97282000D01*
X154487619Y-97100571D01*
X154487619Y-90750571D02*
X155487619Y-90750571D01*
X154487619Y-91113428D02*
X155487619Y-91113428D01*
X154487619Y-91548857D01*
X155487619Y-91548857D01*
X155487619Y-91802857D02*
X155487619Y-92238285D01*
X154487619Y-92020571D02*
X155487619Y-92020571D01*
X142740000Y-83239428D02*
X142787619Y-83166857D01*
X142787619Y-83058000D01*
X142740000Y-82949142D01*
X142644761Y-82876571D01*
X142549523Y-82840285D01*
X142359047Y-82804000D01*
X142216190Y-82804000D01*
X142025714Y-82840285D01*
X141930476Y-82876571D01*
X141835238Y-82949142D01*
X141787619Y-83058000D01*
X141787619Y-83130571D01*
X141835238Y-83239428D01*
X141882857Y-83275714D01*
X142216190Y-83275714D01*
X142216190Y-83130571D01*
X141787619Y-83602285D02*
X142787619Y-83602285D01*
X141787619Y-84037714D01*
X142787619Y-84037714D01*
X141787619Y-84400571D02*
X142787619Y-84400571D01*
X142787619Y-84582000D01*
X142740000Y-84690857D01*
X142644761Y-84763428D01*
X142549523Y-84799714D01*
X142359047Y-84836000D01*
X142216190Y-84836000D01*
X142025714Y-84799714D01*
X141930476Y-84763428D01*
X141835238Y-84690857D01*
X141787619Y-84582000D01*
X141787619Y-84400571D01*
X141787619Y-88210571D02*
X142787619Y-88210571D01*
X141787619Y-88573428D02*
X142787619Y-88573428D01*
X141787619Y-89008857D01*
X142787619Y-89008857D01*
X142787619Y-89262857D02*
X142787619Y-89698285D01*
X141787619Y-89480571D02*
X142787619Y-89480571D01*
X142787619Y-85979047D02*
X142787619Y-85502857D01*
X142311428Y-85455238D01*
X142359047Y-85502857D01*
X142406666Y-85598095D01*
X142406666Y-85836190D01*
X142359047Y-85931428D01*
X142311428Y-85979047D01*
X142216190Y-86026666D01*
X141978095Y-86026666D01*
X141882857Y-85979047D01*
X141835238Y-85931428D01*
X141787619Y-85836190D01*
X141787619Y-85598095D01*
X141835238Y-85502857D01*
X141882857Y-85455238D01*
X142168571Y-86455238D02*
X142168571Y-87217142D01*
X141787619Y-86836190D02*
X142549523Y-86836190D01*
X142740000Y-80699428D02*
X142787619Y-80626857D01*
X142787619Y-80518000D01*
X142740000Y-80409142D01*
X142644761Y-80336571D01*
X142549523Y-80300285D01*
X142359047Y-80264000D01*
X142216190Y-80264000D01*
X142025714Y-80300285D01*
X141930476Y-80336571D01*
X141835238Y-80409142D01*
X141787619Y-80518000D01*
X141787619Y-80590571D01*
X141835238Y-80699428D01*
X141882857Y-80735714D01*
X142216190Y-80735714D01*
X142216190Y-80590571D01*
X141787619Y-81062285D02*
X142787619Y-81062285D01*
X141787619Y-81497714D01*
X142787619Y-81497714D01*
X141787619Y-81860571D02*
X142787619Y-81860571D01*
X142787619Y-82042000D01*
X142740000Y-82150857D01*
X142644761Y-82223428D01*
X142549523Y-82259714D01*
X142359047Y-82296000D01*
X142216190Y-82296000D01*
X142025714Y-82259714D01*
X141930476Y-82223428D01*
X141835238Y-82150857D01*
X141787619Y-82042000D01*
X141787619Y-81860571D01*
X146613619Y-80541904D02*
X147613619Y-80541904D01*
X147613619Y-80780000D01*
X147566000Y-80922857D01*
X147470761Y-81018095D01*
X147375523Y-81065714D01*
X147185047Y-81113333D01*
X147042190Y-81113333D01*
X146851714Y-81065714D01*
X146756476Y-81018095D01*
X146661238Y-80922857D01*
X146613619Y-80780000D01*
X146613619Y-80541904D01*
X147613619Y-81732380D02*
X147613619Y-81827619D01*
X147566000Y-81922857D01*
X147518380Y-81970476D01*
X147423142Y-82018095D01*
X147232666Y-82065714D01*
X146994571Y-82065714D01*
X146804095Y-82018095D01*
X146708857Y-81970476D01*
X146661238Y-81922857D01*
X146613619Y-81827619D01*
X146613619Y-81732380D01*
X146661238Y-81637142D01*
X146708857Y-81589523D01*
X146804095Y-81541904D01*
X146994571Y-81494285D01*
X147232666Y-81494285D01*
X147423142Y-81541904D01*
X147518380Y-81589523D01*
X147566000Y-81637142D01*
X147613619Y-81732380D01*
X154487619Y-83629523D02*
X154963809Y-83296190D01*
X154487619Y-83058095D02*
X155487619Y-83058095D01*
X155487619Y-83439047D01*
X155440000Y-83534285D01*
X155392380Y-83581904D01*
X155297142Y-83629523D01*
X155154285Y-83629523D01*
X155059047Y-83581904D01*
X155011428Y-83534285D01*
X154963809Y-83439047D01*
X154963809Y-83058095D01*
X154487619Y-84058095D02*
X155487619Y-84058095D01*
X155487619Y-84296190D01*
X155440000Y-84439047D01*
X155344761Y-84534285D01*
X155249523Y-84581904D01*
X155059047Y-84629523D01*
X154916190Y-84629523D01*
X154725714Y-84581904D01*
X154630476Y-84534285D01*
X154535238Y-84439047D01*
X154487619Y-84296190D01*
X154487619Y-84058095D01*
X146613619Y-93241904D02*
X147613619Y-93241904D01*
X147613619Y-93480000D01*
X147566000Y-93622857D01*
X147470761Y-93718095D01*
X147375523Y-93765714D01*
X147185047Y-93813333D01*
X147042190Y-93813333D01*
X146851714Y-93765714D01*
X146756476Y-93718095D01*
X146661238Y-93622857D01*
X146613619Y-93480000D01*
X146613619Y-93241904D01*
X147613619Y-94718095D02*
X147613619Y-94241904D01*
X147137428Y-94194285D01*
X147185047Y-94241904D01*
X147232666Y-94337142D01*
X147232666Y-94575238D01*
X147185047Y-94670476D01*
X147137428Y-94718095D01*
X147042190Y-94765714D01*
X146804095Y-94765714D01*
X146708857Y-94718095D01*
X146661238Y-94670476D01*
X146613619Y-94575238D01*
X146613619Y-94337142D01*
X146661238Y-94241904D01*
X146708857Y-94194285D01*
X155440000Y-88319428D02*
X155487619Y-88246857D01*
X155487619Y-88138000D01*
X155440000Y-88029142D01*
X155344761Y-87956571D01*
X155249523Y-87920285D01*
X155059047Y-87884000D01*
X154916190Y-87884000D01*
X154725714Y-87920285D01*
X154630476Y-87956571D01*
X154535238Y-88029142D01*
X154487619Y-88138000D01*
X154487619Y-88210571D01*
X154535238Y-88319428D01*
X154582857Y-88355714D01*
X154916190Y-88355714D01*
X154916190Y-88210571D01*
X154487619Y-88682285D02*
X155487619Y-88682285D01*
X154487619Y-89117714D01*
X155487619Y-89117714D01*
X154487619Y-89480571D02*
X155487619Y-89480571D01*
X155487619Y-89662000D01*
X155440000Y-89770857D01*
X155344761Y-89843428D01*
X155249523Y-89879714D01*
X155059047Y-89916000D01*
X154916190Y-89916000D01*
X154725714Y-89879714D01*
X154630476Y-89843428D01*
X154535238Y-89770857D01*
X154487619Y-89662000D01*
X154487619Y-89480571D01*
X146613619Y-88161904D02*
X147613619Y-88161904D01*
X147613619Y-88400000D01*
X147566000Y-88542857D01*
X147470761Y-88638095D01*
X147375523Y-88685714D01*
X147185047Y-88733333D01*
X147042190Y-88733333D01*
X146851714Y-88685714D01*
X146756476Y-88638095D01*
X146661238Y-88542857D01*
X146613619Y-88400000D01*
X146613619Y-88161904D01*
X147613619Y-89066666D02*
X147613619Y-89685714D01*
X147232666Y-89352380D01*
X147232666Y-89495238D01*
X147185047Y-89590476D01*
X147137428Y-89638095D01*
X147042190Y-89685714D01*
X146804095Y-89685714D01*
X146708857Y-89638095D01*
X146661238Y-89590476D01*
X146613619Y-89495238D01*
X146613619Y-89209523D01*
X146661238Y-89114285D01*
X146708857Y-89066666D01*
X146613619Y-90701904D02*
X147613619Y-90701904D01*
X147613619Y-90940000D01*
X147566000Y-91082857D01*
X147470761Y-91178095D01*
X147375523Y-91225714D01*
X147185047Y-91273333D01*
X147042190Y-91273333D01*
X146851714Y-91225714D01*
X146756476Y-91178095D01*
X146661238Y-91082857D01*
X146613619Y-90940000D01*
X146613619Y-90701904D01*
X147280285Y-92130476D02*
X146613619Y-92130476D01*
X147661238Y-91892380D02*
X146946952Y-91654285D01*
X146946952Y-92273333D01*
X146613619Y-83081904D02*
X147613619Y-83081904D01*
X147613619Y-83320000D01*
X147566000Y-83462857D01*
X147470761Y-83558095D01*
X147375523Y-83605714D01*
X147185047Y-83653333D01*
X147042190Y-83653333D01*
X146851714Y-83605714D01*
X146756476Y-83558095D01*
X146661238Y-83462857D01*
X146613619Y-83320000D01*
X146613619Y-83081904D01*
X146613619Y-84605714D02*
X146613619Y-84034285D01*
X146613619Y-84320000D02*
X147613619Y-84320000D01*
X147470761Y-84224761D01*
X147375523Y-84129523D01*
X147327904Y-84034285D01*
X146613619Y-95781904D02*
X147613619Y-95781904D01*
X147613619Y-96020000D01*
X147566000Y-96162857D01*
X147470761Y-96258095D01*
X147375523Y-96305714D01*
X147185047Y-96353333D01*
X147042190Y-96353333D01*
X146851714Y-96305714D01*
X146756476Y-96258095D01*
X146661238Y-96162857D01*
X146613619Y-96020000D01*
X146613619Y-95781904D01*
X147613619Y-97210476D02*
X147613619Y-97020000D01*
X147566000Y-96924761D01*
X147518380Y-96877142D01*
X147375523Y-96781904D01*
X147185047Y-96734285D01*
X146804095Y-96734285D01*
X146708857Y-96781904D01*
X146661238Y-96829523D01*
X146613619Y-96924761D01*
X146613619Y-97115238D01*
X146661238Y-97210476D01*
X146708857Y-97258095D01*
X146804095Y-97305714D01*
X147042190Y-97305714D01*
X147137428Y-97258095D01*
X147185047Y-97210476D01*
X147232666Y-97115238D01*
X147232666Y-96924761D01*
X147185047Y-96829523D01*
X147137428Y-96781904D01*
X147042190Y-96734285D01*
X146613619Y-85621904D02*
X147613619Y-85621904D01*
X147613619Y-85860000D01*
X147566000Y-86002857D01*
X147470761Y-86098095D01*
X147375523Y-86145714D01*
X147185047Y-86193333D01*
X147042190Y-86193333D01*
X146851714Y-86145714D01*
X146756476Y-86098095D01*
X146661238Y-86002857D01*
X146613619Y-85860000D01*
X146613619Y-85621904D01*
X147518380Y-86574285D02*
X147566000Y-86621904D01*
X147613619Y-86717142D01*
X147613619Y-86955238D01*
X147566000Y-87050476D01*
X147518380Y-87098095D01*
X147423142Y-87145714D01*
X147327904Y-87145714D01*
X147185047Y-87098095D01*
X146613619Y-86526666D01*
X146613619Y-87145714D01*
X155487619Y-85431428D02*
X154487619Y-85669523D01*
X155201904Y-85860000D01*
X154487619Y-86050476D01*
X155487619Y-86288571D01*
X154487619Y-87240952D02*
X154963809Y-86907619D01*
X154487619Y-86669523D02*
X155487619Y-86669523D01*
X155487619Y-87050476D01*
X155440000Y-87145714D01*
X155392380Y-87193333D01*
X155297142Y-87240952D01*
X155154285Y-87240952D01*
X155059047Y-87193333D01*
X155011428Y-87145714D01*
X154963809Y-87050476D01*
X154963809Y-86669523D01*
X154773333Y-80565714D02*
X154773333Y-81041904D01*
X154487619Y-80470476D02*
X155487619Y-80803809D01*
X154487619Y-81137142D01*
X155392380Y-81422857D02*
X155440000Y-81470476D01*
X155487619Y-81565714D01*
X155487619Y-81803809D01*
X155440000Y-81899047D01*
X155392380Y-81946666D01*
X155297142Y-81994285D01*
X155201904Y-81994285D01*
X155059047Y-81946666D01*
X154487619Y-81375238D01*
X154487619Y-81994285D01*
X146613619Y-98321904D02*
X147613619Y-98321904D01*
X147613619Y-98560000D01*
X147566000Y-98702857D01*
X147470761Y-98798095D01*
X147375523Y-98845714D01*
X147185047Y-98893333D01*
X147042190Y-98893333D01*
X146851714Y-98845714D01*
X146756476Y-98798095D01*
X146661238Y-98702857D01*
X146613619Y-98560000D01*
X146613619Y-98321904D01*
X147613619Y-99226666D02*
X147613619Y-99893333D01*
X146613619Y-99464761D01*
X133913619Y-80541904D02*
X134913619Y-80541904D01*
X134913619Y-80780000D01*
X134866000Y-80922857D01*
X134770761Y-81018095D01*
X134675523Y-81065714D01*
X134485047Y-81113333D01*
X134342190Y-81113333D01*
X134151714Y-81065714D01*
X134056476Y-81018095D01*
X133961238Y-80922857D01*
X133913619Y-80780000D01*
X133913619Y-80541904D01*
X134913619Y-81732380D02*
X134913619Y-81827619D01*
X134866000Y-81922857D01*
X134818380Y-81970476D01*
X134723142Y-82018095D01*
X134532666Y-82065714D01*
X134294571Y-82065714D01*
X134104095Y-82018095D01*
X134008857Y-81970476D01*
X133961238Y-81922857D01*
X133913619Y-81827619D01*
X133913619Y-81732380D01*
X133961238Y-81637142D01*
X134008857Y-81589523D01*
X134104095Y-81541904D01*
X134294571Y-81494285D01*
X134532666Y-81494285D01*
X134723142Y-81541904D01*
X134818380Y-81589523D01*
X134866000Y-81637142D01*
X134913619Y-81732380D01*
X141882857Y-93813333D02*
X141835238Y-93765714D01*
X141787619Y-93622857D01*
X141787619Y-93527619D01*
X141835238Y-93384761D01*
X141930476Y-93289523D01*
X142025714Y-93241904D01*
X142216190Y-93194285D01*
X142359047Y-93194285D01*
X142549523Y-93241904D01*
X142644761Y-93289523D01*
X142740000Y-93384761D01*
X142787619Y-93527619D01*
X142787619Y-93622857D01*
X142740000Y-93765714D01*
X142692380Y-93813333D01*
X141835238Y-94194285D02*
X141787619Y-94337142D01*
X141787619Y-94575238D01*
X141835238Y-94670476D01*
X141882857Y-94718095D01*
X141978095Y-94765714D01*
X142073333Y-94765714D01*
X142168571Y-94718095D01*
X142216190Y-94670476D01*
X142263809Y-94575238D01*
X142311428Y-94384761D01*
X142359047Y-94289523D01*
X142406666Y-94241904D01*
X142501904Y-94194285D01*
X142597142Y-94194285D01*
X142692380Y-94241904D01*
X142740000Y-94289523D01*
X142787619Y-94384761D01*
X142787619Y-94622857D01*
X142740000Y-94765714D01*
X133913619Y-93241904D02*
X134913619Y-93241904D01*
X134913619Y-93480000D01*
X134866000Y-93622857D01*
X134770761Y-93718095D01*
X134675523Y-93765714D01*
X134485047Y-93813333D01*
X134342190Y-93813333D01*
X134151714Y-93765714D01*
X134056476Y-93718095D01*
X133961238Y-93622857D01*
X133913619Y-93480000D01*
X133913619Y-93241904D01*
X134913619Y-94718095D02*
X134913619Y-94241904D01*
X134437428Y-94194285D01*
X134485047Y-94241904D01*
X134532666Y-94337142D01*
X134532666Y-94575238D01*
X134485047Y-94670476D01*
X134437428Y-94718095D01*
X134342190Y-94765714D01*
X134104095Y-94765714D01*
X134008857Y-94718095D01*
X133961238Y-94670476D01*
X133913619Y-94575238D01*
X133913619Y-94337142D01*
X133961238Y-94241904D01*
X134008857Y-94194285D01*
X142787619Y-98131428D02*
X141787619Y-98369523D01*
X142501904Y-98560000D01*
X141787619Y-98750476D01*
X142787619Y-98988571D01*
X141787619Y-99940952D02*
X142263809Y-99607619D01*
X141787619Y-99369523D02*
X142787619Y-99369523D01*
X142787619Y-99750476D01*
X142740000Y-99845714D01*
X142692380Y-99893333D01*
X142597142Y-99940952D01*
X142454285Y-99940952D01*
X142359047Y-99893333D01*
X142311428Y-99845714D01*
X142263809Y-99750476D01*
X142263809Y-99369523D01*
X133913619Y-88161904D02*
X134913619Y-88161904D01*
X134913619Y-88400000D01*
X134866000Y-88542857D01*
X134770761Y-88638095D01*
X134675523Y-88685714D01*
X134485047Y-88733333D01*
X134342190Y-88733333D01*
X134151714Y-88685714D01*
X134056476Y-88638095D01*
X133961238Y-88542857D01*
X133913619Y-88400000D01*
X133913619Y-88161904D01*
X134913619Y-89066666D02*
X134913619Y-89685714D01*
X134532666Y-89352380D01*
X134532666Y-89495238D01*
X134485047Y-89590476D01*
X134437428Y-89638095D01*
X134342190Y-89685714D01*
X134104095Y-89685714D01*
X134008857Y-89638095D01*
X133961238Y-89590476D01*
X133913619Y-89495238D01*
X133913619Y-89209523D01*
X133961238Y-89114285D01*
X134008857Y-89066666D01*
X133913619Y-90701904D02*
X134913619Y-90701904D01*
X134913619Y-90940000D01*
X134866000Y-91082857D01*
X134770761Y-91178095D01*
X134675523Y-91225714D01*
X134485047Y-91273333D01*
X134342190Y-91273333D01*
X134151714Y-91225714D01*
X134056476Y-91178095D01*
X133961238Y-91082857D01*
X133913619Y-90940000D01*
X133913619Y-90701904D01*
X134580285Y-92130476D02*
X133913619Y-92130476D01*
X134961238Y-91892380D02*
X134246952Y-91654285D01*
X134246952Y-92273333D01*
X133913619Y-83081904D02*
X134913619Y-83081904D01*
X134913619Y-83320000D01*
X134866000Y-83462857D01*
X134770761Y-83558095D01*
X134675523Y-83605714D01*
X134485047Y-83653333D01*
X134342190Y-83653333D01*
X134151714Y-83605714D01*
X134056476Y-83558095D01*
X133961238Y-83462857D01*
X133913619Y-83320000D01*
X133913619Y-83081904D01*
X133913619Y-84605714D02*
X133913619Y-84034285D01*
X133913619Y-84320000D02*
X134913619Y-84320000D01*
X134770761Y-84224761D01*
X134675523Y-84129523D01*
X134627904Y-84034285D01*
X133913619Y-95781904D02*
X134913619Y-95781904D01*
X134913619Y-96020000D01*
X134866000Y-96162857D01*
X134770761Y-96258095D01*
X134675523Y-96305714D01*
X134485047Y-96353333D01*
X134342190Y-96353333D01*
X134151714Y-96305714D01*
X134056476Y-96258095D01*
X133961238Y-96162857D01*
X133913619Y-96020000D01*
X133913619Y-95781904D01*
X134913619Y-97210476D02*
X134913619Y-97020000D01*
X134866000Y-96924761D01*
X134818380Y-96877142D01*
X134675523Y-96781904D01*
X134485047Y-96734285D01*
X134104095Y-96734285D01*
X134008857Y-96781904D01*
X133961238Y-96829523D01*
X133913619Y-96924761D01*
X133913619Y-97115238D01*
X133961238Y-97210476D01*
X134008857Y-97258095D01*
X134104095Y-97305714D01*
X134342190Y-97305714D01*
X134437428Y-97258095D01*
X134485047Y-97210476D01*
X134532666Y-97115238D01*
X134532666Y-96924761D01*
X134485047Y-96829523D01*
X134437428Y-96781904D01*
X134342190Y-96734285D01*
X133913619Y-85621904D02*
X134913619Y-85621904D01*
X134913619Y-85860000D01*
X134866000Y-86002857D01*
X134770761Y-86098095D01*
X134675523Y-86145714D01*
X134485047Y-86193333D01*
X134342190Y-86193333D01*
X134151714Y-86145714D01*
X134056476Y-86098095D01*
X133961238Y-86002857D01*
X133913619Y-85860000D01*
X133913619Y-85621904D01*
X134818380Y-86574285D02*
X134866000Y-86621904D01*
X134913619Y-86717142D01*
X134913619Y-86955238D01*
X134866000Y-87050476D01*
X134818380Y-87098095D01*
X134723142Y-87145714D01*
X134627904Y-87145714D01*
X134485047Y-87098095D01*
X133913619Y-86526666D01*
X133913619Y-87145714D01*
X141787619Y-96329523D02*
X142263809Y-95996190D01*
X141787619Y-95758095D02*
X142787619Y-95758095D01*
X142787619Y-96139047D01*
X142740000Y-96234285D01*
X142692380Y-96281904D01*
X142597142Y-96329523D01*
X142454285Y-96329523D01*
X142359047Y-96281904D01*
X142311428Y-96234285D01*
X142263809Y-96139047D01*
X142263809Y-95758095D01*
X141787619Y-96758095D02*
X142787619Y-96758095D01*
X142787619Y-96996190D01*
X142740000Y-97139047D01*
X142644761Y-97234285D01*
X142549523Y-97281904D01*
X142359047Y-97329523D01*
X142216190Y-97329523D01*
X142025714Y-97281904D01*
X141930476Y-97234285D01*
X141835238Y-97139047D01*
X141787619Y-96996190D01*
X141787619Y-96758095D01*
X142073333Y-90725714D02*
X142073333Y-91201904D01*
X141787619Y-90630476D02*
X142787619Y-90963809D01*
X141787619Y-91297142D01*
X142692380Y-91582857D02*
X142740000Y-91630476D01*
X142787619Y-91725714D01*
X142787619Y-91963809D01*
X142740000Y-92059047D01*
X142692380Y-92106666D01*
X142597142Y-92154285D01*
X142501904Y-92154285D01*
X142359047Y-92106666D01*
X141787619Y-91535238D01*
X141787619Y-92154285D01*
X133913619Y-98321904D02*
X134913619Y-98321904D01*
X134913619Y-98560000D01*
X134866000Y-98702857D01*
X134770761Y-98798095D01*
X134675523Y-98845714D01*
X134485047Y-98893333D01*
X134342190Y-98893333D01*
X134151714Y-98845714D01*
X134056476Y-98798095D01*
X133961238Y-98702857D01*
X133913619Y-98560000D01*
X133913619Y-98321904D01*
X134913619Y-99226666D02*
X134913619Y-99893333D01*
X133913619Y-99464761D01*
D12*
G04 #@! TO.C,J2*
X148530000Y-100390000D02*
X153730000Y-100390000D01*
X148530000Y-82550000D02*
X148530000Y-100390000D01*
X153730000Y-79950000D02*
X153730000Y-100390000D01*
X148530000Y-82550000D02*
X151130000Y-82550000D01*
X151130000Y-82550000D02*
X151130000Y-79950000D01*
X151130000Y-79950000D02*
X153730000Y-79950000D01*
X148530000Y-81280000D02*
X148530000Y-79950000D01*
X148530000Y-79950000D02*
X149860000Y-79950000D01*
G04 #@! TO.C,J1*
X135830000Y-100390000D02*
X141030000Y-100390000D01*
X135830000Y-82550000D02*
X135830000Y-100390000D01*
X141030000Y-79950000D02*
X141030000Y-100390000D01*
X135830000Y-82550000D02*
X138430000Y-82550000D01*
X138430000Y-82550000D02*
X138430000Y-79950000D01*
X138430000Y-79950000D02*
X141030000Y-79950000D01*
X135830000Y-81280000D02*
X135830000Y-79950000D01*
X135830000Y-79950000D02*
X137160000Y-79950000D01*
G04 #@! TD*
M02*
