M48
; DRILL file {KiCad (5.1.8)-1} date 05/28/22 15:46:19
; FORMAT={-:-/ absolute / inch / decimal}
; #@! TF.CreationDate,2022-05-28T15:46:19-06:00
; #@! TF.GenerationSoftware,Kicad,Pcbnew,(5.1.8)-1
; #@! TF.FileFunction,Plated,1,2,PTH
FMAT,2
INCH
T1C0.0157
T2C0.0300
T3C0.0315
T4C0.0354
T5C0.0394
T6C0.0433
T7C0.0709
T8C0.0800
T9C0.1000
T10C0.1560
%
G90
G05
T1
X0.91Y-6.68
X0.92Y-4.65
X0.95Y-3.65
X1.03Y-6.83
X1.1Y-5.33
X1.13Y-5.23
X1.2Y-3.31
X1.23Y-3.41
X1.25Y-5.43
X1.26Y-3.45
X1.26Y-3.51
X1.29Y-3.21
X1.3Y-5.81
X1.3Y-6.13
X1.3Y-6.33
X1.3Y-6.43
X1.3Y-6.63
X1.3Y-6.95
X1.325Y-4.75
X1.34Y-3.25
X1.36Y-5.28
X1.36Y-6.51
X1.37Y-2.61
X1.37Y-4.87
X1.42Y-2.25
X1.42Y-6.91
X1.45Y-1.85
X1.6Y-5.02
X1.6Y-5.61
X1.6Y-6.0
X1.6Y-6.11
X1.6Y-6.78
X1.65Y-5.23
X1.65Y-5.53
X1.78Y-4.58
X1.78Y-5.02
X1.78Y-5.61
X1.8Y-6.82
X1.84Y-4.87
X1.84Y-5.34
X1.84Y-6.42
X1.87Y-5.08
X1.87Y-6.78
X1.9Y-5.33
X1.91Y-5.92
X1.91Y-6.63
X1.93Y-3.71
X1.93Y-5.23
X1.96Y-3.81
X1.99Y-3.91
X2.02Y-3.61
X2.05Y-5.43
X2.06Y-1.75
X2.06Y-2.65
X2.06Y-4.75
X2.1Y-1.95
X2.1Y-4.55
X2.1Y-5.81
X2.11Y-6.33
X2.11Y-6.73
X2.14Y-6.43
X2.14Y-6.83
X2.2Y-6.15
X2.2Y-6.23
X2.2Y-6.33
X2.2Y-6.53
X2.2Y-6.63
X2.44Y-1.43
X2.54Y-1.3999
X2.54Y-4.61
X2.54Y-5.97
X2.54Y-6.28
X2.57Y-4.71
X2.57Y-6.0
X2.6Y-6.53
X2.64Y-1.37
X2.65Y-5.23
X2.65Y-5.53
X2.7Y-5.92
X2.7Y-5.33
X2.7Y-5.57
X2.73Y-1.43
X2.73Y-1.95
X2.73Y-4.01
X2.73Y-5.23
X2.74Y-1.34
X2.76Y-4.11
X2.77Y-1.4
X2.77Y-2.75
X2.79Y-4.21
X2.8Y-1.37
X2.8Y-2.85
X2.82Y-4.31
X2.83Y-3.05
X2.85Y-5.43
X2.86Y-1.34
X2.86Y-2.95
X2.89Y-1.71
X2.9Y-5.81
X2.9Y-6.43
X2.9Y-6.51
X2.9Y-6.91
X2.92Y-1.34
X2.92Y-4.25
X2.93Y-5.75
X2.94Y-5.94
X2.95Y-3.55
X2.96Y-5.9
X2.98Y-3.35
X2.99Y-6.38
X3.01Y-1.37
X3.01Y-3.15
X3.02Y-5.53
X3.02Y-6.28
X3.14Y-1.34
X3.24Y-1.37
X3.24Y-4.98
X3.32Y-5.89
X3.33Y-5.07
X3.33Y-5.13
X3.34Y-4.55
X3.34Y-5.02
X3.35Y-5.18
X3.35Y-5.73
X3.378Y-6.0014
X3.38Y-6.38
X3.39Y-6.48
X3.41Y-5.9785
X3.4315Y-6.43
X3.46Y-6.78
X3.47Y-5.98
X3.51Y-1.98
X3.51Y-5.07
X3.51Y-5.63
X3.51Y-6.31
X3.51Y-1.67
X3.52Y-2.71
X3.52Y-4.51
X3.55Y-1.51
X3.58Y-2.81
X3.58Y-6.08
X3.6Y-1.98
X3.62Y-5.81
X3.63Y-2.38
X3.66Y-5.53
X3.69Y-2.9
X3.69Y-1.58
X3.7Y-5.23
X3.7Y-5.81
X3.7Y-6.43
X3.73Y-5.35
X3.74Y-6.53
X3.76Y-5.43
X3.76Y-5.78
X3.78Y-6.94
X3.79Y-3.03
X3.79Y-5.53
X3.82Y-2.98
X3.82Y-3.58
X3.82Y-5.43
X3.83Y-5.63
X3.83Y-6.48
X3.84Y-1.67
X3.84Y-2.76
X3.84Y-5.18
X3.85Y-2.84
X3.88Y-2.53
X3.9Y-3.04
X3.9Y-3.48
X3.93Y-2.63
X3.95Y-5.73
X3.99Y-2.76
X4.02Y-5.81
X4.02Y-6.38
X4.05Y-2.75
X4.05Y-6.61
X4.08Y-6.21
X4.08Y-6.71
X4.09Y-1.58
X4.09Y-2.95
X4.16Y-1.81
X4.16Y-1.91
X4.16Y-2.01
X4.16Y-2.11
X4.16Y-2.21
X4.16Y-2.31
X4.16Y-2.41
X4.16Y-2.51
X4.2Y-1.91
X4.2Y-2.01
X4.2Y-2.11
X4.2Y-2.21
X4.2Y-2.31
X4.2Y-2.41
X4.2Y-2.51
X4.2Y-2.61
X4.21Y-5.92
X4.21Y-6.32
X4.24Y-6.58
X4.27Y-2.69
X4.27Y-3.34
X4.3Y-2.75
X4.34Y-2.78
X4.34Y-5.98
X4.43Y-3.48
X4.4599Y-6.41
X4.46Y-2.05
X4.46Y-2.15
X4.48Y-1.51
X4.48Y-1.78
X4.48Y-1.95
X4.48Y-3.18
X4.49Y-6.45
X4.49Y-6.55
X4.49Y-6.92
X4.51Y-1.64
X4.51Y-3.38
X4.51Y-3.43
X4.51Y-5.95
X4.54Y-1.67
X4.5515Y-3.0777
X4.56Y-3.7
X4.56Y-4.94
X4.57Y-1.7
X4.58Y-2.05
X4.58Y-3.58
X4.6Y-6.25
X4.6Y-6.31
X4.61Y-1.83
X4.61Y-2.13
X4.61Y-2.18
X4.61Y-2.43
X4.63Y-2.9
X4.64Y-2.08
X4.64Y-2.28
X4.64Y-3.12
X4.64Y-4.54
X4.67Y-2.18
X4.67Y-2.58
X4.67Y-2.88
X4.68Y-2.02
X4.7Y-1.59
X4.7Y-2.48
X4.7Y-2.9801
X4.73Y-2.72
X4.73Y-3.87
X4.74Y-3.99
X4.74Y-4.38
X4.74Y-7.0
X4.76Y-3.18
X4.76Y-4.74
X4.76Y-5.69
X4.8Y-2.38
X4.8Y-3.08
X4.81Y-5.08
X4.81Y-5.28
X4.85Y-3.28
X4.86Y-4.18
X4.86Y-4.54
X4.9Y-1.98
X4.9Y-3.38
X4.9Y-4.94
X4.93Y-5.89
X4.95Y-1.93
X4.95Y-3.48
X5.0Y-1.89
X5.0Y-3.58
X5.0Y-6.1
X5.04Y-1.3
X5.05Y-1.68
X5.05Y-2.93
X5.05Y-3.7
X5.08Y-5.54
X5.0816Y-6.7816
X5.1Y-2.78
X5.16Y-1.42
X5.2Y-2.84
X5.2Y-1.65
X5.2Y-1.92
X5.21Y-5.89
X5.25Y-1.62
X5.25Y-5.62
X5.25Y-5.76
X5.27Y-1.55
X5.28Y-6.45
X5.28Y-6.88
X5.3Y-1.98
X5.3Y-2.81
X5.42Y-5.08
X5.42Y-5.41
X5.42Y-6.1
X5.5054Y-5.04
T2
X3.24Y-5.13
X3.24Y-5.23
X3.24Y-5.33
X3.24Y-5.43
X3.24Y-5.53
X3.24Y-5.63
X3.24Y-5.73
X3.24Y-5.83
X3.44Y-5.13
X3.44Y-5.23
X3.44Y-5.33
X3.44Y-5.43
X3.44Y-5.53
X3.44Y-5.63
X3.44Y-5.73
X3.44Y-5.83
X5.14Y-4.9
X1.77Y-1.49
X2.51Y-1.59
X3.24Y-1.73
X3.24Y-1.83
X3.24Y-1.93
X3.24Y-2.03
X3.24Y-2.13
X3.24Y-2.23
X3.24Y-2.33
X3.24Y-2.43
X3.24Y-2.53
X3.24Y-2.63
X3.24Y-2.73
X3.24Y-2.83
X3.24Y-2.93
X3.24Y-3.03
X3.24Y-3.13
X3.24Y-3.23
X3.24Y-3.33
X3.24Y-3.43
X3.24Y-3.53
X3.24Y-3.63
X3.24Y-3.73
X3.24Y-3.83
X3.24Y-3.93
X3.24Y-4.03
X3.24Y-4.13
X3.24Y-4.23
X3.24Y-4.33
X3.24Y-4.43
X3.24Y-4.53
X3.24Y-4.63
X3.24Y-4.73
X3.44Y-1.73
X3.44Y-1.83
X3.44Y-1.93
X3.44Y-2.03
X3.44Y-2.13
X3.44Y-2.23
X3.44Y-2.33
X3.44Y-2.43
X3.44Y-2.53
X3.44Y-2.63
X3.44Y-2.73
X3.44Y-2.83
X3.44Y-2.93
X3.44Y-3.03
X3.44Y-3.13
X3.44Y-3.23
X3.44Y-3.33
X3.44Y-3.43
X3.44Y-3.53
X3.44Y-3.63
X3.44Y-3.73
X3.44Y-3.83
X3.44Y-3.93
X3.44Y-4.03
X3.44Y-4.13
X3.44Y-4.23
X3.44Y-4.33
X3.44Y-4.43
X3.44Y-4.53
X3.44Y-4.63
X3.44Y-4.73
X2.44Y-1.73
X2.44Y-1.83
X2.44Y-1.93
X2.44Y-2.03
X2.44Y-2.13
X2.44Y-2.23
X2.44Y-2.33
X2.44Y-2.43
X2.44Y-2.53
X2.44Y-2.63
X2.44Y-2.73
X2.44Y-2.83
X2.44Y-2.93
X2.44Y-3.03
X2.44Y-3.13
X2.44Y-3.23
X2.44Y-3.33
X2.44Y-3.43
X2.44Y-3.53
X2.44Y-3.63
X2.44Y-3.73
X2.44Y-3.83
X2.44Y-3.93
X2.44Y-4.03
X2.44Y-4.13
X2.44Y-4.23
X2.44Y-4.33
X2.44Y-4.43
X2.44Y-4.53
X2.44Y-4.63
X2.44Y-4.73
X2.64Y-1.73
X2.64Y-1.83
X2.64Y-1.93
X2.64Y-2.03
X2.64Y-2.13
X2.64Y-2.23
X2.64Y-2.33
X2.64Y-2.43
X2.64Y-2.53
X2.64Y-2.63
X2.64Y-2.73
X2.64Y-2.83
X2.64Y-2.93
X2.64Y-3.03
X2.64Y-3.13
X2.64Y-3.23
X2.64Y-3.33
X2.64Y-3.43
X2.64Y-3.53
X2.64Y-3.63
X2.64Y-3.73
X2.64Y-3.83
X2.64Y-3.93
X2.64Y-4.03
X2.64Y-4.13
X2.64Y-4.23
X2.64Y-4.33
X2.64Y-4.43
X2.64Y-4.53
X2.64Y-4.63
X2.64Y-4.73
X5.07Y-1.07
X5.07Y-1.168
X5.153Y-1.07
X5.255Y-1.07
X5.338Y-1.07
X5.338Y-1.168
X5.21Y-6.6831
X5.21Y-6.7816
X5.21Y-6.88
X5.4462Y-6.6831
X5.4462Y-6.7816
X5.4462Y-6.88
X5.14Y-4.81
X0.97Y-1.49
X1.64Y-1.73
X1.64Y-1.83
X1.64Y-1.93
X1.64Y-2.03
X1.64Y-2.13
X1.64Y-2.23
X1.64Y-2.33
X1.64Y-2.43
X1.64Y-2.53
X1.64Y-2.63
X1.64Y-2.73
X1.64Y-2.83
X1.64Y-2.93
X1.64Y-3.03
X1.64Y-3.13
X1.64Y-3.23
X1.64Y-3.33
X1.64Y-3.43
X1.64Y-3.53
X1.64Y-3.63
X1.64Y-3.73
X1.64Y-3.83
X1.64Y-3.93
X1.64Y-4.03
X1.64Y-4.13
X1.64Y-4.23
X1.64Y-4.33
X1.64Y-4.43
X1.64Y-4.53
X1.64Y-4.63
X1.64Y-4.73
X1.84Y-1.73
X1.84Y-1.83
X1.84Y-1.93
X1.84Y-2.03
X1.84Y-2.13
X1.84Y-2.23
X1.84Y-2.33
X1.84Y-2.43
X1.84Y-2.53
X1.84Y-2.63
X1.84Y-2.73
X1.84Y-2.83
X1.84Y-2.93
X1.84Y-3.03
X1.84Y-3.13
X1.84Y-3.23
X1.84Y-3.33
X1.84Y-3.43
X1.84Y-3.53
X1.84Y-3.63
X1.84Y-3.73
X1.84Y-3.83
X1.84Y-3.93
X1.84Y-4.03
X1.84Y-4.13
X1.84Y-4.23
X1.84Y-4.33
X1.84Y-4.43
X1.84Y-4.53
X1.84Y-4.63
X1.84Y-4.73
X3.05Y-4.82
X2.98Y-4.88
X2.57Y-1.49
X0.91Y-1.59
X3.31Y-1.59
X3.37Y-1.49
X1.71Y-1.59
X0.84Y-1.73
X0.84Y-1.83
X0.84Y-1.93
X0.84Y-2.03
X0.84Y-2.13
X0.84Y-2.23
X0.84Y-2.33
X0.84Y-2.43
X0.84Y-2.53
X0.84Y-2.63
X0.84Y-2.73
X0.84Y-2.83
X0.84Y-2.93
X0.84Y-3.03
X0.84Y-3.13
X0.84Y-3.23
X0.84Y-3.33
X0.84Y-3.43
X0.84Y-3.53
X0.84Y-3.63
X0.84Y-3.73
X0.84Y-3.83
X0.84Y-3.93
X0.84Y-4.03
X0.84Y-4.13
X0.84Y-4.23
X0.84Y-4.33
X0.84Y-4.43
X0.84Y-4.53
X0.84Y-4.63
X0.84Y-4.73
X1.04Y-1.73
X1.04Y-1.83
X1.04Y-1.93
X1.04Y-2.03
X1.04Y-2.13
X1.04Y-2.23
X1.04Y-2.33
X1.04Y-2.43
X1.04Y-2.53
X1.04Y-2.63
X1.04Y-2.73
X1.04Y-2.83
X1.04Y-2.93
X1.04Y-3.03
X1.04Y-3.13
X1.04Y-3.23
X1.04Y-3.33
X1.04Y-3.43
X1.04Y-3.53
X1.04Y-3.63
X1.04Y-3.73
X1.04Y-3.83
X1.04Y-3.93
X1.04Y-4.03
X1.04Y-4.13
X1.04Y-4.23
X1.04Y-4.33
X1.04Y-4.43
X1.04Y-4.53
X1.04Y-4.63
X1.04Y-4.73
X5.14Y-5.7
X5.14Y-4.46
T3
X1.03Y-6.12
X1.03Y-6.52
X1.16Y-4.55
X1.16Y-4.7469
X1.74Y-6.1671
X1.74Y-6.36
X3.69Y-1.73
X3.69Y-1.83
X3.69Y-1.93
X3.69Y-2.03
X3.69Y-2.13
X3.69Y-2.23
X3.69Y-2.33
X3.69Y-2.43
X3.69Y-2.53
X3.69Y-2.63
X3.99Y-1.73
X3.99Y-1.83
X3.99Y-1.93
X3.99Y-2.03
X3.99Y-2.13
X3.99Y-2.23
X3.99Y-2.33
X3.99Y-2.43
X3.99Y-2.53
X3.99Y-2.63
X4.39Y-6.23
X4.39Y-6.33
X4.39Y-6.43
X4.39Y-6.53
X4.39Y-6.63
X4.39Y-6.73
X4.39Y-6.83
X4.39Y-6.93
X4.69Y-6.23
X4.69Y-6.33
X4.69Y-6.43
X4.69Y-6.53
X4.69Y-6.63
X4.69Y-6.73
X4.69Y-6.83
X4.69Y-6.93
X2.6Y-6.33
X2.6Y-6.73
X5.13Y-2.93
X5.13Y-3.1269
X2.32Y-4.55
X2.32Y-4.7469
X1.19Y-6.13
X1.19Y-6.23
X1.19Y-6.33
X1.19Y-6.43
X1.19Y-6.53
X1.19Y-6.63
X1.19Y-6.73
X1.19Y-6.83
X1.19Y-6.93
X1.49Y-6.13
X1.49Y-6.23
X1.49Y-6.33
X1.49Y-6.43
X1.49Y-6.53
X1.49Y-6.63
X1.49Y-6.73
X1.49Y-6.83
X1.49Y-6.93
X4.56Y-3.87
X4.96Y-3.87
X3.69Y-3.03
X3.69Y-3.13
X3.69Y-3.23
X3.69Y-3.33
X3.69Y-3.43
X3.69Y-3.53
X3.69Y-3.63
X3.99Y-3.03
X3.99Y-3.13
X3.99Y-3.23
X3.99Y-3.33
X3.99Y-3.43
X3.99Y-3.53
X3.99Y-3.63
X4.9Y-5.18
X4.9Y-5.28
X4.9Y-5.38
X4.9Y-5.48
X4.9531Y-1.53
X5.15Y-1.53
X3.12Y-1.76
X3.12Y-1.9569
X2.32Y-1.76
X2.32Y-1.9569
X1.16Y-1.76
X1.16Y-1.9569
X2.8931Y-6.1
X3.09Y-6.1
X1.19Y-5.13
X1.19Y-5.23
X1.19Y-5.33
X1.19Y-5.43
X1.19Y-5.53
X1.19Y-5.63
X1.19Y-5.73
X1.19Y-5.83
X1.49Y-5.13
X1.49Y-5.23
X1.49Y-5.33
X1.49Y-5.43
X1.49Y-5.53
X1.49Y-5.63
X1.49Y-5.73
X1.49Y-5.83
X2.0931Y-5.0
X2.29Y-5.0
X1.99Y-6.23
X1.99Y-6.33
X1.99Y-6.43
X1.99Y-6.53
X1.99Y-6.63
X1.99Y-6.73
X1.99Y-6.83
X2.29Y-6.23
X2.29Y-6.33
X2.29Y-6.43
X2.29Y-6.53
X2.29Y-6.63
X2.29Y-6.73
X2.29Y-6.83
X4.1931Y-1.6
X4.39Y-1.6
X4.6Y-5.69
X5.0Y-5.69
X2.44Y-1.26
X2.54Y-1.26
X2.64Y-1.26
X2.74Y-1.26
X2.84Y-1.26
X2.94Y-1.26
X3.04Y-1.26
X3.14Y-1.26
X3.24Y-1.26
X3.59Y-6.23
X3.59Y-6.33
X3.59Y-6.43
X3.59Y-6.53
X3.59Y-6.63
X3.59Y-6.73
X3.59Y-6.83
X3.59Y-6.93
X3.89Y-6.23
X3.89Y-6.33
X3.89Y-6.43
X3.89Y-6.53
X3.89Y-6.63
X3.89Y-6.73
X3.89Y-6.83
X3.89Y-6.93
X1.2931Y-6.0
X1.49Y-6.0
X1.52Y-1.76
X1.52Y-1.9569
X1.52Y-4.55
X1.52Y-4.7469
X3.7931Y-2.9
X3.99Y-2.9
X4.56Y-3.99
X4.96Y-3.99
X2.79Y-5.13
X2.79Y-5.23
X2.79Y-5.33
X2.79Y-5.43
X2.79Y-5.53
X2.79Y-5.63
X2.79Y-5.73
X2.79Y-5.83
X3.09Y-5.13
X3.09Y-5.23
X3.09Y-5.33
X3.09Y-5.43
X3.09Y-5.53
X3.09Y-5.63
X3.09Y-5.73
X3.09Y-5.83
X4.6Y-5.81
X5.0Y-5.81
X4.09Y-1.73
X4.09Y-1.83
X4.09Y-1.93
X4.09Y-2.03
X4.09Y-2.13
X4.09Y-2.23
X4.09Y-2.33
X4.09Y-2.43
X4.09Y-2.53
X4.09Y-2.63
X4.39Y-1.73
X4.39Y-1.83
X4.39Y-1.93
X4.39Y-2.03
X4.39Y-2.13
X4.39Y-2.23
X4.39Y-2.33
X4.39Y-2.43
X4.39Y-2.53
X4.39Y-2.63
X2.48Y-6.33
X2.48Y-6.73
X4.7Y-1.4189
X5.1Y-1.4189
X4.56Y-4.18
X4.96Y-4.18
X3.33Y-6.6
X3.33Y-7.0
X4.75Y-1.83
X4.75Y-1.93
X4.75Y-2.03
X4.75Y-2.13
X4.75Y-2.23
X4.75Y-2.33
X4.85Y-1.73
X4.85Y-1.83
X4.85Y-1.93
X4.85Y-2.03
X4.85Y-2.13
X4.85Y-2.23
X4.85Y-2.33
X4.85Y-2.43
X4.95Y-1.73
X4.95Y-1.83
X4.95Y-2.33
X4.95Y-2.43
X5.05Y-1.73
X5.05Y-1.83
X5.05Y-2.33
X5.05Y-2.43
X5.15Y-1.73
X5.15Y-1.83
X5.15Y-2.33
X5.15Y-2.43
X5.25Y-1.73
X5.25Y-1.83
X5.25Y-2.33
X5.25Y-2.43
X5.35Y-1.73
X5.35Y-1.83
X5.35Y-1.93
X5.35Y-2.03
X5.35Y-2.13
X5.35Y-2.23
X5.35Y-2.33
X5.35Y-2.43
X5.45Y-1.83
X5.45Y-1.93
X5.45Y-2.03
X5.45Y-2.13
X5.45Y-2.23
X5.45Y-2.33
X3.59Y-5.13
X3.59Y-5.23
X3.59Y-5.33
X3.59Y-5.43
X3.59Y-5.53
X3.59Y-5.63
X3.59Y-5.73
X3.89Y-5.13
X3.89Y-5.23
X3.89Y-5.33
X3.89Y-5.43
X3.89Y-5.53
X3.89Y-5.63
X3.89Y-5.73
X1.17Y-1.26
X1.27Y-1.26
X1.37Y-1.26
X1.47Y-1.26
X1.2931Y-5.0
X1.49Y-5.0
X1.78Y-5.34
X1.78Y-5.74
X1.8Y-6.57
X1.8Y-6.97
X3.6931Y-5.0
X3.89Y-5.0
X3.7931Y-1.6
X3.99Y-1.6
X3.12Y-4.55
X3.12Y-4.7469
X2.0931Y-6.1
X2.29Y-6.1
X4.7Y-1.3
X5.1Y-1.3
X0.91Y-6.12
X0.91Y-6.52
X1.68Y-6.57
X1.68Y-6.97
X2.8931Y-5.0
X3.09Y-5.0
X2.79Y-6.23
X2.79Y-6.33
X2.79Y-6.43
X2.79Y-6.53
X2.79Y-6.63
X2.79Y-6.73
X2.79Y-6.83
X2.79Y-6.93
X3.09Y-6.23
X3.09Y-6.33
X3.09Y-6.43
X3.09Y-6.53
X3.09Y-6.63
X3.09Y-6.73
X3.09Y-6.83
X3.09Y-6.93
X3.6931Y-6.1
X3.89Y-6.1
X4.4931Y-6.1
X4.69Y-6.1
X1.99Y-5.13
X1.99Y-5.23
X1.99Y-5.33
X1.99Y-5.43
X1.99Y-5.53
X1.99Y-5.63
X1.99Y-5.73
X1.99Y-5.83
X2.29Y-5.13
X2.29Y-5.23
X2.29Y-5.33
X2.29Y-5.43
X2.29Y-5.53
X2.29Y-5.63
X2.29Y-5.73
X2.29Y-5.83
T4
X4.86Y-4.31
X4.86Y-4.41
T5
X5.29Y-2.93
X5.29Y-3.03
X5.29Y-3.13
X5.29Y-3.23
X5.29Y-3.33
X5.29Y-3.43
X5.29Y-3.53
X5.29Y-3.63
X5.39Y-2.93
X5.39Y-3.03
X5.39Y-3.13
X5.39Y-3.23
X5.39Y-3.33
X5.39Y-3.43
X5.39Y-3.53
X5.39Y-3.63
X4.96Y-6.78
X4.96Y-6.88
X4.74Y-7.33
X4.84Y-7.33
X4.94Y-7.33
X5.04Y-7.33
T6
X5.21Y-6.27
X5.21Y-6.4472
X5.4659Y-6.27
X5.4659Y-6.4472
T7
X5.34Y-4.13
X5.34Y-4.2954
X5.34Y-4.4607
X5.34Y-4.6261
X5.34Y-4.7914
X5.34Y-4.9568
X5.34Y-5.1221
X5.34Y-5.2875
X5.34Y-5.4528
X5.34Y-5.6182
X5.34Y-5.7835
X5.34Y-5.9489
X5.5054Y-4.13
X5.5054Y-4.2954
X5.5054Y-4.4607
X5.5054Y-4.6261
X5.5054Y-4.7914
X5.5054Y-4.9568
X5.5054Y-5.1221
X5.5054Y-5.2875
X5.5054Y-5.4528
X5.5054Y-5.6182
X5.5054Y-5.7835
X5.5054Y-5.9489
T8
X4.938Y-0.952
X5.47Y-0.952
T9
X5.204Y-0.92
T10
X3.84Y-1.13
X3.84Y-7.23
T0
M30
