G04 #@! TF.GenerationSoftware,KiCad,Pcbnew,(5.1.8)-1*
G04 #@! TF.CreationDate,2022-11-03T13:19:36-06:00*
G04 #@! TF.ProjectId,V40 64K 640K ISA,56343020-3634-44b2-9036-34304b204953,rev?*
G04 #@! TF.SameCoordinates,Original*
G04 #@! TF.FileFunction,Legend,Top*
G04 #@! TF.FilePolarity,Positive*
%FSLAX46Y46*%
G04 Gerber Fmt 4.6, Leading zero omitted, Abs format (unit mm)*
G04 Created by KiCad (PCBNEW (5.1.8)-1) date 2022-11-03 13:19:36*
%MOMM*%
%LPD*%
G01*
G04 APERTURE LIST*
%ADD10C,0.150000*%
%ADD11C,0.120000*%
G04 APERTURE END LIST*
D10*
X106038475Y-116250980D02*
X106038475Y-115250980D01*
X106371808Y-115965266D01*
X106705141Y-115250980D01*
X106705141Y-116250980D01*
X107181332Y-115727171D02*
X107514665Y-115727171D01*
X107657522Y-116250980D02*
X107181332Y-116250980D01*
X107181332Y-115250980D01*
X107657522Y-115250980D01*
X108086094Y-116250980D02*
X108086094Y-115250980D01*
X108419427Y-115965266D01*
X108752760Y-115250980D01*
X108752760Y-116250980D01*
X109943237Y-115965266D02*
X110419427Y-115965266D01*
X109847999Y-116250980D02*
X110181332Y-115250980D01*
X110514665Y-116250980D01*
X110847999Y-116250980D02*
X110847999Y-115250980D01*
X111086094Y-115250980D01*
X111228951Y-115298600D01*
X111324189Y-115393838D01*
X111371808Y-115489076D01*
X111419427Y-115679552D01*
X111419427Y-115822409D01*
X111371808Y-116012885D01*
X111324189Y-116108123D01*
X111228951Y-116203361D01*
X111086094Y-116250980D01*
X110847999Y-116250980D01*
X111847999Y-116250980D02*
X111847999Y-115250980D01*
X112086094Y-115250980D01*
X112228951Y-115298600D01*
X112324189Y-115393838D01*
X112371808Y-115489076D01*
X112419427Y-115679552D01*
X112419427Y-115822409D01*
X112371808Y-116012885D01*
X112324189Y-116108123D01*
X112228951Y-116203361D01*
X112086094Y-116250980D01*
X111847999Y-116250980D01*
X113419427Y-116250980D02*
X113086094Y-115774790D01*
X112847999Y-116250980D02*
X112847999Y-115250980D01*
X113228951Y-115250980D01*
X113324189Y-115298600D01*
X113371808Y-115346219D01*
X113419427Y-115441457D01*
X113419427Y-115584314D01*
X113371808Y-115679552D01*
X113324189Y-115727171D01*
X113228951Y-115774790D01*
X112847999Y-115774790D01*
X113847999Y-115727171D02*
X114181332Y-115727171D01*
X114324189Y-116250980D02*
X113847999Y-116250980D01*
X113847999Y-115250980D01*
X114324189Y-115250980D01*
X114705141Y-116203361D02*
X114847999Y-116250980D01*
X115086094Y-116250980D01*
X115181332Y-116203361D01*
X115228951Y-116155742D01*
X115276570Y-116060504D01*
X115276570Y-115965266D01*
X115228951Y-115870028D01*
X115181332Y-115822409D01*
X115086094Y-115774790D01*
X114895618Y-115727171D01*
X114800380Y-115679552D01*
X114752760Y-115631933D01*
X114705141Y-115536695D01*
X114705141Y-115441457D01*
X114752760Y-115346219D01*
X114800380Y-115298600D01*
X114895618Y-115250980D01*
X115133713Y-115250980D01*
X115276570Y-115298600D01*
X115657522Y-116203361D02*
X115800380Y-116250980D01*
X116038475Y-116250980D01*
X116133713Y-116203361D01*
X116181332Y-116155742D01*
X116228951Y-116060504D01*
X116228951Y-115965266D01*
X116181332Y-115870028D01*
X116133713Y-115822409D01*
X116038475Y-115774790D01*
X115847999Y-115727171D01*
X115752760Y-115679552D01*
X115705141Y-115631933D01*
X115657522Y-115536695D01*
X115657522Y-115441457D01*
X115705141Y-115346219D01*
X115752760Y-115298600D01*
X115847999Y-115250980D01*
X116086094Y-115250980D01*
X116228951Y-115298600D01*
X117609903Y-115250980D02*
X117705141Y-115250980D01*
X117800380Y-115298600D01*
X117847999Y-115346219D01*
X117895618Y-115441457D01*
X117943237Y-115631933D01*
X117943237Y-115870028D01*
X117895618Y-116060504D01*
X117847999Y-116155742D01*
X117800380Y-116203361D01*
X117705141Y-116250980D01*
X117609903Y-116250980D01*
X117514665Y-116203361D01*
X117467046Y-116155742D01*
X117419427Y-116060504D01*
X117371808Y-115870028D01*
X117371808Y-115631933D01*
X117419427Y-115441457D01*
X117467046Y-115346219D01*
X117514665Y-115298600D01*
X117609903Y-115250980D01*
X118276570Y-115250980D02*
X118943237Y-116250980D01*
X118943237Y-115250980D02*
X118276570Y-116250980D01*
X119324189Y-115727171D02*
X119657522Y-115727171D01*
X119800380Y-116250980D02*
X119324189Y-116250980D01*
X119324189Y-115250980D01*
X119800380Y-115250980D01*
X120419427Y-115250980D02*
X120514665Y-115250980D01*
X120609903Y-115298600D01*
X120657522Y-115346219D01*
X120705141Y-115441457D01*
X120752760Y-115631933D01*
X120752760Y-115870028D01*
X120705141Y-116060504D01*
X120657522Y-116155742D01*
X120609903Y-116203361D01*
X120514665Y-116250980D01*
X120419427Y-116250980D01*
X120324189Y-116203361D01*
X120276570Y-116155742D01*
X120228951Y-116060504D01*
X120181332Y-115870028D01*
X120181332Y-115631933D01*
X120228951Y-115441457D01*
X120276570Y-115346219D01*
X120324189Y-115298600D01*
X120419427Y-115250980D01*
X121371808Y-115250980D02*
X121467046Y-115250980D01*
X121562284Y-115298600D01*
X121609903Y-115346219D01*
X121657522Y-115441457D01*
X121705141Y-115631933D01*
X121705141Y-115870028D01*
X121657522Y-116060504D01*
X121609903Y-116155742D01*
X121562284Y-116203361D01*
X121467046Y-116250980D01*
X121371808Y-116250980D01*
X121276570Y-116203361D01*
X121228951Y-116155742D01*
X121181332Y-116060504D01*
X121133713Y-115870028D01*
X121133713Y-115631933D01*
X121181332Y-115441457D01*
X121228951Y-115346219D01*
X121276570Y-115298600D01*
X121371808Y-115250980D01*
X122324189Y-115250980D02*
X122419427Y-115250980D01*
X122514665Y-115298600D01*
X122562284Y-115346219D01*
X122609903Y-115441457D01*
X122657522Y-115631933D01*
X122657522Y-115870028D01*
X122609903Y-116060504D01*
X122562284Y-116155742D01*
X122514665Y-116203361D01*
X122419427Y-116250980D01*
X122324189Y-116250980D01*
X122228951Y-116203361D01*
X122181332Y-116155742D01*
X122133713Y-116060504D01*
X122086094Y-115870028D01*
X122086094Y-115631933D01*
X122133713Y-115441457D01*
X122181332Y-115346219D01*
X122228951Y-115298600D01*
X122324189Y-115250980D01*
X123276570Y-115250980D02*
X123371808Y-115250980D01*
X123467046Y-115298600D01*
X123514665Y-115346219D01*
X123562284Y-115441457D01*
X123609903Y-115631933D01*
X123609903Y-115870028D01*
X123562284Y-116060504D01*
X123514665Y-116155742D01*
X123467046Y-116203361D01*
X123371808Y-116250980D01*
X123276570Y-116250980D01*
X123181332Y-116203361D01*
X123133713Y-116155742D01*
X123086094Y-116060504D01*
X123038475Y-115870028D01*
X123038475Y-115631933D01*
X123086094Y-115441457D01*
X123133713Y-115346219D01*
X123181332Y-115298600D01*
X123276570Y-115250980D01*
X126334665Y-116504980D02*
X126334665Y-115504980D01*
X126667999Y-116219266D01*
X127001332Y-115504980D01*
X127001332Y-116504980D01*
X127477522Y-115981171D02*
X127810856Y-115981171D01*
X127953713Y-116504980D02*
X127477522Y-116504980D01*
X127477522Y-115504980D01*
X127953713Y-115504980D01*
X128382284Y-116504980D02*
X128382284Y-115504980D01*
X128715618Y-116219266D01*
X129048951Y-115504980D01*
X129048951Y-116504980D01*
X130239427Y-116219266D02*
X130715618Y-116219266D01*
X130144189Y-116504980D02*
X130477522Y-115504980D01*
X130810856Y-116504980D01*
X131144189Y-116504980D02*
X131144189Y-115504980D01*
X131382284Y-115504980D01*
X131525141Y-115552600D01*
X131620380Y-115647838D01*
X131667999Y-115743076D01*
X131715618Y-115933552D01*
X131715618Y-116076409D01*
X131667999Y-116266885D01*
X131620380Y-116362123D01*
X131525141Y-116457361D01*
X131382284Y-116504980D01*
X131144189Y-116504980D01*
X132144189Y-116504980D02*
X132144189Y-115504980D01*
X132382284Y-115504980D01*
X132525141Y-115552600D01*
X132620380Y-115647838D01*
X132667999Y-115743076D01*
X132715618Y-115933552D01*
X132715618Y-116076409D01*
X132667999Y-116266885D01*
X132620380Y-116362123D01*
X132525141Y-116457361D01*
X132382284Y-116504980D01*
X132144189Y-116504980D01*
X133715618Y-116504980D02*
X133382284Y-116028790D01*
X133144189Y-116504980D02*
X133144189Y-115504980D01*
X133525141Y-115504980D01*
X133620380Y-115552600D01*
X133667999Y-115600219D01*
X133715618Y-115695457D01*
X133715618Y-115838314D01*
X133667999Y-115933552D01*
X133620380Y-115981171D01*
X133525141Y-116028790D01*
X133144189Y-116028790D01*
X134144189Y-115981171D02*
X134477522Y-115981171D01*
X134620380Y-116504980D02*
X134144189Y-116504980D01*
X134144189Y-115504980D01*
X134620380Y-115504980D01*
X135001332Y-116457361D02*
X135144189Y-116504980D01*
X135382284Y-116504980D01*
X135477522Y-116457361D01*
X135525141Y-116409742D01*
X135572760Y-116314504D01*
X135572760Y-116219266D01*
X135525141Y-116124028D01*
X135477522Y-116076409D01*
X135382284Y-116028790D01*
X135191808Y-115981171D01*
X135096570Y-115933552D01*
X135048951Y-115885933D01*
X135001332Y-115790695D01*
X135001332Y-115695457D01*
X135048951Y-115600219D01*
X135096570Y-115552600D01*
X135191808Y-115504980D01*
X135429903Y-115504980D01*
X135572760Y-115552600D01*
X135953713Y-116457361D02*
X136096570Y-116504980D01*
X136334665Y-116504980D01*
X136429903Y-116457361D01*
X136477522Y-116409742D01*
X136525141Y-116314504D01*
X136525141Y-116219266D01*
X136477522Y-116124028D01*
X136429903Y-116076409D01*
X136334665Y-116028790D01*
X136144189Y-115981171D01*
X136048951Y-115933552D01*
X136001332Y-115885933D01*
X135953713Y-115790695D01*
X135953713Y-115695457D01*
X136001332Y-115600219D01*
X136048951Y-115552600D01*
X136144189Y-115504980D01*
X136382284Y-115504980D01*
X136525141Y-115552600D01*
X137906094Y-115504980D02*
X138001332Y-115504980D01*
X138096570Y-115552600D01*
X138144189Y-115600219D01*
X138191808Y-115695457D01*
X138239427Y-115885933D01*
X138239427Y-116124028D01*
X138191808Y-116314504D01*
X138144189Y-116409742D01*
X138096570Y-116457361D01*
X138001332Y-116504980D01*
X137906094Y-116504980D01*
X137810856Y-116457361D01*
X137763237Y-116409742D01*
X137715618Y-116314504D01*
X137667999Y-116124028D01*
X137667999Y-115885933D01*
X137715618Y-115695457D01*
X137763237Y-115600219D01*
X137810856Y-115552600D01*
X137906094Y-115504980D01*
X138572760Y-115504980D02*
X139239427Y-116504980D01*
X139239427Y-115504980D02*
X138572760Y-116504980D01*
X139763237Y-115933552D02*
X139667999Y-115885933D01*
X139620380Y-115838314D01*
X139572760Y-115743076D01*
X139572760Y-115695457D01*
X139620380Y-115600219D01*
X139667999Y-115552600D01*
X139763237Y-115504980D01*
X139953713Y-115504980D01*
X140048951Y-115552600D01*
X140096570Y-115600219D01*
X140144189Y-115695457D01*
X140144189Y-115743076D01*
X140096570Y-115838314D01*
X140048951Y-115885933D01*
X139953713Y-115933552D01*
X139763237Y-115933552D01*
X139667999Y-115981171D01*
X139620380Y-116028790D01*
X139572760Y-116124028D01*
X139572760Y-116314504D01*
X139620380Y-116409742D01*
X139667999Y-116457361D01*
X139763237Y-116504980D01*
X139953713Y-116504980D01*
X140048951Y-116457361D01*
X140096570Y-116409742D01*
X140144189Y-116314504D01*
X140144189Y-116124028D01*
X140096570Y-116028790D01*
X140048951Y-115981171D01*
X139953713Y-115933552D01*
X140763237Y-115504980D02*
X140858475Y-115504980D01*
X140953713Y-115552600D01*
X141001332Y-115600219D01*
X141048951Y-115695457D01*
X141096570Y-115885933D01*
X141096570Y-116124028D01*
X141048951Y-116314504D01*
X141001332Y-116409742D01*
X140953713Y-116457361D01*
X140858475Y-116504980D01*
X140763237Y-116504980D01*
X140667999Y-116457361D01*
X140620380Y-116409742D01*
X140572760Y-116314504D01*
X140525141Y-116124028D01*
X140525141Y-115885933D01*
X140572760Y-115695457D01*
X140620380Y-115600219D01*
X140667999Y-115552600D01*
X140763237Y-115504980D01*
X141715618Y-115504980D02*
X141810856Y-115504980D01*
X141906094Y-115552600D01*
X141953713Y-115600219D01*
X142001332Y-115695457D01*
X142048951Y-115885933D01*
X142048951Y-116124028D01*
X142001332Y-116314504D01*
X141953713Y-116409742D01*
X141906094Y-116457361D01*
X141810856Y-116504980D01*
X141715618Y-116504980D01*
X141620380Y-116457361D01*
X141572760Y-116409742D01*
X141525141Y-116314504D01*
X141477522Y-116124028D01*
X141477522Y-115885933D01*
X141525141Y-115695457D01*
X141572760Y-115600219D01*
X141620380Y-115552600D01*
X141715618Y-115504980D01*
X142667999Y-115504980D02*
X142763237Y-115504980D01*
X142858475Y-115552600D01*
X142906094Y-115600219D01*
X142953713Y-115695457D01*
X143001332Y-115885933D01*
X143001332Y-116124028D01*
X142953713Y-116314504D01*
X142906094Y-116409742D01*
X142858475Y-116457361D01*
X142763237Y-116504980D01*
X142667999Y-116504980D01*
X142572760Y-116457361D01*
X142525141Y-116409742D01*
X142477522Y-116314504D01*
X142429903Y-116124028D01*
X142429903Y-115885933D01*
X142477522Y-115695457D01*
X142525141Y-115600219D01*
X142572760Y-115552600D01*
X142667999Y-115504980D01*
X143620380Y-115504980D02*
X143715618Y-115504980D01*
X143810856Y-115552600D01*
X143858475Y-115600219D01*
X143906094Y-115695457D01*
X143953713Y-115885933D01*
X143953713Y-116124028D01*
X143906094Y-116314504D01*
X143858475Y-116409742D01*
X143810856Y-116457361D01*
X143715618Y-116504980D01*
X143620380Y-116504980D01*
X143525141Y-116457361D01*
X143477522Y-116409742D01*
X143429903Y-116314504D01*
X143382284Y-116124028D01*
X143382284Y-115885933D01*
X143429903Y-115695457D01*
X143477522Y-115600219D01*
X143525141Y-115552600D01*
X143620380Y-115504980D01*
X146654665Y-116504980D02*
X146654665Y-115504980D01*
X146987999Y-116219266D01*
X147321332Y-115504980D01*
X147321332Y-116504980D01*
X147797522Y-115981171D02*
X148130856Y-115981171D01*
X148273713Y-116504980D02*
X147797522Y-116504980D01*
X147797522Y-115504980D01*
X148273713Y-115504980D01*
X148702284Y-116504980D02*
X148702284Y-115504980D01*
X149035618Y-116219266D01*
X149368951Y-115504980D01*
X149368951Y-116504980D01*
X150559427Y-116219266D02*
X151035618Y-116219266D01*
X150464189Y-116504980D02*
X150797522Y-115504980D01*
X151130856Y-116504980D01*
X151464189Y-116504980D02*
X151464189Y-115504980D01*
X151702284Y-115504980D01*
X151845141Y-115552600D01*
X151940380Y-115647838D01*
X151987999Y-115743076D01*
X152035618Y-115933552D01*
X152035618Y-116076409D01*
X151987999Y-116266885D01*
X151940380Y-116362123D01*
X151845141Y-116457361D01*
X151702284Y-116504980D01*
X151464189Y-116504980D01*
X152464189Y-116504980D02*
X152464189Y-115504980D01*
X152702284Y-115504980D01*
X152845141Y-115552600D01*
X152940380Y-115647838D01*
X152987999Y-115743076D01*
X153035618Y-115933552D01*
X153035618Y-116076409D01*
X152987999Y-116266885D01*
X152940380Y-116362123D01*
X152845141Y-116457361D01*
X152702284Y-116504980D01*
X152464189Y-116504980D01*
X154035618Y-116504980D02*
X153702284Y-116028790D01*
X153464189Y-116504980D02*
X153464189Y-115504980D01*
X153845141Y-115504980D01*
X153940380Y-115552600D01*
X153987999Y-115600219D01*
X154035618Y-115695457D01*
X154035618Y-115838314D01*
X153987999Y-115933552D01*
X153940380Y-115981171D01*
X153845141Y-116028790D01*
X153464189Y-116028790D01*
X154464189Y-115981171D02*
X154797522Y-115981171D01*
X154940380Y-116504980D02*
X154464189Y-116504980D01*
X154464189Y-115504980D01*
X154940380Y-115504980D01*
X155321332Y-116457361D02*
X155464189Y-116504980D01*
X155702284Y-116504980D01*
X155797522Y-116457361D01*
X155845141Y-116409742D01*
X155892760Y-116314504D01*
X155892760Y-116219266D01*
X155845141Y-116124028D01*
X155797522Y-116076409D01*
X155702284Y-116028790D01*
X155511808Y-115981171D01*
X155416570Y-115933552D01*
X155368951Y-115885933D01*
X155321332Y-115790695D01*
X155321332Y-115695457D01*
X155368951Y-115600219D01*
X155416570Y-115552600D01*
X155511808Y-115504980D01*
X155749903Y-115504980D01*
X155892760Y-115552600D01*
X156273713Y-116457361D02*
X156416570Y-116504980D01*
X156654665Y-116504980D01*
X156749903Y-116457361D01*
X156797522Y-116409742D01*
X156845141Y-116314504D01*
X156845141Y-116219266D01*
X156797522Y-116124028D01*
X156749903Y-116076409D01*
X156654665Y-116028790D01*
X156464189Y-115981171D01*
X156368951Y-115933552D01*
X156321332Y-115885933D01*
X156273713Y-115790695D01*
X156273713Y-115695457D01*
X156321332Y-115600219D01*
X156368951Y-115552600D01*
X156464189Y-115504980D01*
X156702284Y-115504980D01*
X156845141Y-115552600D01*
X158226094Y-115504980D02*
X158321332Y-115504980D01*
X158416570Y-115552600D01*
X158464189Y-115600219D01*
X158511808Y-115695457D01*
X158559427Y-115885933D01*
X158559427Y-116124028D01*
X158511808Y-116314504D01*
X158464189Y-116409742D01*
X158416570Y-116457361D01*
X158321332Y-116504980D01*
X158226094Y-116504980D01*
X158130856Y-116457361D01*
X158083237Y-116409742D01*
X158035618Y-116314504D01*
X157987999Y-116124028D01*
X157987999Y-115885933D01*
X158035618Y-115695457D01*
X158083237Y-115600219D01*
X158130856Y-115552600D01*
X158226094Y-115504980D01*
X158892760Y-115504980D02*
X159559427Y-116504980D01*
X159559427Y-115504980D02*
X158892760Y-116504980D01*
X160130856Y-115504980D02*
X160226094Y-115504980D01*
X160321332Y-115552600D01*
X160368951Y-115600219D01*
X160416570Y-115695457D01*
X160464189Y-115885933D01*
X160464189Y-116124028D01*
X160416570Y-116314504D01*
X160368951Y-116409742D01*
X160321332Y-116457361D01*
X160226094Y-116504980D01*
X160130856Y-116504980D01*
X160035618Y-116457361D01*
X159987999Y-116409742D01*
X159940380Y-116314504D01*
X159892760Y-116124028D01*
X159892760Y-115885933D01*
X159940380Y-115695457D01*
X159987999Y-115600219D01*
X160035618Y-115552600D01*
X160130856Y-115504980D01*
X161083237Y-115504980D02*
X161178475Y-115504980D01*
X161273713Y-115552600D01*
X161321332Y-115600219D01*
X161368951Y-115695457D01*
X161416570Y-115885933D01*
X161416570Y-116124028D01*
X161368951Y-116314504D01*
X161321332Y-116409742D01*
X161273713Y-116457361D01*
X161178475Y-116504980D01*
X161083237Y-116504980D01*
X160987999Y-116457361D01*
X160940380Y-116409742D01*
X160892760Y-116314504D01*
X160845141Y-116124028D01*
X160845141Y-115885933D01*
X160892760Y-115695457D01*
X160940380Y-115600219D01*
X160987999Y-115552600D01*
X161083237Y-115504980D01*
X162035618Y-115504980D02*
X162130856Y-115504980D01*
X162226094Y-115552600D01*
X162273713Y-115600219D01*
X162321332Y-115695457D01*
X162368951Y-115885933D01*
X162368951Y-116124028D01*
X162321332Y-116314504D01*
X162273713Y-116409742D01*
X162226094Y-116457361D01*
X162130856Y-116504980D01*
X162035618Y-116504980D01*
X161940380Y-116457361D01*
X161892760Y-116409742D01*
X161845141Y-116314504D01*
X161797522Y-116124028D01*
X161797522Y-115885933D01*
X161845141Y-115695457D01*
X161892760Y-115600219D01*
X161940380Y-115552600D01*
X162035618Y-115504980D01*
X162987999Y-115504980D02*
X163083237Y-115504980D01*
X163178475Y-115552600D01*
X163226094Y-115600219D01*
X163273713Y-115695457D01*
X163321332Y-115885933D01*
X163321332Y-116124028D01*
X163273713Y-116314504D01*
X163226094Y-116409742D01*
X163178475Y-116457361D01*
X163083237Y-116504980D01*
X162987999Y-116504980D01*
X162892760Y-116457361D01*
X162845141Y-116409742D01*
X162797522Y-116314504D01*
X162749903Y-116124028D01*
X162749903Y-115885933D01*
X162797522Y-115695457D01*
X162845141Y-115600219D01*
X162892760Y-115552600D01*
X162987999Y-115504980D01*
X163940380Y-115504980D02*
X164035618Y-115504980D01*
X164130856Y-115552600D01*
X164178475Y-115600219D01*
X164226094Y-115695457D01*
X164273713Y-115885933D01*
X164273713Y-116124028D01*
X164226094Y-116314504D01*
X164178475Y-116409742D01*
X164130856Y-116457361D01*
X164035618Y-116504980D01*
X163940380Y-116504980D01*
X163845141Y-116457361D01*
X163797522Y-116409742D01*
X163749903Y-116314504D01*
X163702284Y-116124028D01*
X163702284Y-115885933D01*
X163749903Y-115695457D01*
X163797522Y-115600219D01*
X163845141Y-115552600D01*
X163940380Y-115504980D01*
X85996284Y-121838980D02*
X85996284Y-120838980D01*
X86329618Y-121553266D01*
X86662951Y-120838980D01*
X86662951Y-121838980D01*
X87139141Y-121315171D02*
X87472475Y-121315171D01*
X87615332Y-121838980D02*
X87139141Y-121838980D01*
X87139141Y-120838980D01*
X87615332Y-120838980D01*
X88043903Y-121838980D02*
X88043903Y-120838980D01*
X88377237Y-121553266D01*
X88710570Y-120838980D01*
X88710570Y-121838980D01*
X89901046Y-121553266D02*
X90377237Y-121553266D01*
X89805808Y-121838980D02*
X90139141Y-120838980D01*
X90472475Y-121838980D01*
X90805808Y-121838980D02*
X90805808Y-120838980D01*
X91043903Y-120838980D01*
X91186760Y-120886600D01*
X91281999Y-120981838D01*
X91329618Y-121077076D01*
X91377237Y-121267552D01*
X91377237Y-121410409D01*
X91329618Y-121600885D01*
X91281999Y-121696123D01*
X91186760Y-121791361D01*
X91043903Y-121838980D01*
X90805808Y-121838980D01*
X91805808Y-121838980D02*
X91805808Y-120838980D01*
X92043903Y-120838980D01*
X92186760Y-120886600D01*
X92281999Y-120981838D01*
X92329618Y-121077076D01*
X92377237Y-121267552D01*
X92377237Y-121410409D01*
X92329618Y-121600885D01*
X92281999Y-121696123D01*
X92186760Y-121791361D01*
X92043903Y-121838980D01*
X91805808Y-121838980D01*
X93377237Y-121838980D02*
X93043903Y-121362790D01*
X92805808Y-121838980D02*
X92805808Y-120838980D01*
X93186760Y-120838980D01*
X93281999Y-120886600D01*
X93329618Y-120934219D01*
X93377237Y-121029457D01*
X93377237Y-121172314D01*
X93329618Y-121267552D01*
X93281999Y-121315171D01*
X93186760Y-121362790D01*
X92805808Y-121362790D01*
X93805808Y-121315171D02*
X94139141Y-121315171D01*
X94281999Y-121838980D02*
X93805808Y-121838980D01*
X93805808Y-120838980D01*
X94281999Y-120838980D01*
X94662951Y-121791361D02*
X94805808Y-121838980D01*
X95043903Y-121838980D01*
X95139141Y-121791361D01*
X95186760Y-121743742D01*
X95234380Y-121648504D01*
X95234380Y-121553266D01*
X95186760Y-121458028D01*
X95139141Y-121410409D01*
X95043903Y-121362790D01*
X94853427Y-121315171D01*
X94758189Y-121267552D01*
X94710570Y-121219933D01*
X94662951Y-121124695D01*
X94662951Y-121029457D01*
X94710570Y-120934219D01*
X94758189Y-120886600D01*
X94853427Y-120838980D01*
X95091522Y-120838980D01*
X95234380Y-120886600D01*
X95615332Y-121791361D02*
X95758189Y-121838980D01*
X95996284Y-121838980D01*
X96091522Y-121791361D01*
X96139141Y-121743742D01*
X96186760Y-121648504D01*
X96186760Y-121553266D01*
X96139141Y-121458028D01*
X96091522Y-121410409D01*
X95996284Y-121362790D01*
X95805808Y-121315171D01*
X95710570Y-121267552D01*
X95662951Y-121219933D01*
X95615332Y-121124695D01*
X95615332Y-121029457D01*
X95662951Y-120934219D01*
X95710570Y-120886600D01*
X95805808Y-120838980D01*
X96043903Y-120838980D01*
X96186760Y-120886600D01*
X97567713Y-120838980D02*
X97662951Y-120838980D01*
X97758189Y-120886600D01*
X97805808Y-120934219D01*
X97853427Y-121029457D01*
X97901046Y-121219933D01*
X97901046Y-121458028D01*
X97853427Y-121648504D01*
X97805808Y-121743742D01*
X97758189Y-121791361D01*
X97662951Y-121838980D01*
X97567713Y-121838980D01*
X97472475Y-121791361D01*
X97424856Y-121743742D01*
X97377237Y-121648504D01*
X97329618Y-121458028D01*
X97329618Y-121219933D01*
X97377237Y-121029457D01*
X97424856Y-120934219D01*
X97472475Y-120886600D01*
X97567713Y-120838980D01*
X98234380Y-120838980D02*
X98901046Y-121838980D01*
X98901046Y-120838980D02*
X98234380Y-121838980D01*
X99615332Y-121315171D02*
X99281999Y-121315171D01*
X99281999Y-121838980D02*
X99281999Y-120838980D01*
X99758189Y-120838980D01*
X100329618Y-120838980D02*
X100424856Y-120838980D01*
X100520094Y-120886600D01*
X100567713Y-120934219D01*
X100615332Y-121029457D01*
X100662951Y-121219933D01*
X100662951Y-121458028D01*
X100615332Y-121648504D01*
X100567713Y-121743742D01*
X100520094Y-121791361D01*
X100424856Y-121838980D01*
X100329618Y-121838980D01*
X100234380Y-121791361D01*
X100186760Y-121743742D01*
X100139141Y-121648504D01*
X100091522Y-121458028D01*
X100091522Y-121219933D01*
X100139141Y-121029457D01*
X100186760Y-120934219D01*
X100234380Y-120886600D01*
X100329618Y-120838980D01*
X101281999Y-120838980D02*
X101377237Y-120838980D01*
X101472475Y-120886600D01*
X101520094Y-120934219D01*
X101567713Y-121029457D01*
X101615332Y-121219933D01*
X101615332Y-121458028D01*
X101567713Y-121648504D01*
X101520094Y-121743742D01*
X101472475Y-121791361D01*
X101377237Y-121838980D01*
X101281999Y-121838980D01*
X101186760Y-121791361D01*
X101139141Y-121743742D01*
X101091522Y-121648504D01*
X101043903Y-121458028D01*
X101043903Y-121219933D01*
X101091522Y-121029457D01*
X101139141Y-120934219D01*
X101186760Y-120886600D01*
X101281999Y-120838980D01*
X102234380Y-120838980D02*
X102329618Y-120838980D01*
X102424856Y-120886600D01*
X102472475Y-120934219D01*
X102520094Y-121029457D01*
X102567713Y-121219933D01*
X102567713Y-121458028D01*
X102520094Y-121648504D01*
X102472475Y-121743742D01*
X102424856Y-121791361D01*
X102329618Y-121838980D01*
X102234380Y-121838980D01*
X102139141Y-121791361D01*
X102091522Y-121743742D01*
X102043903Y-121648504D01*
X101996284Y-121458028D01*
X101996284Y-121219933D01*
X102043903Y-121029457D01*
X102091522Y-120934219D01*
X102139141Y-120886600D01*
X102234380Y-120838980D01*
X103186760Y-120838980D02*
X103281999Y-120838980D01*
X103377237Y-120886600D01*
X103424856Y-120934219D01*
X103472475Y-121029457D01*
X103520094Y-121219933D01*
X103520094Y-121458028D01*
X103472475Y-121648504D01*
X103424856Y-121743742D01*
X103377237Y-121791361D01*
X103281999Y-121838980D01*
X103186760Y-121838980D01*
X103091522Y-121791361D01*
X103043903Y-121743742D01*
X102996284Y-121648504D01*
X102948665Y-121458028D01*
X102948665Y-121219933D01*
X102996284Y-121029457D01*
X103043903Y-120934219D01*
X103091522Y-120886600D01*
X103186760Y-120838980D01*
X22933975Y-61182171D02*
X23267308Y-61182171D01*
X23410165Y-61705980D02*
X22933975Y-61705980D01*
X22933975Y-60705980D01*
X23410165Y-60705980D01*
X23838737Y-61705980D02*
X23838737Y-60705980D01*
X24172070Y-61420266D01*
X24505403Y-60705980D01*
X24505403Y-61705980D01*
X24981594Y-61705980D02*
X24981594Y-60705980D01*
X25314927Y-61420266D01*
X25648260Y-60705980D01*
X25648260Y-61705980D01*
X27457784Y-61610742D02*
X27410165Y-61658361D01*
X27267308Y-61705980D01*
X27172070Y-61705980D01*
X27029213Y-61658361D01*
X26933975Y-61563123D01*
X26886356Y-61467885D01*
X26838737Y-61277409D01*
X26838737Y-61134552D01*
X26886356Y-60944076D01*
X26933975Y-60848838D01*
X27029213Y-60753600D01*
X27172070Y-60705980D01*
X27267308Y-60705980D01*
X27410165Y-60753600D01*
X27457784Y-60801219D01*
X28076832Y-60705980D02*
X28267308Y-60705980D01*
X28362546Y-60753600D01*
X28457784Y-60848838D01*
X28505403Y-61039314D01*
X28505403Y-61372647D01*
X28457784Y-61563123D01*
X28362546Y-61658361D01*
X28267308Y-61705980D01*
X28076832Y-61705980D01*
X27981594Y-61658361D01*
X27886356Y-61563123D01*
X27838737Y-61372647D01*
X27838737Y-61039314D01*
X27886356Y-60848838D01*
X27981594Y-60753600D01*
X28076832Y-60705980D01*
X28933975Y-61705980D02*
X28933975Y-60705980D01*
X29267308Y-61420266D01*
X29600641Y-60705980D01*
X29600641Y-61705980D01*
X30076832Y-61705980D02*
X30076832Y-60705980D01*
X30457784Y-60705980D01*
X30553022Y-60753600D01*
X30600641Y-60801219D01*
X30648260Y-60896457D01*
X30648260Y-61039314D01*
X30600641Y-61134552D01*
X30553022Y-61182171D01*
X30457784Y-61229790D01*
X30076832Y-61229790D01*
X31076832Y-60705980D02*
X31076832Y-61515504D01*
X31124451Y-61610742D01*
X31172070Y-61658361D01*
X31267308Y-61705980D01*
X31457784Y-61705980D01*
X31553022Y-61658361D01*
X31600641Y-61610742D01*
X31648260Y-61515504D01*
X31648260Y-60705980D01*
X31981594Y-60705980D02*
X32553022Y-60705980D01*
X32267308Y-61705980D02*
X32267308Y-60705980D01*
X32886356Y-61182171D02*
X33219689Y-61182171D01*
X33362546Y-61705980D02*
X32886356Y-61705980D01*
X32886356Y-60705980D01*
X33362546Y-60705980D01*
X34362546Y-61705980D02*
X34029213Y-61229790D01*
X33791118Y-61705980D02*
X33791118Y-60705980D01*
X34172070Y-60705980D01*
X34267308Y-60753600D01*
X34314927Y-60801219D01*
X34362546Y-60896457D01*
X34362546Y-61039314D01*
X34314927Y-61134552D01*
X34267308Y-61182171D01*
X34172070Y-61229790D01*
X33791118Y-61229790D01*
X34743499Y-61658361D02*
X34886356Y-61705980D01*
X35124451Y-61705980D01*
X35219689Y-61658361D01*
X35267308Y-61610742D01*
X35314927Y-61515504D01*
X35314927Y-61420266D01*
X35267308Y-61325028D01*
X35219689Y-61277409D01*
X35124451Y-61229790D01*
X34933975Y-61182171D01*
X34838737Y-61134552D01*
X34791118Y-61086933D01*
X34743499Y-60991695D01*
X34743499Y-60896457D01*
X34791118Y-60801219D01*
X34838737Y-60753600D01*
X34933975Y-60705980D01*
X35172070Y-60705980D01*
X35314927Y-60753600D01*
X22791118Y-62355980D02*
X23124451Y-63355980D01*
X23457784Y-62355980D01*
X24219689Y-62689314D02*
X24219689Y-63355980D01*
X23981594Y-62308361D02*
X23743499Y-63022647D01*
X24362546Y-63022647D01*
X24933975Y-62355980D02*
X25029213Y-62355980D01*
X25124451Y-62403600D01*
X25172070Y-62451219D01*
X25219689Y-62546457D01*
X25267308Y-62736933D01*
X25267308Y-62975028D01*
X25219689Y-63165504D01*
X25172070Y-63260742D01*
X25124451Y-63308361D01*
X25029213Y-63355980D01*
X24933975Y-63355980D01*
X24838737Y-63308361D01*
X24791118Y-63260742D01*
X24743499Y-63165504D01*
X24695880Y-62975028D01*
X24695880Y-62736933D01*
X24743499Y-62546457D01*
X24791118Y-62451219D01*
X24838737Y-62403600D01*
X24933975Y-62355980D01*
X25743499Y-63308361D02*
X25743499Y-63355980D01*
X25695880Y-63451219D01*
X25648260Y-63498838D01*
X27362546Y-62355980D02*
X27172070Y-62355980D01*
X27076832Y-62403600D01*
X27029213Y-62451219D01*
X26933975Y-62594076D01*
X26886356Y-62784552D01*
X26886356Y-63165504D01*
X26933975Y-63260742D01*
X26981594Y-63308361D01*
X27076832Y-63355980D01*
X27267308Y-63355980D01*
X27362546Y-63308361D01*
X27410165Y-63260742D01*
X27457784Y-63165504D01*
X27457784Y-62927409D01*
X27410165Y-62832171D01*
X27362546Y-62784552D01*
X27267308Y-62736933D01*
X27076832Y-62736933D01*
X26981594Y-62784552D01*
X26933975Y-62832171D01*
X26886356Y-62927409D01*
X28314927Y-62689314D02*
X28314927Y-63355980D01*
X28076832Y-62308361D02*
X27838737Y-63022647D01*
X28457784Y-63022647D01*
X29029213Y-62355980D02*
X29124451Y-62355980D01*
X29219689Y-62403600D01*
X29267308Y-62451219D01*
X29314927Y-62546457D01*
X29362546Y-62736933D01*
X29362546Y-62975028D01*
X29314927Y-63165504D01*
X29267308Y-63260742D01*
X29219689Y-63308361D01*
X29124451Y-63355980D01*
X29029213Y-63355980D01*
X28933975Y-63308361D01*
X28886356Y-63260742D01*
X28838737Y-63165504D01*
X28791118Y-62975028D01*
X28791118Y-62736933D01*
X28838737Y-62546457D01*
X28886356Y-62451219D01*
X28933975Y-62403600D01*
X29029213Y-62355980D01*
X29791118Y-63355980D02*
X29791118Y-62355980D01*
X30362546Y-63355980D02*
X29933975Y-62784552D01*
X30362546Y-62355980D02*
X29791118Y-62927409D01*
X32124451Y-63355980D02*
X31791118Y-62879790D01*
X31553022Y-63355980D02*
X31553022Y-62355980D01*
X31933975Y-62355980D01*
X32029213Y-62403600D01*
X32076832Y-62451219D01*
X32124451Y-62546457D01*
X32124451Y-62689314D01*
X32076832Y-62784552D01*
X32029213Y-62832171D01*
X31933975Y-62879790D01*
X31553022Y-62879790D01*
X32505403Y-63070266D02*
X32981594Y-63070266D01*
X32410165Y-63355980D02*
X32743499Y-62355980D01*
X33076832Y-63355980D01*
X33410165Y-63355980D02*
X33410165Y-62355980D01*
X33743499Y-63070266D01*
X34076832Y-62355980D01*
X34076832Y-63355980D01*
X34600641Y-63308361D02*
X34600641Y-63355980D01*
X34553022Y-63451219D01*
X34505403Y-63498838D01*
X36219689Y-62355980D02*
X36029213Y-62355980D01*
X35933975Y-62403600D01*
X35886356Y-62451219D01*
X35791118Y-62594076D01*
X35743499Y-62784552D01*
X35743499Y-63165504D01*
X35791118Y-63260742D01*
X35838737Y-63308361D01*
X35933975Y-63355980D01*
X36124451Y-63355980D01*
X36219689Y-63308361D01*
X36267308Y-63260742D01*
X36314927Y-63165504D01*
X36314927Y-62927409D01*
X36267308Y-62832171D01*
X36219689Y-62784552D01*
X36124451Y-62736933D01*
X35933975Y-62736933D01*
X35838737Y-62784552D01*
X35791118Y-62832171D01*
X35743499Y-62927409D01*
X37172070Y-62689314D02*
X37172070Y-63355980D01*
X36933975Y-62308361D02*
X36695880Y-63022647D01*
X37314927Y-63022647D01*
X37695880Y-63355980D02*
X37695880Y-62355980D01*
X38267308Y-63355980D02*
X37838737Y-62784552D01*
X38267308Y-62355980D02*
X37695880Y-62927409D01*
X40029213Y-63355980D02*
X39695880Y-62879790D01*
X39457784Y-63355980D02*
X39457784Y-62355980D01*
X39838737Y-62355980D01*
X39933975Y-62403600D01*
X39981594Y-62451219D01*
X40029213Y-62546457D01*
X40029213Y-62689314D01*
X39981594Y-62784552D01*
X39933975Y-62832171D01*
X39838737Y-62879790D01*
X39457784Y-62879790D01*
X40648260Y-62355980D02*
X40838737Y-62355980D01*
X40933975Y-62403600D01*
X41029213Y-62498838D01*
X41076832Y-62689314D01*
X41076832Y-63022647D01*
X41029213Y-63213123D01*
X40933975Y-63308361D01*
X40838737Y-63355980D01*
X40648260Y-63355980D01*
X40553022Y-63308361D01*
X40457784Y-63213123D01*
X40410165Y-63022647D01*
X40410165Y-62689314D01*
X40457784Y-62498838D01*
X40553022Y-62403600D01*
X40648260Y-62355980D01*
X41505403Y-63355980D02*
X41505403Y-62355980D01*
X41838737Y-63070266D01*
X42172070Y-62355980D01*
X42172070Y-63355980D01*
X23505403Y-64910742D02*
X23457784Y-64958361D01*
X23314927Y-65005980D01*
X23219689Y-65005980D01*
X23076832Y-64958361D01*
X22981594Y-64863123D01*
X22933975Y-64767885D01*
X22886356Y-64577409D01*
X22886356Y-64434552D01*
X22933975Y-64244076D01*
X22981594Y-64148838D01*
X23076832Y-64053600D01*
X23219689Y-64005980D01*
X23314927Y-64005980D01*
X23457784Y-64053600D01*
X23505403Y-64101219D01*
X24076832Y-65005980D02*
X23981594Y-64958361D01*
X23933975Y-64910742D01*
X23886356Y-64815504D01*
X23886356Y-64529790D01*
X23933975Y-64434552D01*
X23981594Y-64386933D01*
X24076832Y-64339314D01*
X24219689Y-64339314D01*
X24314927Y-64386933D01*
X24362546Y-64434552D01*
X24410165Y-64529790D01*
X24410165Y-64815504D01*
X24362546Y-64910742D01*
X24314927Y-64958361D01*
X24219689Y-65005980D01*
X24076832Y-65005980D01*
X24838737Y-64339314D02*
X24838737Y-65339314D01*
X24838737Y-64386933D02*
X24933975Y-64339314D01*
X25124451Y-64339314D01*
X25219689Y-64386933D01*
X25267308Y-64434552D01*
X25314927Y-64529790D01*
X25314927Y-64815504D01*
X25267308Y-64910742D01*
X25219689Y-64958361D01*
X25124451Y-65005980D01*
X24933975Y-65005980D01*
X24838737Y-64958361D01*
X25648260Y-64339314D02*
X25886356Y-65005980D01*
X26124451Y-64339314D02*
X25886356Y-65005980D01*
X25791118Y-65244076D01*
X25743499Y-65291695D01*
X25648260Y-65339314D01*
X26505403Y-65005980D02*
X26505403Y-64339314D01*
X26505403Y-64529790D02*
X26553022Y-64434552D01*
X26600641Y-64386933D01*
X26695880Y-64339314D01*
X26791118Y-64339314D01*
X27124451Y-65005980D02*
X27124451Y-64339314D01*
X27124451Y-64005980D02*
X27076832Y-64053600D01*
X27124451Y-64101219D01*
X27172070Y-64053600D01*
X27124451Y-64005980D01*
X27124451Y-64101219D01*
X28029213Y-64339314D02*
X28029213Y-65148838D01*
X27981594Y-65244076D01*
X27933975Y-65291695D01*
X27838737Y-65339314D01*
X27695880Y-65339314D01*
X27600641Y-65291695D01*
X28029213Y-64958361D02*
X27933975Y-65005980D01*
X27743499Y-65005980D01*
X27648260Y-64958361D01*
X27600641Y-64910742D01*
X27553022Y-64815504D01*
X27553022Y-64529790D01*
X27600641Y-64434552D01*
X27648260Y-64386933D01*
X27743499Y-64339314D01*
X27933975Y-64339314D01*
X28029213Y-64386933D01*
X28505403Y-65005980D02*
X28505403Y-64005980D01*
X28933975Y-65005980D02*
X28933975Y-64482171D01*
X28886356Y-64386933D01*
X28791118Y-64339314D01*
X28648260Y-64339314D01*
X28553022Y-64386933D01*
X28505403Y-64434552D01*
X29267308Y-64339314D02*
X29648260Y-64339314D01*
X29410165Y-64005980D02*
X29410165Y-64863123D01*
X29457784Y-64958361D01*
X29553022Y-65005980D01*
X29648260Y-65005980D01*
X31029213Y-65386933D02*
X30981594Y-65339314D01*
X30886356Y-65196457D01*
X30838737Y-65101219D01*
X30791118Y-64958361D01*
X30743499Y-64720266D01*
X30743499Y-64529790D01*
X30791118Y-64291695D01*
X30838737Y-64148838D01*
X30886356Y-64053600D01*
X30981594Y-63910742D01*
X31029213Y-63863123D01*
X31981594Y-64910742D02*
X31933975Y-64958361D01*
X31791118Y-65005980D01*
X31695880Y-65005980D01*
X31553022Y-64958361D01*
X31457784Y-64863123D01*
X31410165Y-64767885D01*
X31362546Y-64577409D01*
X31362546Y-64434552D01*
X31410165Y-64244076D01*
X31457784Y-64148838D01*
X31553022Y-64053600D01*
X31695880Y-64005980D01*
X31791118Y-64005980D01*
X31933975Y-64053600D01*
X31981594Y-64101219D01*
X32314927Y-65386933D02*
X32362546Y-65339314D01*
X32457784Y-65196457D01*
X32505403Y-65101219D01*
X32553022Y-64958361D01*
X32600641Y-64720266D01*
X32600641Y-64529790D01*
X32553022Y-64291695D01*
X32505403Y-64148838D01*
X32457784Y-64053600D01*
X32362546Y-63910742D01*
X32314927Y-63863123D01*
X33791118Y-64101219D02*
X33838737Y-64053600D01*
X33933975Y-64005980D01*
X34172070Y-64005980D01*
X34267308Y-64053600D01*
X34314927Y-64101219D01*
X34362546Y-64196457D01*
X34362546Y-64291695D01*
X34314927Y-64434552D01*
X33743499Y-65005980D01*
X34362546Y-65005980D01*
X34981594Y-64005980D02*
X35076832Y-64005980D01*
X35172070Y-64053600D01*
X35219689Y-64101219D01*
X35267308Y-64196457D01*
X35314927Y-64386933D01*
X35314927Y-64625028D01*
X35267308Y-64815504D01*
X35219689Y-64910742D01*
X35172070Y-64958361D01*
X35076832Y-65005980D01*
X34981594Y-65005980D01*
X34886356Y-64958361D01*
X34838737Y-64910742D01*
X34791118Y-64815504D01*
X34743499Y-64625028D01*
X34743499Y-64386933D01*
X34791118Y-64196457D01*
X34838737Y-64101219D01*
X34886356Y-64053600D01*
X34981594Y-64005980D01*
X35695880Y-64101219D02*
X35743499Y-64053600D01*
X35838737Y-64005980D01*
X36076832Y-64005980D01*
X36172070Y-64053600D01*
X36219689Y-64101219D01*
X36267308Y-64196457D01*
X36267308Y-64291695D01*
X36219689Y-64434552D01*
X35648260Y-65005980D01*
X36267308Y-65005980D01*
X36648260Y-64101219D02*
X36695880Y-64053600D01*
X36791118Y-64005980D01*
X37029213Y-64005980D01*
X37124451Y-64053600D01*
X37172070Y-64101219D01*
X37219689Y-64196457D01*
X37219689Y-64291695D01*
X37172070Y-64434552D01*
X36600641Y-65005980D01*
X37219689Y-65005980D01*
X38410165Y-64482171D02*
X38743499Y-64482171D01*
X38886356Y-65005980D02*
X38410165Y-65005980D01*
X38410165Y-64005980D01*
X38886356Y-64005980D01*
X39314927Y-65005980D02*
X39314927Y-64005980D01*
X39648260Y-64720266D01*
X39981594Y-64005980D01*
X39981594Y-65005980D01*
X40457784Y-65005980D02*
X40457784Y-64005980D01*
X40791118Y-64720266D01*
X41124451Y-64005980D01*
X41124451Y-65005980D01*
X22838737Y-65989314D02*
X23029213Y-66655980D01*
X23219689Y-66179790D01*
X23410165Y-66655980D01*
X23600641Y-65989314D01*
X23886356Y-65989314D02*
X24076832Y-66655980D01*
X24267308Y-66179790D01*
X24457784Y-66655980D01*
X24648260Y-65989314D01*
X24933975Y-65989314D02*
X25124451Y-66655980D01*
X25314927Y-66179790D01*
X25505403Y-66655980D01*
X25695880Y-65989314D01*
X26076832Y-66560742D02*
X26124451Y-66608361D01*
X26076832Y-66655980D01*
X26029213Y-66608361D01*
X26076832Y-66560742D01*
X26076832Y-66655980D01*
X26553022Y-66655980D02*
X26553022Y-65655980D01*
X26981594Y-66655980D02*
X26981594Y-66132171D01*
X26933975Y-66036933D01*
X26838737Y-65989314D01*
X26695880Y-65989314D01*
X26600641Y-66036933D01*
X26553022Y-66084552D01*
X27600641Y-66655980D02*
X27505403Y-66608361D01*
X27457784Y-66560742D01*
X27410165Y-66465504D01*
X27410165Y-66179790D01*
X27457784Y-66084552D01*
X27505403Y-66036933D01*
X27600641Y-65989314D01*
X27743499Y-65989314D01*
X27838737Y-66036933D01*
X27886356Y-66084552D01*
X27933975Y-66179790D01*
X27933975Y-66465504D01*
X27886356Y-66560742D01*
X27838737Y-66608361D01*
X27743499Y-66655980D01*
X27600641Y-66655980D01*
X28362546Y-66655980D02*
X28362546Y-65989314D01*
X28362546Y-66084552D02*
X28410165Y-66036933D01*
X28505403Y-65989314D01*
X28648260Y-65989314D01*
X28743499Y-66036933D01*
X28791118Y-66132171D01*
X28791118Y-66655980D01*
X28791118Y-66132171D02*
X28838737Y-66036933D01*
X28933975Y-65989314D01*
X29076832Y-65989314D01*
X29172070Y-66036933D01*
X29219689Y-66132171D01*
X29219689Y-66655980D01*
X30076832Y-66608361D02*
X29981594Y-66655980D01*
X29791118Y-66655980D01*
X29695880Y-66608361D01*
X29648260Y-66513123D01*
X29648260Y-66132171D01*
X29695880Y-66036933D01*
X29791118Y-65989314D01*
X29981594Y-65989314D01*
X30076832Y-66036933D01*
X30124451Y-66132171D01*
X30124451Y-66227409D01*
X29648260Y-66322647D01*
X30553022Y-66655980D02*
X30553022Y-65655980D01*
X30553022Y-66036933D02*
X30648260Y-65989314D01*
X30838737Y-65989314D01*
X30933975Y-66036933D01*
X30981594Y-66084552D01*
X31029213Y-66179790D01*
X31029213Y-66465504D01*
X30981594Y-66560742D01*
X30933975Y-66608361D01*
X30838737Y-66655980D01*
X30648260Y-66655980D01*
X30553022Y-66608361D01*
X31457784Y-66655980D02*
X31457784Y-65989314D01*
X31457784Y-66179790D02*
X31505403Y-66084552D01*
X31553022Y-66036933D01*
X31648260Y-65989314D01*
X31743499Y-65989314D01*
X32457784Y-66608361D02*
X32362546Y-66655980D01*
X32172070Y-66655980D01*
X32076832Y-66608361D01*
X32029213Y-66513123D01*
X32029213Y-66132171D01*
X32076832Y-66036933D01*
X32172070Y-65989314D01*
X32362546Y-65989314D01*
X32457784Y-66036933D01*
X32505403Y-66132171D01*
X32505403Y-66227409D01*
X32029213Y-66322647D01*
X32838737Y-65989314D02*
X33029213Y-66655980D01*
X33219689Y-66179790D01*
X33410165Y-66655980D01*
X33600641Y-65989314D01*
X34124451Y-66084552D02*
X34029213Y-66036933D01*
X33981594Y-65989314D01*
X33933975Y-65894076D01*
X33933975Y-65846457D01*
X33981594Y-65751219D01*
X34029213Y-65703600D01*
X34124451Y-65655980D01*
X34314927Y-65655980D01*
X34410165Y-65703600D01*
X34457784Y-65751219D01*
X34505403Y-65846457D01*
X34505403Y-65894076D01*
X34457784Y-65989314D01*
X34410165Y-66036933D01*
X34314927Y-66084552D01*
X34124451Y-66084552D01*
X34029213Y-66132171D01*
X33981594Y-66179790D01*
X33933975Y-66275028D01*
X33933975Y-66465504D01*
X33981594Y-66560742D01*
X34029213Y-66608361D01*
X34124451Y-66655980D01*
X34314927Y-66655980D01*
X34410165Y-66608361D01*
X34457784Y-66560742D01*
X34505403Y-66465504D01*
X34505403Y-66275028D01*
X34457784Y-66179790D01*
X34410165Y-66132171D01*
X34314927Y-66084552D01*
X35124451Y-65655980D02*
X35219689Y-65655980D01*
X35314927Y-65703600D01*
X35362546Y-65751219D01*
X35410165Y-65846457D01*
X35457784Y-66036933D01*
X35457784Y-66275028D01*
X35410165Y-66465504D01*
X35362546Y-66560742D01*
X35314927Y-66608361D01*
X35219689Y-66655980D01*
X35124451Y-66655980D01*
X35029213Y-66608361D01*
X34981594Y-66560742D01*
X34933975Y-66465504D01*
X34886356Y-66275028D01*
X34886356Y-66036933D01*
X34933975Y-65846457D01*
X34981594Y-65751219D01*
X35029213Y-65703600D01*
X35124451Y-65655980D01*
X36029213Y-66084552D02*
X35933975Y-66036933D01*
X35886356Y-65989314D01*
X35838737Y-65894076D01*
X35838737Y-65846457D01*
X35886356Y-65751219D01*
X35933975Y-65703600D01*
X36029213Y-65655980D01*
X36219689Y-65655980D01*
X36314927Y-65703600D01*
X36362546Y-65751219D01*
X36410165Y-65846457D01*
X36410165Y-65894076D01*
X36362546Y-65989314D01*
X36314927Y-66036933D01*
X36219689Y-66084552D01*
X36029213Y-66084552D01*
X35933975Y-66132171D01*
X35886356Y-66179790D01*
X35838737Y-66275028D01*
X35838737Y-66465504D01*
X35886356Y-66560742D01*
X35933975Y-66608361D01*
X36029213Y-66655980D01*
X36219689Y-66655980D01*
X36314927Y-66608361D01*
X36362546Y-66560742D01*
X36410165Y-66465504D01*
X36410165Y-66275028D01*
X36362546Y-66179790D01*
X36314927Y-66132171D01*
X36219689Y-66084552D01*
X36981594Y-66084552D02*
X36886356Y-66036933D01*
X36838737Y-65989314D01*
X36791118Y-65894076D01*
X36791118Y-65846457D01*
X36838737Y-65751219D01*
X36886356Y-65703600D01*
X36981594Y-65655980D01*
X37172070Y-65655980D01*
X37267308Y-65703600D01*
X37314927Y-65751219D01*
X37362546Y-65846457D01*
X37362546Y-65894076D01*
X37314927Y-65989314D01*
X37267308Y-66036933D01*
X37172070Y-66084552D01*
X36981594Y-66084552D01*
X36886356Y-66132171D01*
X36838737Y-66179790D01*
X36791118Y-66275028D01*
X36791118Y-66465504D01*
X36838737Y-66560742D01*
X36886356Y-66608361D01*
X36981594Y-66655980D01*
X37172070Y-66655980D01*
X37267308Y-66608361D01*
X37314927Y-66560742D01*
X37362546Y-66465504D01*
X37362546Y-66275028D01*
X37314927Y-66179790D01*
X37267308Y-66132171D01*
X37172070Y-66084552D01*
X37791118Y-66560742D02*
X37838737Y-66608361D01*
X37791118Y-66655980D01*
X37743499Y-66608361D01*
X37791118Y-66560742D01*
X37791118Y-66655980D01*
X38695879Y-66608361D02*
X38600641Y-66655980D01*
X38410165Y-66655980D01*
X38314927Y-66608361D01*
X38267308Y-66560742D01*
X38219689Y-66465504D01*
X38219689Y-66179790D01*
X38267308Y-66084552D01*
X38314927Y-66036933D01*
X38410165Y-65989314D01*
X38600641Y-65989314D01*
X38695879Y-66036933D01*
X39267308Y-66655980D02*
X39172070Y-66608361D01*
X39124451Y-66560742D01*
X39076832Y-66465504D01*
X39076832Y-66179790D01*
X39124451Y-66084552D01*
X39172070Y-66036933D01*
X39267308Y-65989314D01*
X39410165Y-65989314D01*
X39505403Y-66036933D01*
X39553022Y-66084552D01*
X39600641Y-66179790D01*
X39600641Y-66465504D01*
X39553022Y-66560742D01*
X39505403Y-66608361D01*
X39410165Y-66655980D01*
X39267308Y-66655980D01*
X40029213Y-66655980D02*
X40029213Y-65989314D01*
X40029213Y-66084552D02*
X40076832Y-66036933D01*
X40172070Y-65989314D01*
X40314927Y-65989314D01*
X40410165Y-66036933D01*
X40457784Y-66132171D01*
X40457784Y-66655980D01*
X40457784Y-66132171D02*
X40505403Y-66036933D01*
X40600641Y-65989314D01*
X40743499Y-65989314D01*
X40838737Y-66036933D01*
X40886356Y-66132171D01*
X40886356Y-66655980D01*
D11*
G04 #@! TO.C,U1*
X81910380Y-75158600D02*
X81910380Y-72618600D01*
X85210380Y-63228600D02*
X85210380Y-65488600D01*
X82930380Y-63228600D02*
X82930380Y-65088600D01*
X106030380Y-63228600D02*
X82930380Y-63228600D01*
X106030380Y-118928600D02*
X106030380Y-63228600D01*
X82930380Y-118928600D02*
X106030380Y-118928600D01*
X82930380Y-69988600D02*
X82930380Y-118928600D01*
X84560380Y-67538600D02*
G75*
G03*
X84560380Y-67538600I-900000J0D01*
G01*
X86210380Y-67538600D02*
G75*
G03*
X86210380Y-67538600I-2550000J0D01*
G01*
G04 #@! TO.C,R2*
X40354380Y-73126600D02*
X39584380Y-73126600D01*
X32274380Y-73126600D02*
X33044380Y-73126600D01*
X39584380Y-71756600D02*
X33044380Y-71756600D01*
X39584380Y-74496600D02*
X39584380Y-71756600D01*
X33044380Y-74496600D02*
X39584380Y-74496600D01*
X33044380Y-71756600D02*
X33044380Y-74496600D01*
G04 #@! TO.C,R1*
X32274380Y-76174600D02*
X33044380Y-76174600D01*
X40354380Y-76174600D02*
X39584380Y-76174600D01*
X33044380Y-77544600D02*
X39584380Y-77544600D01*
X33044380Y-74804600D02*
X33044380Y-77544600D01*
X39584380Y-74804600D02*
X33044380Y-74804600D01*
X39584380Y-77544600D02*
X39584380Y-74804600D01*
G04 #@! TO.C,Y1*
X109299380Y-64983600D02*
X115549380Y-64983600D01*
X109299380Y-59933600D02*
X115549380Y-59933600D01*
X115549380Y-64983600D02*
G75*
G03*
X115549380Y-59933600I0J2525000D01*
G01*
X109299380Y-64983600D02*
G75*
G02*
X109299380Y-59933600I0J2525000D01*
G01*
G04 #@! TO.C,U10*
X55474380Y-98466600D02*
X53824380Y-98466600D01*
X55474380Y-123986600D02*
X55474380Y-98466600D01*
X50174380Y-123986600D02*
X55474380Y-123986600D01*
X50174380Y-98466600D02*
X50174380Y-123986600D01*
X51824380Y-98466600D02*
X50174380Y-98466600D01*
X53824380Y-98466600D02*
G75*
G02*
X51824380Y-98466600I-1000000J0D01*
G01*
G04 #@! TO.C,U9*
X42774380Y-98466600D02*
X41124380Y-98466600D01*
X42774380Y-123986600D02*
X42774380Y-98466600D01*
X37474380Y-123986600D02*
X42774380Y-123986600D01*
X37474380Y-98466600D02*
X37474380Y-123986600D01*
X39124380Y-98466600D02*
X37474380Y-98466600D01*
X41124380Y-98466600D02*
G75*
G02*
X39124380Y-98466600I-1000000J0D01*
G01*
G04 #@! TO.C,U8*
X30074380Y-85766600D02*
X28424380Y-85766600D01*
X30074380Y-111286600D02*
X30074380Y-85766600D01*
X24774380Y-111286600D02*
X30074380Y-111286600D01*
X24774380Y-85766600D02*
X24774380Y-111286600D01*
X26424380Y-85766600D02*
X24774380Y-85766600D01*
X28424380Y-85766600D02*
G75*
G02*
X26424380Y-85766600I-1000000J0D01*
G01*
G04 #@! TO.C,U7*
X77339380Y-62581600D02*
X62714380Y-62581600D01*
X77339380Y-93831600D02*
X77339380Y-62581600D01*
X46089380Y-93831600D02*
X77339380Y-93831600D01*
X46089380Y-63581600D02*
X46089380Y-93831600D01*
X47089380Y-62581600D02*
X46089380Y-63581600D01*
X60714380Y-62581600D02*
X47089380Y-62581600D01*
G04 #@! TO.C,C10*
X56404380Y-97549600D02*
X56404380Y-97564600D01*
X56404380Y-95424600D02*
X56404380Y-95439600D01*
X51864380Y-97549600D02*
X51864380Y-97564600D01*
X51864380Y-95424600D02*
X51864380Y-95439600D01*
X51864380Y-97564600D02*
X56404380Y-97564600D01*
X51864380Y-95424600D02*
X56404380Y-95424600D01*
G04 #@! TO.C,C9*
X43704380Y-97549600D02*
X43704380Y-97564600D01*
X43704380Y-95424600D02*
X43704380Y-95439600D01*
X39164380Y-97549600D02*
X39164380Y-97564600D01*
X39164380Y-95424600D02*
X39164380Y-95439600D01*
X39164380Y-97564600D02*
X43704380Y-97564600D01*
X39164380Y-95424600D02*
X43704380Y-95424600D01*
G04 #@! TO.C,C8*
X31004380Y-84849600D02*
X31004380Y-84864600D01*
X31004380Y-82724600D02*
X31004380Y-82739600D01*
X26464380Y-84849600D02*
X26464380Y-84864600D01*
X26464380Y-82724600D02*
X26464380Y-82739600D01*
X26464380Y-84864600D02*
X31004380Y-84864600D01*
X26464380Y-82724600D02*
X31004380Y-82724600D01*
G04 #@! TO.C,C7*
X61484380Y-61989600D02*
X61484380Y-62004600D01*
X61484380Y-59864600D02*
X61484380Y-59879600D01*
X56944380Y-61989600D02*
X56944380Y-62004600D01*
X56944380Y-59864600D02*
X56944380Y-59879600D01*
X56944380Y-62004600D02*
X61484380Y-62004600D01*
X56944380Y-59864600D02*
X61484380Y-59864600D01*
G04 #@! TO.C,C2*
X117650380Y-69516600D02*
X122190380Y-69516600D01*
X117650380Y-71656600D02*
X122190380Y-71656600D01*
X117650380Y-69516600D02*
X117650380Y-69531600D01*
X117650380Y-71641600D02*
X117650380Y-71656600D01*
X122190380Y-69516600D02*
X122190380Y-69531600D01*
X122190380Y-71641600D02*
X122190380Y-71656600D01*
G04 #@! TO.C,U2*
X113800380Y-72558600D02*
X108340380Y-72558600D01*
X108340380Y-72558600D02*
X108340380Y-113318600D01*
X108340380Y-113318600D02*
X121260380Y-113318600D01*
X121260380Y-113318600D02*
X121260380Y-72558600D01*
X121260380Y-72558600D02*
X115800380Y-72558600D01*
X115800380Y-72558600D02*
G75*
G02*
X113800380Y-72558600I-1000000J0D01*
G01*
G04 #@! TO.C,C1*
X107744380Y-69531600D02*
X107744380Y-69516600D01*
X107744380Y-71656600D02*
X107744380Y-71641600D01*
X112284380Y-69531600D02*
X112284380Y-69516600D01*
X112284380Y-71656600D02*
X112284380Y-71641600D01*
X112284380Y-69516600D02*
X107744380Y-69516600D01*
X112284380Y-71656600D02*
X107744380Y-71656600D01*
G04 #@! TO.C,U3*
X134120380Y-72558600D02*
X128660380Y-72558600D01*
X128660380Y-72558600D02*
X128660380Y-113318600D01*
X128660380Y-113318600D02*
X141580380Y-113318600D01*
X141580380Y-113318600D02*
X141580380Y-72558600D01*
X141580380Y-72558600D02*
X136120380Y-72558600D01*
X136120380Y-72558600D02*
G75*
G02*
X134120380Y-72558600I-1000000J0D01*
G01*
G04 #@! TO.C,U4*
X154440380Y-72558600D02*
X148980380Y-72558600D01*
X148980380Y-72558600D02*
X148980380Y-113318600D01*
X148980380Y-113318600D02*
X161900380Y-113318600D01*
X161900380Y-113318600D02*
X161900380Y-72558600D01*
X161900380Y-72558600D02*
X156440380Y-72558600D01*
X156440380Y-72558600D02*
G75*
G02*
X154440380Y-72558600I-1000000J0D01*
G01*
G04 #@! TO.C,C6*
X174546380Y-94916600D02*
X179086380Y-94916600D01*
X174546380Y-97056600D02*
X179086380Y-97056600D01*
X174546380Y-94916600D02*
X174546380Y-94931600D01*
X174546380Y-97041600D02*
X174546380Y-97056600D01*
X179086380Y-94916600D02*
X179086380Y-94931600D01*
X179086380Y-97041600D02*
X179086380Y-97056600D01*
G04 #@! TO.C,C3*
X137970380Y-69516600D02*
X142510380Y-69516600D01*
X137970380Y-71656600D02*
X142510380Y-71656600D01*
X137970380Y-69516600D02*
X137970380Y-69531600D01*
X137970380Y-71641600D02*
X137970380Y-71656600D01*
X142510380Y-69516600D02*
X142510380Y-69531600D01*
X142510380Y-71641600D02*
X142510380Y-71656600D01*
G04 #@! TO.C,U6*
X178156380Y-97958600D02*
X176506380Y-97958600D01*
X178156380Y-118398600D02*
X178156380Y-97958600D01*
X172856380Y-118398600D02*
X178156380Y-118398600D01*
X172856380Y-97958600D02*
X172856380Y-118398600D01*
X174506380Y-97958600D02*
X172856380Y-97958600D01*
X176506380Y-97958600D02*
G75*
G02*
X174506380Y-97958600I-1000000J0D01*
G01*
G04 #@! TO.C,U5*
X178156380Y-72558600D02*
X176506380Y-72558600D01*
X178156380Y-92998600D02*
X178156380Y-72558600D01*
X172856380Y-92998600D02*
X178156380Y-92998600D01*
X172856380Y-72558600D02*
X172856380Y-92998600D01*
X174506380Y-72558600D02*
X172856380Y-72558600D01*
X176506380Y-72558600D02*
G75*
G02*
X174506380Y-72558600I-1000000J0D01*
G01*
G04 #@! TO.C,C5*
X179086380Y-71641600D02*
X179086380Y-71656600D01*
X179086380Y-69516600D02*
X179086380Y-69531600D01*
X174546380Y-71641600D02*
X174546380Y-71656600D01*
X174546380Y-69516600D02*
X174546380Y-69531600D01*
X174546380Y-71656600D02*
X179086380Y-71656600D01*
X174546380Y-69516600D02*
X179086380Y-69516600D01*
G04 #@! TO.C,C4*
X162830380Y-71641600D02*
X162830380Y-71656600D01*
X162830380Y-69516600D02*
X162830380Y-69531600D01*
X158290380Y-71641600D02*
X158290380Y-71656600D01*
X158290380Y-69516600D02*
X158290380Y-69531600D01*
X158290380Y-71656600D02*
X162830380Y-71656600D01*
X158290380Y-69516600D02*
X162830380Y-69516600D01*
G04 #@! TO.C,U1*
D10*
X91718475Y-119280980D02*
X91527999Y-119280980D01*
X91432760Y-119328600D01*
X91385141Y-119376219D01*
X91289903Y-119519076D01*
X91242284Y-119709552D01*
X91242284Y-120090504D01*
X91289903Y-120185742D01*
X91337522Y-120233361D01*
X91432760Y-120280980D01*
X91623237Y-120280980D01*
X91718475Y-120233361D01*
X91766094Y-120185742D01*
X91813713Y-120090504D01*
X91813713Y-119852409D01*
X91766094Y-119757171D01*
X91718475Y-119709552D01*
X91623237Y-119661933D01*
X91432760Y-119661933D01*
X91337522Y-119709552D01*
X91289903Y-119757171D01*
X91242284Y-119852409D01*
X92670856Y-119614314D02*
X92670856Y-120280980D01*
X92432760Y-119233361D02*
X92194665Y-119947647D01*
X92813713Y-119947647D01*
X93194665Y-120280980D02*
X93194665Y-119280980D01*
X93766094Y-120280980D02*
X93337522Y-119709552D01*
X93766094Y-119280980D02*
X93194665Y-119852409D01*
X95527999Y-120280980D02*
X95194665Y-119804790D01*
X94956570Y-120280980D02*
X94956570Y-119280980D01*
X95337522Y-119280980D01*
X95432760Y-119328600D01*
X95480380Y-119376219D01*
X95527999Y-119471457D01*
X95527999Y-119614314D01*
X95480380Y-119709552D01*
X95432760Y-119757171D01*
X95337522Y-119804790D01*
X94956570Y-119804790D01*
X96147046Y-119280980D02*
X96337522Y-119280980D01*
X96432760Y-119328600D01*
X96527999Y-119423838D01*
X96575618Y-119614314D01*
X96575618Y-119947647D01*
X96527999Y-120138123D01*
X96432760Y-120233361D01*
X96337522Y-120280980D01*
X96147046Y-120280980D01*
X96051808Y-120233361D01*
X95956570Y-120138123D01*
X95908951Y-119947647D01*
X95908951Y-119614314D01*
X95956570Y-119423838D01*
X96051808Y-119328600D01*
X96147046Y-119280980D01*
X97004189Y-120280980D02*
X97004189Y-119280980D01*
X97337522Y-119995266D01*
X97670856Y-119280980D01*
X97670856Y-120280980D01*
G04 #@! TO.C,R2*
X33671522Y-73592980D02*
X33100094Y-73592980D01*
X33385808Y-73592980D02*
X33385808Y-72592980D01*
X33290570Y-72735838D01*
X33195332Y-72831076D01*
X33100094Y-72878695D01*
X34290570Y-72592980D02*
X34385808Y-72592980D01*
X34481046Y-72640600D01*
X34528665Y-72688219D01*
X34576284Y-72783457D01*
X34623903Y-72973933D01*
X34623903Y-73212028D01*
X34576284Y-73402504D01*
X34528665Y-73497742D01*
X34481046Y-73545361D01*
X34385808Y-73592980D01*
X34290570Y-73592980D01*
X34195332Y-73545361D01*
X34147713Y-73497742D01*
X34100094Y-73402504D01*
X34052475Y-73212028D01*
X34052475Y-72973933D01*
X34100094Y-72783457D01*
X34147713Y-72688219D01*
X34195332Y-72640600D01*
X34290570Y-72592980D01*
X35052475Y-73592980D02*
X35052475Y-72592980D01*
X35623903Y-73592980D02*
X35195332Y-73021552D01*
X35623903Y-72592980D02*
X35052475Y-73164409D01*
X36957237Y-73592980D02*
X36861999Y-73545361D01*
X36814380Y-73497742D01*
X36766760Y-73402504D01*
X36766760Y-73116790D01*
X36814380Y-73021552D01*
X36861999Y-72973933D01*
X36957237Y-72926314D01*
X37100094Y-72926314D01*
X37195332Y-72973933D01*
X37242951Y-73021552D01*
X37290570Y-73116790D01*
X37290570Y-73402504D01*
X37242951Y-73497742D01*
X37195332Y-73545361D01*
X37100094Y-73592980D01*
X36957237Y-73592980D01*
X37719141Y-73592980D02*
X37719141Y-72592980D01*
X38147713Y-73592980D02*
X38147713Y-73069171D01*
X38100094Y-72973933D01*
X38004856Y-72926314D01*
X37861999Y-72926314D01*
X37766760Y-72973933D01*
X37719141Y-73021552D01*
X38623903Y-73592980D02*
X38623903Y-72926314D01*
X38623903Y-73021552D02*
X38671522Y-72973933D01*
X38766760Y-72926314D01*
X38909618Y-72926314D01*
X39004856Y-72973933D01*
X39052475Y-73069171D01*
X39052475Y-73592980D01*
X39052475Y-73069171D02*
X39100094Y-72973933D01*
X39195332Y-72926314D01*
X39338189Y-72926314D01*
X39433427Y-72973933D01*
X39481046Y-73069171D01*
X39481046Y-73592980D01*
G04 #@! TO.C,R1*
X33671522Y-76626980D02*
X33100094Y-76626980D01*
X33385808Y-76626980D02*
X33385808Y-75626980D01*
X33290570Y-75769838D01*
X33195332Y-75865076D01*
X33100094Y-75912695D01*
X34290570Y-75626980D02*
X34385808Y-75626980D01*
X34481046Y-75674600D01*
X34528665Y-75722219D01*
X34576284Y-75817457D01*
X34623903Y-76007933D01*
X34623903Y-76246028D01*
X34576284Y-76436504D01*
X34528665Y-76531742D01*
X34481046Y-76579361D01*
X34385808Y-76626980D01*
X34290570Y-76626980D01*
X34195332Y-76579361D01*
X34147713Y-76531742D01*
X34100094Y-76436504D01*
X34052475Y-76246028D01*
X34052475Y-76007933D01*
X34100094Y-75817457D01*
X34147713Y-75722219D01*
X34195332Y-75674600D01*
X34290570Y-75626980D01*
X35052475Y-76626980D02*
X35052475Y-75626980D01*
X35623903Y-76626980D02*
X35195332Y-76055552D01*
X35623903Y-75626980D02*
X35052475Y-76198409D01*
X36957237Y-76626980D02*
X36861999Y-76579361D01*
X36814380Y-76531742D01*
X36766760Y-76436504D01*
X36766760Y-76150790D01*
X36814380Y-76055552D01*
X36861999Y-76007933D01*
X36957237Y-75960314D01*
X37100094Y-75960314D01*
X37195332Y-76007933D01*
X37242951Y-76055552D01*
X37290570Y-76150790D01*
X37290570Y-76436504D01*
X37242951Y-76531742D01*
X37195332Y-76579361D01*
X37100094Y-76626980D01*
X36957237Y-76626980D01*
X37719141Y-76626980D02*
X37719141Y-75626980D01*
X38147713Y-76626980D02*
X38147713Y-76103171D01*
X38100094Y-76007933D01*
X38004856Y-75960314D01*
X37861999Y-75960314D01*
X37766760Y-76007933D01*
X37719141Y-76055552D01*
X38623903Y-76626980D02*
X38623903Y-75960314D01*
X38623903Y-76055552D02*
X38671522Y-76007933D01*
X38766760Y-75960314D01*
X38909618Y-75960314D01*
X39004856Y-76007933D01*
X39052475Y-76103171D01*
X39052475Y-76626980D01*
X39052475Y-76103171D02*
X39100094Y-76007933D01*
X39195332Y-75960314D01*
X39338189Y-75960314D01*
X39433427Y-76007933D01*
X39481046Y-76103171D01*
X39481046Y-76626980D01*
G04 #@! TO.C,Y1*
X110638665Y-66340742D02*
X110591046Y-66388361D01*
X110448189Y-66435980D01*
X110352951Y-66435980D01*
X110210094Y-66388361D01*
X110114856Y-66293123D01*
X110067237Y-66197885D01*
X110019618Y-66007409D01*
X110019618Y-65864552D01*
X110067237Y-65674076D01*
X110114856Y-65578838D01*
X110210094Y-65483600D01*
X110352951Y-65435980D01*
X110448189Y-65435980D01*
X110591046Y-65483600D01*
X110638665Y-65531219D01*
X111067237Y-66435980D02*
X111067237Y-65769314D01*
X111067237Y-65959790D02*
X111114856Y-65864552D01*
X111162475Y-65816933D01*
X111257713Y-65769314D01*
X111352951Y-65769314D01*
X111591046Y-65769314D02*
X111829141Y-66435980D01*
X112067237Y-65769314D02*
X111829141Y-66435980D01*
X111733903Y-66674076D01*
X111686284Y-66721695D01*
X111591046Y-66769314D01*
X112400570Y-66388361D02*
X112495808Y-66435980D01*
X112686284Y-66435980D01*
X112781522Y-66388361D01*
X112829141Y-66293123D01*
X112829141Y-66245504D01*
X112781522Y-66150266D01*
X112686284Y-66102647D01*
X112543427Y-66102647D01*
X112448189Y-66055028D01*
X112400570Y-65959790D01*
X112400570Y-65912171D01*
X112448189Y-65816933D01*
X112543427Y-65769314D01*
X112686284Y-65769314D01*
X112781522Y-65816933D01*
X113114856Y-65769314D02*
X113495808Y-65769314D01*
X113257713Y-65435980D02*
X113257713Y-66293123D01*
X113305332Y-66388361D01*
X113400570Y-66435980D01*
X113495808Y-66435980D01*
X114257713Y-66435980D02*
X114257713Y-65912171D01*
X114210094Y-65816933D01*
X114114856Y-65769314D01*
X113924380Y-65769314D01*
X113829141Y-65816933D01*
X114257713Y-66388361D02*
X114162475Y-66435980D01*
X113924380Y-66435980D01*
X113829141Y-66388361D01*
X113781522Y-66293123D01*
X113781522Y-66197885D01*
X113829141Y-66102647D01*
X113924380Y-66055028D01*
X114162475Y-66055028D01*
X114257713Y-66007409D01*
X114876760Y-66435980D02*
X114781522Y-66388361D01*
X114733903Y-66293123D01*
X114733903Y-65435980D01*
G04 #@! TO.C,U10*
X49705332Y-124438980D02*
X50371999Y-124438980D01*
X49943427Y-125438980D01*
X51181522Y-124772314D02*
X51181522Y-125438980D01*
X50943427Y-124391361D02*
X50705332Y-125105647D01*
X51324380Y-125105647D01*
X52181522Y-125438980D02*
X51705332Y-125438980D01*
X51705332Y-124438980D01*
X52467237Y-125391361D02*
X52610094Y-125438980D01*
X52848189Y-125438980D01*
X52943427Y-125391361D01*
X52991046Y-125343742D01*
X53038665Y-125248504D01*
X53038665Y-125153266D01*
X52991046Y-125058028D01*
X52943427Y-125010409D01*
X52848189Y-124962790D01*
X52657713Y-124915171D01*
X52562475Y-124867552D01*
X52514856Y-124819933D01*
X52467237Y-124724695D01*
X52467237Y-124629457D01*
X52514856Y-124534219D01*
X52562475Y-124486600D01*
X52657713Y-124438980D01*
X52895808Y-124438980D01*
X53038665Y-124486600D01*
X53943427Y-124438980D02*
X53467237Y-124438980D01*
X53419618Y-124915171D01*
X53467237Y-124867552D01*
X53562475Y-124819933D01*
X53800570Y-124819933D01*
X53895808Y-124867552D01*
X53943427Y-124915171D01*
X53991046Y-125010409D01*
X53991046Y-125248504D01*
X53943427Y-125343742D01*
X53895808Y-125391361D01*
X53800570Y-125438980D01*
X53562475Y-125438980D01*
X53467237Y-125391361D01*
X53419618Y-125343742D01*
X54324380Y-124438980D02*
X54991046Y-124438980D01*
X54562475Y-125438980D01*
X55276760Y-124438980D02*
X55895808Y-124438980D01*
X55562475Y-124819933D01*
X55705332Y-124819933D01*
X55800570Y-124867552D01*
X55848189Y-124915171D01*
X55895808Y-125010409D01*
X55895808Y-125248504D01*
X55848189Y-125343742D01*
X55800570Y-125391361D01*
X55705332Y-125438980D01*
X55419618Y-125438980D01*
X55324380Y-125391361D01*
X55276760Y-125343742D01*
G04 #@! TO.C,U9*
X37005332Y-124438980D02*
X37671999Y-124438980D01*
X37243427Y-125438980D01*
X38481522Y-124772314D02*
X38481522Y-125438980D01*
X38243427Y-124391361D02*
X38005332Y-125105647D01*
X38624380Y-125105647D01*
X39481522Y-125438980D02*
X39005332Y-125438980D01*
X39005332Y-124438980D01*
X39767237Y-125391361D02*
X39910094Y-125438980D01*
X40148189Y-125438980D01*
X40243427Y-125391361D01*
X40291046Y-125343742D01*
X40338665Y-125248504D01*
X40338665Y-125153266D01*
X40291046Y-125058028D01*
X40243427Y-125010409D01*
X40148189Y-124962790D01*
X39957713Y-124915171D01*
X39862475Y-124867552D01*
X39814856Y-124819933D01*
X39767237Y-124724695D01*
X39767237Y-124629457D01*
X39814856Y-124534219D01*
X39862475Y-124486600D01*
X39957713Y-124438980D01*
X40195808Y-124438980D01*
X40338665Y-124486600D01*
X40719618Y-124534219D02*
X40767237Y-124486600D01*
X40862475Y-124438980D01*
X41100570Y-124438980D01*
X41195808Y-124486600D01*
X41243427Y-124534219D01*
X41291046Y-124629457D01*
X41291046Y-124724695D01*
X41243427Y-124867552D01*
X40671999Y-125438980D01*
X41291046Y-125438980D01*
X42148189Y-124772314D02*
X42148189Y-125438980D01*
X41910094Y-124391361D02*
X41671999Y-125105647D01*
X42291046Y-125105647D01*
X43148189Y-124438980D02*
X42671999Y-124438980D01*
X42624380Y-124915171D01*
X42671999Y-124867552D01*
X42767237Y-124819933D01*
X43005332Y-124819933D01*
X43100570Y-124867552D01*
X43148189Y-124915171D01*
X43195808Y-125010409D01*
X43195808Y-125248504D01*
X43148189Y-125343742D01*
X43100570Y-125391361D01*
X43005332Y-125438980D01*
X42767237Y-125438980D01*
X42671999Y-125391361D01*
X42624380Y-125343742D01*
G04 #@! TO.C,U8*
X24305332Y-111738980D02*
X24971999Y-111738980D01*
X24543427Y-112738980D01*
X25781522Y-112072314D02*
X25781522Y-112738980D01*
X25543427Y-111691361D02*
X25305332Y-112405647D01*
X25924380Y-112405647D01*
X26781522Y-112738980D02*
X26305332Y-112738980D01*
X26305332Y-111738980D01*
X27067237Y-112691361D02*
X27210094Y-112738980D01*
X27448189Y-112738980D01*
X27543427Y-112691361D01*
X27591046Y-112643742D01*
X27638665Y-112548504D01*
X27638665Y-112453266D01*
X27591046Y-112358028D01*
X27543427Y-112310409D01*
X27448189Y-112262790D01*
X27257713Y-112215171D01*
X27162475Y-112167552D01*
X27114856Y-112119933D01*
X27067237Y-112024695D01*
X27067237Y-111929457D01*
X27114856Y-111834219D01*
X27162475Y-111786600D01*
X27257713Y-111738980D01*
X27495808Y-111738980D01*
X27638665Y-111786600D01*
X28543427Y-111738980D02*
X28067237Y-111738980D01*
X28019618Y-112215171D01*
X28067237Y-112167552D01*
X28162475Y-112119933D01*
X28400570Y-112119933D01*
X28495808Y-112167552D01*
X28543427Y-112215171D01*
X28591046Y-112310409D01*
X28591046Y-112548504D01*
X28543427Y-112643742D01*
X28495808Y-112691361D01*
X28400570Y-112738980D01*
X28162475Y-112738980D01*
X28067237Y-112691361D01*
X28019618Y-112643742D01*
X28924380Y-111738980D02*
X29591046Y-111738980D01*
X29162475Y-112738980D01*
X29876760Y-111738980D02*
X30495808Y-111738980D01*
X30162475Y-112119933D01*
X30305332Y-112119933D01*
X30400570Y-112167552D01*
X30448189Y-112215171D01*
X30495808Y-112310409D01*
X30495808Y-112548504D01*
X30448189Y-112643742D01*
X30400570Y-112691361D01*
X30305332Y-112738980D01*
X30019618Y-112738980D01*
X29924380Y-112691361D01*
X29876760Y-112643742D01*
G04 #@! TO.C,U7*
X59476284Y-94183980D02*
X60142951Y-94183980D01*
X59714380Y-95183980D01*
X60714380Y-94183980D02*
X60809618Y-94183980D01*
X60904856Y-94231600D01*
X60952475Y-94279219D01*
X61000094Y-94374457D01*
X61047713Y-94564933D01*
X61047713Y-94803028D01*
X61000094Y-94993504D01*
X60952475Y-95088742D01*
X60904856Y-95136361D01*
X60809618Y-95183980D01*
X60714380Y-95183980D01*
X60619141Y-95136361D01*
X60571522Y-95088742D01*
X60523903Y-94993504D01*
X60476284Y-94803028D01*
X60476284Y-94564933D01*
X60523903Y-94374457D01*
X60571522Y-94279219D01*
X60619141Y-94231600D01*
X60714380Y-94183980D01*
X61428665Y-94279219D02*
X61476284Y-94231600D01*
X61571522Y-94183980D01*
X61809618Y-94183980D01*
X61904856Y-94231600D01*
X61952475Y-94279219D01*
X62000094Y-94374457D01*
X62000094Y-94469695D01*
X61952475Y-94612552D01*
X61381046Y-95183980D01*
X62000094Y-95183980D01*
X62619141Y-94183980D02*
X62714380Y-94183980D01*
X62809618Y-94231600D01*
X62857237Y-94279219D01*
X62904856Y-94374457D01*
X62952475Y-94564933D01*
X62952475Y-94803028D01*
X62904856Y-94993504D01*
X62857237Y-95088742D01*
X62809618Y-95136361D01*
X62714380Y-95183980D01*
X62619141Y-95183980D01*
X62523903Y-95136361D01*
X62476284Y-95088742D01*
X62428665Y-94993504D01*
X62381046Y-94803028D01*
X62381046Y-94564933D01*
X62428665Y-94374457D01*
X62476284Y-94279219D01*
X62523903Y-94231600D01*
X62619141Y-94183980D01*
X63523903Y-94612552D02*
X63428665Y-94564933D01*
X63381046Y-94517314D01*
X63333427Y-94422076D01*
X63333427Y-94374457D01*
X63381046Y-94279219D01*
X63428665Y-94231600D01*
X63523903Y-94183980D01*
X63714380Y-94183980D01*
X63809618Y-94231600D01*
X63857237Y-94279219D01*
X63904856Y-94374457D01*
X63904856Y-94422076D01*
X63857237Y-94517314D01*
X63809618Y-94564933D01*
X63714380Y-94612552D01*
X63523903Y-94612552D01*
X63428665Y-94660171D01*
X63381046Y-94707790D01*
X63333427Y-94803028D01*
X63333427Y-94993504D01*
X63381046Y-95088742D01*
X63428665Y-95136361D01*
X63523903Y-95183980D01*
X63714380Y-95183980D01*
X63809618Y-95136361D01*
X63857237Y-95088742D01*
X63904856Y-94993504D01*
X63904856Y-94803028D01*
X63857237Y-94707790D01*
X63809618Y-94660171D01*
X63714380Y-94612552D01*
G04 #@! TO.C,C10*
X52491522Y-93914980D02*
X52586760Y-93914980D01*
X52681999Y-93962600D01*
X52729618Y-94010219D01*
X52777237Y-94105457D01*
X52824856Y-94295933D01*
X52824856Y-94534028D01*
X52777237Y-94724504D01*
X52729618Y-94819742D01*
X52681999Y-94867361D01*
X52586760Y-94914980D01*
X52491522Y-94914980D01*
X52396284Y-94867361D01*
X52348665Y-94819742D01*
X52301046Y-94724504D01*
X52253427Y-94534028D01*
X52253427Y-94295933D01*
X52301046Y-94105457D01*
X52348665Y-94010219D01*
X52396284Y-93962600D01*
X52491522Y-93914980D01*
X53253427Y-94819742D02*
X53301046Y-94867361D01*
X53253427Y-94914980D01*
X53205808Y-94867361D01*
X53253427Y-94819742D01*
X53253427Y-94914980D01*
X54253427Y-94914980D02*
X53681999Y-94914980D01*
X53967713Y-94914980D02*
X53967713Y-93914980D01*
X53872475Y-94057838D01*
X53777237Y-94153076D01*
X53681999Y-94200695D01*
X55110570Y-94248314D02*
X55110570Y-94914980D01*
X54681999Y-94248314D02*
X54681999Y-94772123D01*
X54729618Y-94867361D01*
X54824856Y-94914980D01*
X54967713Y-94914980D01*
X55062951Y-94867361D01*
X55110570Y-94819742D01*
X55920094Y-94391171D02*
X55586760Y-94391171D01*
X55586760Y-94914980D02*
X55586760Y-93914980D01*
X56062951Y-93914980D01*
G04 #@! TO.C,C9*
X39791522Y-93914980D02*
X39886760Y-93914980D01*
X39981999Y-93962600D01*
X40029618Y-94010219D01*
X40077237Y-94105457D01*
X40124856Y-94295933D01*
X40124856Y-94534028D01*
X40077237Y-94724504D01*
X40029618Y-94819742D01*
X39981999Y-94867361D01*
X39886760Y-94914980D01*
X39791522Y-94914980D01*
X39696284Y-94867361D01*
X39648665Y-94819742D01*
X39601046Y-94724504D01*
X39553427Y-94534028D01*
X39553427Y-94295933D01*
X39601046Y-94105457D01*
X39648665Y-94010219D01*
X39696284Y-93962600D01*
X39791522Y-93914980D01*
X40553427Y-94819742D02*
X40601046Y-94867361D01*
X40553427Y-94914980D01*
X40505808Y-94867361D01*
X40553427Y-94819742D01*
X40553427Y-94914980D01*
X41553427Y-94914980D02*
X40981999Y-94914980D01*
X41267713Y-94914980D02*
X41267713Y-93914980D01*
X41172475Y-94057838D01*
X41077237Y-94153076D01*
X40981999Y-94200695D01*
X42410570Y-94248314D02*
X42410570Y-94914980D01*
X41981999Y-94248314D02*
X41981999Y-94772123D01*
X42029618Y-94867361D01*
X42124856Y-94914980D01*
X42267713Y-94914980D01*
X42362951Y-94867361D01*
X42410570Y-94819742D01*
X43220094Y-94391171D02*
X42886760Y-94391171D01*
X42886760Y-94914980D02*
X42886760Y-93914980D01*
X43362951Y-93914980D01*
G04 #@! TO.C,C8*
X27051522Y-81214980D02*
X27146760Y-81214980D01*
X27241999Y-81262600D01*
X27289618Y-81310219D01*
X27337237Y-81405457D01*
X27384856Y-81595933D01*
X27384856Y-81834028D01*
X27337237Y-82024504D01*
X27289618Y-82119742D01*
X27241999Y-82167361D01*
X27146760Y-82214980D01*
X27051522Y-82214980D01*
X26956284Y-82167361D01*
X26908665Y-82119742D01*
X26861046Y-82024504D01*
X26813427Y-81834028D01*
X26813427Y-81595933D01*
X26861046Y-81405457D01*
X26908665Y-81310219D01*
X26956284Y-81262600D01*
X27051522Y-81214980D01*
X27813427Y-82119742D02*
X27861046Y-82167361D01*
X27813427Y-82214980D01*
X27765808Y-82167361D01*
X27813427Y-82119742D01*
X27813427Y-82214980D01*
X28813427Y-82214980D02*
X28241999Y-82214980D01*
X28527713Y-82214980D02*
X28527713Y-81214980D01*
X28432475Y-81357838D01*
X28337237Y-81453076D01*
X28241999Y-81500695D01*
X29670570Y-81548314D02*
X29670570Y-82214980D01*
X29241999Y-81548314D02*
X29241999Y-82072123D01*
X29289618Y-82167361D01*
X29384856Y-82214980D01*
X29527713Y-82214980D01*
X29622951Y-82167361D01*
X29670570Y-82119742D01*
X30480094Y-81691171D02*
X30146760Y-81691171D01*
X30146760Y-82214980D02*
X30146760Y-81214980D01*
X30622951Y-81214980D01*
G04 #@! TO.C,C7*
X57531522Y-60386980D02*
X57626760Y-60386980D01*
X57721999Y-60434600D01*
X57769618Y-60482219D01*
X57817237Y-60577457D01*
X57864856Y-60767933D01*
X57864856Y-61006028D01*
X57817237Y-61196504D01*
X57769618Y-61291742D01*
X57721999Y-61339361D01*
X57626760Y-61386980D01*
X57531522Y-61386980D01*
X57436284Y-61339361D01*
X57388665Y-61291742D01*
X57341046Y-61196504D01*
X57293427Y-61006028D01*
X57293427Y-60767933D01*
X57341046Y-60577457D01*
X57388665Y-60482219D01*
X57436284Y-60434600D01*
X57531522Y-60386980D01*
X58293427Y-61291742D02*
X58341046Y-61339361D01*
X58293427Y-61386980D01*
X58245808Y-61339361D01*
X58293427Y-61291742D01*
X58293427Y-61386980D01*
X59293427Y-61386980D02*
X58721999Y-61386980D01*
X59007713Y-61386980D02*
X59007713Y-60386980D01*
X58912475Y-60529838D01*
X58817237Y-60625076D01*
X58721999Y-60672695D01*
X60150570Y-60720314D02*
X60150570Y-61386980D01*
X59721999Y-60720314D02*
X59721999Y-61244123D01*
X59769618Y-61339361D01*
X59864856Y-61386980D01*
X60007713Y-61386980D01*
X60102951Y-61339361D01*
X60150570Y-61291742D01*
X60960094Y-60863171D02*
X60626760Y-60863171D01*
X60626760Y-61386980D02*
X60626760Y-60386980D01*
X61102951Y-60386980D01*
G04 #@! TO.C,C2*
X118237522Y-68006980D02*
X118332760Y-68006980D01*
X118427999Y-68054600D01*
X118475618Y-68102219D01*
X118523237Y-68197457D01*
X118570856Y-68387933D01*
X118570856Y-68626028D01*
X118523237Y-68816504D01*
X118475618Y-68911742D01*
X118427999Y-68959361D01*
X118332760Y-69006980D01*
X118237522Y-69006980D01*
X118142284Y-68959361D01*
X118094665Y-68911742D01*
X118047046Y-68816504D01*
X117999427Y-68626028D01*
X117999427Y-68387933D01*
X118047046Y-68197457D01*
X118094665Y-68102219D01*
X118142284Y-68054600D01*
X118237522Y-68006980D01*
X118999427Y-68911742D02*
X119047046Y-68959361D01*
X118999427Y-69006980D01*
X118951808Y-68959361D01*
X118999427Y-68911742D01*
X118999427Y-69006980D01*
X119999427Y-69006980D02*
X119427999Y-69006980D01*
X119713713Y-69006980D02*
X119713713Y-68006980D01*
X119618475Y-68149838D01*
X119523237Y-68245076D01*
X119427999Y-68292695D01*
X120856570Y-68340314D02*
X120856570Y-69006980D01*
X120427999Y-68340314D02*
X120427999Y-68864123D01*
X120475618Y-68959361D01*
X120570856Y-69006980D01*
X120713713Y-69006980D01*
X120808951Y-68959361D01*
X120856570Y-68911742D01*
X121666094Y-68483171D02*
X121332760Y-68483171D01*
X121332760Y-69006980D02*
X121332760Y-68006980D01*
X121808951Y-68006980D01*
G04 #@! TO.C,U2*
X114014665Y-113770980D02*
X113824189Y-113770980D01*
X113728951Y-113818600D01*
X113681332Y-113866219D01*
X113586094Y-114009076D01*
X113538475Y-114199552D01*
X113538475Y-114580504D01*
X113586094Y-114675742D01*
X113633713Y-114723361D01*
X113728951Y-114770980D01*
X113919427Y-114770980D01*
X114014665Y-114723361D01*
X114062284Y-114675742D01*
X114109903Y-114580504D01*
X114109903Y-114342409D01*
X114062284Y-114247171D01*
X114014665Y-114199552D01*
X113919427Y-114151933D01*
X113728951Y-114151933D01*
X113633713Y-114199552D01*
X113586094Y-114247171D01*
X113538475Y-114342409D01*
X114967046Y-114104314D02*
X114967046Y-114770980D01*
X114728951Y-113723361D02*
X114490856Y-114437647D01*
X115109903Y-114437647D01*
X115490856Y-114770980D02*
X115490856Y-113770980D01*
X116062284Y-114770980D02*
X115633713Y-114199552D01*
X116062284Y-113770980D02*
X115490856Y-114342409D01*
G04 #@! TO.C,C1*
X108371522Y-68006980D02*
X108466760Y-68006980D01*
X108561999Y-68054600D01*
X108609618Y-68102219D01*
X108657237Y-68197457D01*
X108704856Y-68387933D01*
X108704856Y-68626028D01*
X108657237Y-68816504D01*
X108609618Y-68911742D01*
X108561999Y-68959361D01*
X108466760Y-69006980D01*
X108371522Y-69006980D01*
X108276284Y-68959361D01*
X108228665Y-68911742D01*
X108181046Y-68816504D01*
X108133427Y-68626028D01*
X108133427Y-68387933D01*
X108181046Y-68197457D01*
X108228665Y-68102219D01*
X108276284Y-68054600D01*
X108371522Y-68006980D01*
X109133427Y-68911742D02*
X109181046Y-68959361D01*
X109133427Y-69006980D01*
X109085808Y-68959361D01*
X109133427Y-68911742D01*
X109133427Y-69006980D01*
X110133427Y-69006980D02*
X109561999Y-69006980D01*
X109847713Y-69006980D02*
X109847713Y-68006980D01*
X109752475Y-68149838D01*
X109657237Y-68245076D01*
X109561999Y-68292695D01*
X110990570Y-68340314D02*
X110990570Y-69006980D01*
X110561999Y-68340314D02*
X110561999Y-68864123D01*
X110609618Y-68959361D01*
X110704856Y-69006980D01*
X110847713Y-69006980D01*
X110942951Y-68959361D01*
X110990570Y-68911742D01*
X111800094Y-68483171D02*
X111466760Y-68483171D01*
X111466760Y-69006980D02*
X111466760Y-68006980D01*
X111942951Y-68006980D01*
G04 #@! TO.C,U3*
X131525141Y-114485266D02*
X132001332Y-114485266D01*
X131429903Y-114770980D02*
X131763237Y-113770980D01*
X132096570Y-114770980D01*
X132382284Y-114723361D02*
X132525141Y-114770980D01*
X132763237Y-114770980D01*
X132858475Y-114723361D01*
X132906094Y-114675742D01*
X132953713Y-114580504D01*
X132953713Y-114485266D01*
X132906094Y-114390028D01*
X132858475Y-114342409D01*
X132763237Y-114294790D01*
X132572760Y-114247171D01*
X132477522Y-114199552D01*
X132429903Y-114151933D01*
X132382284Y-114056695D01*
X132382284Y-113961457D01*
X132429903Y-113866219D01*
X132477522Y-113818600D01*
X132572760Y-113770980D01*
X132810856Y-113770980D01*
X132953713Y-113818600D01*
X133810856Y-113770980D02*
X133620380Y-113770980D01*
X133525141Y-113818600D01*
X133477522Y-113866219D01*
X133382284Y-114009076D01*
X133334665Y-114199552D01*
X133334665Y-114580504D01*
X133382284Y-114675742D01*
X133429903Y-114723361D01*
X133525141Y-114770980D01*
X133715618Y-114770980D01*
X133810856Y-114723361D01*
X133858475Y-114675742D01*
X133906094Y-114580504D01*
X133906094Y-114342409D01*
X133858475Y-114247171D01*
X133810856Y-114199552D01*
X133715618Y-114151933D01*
X133525141Y-114151933D01*
X133429903Y-114199552D01*
X133382284Y-114247171D01*
X133334665Y-114342409D01*
X134906094Y-114675742D02*
X134858475Y-114723361D01*
X134715618Y-114770980D01*
X134620380Y-114770980D01*
X134477522Y-114723361D01*
X134382284Y-114628123D01*
X134334665Y-114532885D01*
X134287046Y-114342409D01*
X134287046Y-114199552D01*
X134334665Y-114009076D01*
X134382284Y-113913838D01*
X134477522Y-113818600D01*
X134620380Y-113770980D01*
X134715618Y-113770980D01*
X134858475Y-113818600D01*
X134906094Y-113866219D01*
X135858475Y-114770980D02*
X135287046Y-114770980D01*
X135572760Y-114770980D02*
X135572760Y-113770980D01*
X135477522Y-113913838D01*
X135382284Y-114009076D01*
X135287046Y-114056695D01*
X136477522Y-113770980D02*
X136572760Y-113770980D01*
X136667999Y-113818600D01*
X136715618Y-113866219D01*
X136763237Y-113961457D01*
X136810856Y-114151933D01*
X136810856Y-114390028D01*
X136763237Y-114580504D01*
X136715618Y-114675742D01*
X136667999Y-114723361D01*
X136572760Y-114770980D01*
X136477522Y-114770980D01*
X136382284Y-114723361D01*
X136334665Y-114675742D01*
X136287046Y-114580504D01*
X136239427Y-114390028D01*
X136239427Y-114151933D01*
X136287046Y-113961457D01*
X136334665Y-113866219D01*
X136382284Y-113818600D01*
X136477522Y-113770980D01*
X137429903Y-113770980D02*
X137525141Y-113770980D01*
X137620380Y-113818600D01*
X137667999Y-113866219D01*
X137715618Y-113961457D01*
X137763237Y-114151933D01*
X137763237Y-114390028D01*
X137715618Y-114580504D01*
X137667999Y-114675742D01*
X137620380Y-114723361D01*
X137525141Y-114770980D01*
X137429903Y-114770980D01*
X137334665Y-114723361D01*
X137287046Y-114675742D01*
X137239427Y-114580504D01*
X137191808Y-114390028D01*
X137191808Y-114151933D01*
X137239427Y-113961457D01*
X137287046Y-113866219D01*
X137334665Y-113818600D01*
X137429903Y-113770980D01*
X138334665Y-114199552D02*
X138239427Y-114151933D01*
X138191808Y-114104314D01*
X138144189Y-114009076D01*
X138144189Y-113961457D01*
X138191808Y-113866219D01*
X138239427Y-113818600D01*
X138334665Y-113770980D01*
X138525141Y-113770980D01*
X138620380Y-113818600D01*
X138667999Y-113866219D01*
X138715618Y-113961457D01*
X138715618Y-114009076D01*
X138667999Y-114104314D01*
X138620380Y-114151933D01*
X138525141Y-114199552D01*
X138334665Y-114199552D01*
X138239427Y-114247171D01*
X138191808Y-114294790D01*
X138144189Y-114390028D01*
X138144189Y-114580504D01*
X138191808Y-114675742D01*
X138239427Y-114723361D01*
X138334665Y-114770980D01*
X138525141Y-114770980D01*
X138620380Y-114723361D01*
X138667999Y-114675742D01*
X138715618Y-114580504D01*
X138715618Y-114390028D01*
X138667999Y-114294790D01*
X138620380Y-114247171D01*
X138525141Y-114199552D01*
G04 #@! TO.C,U4*
X151845141Y-114485266D02*
X152321332Y-114485266D01*
X151749903Y-114770980D02*
X152083237Y-113770980D01*
X152416570Y-114770980D01*
X152702284Y-114723361D02*
X152845141Y-114770980D01*
X153083237Y-114770980D01*
X153178475Y-114723361D01*
X153226094Y-114675742D01*
X153273713Y-114580504D01*
X153273713Y-114485266D01*
X153226094Y-114390028D01*
X153178475Y-114342409D01*
X153083237Y-114294790D01*
X152892760Y-114247171D01*
X152797522Y-114199552D01*
X152749903Y-114151933D01*
X152702284Y-114056695D01*
X152702284Y-113961457D01*
X152749903Y-113866219D01*
X152797522Y-113818600D01*
X152892760Y-113770980D01*
X153130856Y-113770980D01*
X153273713Y-113818600D01*
X154130856Y-113770980D02*
X153940380Y-113770980D01*
X153845141Y-113818600D01*
X153797522Y-113866219D01*
X153702284Y-114009076D01*
X153654665Y-114199552D01*
X153654665Y-114580504D01*
X153702284Y-114675742D01*
X153749903Y-114723361D01*
X153845141Y-114770980D01*
X154035618Y-114770980D01*
X154130856Y-114723361D01*
X154178475Y-114675742D01*
X154226094Y-114580504D01*
X154226094Y-114342409D01*
X154178475Y-114247171D01*
X154130856Y-114199552D01*
X154035618Y-114151933D01*
X153845141Y-114151933D01*
X153749903Y-114199552D01*
X153702284Y-114247171D01*
X153654665Y-114342409D01*
X155226094Y-114675742D02*
X155178475Y-114723361D01*
X155035618Y-114770980D01*
X154940380Y-114770980D01*
X154797522Y-114723361D01*
X154702284Y-114628123D01*
X154654665Y-114532885D01*
X154607046Y-114342409D01*
X154607046Y-114199552D01*
X154654665Y-114009076D01*
X154702284Y-113913838D01*
X154797522Y-113818600D01*
X154940380Y-113770980D01*
X155035618Y-113770980D01*
X155178475Y-113818600D01*
X155226094Y-113866219D01*
X156083237Y-114104314D02*
X156083237Y-114770980D01*
X155845141Y-113723361D02*
X155607046Y-114437647D01*
X156226094Y-114437647D01*
X156797522Y-113770980D02*
X156892760Y-113770980D01*
X156987999Y-113818600D01*
X157035618Y-113866219D01*
X157083237Y-113961457D01*
X157130856Y-114151933D01*
X157130856Y-114390028D01*
X157083237Y-114580504D01*
X157035618Y-114675742D01*
X156987999Y-114723361D01*
X156892760Y-114770980D01*
X156797522Y-114770980D01*
X156702284Y-114723361D01*
X156654665Y-114675742D01*
X156607046Y-114580504D01*
X156559427Y-114390028D01*
X156559427Y-114151933D01*
X156607046Y-113961457D01*
X156654665Y-113866219D01*
X156702284Y-113818600D01*
X156797522Y-113770980D01*
X157749903Y-113770980D02*
X157845141Y-113770980D01*
X157940380Y-113818600D01*
X157987999Y-113866219D01*
X158035618Y-113961457D01*
X158083237Y-114151933D01*
X158083237Y-114390028D01*
X158035618Y-114580504D01*
X157987999Y-114675742D01*
X157940380Y-114723361D01*
X157845141Y-114770980D01*
X157749903Y-114770980D01*
X157654665Y-114723361D01*
X157607046Y-114675742D01*
X157559427Y-114580504D01*
X157511808Y-114390028D01*
X157511808Y-114151933D01*
X157559427Y-113961457D01*
X157607046Y-113866219D01*
X157654665Y-113818600D01*
X157749903Y-113770980D01*
X158654665Y-114199552D02*
X158559427Y-114151933D01*
X158511808Y-114104314D01*
X158464189Y-114009076D01*
X158464189Y-113961457D01*
X158511808Y-113866219D01*
X158559427Y-113818600D01*
X158654665Y-113770980D01*
X158845141Y-113770980D01*
X158940380Y-113818600D01*
X158987999Y-113866219D01*
X159035618Y-113961457D01*
X159035618Y-114009076D01*
X158987999Y-114104314D01*
X158940380Y-114151933D01*
X158845141Y-114199552D01*
X158654665Y-114199552D01*
X158559427Y-114247171D01*
X158511808Y-114294790D01*
X158464189Y-114390028D01*
X158464189Y-114580504D01*
X158511808Y-114675742D01*
X158559427Y-114723361D01*
X158654665Y-114770980D01*
X158845141Y-114770980D01*
X158940380Y-114723361D01*
X158987999Y-114675742D01*
X159035618Y-114580504D01*
X159035618Y-114390028D01*
X158987999Y-114294790D01*
X158940380Y-114247171D01*
X158845141Y-114199552D01*
G04 #@! TO.C,C6*
X175173522Y-95438980D02*
X175268760Y-95438980D01*
X175363999Y-95486600D01*
X175411618Y-95534219D01*
X175459237Y-95629457D01*
X175506856Y-95819933D01*
X175506856Y-96058028D01*
X175459237Y-96248504D01*
X175411618Y-96343742D01*
X175363999Y-96391361D01*
X175268760Y-96438980D01*
X175173522Y-96438980D01*
X175078284Y-96391361D01*
X175030665Y-96343742D01*
X174983046Y-96248504D01*
X174935427Y-96058028D01*
X174935427Y-95819933D01*
X174983046Y-95629457D01*
X175030665Y-95534219D01*
X175078284Y-95486600D01*
X175173522Y-95438980D01*
X175935427Y-96343742D02*
X175983046Y-96391361D01*
X175935427Y-96438980D01*
X175887808Y-96391361D01*
X175935427Y-96343742D01*
X175935427Y-96438980D01*
X176935427Y-96438980D02*
X176363999Y-96438980D01*
X176649713Y-96438980D02*
X176649713Y-95438980D01*
X176554475Y-95581838D01*
X176459237Y-95677076D01*
X176363999Y-95724695D01*
X177792570Y-95772314D02*
X177792570Y-96438980D01*
X177363999Y-95772314D02*
X177363999Y-96296123D01*
X177411618Y-96391361D01*
X177506856Y-96438980D01*
X177649713Y-96438980D01*
X177744951Y-96391361D01*
X177792570Y-96343742D01*
X178602094Y-95915171D02*
X178268760Y-95915171D01*
X178268760Y-96438980D02*
X178268760Y-95438980D01*
X178744951Y-95438980D01*
G04 #@! TO.C,C3*
X138557522Y-68006980D02*
X138652760Y-68006980D01*
X138747999Y-68054600D01*
X138795618Y-68102219D01*
X138843237Y-68197457D01*
X138890856Y-68387933D01*
X138890856Y-68626028D01*
X138843237Y-68816504D01*
X138795618Y-68911742D01*
X138747999Y-68959361D01*
X138652760Y-69006980D01*
X138557522Y-69006980D01*
X138462284Y-68959361D01*
X138414665Y-68911742D01*
X138367046Y-68816504D01*
X138319427Y-68626028D01*
X138319427Y-68387933D01*
X138367046Y-68197457D01*
X138414665Y-68102219D01*
X138462284Y-68054600D01*
X138557522Y-68006980D01*
X139319427Y-68911742D02*
X139367046Y-68959361D01*
X139319427Y-69006980D01*
X139271808Y-68959361D01*
X139319427Y-68911742D01*
X139319427Y-69006980D01*
X140319427Y-69006980D02*
X139747999Y-69006980D01*
X140033713Y-69006980D02*
X140033713Y-68006980D01*
X139938475Y-68149838D01*
X139843237Y-68245076D01*
X139747999Y-68292695D01*
X141176570Y-68340314D02*
X141176570Y-69006980D01*
X140747999Y-68340314D02*
X140747999Y-68864123D01*
X140795618Y-68959361D01*
X140890856Y-69006980D01*
X141033713Y-69006980D01*
X141128951Y-68959361D01*
X141176570Y-68911742D01*
X141986094Y-68483171D02*
X141652760Y-68483171D01*
X141652760Y-69006980D02*
X141652760Y-68006980D01*
X142128951Y-68006980D01*
G04 #@! TO.C,U6*
X172387332Y-118850980D02*
X173053999Y-118850980D01*
X172625427Y-119850980D01*
X173863522Y-119184314D02*
X173863522Y-119850980D01*
X173625427Y-118803361D02*
X173387332Y-119517647D01*
X174006380Y-119517647D01*
X174863522Y-119850980D02*
X174387332Y-119850980D01*
X174387332Y-118850980D01*
X175149237Y-119803361D02*
X175292094Y-119850980D01*
X175530189Y-119850980D01*
X175625427Y-119803361D01*
X175673046Y-119755742D01*
X175720665Y-119660504D01*
X175720665Y-119565266D01*
X175673046Y-119470028D01*
X175625427Y-119422409D01*
X175530189Y-119374790D01*
X175339713Y-119327171D01*
X175244475Y-119279552D01*
X175196856Y-119231933D01*
X175149237Y-119136695D01*
X175149237Y-119041457D01*
X175196856Y-118946219D01*
X175244475Y-118898600D01*
X175339713Y-118850980D01*
X175577808Y-118850980D01*
X175720665Y-118898600D01*
X176673046Y-119850980D02*
X176101618Y-119850980D01*
X176387332Y-119850980D02*
X176387332Y-118850980D01*
X176292094Y-118993838D01*
X176196856Y-119089076D01*
X176101618Y-119136695D01*
X177006380Y-118850980D02*
X177625427Y-118850980D01*
X177292094Y-119231933D01*
X177434951Y-119231933D01*
X177530189Y-119279552D01*
X177577808Y-119327171D01*
X177625427Y-119422409D01*
X177625427Y-119660504D01*
X177577808Y-119755742D01*
X177530189Y-119803361D01*
X177434951Y-119850980D01*
X177149237Y-119850980D01*
X177053999Y-119803361D01*
X177006380Y-119755742D01*
X178196856Y-119279552D02*
X178101618Y-119231933D01*
X178053999Y-119184314D01*
X178006380Y-119089076D01*
X178006380Y-119041457D01*
X178053999Y-118946219D01*
X178101618Y-118898600D01*
X178196856Y-118850980D01*
X178387332Y-118850980D01*
X178482570Y-118898600D01*
X178530189Y-118946219D01*
X178577808Y-119041457D01*
X178577808Y-119089076D01*
X178530189Y-119184314D01*
X178482570Y-119231933D01*
X178387332Y-119279552D01*
X178196856Y-119279552D01*
X178101618Y-119327171D01*
X178053999Y-119374790D01*
X178006380Y-119470028D01*
X178006380Y-119660504D01*
X178053999Y-119755742D01*
X178101618Y-119803361D01*
X178196856Y-119850980D01*
X178387332Y-119850980D01*
X178482570Y-119803361D01*
X178530189Y-119755742D01*
X178577808Y-119660504D01*
X178577808Y-119470028D01*
X178530189Y-119374790D01*
X178482570Y-119327171D01*
X178387332Y-119279552D01*
G04 #@! TO.C,U5*
X172387332Y-93450980D02*
X173053999Y-93450980D01*
X172625427Y-94450980D01*
X173863522Y-93784314D02*
X173863522Y-94450980D01*
X173625427Y-93403361D02*
X173387332Y-94117647D01*
X174006380Y-94117647D01*
X174863522Y-94450980D02*
X174387332Y-94450980D01*
X174387332Y-93450980D01*
X175149237Y-94403361D02*
X175292094Y-94450980D01*
X175530189Y-94450980D01*
X175625427Y-94403361D01*
X175673046Y-94355742D01*
X175720665Y-94260504D01*
X175720665Y-94165266D01*
X175673046Y-94070028D01*
X175625427Y-94022409D01*
X175530189Y-93974790D01*
X175339713Y-93927171D01*
X175244475Y-93879552D01*
X175196856Y-93831933D01*
X175149237Y-93736695D01*
X175149237Y-93641457D01*
X175196856Y-93546219D01*
X175244475Y-93498600D01*
X175339713Y-93450980D01*
X175577808Y-93450980D01*
X175720665Y-93498600D01*
X176673046Y-94450980D02*
X176101618Y-94450980D01*
X176387332Y-94450980D02*
X176387332Y-93450980D01*
X176292094Y-93593838D01*
X176196856Y-93689076D01*
X176101618Y-93736695D01*
X177006380Y-93450980D02*
X177625427Y-93450980D01*
X177292094Y-93831933D01*
X177434951Y-93831933D01*
X177530189Y-93879552D01*
X177577808Y-93927171D01*
X177625427Y-94022409D01*
X177625427Y-94260504D01*
X177577808Y-94355742D01*
X177530189Y-94403361D01*
X177434951Y-94450980D01*
X177149237Y-94450980D01*
X177053999Y-94403361D01*
X177006380Y-94355742D01*
X178101618Y-94450980D02*
X178292094Y-94450980D01*
X178387332Y-94403361D01*
X178434951Y-94355742D01*
X178530189Y-94212885D01*
X178577808Y-94022409D01*
X178577808Y-93641457D01*
X178530189Y-93546219D01*
X178482570Y-93498600D01*
X178387332Y-93450980D01*
X178196856Y-93450980D01*
X178101618Y-93498600D01*
X178053999Y-93546219D01*
X178006380Y-93641457D01*
X178006380Y-93879552D01*
X178053999Y-93974790D01*
X178101618Y-94022409D01*
X178196856Y-94070028D01*
X178387332Y-94070028D01*
X178482570Y-94022409D01*
X178530189Y-93974790D01*
X178577808Y-93879552D01*
G04 #@! TO.C,C5*
X175173522Y-68006980D02*
X175268760Y-68006980D01*
X175363999Y-68054600D01*
X175411618Y-68102219D01*
X175459237Y-68197457D01*
X175506856Y-68387933D01*
X175506856Y-68626028D01*
X175459237Y-68816504D01*
X175411618Y-68911742D01*
X175363999Y-68959361D01*
X175268760Y-69006980D01*
X175173522Y-69006980D01*
X175078284Y-68959361D01*
X175030665Y-68911742D01*
X174983046Y-68816504D01*
X174935427Y-68626028D01*
X174935427Y-68387933D01*
X174983046Y-68197457D01*
X175030665Y-68102219D01*
X175078284Y-68054600D01*
X175173522Y-68006980D01*
X175935427Y-68911742D02*
X175983046Y-68959361D01*
X175935427Y-69006980D01*
X175887808Y-68959361D01*
X175935427Y-68911742D01*
X175935427Y-69006980D01*
X176935427Y-69006980D02*
X176363999Y-69006980D01*
X176649713Y-69006980D02*
X176649713Y-68006980D01*
X176554475Y-68149838D01*
X176459237Y-68245076D01*
X176363999Y-68292695D01*
X177792570Y-68340314D02*
X177792570Y-69006980D01*
X177363999Y-68340314D02*
X177363999Y-68864123D01*
X177411618Y-68959361D01*
X177506856Y-69006980D01*
X177649713Y-69006980D01*
X177744951Y-68959361D01*
X177792570Y-68911742D01*
X178602094Y-68483171D02*
X178268760Y-68483171D01*
X178268760Y-69006980D02*
X178268760Y-68006980D01*
X178744951Y-68006980D01*
G04 #@! TO.C,C4*
X158917522Y-68006980D02*
X159012760Y-68006980D01*
X159107999Y-68054600D01*
X159155618Y-68102219D01*
X159203237Y-68197457D01*
X159250856Y-68387933D01*
X159250856Y-68626028D01*
X159203237Y-68816504D01*
X159155618Y-68911742D01*
X159107999Y-68959361D01*
X159012760Y-69006980D01*
X158917522Y-69006980D01*
X158822284Y-68959361D01*
X158774665Y-68911742D01*
X158727046Y-68816504D01*
X158679427Y-68626028D01*
X158679427Y-68387933D01*
X158727046Y-68197457D01*
X158774665Y-68102219D01*
X158822284Y-68054600D01*
X158917522Y-68006980D01*
X159679427Y-68911742D02*
X159727046Y-68959361D01*
X159679427Y-69006980D01*
X159631808Y-68959361D01*
X159679427Y-68911742D01*
X159679427Y-69006980D01*
X160679427Y-69006980D02*
X160107999Y-69006980D01*
X160393713Y-69006980D02*
X160393713Y-68006980D01*
X160298475Y-68149838D01*
X160203237Y-68245076D01*
X160107999Y-68292695D01*
X161536570Y-68340314D02*
X161536570Y-69006980D01*
X161107999Y-68340314D02*
X161107999Y-68864123D01*
X161155618Y-68959361D01*
X161250856Y-69006980D01*
X161393713Y-69006980D01*
X161488951Y-68959361D01*
X161536570Y-68911742D01*
X162346094Y-68483171D02*
X162012760Y-68483171D01*
X162012760Y-69006980D02*
X162012760Y-68006980D01*
X162488951Y-68006980D01*
G04 #@! TO.C,*
G04 #@! TD*
M02*
