M48
; DRILL file {KiCad (5.1.8)-1} date 11/28/22 04:52:31
; FORMAT={-:-/ absolute / inch / decimal}
; #@! TF.CreationDate,2022-11-28T04:52:31-07:00
; #@! TF.GenerationSoftware,Kicad,Pcbnew,(5.1.8)-1
; #@! TF.FileFunction,Plated,1,2,PTH
FMAT,2
INCH
T1C0.0157
T2C0.0315
T3C0.0394
T4C0.1200
%
G90
G05
T1
X1.6597Y-3.419
X1.6597Y-4.709
X1.6897Y-3.469
X1.6897Y-4.679
X1.7197Y-3.519
X1.7197Y-4.529
X1.7497Y-3.569
X1.7497Y-4.559
X1.7797Y-3.619
X1.7797Y-4.589
X1.8097Y-3.669
X1.8097Y-4.619
X1.8597Y-4.649
X1.9597Y-1.699
X1.9597Y-4.439
X2.0097Y-1.729
X2.0097Y-4.499
X2.0597Y-1.759
X2.0597Y-4.469
X2.1097Y-1.789
X2.1597Y-1.989
X2.2097Y-2.019
X2.2597Y-2.049
X2.2597Y-3.959
X2.2597Y-4.769
X2.3097Y-2.079
X2.3097Y-4.499
X2.3097Y-4.909
X2.3597Y-4.319
X2.4097Y-2.349
X2.4097Y-3.169
X2.4097Y-4.469
X2.4097Y-4.909
X2.4597Y-2.379
X2.5097Y-2.409
X2.5097Y-4.439
X2.5097Y-4.909
X2.5597Y-2.439
X2.5597Y-3.929
X2.6097Y-2.469
X2.6097Y-3.899
X2.6597Y-2.499
X2.7097Y-2.529
X2.7097Y-4.799
X2.7097Y-4.909
X2.7597Y-2.559
X2.8097Y-4.739
X2.8097Y-4.909
X2.8597Y-2.589
X2.9197Y-2.619
X2.9197Y-2.969
X2.9397Y-4.709
X2.9497Y-2.649
X2.9497Y-3.019
X2.9797Y-2.679
X2.9797Y-3.069
X2.9797Y-3.269
X2.9797Y-4.739
X3.0097Y-3.469
X3.0097Y-4.909
X3.0397Y-3.569
X3.0397Y-4.769
X3.0497Y-3.189
X3.0697Y-2.909
X3.0797Y-3.789
X3.0797Y-4.739
X3.1097Y-3.719
X3.1097Y-4.769
X3.1297Y-2.759
X3.1297Y-3.319
X3.1397Y-3.419
X3.1397Y-4.709
X3.1697Y-2.319
X3.1697Y-3.899
X3.1991Y-2.2896
X3.1991Y-3.929
X3.2297Y-1.949
X3.2297Y-2.229
X3.2297Y-3.959
X3.2297Y-4.829
X3.2597Y-2.259
X3.2597Y-3.219
X3.2597Y-4.799
X3.2897Y-2.959
X3.2897Y-3.819
X3.3097Y-1.699
X3.3197Y-3.189
X3.3197Y-4.799
X3.4097Y-1.729
X3.4097Y-4.909
X3.4997Y-3.989
X3.5097Y-1.759
X3.5097Y-4.909
X3.5297Y-3.889
X3.5697Y-2.759
X3.6097Y-1.789
X3.6097Y-3.789
X3.6097Y-4.909
X3.6597Y-4.829
X3.7097Y-1.989
X3.7097Y-3.689
X3.7097Y-4.909
X3.7597Y-2.929
X3.7597Y-3.129
X3.7597Y-4.389
X3.8097Y-2.019
X3.8097Y-3.589
X3.8097Y-4.909
X3.8897Y-3.489
X3.9097Y-2.049
X3.9097Y-4.909
X3.9197Y-3.389
X3.9597Y-4.529
X4.0097Y-2.079
X4.0097Y-4.909
X4.0197Y-2.759
X4.0597Y-4.559
X4.0797Y-2.259
X4.1097Y-3.289
X4.1097Y-4.909
X4.1397Y-3.929
X4.1397Y-4.529
X4.1597Y-4.589
X4.2097Y-4.909
X4.2197Y-2.849
X4.2597Y-4.619
X4.2897Y-3.459
X4.2997Y-2.349
X4.3097Y-4.909
X4.3297Y-2.379
X4.3297Y-3.529
X4.3597Y-4.649
X4.3697Y-2.409
X4.4097Y-3.829
X4.4097Y-4.909
X4.4297Y-1.949
X4.4297Y-2.229
X4.4497Y-3.129
X4.4797Y-3.729
X4.5097Y-2.439
X4.5097Y-3.629
X4.5097Y-4.909
X4.5597Y-2.469
X4.5597Y-4.799
X4.6097Y-3.189
X4.6097Y-4.909
X4.7097Y-2.499
X4.7097Y-3.329
X4.7097Y-4.909
X4.7497Y-2.529
X4.7497Y-3.229
X4.8097Y-4.909
X4.8597Y-2.589
X4.8997Y-2.559
X4.9097Y-3.059
X4.9097Y-4.909
X4.9297Y-2.989
X4.9797Y-2.619
X5.0097Y-4.909
X5.0297Y-2.379
X5.0597Y-4.769
X5.0797Y-2.649
X5.1097Y-2.989
X5.1097Y-4.619
X5.1097Y-4.909
X5.1297Y-2.889
X5.1397Y-3.089
X5.1397Y-3.259
X5.1597Y-4.739
X5.1797Y-2.679
X5.2097Y-4.589
X5.2097Y-4.909
X5.2297Y-2.349
X5.2597Y-3.729
X5.2797Y-2.259
X5.3097Y-4.559
X5.3097Y-4.909
X5.3597Y-2.959
X5.3597Y-3.229
X5.3897Y-3.959
X5.3897Y-4.649
X5.4097Y-4.709
X5.4097Y-4.909
X5.4597Y-4.389
X5.4997Y-2.759
X5.4997Y-3.129
X5.5497Y-4.059
X5.6097Y-4.909
X5.6297Y-1.949
X5.7097Y-1.699
X5.7097Y-4.189
X5.7097Y-4.909
X5.7497Y-4.289
X5.8097Y-1.729
X5.8097Y-4.909
X5.9097Y-1.759
X5.9097Y-4.909
X5.9197Y-4.429
X5.9497Y-2.889
X5.9497Y-4.589
X6.0097Y-1.789
X6.0097Y-4.329
X6.0097Y-4.909
X6.0597Y-4.679
X6.1097Y-1.989
X6.1097Y-4.229
X6.1097Y-4.909
X6.1397Y-2.759
X6.2097Y-2.019
X6.2097Y-4.129
X6.2097Y-4.909
X6.2697Y-3.359
X6.2697Y-3.929
X6.3097Y-2.049
X6.3097Y-4.029
X6.3097Y-4.909
X6.3597Y-4.359
X6.4097Y-2.079
X6.4297Y-2.289
X6.4497Y-2.049
X6.4797Y-2.319
X6.5297Y-3.229
X6.5297Y-3.929
X6.5897Y-2.959
X6.5897Y-3.909
X6.6197Y-2.379
X6.6197Y-3.159
X6.6197Y-4.009
X6.6197Y-4.619
X6.6497Y-3.259
X6.6497Y-4.109
X6.6497Y-4.589
X6.6797Y-2.349
X6.6797Y-2.989
X6.6797Y-4.559
X6.8097Y-2.049
X6.8097Y-2.159
X6.8097Y-2.719
X6.8597Y-2.909
X6.8597Y-3.109
X6.8597Y-3.609
X6.8597Y-4.309
X6.8597Y-4.609
X6.8597Y-4.799
X6.8697Y-2.569
X6.9097Y-3.019
X6.9097Y-3.329
X6.9097Y-4.219
X6.9597Y-2.719
X6.9597Y-3.779
X6.9597Y-4.409
X7.0597Y-2.719
T2
X6.8628Y-2.779
X7.0597Y-2.779
X6.7597Y-3.909
X6.7597Y-4.009
X6.7597Y-4.109
X6.7597Y-4.209
X6.7597Y-4.309
X6.7597Y-4.409
X6.7597Y-4.509
X6.7597Y-4.609
X7.0597Y-3.909
X7.0597Y-4.009
X7.0597Y-4.109
X7.0597Y-4.209
X7.0597Y-4.309
X7.0597Y-4.409
X7.0597Y-4.509
X7.0597Y-4.609
X4.6228Y-2.779
X4.8197Y-2.779
X2.3068Y-4.079
X2.4997Y-4.079
X5.4597Y-1.9621
X5.4597Y-2.159
X5.8197Y-2.909
X5.8197Y-3.009
X5.8197Y-3.109
X5.8197Y-3.209
X5.8197Y-3.309
X5.8197Y-3.409
X5.8197Y-3.509
X5.8197Y-3.609
X5.8197Y-3.709
X5.8197Y-3.809
X5.8197Y-3.909
X5.8197Y-4.009
X5.8197Y-4.109
X5.8197Y-4.209
X5.8197Y-4.309
X5.8197Y-4.409
X6.4197Y-2.909
X6.4197Y-3.009
X6.4197Y-3.109
X6.4197Y-3.209
X6.4197Y-3.309
X6.4197Y-3.409
X6.4197Y-3.509
X6.4197Y-3.609
X6.4197Y-3.709
X6.4197Y-3.809
X6.4197Y-3.909
X6.4197Y-4.009
X6.4197Y-4.109
X6.4197Y-4.209
X6.4197Y-4.309
X6.4197Y-4.409
X4.4297Y-1.859
X4.4297Y-2.159
X4.5297Y-1.859
X4.5297Y-2.159
X4.6297Y-1.859
X4.6297Y-2.159
X4.7297Y-1.859
X4.7297Y-2.159
X4.8297Y-1.859
X4.8297Y-2.159
X4.9297Y-1.859
X4.9297Y-2.159
X5.0297Y-1.859
X5.0297Y-2.159
X5.1297Y-1.859
X5.1297Y-2.159
X5.2297Y-1.859
X5.2297Y-2.159
X5.3297Y-1.859
X5.3297Y-2.159
X6.6597Y-1.9621
X6.6597Y-2.159
X5.0197Y-2.909
X5.0197Y-3.009
X5.0197Y-3.109
X5.0197Y-3.209
X5.0197Y-3.309
X5.0197Y-3.409
X5.0197Y-3.509
X5.0197Y-3.609
X5.0197Y-3.709
X5.0197Y-3.809
X5.0197Y-3.909
X5.0197Y-4.009
X5.0197Y-4.109
X5.0197Y-4.209
X5.0197Y-4.309
X5.0197Y-4.409
X5.6197Y-2.909
X5.6197Y-3.009
X5.6197Y-3.109
X5.6197Y-3.209
X5.6197Y-3.309
X5.6197Y-3.409
X5.6197Y-3.509
X5.6197Y-3.609
X5.6197Y-3.709
X5.6197Y-3.809
X5.6197Y-3.909
X5.6197Y-4.009
X5.6197Y-4.109
X5.6197Y-4.209
X5.6197Y-4.309
X5.6197Y-4.409
X5.6297Y-1.859
X5.6297Y-2.159
X5.7297Y-1.859
X5.7297Y-2.159
X5.8297Y-1.859
X5.8297Y-2.159
X5.9297Y-1.859
X5.9297Y-2.159
X6.0297Y-1.859
X6.0297Y-2.159
X6.1297Y-1.859
X6.1297Y-2.159
X6.2297Y-1.859
X6.2297Y-2.159
X6.3297Y-1.859
X6.3297Y-2.159
X6.4297Y-1.859
X6.4297Y-2.159
X6.5297Y-1.859
X6.5297Y-2.159
X3.0497Y-3.1221
X3.0497Y-3.319
X4.2197Y-2.909
X4.2197Y-3.009
X4.2197Y-3.109
X4.2197Y-3.209
X4.2197Y-3.309
X4.2197Y-3.409
X4.2197Y-3.509
X4.2197Y-3.609
X4.2197Y-3.709
X4.2197Y-3.809
X4.2197Y-3.909
X4.2197Y-4.009
X4.2197Y-4.109
X4.2197Y-4.209
X4.2197Y-4.309
X4.2197Y-4.409
X4.8197Y-2.909
X4.8197Y-3.009
X4.8197Y-3.109
X4.8197Y-3.209
X4.8197Y-3.309
X4.8197Y-3.409
X4.8197Y-3.509
X4.8197Y-3.609
X4.8197Y-3.709
X4.8197Y-3.809
X4.8197Y-3.909
X4.8197Y-4.009
X4.8197Y-4.109
X4.8197Y-4.209
X4.8197Y-4.309
X4.8197Y-4.409
X6.2228Y-2.779
X6.4197Y-2.779
X4.2597Y-1.9621
X4.2597Y-2.159
X5.4228Y-2.779
X5.6197Y-2.779
X2.1197Y-4.319
X2.5197Y-4.319
X3.2297Y-1.859
X3.2297Y-2.159
X3.3297Y-1.859
X3.3297Y-2.159
X3.4297Y-1.859
X3.4297Y-2.159
X3.5297Y-1.859
X3.5297Y-2.159
X3.6297Y-1.859
X3.6297Y-2.159
X3.7297Y-1.859
X3.7297Y-2.159
X3.8297Y-1.859
X3.8297Y-2.159
X3.9297Y-1.859
X3.9297Y-2.159
X4.0297Y-1.859
X4.0297Y-2.159
X4.1297Y-1.859
X4.1297Y-2.159
X6.7597Y-2.909
X6.7597Y-3.009
X6.7597Y-3.109
X6.7597Y-3.209
X6.7597Y-3.309
X6.7597Y-3.409
X6.7597Y-3.509
X6.7597Y-3.609
X7.0597Y-2.909
X7.0597Y-3.009
X7.0597Y-3.109
X7.0597Y-3.209
X7.0597Y-3.309
X7.0597Y-3.409
X7.0597Y-3.509
X7.0597Y-3.609
X4.2328Y-2.779
X4.4297Y-2.779
X6.8628Y-3.779
X7.0597Y-3.779
X1.8597Y-2.919
X1.8597Y-3.019
X1.8597Y-3.119
X1.8597Y-3.219
X1.8597Y-3.319
X1.8597Y-3.419
X1.8597Y-3.519
X1.8597Y-3.619
X1.8597Y-3.719
X1.9597Y-2.819
X1.9597Y-2.919
X1.9597Y-3.019
X1.9597Y-3.119
X1.9597Y-3.219
X1.9597Y-3.319
X1.9597Y-3.419
X1.9597Y-3.519
X1.9597Y-3.619
X1.9597Y-3.719
X1.9597Y-3.819
X2.0597Y-2.819
X2.0597Y-2.919
X2.0597Y-3.719
X2.0597Y-3.819
X2.1597Y-2.819
X2.1597Y-2.919
X2.1597Y-3.719
X2.1597Y-3.819
X2.2597Y-2.819
X2.2597Y-2.919
X2.2597Y-3.719
X2.2597Y-3.819
X2.3597Y-2.819
X2.3597Y-2.919
X2.3597Y-3.719
X2.3597Y-3.819
X2.4597Y-2.819
X2.4597Y-2.919
X2.4597Y-3.719
X2.4597Y-3.819
X2.5597Y-2.819
X2.5597Y-2.919
X2.5597Y-3.719
X2.5597Y-3.819
X2.6597Y-2.819
X2.6597Y-2.919
X2.6597Y-3.719
X2.6597Y-3.819
X2.7597Y-2.819
X2.7597Y-2.919
X2.7597Y-3.019
X2.7597Y-3.119
X2.7597Y-3.219
X2.7597Y-3.319
X2.7597Y-3.419
X2.7597Y-3.519
X2.7597Y-3.619
X2.7597Y-3.719
X2.7597Y-3.819
X2.8597Y-2.919
X2.8597Y-3.019
X2.8597Y-3.119
X2.8597Y-3.219
X2.8597Y-3.319
X2.8597Y-3.419
X2.8597Y-3.519
X2.8597Y-3.619
X2.8597Y-3.719
X6.8097Y-1.909
X6.8097Y-2.309
T3
X3.4197Y-2.909
X3.4197Y-3.009
X3.4197Y-3.109
X3.4197Y-3.209
X3.4197Y-3.309
X3.4197Y-3.409
X3.4197Y-3.509
X3.4197Y-3.609
X3.4197Y-3.709
X3.4197Y-3.809
X3.4197Y-3.909
X3.4197Y-4.009
X3.4197Y-4.109
X3.4197Y-4.209
X3.4197Y-4.309
X3.4197Y-4.409
X4.0197Y-2.909
X4.0197Y-3.009
X4.0197Y-3.109
X4.0197Y-3.209
X4.0197Y-3.309
X4.0197Y-3.409
X4.0197Y-3.509
X4.0197Y-3.609
X4.0197Y-3.709
X4.0197Y-3.809
X4.0197Y-3.909
X4.0197Y-4.009
X4.0197Y-4.109
X4.0197Y-4.209
X4.0197Y-4.309
X4.0197Y-4.409
T4
X7.1497Y-4.809
X7.1497Y-2.559
T0
M30
