G04 #@! TF.GenerationSoftware,KiCad,Pcbnew,(5.1.8)-1*
G04 #@! TF.CreationDate,2022-11-03T13:19:36-06:00*
G04 #@! TF.ProjectId,V40 64K 640K ISA,56343020-3634-44b2-9036-34304b204953,rev?*
G04 #@! TF.SameCoordinates,Original*
G04 #@! TF.FileFunction,Soldermask,Top*
G04 #@! TF.FilePolarity,Negative*
%FSLAX46Y46*%
G04 Gerber Fmt 4.6, Leading zero omitted, Abs format (unit mm)*
G04 Created by KiCad (PCBNEW (5.1.8)-1) date 2022-11-03 13:19:36*
%MOMM*%
%LPD*%
G01*
G04 APERTURE LIST*
%ADD10O,2.000000X1.440000*%
%ADD11R,2.000000X1.440000*%
%ADD12O,1.600000X1.600000*%
%ADD13C,1.600000*%
%ADD14C,1.500000*%
%ADD15R,1.600000X1.600000*%
%ADD16C,1.422400*%
%ADD17R,1.422400X1.422400*%
%ADD18R,1.780000X7.620000*%
%ADD19C,3.556000*%
G04 APERTURE END LIST*
D10*
G04 #@! TO.C,U1*
X102100380Y-111988600D03*
X86860380Y-111988600D03*
X102100380Y-109448600D03*
X86860380Y-109448600D03*
X102100380Y-106908600D03*
X86860380Y-106908600D03*
X102100380Y-104368600D03*
X86860380Y-104368600D03*
X102100380Y-101828600D03*
X86860380Y-101828600D03*
X102100380Y-99288600D03*
X86860380Y-99288600D03*
X102100380Y-96748600D03*
X86860380Y-96748600D03*
X102100380Y-94208600D03*
X86860380Y-94208600D03*
X102100380Y-91668600D03*
X86860380Y-91668600D03*
X102100380Y-89128600D03*
X86860380Y-89128600D03*
X102100380Y-86588600D03*
X86860380Y-86588600D03*
X102100380Y-84048600D03*
X86860380Y-84048600D03*
X102100380Y-81508600D03*
X86860380Y-81508600D03*
X102100380Y-78968600D03*
X86860380Y-78968600D03*
X102100380Y-76428600D03*
X86860380Y-76428600D03*
X102100380Y-73888600D03*
D11*
X86860380Y-73888600D03*
G04 #@! TD*
D12*
G04 #@! TO.C,R2*
X41394380Y-73126600D03*
D13*
X31234380Y-73126600D03*
G04 #@! TD*
D12*
G04 #@! TO.C,R1*
X31234380Y-76174600D03*
D13*
X41394380Y-76174600D03*
G04 #@! TD*
D14*
G04 #@! TO.C,Y1*
X114874380Y-62458600D03*
X109974380Y-62458600D03*
G04 #@! TD*
D12*
G04 #@! TO.C,U10*
X56634380Y-99796600D03*
X49014380Y-122656600D03*
X56634380Y-102336600D03*
X49014380Y-120116600D03*
X56634380Y-104876600D03*
X49014380Y-117576600D03*
X56634380Y-107416600D03*
X49014380Y-115036600D03*
X56634380Y-109956600D03*
X49014380Y-112496600D03*
X56634380Y-112496600D03*
X49014380Y-109956600D03*
X56634380Y-115036600D03*
X49014380Y-107416600D03*
X56634380Y-117576600D03*
X49014380Y-104876600D03*
X56634380Y-120116600D03*
X49014380Y-102336600D03*
X56634380Y-122656600D03*
D15*
X49014380Y-99796600D03*
G04 #@! TD*
D12*
G04 #@! TO.C,U9*
X43934380Y-99796600D03*
X36314380Y-122656600D03*
X43934380Y-102336600D03*
X36314380Y-120116600D03*
X43934380Y-104876600D03*
X36314380Y-117576600D03*
X43934380Y-107416600D03*
X36314380Y-115036600D03*
X43934380Y-109956600D03*
X36314380Y-112496600D03*
X43934380Y-112496600D03*
X36314380Y-109956600D03*
X43934380Y-115036600D03*
X36314380Y-107416600D03*
X43934380Y-117576600D03*
X36314380Y-104876600D03*
X43934380Y-120116600D03*
X36314380Y-102336600D03*
X43934380Y-122656600D03*
D15*
X36314380Y-99796600D03*
G04 #@! TD*
D12*
G04 #@! TO.C,U8*
X31234380Y-87096600D03*
X23614380Y-109956600D03*
X31234380Y-89636600D03*
X23614380Y-107416600D03*
X31234380Y-92176600D03*
X23614380Y-104876600D03*
X31234380Y-94716600D03*
X23614380Y-102336600D03*
X31234380Y-97256600D03*
X23614380Y-99796600D03*
X31234380Y-99796600D03*
X23614380Y-97256600D03*
X31234380Y-102336600D03*
X23614380Y-94716600D03*
X31234380Y-104876600D03*
X23614380Y-92176600D03*
X31234380Y-107416600D03*
X23614380Y-89636600D03*
X31234380Y-109956600D03*
D15*
X23614380Y-87096600D03*
G04 #@! TD*
D16*
G04 #@! TO.C,U7*
X74414380Y-68046600D03*
X74414380Y-70586600D03*
X74414380Y-73126600D03*
X74414380Y-75666600D03*
X74414380Y-78206600D03*
X74414380Y-80746600D03*
X74414380Y-83286600D03*
X74414380Y-85826600D03*
X71874380Y-65506600D03*
X71874380Y-70586600D03*
X71874380Y-73126600D03*
X71874380Y-75666600D03*
X71874380Y-78206600D03*
X71874380Y-80746600D03*
X71874380Y-83286600D03*
X71874380Y-85826600D03*
X71874380Y-88366600D03*
X71874380Y-90906600D03*
X69334380Y-90906600D03*
X66794380Y-90906600D03*
X64254380Y-90906600D03*
X61714380Y-90906600D03*
X59174380Y-90906600D03*
X56634380Y-90906600D03*
X54094380Y-90906600D03*
X51554380Y-90906600D03*
X74414380Y-88366600D03*
X69334380Y-88366600D03*
X66794380Y-88366600D03*
X64254380Y-88366600D03*
X61714380Y-88366600D03*
X59174380Y-88366600D03*
X56634380Y-88366600D03*
X54094380Y-88366600D03*
X51554380Y-88366600D03*
X49014380Y-88366600D03*
X49014380Y-85826600D03*
X49014380Y-83286600D03*
X49014380Y-80746600D03*
X49014380Y-78206600D03*
X49014380Y-75666600D03*
X49014380Y-73126600D03*
X49014380Y-70586600D03*
X49014380Y-68046600D03*
X51554380Y-85826600D03*
X51554380Y-83286600D03*
X51554380Y-80746600D03*
X51554380Y-78206600D03*
X51554380Y-75666600D03*
X51554380Y-73126600D03*
X51554380Y-70586600D03*
X51554380Y-68046600D03*
X69334380Y-65506600D03*
X66794380Y-65506600D03*
X64254380Y-65506600D03*
X51554380Y-65506600D03*
X54094380Y-65506600D03*
X56634380Y-65506600D03*
X59174380Y-65506600D03*
D17*
X61714380Y-65506600D03*
D16*
X71874380Y-68046600D03*
X69334380Y-68046600D03*
X66794380Y-68046600D03*
X64254380Y-68046600D03*
X54094380Y-68046600D03*
X56634380Y-68046600D03*
X59174380Y-68046600D03*
X61714380Y-68046600D03*
G04 #@! TD*
D18*
G04 #@! TO.C,J1*
X57396380Y-129768600D03*
X59936380Y-129768600D03*
X62476380Y-129768600D03*
X65016380Y-129768600D03*
X67556380Y-129768600D03*
X70096380Y-129768600D03*
X72636380Y-129768600D03*
X75176380Y-129768600D03*
G04 #@! TD*
D13*
G04 #@! TO.C,C10*
X56634380Y-96494600D03*
X51634380Y-96494600D03*
G04 #@! TD*
G04 #@! TO.C,C9*
X43934380Y-96494600D03*
X38934380Y-96494600D03*
G04 #@! TD*
G04 #@! TO.C,C8*
X31234380Y-83794600D03*
X26234380Y-83794600D03*
G04 #@! TD*
G04 #@! TO.C,C7*
X61714380Y-60934600D03*
X56714380Y-60934600D03*
G04 #@! TD*
G04 #@! TO.C,C2*
X122420380Y-70586600D03*
X117420380Y-70586600D03*
G04 #@! TD*
D12*
G04 #@! TO.C,U2*
X122420380Y-73888600D03*
X107180380Y-111988600D03*
X122420380Y-76428600D03*
X107180380Y-109448600D03*
X122420380Y-78968600D03*
X107180380Y-106908600D03*
X122420380Y-81508600D03*
X107180380Y-104368600D03*
X122420380Y-84048600D03*
X107180380Y-101828600D03*
X122420380Y-86588600D03*
X107180380Y-99288600D03*
X122420380Y-89128600D03*
X107180380Y-96748600D03*
X122420380Y-91668600D03*
X107180380Y-94208600D03*
X122420380Y-94208600D03*
X107180380Y-91668600D03*
X122420380Y-96748600D03*
X107180380Y-89128600D03*
X122420380Y-99288600D03*
X107180380Y-86588600D03*
X122420380Y-101828600D03*
X107180380Y-84048600D03*
X122420380Y-104368600D03*
X107180380Y-81508600D03*
X122420380Y-106908600D03*
X107180380Y-78968600D03*
X122420380Y-109448600D03*
X107180380Y-76428600D03*
X122420380Y-111988600D03*
D15*
X107180380Y-73888600D03*
G04 #@! TD*
D13*
G04 #@! TO.C,C1*
X107514380Y-70586600D03*
X112514380Y-70586600D03*
G04 #@! TD*
D12*
G04 #@! TO.C,U3*
X142740380Y-73888600D03*
X127500380Y-111988600D03*
X142740380Y-76428600D03*
X127500380Y-109448600D03*
X142740380Y-78968600D03*
X127500380Y-106908600D03*
X142740380Y-81508600D03*
X127500380Y-104368600D03*
X142740380Y-84048600D03*
X127500380Y-101828600D03*
X142740380Y-86588600D03*
X127500380Y-99288600D03*
X142740380Y-89128600D03*
X127500380Y-96748600D03*
X142740380Y-91668600D03*
X127500380Y-94208600D03*
X142740380Y-94208600D03*
X127500380Y-91668600D03*
X142740380Y-96748600D03*
X127500380Y-89128600D03*
X142740380Y-99288600D03*
X127500380Y-86588600D03*
X142740380Y-101828600D03*
X127500380Y-84048600D03*
X142740380Y-104368600D03*
X127500380Y-81508600D03*
X142740380Y-106908600D03*
X127500380Y-78968600D03*
X142740380Y-109448600D03*
X127500380Y-76428600D03*
X142740380Y-111988600D03*
D15*
X127500380Y-73888600D03*
G04 #@! TD*
D12*
G04 #@! TO.C,U4*
X163060380Y-73888600D03*
X147820380Y-111988600D03*
X163060380Y-76428600D03*
X147820380Y-109448600D03*
X163060380Y-78968600D03*
X147820380Y-106908600D03*
X163060380Y-81508600D03*
X147820380Y-104368600D03*
X163060380Y-84048600D03*
X147820380Y-101828600D03*
X163060380Y-86588600D03*
X147820380Y-99288600D03*
X163060380Y-89128600D03*
X147820380Y-96748600D03*
X163060380Y-91668600D03*
X147820380Y-94208600D03*
X163060380Y-94208600D03*
X147820380Y-91668600D03*
X163060380Y-96748600D03*
X147820380Y-89128600D03*
X163060380Y-99288600D03*
X147820380Y-86588600D03*
X163060380Y-101828600D03*
X147820380Y-84048600D03*
X163060380Y-104368600D03*
X147820380Y-81508600D03*
X163060380Y-106908600D03*
X147820380Y-78968600D03*
X163060380Y-109448600D03*
X147820380Y-76428600D03*
X163060380Y-111988600D03*
D15*
X147820380Y-73888600D03*
G04 #@! TD*
D13*
G04 #@! TO.C,C6*
X179316380Y-95986600D03*
X174316380Y-95986600D03*
G04 #@! TD*
G04 #@! TO.C,C3*
X142740380Y-70586600D03*
X137740380Y-70586600D03*
G04 #@! TD*
D18*
G04 #@! TO.C,J9*
X85336380Y-129768600D03*
X87876380Y-129768600D03*
X90416380Y-129768600D03*
X92956380Y-129768600D03*
X95496380Y-129768600D03*
X98036380Y-129768600D03*
X100576380Y-129768600D03*
X103116380Y-129768600D03*
X105656380Y-129768600D03*
X108196380Y-129768600D03*
X110736380Y-129768600D03*
X113276380Y-129768600D03*
X115816380Y-129768600D03*
X118356380Y-129768600D03*
X120896380Y-129768600D03*
X123436380Y-129768600D03*
X125976380Y-129768600D03*
X128516380Y-129768600D03*
X131056380Y-129768600D03*
X133596380Y-129768600D03*
X136136380Y-129768600D03*
X138676380Y-129768600D03*
X141216380Y-129768600D03*
X143756380Y-129768600D03*
X146296380Y-129768600D03*
X148836380Y-129768600D03*
X151376380Y-129768600D03*
X153916380Y-129768600D03*
X156456380Y-129768600D03*
X158996380Y-129768600D03*
X161536380Y-129768600D03*
G04 #@! TD*
D19*
G04 #@! TO.C,R*
X181602380Y-122148600D03*
G04 #@! TD*
G04 #@! TO.C,R*
X181602380Y-64998600D03*
G04 #@! TD*
D12*
G04 #@! TO.C,U6*
X179316380Y-99288600D03*
X171696380Y-117068600D03*
X179316380Y-101828600D03*
X171696380Y-114528600D03*
X179316380Y-104368600D03*
X171696380Y-111988600D03*
X179316380Y-106908600D03*
X171696380Y-109448600D03*
X179316380Y-109448600D03*
X171696380Y-106908600D03*
X179316380Y-111988600D03*
X171696380Y-104368600D03*
X179316380Y-114528600D03*
X171696380Y-101828600D03*
X179316380Y-117068600D03*
D15*
X171696380Y-99288600D03*
G04 #@! TD*
D12*
G04 #@! TO.C,U5*
X179316380Y-73888600D03*
X171696380Y-91668600D03*
X179316380Y-76428600D03*
X171696380Y-89128600D03*
X179316380Y-78968600D03*
X171696380Y-86588600D03*
X179316380Y-81508600D03*
X171696380Y-84048600D03*
X179316380Y-84048600D03*
X171696380Y-81508600D03*
X179316380Y-86588600D03*
X171696380Y-78968600D03*
X179316380Y-89128600D03*
X171696380Y-76428600D03*
X179316380Y-91668600D03*
D15*
X171696380Y-73888600D03*
G04 #@! TD*
D13*
G04 #@! TO.C,C5*
X179316380Y-70586600D03*
X174316380Y-70586600D03*
G04 #@! TD*
G04 #@! TO.C,C4*
X163060380Y-70586600D03*
X158060380Y-70586600D03*
G04 #@! TD*
M02*
