G04 #@! TF.GenerationSoftware,KiCad,Pcbnew,(5.1.8)-1*
G04 #@! TF.CreationDate,2022-04-25T13:15:40-06:00*
G04 #@! TF.ProjectId,LCD 8255,4c434420-3832-4353-952e-6b696361645f,rev?*
G04 #@! TF.SameCoordinates,Original*
G04 #@! TF.FileFunction,Soldermask,Bot*
G04 #@! TF.FilePolarity,Negative*
%FSLAX46Y46*%
G04 Gerber Fmt 4.6, Leading zero omitted, Abs format (unit mm)*
G04 Created by KiCad (PCBNEW (5.1.8)-1) date 2022-04-25 13:15:40*
%MOMM*%
%LPD*%
G01*
G04 APERTURE LIST*
%ADD10R,1.780000X7.620000*%
%ADD11C,3.556000*%
%ADD12C,1.620000*%
%ADD13O,1.600000X1.600000*%
%ADD14R,1.600000X1.600000*%
%ADD15O,1.700000X1.700000*%
%ADD16R,1.700000X1.700000*%
%ADD17C,1.600000*%
G04 APERTURE END LIST*
D10*
G04 #@! TO.C,J1*
X97028000Y-146050000D03*
X99568000Y-146050000D03*
X102108000Y-146050000D03*
X104648000Y-146050000D03*
X107188000Y-146050000D03*
X109728000Y-146050000D03*
X112268000Y-146050000D03*
X114808000Y-146050000D03*
X117348000Y-146050000D03*
X119888000Y-146050000D03*
X122428000Y-146050000D03*
X124968000Y-146050000D03*
X127508000Y-146050000D03*
X130048000Y-146050000D03*
X132588000Y-146050000D03*
X135128000Y-146050000D03*
X137668000Y-146050000D03*
X140208000Y-146050000D03*
X142748000Y-146050000D03*
X145288000Y-146050000D03*
X147828000Y-146050000D03*
X150368000Y-146050000D03*
X152908000Y-146050000D03*
X155448000Y-146050000D03*
X157988000Y-146050000D03*
X160528000Y-146050000D03*
X163068000Y-146050000D03*
X165608000Y-146050000D03*
X168148000Y-146050000D03*
X170688000Y-146050000D03*
X173228000Y-146050000D03*
G04 #@! TD*
D11*
G04 #@! TO.C,R*
X193294000Y-138430000D03*
G04 #@! TD*
G04 #@! TO.C,R*
X193294000Y-81280000D03*
G04 #@! TD*
D12*
G04 #@! TO.C,RV1*
X182880000Y-125984000D03*
X187880000Y-123484000D03*
X182880000Y-120984000D03*
G04 #@! TD*
D13*
G04 #@! TO.C,U4*
X162052000Y-104140000D03*
X113792000Y-88900000D03*
X159512000Y-104140000D03*
X116332000Y-88900000D03*
X156972000Y-104140000D03*
X118872000Y-88900000D03*
X154432000Y-104140000D03*
X121412000Y-88900000D03*
X151892000Y-104140000D03*
X123952000Y-88900000D03*
X149352000Y-104140000D03*
X126492000Y-88900000D03*
X146812000Y-104140000D03*
X129032000Y-88900000D03*
X144272000Y-104140000D03*
X131572000Y-88900000D03*
X141732000Y-104140000D03*
X134112000Y-88900000D03*
X139192000Y-104140000D03*
X136652000Y-88900000D03*
X136652000Y-104140000D03*
X139192000Y-88900000D03*
X134112000Y-104140000D03*
X141732000Y-88900000D03*
X131572000Y-104140000D03*
X144272000Y-88900000D03*
X129032000Y-104140000D03*
X146812000Y-88900000D03*
X126492000Y-104140000D03*
X149352000Y-88900000D03*
X123952000Y-104140000D03*
X151892000Y-88900000D03*
X121412000Y-104140000D03*
X154432000Y-88900000D03*
X118872000Y-104140000D03*
X156972000Y-88900000D03*
X116332000Y-104140000D03*
X159512000Y-88900000D03*
X113792000Y-104140000D03*
D14*
X162052000Y-88900000D03*
G04 #@! TD*
D13*
G04 #@! TO.C,U3*
X117856000Y-127508000D03*
X100076000Y-119888000D03*
X115316000Y-127508000D03*
X102616000Y-119888000D03*
X112776000Y-127508000D03*
X105156000Y-119888000D03*
X110236000Y-127508000D03*
X107696000Y-119888000D03*
X107696000Y-127508000D03*
X110236000Y-119888000D03*
X105156000Y-127508000D03*
X112776000Y-119888000D03*
X102616000Y-127508000D03*
X115316000Y-119888000D03*
X100076000Y-127508000D03*
D14*
X117856000Y-119888000D03*
G04 #@! TD*
D13*
G04 #@! TO.C,U2*
X144272000Y-127508000D03*
X126492000Y-119888000D03*
X141732000Y-127508000D03*
X129032000Y-119888000D03*
X139192000Y-127508000D03*
X131572000Y-119888000D03*
X136652000Y-127508000D03*
X134112000Y-119888000D03*
X134112000Y-127508000D03*
X136652000Y-119888000D03*
X131572000Y-127508000D03*
X139192000Y-119888000D03*
X129032000Y-127508000D03*
X141732000Y-119888000D03*
X126492000Y-127508000D03*
D14*
X144272000Y-119888000D03*
G04 #@! TD*
D13*
G04 #@! TO.C,U1*
X170688000Y-127508000D03*
X152908000Y-119888000D03*
X168148000Y-127508000D03*
X155448000Y-119888000D03*
X165608000Y-127508000D03*
X157988000Y-119888000D03*
X163068000Y-127508000D03*
X160528000Y-119888000D03*
X160528000Y-127508000D03*
X163068000Y-119888000D03*
X157988000Y-127508000D03*
X165608000Y-119888000D03*
X155448000Y-127508000D03*
X168148000Y-119888000D03*
X152908000Y-127508000D03*
D14*
X170688000Y-119888000D03*
G04 #@! TD*
D15*
G04 #@! TO.C,J2*
X125984000Y-69596000D03*
X123444000Y-69596000D03*
X120904000Y-69596000D03*
X118364000Y-69596000D03*
X115824000Y-69596000D03*
X113284000Y-69596000D03*
X110744000Y-69596000D03*
X108204000Y-69596000D03*
X105664000Y-69596000D03*
X103124000Y-69596000D03*
X100584000Y-69596000D03*
X98044000Y-69596000D03*
X95504000Y-69596000D03*
X92964000Y-69596000D03*
X90424000Y-69596000D03*
D16*
X87884000Y-69596000D03*
G04 #@! TD*
D17*
G04 #@! TO.C,C4*
X173990000Y-127508000D03*
X173990000Y-122508000D03*
G04 #@! TD*
G04 #@! TO.C,C3*
X147574000Y-127508000D03*
X147574000Y-122508000D03*
G04 #@! TD*
G04 #@! TO.C,C2*
X121158000Y-127508000D03*
X121158000Y-122508000D03*
G04 #@! TD*
G04 #@! TO.C,C1*
X126492000Y-106934000D03*
X121492000Y-106934000D03*
G04 #@! TD*
M02*
