G04 #@! TF.GenerationSoftware,KiCad,Pcbnew,(5.1.8)-1*
G04 #@! TF.CreationDate,2023-02-21T11:18:10-07:00*
G04 #@! TF.ProjectId,PPort,50506f72-742e-46b6-9963-61645f706362,rev?*
G04 #@! TF.SameCoordinates,Original*
G04 #@! TF.FileFunction,Copper,L1,Top*
G04 #@! TF.FilePolarity,Positive*
%FSLAX46Y46*%
G04 Gerber Fmt 4.6, Leading zero omitted, Abs format (unit mm)*
G04 Created by KiCad (PCBNEW (5.1.8)-1) date 2023-02-21 11:18:10*
%MOMM*%
%LPD*%
G01*
G04 APERTURE LIST*
G04 #@! TA.AperFunction,ComponentPad*
%ADD10O,1.600000X1.600000*%
G04 #@! TD*
G04 #@! TA.AperFunction,ComponentPad*
%ADD11R,1.600000X1.600000*%
G04 #@! TD*
G04 #@! TA.AperFunction,ComponentPad*
%ADD12C,1.600000*%
G04 #@! TD*
G04 #@! TA.AperFunction,ComponentPad*
%ADD13O,1.700000X1.700000*%
G04 #@! TD*
G04 #@! TA.AperFunction,ComponentPad*
%ADD14R,1.700000X1.700000*%
G04 #@! TD*
G04 #@! TA.AperFunction,ComponentPad*
%ADD15C,3.556000*%
G04 #@! TD*
G04 #@! TA.AperFunction,ConnectorPad*
%ADD16R,1.780000X7.620000*%
G04 #@! TD*
G04 #@! TA.AperFunction,ViaPad*
%ADD17C,0.800000*%
G04 #@! TD*
G04 #@! TA.AperFunction,Conductor*
%ADD18C,0.250000*%
G04 #@! TD*
G04 #@! TA.AperFunction,Conductor*
%ADD19C,0.330200*%
G04 #@! TD*
G04 APERTURE END LIST*
D10*
G04 #@! TO.P,RN6,5*
G04 #@! TO.N,/PA0*
X182372000Y-91948000D03*
G04 #@! TO.P,RN6,4*
G04 #@! TO.N,/PA1*
X182372000Y-89408000D03*
G04 #@! TO.P,RN6,3*
G04 #@! TO.N,/PA2*
X182372000Y-86868000D03*
G04 #@! TO.P,RN6,2*
G04 #@! TO.N,/PA3*
X182372000Y-84328000D03*
D11*
G04 #@! TO.P,RN6,1*
G04 #@! TO.N,/GND*
X182372000Y-81788000D03*
G04 #@! TD*
D10*
G04 #@! TO.P,RN5,5*
G04 #@! TO.N,/PA4*
X185928000Y-91948000D03*
G04 #@! TO.P,RN5,4*
G04 #@! TO.N,/PA5*
X185928000Y-89408000D03*
G04 #@! TO.P,RN5,3*
G04 #@! TO.N,/PA6*
X185928000Y-86868000D03*
G04 #@! TO.P,RN5,2*
G04 #@! TO.N,/PA7*
X185928000Y-84328000D03*
D11*
G04 #@! TO.P,RN5,1*
G04 #@! TO.N,/GND*
X185928000Y-81788000D03*
G04 #@! TD*
D10*
G04 #@! TO.P,RN4,5*
G04 #@! TO.N,/PB0*
X182372000Y-127508000D03*
G04 #@! TO.P,RN4,4*
G04 #@! TO.N,/PB1*
X182372000Y-124968000D03*
G04 #@! TO.P,RN4,3*
G04 #@! TO.N,/PB2*
X182372000Y-122428000D03*
G04 #@! TO.P,RN4,2*
G04 #@! TO.N,/PB3*
X182372000Y-119888000D03*
D11*
G04 #@! TO.P,RN4,1*
G04 #@! TO.N,/GND*
X182372000Y-117348000D03*
G04 #@! TD*
D10*
G04 #@! TO.P,RN3,5*
G04 #@! TO.N,/PC0*
X182372000Y-109728000D03*
G04 #@! TO.P,RN3,4*
G04 #@! TO.N,/PC1*
X182372000Y-107188000D03*
G04 #@! TO.P,RN3,3*
G04 #@! TO.N,/PC2*
X182372000Y-104648000D03*
G04 #@! TO.P,RN3,2*
G04 #@! TO.N,/PC3*
X182372000Y-102108000D03*
D11*
G04 #@! TO.P,RN3,1*
G04 #@! TO.N,/GND*
X182372000Y-99568000D03*
G04 #@! TD*
D10*
G04 #@! TO.P,RN2,5*
G04 #@! TO.N,/PB4*
X185928000Y-127508000D03*
G04 #@! TO.P,RN2,4*
G04 #@! TO.N,/PB5*
X185928000Y-124968000D03*
G04 #@! TO.P,RN2,3*
G04 #@! TO.N,/PB6*
X185928000Y-122428000D03*
G04 #@! TO.P,RN2,2*
G04 #@! TO.N,/PB7*
X185928000Y-119888000D03*
D11*
G04 #@! TO.P,RN2,1*
G04 #@! TO.N,/GND*
X185928000Y-117348000D03*
G04 #@! TD*
D10*
G04 #@! TO.P,RN1,5*
G04 #@! TO.N,/PC4*
X185928000Y-109728000D03*
G04 #@! TO.P,RN1,4*
G04 #@! TO.N,/PC5*
X185928000Y-107188000D03*
G04 #@! TO.P,RN1,3*
G04 #@! TO.N,/PC6*
X185928000Y-104648000D03*
G04 #@! TO.P,RN1,2*
G04 #@! TO.N,/PC7*
X185928000Y-102108000D03*
D11*
G04 #@! TO.P,RN1,1*
G04 #@! TO.N,/GND*
X185928000Y-99568000D03*
G04 #@! TD*
D12*
G04 #@! TO.P,C4,2*
G04 #@! TO.N,/5+*
X130048000Y-85598000D03*
G04 #@! TO.P,C4,1*
G04 #@! TO.N,/GND*
X125048000Y-85598000D03*
G04 #@! TD*
G04 #@! TO.P,C3,2*
G04 #@! TO.N,/5+*
X119888000Y-85598000D03*
G04 #@! TO.P,C3,1*
G04 #@! TO.N,/GND*
X114888000Y-85598000D03*
G04 #@! TD*
G04 #@! TO.P,C2,2*
G04 #@! TO.N,/5+*
X140208000Y-85598000D03*
G04 #@! TO.P,C2,1*
G04 #@! TO.N,/GND*
X135208000Y-85598000D03*
G04 #@! TD*
G04 #@! TO.P,C1,2*
G04 #@! TO.N,/5+*
X173990000Y-114300000D03*
G04 #@! TO.P,C1,1*
G04 #@! TO.N,/GND*
X173990000Y-119300000D03*
G04 #@! TD*
D13*
G04 #@! TO.P,J3,10*
G04 #@! TO.N,/PA0*
X197104000Y-91948000D03*
G04 #@! TO.P,J3,9*
G04 #@! TO.N,/PA4*
X194564000Y-91948000D03*
G04 #@! TO.P,J3,8*
G04 #@! TO.N,/PA1*
X197104000Y-89408000D03*
G04 #@! TO.P,J3,7*
G04 #@! TO.N,/PA5*
X194564000Y-89408000D03*
G04 #@! TO.P,J3,6*
G04 #@! TO.N,/PA2*
X197104000Y-86868000D03*
G04 #@! TO.P,J3,5*
G04 #@! TO.N,/PA6*
X194564000Y-86868000D03*
G04 #@! TO.P,J3,4*
G04 #@! TO.N,/PA3*
X197104000Y-84328000D03*
G04 #@! TO.P,J3,3*
G04 #@! TO.N,/PA7*
X194564000Y-84328000D03*
G04 #@! TO.P,J3,2*
G04 #@! TO.N,/GND*
X197104000Y-81788000D03*
D14*
G04 #@! TO.P,J3,1*
G04 #@! TO.N,/5+*
X194564000Y-81788000D03*
G04 #@! TD*
D13*
G04 #@! TO.P,J2,10*
G04 #@! TO.N,/PB0*
X197104000Y-127508000D03*
G04 #@! TO.P,J2,9*
G04 #@! TO.N,/PB4*
X194564000Y-127508000D03*
G04 #@! TO.P,J2,8*
G04 #@! TO.N,/PB1*
X197104000Y-124968000D03*
G04 #@! TO.P,J2,7*
G04 #@! TO.N,/PB5*
X194564000Y-124968000D03*
G04 #@! TO.P,J2,6*
G04 #@! TO.N,/PB2*
X197104000Y-122428000D03*
G04 #@! TO.P,J2,5*
G04 #@! TO.N,/PB6*
X194564000Y-122428000D03*
G04 #@! TO.P,J2,4*
G04 #@! TO.N,/PB3*
X197104000Y-119888000D03*
G04 #@! TO.P,J2,3*
G04 #@! TO.N,/PB7*
X194564000Y-119888000D03*
G04 #@! TO.P,J2,2*
G04 #@! TO.N,/GND*
X197104000Y-117348000D03*
D14*
G04 #@! TO.P,J2,1*
G04 #@! TO.N,/5+*
X194564000Y-117348000D03*
G04 #@! TD*
D13*
G04 #@! TO.P,J1,10*
G04 #@! TO.N,/PC0*
X197104000Y-109728000D03*
G04 #@! TO.P,J1,9*
G04 #@! TO.N,/PC4*
X194564000Y-109728000D03*
G04 #@! TO.P,J1,8*
G04 #@! TO.N,/PC1*
X197104000Y-107188000D03*
G04 #@! TO.P,J1,7*
G04 #@! TO.N,/PC5*
X194564000Y-107188000D03*
G04 #@! TO.P,J1,6*
G04 #@! TO.N,/PC2*
X197104000Y-104648000D03*
G04 #@! TO.P,J1,5*
G04 #@! TO.N,/PC6*
X194564000Y-104648000D03*
G04 #@! TO.P,J1,4*
G04 #@! TO.N,/PC3*
X197104000Y-102108000D03*
G04 #@! TO.P,J1,3*
G04 #@! TO.N,/PC7*
X194564000Y-102108000D03*
G04 #@! TO.P,J1,2*
G04 #@! TO.N,/GND*
X197104000Y-99568000D03*
D14*
G04 #@! TO.P,J1,1*
G04 #@! TO.N,/5+*
X194564000Y-99568000D03*
G04 #@! TD*
D15*
G04 #@! TO.P,R,1*
G04 #@! TO.N,/GND*
X195072000Y-133096000D03*
G04 #@! TD*
G04 #@! TO.P,R,1*
G04 #@! TO.N,N/C*
X195072000Y-75946000D03*
G04 #@! TD*
D10*
G04 #@! TO.P,U4,16*
G04 #@! TO.N,/5+*
X130048000Y-88900000D03*
G04 #@! TO.P,U4,8*
G04 #@! TO.N,/GND*
X122428000Y-106680000D03*
G04 #@! TO.P,U4,15*
G04 #@! TO.N,Net-(U4-Pad15)*
X130048000Y-91440000D03*
G04 #@! TO.P,U4,7*
G04 #@! TO.N,Net-(U4-Pad7)*
X122428000Y-104140000D03*
G04 #@! TO.P,U4,14*
G04 #@! TO.N,Net-(U4-Pad14)*
X130048000Y-93980000D03*
G04 #@! TO.P,U4,6*
G04 #@! TO.N,/5+*
X122428000Y-101600000D03*
G04 #@! TO.P,U4,13*
G04 #@! TO.N,Net-(U4-Pad13)*
X130048000Y-96520000D03*
G04 #@! TO.P,U4,5*
G04 #@! TO.N,/A11*
X122428000Y-99060000D03*
G04 #@! TO.P,U4,12*
G04 #@! TO.N,Net-(U4-Pad12)*
X130048000Y-99060000D03*
G04 #@! TO.P,U4,4*
G04 #@! TO.N,/IO_0XXX*
X122428000Y-96520000D03*
G04 #@! TO.P,U4,11*
G04 #@! TO.N,/IO_04XX*
X130048000Y-101600000D03*
G04 #@! TO.P,U4,3*
G04 #@! TO.N,/A10*
X122428000Y-93980000D03*
G04 #@! TO.P,U4,10*
G04 #@! TO.N,Net-(U4-Pad10)*
X130048000Y-104140000D03*
G04 #@! TO.P,U4,2*
G04 #@! TO.N,/A9*
X122428000Y-91440000D03*
G04 #@! TO.P,U4,9*
G04 #@! TO.N,Net-(U4-Pad9)*
X130048000Y-106680000D03*
D11*
G04 #@! TO.P,U4,1*
G04 #@! TO.N,/A8*
X122428000Y-88900000D03*
G04 #@! TD*
D10*
G04 #@! TO.P,U3,16*
G04 #@! TO.N,/5+*
X119888000Y-88900000D03*
G04 #@! TO.P,U3,8*
G04 #@! TO.N,/GND*
X112268000Y-106680000D03*
G04 #@! TO.P,U3,15*
G04 #@! TO.N,/IO_040X*
X119888000Y-91440000D03*
G04 #@! TO.P,U3,7*
G04 #@! TO.N,/IO_047X*
X112268000Y-104140000D03*
G04 #@! TO.P,U3,14*
G04 #@! TO.N,/IO_041X*
X119888000Y-93980000D03*
G04 #@! TO.P,U3,6*
G04 #@! TO.N,/5+*
X112268000Y-101600000D03*
G04 #@! TO.P,U3,13*
G04 #@! TO.N,/IO_042X*
X119888000Y-96520000D03*
G04 #@! TO.P,U3,5*
G04 #@! TO.N,/A7*
X112268000Y-99060000D03*
G04 #@! TO.P,U3,12*
G04 #@! TO.N,/IO_043X*
X119888000Y-99060000D03*
G04 #@! TO.P,U3,4*
G04 #@! TO.N,/IO_04XX*
X112268000Y-96520000D03*
G04 #@! TO.P,U3,11*
G04 #@! TO.N,/IO_044X*
X119888000Y-101600000D03*
G04 #@! TO.P,U3,3*
G04 #@! TO.N,/A6*
X112268000Y-93980000D03*
G04 #@! TO.P,U3,10*
G04 #@! TO.N,/IO_045X*
X119888000Y-104140000D03*
G04 #@! TO.P,U3,2*
G04 #@! TO.N,/A5*
X112268000Y-91440000D03*
G04 #@! TO.P,U3,9*
G04 #@! TO.N,/IO_046X*
X119888000Y-106680000D03*
D11*
G04 #@! TO.P,U3,1*
G04 #@! TO.N,/A4*
X112268000Y-88900000D03*
G04 #@! TD*
D10*
G04 #@! TO.P,U2,16*
G04 #@! TO.N,/5+*
X140208000Y-88900000D03*
G04 #@! TO.P,U2,8*
G04 #@! TO.N,/GND*
X132588000Y-106680000D03*
G04 #@! TO.P,U2,15*
G04 #@! TO.N,/IO_0XXX*
X140208000Y-91440000D03*
G04 #@! TO.P,U2,7*
G04 #@! TO.N,Net-(U2-Pad7)*
X132588000Y-104140000D03*
G04 #@! TO.P,U2,14*
G04 #@! TO.N,Net-(U2-Pad14)*
X140208000Y-93980000D03*
G04 #@! TO.P,U2,6*
G04 #@! TO.N,/5+*
X132588000Y-101600000D03*
G04 #@! TO.P,U2,13*
G04 #@! TO.N,Net-(U2-Pad13)*
X140208000Y-96520000D03*
G04 #@! TO.P,U2,5*
G04 #@! TO.N,/A15*
X132588000Y-99060000D03*
G04 #@! TO.P,U2,12*
G04 #@! TO.N,Net-(U2-Pad12)*
X140208000Y-99060000D03*
G04 #@! TO.P,U2,4*
G04 #@! TO.N,/GND*
X132588000Y-96520000D03*
G04 #@! TO.P,U2,11*
G04 #@! TO.N,Net-(U2-Pad11)*
X140208000Y-101600000D03*
G04 #@! TO.P,U2,3*
G04 #@! TO.N,/A14*
X132588000Y-93980000D03*
G04 #@! TO.P,U2,10*
G04 #@! TO.N,Net-(U2-Pad10)*
X140208000Y-104140000D03*
G04 #@! TO.P,U2,2*
G04 #@! TO.N,/A13*
X132588000Y-91440000D03*
G04 #@! TO.P,U2,9*
G04 #@! TO.N,Net-(U2-Pad9)*
X140208000Y-106680000D03*
D11*
G04 #@! TO.P,U2,1*
G04 #@! TO.N,/A12*
X132588000Y-88900000D03*
G04 #@! TD*
D10*
G04 #@! TO.P,U1,40*
G04 #@! TO.N,/PA4*
X171196000Y-78740000D03*
G04 #@! TO.P,U1,20*
G04 #@! TO.N,/PB2*
X155956000Y-127000000D03*
G04 #@! TO.P,U1,39*
G04 #@! TO.N,/PA5*
X171196000Y-81280000D03*
G04 #@! TO.P,U1,19*
G04 #@! TO.N,/PB1*
X155956000Y-124460000D03*
G04 #@! TO.P,U1,38*
G04 #@! TO.N,/PA6*
X171196000Y-83820000D03*
G04 #@! TO.P,U1,18*
G04 #@! TO.N,/PB0*
X155956000Y-121920000D03*
G04 #@! TO.P,U1,37*
G04 #@! TO.N,/PA7*
X171196000Y-86360000D03*
G04 #@! TO.P,U1,17*
G04 #@! TO.N,/PC3*
X155956000Y-119380000D03*
G04 #@! TO.P,U1,36*
G04 #@! TO.N,/IOW*
X171196000Y-88900000D03*
G04 #@! TO.P,U1,16*
G04 #@! TO.N,/PC2*
X155956000Y-116840000D03*
G04 #@! TO.P,U1,35*
G04 #@! TO.N,/RST*
X171196000Y-91440000D03*
G04 #@! TO.P,U1,15*
G04 #@! TO.N,/PC1*
X155956000Y-114300000D03*
G04 #@! TO.P,U1,34*
G04 #@! TO.N,/D0*
X171196000Y-93980000D03*
G04 #@! TO.P,U1,14*
G04 #@! TO.N,/PC0*
X155956000Y-111760000D03*
G04 #@! TO.P,U1,33*
G04 #@! TO.N,/D1*
X171196000Y-96520000D03*
G04 #@! TO.P,U1,13*
G04 #@! TO.N,/PC4*
X155956000Y-109220000D03*
G04 #@! TO.P,U1,32*
G04 #@! TO.N,/D2*
X171196000Y-99060000D03*
G04 #@! TO.P,U1,12*
G04 #@! TO.N,/PC5*
X155956000Y-106680000D03*
G04 #@! TO.P,U1,31*
G04 #@! TO.N,/D3*
X171196000Y-101600000D03*
G04 #@! TO.P,U1,11*
G04 #@! TO.N,/PC6*
X155956000Y-104140000D03*
G04 #@! TO.P,U1,30*
G04 #@! TO.N,/D4*
X171196000Y-104140000D03*
G04 #@! TO.P,U1,10*
G04 #@! TO.N,/PC7*
X155956000Y-101600000D03*
G04 #@! TO.P,U1,29*
G04 #@! TO.N,/D5*
X171196000Y-106680000D03*
G04 #@! TO.P,U1,9*
G04 #@! TO.N,/A0*
X155956000Y-99060000D03*
G04 #@! TO.P,U1,28*
G04 #@! TO.N,/D6*
X171196000Y-109220000D03*
G04 #@! TO.P,U1,8*
G04 #@! TO.N,/A1*
X155956000Y-96520000D03*
G04 #@! TO.P,U1,27*
G04 #@! TO.N,/D7*
X171196000Y-111760000D03*
G04 #@! TO.P,U1,7*
G04 #@! TO.N,/GND*
X155956000Y-93980000D03*
G04 #@! TO.P,U1,26*
G04 #@! TO.N,/5+*
X171196000Y-114300000D03*
G04 #@! TO.P,U1,6*
G04 #@! TO.N,/CS8255*
X155956000Y-91440000D03*
G04 #@! TO.P,U1,25*
G04 #@! TO.N,/PB7*
X171196000Y-116840000D03*
G04 #@! TO.P,U1,5*
G04 #@! TO.N,/IOR*
X155956000Y-88900000D03*
G04 #@! TO.P,U1,24*
G04 #@! TO.N,/PB6*
X171196000Y-119380000D03*
G04 #@! TO.P,U1,4*
G04 #@! TO.N,/PA0*
X155956000Y-86360000D03*
G04 #@! TO.P,U1,23*
G04 #@! TO.N,/PB5*
X171196000Y-121920000D03*
G04 #@! TO.P,U1,3*
G04 #@! TO.N,/PA1*
X155956000Y-83820000D03*
G04 #@! TO.P,U1,22*
G04 #@! TO.N,/PB4*
X171196000Y-124460000D03*
G04 #@! TO.P,U1,2*
G04 #@! TO.N,/PA2*
X155956000Y-81280000D03*
G04 #@! TO.P,U1,21*
G04 #@! TO.N,/PB3*
X171196000Y-127000000D03*
D11*
G04 #@! TO.P,U1,1*
G04 #@! TO.N,/PA3*
X155956000Y-78740000D03*
G04 #@! TD*
D16*
G04 #@! TO.P,J7,62*
G04 #@! TO.N,/A0*
X98806000Y-140716000D03*
G04 #@! TO.P,J7,61*
G04 #@! TO.N,/A1*
X101346000Y-140716000D03*
G04 #@! TO.P,J7,60*
G04 #@! TO.N,/A2*
X103886000Y-140716000D03*
G04 #@! TO.P,J7,59*
G04 #@! TO.N,/A3*
X106426000Y-140716000D03*
G04 #@! TO.P,J7,58*
G04 #@! TO.N,/A4*
X108966000Y-140716000D03*
G04 #@! TO.P,J7,57*
G04 #@! TO.N,/A5*
X111506000Y-140716000D03*
G04 #@! TO.P,J7,56*
G04 #@! TO.N,/A6*
X114046000Y-140716000D03*
G04 #@! TO.P,J7,55*
G04 #@! TO.N,/A7*
X116586000Y-140716000D03*
G04 #@! TO.P,J7,54*
G04 #@! TO.N,/A8*
X119126000Y-140716000D03*
G04 #@! TO.P,J7,53*
G04 #@! TO.N,/A9*
X121666000Y-140716000D03*
G04 #@! TO.P,J7,52*
G04 #@! TO.N,/A10*
X124206000Y-140716000D03*
G04 #@! TO.P,J7,51*
G04 #@! TO.N,/A11*
X126746000Y-140716000D03*
G04 #@! TO.P,J7,50*
G04 #@! TO.N,/A12*
X129286000Y-140716000D03*
G04 #@! TO.P,J7,49*
G04 #@! TO.N,/A13*
X131826000Y-140716000D03*
G04 #@! TO.P,J7,48*
G04 #@! TO.N,/A14*
X134366000Y-140716000D03*
G04 #@! TO.P,J7,47*
G04 #@! TO.N,/A15*
X136906000Y-140716000D03*
G04 #@! TO.P,J7,46*
G04 #@! TO.N,Net-(J7-Pad46)*
X139446000Y-140716000D03*
G04 #@! TO.P,J7,45*
G04 #@! TO.N,Net-(J7-Pad45)*
X141986000Y-140716000D03*
G04 #@! TO.P,J7,44*
G04 #@! TO.N,Net-(J7-Pad44)*
X144526000Y-140716000D03*
G04 #@! TO.P,J7,43*
G04 #@! TO.N,Net-(J7-Pad43)*
X147066000Y-140716000D03*
G04 #@! TO.P,J7,42*
G04 #@! TO.N,Net-(J7-Pad42)*
X149606000Y-140716000D03*
G04 #@! TO.P,J7,41*
G04 #@! TO.N,Net-(J7-Pad41)*
X152146000Y-140716000D03*
G04 #@! TO.P,J7,40*
G04 #@! TO.N,/D0*
X154686000Y-140716000D03*
G04 #@! TO.P,J7,39*
G04 #@! TO.N,/D1*
X157226000Y-140716000D03*
G04 #@! TO.P,J7,38*
G04 #@! TO.N,/D2*
X159766000Y-140716000D03*
G04 #@! TO.P,J7,37*
G04 #@! TO.N,/D3*
X162306000Y-140716000D03*
G04 #@! TO.P,J7,36*
G04 #@! TO.N,/D4*
X164846000Y-140716000D03*
G04 #@! TO.P,J7,35*
G04 #@! TO.N,/D5*
X167386000Y-140716000D03*
G04 #@! TO.P,J7,34*
G04 #@! TO.N,/D6*
X169926000Y-140716000D03*
G04 #@! TO.P,J7,33*
G04 #@! TO.N,/D7*
X172466000Y-140716000D03*
G04 #@! TO.P,J7,32*
G04 #@! TO.N,Net-(J7-Pad32)*
X175006000Y-140716000D03*
G04 #@! TD*
D13*
G04 #@! TO.P,J6,16*
G04 #@! TO.N,/IO_047X*
X102108000Y-108712000D03*
G04 #@! TO.P,J6,15*
G04 #@! TO.N,/CS8255*
X99568000Y-108712000D03*
G04 #@! TO.P,J6,14*
G04 #@! TO.N,/IO_046X*
X102108000Y-106172000D03*
G04 #@! TO.P,J6,13*
G04 #@! TO.N,/CS8255*
X99568000Y-106172000D03*
G04 #@! TO.P,J6,12*
G04 #@! TO.N,/IO_045X*
X102108000Y-103632000D03*
G04 #@! TO.P,J6,11*
G04 #@! TO.N,/CS8255*
X99568000Y-103632000D03*
G04 #@! TO.P,J6,10*
G04 #@! TO.N,/IO_044X*
X102108000Y-101092000D03*
G04 #@! TO.P,J6,9*
G04 #@! TO.N,/CS8255*
X99568000Y-101092000D03*
G04 #@! TO.P,J6,8*
G04 #@! TO.N,/IO_043X*
X102108000Y-98552000D03*
G04 #@! TO.P,J6,7*
G04 #@! TO.N,/CS8255*
X99568000Y-98552000D03*
G04 #@! TO.P,J6,6*
G04 #@! TO.N,/IO_042X*
X102108000Y-96012000D03*
G04 #@! TO.P,J6,5*
G04 #@! TO.N,/CS8255*
X99568000Y-96012000D03*
G04 #@! TO.P,J6,4*
G04 #@! TO.N,/IO_041X*
X102108000Y-93472000D03*
G04 #@! TO.P,J6,3*
G04 #@! TO.N,/CS8255*
X99568000Y-93472000D03*
G04 #@! TO.P,J6,2*
G04 #@! TO.N,/IO_040X*
X102108000Y-90932000D03*
D14*
G04 #@! TO.P,J6,1*
G04 #@! TO.N,/CS8255*
X99568000Y-90932000D03*
G04 #@! TD*
D13*
G04 #@! TO.P,J5,12*
G04 #@! TO.N,/IRQ2*
X138176000Y-117856000D03*
G04 #@! TO.P,J5,11*
G04 #@! TO.N,/PC3*
X138176000Y-115316000D03*
G04 #@! TO.P,J5,10*
G04 #@! TO.N,/IRQ3*
X140716000Y-117856000D03*
G04 #@! TO.P,J5,9*
G04 #@! TO.N,/PC3*
X140716000Y-115316000D03*
G04 #@! TO.P,J5,8*
G04 #@! TO.N,/IRQ4*
X143256000Y-117856000D03*
G04 #@! TO.P,J5,7*
G04 #@! TO.N,/PC3*
X143256000Y-115316000D03*
G04 #@! TO.P,J5,6*
G04 #@! TO.N,/IRQ5*
X145796000Y-117856000D03*
G04 #@! TO.P,J5,5*
G04 #@! TO.N,/PC3*
X145796000Y-115316000D03*
G04 #@! TO.P,J5,4*
G04 #@! TO.N,/IRQ6*
X148336000Y-117856000D03*
G04 #@! TO.P,J5,3*
G04 #@! TO.N,/PC3*
X148336000Y-115316000D03*
G04 #@! TO.P,J5,2*
G04 #@! TO.N,/IRQ7*
X150876000Y-117856000D03*
D14*
G04 #@! TO.P,J5,1*
G04 #@! TO.N,/PC3*
X150876000Y-115316000D03*
G04 #@! TD*
D13*
G04 #@! TO.P,J4,12*
G04 #@! TO.N,/IRQ2*
X138176000Y-128016000D03*
G04 #@! TO.P,J4,11*
G04 #@! TO.N,/PC0*
X138176000Y-125476000D03*
G04 #@! TO.P,J4,10*
G04 #@! TO.N,/IRQ3*
X140716000Y-128016000D03*
G04 #@! TO.P,J4,9*
G04 #@! TO.N,/PC0*
X140716000Y-125476000D03*
G04 #@! TO.P,J4,8*
G04 #@! TO.N,/IRQ4*
X143256000Y-128016000D03*
G04 #@! TO.P,J4,7*
G04 #@! TO.N,/PC0*
X143256000Y-125476000D03*
G04 #@! TO.P,J4,6*
G04 #@! TO.N,/IRQ5*
X145796000Y-128016000D03*
G04 #@! TO.P,J4,5*
G04 #@! TO.N,/PC0*
X145796000Y-125476000D03*
G04 #@! TO.P,J4,4*
G04 #@! TO.N,/IRQ6*
X148336000Y-128016000D03*
G04 #@! TO.P,J4,3*
G04 #@! TO.N,/PC0*
X148336000Y-125476000D03*
G04 #@! TO.P,J4,2*
G04 #@! TO.N,/IRQ7*
X150876000Y-128016000D03*
D14*
G04 #@! TO.P,J4,1*
G04 #@! TO.N,/PC0*
X150876000Y-125476000D03*
G04 #@! TD*
D17*
G04 #@! TO.N,/PB7*
X178308000Y-116840000D03*
X178308000Y-118872000D03*
G04 #@! TO.N,/PB5*
X174244000Y-123698000D03*
X172974000Y-121920000D03*
G04 #@! TO.N,/PB4*
X172974000Y-124460000D03*
X174244000Y-126238000D03*
G04 #@! TO.N,/PB3*
X178562000Y-119888000D03*
X178562000Y-127000000D03*
G04 #@! TO.N,/PB2*
X167640000Y-123190000D03*
X167640000Y-126492000D03*
G04 #@! TO.N,/PB0*
X159258000Y-127508000D03*
X159258000Y-121920000D03*
G04 #@! TO.N,/PA7*
X179578000Y-86360000D03*
X179578000Y-83058000D03*
G04 #@! TO.N,/PA6*
X178816000Y-83820000D03*
X178816000Y-85598000D03*
G04 #@! TO.N,/PA5*
X178054000Y-81280000D03*
X178054000Y-88138000D03*
G04 #@! TO.N,/PA4*
X177292000Y-78740000D03*
X177292000Y-90678000D03*
G04 #@! TO.N,/PA3*
X162052000Y-78740000D03*
X162052000Y-82550000D03*
X175514000Y-82550000D03*
X175514000Y-84836000D03*
G04 #@! TO.N,/PA2*
X162814000Y-81280000D03*
X162814000Y-85090000D03*
X174498000Y-85090000D03*
X174498000Y-87376000D03*
G04 #@! TO.N,/PA1*
X163576000Y-83820000D03*
X163576000Y-87630000D03*
G04 #@! TO.N,/PA0*
X164338000Y-86360000D03*
X164338000Y-90170000D03*
G04 #@! TO.N,/PC3*
X173228000Y-102108000D03*
X168656000Y-103632000D03*
X160274000Y-118872000D03*
X160274000Y-103632000D03*
G04 #@! TO.N,/PC2*
X173228000Y-104648000D03*
X168656000Y-106172000D03*
X162814000Y-116332000D03*
X162814000Y-106172000D03*
G04 #@! TO.N,/PC1*
X173228000Y-107188000D03*
X168656000Y-108712000D03*
X165354000Y-113792000D03*
X165354000Y-108712000D03*
G04 #@! TO.N,/PC3*
X149606000Y-119380000D03*
G04 #@! TO.N,/PC0*
X152654000Y-111760000D03*
X152654000Y-125476000D03*
G04 #@! TO.N,/IRQ2*
X138176000Y-130048000D03*
X167386000Y-130048000D03*
G04 #@! TO.N,/IRQ3*
X140716000Y-130810000D03*
X114046000Y-130810000D03*
G04 #@! TO.N,/IRQ4*
X143256000Y-131572000D03*
X116586000Y-131572000D03*
G04 #@! TO.N,/IRQ5*
X145796000Y-132334000D03*
X119126000Y-132334000D03*
G04 #@! TO.N,/IRQ6*
X148336000Y-133096000D03*
X121666000Y-133096000D03*
G04 #@! TO.N,/IRQ7*
X150876000Y-133858000D03*
X124206000Y-133858000D03*
G04 #@! TO.N,/IO_047X*
X104648000Y-104140000D03*
X104648000Y-108712000D03*
G04 #@! TO.N,/CS8255*
X143510000Y-91440000D03*
X143510000Y-83312000D03*
X99568000Y-83312000D03*
G04 #@! TO.N,/A0*
X97536000Y-135636000D03*
X97536000Y-113284000D03*
X148844000Y-112522000D03*
X148844000Y-99060000D03*
G04 #@! TO.N,/A1*
X100076000Y-135636000D03*
X100076000Y-114046000D03*
X149606000Y-113284000D03*
X149606000Y-96520000D03*
G04 #@! TO.N,/A4*
X107696000Y-135382000D03*
X107696000Y-88900000D03*
G04 #@! TO.N,/A5*
X110236000Y-135382000D03*
X110236000Y-91440000D03*
G04 #@! TO.N,/A6*
X112776000Y-135382000D03*
X114046000Y-93980000D03*
G04 #@! TO.N,/A7*
X115316000Y-135382000D03*
X115316000Y-99060000D03*
G04 #@! TO.N,/A8*
X117856000Y-135382000D03*
X117856000Y-90170000D03*
G04 #@! TO.N,/A9*
X120396000Y-135382000D03*
G04 #@! TO.N,/A10*
X122936000Y-135382000D03*
X124460000Y-93980000D03*
G04 #@! TO.N,/A11*
X125476000Y-135382000D03*
X125476000Y-99060000D03*
G04 #@! TO.N,/A12*
X128016000Y-135382000D03*
X128016000Y-90170000D03*
G04 #@! TO.N,/A13*
X130556000Y-135382000D03*
G04 #@! TO.N,/A14*
X133096000Y-135382000D03*
X134620000Y-93980000D03*
G04 #@! TO.N,/A15*
X135636000Y-135382000D03*
X135636000Y-99060000D03*
G04 #@! TO.N,/D0*
X153416000Y-135382000D03*
X153416000Y-95250000D03*
G04 #@! TO.N,/D1*
X157480000Y-135382000D03*
X157734000Y-97028000D03*
G04 #@! TO.N,/D2*
X158496000Y-135382000D03*
X158496000Y-99568000D03*
G04 #@! TO.N,/D3*
X161036000Y-135382000D03*
X161036000Y-102108000D03*
G04 #@! TO.N,/D4*
X163576000Y-135382000D03*
X163576000Y-104648000D03*
G04 #@! TO.N,/D5*
X166116000Y-135382000D03*
X166116000Y-107188000D03*
G04 #@! TO.N,/D6*
X168656000Y-135382000D03*
X168656000Y-109728000D03*
G04 #@! TO.N,/D7*
X169418000Y-133350000D03*
X169418000Y-112268000D03*
G04 #@! TO.N,/GND*
X191516000Y-83058000D03*
X191516000Y-118618000D03*
X191516000Y-118618000D03*
X191516000Y-100838000D03*
X191516000Y-133096000D03*
X126746000Y-107188000D03*
X126746000Y-86106000D03*
X126746000Y-97790000D03*
X175006000Y-133096000D03*
X159004000Y-97790000D03*
X159004000Y-93980000D03*
X111760000Y-110998000D03*
X98806002Y-110998000D03*
G04 #@! TO.N,/5+*
X189230000Y-114300000D03*
X189230000Y-81788000D03*
X189230000Y-99568000D03*
X189230000Y-117348000D03*
X117094000Y-102108000D03*
X117094000Y-85090000D03*
X170434000Y-129794000D03*
X175768000Y-129794000D03*
X175768000Y-114300000D03*
X175768000Y-92710000D03*
X137414000Y-92710000D03*
X137414000Y-85090000D03*
X103886000Y-112014000D03*
X117094000Y-112014000D03*
G04 #@! TO.N,/IOR*
X141986000Y-134620000D03*
X154178000Y-133604000D03*
X154178000Y-88900000D03*
G04 #@! TO.N,/IOW*
X144526000Y-135382000D03*
X161798000Y-134366000D03*
X161798000Y-88900000D03*
G04 #@! TO.N,/RST*
X172466000Y-132334000D03*
X164338000Y-132334000D03*
X164338000Y-91694000D03*
G04 #@! TO.N,/IO_0XXX*
X125222000Y-92710000D03*
X125222000Y-96520000D03*
G04 #@! TO.N,/IO_04XX*
X116078000Y-100330000D03*
X116078000Y-97028000D03*
G04 #@! TD*
D18*
G04 #@! TO.N,/PB7*
X185928000Y-119888000D02*
X194564000Y-119888000D01*
X178308000Y-116840000D02*
X178308000Y-116840000D01*
X178580999Y-118599001D02*
X178308000Y-118872000D01*
X184639001Y-118599001D02*
X178580999Y-118599001D01*
X185928000Y-119888000D02*
X184639001Y-118599001D01*
X178308000Y-116840000D02*
X171196000Y-116840000D01*
X178308000Y-118872000D02*
X178308000Y-118872000D01*
G04 #@! TO.N,/PB6*
X185928000Y-122428000D02*
X194564000Y-122428000D01*
X172974000Y-121158000D02*
X171196000Y-119380000D01*
X183388000Y-121158000D02*
X172974000Y-121158000D01*
X184658000Y-122428000D02*
X183388000Y-121158000D01*
X185928000Y-122428000D02*
X184658000Y-122428000D01*
G04 #@! TO.N,/PB5*
X185928000Y-124968000D02*
X194564000Y-124968000D01*
X183388000Y-123698000D02*
X174244000Y-123698000D01*
X184658000Y-124968000D02*
X183388000Y-123698000D01*
X185928000Y-124968000D02*
X184658000Y-124968000D01*
X174244000Y-123698000D02*
X174244000Y-123698000D01*
X171196000Y-121920000D02*
X172720000Y-121920000D01*
X172720000Y-121920000D02*
X172974000Y-121920000D01*
X172974000Y-121920000D02*
X172974000Y-121920000D01*
G04 #@! TO.N,/PB4*
X185928000Y-127508000D02*
X194564000Y-127508000D01*
X185928000Y-127508000D02*
X184658000Y-127508000D01*
X184658000Y-127508000D02*
X183388000Y-126238000D01*
X183388000Y-126238000D02*
X174244000Y-126238000D01*
X171196000Y-124460000D02*
X172974000Y-124460000D01*
X172974000Y-124460000D02*
X172974000Y-124460000D01*
X174244000Y-126238000D02*
X174244000Y-126238000D01*
G04 #@! TO.N,/PB3*
X195834000Y-121158000D02*
X197104000Y-119888000D01*
X183388000Y-119888000D02*
X184658000Y-121158000D01*
X184658000Y-121158000D02*
X195834000Y-121158000D01*
X182372000Y-119888000D02*
X183388000Y-119888000D01*
X182372000Y-119888000D02*
X178562000Y-119888000D01*
X178562000Y-119888000D02*
X178562000Y-119888000D01*
X171196000Y-127000000D02*
X178562000Y-127000000D01*
X178562000Y-127000000D02*
X178562000Y-127000000D01*
G04 #@! TO.N,/PB2*
X182372000Y-122428000D02*
X183388000Y-122428000D01*
X184658000Y-123698000D02*
X195834000Y-123698000D01*
X183388000Y-122428000D02*
X184658000Y-123698000D01*
X195834000Y-123698000D02*
X197104000Y-122428000D01*
X182372000Y-122428000D02*
X173736000Y-122428000D01*
X173736000Y-122428000D02*
X172974000Y-123190000D01*
X172974000Y-123190000D02*
X170942000Y-123190000D01*
X170942000Y-123190000D02*
X167640000Y-123190000D01*
X167640000Y-123190000D02*
X167640000Y-123190000D01*
X155956000Y-127000000D02*
X156464000Y-126492000D01*
X156464000Y-126492000D02*
X157480000Y-126492000D01*
X157480000Y-126492000D02*
X167640000Y-126492000D01*
X167640000Y-126492000D02*
X167640000Y-126492000D01*
G04 #@! TO.N,/PB1*
X182372000Y-124968000D02*
X183388000Y-124968000D01*
X195834000Y-126238000D02*
X197104000Y-124968000D01*
X183388000Y-124968000D02*
X184658000Y-126238000D01*
X184658000Y-126238000D02*
X195834000Y-126238000D01*
X168656000Y-124968000D02*
X156464000Y-124968000D01*
X169418000Y-125730000D02*
X168656000Y-124968000D01*
X156464000Y-124968000D02*
X155956000Y-124460000D01*
X173228000Y-125730000D02*
X169418000Y-125730000D01*
X173990000Y-124968000D02*
X173228000Y-125730000D01*
X182372000Y-124968000D02*
X173990000Y-124968000D01*
G04 #@! TO.N,/PB0*
X195834000Y-128778000D02*
X197104000Y-127508000D01*
X184658000Y-128778000D02*
X195834000Y-128778000D01*
X182372000Y-127508000D02*
X183388000Y-127508000D01*
X183388000Y-127508000D02*
X184658000Y-128778000D01*
X182372000Y-127508000D02*
X181864000Y-128016000D01*
X181864000Y-128016000D02*
X173228000Y-128016000D01*
X173228000Y-128016000D02*
X172974000Y-128270000D01*
X172974000Y-128270000D02*
X169418000Y-128270000D01*
X169418000Y-128270000D02*
X168656000Y-127508000D01*
X168656000Y-127508000D02*
X159258000Y-127508000D01*
X159258000Y-127508000D02*
X159258000Y-127508000D01*
X155956000Y-121920000D02*
X159258000Y-121920000D01*
G04 #@! TO.N,/PA7*
X185928000Y-84328000D02*
X194564000Y-84328000D01*
X184912000Y-84328000D02*
X184658000Y-84328000D01*
X183388000Y-83058000D02*
X179578000Y-83058000D01*
X185928000Y-84328000D02*
X184912000Y-84328000D01*
X184658000Y-84328000D02*
X183642000Y-83312000D01*
X183642000Y-83312000D02*
X183388000Y-83058000D01*
X171196000Y-86360000D02*
X179578000Y-86360000D01*
X179578000Y-86360000D02*
X179578000Y-86360000D01*
G04 #@! TO.N,/PA6*
X185928000Y-86868000D02*
X194564000Y-86868000D01*
X171196000Y-83820000D02*
X178816000Y-83820000D01*
X178816000Y-83820000D02*
X178816000Y-83820000D01*
X183388000Y-85598000D02*
X178816000Y-85598000D01*
X184658000Y-86868000D02*
X183388000Y-85598000D01*
X178816000Y-85598000D02*
X179578000Y-85598000D01*
X185928000Y-86868000D02*
X184658000Y-86868000D01*
G04 #@! TO.N,/PA5*
X185928000Y-89408000D02*
X194564000Y-89408000D01*
X171196000Y-81280000D02*
X178054000Y-81280000D01*
X178054000Y-81280000D02*
X178054000Y-81280000D01*
X183388000Y-88138000D02*
X178054000Y-88138000D01*
X184658000Y-89408000D02*
X183388000Y-88138000D01*
X185928000Y-89408000D02*
X184658000Y-89408000D01*
G04 #@! TO.N,/PA4*
X185928000Y-91948000D02*
X194564000Y-91948000D01*
X171196000Y-78740000D02*
X177292000Y-78740000D01*
X177292000Y-78740000D02*
X177292000Y-78740000D01*
X183388000Y-90678000D02*
X177292000Y-90678000D01*
X184658000Y-91948000D02*
X183388000Y-90678000D01*
X185928000Y-91948000D02*
X184658000Y-91948000D01*
G04 #@! TO.N,/PA3*
X183388000Y-84328000D02*
X184658000Y-85598000D01*
X195834000Y-85598000D02*
X197104000Y-84328000D01*
X184658000Y-85598000D02*
X195834000Y-85598000D01*
X182372000Y-84328000D02*
X183388000Y-84328000D01*
X155956000Y-78740000D02*
X162052000Y-78740000D01*
X162052000Y-82550000D02*
X162052000Y-82550000D01*
X181864000Y-84836000D02*
X175514000Y-84836000D01*
X182372000Y-84328000D02*
X181864000Y-84836000D01*
X164338000Y-82550000D02*
X162052000Y-82550000D01*
X175514000Y-82550000D02*
X175514000Y-82550000D01*
X175514000Y-82550000D02*
X164338000Y-82550000D01*
X175514000Y-84836000D02*
X175514000Y-84836000D01*
G04 #@! TO.N,/PA2*
X195834000Y-88138000D02*
X197104000Y-86868000D01*
X184658000Y-88138000D02*
X195834000Y-88138000D01*
X183388000Y-86868000D02*
X184658000Y-88138000D01*
X182372000Y-86868000D02*
X183388000Y-86868000D01*
X155956000Y-81280000D02*
X162814000Y-81280000D01*
X162814000Y-85090000D02*
X162814000Y-85090000D01*
X181864000Y-87376000D02*
X174498000Y-87376000D01*
X182372000Y-86868000D02*
X181864000Y-87376000D01*
X164338000Y-85090000D02*
X162814000Y-85090000D01*
X174498000Y-85090000D02*
X174498000Y-85090000D01*
X174498000Y-85090000D02*
X164338000Y-85090000D01*
X174498000Y-87376000D02*
X174498000Y-87376000D01*
G04 #@! TO.N,/PA1*
X182372000Y-89408000D02*
X183388000Y-89408000D01*
X183388000Y-89408000D02*
X184658000Y-90678000D01*
X184658000Y-90678000D02*
X195834000Y-90678000D01*
X195834000Y-90678000D02*
X197104000Y-89408000D01*
X155956000Y-83820000D02*
X163576000Y-83820000D01*
X168910000Y-87630000D02*
X164338000Y-87630000D01*
X174498000Y-89408000D02*
X172720000Y-87630000D01*
X182372000Y-89408000D02*
X174498000Y-89408000D01*
X172720000Y-87630000D02*
X168910000Y-87630000D01*
X164338000Y-87630000D02*
X163576000Y-87630000D01*
X163576000Y-87630000D02*
X163576000Y-87630000D01*
G04 #@! TO.N,/PA0*
X155956000Y-86360000D02*
X164338000Y-86360000D01*
X182372000Y-91948000D02*
X183388000Y-91948000D01*
X195834000Y-93218000D02*
X197104000Y-91948000D01*
X183388000Y-91948000D02*
X184658000Y-93218000D01*
X184658000Y-93218000D02*
X195834000Y-93218000D01*
X168910000Y-90170000D02*
X164338000Y-90170000D01*
X172720000Y-90170000D02*
X168910000Y-90170000D01*
X174498000Y-91948000D02*
X172720000Y-90170000D01*
X182372000Y-91948000D02*
X174498000Y-91948000D01*
X164338000Y-90170000D02*
X164338000Y-90170000D01*
G04 #@! TO.N,/PC7*
X165608000Y-100330000D02*
X167132000Y-100330000D01*
X184658000Y-102108000D02*
X185928000Y-102108000D01*
X173990000Y-100838000D02*
X183388000Y-100838000D01*
X173482000Y-100330000D02*
X173990000Y-100838000D01*
X183388000Y-100838000D02*
X184658000Y-102108000D01*
X167132000Y-100330000D02*
X173482000Y-100330000D01*
X185928000Y-102108000D02*
X194564000Y-102108000D01*
X159258000Y-100330000D02*
X167132000Y-100330000D01*
X158496000Y-101092000D02*
X159258000Y-100330000D01*
X156464000Y-101092000D02*
X158496000Y-101092000D01*
X155956000Y-101600000D02*
X156464000Y-101092000D01*
G04 #@! TO.N,/PC6*
X185928000Y-104648000D02*
X194564000Y-104648000D01*
X159131000Y-102870000D02*
X158369000Y-103632000D01*
X173482000Y-102870000D02*
X159131000Y-102870000D01*
X156464000Y-103632000D02*
X155956000Y-104140000D01*
X158369000Y-103632000D02*
X156464000Y-103632000D01*
X173990000Y-103378000D02*
X173482000Y-102870000D01*
X183388000Y-103378000D02*
X173990000Y-103378000D01*
X184658000Y-104648000D02*
X183388000Y-103378000D01*
X185928000Y-104648000D02*
X184658000Y-104648000D01*
G04 #@! TO.N,/PC5*
X185928000Y-107188000D02*
X194564000Y-107188000D01*
X183388000Y-105918000D02*
X184658000Y-107188000D01*
X173482000Y-105410000D02*
X173990000Y-105918000D01*
X159258000Y-105410000D02*
X173482000Y-105410000D01*
X158496000Y-106172000D02*
X159258000Y-105410000D01*
X184658000Y-107188000D02*
X185928000Y-107188000D01*
X173990000Y-105918000D02*
X183388000Y-105918000D01*
X156464000Y-106172000D02*
X158496000Y-106172000D01*
X155956000Y-106680000D02*
X156464000Y-106172000D01*
G04 #@! TO.N,/PC4*
X185928000Y-109728000D02*
X194564000Y-109728000D01*
X184658000Y-109728000D02*
X185928000Y-109728000D01*
X183388000Y-108458000D02*
X184658000Y-109728000D01*
X173990000Y-108458000D02*
X183388000Y-108458000D01*
X173482000Y-107950000D02*
X173990000Y-108458000D01*
X158496000Y-108712000D02*
X159258000Y-107950000D01*
X156464000Y-108712000D02*
X158496000Y-108712000D01*
X159258000Y-107950000D02*
X173482000Y-107950000D01*
X155956000Y-109220000D02*
X156464000Y-108712000D01*
G04 #@! TO.N,/PC3*
X195834000Y-103378000D02*
X197104000Y-102108000D01*
X184658000Y-103378000D02*
X195834000Y-103378000D01*
X183388000Y-102108000D02*
X184658000Y-103378000D01*
X182372000Y-102108000D02*
X183388000Y-102108000D01*
X182372000Y-102108000D02*
X173228000Y-102108000D01*
X173228000Y-102108000D02*
X173228000Y-102108000D01*
X168656000Y-103632000D02*
X160274000Y-103632000D01*
X155956000Y-119380000D02*
X156464000Y-118872000D01*
X156464000Y-118872000D02*
X157480000Y-118872000D01*
X157480000Y-118872000D02*
X159258000Y-118872000D01*
X159258000Y-118872000D02*
X160020000Y-118872000D01*
X160020000Y-118872000D02*
X160274000Y-118872000D01*
X160274000Y-118872000D02*
X160274000Y-118872000D01*
X160274000Y-103632000D02*
X160274000Y-103632000D01*
G04 #@! TO.N,/PC0*
X150876000Y-125476000D02*
X138176000Y-125476000D01*
G04 #@! TO.N,/PC2*
X195834000Y-105918000D02*
X197104000Y-104648000D01*
X183388000Y-104648000D02*
X184658000Y-105918000D01*
X184658000Y-105918000D02*
X195834000Y-105918000D01*
X182372000Y-104648000D02*
X183388000Y-104648000D01*
X182372000Y-104648000D02*
X173228000Y-104648000D01*
X168656000Y-106172000D02*
X162814000Y-106172000D01*
X155956000Y-116840000D02*
X156464000Y-116332000D01*
X156464000Y-116332000D02*
X157226000Y-116332000D01*
X157226000Y-116332000D02*
X162814000Y-116332000D01*
X162814000Y-116332000D02*
X162814000Y-116332000D01*
X162814000Y-106172000D02*
X162814000Y-106172000D01*
G04 #@! TO.N,/PC1*
X182372000Y-107188000D02*
X183388000Y-107188000D01*
X184658000Y-108458000D02*
X195834000Y-108458000D01*
X183388000Y-107188000D02*
X184658000Y-108458000D01*
X195834000Y-108458000D02*
X197104000Y-107188000D01*
X182372000Y-107188000D02*
X173228000Y-107188000D01*
X168656000Y-108712000D02*
X165354000Y-108712000D01*
X155956000Y-114300000D02*
X156464000Y-113792000D01*
X156464000Y-113792000D02*
X160782000Y-113792000D01*
X160782000Y-113792000D02*
X165354000Y-113792000D01*
X165354000Y-113792000D02*
X165354000Y-113792000D01*
X165354000Y-108712000D02*
X165354000Y-108712000D01*
G04 #@! TO.N,/PC0*
X182372000Y-109728000D02*
X183388000Y-109728000D01*
X195834000Y-110998000D02*
X197104000Y-109728000D01*
X183388000Y-109728000D02*
X184658000Y-110998000D01*
X184658000Y-110998000D02*
X195834000Y-110998000D01*
X182372000Y-109728000D02*
X173228000Y-109728000D01*
X173228000Y-109728000D02*
X172466000Y-110490000D01*
X172466000Y-110490000D02*
X169418000Y-110490000D01*
X169418000Y-110490000D02*
X168656000Y-111252000D01*
X156464000Y-111252000D02*
X155956000Y-111760000D01*
X168656000Y-111252000D02*
X156464000Y-111252000D01*
G04 #@! TO.N,/PC3*
X150876000Y-115316000D02*
X138176000Y-115316000D01*
X155956000Y-119380000D02*
X149606000Y-119380000D01*
X149606000Y-119380000D02*
X149606000Y-119380000D01*
G04 #@! TO.N,/PC0*
X155956000Y-111760000D02*
X152654000Y-111760000D01*
X152654000Y-125476000D02*
X150876000Y-125476000D01*
G04 #@! TO.N,/IRQ2*
X138176000Y-130048000D02*
X167386000Y-130048000D01*
X167386000Y-130048000D02*
X167386000Y-130048000D01*
G04 #@! TO.N,/IRQ3*
X140716000Y-130810000D02*
X114046000Y-130810000D01*
X114046000Y-130810000D02*
X114046000Y-130810000D01*
G04 #@! TO.N,/IRQ4*
X143256000Y-131572000D02*
X116586000Y-131572000D01*
X116586000Y-131572000D02*
X116586000Y-131572000D01*
G04 #@! TO.N,/IRQ5*
X145796000Y-132334000D02*
X119126000Y-132334000D01*
X119126000Y-132334000D02*
X119126000Y-132334000D01*
G04 #@! TO.N,/IRQ6*
X148336000Y-133096000D02*
X121666000Y-133096000D01*
X121666000Y-133096000D02*
X121666000Y-133096000D01*
G04 #@! TO.N,/IRQ7*
X150876000Y-133858000D02*
X124206000Y-133858000D01*
X124206000Y-133858000D02*
X124206000Y-133858000D01*
G04 #@! TO.N,/IO_040X*
X113792000Y-90170000D02*
X102870000Y-90170000D01*
X102870000Y-90170000D02*
X102108000Y-90932000D01*
X114554000Y-90932000D02*
X113792000Y-90170000D01*
X119380000Y-90932000D02*
X114554000Y-90932000D01*
X119888000Y-91440000D02*
X119380000Y-90932000D01*
G04 #@! TO.N,/IO_041X*
X102870000Y-92710000D02*
X102108000Y-93472000D01*
X114808000Y-92710000D02*
X102870000Y-92710000D01*
X115570000Y-93472000D02*
X114808000Y-92710000D01*
X119380000Y-93472000D02*
X115570000Y-93472000D01*
X119888000Y-93980000D02*
X119380000Y-93472000D01*
G04 #@! TO.N,/IO_042X*
X102870000Y-95250000D02*
X102108000Y-96012000D01*
X113792000Y-95250000D02*
X102870000Y-95250000D01*
X114554000Y-96012000D02*
X113792000Y-95250000D01*
X119380000Y-96012000D02*
X114554000Y-96012000D01*
X119888000Y-96520000D02*
X119380000Y-96012000D01*
G04 #@! TO.N,/IO_043X*
X115570000Y-97790000D02*
X102870000Y-97790000D01*
X116332000Y-98552000D02*
X115570000Y-97790000D01*
X102870000Y-97790000D02*
X102108000Y-98552000D01*
X119380000Y-98552000D02*
X116332000Y-98552000D01*
X119888000Y-99060000D02*
X119380000Y-98552000D01*
G04 #@! TO.N,/IO_044X*
X102870000Y-100330000D02*
X102108000Y-101092000D01*
X113792000Y-100330000D02*
X102870000Y-100330000D01*
X114554000Y-101092000D02*
X113792000Y-100330000D01*
X119380000Y-101092000D02*
X114554000Y-101092000D01*
X119888000Y-101600000D02*
X119380000Y-101092000D01*
G04 #@! TO.N,/IO_045X*
X102870000Y-102870000D02*
X102108000Y-103632000D01*
X113792000Y-102870000D02*
X102870000Y-102870000D01*
X114554000Y-103632000D02*
X113792000Y-102870000D01*
X119380000Y-103632000D02*
X114554000Y-103632000D01*
X119888000Y-104140000D02*
X119380000Y-103632000D01*
G04 #@! TO.N,/IO_046X*
X113792000Y-105410000D02*
X102870000Y-105410000D01*
X114554000Y-106172000D02*
X113792000Y-105410000D01*
X119380000Y-106172000D02*
X114554000Y-106172000D01*
X102870000Y-105410000D02*
X102108000Y-106172000D01*
X119888000Y-106680000D02*
X119380000Y-106172000D01*
G04 #@! TO.N,/IO_047X*
X112268000Y-104140000D02*
X104648000Y-104140000D01*
X102108000Y-108712000D02*
X104648000Y-108712000D01*
X104648000Y-104140000D02*
X104648000Y-104140000D01*
X104648000Y-108712000D02*
X104648000Y-108712000D01*
G04 #@! TO.N,/CS8255*
X155956000Y-91440000D02*
X143510000Y-91440000D01*
X143510000Y-91440000D02*
X143510000Y-91440000D01*
X143510000Y-83312000D02*
X99568000Y-83312000D01*
X99568000Y-83312000D02*
X99568000Y-83312000D01*
G04 #@! TO.N,/A0*
X98806000Y-136906000D02*
X97536000Y-135636000D01*
X98806000Y-140970000D02*
X98806000Y-136906000D01*
X97536000Y-135636000D02*
X97536000Y-135636000D01*
X97536000Y-113284000D02*
X132842000Y-113284000D01*
X132842000Y-113284000D02*
X133604000Y-112522000D01*
X133604000Y-112522000D02*
X148590000Y-112522000D01*
X148590000Y-112522000D02*
X148844000Y-112522000D01*
X148844000Y-112522000D02*
X148844000Y-112522000D01*
X148844000Y-99060000D02*
X155956000Y-99060000D01*
G04 #@! TO.N,/A1*
X101346000Y-136906000D02*
X100076000Y-135636000D01*
X101346000Y-140970000D02*
X101346000Y-136906000D01*
X100076000Y-135636000D02*
X100076000Y-135636000D01*
X100076000Y-114046000D02*
X133096000Y-114046000D01*
X133096000Y-114046000D02*
X133858000Y-113284000D01*
X133858000Y-113284000D02*
X149606000Y-113284000D01*
X149606000Y-113284000D02*
X149606000Y-113284000D01*
X149606000Y-96520000D02*
X155956000Y-96520000D01*
G04 #@! TO.N,/A4*
X108966000Y-136652000D02*
X107696000Y-135382000D01*
X108966000Y-140716000D02*
X108966000Y-136652000D01*
X107696000Y-135382000D02*
X107696000Y-135382000D01*
X112268000Y-88900000D02*
X107696000Y-88900000D01*
G04 #@! TO.N,/A5*
X111506000Y-136652000D02*
X110236000Y-135382000D01*
X110236000Y-135382000D02*
X110236000Y-135382000D01*
X111506000Y-140716000D02*
X111506000Y-136652000D01*
X112268000Y-91440000D02*
X110236000Y-91440000D01*
G04 #@! TO.N,/A6*
X114046000Y-136652000D02*
X112776000Y-135382000D01*
X114046000Y-140716000D02*
X114046000Y-136652000D01*
X112776000Y-135382000D02*
X112776000Y-135382000D01*
X114046000Y-93980000D02*
X112268000Y-93980000D01*
G04 #@! TO.N,/A7*
X115316000Y-135382000D02*
X115316000Y-135382000D01*
X116586000Y-136652000D02*
X115316000Y-135382000D01*
X116586000Y-140716000D02*
X116586000Y-136652000D01*
X115316000Y-99060000D02*
X112268000Y-99060000D01*
G04 #@! TO.N,/A8*
X119126000Y-136652000D02*
X117856000Y-135382000D01*
X119126000Y-140716000D02*
X119126000Y-136652000D01*
X117856000Y-135382000D02*
X117856000Y-135382000D01*
X121158000Y-90170000D02*
X122428000Y-88900000D01*
X117856000Y-90170000D02*
X121158000Y-90170000D01*
G04 #@! TO.N,/A9*
X120396000Y-135382000D02*
X120396000Y-135382000D01*
X121666000Y-136652000D02*
X120396000Y-135382000D01*
X121666000Y-140716000D02*
X121666000Y-136652000D01*
G04 #@! TO.N,/A10*
X124206000Y-136652000D02*
X122936000Y-135382000D01*
X122936000Y-135382000D02*
X122936000Y-135382000D01*
X124206000Y-140716000D02*
X124206000Y-136652000D01*
X124460000Y-93980000D02*
X122428000Y-93980000D01*
G04 #@! TO.N,/A11*
X125476000Y-135382000D02*
X125476000Y-135382000D01*
X126746000Y-136652000D02*
X125476000Y-135382000D01*
X126746000Y-140716000D02*
X126746000Y-136652000D01*
X125476000Y-99060000D02*
X122428000Y-99060000D01*
G04 #@! TO.N,/A12*
X129286000Y-140716000D02*
X129286000Y-136652000D01*
X129286000Y-136652000D02*
X128016000Y-135382000D01*
X128016000Y-135382000D02*
X128016000Y-135382000D01*
X131318000Y-90170000D02*
X132588000Y-88900000D01*
X128016000Y-90170000D02*
X131318000Y-90170000D01*
G04 #@! TO.N,/A13*
X130556000Y-135382000D02*
X130556000Y-135382000D01*
X131826000Y-136652000D02*
X130556000Y-135382000D01*
X131826000Y-140716000D02*
X131826000Y-136652000D01*
G04 #@! TO.N,/A14*
X134366000Y-136652000D02*
X133096000Y-135382000D01*
X134366000Y-140716000D02*
X134366000Y-136652000D01*
X133096000Y-135382000D02*
X133096000Y-135382000D01*
X134620000Y-93980000D02*
X132588000Y-93980000D01*
G04 #@! TO.N,/A15*
X136906000Y-136652000D02*
X135636000Y-135382000D01*
X136906000Y-140716000D02*
X136906000Y-136652000D01*
X135636000Y-135382000D02*
X135636000Y-135382000D01*
X135636000Y-99060000D02*
X132588000Y-99060000D01*
G04 #@! TO.N,/D0*
X154686000Y-136652000D02*
X153416000Y-135382000D01*
X154686000Y-140716000D02*
X154686000Y-136652000D01*
X153416000Y-135382000D02*
X153416000Y-135382000D01*
X170688000Y-94488000D02*
X171196000Y-93980000D01*
X160528000Y-94488000D02*
X170688000Y-94488000D01*
X159766000Y-95250000D02*
X160528000Y-94488000D01*
X153416000Y-95250000D02*
X159766000Y-95250000D01*
G04 #@! TO.N,/D1*
X157226000Y-140716000D02*
X157226000Y-135636000D01*
X157226000Y-135636000D02*
X157480000Y-135382000D01*
X157734000Y-97028000D02*
X157734000Y-97028000D01*
X170942000Y-96774000D02*
X171196000Y-96520000D01*
X157988000Y-96774000D02*
X170942000Y-96774000D01*
X157734000Y-97028000D02*
X157988000Y-96774000D01*
G04 #@! TO.N,/D2*
X159766000Y-136652000D02*
X158496000Y-135382000D01*
X159766000Y-140716000D02*
X159766000Y-136652000D01*
X158496000Y-135382000D02*
X158496000Y-135382000D01*
X170688000Y-99568000D02*
X158496000Y-99568000D01*
X171196000Y-99060000D02*
X170688000Y-99568000D01*
G04 #@! TO.N,/D3*
X161036000Y-135382000D02*
X161036000Y-135382000D01*
X162306000Y-140716000D02*
X162306000Y-136652000D01*
X162306000Y-136652000D02*
X161036000Y-135382000D01*
X170688000Y-102108000D02*
X161036000Y-102108000D01*
X171196000Y-101600000D02*
X170688000Y-102108000D01*
G04 #@! TO.N,/D4*
X163576000Y-135382000D02*
X163576000Y-135382000D01*
X164846000Y-140716000D02*
X164846000Y-136652000D01*
X164846000Y-136652000D02*
X163576000Y-135382000D01*
X170688000Y-104648000D02*
X163576000Y-104648000D01*
X171196000Y-104140000D02*
X170688000Y-104648000D01*
G04 #@! TO.N,/D5*
X167386000Y-136652000D02*
X166116000Y-135382000D01*
X167386000Y-140716000D02*
X167386000Y-136652000D01*
X166116000Y-135382000D02*
X166116000Y-135382000D01*
X170688000Y-107188000D02*
X166116000Y-107188000D01*
X171196000Y-106680000D02*
X170688000Y-107188000D01*
G04 #@! TO.N,/D6*
X168656000Y-135382000D02*
X168656000Y-135382000D01*
X169926000Y-140716000D02*
X169926000Y-136652000D01*
X169926000Y-136652000D02*
X168656000Y-135382000D01*
X170688000Y-109728000D02*
X168656000Y-109728000D01*
X171196000Y-109220000D02*
X170688000Y-109728000D01*
G04 #@! TO.N,/D7*
X172466000Y-140716000D02*
X172466000Y-136398000D01*
X172466000Y-136398000D02*
X169418000Y-133350000D01*
X170688000Y-112268000D02*
X171196000Y-111760000D01*
X169418000Y-112268000D02*
X170688000Y-112268000D01*
D19*
G04 #@! TO.N,/GND*
X195834000Y-100838000D02*
X197104000Y-99568000D01*
X187198000Y-100838000D02*
X191516000Y-100838000D01*
X185928000Y-99568000D02*
X187198000Y-100838000D01*
X182372000Y-99568000D02*
X185928000Y-99568000D01*
X195834000Y-118618000D02*
X197104000Y-117348000D01*
X187198000Y-118618000D02*
X191516000Y-118618000D01*
X185928000Y-117348000D02*
X187198000Y-118618000D01*
X182372000Y-117348000D02*
X185928000Y-117348000D01*
X185928000Y-81788000D02*
X187198000Y-83058000D01*
X195834000Y-83058000D02*
X197104000Y-81788000D01*
X187198000Y-83058000D02*
X191516000Y-83058000D01*
X182372000Y-81788000D02*
X185928000Y-81788000D01*
X191516000Y-83058000D02*
X195834000Y-83058000D01*
X191516000Y-118618000D02*
X195834000Y-118618000D01*
X191516000Y-100838000D02*
X195834000Y-100838000D01*
X191516000Y-133096000D02*
X195072000Y-133096000D01*
X121158000Y-107950000D02*
X122428000Y-106680000D01*
X118618000Y-107950000D02*
X121158000Y-107950000D01*
X117856000Y-107188000D02*
X118618000Y-107950000D01*
X112776000Y-107188000D02*
X117856000Y-107188000D01*
X112268000Y-106680000D02*
X112776000Y-107188000D01*
X128016000Y-107188000D02*
X128778000Y-107950000D01*
X122428000Y-106680000D02*
X122936000Y-107188000D01*
X128778000Y-107950000D02*
X131318000Y-107950000D01*
X122936000Y-107188000D02*
X126746000Y-107188000D01*
X131318000Y-107950000D02*
X132588000Y-106680000D01*
X125556000Y-86106000D02*
X125048000Y-85598000D01*
X128270000Y-86106000D02*
X125556000Y-86106000D01*
X129286000Y-87122000D02*
X128270000Y-86106000D01*
X132588000Y-86106000D02*
X131572000Y-87122000D01*
X134620000Y-86106000D02*
X132588000Y-86106000D01*
X131572000Y-87122000D02*
X129286000Y-87122000D01*
X135128000Y-85598000D02*
X134620000Y-86106000D01*
X135208000Y-85598000D02*
X135128000Y-85598000D01*
X118110000Y-86106000D02*
X115396000Y-86106000D01*
X115396000Y-86106000D02*
X114888000Y-85598000D01*
X121412000Y-87122000D02*
X119126000Y-87122000D01*
X124460000Y-86106000D02*
X122428000Y-86106000D01*
X124968000Y-85598000D02*
X124460000Y-86106000D01*
X122428000Y-86106000D02*
X121412000Y-87122000D01*
X125048000Y-85598000D02*
X124968000Y-85598000D01*
X119126000Y-87122000D02*
X118110000Y-86106000D01*
X126746000Y-107188000D02*
X128016000Y-107188000D01*
X132588000Y-96520000D02*
X131572000Y-97536000D01*
X131572000Y-97536000D02*
X131318000Y-97790000D01*
X131318000Y-97790000D02*
X126746000Y-97790000D01*
X126746000Y-97790000D02*
X126746000Y-97790000D01*
X191516000Y-133096000D02*
X175006000Y-133096000D01*
X175006000Y-133096000D02*
X175006000Y-133096000D01*
X179070000Y-117856000D02*
X175434000Y-117856000D01*
X175434000Y-117856000D02*
X173990000Y-119300000D01*
X179578000Y-117348000D02*
X179070000Y-117856000D01*
X182372000Y-117348000D02*
X179578000Y-117348000D01*
X182372000Y-99568000D02*
X181610000Y-98806000D01*
X181610000Y-98806000D02*
X177038000Y-98806000D01*
X177038000Y-98806000D02*
X173482000Y-98806000D01*
X173482000Y-98806000D02*
X172466000Y-97790000D01*
X172466000Y-97790000D02*
X159004000Y-97790000D01*
X159004000Y-97790000D02*
X159004000Y-97790000D01*
X155956000Y-93980000D02*
X159004000Y-93980000D01*
X159004000Y-93980000D02*
X159004000Y-93980000D01*
X155956000Y-93980000D02*
X143256000Y-93980000D01*
X143256000Y-93980000D02*
X141986000Y-95250000D01*
X141986000Y-95250000D02*
X138176000Y-95250000D01*
X138176000Y-95250000D02*
X137414000Y-96012000D01*
X133096000Y-96012000D02*
X132588000Y-96520000D01*
X137414000Y-96012000D02*
X133096000Y-96012000D01*
X111760000Y-110998000D02*
X98806002Y-110998000D01*
G04 #@! TO.N,/5+*
X117856000Y-102108000D02*
X118618000Y-102870000D01*
X112268000Y-101600000D02*
X112776000Y-102108000D01*
X118618000Y-102870000D02*
X121158000Y-102870000D01*
X112776000Y-102108000D02*
X117094000Y-102108000D01*
X121158000Y-102870000D02*
X122428000Y-101600000D01*
X128016000Y-102108000D02*
X128778000Y-102870000D01*
X131318000Y-102870000D02*
X132588000Y-101600000D01*
X122936000Y-102108000D02*
X128016000Y-102108000D01*
X122428000Y-101600000D02*
X122936000Y-102108000D01*
X128778000Y-102870000D02*
X131318000Y-102870000D01*
X171196000Y-114300000D02*
X173990000Y-114300000D01*
X173990000Y-114300000D02*
X189230000Y-114300000D01*
X189230000Y-114300000D02*
X189230000Y-114300000D01*
X189230000Y-99568000D02*
X194564000Y-99568000D01*
X189230000Y-81788000D02*
X194564000Y-81788000D01*
X189230000Y-117348000D02*
X194564000Y-117348000D01*
X126746000Y-85090000D02*
X129540000Y-85090000D01*
X125730000Y-84074000D02*
X126746000Y-85090000D01*
X124206000Y-84074000D02*
X125730000Y-84074000D01*
X123190000Y-85090000D02*
X124206000Y-84074000D01*
X120396000Y-85090000D02*
X123190000Y-85090000D01*
X129540000Y-85090000D02*
X130048000Y-85598000D01*
X119888000Y-85598000D02*
X120396000Y-85090000D01*
X130556000Y-85090000D02*
X133350000Y-85090000D01*
X133350000Y-85090000D02*
X134366000Y-84074000D01*
X130048000Y-85598000D02*
X130556000Y-85090000D01*
X139700000Y-85090000D02*
X140208000Y-85598000D01*
X136906000Y-85090000D02*
X139700000Y-85090000D01*
X135890000Y-84074000D02*
X136906000Y-85090000D01*
X134366000Y-84074000D02*
X135890000Y-84074000D01*
X117094000Y-102108000D02*
X117856000Y-102108000D01*
X119380000Y-85090000D02*
X119888000Y-85598000D01*
X117094000Y-85090000D02*
X119380000Y-85090000D01*
X170434000Y-129794000D02*
X175768000Y-129794000D01*
X175768000Y-129794000D02*
X175768000Y-129794000D01*
X175768000Y-92710000D02*
X137414000Y-92710000D01*
X137414000Y-92710000D02*
X137414000Y-92710000D01*
X103886000Y-112014000D02*
X116840000Y-112014000D01*
X116840000Y-112014000D02*
X117094000Y-112014000D01*
X117094000Y-112014000D02*
X117094000Y-112014000D01*
D18*
G04 #@! TO.N,/IOR*
X153416000Y-133604000D02*
X154178000Y-133604000D01*
X151638000Y-134620000D02*
X152654000Y-133604000D01*
X152654000Y-133604000D02*
X153416000Y-133604000D01*
X141986000Y-134620000D02*
X151638000Y-134620000D01*
X154178000Y-133604000D02*
X154178000Y-133604000D01*
X154178000Y-88900000D02*
X155956000Y-88900000D01*
G04 #@! TO.N,/IOW*
X161798000Y-134366000D02*
X161798000Y-134366000D01*
X171196000Y-88900000D02*
X161798000Y-88900000D01*
X152908000Y-134366000D02*
X161798000Y-134366000D01*
X151892000Y-135382000D02*
X152908000Y-134366000D01*
X144526000Y-135382000D02*
X151892000Y-135382000D01*
G04 #@! TO.N,/RST*
X172466000Y-132334000D02*
X164338000Y-132334000D01*
X164338000Y-132334000D02*
X164338000Y-132334000D01*
X170942000Y-91694000D02*
X171196000Y-91440000D01*
X164338000Y-91694000D02*
X170942000Y-91694000D01*
G04 #@! TO.N,/IO_0XXX*
X125222000Y-92710000D02*
X125222000Y-92710000D01*
X125222000Y-96520000D02*
X122428000Y-96520000D01*
X125476000Y-92710000D02*
X125222000Y-92710000D01*
X134112000Y-92710000D02*
X125476000Y-92710000D01*
X135128000Y-91694000D02*
X134112000Y-92710000D01*
X139954000Y-91694000D02*
X135128000Y-91694000D01*
X140208000Y-91440000D02*
X139954000Y-91694000D01*
G04 #@! TO.N,/IO_04XX*
X130048000Y-101600000D02*
X129540000Y-101092000D01*
X129540000Y-101092000D02*
X127254000Y-101092000D01*
X127254000Y-101092000D02*
X124714000Y-101092000D01*
X124714000Y-101092000D02*
X123952000Y-100330000D01*
X123952000Y-100330000D02*
X116078000Y-100330000D01*
X116078000Y-100330000D02*
X116078000Y-100330000D01*
X112776000Y-97028000D02*
X112268000Y-96520000D01*
X116078000Y-97028000D02*
X112776000Y-97028000D01*
G04 #@! TD*
M02*
