M48
; DRILL file {KiCad (5.1.8)-1} date 02/21/23 11:18:13
; FORMAT={-:-/ absolute / inch / decimal}
; #@! TF.CreationDate,2023-02-21T11:18:13-07:00
; #@! TF.GenerationSoftware,Kicad,Pcbnew,(5.1.8)-1
; #@! TF.FileFunction,Plated,1,2,PTH
FMAT,2
INCH
T1C0.0157
T2C0.0315
T3C0.0394
T4C0.1200
%
G90
G05
T1
X3.84Y-4.46
X3.84Y-5.34
X3.89Y-4.37
X3.92Y-3.28
X3.94Y-4.49
X3.94Y-5.34
X4.09Y-4.41
X4.12Y-4.1
X4.12Y-4.28
X4.24Y-3.5
X4.24Y-5.33
X4.34Y-3.6
X4.34Y-5.33
X4.4Y-4.37
X4.44Y-5.33
X4.49Y-3.7
X4.49Y-5.15
X4.54Y-3.9
X4.54Y-5.33
X4.57Y-3.82
X4.57Y-3.95
X4.59Y-5.18
X4.61Y-3.35
X4.61Y-4.02
X4.61Y-4.41
X4.64Y-3.55
X4.64Y-5.33
X4.69Y-5.21
X4.74Y-5.33
X4.79Y-5.24
X4.84Y-5.33
X4.89Y-5.27
X4.9Y-3.7
X4.93Y-3.65
X4.93Y-3.8
X4.94Y-3.9
X4.94Y-5.33
X4.99Y-3.39
X4.99Y-3.85
X4.99Y-4.22
X5.04Y-3.55
X5.04Y-5.33
X5.14Y-5.33
X5.24Y-5.33
X5.3Y-3.7
X5.34Y-3.9
X5.34Y-5.33
X5.41Y-3.35
X5.41Y-3.65
X5.44Y-5.12
X5.54Y-5.15
X5.59Y-5.3
X5.64Y-5.18
X5.65Y-3.28
X5.65Y-3.6
X5.69Y-5.33
X5.74Y-5.21
X5.84Y-5.24
X5.86Y-3.9
X5.86Y-4.43
X5.89Y-3.8
X5.89Y-4.46
X5.89Y-4.7
X5.94Y-5.27
X6.01Y-4.4
X6.01Y-4.94
X6.04Y-3.75
X6.04Y-5.33
X6.07Y-3.5
X6.07Y-5.26
X6.2Y-5.33
X6.21Y-3.82
X6.24Y-3.92
X6.24Y-5.33
X6.26Y-3.7
X6.26Y-3.85
X6.27Y-4.8
X6.27Y-5.02
X6.31Y-4.08
X6.31Y-4.68
X6.34Y-4.02
X6.34Y-5.33
X6.37Y-3.5
X6.37Y-5.29
X6.38Y-3.1
X6.38Y-3.25
X6.41Y-3.2
X6.41Y-3.35
X6.41Y-4.18
X6.41Y-4.58
X6.44Y-3.3
X6.44Y-3.45
X6.44Y-4.12
X6.44Y-5.33
X6.47Y-3.4
X6.47Y-3.55
X6.47Y-3.61
X6.47Y-5.21
X6.51Y-4.28
X6.51Y-4.48
X6.54Y-4.22
X6.54Y-5.33
X6.59Y-5.12
X6.6Y-4.85
X6.6Y-4.98
X6.64Y-4.08
X6.64Y-4.18
X6.64Y-4.28
X6.64Y-4.32
X6.64Y-5.33
X6.67Y-4.42
X6.67Y-5.25
X6.71Y-5.11
X6.79Y-5.21
X6.81Y-4.8
X6.81Y-4.9
X6.82Y-4.02
X6.82Y-4.12
X6.82Y-4.22
X6.86Y-4.87
X6.86Y-4.97
X6.87Y-3.35
X6.87Y-3.44
X6.89Y-5.24
X6.91Y-3.25
X6.91Y-3.34
X6.92Y-3.65
X6.92Y-4.5
X6.92Y-5.11
X6.98Y-3.1
X6.98Y-3.57
X7.01Y-3.2
X7.01Y-3.47
X7.02Y-4.6
X7.02Y-4.68
X7.03Y-4.72
X7.03Y-5.0
X7.04Y-3.3
X7.04Y-3.37
X7.07Y-3.27
X7.07Y-3.4
X7.45Y-3.22
X7.45Y-3.92
X7.45Y-4.5
X7.45Y-4.62
X7.54Y-3.27
X7.54Y-3.97
X7.54Y-4.67
X7.54Y-4.67
X7.54Y-5.24
T2
X7.18Y-3.92
X7.18Y-4.02
X7.18Y-4.12
X7.18Y-4.22
X7.18Y-4.32
X4.9231Y-3.37
X5.12Y-3.37
X4.5231Y-3.37
X4.72Y-3.37
X7.18Y-3.22
X7.18Y-3.32
X7.18Y-3.42
X7.18Y-3.52
X7.18Y-3.62
X6.14Y-3.1
X6.14Y-3.2
X6.14Y-3.3
X6.14Y-3.4
X6.14Y-3.5
X6.14Y-3.6
X6.14Y-3.7
X6.14Y-3.8
X6.14Y-3.9
X6.14Y-4.0
X6.14Y-4.1
X6.14Y-4.2
X6.14Y-4.3
X6.14Y-4.4
X6.14Y-4.5
X6.14Y-4.6
X6.14Y-4.7
X6.14Y-4.8
X6.14Y-4.9
X6.14Y-5.0
X6.74Y-3.1
X6.74Y-3.2
X6.74Y-3.3
X6.74Y-3.4
X6.74Y-3.5
X6.74Y-3.6
X6.74Y-3.7
X6.74Y-3.8
X6.74Y-3.9
X6.74Y-4.0
X6.74Y-4.1
X6.74Y-4.2
X6.74Y-4.3
X6.74Y-4.4
X6.74Y-4.5
X6.74Y-4.6
X6.74Y-4.7
X6.74Y-4.8
X6.74Y-4.9
X6.74Y-5.0
X7.18Y-4.62
X7.18Y-4.72
X7.18Y-4.82
X7.18Y-4.92
X7.18Y-5.02
X4.42Y-3.5
X4.42Y-3.6
X4.42Y-3.7
X4.42Y-3.8
X4.42Y-3.9
X4.42Y-4.0
X4.42Y-4.1
X4.42Y-4.2
X4.72Y-3.5
X4.72Y-3.6
X4.72Y-3.7
X4.72Y-3.8
X4.72Y-3.9
X4.72Y-4.0
X4.72Y-4.1
X4.72Y-4.2
X7.32Y-3.22
X7.32Y-3.32
X7.32Y-3.42
X7.32Y-3.52
X7.32Y-3.62
X7.32Y-4.62
X7.32Y-4.72
X7.32Y-4.82
X7.32Y-4.92
X7.32Y-5.02
X5.22Y-3.5
X5.22Y-3.6
X5.22Y-3.7
X5.22Y-3.8
X5.22Y-3.9
X5.22Y-4.0
X5.22Y-4.1
X5.22Y-4.2
X5.52Y-3.5
X5.52Y-3.6
X5.52Y-3.7
X5.52Y-3.8
X5.52Y-3.9
X5.52Y-4.0
X5.52Y-4.1
X5.52Y-4.2
X6.85Y-4.5
X6.85Y-4.6969
X4.82Y-3.5
X4.82Y-3.6
X4.82Y-3.7
X4.82Y-3.8
X4.82Y-3.9
X4.82Y-4.0
X4.82Y-4.1
X4.82Y-4.2
X5.12Y-3.5
X5.12Y-3.6
X5.12Y-3.7
X5.12Y-3.8
X5.12Y-3.9
X5.12Y-4.0
X5.12Y-4.1
X5.12Y-4.2
X7.32Y-3.92
X7.32Y-4.02
X7.32Y-4.12
X7.32Y-4.22
X7.32Y-4.32
X5.3231Y-3.37
X5.52Y-3.37
T3
X3.92Y-3.58
X3.92Y-3.68
X3.92Y-3.78
X3.92Y-3.88
X3.92Y-3.98
X3.92Y-4.08
X3.92Y-4.18
X3.92Y-4.28
X4.02Y-3.58
X4.02Y-3.68
X4.02Y-3.78
X4.02Y-3.88
X4.02Y-3.98
X4.02Y-4.08
X4.02Y-4.18
X4.02Y-4.28
X7.66Y-3.92
X7.66Y-4.02
X7.66Y-4.12
X7.66Y-4.22
X7.66Y-4.32
X7.76Y-3.92
X7.76Y-4.02
X7.76Y-4.12
X7.76Y-4.22
X7.76Y-4.32
X7.66Y-3.22
X7.66Y-3.32
X7.66Y-3.42
X7.66Y-3.52
X7.66Y-3.62
X7.76Y-3.22
X7.76Y-3.32
X7.76Y-3.42
X7.76Y-3.52
X7.76Y-3.62
X7.66Y-4.62
X7.66Y-4.72
X7.66Y-4.82
X7.66Y-4.92
X7.66Y-5.02
X7.76Y-4.62
X7.76Y-4.72
X7.76Y-4.82
X7.76Y-4.92
X7.76Y-5.02
X5.44Y-4.54
X5.44Y-4.64
X5.54Y-4.54
X5.54Y-4.64
X5.64Y-4.54
X5.64Y-4.64
X5.74Y-4.54
X5.74Y-4.64
X5.84Y-4.54
X5.84Y-4.64
X5.94Y-4.54
X5.94Y-4.64
X5.44Y-4.94
X5.44Y-5.04
X5.54Y-4.94
X5.54Y-5.04
X5.64Y-4.94
X5.64Y-5.04
X5.74Y-4.94
X5.74Y-5.04
X5.84Y-4.94
X5.84Y-5.04
X5.94Y-4.94
X5.94Y-5.04
T4
X7.68Y-5.24
X7.68Y-2.99
T0
M30
