G04 #@! TF.GenerationSoftware,KiCad,Pcbnew,(5.1.8)-1*
G04 #@! TF.CreationDate,2023-02-21T11:18:10-07:00*
G04 #@! TF.ProjectId,PPort,50506f72-742e-46b6-9963-61645f706362,rev?*
G04 #@! TF.SameCoordinates,Original*
G04 #@! TF.FileFunction,Soldermask,Bot*
G04 #@! TF.FilePolarity,Negative*
%FSLAX46Y46*%
G04 Gerber Fmt 4.6, Leading zero omitted, Abs format (unit mm)*
G04 Created by KiCad (PCBNEW (5.1.8)-1) date 2023-02-21 11:18:10*
%MOMM*%
%LPD*%
G01*
G04 APERTURE LIST*
%ADD10O,1.600000X1.600000*%
%ADD11R,1.600000X1.600000*%
%ADD12C,1.600000*%
%ADD13O,1.700000X1.700000*%
%ADD14R,1.700000X1.700000*%
%ADD15C,3.556000*%
%ADD16R,1.780000X7.620000*%
G04 APERTURE END LIST*
D10*
G04 #@! TO.C,RN6*
X182372000Y-91948000D03*
X182372000Y-89408000D03*
X182372000Y-86868000D03*
X182372000Y-84328000D03*
D11*
X182372000Y-81788000D03*
G04 #@! TD*
D10*
G04 #@! TO.C,RN5*
X185928000Y-91948000D03*
X185928000Y-89408000D03*
X185928000Y-86868000D03*
X185928000Y-84328000D03*
D11*
X185928000Y-81788000D03*
G04 #@! TD*
D10*
G04 #@! TO.C,RN4*
X182372000Y-127508000D03*
X182372000Y-124968000D03*
X182372000Y-122428000D03*
X182372000Y-119888000D03*
D11*
X182372000Y-117348000D03*
G04 #@! TD*
D10*
G04 #@! TO.C,RN3*
X182372000Y-109728000D03*
X182372000Y-107188000D03*
X182372000Y-104648000D03*
X182372000Y-102108000D03*
D11*
X182372000Y-99568000D03*
G04 #@! TD*
D10*
G04 #@! TO.C,RN2*
X185928000Y-127508000D03*
X185928000Y-124968000D03*
X185928000Y-122428000D03*
X185928000Y-119888000D03*
D11*
X185928000Y-117348000D03*
G04 #@! TD*
D10*
G04 #@! TO.C,RN1*
X185928000Y-109728000D03*
X185928000Y-107188000D03*
X185928000Y-104648000D03*
X185928000Y-102108000D03*
D11*
X185928000Y-99568000D03*
G04 #@! TD*
D12*
G04 #@! TO.C,C4*
X130048000Y-85598000D03*
X125048000Y-85598000D03*
G04 #@! TD*
G04 #@! TO.C,C3*
X119888000Y-85598000D03*
X114888000Y-85598000D03*
G04 #@! TD*
G04 #@! TO.C,C2*
X140208000Y-85598000D03*
X135208000Y-85598000D03*
G04 #@! TD*
G04 #@! TO.C,C1*
X173990000Y-114300000D03*
X173990000Y-119300000D03*
G04 #@! TD*
D13*
G04 #@! TO.C,J3*
X197104000Y-91948000D03*
X194564000Y-91948000D03*
X197104000Y-89408000D03*
X194564000Y-89408000D03*
X197104000Y-86868000D03*
X194564000Y-86868000D03*
X197104000Y-84328000D03*
X194564000Y-84328000D03*
X197104000Y-81788000D03*
D14*
X194564000Y-81788000D03*
G04 #@! TD*
D13*
G04 #@! TO.C,J2*
X197104000Y-127508000D03*
X194564000Y-127508000D03*
X197104000Y-124968000D03*
X194564000Y-124968000D03*
X197104000Y-122428000D03*
X194564000Y-122428000D03*
X197104000Y-119888000D03*
X194564000Y-119888000D03*
X197104000Y-117348000D03*
D14*
X194564000Y-117348000D03*
G04 #@! TD*
D13*
G04 #@! TO.C,J1*
X197104000Y-109728000D03*
X194564000Y-109728000D03*
X197104000Y-107188000D03*
X194564000Y-107188000D03*
X197104000Y-104648000D03*
X194564000Y-104648000D03*
X197104000Y-102108000D03*
X194564000Y-102108000D03*
X197104000Y-99568000D03*
D14*
X194564000Y-99568000D03*
G04 #@! TD*
D15*
G04 #@! TO.C,R*
X195072000Y-133096000D03*
G04 #@! TD*
G04 #@! TO.C,R*
X195072000Y-75946000D03*
G04 #@! TD*
D10*
G04 #@! TO.C,U4*
X130048000Y-88900000D03*
X122428000Y-106680000D03*
X130048000Y-91440000D03*
X122428000Y-104140000D03*
X130048000Y-93980000D03*
X122428000Y-101600000D03*
X130048000Y-96520000D03*
X122428000Y-99060000D03*
X130048000Y-99060000D03*
X122428000Y-96520000D03*
X130048000Y-101600000D03*
X122428000Y-93980000D03*
X130048000Y-104140000D03*
X122428000Y-91440000D03*
X130048000Y-106680000D03*
D11*
X122428000Y-88900000D03*
G04 #@! TD*
D10*
G04 #@! TO.C,U3*
X119888000Y-88900000D03*
X112268000Y-106680000D03*
X119888000Y-91440000D03*
X112268000Y-104140000D03*
X119888000Y-93980000D03*
X112268000Y-101600000D03*
X119888000Y-96520000D03*
X112268000Y-99060000D03*
X119888000Y-99060000D03*
X112268000Y-96520000D03*
X119888000Y-101600000D03*
X112268000Y-93980000D03*
X119888000Y-104140000D03*
X112268000Y-91440000D03*
X119888000Y-106680000D03*
D11*
X112268000Y-88900000D03*
G04 #@! TD*
D10*
G04 #@! TO.C,U2*
X140208000Y-88900000D03*
X132588000Y-106680000D03*
X140208000Y-91440000D03*
X132588000Y-104140000D03*
X140208000Y-93980000D03*
X132588000Y-101600000D03*
X140208000Y-96520000D03*
X132588000Y-99060000D03*
X140208000Y-99060000D03*
X132588000Y-96520000D03*
X140208000Y-101600000D03*
X132588000Y-93980000D03*
X140208000Y-104140000D03*
X132588000Y-91440000D03*
X140208000Y-106680000D03*
D11*
X132588000Y-88900000D03*
G04 #@! TD*
D10*
G04 #@! TO.C,U1*
X171196000Y-78740000D03*
X155956000Y-127000000D03*
X171196000Y-81280000D03*
X155956000Y-124460000D03*
X171196000Y-83820000D03*
X155956000Y-121920000D03*
X171196000Y-86360000D03*
X155956000Y-119380000D03*
X171196000Y-88900000D03*
X155956000Y-116840000D03*
X171196000Y-91440000D03*
X155956000Y-114300000D03*
X171196000Y-93980000D03*
X155956000Y-111760000D03*
X171196000Y-96520000D03*
X155956000Y-109220000D03*
X171196000Y-99060000D03*
X155956000Y-106680000D03*
X171196000Y-101600000D03*
X155956000Y-104140000D03*
X171196000Y-104140000D03*
X155956000Y-101600000D03*
X171196000Y-106680000D03*
X155956000Y-99060000D03*
X171196000Y-109220000D03*
X155956000Y-96520000D03*
X171196000Y-111760000D03*
X155956000Y-93980000D03*
X171196000Y-114300000D03*
X155956000Y-91440000D03*
X171196000Y-116840000D03*
X155956000Y-88900000D03*
X171196000Y-119380000D03*
X155956000Y-86360000D03*
X171196000Y-121920000D03*
X155956000Y-83820000D03*
X171196000Y-124460000D03*
X155956000Y-81280000D03*
X171196000Y-127000000D03*
D11*
X155956000Y-78740000D03*
G04 #@! TD*
D16*
G04 #@! TO.C,J7*
X98806000Y-140716000D03*
X101346000Y-140716000D03*
X103886000Y-140716000D03*
X106426000Y-140716000D03*
X108966000Y-140716000D03*
X111506000Y-140716000D03*
X114046000Y-140716000D03*
X116586000Y-140716000D03*
X119126000Y-140716000D03*
X121666000Y-140716000D03*
X124206000Y-140716000D03*
X126746000Y-140716000D03*
X129286000Y-140716000D03*
X131826000Y-140716000D03*
X134366000Y-140716000D03*
X136906000Y-140716000D03*
X139446000Y-140716000D03*
X141986000Y-140716000D03*
X144526000Y-140716000D03*
X147066000Y-140716000D03*
X149606000Y-140716000D03*
X152146000Y-140716000D03*
X154686000Y-140716000D03*
X157226000Y-140716000D03*
X159766000Y-140716000D03*
X162306000Y-140716000D03*
X164846000Y-140716000D03*
X167386000Y-140716000D03*
X169926000Y-140716000D03*
X172466000Y-140716000D03*
X175006000Y-140716000D03*
G04 #@! TD*
D13*
G04 #@! TO.C,J6*
X102108000Y-108712000D03*
X99568000Y-108712000D03*
X102108000Y-106172000D03*
X99568000Y-106172000D03*
X102108000Y-103632000D03*
X99568000Y-103632000D03*
X102108000Y-101092000D03*
X99568000Y-101092000D03*
X102108000Y-98552000D03*
X99568000Y-98552000D03*
X102108000Y-96012000D03*
X99568000Y-96012000D03*
X102108000Y-93472000D03*
X99568000Y-93472000D03*
X102108000Y-90932000D03*
D14*
X99568000Y-90932000D03*
G04 #@! TD*
D13*
G04 #@! TO.C,J5*
X138176000Y-117856000D03*
X138176000Y-115316000D03*
X140716000Y-117856000D03*
X140716000Y-115316000D03*
X143256000Y-117856000D03*
X143256000Y-115316000D03*
X145796000Y-117856000D03*
X145796000Y-115316000D03*
X148336000Y-117856000D03*
X148336000Y-115316000D03*
X150876000Y-117856000D03*
D14*
X150876000Y-115316000D03*
G04 #@! TD*
D13*
G04 #@! TO.C,J4*
X138176000Y-128016000D03*
X138176000Y-125476000D03*
X140716000Y-128016000D03*
X140716000Y-125476000D03*
X143256000Y-128016000D03*
X143256000Y-125476000D03*
X145796000Y-128016000D03*
X145796000Y-125476000D03*
X148336000Y-128016000D03*
X148336000Y-125476000D03*
X150876000Y-128016000D03*
D14*
X150876000Y-125476000D03*
G04 #@! TD*
M02*
