G04 #@! TF.GenerationSoftware,KiCad,Pcbnew,(5.1.8)-1*
G04 #@! TF.CreationDate,2023-02-21T11:18:10-07:00*
G04 #@! TF.ProjectId,PPort,50506f72-742e-46b6-9963-61645f706362,rev?*
G04 #@! TF.SameCoordinates,Original*
G04 #@! TF.FileFunction,Legend,Top*
G04 #@! TF.FilePolarity,Positive*
%FSLAX46Y46*%
G04 Gerber Fmt 4.6, Leading zero omitted, Abs format (unit mm)*
G04 Created by KiCad (PCBNEW (5.1.8)-1) date 2023-02-21 11:18:10*
%MOMM*%
%LPD*%
G01*
G04 APERTURE LIST*
%ADD10C,0.120000*%
%ADD11C,0.150000*%
G04 APERTURE END LIST*
D10*
X192532000Y-88138000D02*
X187960000Y-88138000D01*
X192532000Y-83058000D02*
X187960000Y-83058000D01*
X187960000Y-92710000D02*
X192532000Y-92710000D01*
X187960000Y-80772000D02*
X187960000Y-92710000D01*
X190246000Y-80772000D02*
X190246000Y-92710000D01*
X192532000Y-90678000D02*
X187960000Y-90678000D01*
X192532000Y-92710000D02*
X192532000Y-80772000D01*
X187960000Y-85598000D02*
X192532000Y-85598000D01*
X192532000Y-80772000D02*
X187960000Y-80772000D01*
D11*
X190777904Y-84780380D02*
X190777904Y-83780380D01*
X191158857Y-83780380D01*
X191254095Y-83828000D01*
X191301714Y-83875619D01*
X191349333Y-83970857D01*
X191349333Y-84113714D01*
X191301714Y-84208952D01*
X191254095Y-84256571D01*
X191158857Y-84304190D01*
X190777904Y-84304190D01*
X191682666Y-83780380D02*
X192301714Y-83780380D01*
X191968380Y-84161333D01*
X192111238Y-84161333D01*
X192206476Y-84208952D01*
X192254095Y-84256571D01*
X192301714Y-84351809D01*
X192301714Y-84589904D01*
X192254095Y-84685142D01*
X192206476Y-84732761D01*
X192111238Y-84780380D01*
X191825523Y-84780380D01*
X191730285Y-84732761D01*
X191682666Y-84685142D01*
X188491904Y-89860380D02*
X188491904Y-88860380D01*
X188872857Y-88860380D01*
X188968095Y-88908000D01*
X189015714Y-88955619D01*
X189063333Y-89050857D01*
X189063333Y-89193714D01*
X189015714Y-89288952D01*
X188968095Y-89336571D01*
X188872857Y-89384190D01*
X188491904Y-89384190D01*
X189968095Y-88860380D02*
X189491904Y-88860380D01*
X189444285Y-89336571D01*
X189491904Y-89288952D01*
X189587142Y-89241333D01*
X189825238Y-89241333D01*
X189920476Y-89288952D01*
X189968095Y-89336571D01*
X190015714Y-89431809D01*
X190015714Y-89669904D01*
X189968095Y-89765142D01*
X189920476Y-89812761D01*
X189825238Y-89860380D01*
X189587142Y-89860380D01*
X189491904Y-89812761D01*
X189444285Y-89765142D01*
X190777904Y-92400380D02*
X190777904Y-91400380D01*
X191158857Y-91400380D01*
X191254095Y-91448000D01*
X191301714Y-91495619D01*
X191349333Y-91590857D01*
X191349333Y-91733714D01*
X191301714Y-91828952D01*
X191254095Y-91876571D01*
X191158857Y-91924190D01*
X190777904Y-91924190D01*
X191968380Y-91400380D02*
X192063619Y-91400380D01*
X192158857Y-91448000D01*
X192206476Y-91495619D01*
X192254095Y-91590857D01*
X192301714Y-91781333D01*
X192301714Y-92019428D01*
X192254095Y-92209904D01*
X192206476Y-92305142D01*
X192158857Y-92352761D01*
X192063619Y-92400380D01*
X191968380Y-92400380D01*
X191873142Y-92352761D01*
X191825523Y-92305142D01*
X191777904Y-92209904D01*
X191730285Y-92019428D01*
X191730285Y-91781333D01*
X191777904Y-91590857D01*
X191825523Y-91495619D01*
X191873142Y-91448000D01*
X191968380Y-91400380D01*
X191032190Y-81288000D02*
X190971714Y-81240380D01*
X190881000Y-81240380D01*
X190790285Y-81288000D01*
X190729809Y-81383238D01*
X190699571Y-81478476D01*
X190669333Y-81668952D01*
X190669333Y-81811809D01*
X190699571Y-82002285D01*
X190729809Y-82097523D01*
X190790285Y-82192761D01*
X190881000Y-82240380D01*
X190941476Y-82240380D01*
X191032190Y-82192761D01*
X191062428Y-82145142D01*
X191062428Y-81811809D01*
X190941476Y-81811809D01*
X191334571Y-82240380D02*
X191334571Y-81240380D01*
X191697428Y-82240380D01*
X191697428Y-81240380D01*
X191999809Y-82240380D02*
X191999809Y-81240380D01*
X192151000Y-81240380D01*
X192241714Y-81288000D01*
X192302190Y-81383238D01*
X192332428Y-81478476D01*
X192362666Y-81668952D01*
X192362666Y-81811809D01*
X192332428Y-82002285D01*
X192302190Y-82097523D01*
X192241714Y-82192761D01*
X192151000Y-82240380D01*
X191999809Y-82240380D01*
X188849047Y-81240380D02*
X188372857Y-81240380D01*
X188325238Y-81716571D01*
X188372857Y-81668952D01*
X188468095Y-81621333D01*
X188706190Y-81621333D01*
X188801428Y-81668952D01*
X188849047Y-81716571D01*
X188896666Y-81811809D01*
X188896666Y-82049904D01*
X188849047Y-82145142D01*
X188801428Y-82192761D01*
X188706190Y-82240380D01*
X188468095Y-82240380D01*
X188372857Y-82192761D01*
X188325238Y-82145142D01*
X189325238Y-81859428D02*
X190087142Y-81859428D01*
X189706190Y-82240380D02*
X189706190Y-81478476D01*
X188491904Y-84780380D02*
X188491904Y-83780380D01*
X188872857Y-83780380D01*
X188968095Y-83828000D01*
X189015714Y-83875619D01*
X189063333Y-83970857D01*
X189063333Y-84113714D01*
X189015714Y-84208952D01*
X188968095Y-84256571D01*
X188872857Y-84304190D01*
X188491904Y-84304190D01*
X189396666Y-83780380D02*
X190063333Y-83780380D01*
X189634761Y-84780380D01*
X188491904Y-87320380D02*
X188491904Y-86320380D01*
X188872857Y-86320380D01*
X188968095Y-86368000D01*
X189015714Y-86415619D01*
X189063333Y-86510857D01*
X189063333Y-86653714D01*
X189015714Y-86748952D01*
X188968095Y-86796571D01*
X188872857Y-86844190D01*
X188491904Y-86844190D01*
X189920476Y-86320380D02*
X189730000Y-86320380D01*
X189634761Y-86368000D01*
X189587142Y-86415619D01*
X189491904Y-86558476D01*
X189444285Y-86748952D01*
X189444285Y-87129904D01*
X189491904Y-87225142D01*
X189539523Y-87272761D01*
X189634761Y-87320380D01*
X189825238Y-87320380D01*
X189920476Y-87272761D01*
X189968095Y-87225142D01*
X190015714Y-87129904D01*
X190015714Y-86891809D01*
X189968095Y-86796571D01*
X189920476Y-86748952D01*
X189825238Y-86701333D01*
X189634761Y-86701333D01*
X189539523Y-86748952D01*
X189491904Y-86796571D01*
X189444285Y-86891809D01*
X190777904Y-89860380D02*
X190777904Y-88860380D01*
X191158857Y-88860380D01*
X191254095Y-88908000D01*
X191301714Y-88955619D01*
X191349333Y-89050857D01*
X191349333Y-89193714D01*
X191301714Y-89288952D01*
X191254095Y-89336571D01*
X191158857Y-89384190D01*
X190777904Y-89384190D01*
X192301714Y-89860380D02*
X191730285Y-89860380D01*
X192016000Y-89860380D02*
X192016000Y-88860380D01*
X191920761Y-89003238D01*
X191825523Y-89098476D01*
X191730285Y-89146095D01*
X190777904Y-87320380D02*
X190777904Y-86320380D01*
X191158857Y-86320380D01*
X191254095Y-86368000D01*
X191301714Y-86415619D01*
X191349333Y-86510857D01*
X191349333Y-86653714D01*
X191301714Y-86748952D01*
X191254095Y-86796571D01*
X191158857Y-86844190D01*
X190777904Y-86844190D01*
X191730285Y-86415619D02*
X191777904Y-86368000D01*
X191873142Y-86320380D01*
X192111238Y-86320380D01*
X192206476Y-86368000D01*
X192254095Y-86415619D01*
X192301714Y-86510857D01*
X192301714Y-86606095D01*
X192254095Y-86748952D01*
X191682666Y-87320380D01*
X192301714Y-87320380D01*
X188491904Y-92400380D02*
X188491904Y-91400380D01*
X188872857Y-91400380D01*
X188968095Y-91448000D01*
X189015714Y-91495619D01*
X189063333Y-91590857D01*
X189063333Y-91733714D01*
X189015714Y-91828952D01*
X188968095Y-91876571D01*
X188872857Y-91924190D01*
X188491904Y-91924190D01*
X189920476Y-91733714D02*
X189920476Y-92400380D01*
X189682380Y-91352761D02*
X189444285Y-92067047D01*
X190063333Y-92067047D01*
D10*
X192532000Y-105918000D02*
X187960000Y-105918000D01*
X192532000Y-100838000D02*
X187960000Y-100838000D01*
X187960000Y-110490000D02*
X192532000Y-110490000D01*
X187960000Y-98552000D02*
X187960000Y-110490000D01*
X190246000Y-98552000D02*
X190246000Y-110490000D01*
X192532000Y-108458000D02*
X187960000Y-108458000D01*
X192532000Y-110490000D02*
X192532000Y-98552000D01*
X187960000Y-103378000D02*
X192532000Y-103378000D01*
X192532000Y-98552000D02*
X187960000Y-98552000D01*
D11*
X190777904Y-102560380D02*
X190777904Y-101560380D01*
X191158857Y-101560380D01*
X191254095Y-101608000D01*
X191301714Y-101655619D01*
X191349333Y-101750857D01*
X191349333Y-101893714D01*
X191301714Y-101988952D01*
X191254095Y-102036571D01*
X191158857Y-102084190D01*
X190777904Y-102084190D01*
X191682666Y-101560380D02*
X192301714Y-101560380D01*
X191968380Y-101941333D01*
X192111238Y-101941333D01*
X192206476Y-101988952D01*
X192254095Y-102036571D01*
X192301714Y-102131809D01*
X192301714Y-102369904D01*
X192254095Y-102465142D01*
X192206476Y-102512761D01*
X192111238Y-102560380D01*
X191825523Y-102560380D01*
X191730285Y-102512761D01*
X191682666Y-102465142D01*
X188491904Y-107640380D02*
X188491904Y-106640380D01*
X188872857Y-106640380D01*
X188968095Y-106688000D01*
X189015714Y-106735619D01*
X189063333Y-106830857D01*
X189063333Y-106973714D01*
X189015714Y-107068952D01*
X188968095Y-107116571D01*
X188872857Y-107164190D01*
X188491904Y-107164190D01*
X189968095Y-106640380D02*
X189491904Y-106640380D01*
X189444285Y-107116571D01*
X189491904Y-107068952D01*
X189587142Y-107021333D01*
X189825238Y-107021333D01*
X189920476Y-107068952D01*
X189968095Y-107116571D01*
X190015714Y-107211809D01*
X190015714Y-107449904D01*
X189968095Y-107545142D01*
X189920476Y-107592761D01*
X189825238Y-107640380D01*
X189587142Y-107640380D01*
X189491904Y-107592761D01*
X189444285Y-107545142D01*
X190777904Y-110180380D02*
X190777904Y-109180380D01*
X191158857Y-109180380D01*
X191254095Y-109228000D01*
X191301714Y-109275619D01*
X191349333Y-109370857D01*
X191349333Y-109513714D01*
X191301714Y-109608952D01*
X191254095Y-109656571D01*
X191158857Y-109704190D01*
X190777904Y-109704190D01*
X191968380Y-109180380D02*
X192063619Y-109180380D01*
X192158857Y-109228000D01*
X192206476Y-109275619D01*
X192254095Y-109370857D01*
X192301714Y-109561333D01*
X192301714Y-109799428D01*
X192254095Y-109989904D01*
X192206476Y-110085142D01*
X192158857Y-110132761D01*
X192063619Y-110180380D01*
X191968380Y-110180380D01*
X191873142Y-110132761D01*
X191825523Y-110085142D01*
X191777904Y-109989904D01*
X191730285Y-109799428D01*
X191730285Y-109561333D01*
X191777904Y-109370857D01*
X191825523Y-109275619D01*
X191873142Y-109228000D01*
X191968380Y-109180380D01*
X191032190Y-99068000D02*
X190971714Y-99020380D01*
X190881000Y-99020380D01*
X190790285Y-99068000D01*
X190729809Y-99163238D01*
X190699571Y-99258476D01*
X190669333Y-99448952D01*
X190669333Y-99591809D01*
X190699571Y-99782285D01*
X190729809Y-99877523D01*
X190790285Y-99972761D01*
X190881000Y-100020380D01*
X190941476Y-100020380D01*
X191032190Y-99972761D01*
X191062428Y-99925142D01*
X191062428Y-99591809D01*
X190941476Y-99591809D01*
X191334571Y-100020380D02*
X191334571Y-99020380D01*
X191697428Y-100020380D01*
X191697428Y-99020380D01*
X191999809Y-100020380D02*
X191999809Y-99020380D01*
X192151000Y-99020380D01*
X192241714Y-99068000D01*
X192302190Y-99163238D01*
X192332428Y-99258476D01*
X192362666Y-99448952D01*
X192362666Y-99591809D01*
X192332428Y-99782285D01*
X192302190Y-99877523D01*
X192241714Y-99972761D01*
X192151000Y-100020380D01*
X191999809Y-100020380D01*
X188849047Y-99020380D02*
X188372857Y-99020380D01*
X188325238Y-99496571D01*
X188372857Y-99448952D01*
X188468095Y-99401333D01*
X188706190Y-99401333D01*
X188801428Y-99448952D01*
X188849047Y-99496571D01*
X188896666Y-99591809D01*
X188896666Y-99829904D01*
X188849047Y-99925142D01*
X188801428Y-99972761D01*
X188706190Y-100020380D01*
X188468095Y-100020380D01*
X188372857Y-99972761D01*
X188325238Y-99925142D01*
X189325238Y-99639428D02*
X190087142Y-99639428D01*
X189706190Y-100020380D02*
X189706190Y-99258476D01*
X188491904Y-102560380D02*
X188491904Y-101560380D01*
X188872857Y-101560380D01*
X188968095Y-101608000D01*
X189015714Y-101655619D01*
X189063333Y-101750857D01*
X189063333Y-101893714D01*
X189015714Y-101988952D01*
X188968095Y-102036571D01*
X188872857Y-102084190D01*
X188491904Y-102084190D01*
X189396666Y-101560380D02*
X190063333Y-101560380D01*
X189634761Y-102560380D01*
X188491904Y-105100380D02*
X188491904Y-104100380D01*
X188872857Y-104100380D01*
X188968095Y-104148000D01*
X189015714Y-104195619D01*
X189063333Y-104290857D01*
X189063333Y-104433714D01*
X189015714Y-104528952D01*
X188968095Y-104576571D01*
X188872857Y-104624190D01*
X188491904Y-104624190D01*
X189920476Y-104100380D02*
X189730000Y-104100380D01*
X189634761Y-104148000D01*
X189587142Y-104195619D01*
X189491904Y-104338476D01*
X189444285Y-104528952D01*
X189444285Y-104909904D01*
X189491904Y-105005142D01*
X189539523Y-105052761D01*
X189634761Y-105100380D01*
X189825238Y-105100380D01*
X189920476Y-105052761D01*
X189968095Y-105005142D01*
X190015714Y-104909904D01*
X190015714Y-104671809D01*
X189968095Y-104576571D01*
X189920476Y-104528952D01*
X189825238Y-104481333D01*
X189634761Y-104481333D01*
X189539523Y-104528952D01*
X189491904Y-104576571D01*
X189444285Y-104671809D01*
X190777904Y-107640380D02*
X190777904Y-106640380D01*
X191158857Y-106640380D01*
X191254095Y-106688000D01*
X191301714Y-106735619D01*
X191349333Y-106830857D01*
X191349333Y-106973714D01*
X191301714Y-107068952D01*
X191254095Y-107116571D01*
X191158857Y-107164190D01*
X190777904Y-107164190D01*
X192301714Y-107640380D02*
X191730285Y-107640380D01*
X192016000Y-107640380D02*
X192016000Y-106640380D01*
X191920761Y-106783238D01*
X191825523Y-106878476D01*
X191730285Y-106926095D01*
X190777904Y-105100380D02*
X190777904Y-104100380D01*
X191158857Y-104100380D01*
X191254095Y-104148000D01*
X191301714Y-104195619D01*
X191349333Y-104290857D01*
X191349333Y-104433714D01*
X191301714Y-104528952D01*
X191254095Y-104576571D01*
X191158857Y-104624190D01*
X190777904Y-104624190D01*
X191730285Y-104195619D02*
X191777904Y-104148000D01*
X191873142Y-104100380D01*
X192111238Y-104100380D01*
X192206476Y-104148000D01*
X192254095Y-104195619D01*
X192301714Y-104290857D01*
X192301714Y-104386095D01*
X192254095Y-104528952D01*
X191682666Y-105100380D01*
X192301714Y-105100380D01*
X188491904Y-110180380D02*
X188491904Y-109180380D01*
X188872857Y-109180380D01*
X188968095Y-109228000D01*
X189015714Y-109275619D01*
X189063333Y-109370857D01*
X189063333Y-109513714D01*
X189015714Y-109608952D01*
X188968095Y-109656571D01*
X188872857Y-109704190D01*
X188491904Y-109704190D01*
X189920476Y-109513714D02*
X189920476Y-110180380D01*
X189682380Y-109132761D02*
X189444285Y-109847047D01*
X190063333Y-109847047D01*
D10*
X192532000Y-126238000D02*
X187960000Y-126238000D01*
X192532000Y-123698000D02*
X187960000Y-123698000D01*
X187960000Y-121158000D02*
X192532000Y-121158000D01*
X192532000Y-118618000D02*
X187960000Y-118618000D01*
X192532000Y-116332000D02*
X187960000Y-116332000D01*
X187960000Y-128270000D02*
X192532000Y-128270000D01*
X187960000Y-116332000D02*
X187960000Y-128270000D01*
X192532000Y-128270000D02*
X192532000Y-116332000D01*
X190246000Y-116332000D02*
X190246000Y-128270000D01*
D11*
X191032190Y-116848000D02*
X190971714Y-116800380D01*
X190881000Y-116800380D01*
X190790285Y-116848000D01*
X190729809Y-116943238D01*
X190699571Y-117038476D01*
X190669333Y-117228952D01*
X190669333Y-117371809D01*
X190699571Y-117562285D01*
X190729809Y-117657523D01*
X190790285Y-117752761D01*
X190881000Y-117800380D01*
X190941476Y-117800380D01*
X191032190Y-117752761D01*
X191062428Y-117705142D01*
X191062428Y-117371809D01*
X190941476Y-117371809D01*
X191334571Y-117800380D02*
X191334571Y-116800380D01*
X191697428Y-117800380D01*
X191697428Y-116800380D01*
X191999809Y-117800380D02*
X191999809Y-116800380D01*
X192151000Y-116800380D01*
X192241714Y-116848000D01*
X192302190Y-116943238D01*
X192332428Y-117038476D01*
X192362666Y-117228952D01*
X192362666Y-117371809D01*
X192332428Y-117562285D01*
X192302190Y-117657523D01*
X192241714Y-117752761D01*
X192151000Y-117800380D01*
X191999809Y-117800380D01*
X188849047Y-116800380D02*
X188372857Y-116800380D01*
X188325238Y-117276571D01*
X188372857Y-117228952D01*
X188468095Y-117181333D01*
X188706190Y-117181333D01*
X188801428Y-117228952D01*
X188849047Y-117276571D01*
X188896666Y-117371809D01*
X188896666Y-117609904D01*
X188849047Y-117705142D01*
X188801428Y-117752761D01*
X188706190Y-117800380D01*
X188468095Y-117800380D01*
X188372857Y-117752761D01*
X188325238Y-117705142D01*
X189325238Y-117419428D02*
X190087142Y-117419428D01*
X189706190Y-117800380D02*
X189706190Y-117038476D01*
X190777904Y-120340380D02*
X190777904Y-119340380D01*
X191158857Y-119340380D01*
X191254095Y-119388000D01*
X191301714Y-119435619D01*
X191349333Y-119530857D01*
X191349333Y-119673714D01*
X191301714Y-119768952D01*
X191254095Y-119816571D01*
X191158857Y-119864190D01*
X190777904Y-119864190D01*
X191682666Y-119340380D02*
X192301714Y-119340380D01*
X191968380Y-119721333D01*
X192111238Y-119721333D01*
X192206476Y-119768952D01*
X192254095Y-119816571D01*
X192301714Y-119911809D01*
X192301714Y-120149904D01*
X192254095Y-120245142D01*
X192206476Y-120292761D01*
X192111238Y-120340380D01*
X191825523Y-120340380D01*
X191730285Y-120292761D01*
X191682666Y-120245142D01*
X188491904Y-120340380D02*
X188491904Y-119340380D01*
X188872857Y-119340380D01*
X188968095Y-119388000D01*
X189015714Y-119435619D01*
X189063333Y-119530857D01*
X189063333Y-119673714D01*
X189015714Y-119768952D01*
X188968095Y-119816571D01*
X188872857Y-119864190D01*
X188491904Y-119864190D01*
X189396666Y-119340380D02*
X190063333Y-119340380D01*
X189634761Y-120340380D01*
X188491904Y-122880380D02*
X188491904Y-121880380D01*
X188872857Y-121880380D01*
X188968095Y-121928000D01*
X189015714Y-121975619D01*
X189063333Y-122070857D01*
X189063333Y-122213714D01*
X189015714Y-122308952D01*
X188968095Y-122356571D01*
X188872857Y-122404190D01*
X188491904Y-122404190D01*
X189920476Y-121880380D02*
X189730000Y-121880380D01*
X189634761Y-121928000D01*
X189587142Y-121975619D01*
X189491904Y-122118476D01*
X189444285Y-122308952D01*
X189444285Y-122689904D01*
X189491904Y-122785142D01*
X189539523Y-122832761D01*
X189634761Y-122880380D01*
X189825238Y-122880380D01*
X189920476Y-122832761D01*
X189968095Y-122785142D01*
X190015714Y-122689904D01*
X190015714Y-122451809D01*
X189968095Y-122356571D01*
X189920476Y-122308952D01*
X189825238Y-122261333D01*
X189634761Y-122261333D01*
X189539523Y-122308952D01*
X189491904Y-122356571D01*
X189444285Y-122451809D01*
X188491904Y-125420380D02*
X188491904Y-124420380D01*
X188872857Y-124420380D01*
X188968095Y-124468000D01*
X189015714Y-124515619D01*
X189063333Y-124610857D01*
X189063333Y-124753714D01*
X189015714Y-124848952D01*
X188968095Y-124896571D01*
X188872857Y-124944190D01*
X188491904Y-124944190D01*
X189968095Y-124420380D02*
X189491904Y-124420380D01*
X189444285Y-124896571D01*
X189491904Y-124848952D01*
X189587142Y-124801333D01*
X189825238Y-124801333D01*
X189920476Y-124848952D01*
X189968095Y-124896571D01*
X190015714Y-124991809D01*
X190015714Y-125229904D01*
X189968095Y-125325142D01*
X189920476Y-125372761D01*
X189825238Y-125420380D01*
X189587142Y-125420380D01*
X189491904Y-125372761D01*
X189444285Y-125325142D01*
X188491904Y-127960380D02*
X188491904Y-126960380D01*
X188872857Y-126960380D01*
X188968095Y-127008000D01*
X189015714Y-127055619D01*
X189063333Y-127150857D01*
X189063333Y-127293714D01*
X189015714Y-127388952D01*
X188968095Y-127436571D01*
X188872857Y-127484190D01*
X188491904Y-127484190D01*
X189920476Y-127293714D02*
X189920476Y-127960380D01*
X189682380Y-126912761D02*
X189444285Y-127627047D01*
X190063333Y-127627047D01*
X190777904Y-127960380D02*
X190777904Y-126960380D01*
X191158857Y-126960380D01*
X191254095Y-127008000D01*
X191301714Y-127055619D01*
X191349333Y-127150857D01*
X191349333Y-127293714D01*
X191301714Y-127388952D01*
X191254095Y-127436571D01*
X191158857Y-127484190D01*
X190777904Y-127484190D01*
X191968380Y-126960380D02*
X192063619Y-126960380D01*
X192158857Y-127008000D01*
X192206476Y-127055619D01*
X192254095Y-127150857D01*
X192301714Y-127341333D01*
X192301714Y-127579428D01*
X192254095Y-127769904D01*
X192206476Y-127865142D01*
X192158857Y-127912761D01*
X192063619Y-127960380D01*
X191968380Y-127960380D01*
X191873142Y-127912761D01*
X191825523Y-127865142D01*
X191777904Y-127769904D01*
X191730285Y-127579428D01*
X191730285Y-127341333D01*
X191777904Y-127150857D01*
X191825523Y-127055619D01*
X191873142Y-127008000D01*
X191968380Y-126960380D01*
X190777904Y-125420380D02*
X190777904Y-124420380D01*
X191158857Y-124420380D01*
X191254095Y-124468000D01*
X191301714Y-124515619D01*
X191349333Y-124610857D01*
X191349333Y-124753714D01*
X191301714Y-124848952D01*
X191254095Y-124896571D01*
X191158857Y-124944190D01*
X190777904Y-124944190D01*
X192301714Y-125420380D02*
X191730285Y-125420380D01*
X192016000Y-125420380D02*
X192016000Y-124420380D01*
X191920761Y-124563238D01*
X191825523Y-124658476D01*
X191730285Y-124706095D01*
X190777904Y-122880380D02*
X190777904Y-121880380D01*
X191158857Y-121880380D01*
X191254095Y-121928000D01*
X191301714Y-121975619D01*
X191349333Y-122070857D01*
X191349333Y-122213714D01*
X191301714Y-122308952D01*
X191254095Y-122356571D01*
X191158857Y-122404190D01*
X190777904Y-122404190D01*
X191730285Y-121975619D02*
X191777904Y-121928000D01*
X191873142Y-121880380D01*
X192111238Y-121880380D01*
X192206476Y-121928000D01*
X192254095Y-121975619D01*
X192301714Y-122070857D01*
X192301714Y-122166095D01*
X192254095Y-122308952D01*
X191682666Y-122880380D01*
X192301714Y-122880380D01*
X96855595Y-71621571D02*
X97188928Y-71621571D01*
X97331785Y-72145380D02*
X96855595Y-72145380D01*
X96855595Y-71145380D01*
X97331785Y-71145380D01*
X97760357Y-72145380D02*
X97760357Y-71145380D01*
X98093690Y-71859666D01*
X98427023Y-71145380D01*
X98427023Y-72145380D01*
X98903214Y-72145380D02*
X98903214Y-71145380D01*
X99236547Y-71859666D01*
X99569880Y-71145380D01*
X99569880Y-72145380D01*
X101379404Y-72050142D02*
X101331785Y-72097761D01*
X101188928Y-72145380D01*
X101093690Y-72145380D01*
X100950833Y-72097761D01*
X100855595Y-72002523D01*
X100807976Y-71907285D01*
X100760357Y-71716809D01*
X100760357Y-71573952D01*
X100807976Y-71383476D01*
X100855595Y-71288238D01*
X100950833Y-71193000D01*
X101093690Y-71145380D01*
X101188928Y-71145380D01*
X101331785Y-71193000D01*
X101379404Y-71240619D01*
X101998452Y-71145380D02*
X102188928Y-71145380D01*
X102284166Y-71193000D01*
X102379404Y-71288238D01*
X102427023Y-71478714D01*
X102427023Y-71812047D01*
X102379404Y-72002523D01*
X102284166Y-72097761D01*
X102188928Y-72145380D01*
X101998452Y-72145380D01*
X101903214Y-72097761D01*
X101807976Y-72002523D01*
X101760357Y-71812047D01*
X101760357Y-71478714D01*
X101807976Y-71288238D01*
X101903214Y-71193000D01*
X101998452Y-71145380D01*
X102855595Y-72145380D02*
X102855595Y-71145380D01*
X103188928Y-71859666D01*
X103522261Y-71145380D01*
X103522261Y-72145380D01*
X103998452Y-72145380D02*
X103998452Y-71145380D01*
X104379404Y-71145380D01*
X104474642Y-71193000D01*
X104522261Y-71240619D01*
X104569880Y-71335857D01*
X104569880Y-71478714D01*
X104522261Y-71573952D01*
X104474642Y-71621571D01*
X104379404Y-71669190D01*
X103998452Y-71669190D01*
X104998452Y-71145380D02*
X104998452Y-71954904D01*
X105046071Y-72050142D01*
X105093690Y-72097761D01*
X105188928Y-72145380D01*
X105379404Y-72145380D01*
X105474642Y-72097761D01*
X105522261Y-72050142D01*
X105569880Y-71954904D01*
X105569880Y-71145380D01*
X105903214Y-71145380D02*
X106474642Y-71145380D01*
X106188928Y-72145380D02*
X106188928Y-71145380D01*
X106807976Y-71621571D02*
X107141309Y-71621571D01*
X107284166Y-72145380D02*
X106807976Y-72145380D01*
X106807976Y-71145380D01*
X107284166Y-71145380D01*
X108284166Y-72145380D02*
X107950833Y-71669190D01*
X107712738Y-72145380D02*
X107712738Y-71145380D01*
X108093690Y-71145380D01*
X108188928Y-71193000D01*
X108236547Y-71240619D01*
X108284166Y-71335857D01*
X108284166Y-71478714D01*
X108236547Y-71573952D01*
X108188928Y-71621571D01*
X108093690Y-71669190D01*
X107712738Y-71669190D01*
X108665119Y-72097761D02*
X108807976Y-72145380D01*
X109046071Y-72145380D01*
X109141309Y-72097761D01*
X109188928Y-72050142D01*
X109236547Y-71954904D01*
X109236547Y-71859666D01*
X109188928Y-71764428D01*
X109141309Y-71716809D01*
X109046071Y-71669190D01*
X108855595Y-71621571D01*
X108760357Y-71573952D01*
X108712738Y-71526333D01*
X108665119Y-71431095D01*
X108665119Y-71335857D01*
X108712738Y-71240619D01*
X108760357Y-71193000D01*
X108855595Y-71145380D01*
X109093690Y-71145380D01*
X109236547Y-71193000D01*
X96855595Y-73795380D02*
X96855595Y-72795380D01*
X97236547Y-72795380D01*
X97331785Y-72843000D01*
X97379404Y-72890619D01*
X97427023Y-72985857D01*
X97427023Y-73128714D01*
X97379404Y-73223952D01*
X97331785Y-73271571D01*
X97236547Y-73319190D01*
X96855595Y-73319190D01*
X97807976Y-73509666D02*
X98284166Y-73509666D01*
X97712738Y-73795380D02*
X98046071Y-72795380D01*
X98379404Y-73795380D01*
X99284166Y-73795380D02*
X98950833Y-73319190D01*
X98712738Y-73795380D02*
X98712738Y-72795380D01*
X99093690Y-72795380D01*
X99188928Y-72843000D01*
X99236547Y-72890619D01*
X99284166Y-72985857D01*
X99284166Y-73128714D01*
X99236547Y-73223952D01*
X99188928Y-73271571D01*
X99093690Y-73319190D01*
X98712738Y-73319190D01*
X99665119Y-73509666D02*
X100141309Y-73509666D01*
X99569880Y-73795380D02*
X99903214Y-72795380D01*
X100236547Y-73795380D01*
X101046071Y-73795380D02*
X100569880Y-73795380D01*
X100569880Y-72795380D01*
X101855595Y-73795380D02*
X101379404Y-73795380D01*
X101379404Y-72795380D01*
X102188928Y-73271571D02*
X102522261Y-73271571D01*
X102665119Y-73795380D02*
X102188928Y-73795380D01*
X102188928Y-72795380D01*
X102665119Y-72795380D01*
X103569880Y-73795380D02*
X103093690Y-73795380D01*
X103093690Y-72795380D01*
X104665119Y-73795380D02*
X104665119Y-72795380D01*
X105046071Y-72795380D01*
X105141309Y-72843000D01*
X105188928Y-72890619D01*
X105236547Y-72985857D01*
X105236547Y-73128714D01*
X105188928Y-73223952D01*
X105141309Y-73271571D01*
X105046071Y-73319190D01*
X104665119Y-73319190D01*
X105855595Y-72795380D02*
X106046071Y-72795380D01*
X106141309Y-72843000D01*
X106236547Y-72938238D01*
X106284166Y-73128714D01*
X106284166Y-73462047D01*
X106236547Y-73652523D01*
X106141309Y-73747761D01*
X106046071Y-73795380D01*
X105855595Y-73795380D01*
X105760357Y-73747761D01*
X105665119Y-73652523D01*
X105617500Y-73462047D01*
X105617500Y-73128714D01*
X105665119Y-72938238D01*
X105760357Y-72843000D01*
X105855595Y-72795380D01*
X107284166Y-73795380D02*
X106950833Y-73319190D01*
X106712738Y-73795380D02*
X106712738Y-72795380D01*
X107093690Y-72795380D01*
X107188928Y-72843000D01*
X107236547Y-72890619D01*
X107284166Y-72985857D01*
X107284166Y-73128714D01*
X107236547Y-73223952D01*
X107188928Y-73271571D01*
X107093690Y-73319190D01*
X106712738Y-73319190D01*
X107569880Y-72795380D02*
X108141309Y-72795380D01*
X107855595Y-73795380D02*
X107855595Y-72795380D01*
X108522261Y-73747761D02*
X108522261Y-73795380D01*
X108474642Y-73890619D01*
X108427023Y-73938238D01*
X109855595Y-73223952D02*
X109760357Y-73176333D01*
X109712738Y-73128714D01*
X109665119Y-73033476D01*
X109665119Y-72985857D01*
X109712738Y-72890619D01*
X109760357Y-72843000D01*
X109855595Y-72795380D01*
X110046071Y-72795380D01*
X110141309Y-72843000D01*
X110188928Y-72890619D01*
X110236547Y-72985857D01*
X110236547Y-73033476D01*
X110188928Y-73128714D01*
X110141309Y-73176333D01*
X110046071Y-73223952D01*
X109855595Y-73223952D01*
X109760357Y-73271571D01*
X109712738Y-73319190D01*
X109665119Y-73414428D01*
X109665119Y-73604904D01*
X109712738Y-73700142D01*
X109760357Y-73747761D01*
X109855595Y-73795380D01*
X110046071Y-73795380D01*
X110141309Y-73747761D01*
X110188928Y-73700142D01*
X110236547Y-73604904D01*
X110236547Y-73414428D01*
X110188928Y-73319190D01*
X110141309Y-73271571D01*
X110046071Y-73223952D01*
X110617500Y-72890619D02*
X110665119Y-72843000D01*
X110760357Y-72795380D01*
X110998452Y-72795380D01*
X111093690Y-72843000D01*
X111141309Y-72890619D01*
X111188928Y-72985857D01*
X111188928Y-73081095D01*
X111141309Y-73223952D01*
X110569880Y-73795380D01*
X111188928Y-73795380D01*
X112093690Y-72795380D02*
X111617500Y-72795380D01*
X111569880Y-73271571D01*
X111617500Y-73223952D01*
X111712738Y-73176333D01*
X111950833Y-73176333D01*
X112046071Y-73223952D01*
X112093690Y-73271571D01*
X112141309Y-73366809D01*
X112141309Y-73604904D01*
X112093690Y-73700142D01*
X112046071Y-73747761D01*
X111950833Y-73795380D01*
X111712738Y-73795380D01*
X111617500Y-73747761D01*
X111569880Y-73700142D01*
X113046071Y-72795380D02*
X112569880Y-72795380D01*
X112522261Y-73271571D01*
X112569880Y-73223952D01*
X112665119Y-73176333D01*
X112903214Y-73176333D01*
X112998452Y-73223952D01*
X113046071Y-73271571D01*
X113093690Y-73366809D01*
X113093690Y-73604904D01*
X113046071Y-73700142D01*
X112998452Y-73747761D01*
X112903214Y-73795380D01*
X112665119Y-73795380D01*
X112569880Y-73747761D01*
X112522261Y-73700142D01*
X97427023Y-75350142D02*
X97379404Y-75397761D01*
X97236547Y-75445380D01*
X97141309Y-75445380D01*
X96998452Y-75397761D01*
X96903214Y-75302523D01*
X96855595Y-75207285D01*
X96807976Y-75016809D01*
X96807976Y-74873952D01*
X96855595Y-74683476D01*
X96903214Y-74588238D01*
X96998452Y-74493000D01*
X97141309Y-74445380D01*
X97236547Y-74445380D01*
X97379404Y-74493000D01*
X97427023Y-74540619D01*
X97998452Y-75445380D02*
X97903214Y-75397761D01*
X97855595Y-75350142D01*
X97807976Y-75254904D01*
X97807976Y-74969190D01*
X97855595Y-74873952D01*
X97903214Y-74826333D01*
X97998452Y-74778714D01*
X98141309Y-74778714D01*
X98236547Y-74826333D01*
X98284166Y-74873952D01*
X98331785Y-74969190D01*
X98331785Y-75254904D01*
X98284166Y-75350142D01*
X98236547Y-75397761D01*
X98141309Y-75445380D01*
X97998452Y-75445380D01*
X98760357Y-74778714D02*
X98760357Y-75778714D01*
X98760357Y-74826333D02*
X98855595Y-74778714D01*
X99046071Y-74778714D01*
X99141309Y-74826333D01*
X99188928Y-74873952D01*
X99236547Y-74969190D01*
X99236547Y-75254904D01*
X99188928Y-75350142D01*
X99141309Y-75397761D01*
X99046071Y-75445380D01*
X98855595Y-75445380D01*
X98760357Y-75397761D01*
X99569880Y-74778714D02*
X99807976Y-75445380D01*
X100046071Y-74778714D02*
X99807976Y-75445380D01*
X99712738Y-75683476D01*
X99665119Y-75731095D01*
X99569880Y-75778714D01*
X100427023Y-75445380D02*
X100427023Y-74778714D01*
X100427023Y-74969190D02*
X100474642Y-74873952D01*
X100522261Y-74826333D01*
X100617500Y-74778714D01*
X100712738Y-74778714D01*
X101046071Y-75445380D02*
X101046071Y-74778714D01*
X101046071Y-74445380D02*
X100998452Y-74493000D01*
X101046071Y-74540619D01*
X101093690Y-74493000D01*
X101046071Y-74445380D01*
X101046071Y-74540619D01*
X101950833Y-74778714D02*
X101950833Y-75588238D01*
X101903214Y-75683476D01*
X101855595Y-75731095D01*
X101760357Y-75778714D01*
X101617500Y-75778714D01*
X101522261Y-75731095D01*
X101950833Y-75397761D02*
X101855595Y-75445380D01*
X101665119Y-75445380D01*
X101569880Y-75397761D01*
X101522261Y-75350142D01*
X101474642Y-75254904D01*
X101474642Y-74969190D01*
X101522261Y-74873952D01*
X101569880Y-74826333D01*
X101665119Y-74778714D01*
X101855595Y-74778714D01*
X101950833Y-74826333D01*
X102427023Y-75445380D02*
X102427023Y-74445380D01*
X102855595Y-75445380D02*
X102855595Y-74921571D01*
X102807976Y-74826333D01*
X102712738Y-74778714D01*
X102569880Y-74778714D01*
X102474642Y-74826333D01*
X102427023Y-74873952D01*
X103188928Y-74778714D02*
X103569880Y-74778714D01*
X103331785Y-74445380D02*
X103331785Y-75302523D01*
X103379404Y-75397761D01*
X103474642Y-75445380D01*
X103569880Y-75445380D01*
X104950833Y-75826333D02*
X104903214Y-75778714D01*
X104807976Y-75635857D01*
X104760357Y-75540619D01*
X104712738Y-75397761D01*
X104665119Y-75159666D01*
X104665119Y-74969190D01*
X104712738Y-74731095D01*
X104760357Y-74588238D01*
X104807976Y-74493000D01*
X104903214Y-74350142D01*
X104950833Y-74302523D01*
X105903214Y-75350142D02*
X105855595Y-75397761D01*
X105712738Y-75445380D01*
X105617500Y-75445380D01*
X105474642Y-75397761D01*
X105379404Y-75302523D01*
X105331785Y-75207285D01*
X105284166Y-75016809D01*
X105284166Y-74873952D01*
X105331785Y-74683476D01*
X105379404Y-74588238D01*
X105474642Y-74493000D01*
X105617500Y-74445380D01*
X105712738Y-74445380D01*
X105855595Y-74493000D01*
X105903214Y-74540619D01*
X106236547Y-75826333D02*
X106284166Y-75778714D01*
X106379404Y-75635857D01*
X106427023Y-75540619D01*
X106474642Y-75397761D01*
X106522261Y-75159666D01*
X106522261Y-74969190D01*
X106474642Y-74731095D01*
X106427023Y-74588238D01*
X106379404Y-74493000D01*
X106284166Y-74350142D01*
X106236547Y-74302523D01*
X107712738Y-74540619D02*
X107760357Y-74493000D01*
X107855595Y-74445380D01*
X108093690Y-74445380D01*
X108188928Y-74493000D01*
X108236547Y-74540619D01*
X108284166Y-74635857D01*
X108284166Y-74731095D01*
X108236547Y-74873952D01*
X107665119Y-75445380D01*
X108284166Y-75445380D01*
X108903214Y-74445380D02*
X108998452Y-74445380D01*
X109093690Y-74493000D01*
X109141309Y-74540619D01*
X109188928Y-74635857D01*
X109236547Y-74826333D01*
X109236547Y-75064428D01*
X109188928Y-75254904D01*
X109141309Y-75350142D01*
X109093690Y-75397761D01*
X108998452Y-75445380D01*
X108903214Y-75445380D01*
X108807976Y-75397761D01*
X108760357Y-75350142D01*
X108712738Y-75254904D01*
X108665119Y-75064428D01*
X108665119Y-74826333D01*
X108712738Y-74635857D01*
X108760357Y-74540619D01*
X108807976Y-74493000D01*
X108903214Y-74445380D01*
X109617500Y-74540619D02*
X109665119Y-74493000D01*
X109760357Y-74445380D01*
X109998452Y-74445380D01*
X110093690Y-74493000D01*
X110141309Y-74540619D01*
X110188928Y-74635857D01*
X110188928Y-74731095D01*
X110141309Y-74873952D01*
X109569880Y-75445380D01*
X110188928Y-75445380D01*
X110522261Y-74445380D02*
X111141309Y-74445380D01*
X110807976Y-74826333D01*
X110950833Y-74826333D01*
X111046071Y-74873952D01*
X111093690Y-74921571D01*
X111141309Y-75016809D01*
X111141309Y-75254904D01*
X111093690Y-75350142D01*
X111046071Y-75397761D01*
X110950833Y-75445380D01*
X110665119Y-75445380D01*
X110569880Y-75397761D01*
X110522261Y-75350142D01*
X112331785Y-74921571D02*
X112665119Y-74921571D01*
X112807976Y-75445380D02*
X112331785Y-75445380D01*
X112331785Y-74445380D01*
X112807976Y-74445380D01*
X113236547Y-75445380D02*
X113236547Y-74445380D01*
X113569880Y-75159666D01*
X113903214Y-74445380D01*
X113903214Y-75445380D01*
X114379404Y-75445380D02*
X114379404Y-74445380D01*
X114712738Y-75159666D01*
X115046071Y-74445380D01*
X115046071Y-75445380D01*
X96760357Y-76428714D02*
X96950833Y-77095380D01*
X97141309Y-76619190D01*
X97331785Y-77095380D01*
X97522261Y-76428714D01*
X97807976Y-76428714D02*
X97998452Y-77095380D01*
X98188928Y-76619190D01*
X98379404Y-77095380D01*
X98569880Y-76428714D01*
X98855595Y-76428714D02*
X99046071Y-77095380D01*
X99236547Y-76619190D01*
X99427023Y-77095380D01*
X99617500Y-76428714D01*
X99998452Y-77000142D02*
X100046071Y-77047761D01*
X99998452Y-77095380D01*
X99950833Y-77047761D01*
X99998452Y-77000142D01*
X99998452Y-77095380D01*
X100474642Y-77095380D02*
X100474642Y-76095380D01*
X100903214Y-77095380D02*
X100903214Y-76571571D01*
X100855595Y-76476333D01*
X100760357Y-76428714D01*
X100617500Y-76428714D01*
X100522261Y-76476333D01*
X100474642Y-76523952D01*
X101522261Y-77095380D02*
X101427023Y-77047761D01*
X101379404Y-77000142D01*
X101331785Y-76904904D01*
X101331785Y-76619190D01*
X101379404Y-76523952D01*
X101427023Y-76476333D01*
X101522261Y-76428714D01*
X101665119Y-76428714D01*
X101760357Y-76476333D01*
X101807976Y-76523952D01*
X101855595Y-76619190D01*
X101855595Y-76904904D01*
X101807976Y-77000142D01*
X101760357Y-77047761D01*
X101665119Y-77095380D01*
X101522261Y-77095380D01*
X102284166Y-77095380D02*
X102284166Y-76428714D01*
X102284166Y-76523952D02*
X102331785Y-76476333D01*
X102427023Y-76428714D01*
X102569880Y-76428714D01*
X102665119Y-76476333D01*
X102712738Y-76571571D01*
X102712738Y-77095380D01*
X102712738Y-76571571D02*
X102760357Y-76476333D01*
X102855595Y-76428714D01*
X102998452Y-76428714D01*
X103093690Y-76476333D01*
X103141309Y-76571571D01*
X103141309Y-77095380D01*
X103998452Y-77047761D02*
X103903214Y-77095380D01*
X103712738Y-77095380D01*
X103617500Y-77047761D01*
X103569880Y-76952523D01*
X103569880Y-76571571D01*
X103617500Y-76476333D01*
X103712738Y-76428714D01*
X103903214Y-76428714D01*
X103998452Y-76476333D01*
X104046071Y-76571571D01*
X104046071Y-76666809D01*
X103569880Y-76762047D01*
X104474642Y-77095380D02*
X104474642Y-76095380D01*
X104474642Y-76476333D02*
X104569880Y-76428714D01*
X104760357Y-76428714D01*
X104855595Y-76476333D01*
X104903214Y-76523952D01*
X104950833Y-76619190D01*
X104950833Y-76904904D01*
X104903214Y-77000142D01*
X104855595Y-77047761D01*
X104760357Y-77095380D01*
X104569880Y-77095380D01*
X104474642Y-77047761D01*
X105379404Y-77095380D02*
X105379404Y-76428714D01*
X105379404Y-76619190D02*
X105427023Y-76523952D01*
X105474642Y-76476333D01*
X105569880Y-76428714D01*
X105665119Y-76428714D01*
X106379404Y-77047761D02*
X106284166Y-77095380D01*
X106093690Y-77095380D01*
X105998452Y-77047761D01*
X105950833Y-76952523D01*
X105950833Y-76571571D01*
X105998452Y-76476333D01*
X106093690Y-76428714D01*
X106284166Y-76428714D01*
X106379404Y-76476333D01*
X106427023Y-76571571D01*
X106427023Y-76666809D01*
X105950833Y-76762047D01*
X106760357Y-76428714D02*
X106950833Y-77095380D01*
X107141309Y-76619190D01*
X107331785Y-77095380D01*
X107522261Y-76428714D01*
X108046071Y-76523952D02*
X107950833Y-76476333D01*
X107903214Y-76428714D01*
X107855595Y-76333476D01*
X107855595Y-76285857D01*
X107903214Y-76190619D01*
X107950833Y-76143000D01*
X108046071Y-76095380D01*
X108236547Y-76095380D01*
X108331785Y-76143000D01*
X108379404Y-76190619D01*
X108427023Y-76285857D01*
X108427023Y-76333476D01*
X108379404Y-76428714D01*
X108331785Y-76476333D01*
X108236547Y-76523952D01*
X108046071Y-76523952D01*
X107950833Y-76571571D01*
X107903214Y-76619190D01*
X107855595Y-76714428D01*
X107855595Y-76904904D01*
X107903214Y-77000142D01*
X107950833Y-77047761D01*
X108046071Y-77095380D01*
X108236547Y-77095380D01*
X108331785Y-77047761D01*
X108379404Y-77000142D01*
X108427023Y-76904904D01*
X108427023Y-76714428D01*
X108379404Y-76619190D01*
X108331785Y-76571571D01*
X108236547Y-76523952D01*
X109046071Y-76095380D02*
X109141309Y-76095380D01*
X109236547Y-76143000D01*
X109284166Y-76190619D01*
X109331785Y-76285857D01*
X109379404Y-76476333D01*
X109379404Y-76714428D01*
X109331785Y-76904904D01*
X109284166Y-77000142D01*
X109236547Y-77047761D01*
X109141309Y-77095380D01*
X109046071Y-77095380D01*
X108950833Y-77047761D01*
X108903214Y-77000142D01*
X108855595Y-76904904D01*
X108807976Y-76714428D01*
X108807976Y-76476333D01*
X108855595Y-76285857D01*
X108903214Y-76190619D01*
X108950833Y-76143000D01*
X109046071Y-76095380D01*
X109950833Y-76523952D02*
X109855595Y-76476333D01*
X109807976Y-76428714D01*
X109760357Y-76333476D01*
X109760357Y-76285857D01*
X109807976Y-76190619D01*
X109855595Y-76143000D01*
X109950833Y-76095380D01*
X110141309Y-76095380D01*
X110236547Y-76143000D01*
X110284166Y-76190619D01*
X110331785Y-76285857D01*
X110331785Y-76333476D01*
X110284166Y-76428714D01*
X110236547Y-76476333D01*
X110141309Y-76523952D01*
X109950833Y-76523952D01*
X109855595Y-76571571D01*
X109807976Y-76619190D01*
X109760357Y-76714428D01*
X109760357Y-76904904D01*
X109807976Y-77000142D01*
X109855595Y-77047761D01*
X109950833Y-77095380D01*
X110141309Y-77095380D01*
X110236547Y-77047761D01*
X110284166Y-77000142D01*
X110331785Y-76904904D01*
X110331785Y-76714428D01*
X110284166Y-76619190D01*
X110236547Y-76571571D01*
X110141309Y-76523952D01*
X110903214Y-76523952D02*
X110807976Y-76476333D01*
X110760357Y-76428714D01*
X110712738Y-76333476D01*
X110712738Y-76285857D01*
X110760357Y-76190619D01*
X110807976Y-76143000D01*
X110903214Y-76095380D01*
X111093690Y-76095380D01*
X111188928Y-76143000D01*
X111236547Y-76190619D01*
X111284166Y-76285857D01*
X111284166Y-76333476D01*
X111236547Y-76428714D01*
X111188928Y-76476333D01*
X111093690Y-76523952D01*
X110903214Y-76523952D01*
X110807976Y-76571571D01*
X110760357Y-76619190D01*
X110712738Y-76714428D01*
X110712738Y-76904904D01*
X110760357Y-77000142D01*
X110807976Y-77047761D01*
X110903214Y-77095380D01*
X111093690Y-77095380D01*
X111188928Y-77047761D01*
X111236547Y-77000142D01*
X111284166Y-76904904D01*
X111284166Y-76714428D01*
X111236547Y-76619190D01*
X111188928Y-76571571D01*
X111093690Y-76523952D01*
X111712738Y-77000142D02*
X111760357Y-77047761D01*
X111712738Y-77095380D01*
X111665119Y-77047761D01*
X111712738Y-77000142D01*
X111712738Y-77095380D01*
X112617500Y-77047761D02*
X112522261Y-77095380D01*
X112331785Y-77095380D01*
X112236547Y-77047761D01*
X112188928Y-77000142D01*
X112141309Y-76904904D01*
X112141309Y-76619190D01*
X112188928Y-76523952D01*
X112236547Y-76476333D01*
X112331785Y-76428714D01*
X112522261Y-76428714D01*
X112617500Y-76476333D01*
X113188928Y-77095380D02*
X113093690Y-77047761D01*
X113046071Y-77000142D01*
X112998452Y-76904904D01*
X112998452Y-76619190D01*
X113046071Y-76523952D01*
X113093690Y-76476333D01*
X113188928Y-76428714D01*
X113331785Y-76428714D01*
X113427023Y-76476333D01*
X113474642Y-76523952D01*
X113522261Y-76619190D01*
X113522261Y-76904904D01*
X113474642Y-77000142D01*
X113427023Y-77047761D01*
X113331785Y-77095380D01*
X113188928Y-77095380D01*
X113950833Y-77095380D02*
X113950833Y-76428714D01*
X113950833Y-76523952D02*
X113998452Y-76476333D01*
X114093690Y-76428714D01*
X114236547Y-76428714D01*
X114331785Y-76476333D01*
X114379404Y-76571571D01*
X114379404Y-77095380D01*
X114379404Y-76571571D02*
X114427023Y-76476333D01*
X114522261Y-76428714D01*
X114665119Y-76428714D01*
X114760357Y-76476333D01*
X114807976Y-76571571D01*
X114807976Y-77095380D01*
X104322857Y-92924380D02*
X104418095Y-92924380D01*
X104513333Y-92972000D01*
X104560952Y-93019619D01*
X104608571Y-93114857D01*
X104656190Y-93305333D01*
X104656190Y-93543428D01*
X104608571Y-93733904D01*
X104560952Y-93829142D01*
X104513333Y-93876761D01*
X104418095Y-93924380D01*
X104322857Y-93924380D01*
X104227619Y-93876761D01*
X104180000Y-93829142D01*
X104132380Y-93733904D01*
X104084761Y-93543428D01*
X104084761Y-93305333D01*
X104132380Y-93114857D01*
X104180000Y-93019619D01*
X104227619Y-92972000D01*
X104322857Y-92924380D01*
X104989523Y-93924380D02*
X105513333Y-93257714D01*
X104989523Y-93257714D02*
X105513333Y-93924380D01*
X106084761Y-92924380D02*
X106180000Y-92924380D01*
X106275238Y-92972000D01*
X106322857Y-93019619D01*
X106370476Y-93114857D01*
X106418095Y-93305333D01*
X106418095Y-93543428D01*
X106370476Y-93733904D01*
X106322857Y-93829142D01*
X106275238Y-93876761D01*
X106180000Y-93924380D01*
X106084761Y-93924380D01*
X105989523Y-93876761D01*
X105941904Y-93829142D01*
X105894285Y-93733904D01*
X105846666Y-93543428D01*
X105846666Y-93305333D01*
X105894285Y-93114857D01*
X105941904Y-93019619D01*
X105989523Y-92972000D01*
X106084761Y-92924380D01*
X107275238Y-93257714D02*
X107275238Y-93924380D01*
X107037142Y-92876761D02*
X106799047Y-93591047D01*
X107418095Y-93591047D01*
X108322857Y-93924380D02*
X107751428Y-93924380D01*
X108037142Y-93924380D02*
X108037142Y-92924380D01*
X107941904Y-93067238D01*
X107846666Y-93162476D01*
X107751428Y-93210095D01*
X108941904Y-92924380D02*
X109037142Y-92924380D01*
X109132380Y-92972000D01*
X109180000Y-93019619D01*
X109227619Y-93114857D01*
X109275238Y-93305333D01*
X109275238Y-93543428D01*
X109227619Y-93733904D01*
X109180000Y-93829142D01*
X109132380Y-93876761D01*
X109037142Y-93924380D01*
X108941904Y-93924380D01*
X108846666Y-93876761D01*
X108799047Y-93829142D01*
X108751428Y-93733904D01*
X108703809Y-93543428D01*
X108703809Y-93305333D01*
X108751428Y-93114857D01*
X108799047Y-93019619D01*
X108846666Y-92972000D01*
X108941904Y-92924380D01*
X104322857Y-95464380D02*
X104418095Y-95464380D01*
X104513333Y-95512000D01*
X104560952Y-95559619D01*
X104608571Y-95654857D01*
X104656190Y-95845333D01*
X104656190Y-96083428D01*
X104608571Y-96273904D01*
X104560952Y-96369142D01*
X104513333Y-96416761D01*
X104418095Y-96464380D01*
X104322857Y-96464380D01*
X104227619Y-96416761D01*
X104180000Y-96369142D01*
X104132380Y-96273904D01*
X104084761Y-96083428D01*
X104084761Y-95845333D01*
X104132380Y-95654857D01*
X104180000Y-95559619D01*
X104227619Y-95512000D01*
X104322857Y-95464380D01*
X104989523Y-96464380D02*
X105513333Y-95797714D01*
X104989523Y-95797714D02*
X105513333Y-96464380D01*
X106084761Y-95464380D02*
X106180000Y-95464380D01*
X106275238Y-95512000D01*
X106322857Y-95559619D01*
X106370476Y-95654857D01*
X106418095Y-95845333D01*
X106418095Y-96083428D01*
X106370476Y-96273904D01*
X106322857Y-96369142D01*
X106275238Y-96416761D01*
X106180000Y-96464380D01*
X106084761Y-96464380D01*
X105989523Y-96416761D01*
X105941904Y-96369142D01*
X105894285Y-96273904D01*
X105846666Y-96083428D01*
X105846666Y-95845333D01*
X105894285Y-95654857D01*
X105941904Y-95559619D01*
X105989523Y-95512000D01*
X106084761Y-95464380D01*
X107275238Y-95797714D02*
X107275238Y-96464380D01*
X107037142Y-95416761D02*
X106799047Y-96131047D01*
X107418095Y-96131047D01*
X107751428Y-95559619D02*
X107799047Y-95512000D01*
X107894285Y-95464380D01*
X108132380Y-95464380D01*
X108227619Y-95512000D01*
X108275238Y-95559619D01*
X108322857Y-95654857D01*
X108322857Y-95750095D01*
X108275238Y-95892952D01*
X107703809Y-96464380D01*
X108322857Y-96464380D01*
X108941904Y-95464380D02*
X109037142Y-95464380D01*
X109132380Y-95512000D01*
X109180000Y-95559619D01*
X109227619Y-95654857D01*
X109275238Y-95845333D01*
X109275238Y-96083428D01*
X109227619Y-96273904D01*
X109180000Y-96369142D01*
X109132380Y-96416761D01*
X109037142Y-96464380D01*
X108941904Y-96464380D01*
X108846666Y-96416761D01*
X108799047Y-96369142D01*
X108751428Y-96273904D01*
X108703809Y-96083428D01*
X108703809Y-95845333D01*
X108751428Y-95654857D01*
X108799047Y-95559619D01*
X108846666Y-95512000D01*
X108941904Y-95464380D01*
X104322857Y-90384380D02*
X104418095Y-90384380D01*
X104513333Y-90432000D01*
X104560952Y-90479619D01*
X104608571Y-90574857D01*
X104656190Y-90765333D01*
X104656190Y-91003428D01*
X104608571Y-91193904D01*
X104560952Y-91289142D01*
X104513333Y-91336761D01*
X104418095Y-91384380D01*
X104322857Y-91384380D01*
X104227619Y-91336761D01*
X104180000Y-91289142D01*
X104132380Y-91193904D01*
X104084761Y-91003428D01*
X104084761Y-90765333D01*
X104132380Y-90574857D01*
X104180000Y-90479619D01*
X104227619Y-90432000D01*
X104322857Y-90384380D01*
X104989523Y-91384380D02*
X105513333Y-90717714D01*
X104989523Y-90717714D02*
X105513333Y-91384380D01*
X106084761Y-90384380D02*
X106180000Y-90384380D01*
X106275238Y-90432000D01*
X106322857Y-90479619D01*
X106370476Y-90574857D01*
X106418095Y-90765333D01*
X106418095Y-91003428D01*
X106370476Y-91193904D01*
X106322857Y-91289142D01*
X106275238Y-91336761D01*
X106180000Y-91384380D01*
X106084761Y-91384380D01*
X105989523Y-91336761D01*
X105941904Y-91289142D01*
X105894285Y-91193904D01*
X105846666Y-91003428D01*
X105846666Y-90765333D01*
X105894285Y-90574857D01*
X105941904Y-90479619D01*
X105989523Y-90432000D01*
X106084761Y-90384380D01*
X107275238Y-90717714D02*
X107275238Y-91384380D01*
X107037142Y-90336761D02*
X106799047Y-91051047D01*
X107418095Y-91051047D01*
X107989523Y-90384380D02*
X108084761Y-90384380D01*
X108180000Y-90432000D01*
X108227619Y-90479619D01*
X108275238Y-90574857D01*
X108322857Y-90765333D01*
X108322857Y-91003428D01*
X108275238Y-91193904D01*
X108227619Y-91289142D01*
X108180000Y-91336761D01*
X108084761Y-91384380D01*
X107989523Y-91384380D01*
X107894285Y-91336761D01*
X107846666Y-91289142D01*
X107799047Y-91193904D01*
X107751428Y-91003428D01*
X107751428Y-90765333D01*
X107799047Y-90574857D01*
X107846666Y-90479619D01*
X107894285Y-90432000D01*
X107989523Y-90384380D01*
X108941904Y-90384380D02*
X109037142Y-90384380D01*
X109132380Y-90432000D01*
X109180000Y-90479619D01*
X109227619Y-90574857D01*
X109275238Y-90765333D01*
X109275238Y-91003428D01*
X109227619Y-91193904D01*
X109180000Y-91289142D01*
X109132380Y-91336761D01*
X109037142Y-91384380D01*
X108941904Y-91384380D01*
X108846666Y-91336761D01*
X108799047Y-91289142D01*
X108751428Y-91193904D01*
X108703809Y-91003428D01*
X108703809Y-90765333D01*
X108751428Y-90574857D01*
X108799047Y-90479619D01*
X108846666Y-90432000D01*
X108941904Y-90384380D01*
X104322857Y-98004380D02*
X104418095Y-98004380D01*
X104513333Y-98052000D01*
X104560952Y-98099619D01*
X104608571Y-98194857D01*
X104656190Y-98385333D01*
X104656190Y-98623428D01*
X104608571Y-98813904D01*
X104560952Y-98909142D01*
X104513333Y-98956761D01*
X104418095Y-99004380D01*
X104322857Y-99004380D01*
X104227619Y-98956761D01*
X104180000Y-98909142D01*
X104132380Y-98813904D01*
X104084761Y-98623428D01*
X104084761Y-98385333D01*
X104132380Y-98194857D01*
X104180000Y-98099619D01*
X104227619Y-98052000D01*
X104322857Y-98004380D01*
X104989523Y-99004380D02*
X105513333Y-98337714D01*
X104989523Y-98337714D02*
X105513333Y-99004380D01*
X106084761Y-98004380D02*
X106180000Y-98004380D01*
X106275238Y-98052000D01*
X106322857Y-98099619D01*
X106370476Y-98194857D01*
X106418095Y-98385333D01*
X106418095Y-98623428D01*
X106370476Y-98813904D01*
X106322857Y-98909142D01*
X106275238Y-98956761D01*
X106180000Y-99004380D01*
X106084761Y-99004380D01*
X105989523Y-98956761D01*
X105941904Y-98909142D01*
X105894285Y-98813904D01*
X105846666Y-98623428D01*
X105846666Y-98385333D01*
X105894285Y-98194857D01*
X105941904Y-98099619D01*
X105989523Y-98052000D01*
X106084761Y-98004380D01*
X107275238Y-98337714D02*
X107275238Y-99004380D01*
X107037142Y-97956761D02*
X106799047Y-98671047D01*
X107418095Y-98671047D01*
X107703809Y-98004380D02*
X108322857Y-98004380D01*
X107989523Y-98385333D01*
X108132380Y-98385333D01*
X108227619Y-98432952D01*
X108275238Y-98480571D01*
X108322857Y-98575809D01*
X108322857Y-98813904D01*
X108275238Y-98909142D01*
X108227619Y-98956761D01*
X108132380Y-99004380D01*
X107846666Y-99004380D01*
X107751428Y-98956761D01*
X107703809Y-98909142D01*
X108941904Y-98004380D02*
X109037142Y-98004380D01*
X109132380Y-98052000D01*
X109180000Y-98099619D01*
X109227619Y-98194857D01*
X109275238Y-98385333D01*
X109275238Y-98623428D01*
X109227619Y-98813904D01*
X109180000Y-98909142D01*
X109132380Y-98956761D01*
X109037142Y-99004380D01*
X108941904Y-99004380D01*
X108846666Y-98956761D01*
X108799047Y-98909142D01*
X108751428Y-98813904D01*
X108703809Y-98623428D01*
X108703809Y-98385333D01*
X108751428Y-98194857D01*
X108799047Y-98099619D01*
X108846666Y-98052000D01*
X108941904Y-98004380D01*
X104322857Y-100544380D02*
X104418095Y-100544380D01*
X104513333Y-100592000D01*
X104560952Y-100639619D01*
X104608571Y-100734857D01*
X104656190Y-100925333D01*
X104656190Y-101163428D01*
X104608571Y-101353904D01*
X104560952Y-101449142D01*
X104513333Y-101496761D01*
X104418095Y-101544380D01*
X104322857Y-101544380D01*
X104227619Y-101496761D01*
X104180000Y-101449142D01*
X104132380Y-101353904D01*
X104084761Y-101163428D01*
X104084761Y-100925333D01*
X104132380Y-100734857D01*
X104180000Y-100639619D01*
X104227619Y-100592000D01*
X104322857Y-100544380D01*
X104989523Y-101544380D02*
X105513333Y-100877714D01*
X104989523Y-100877714D02*
X105513333Y-101544380D01*
X106084761Y-100544380D02*
X106180000Y-100544380D01*
X106275238Y-100592000D01*
X106322857Y-100639619D01*
X106370476Y-100734857D01*
X106418095Y-100925333D01*
X106418095Y-101163428D01*
X106370476Y-101353904D01*
X106322857Y-101449142D01*
X106275238Y-101496761D01*
X106180000Y-101544380D01*
X106084761Y-101544380D01*
X105989523Y-101496761D01*
X105941904Y-101449142D01*
X105894285Y-101353904D01*
X105846666Y-101163428D01*
X105846666Y-100925333D01*
X105894285Y-100734857D01*
X105941904Y-100639619D01*
X105989523Y-100592000D01*
X106084761Y-100544380D01*
X107275238Y-100877714D02*
X107275238Y-101544380D01*
X107037142Y-100496761D02*
X106799047Y-101211047D01*
X107418095Y-101211047D01*
X108227619Y-100877714D02*
X108227619Y-101544380D01*
X107989523Y-100496761D02*
X107751428Y-101211047D01*
X108370476Y-101211047D01*
X108941904Y-100544380D02*
X109037142Y-100544380D01*
X109132380Y-100592000D01*
X109180000Y-100639619D01*
X109227619Y-100734857D01*
X109275238Y-100925333D01*
X109275238Y-101163428D01*
X109227619Y-101353904D01*
X109180000Y-101449142D01*
X109132380Y-101496761D01*
X109037142Y-101544380D01*
X108941904Y-101544380D01*
X108846666Y-101496761D01*
X108799047Y-101449142D01*
X108751428Y-101353904D01*
X108703809Y-101163428D01*
X108703809Y-100925333D01*
X108751428Y-100734857D01*
X108799047Y-100639619D01*
X108846666Y-100592000D01*
X108941904Y-100544380D01*
X104322857Y-103084380D02*
X104418095Y-103084380D01*
X104513333Y-103132000D01*
X104560952Y-103179619D01*
X104608571Y-103274857D01*
X104656190Y-103465333D01*
X104656190Y-103703428D01*
X104608571Y-103893904D01*
X104560952Y-103989142D01*
X104513333Y-104036761D01*
X104418095Y-104084380D01*
X104322857Y-104084380D01*
X104227619Y-104036761D01*
X104180000Y-103989142D01*
X104132380Y-103893904D01*
X104084761Y-103703428D01*
X104084761Y-103465333D01*
X104132380Y-103274857D01*
X104180000Y-103179619D01*
X104227619Y-103132000D01*
X104322857Y-103084380D01*
X104989523Y-104084380D02*
X105513333Y-103417714D01*
X104989523Y-103417714D02*
X105513333Y-104084380D01*
X106084761Y-103084380D02*
X106180000Y-103084380D01*
X106275238Y-103132000D01*
X106322857Y-103179619D01*
X106370476Y-103274857D01*
X106418095Y-103465333D01*
X106418095Y-103703428D01*
X106370476Y-103893904D01*
X106322857Y-103989142D01*
X106275238Y-104036761D01*
X106180000Y-104084380D01*
X106084761Y-104084380D01*
X105989523Y-104036761D01*
X105941904Y-103989142D01*
X105894285Y-103893904D01*
X105846666Y-103703428D01*
X105846666Y-103465333D01*
X105894285Y-103274857D01*
X105941904Y-103179619D01*
X105989523Y-103132000D01*
X106084761Y-103084380D01*
X107275238Y-103417714D02*
X107275238Y-104084380D01*
X107037142Y-103036761D02*
X106799047Y-103751047D01*
X107418095Y-103751047D01*
X108275238Y-103084380D02*
X107799047Y-103084380D01*
X107751428Y-103560571D01*
X107799047Y-103512952D01*
X107894285Y-103465333D01*
X108132380Y-103465333D01*
X108227619Y-103512952D01*
X108275238Y-103560571D01*
X108322857Y-103655809D01*
X108322857Y-103893904D01*
X108275238Y-103989142D01*
X108227619Y-104036761D01*
X108132380Y-104084380D01*
X107894285Y-104084380D01*
X107799047Y-104036761D01*
X107751428Y-103989142D01*
X108941904Y-103084380D02*
X109037142Y-103084380D01*
X109132380Y-103132000D01*
X109180000Y-103179619D01*
X109227619Y-103274857D01*
X109275238Y-103465333D01*
X109275238Y-103703428D01*
X109227619Y-103893904D01*
X109180000Y-103989142D01*
X109132380Y-104036761D01*
X109037142Y-104084380D01*
X108941904Y-104084380D01*
X108846666Y-104036761D01*
X108799047Y-103989142D01*
X108751428Y-103893904D01*
X108703809Y-103703428D01*
X108703809Y-103465333D01*
X108751428Y-103274857D01*
X108799047Y-103179619D01*
X108846666Y-103132000D01*
X108941904Y-103084380D01*
X104322857Y-105624380D02*
X104418095Y-105624380D01*
X104513333Y-105672000D01*
X104560952Y-105719619D01*
X104608571Y-105814857D01*
X104656190Y-106005333D01*
X104656190Y-106243428D01*
X104608571Y-106433904D01*
X104560952Y-106529142D01*
X104513333Y-106576761D01*
X104418095Y-106624380D01*
X104322857Y-106624380D01*
X104227619Y-106576761D01*
X104180000Y-106529142D01*
X104132380Y-106433904D01*
X104084761Y-106243428D01*
X104084761Y-106005333D01*
X104132380Y-105814857D01*
X104180000Y-105719619D01*
X104227619Y-105672000D01*
X104322857Y-105624380D01*
X104989523Y-106624380D02*
X105513333Y-105957714D01*
X104989523Y-105957714D02*
X105513333Y-106624380D01*
X106084761Y-105624380D02*
X106180000Y-105624380D01*
X106275238Y-105672000D01*
X106322857Y-105719619D01*
X106370476Y-105814857D01*
X106418095Y-106005333D01*
X106418095Y-106243428D01*
X106370476Y-106433904D01*
X106322857Y-106529142D01*
X106275238Y-106576761D01*
X106180000Y-106624380D01*
X106084761Y-106624380D01*
X105989523Y-106576761D01*
X105941904Y-106529142D01*
X105894285Y-106433904D01*
X105846666Y-106243428D01*
X105846666Y-106005333D01*
X105894285Y-105814857D01*
X105941904Y-105719619D01*
X105989523Y-105672000D01*
X106084761Y-105624380D01*
X107275238Y-105957714D02*
X107275238Y-106624380D01*
X107037142Y-105576761D02*
X106799047Y-106291047D01*
X107418095Y-106291047D01*
X108227619Y-105624380D02*
X108037142Y-105624380D01*
X107941904Y-105672000D01*
X107894285Y-105719619D01*
X107799047Y-105862476D01*
X107751428Y-106052952D01*
X107751428Y-106433904D01*
X107799047Y-106529142D01*
X107846666Y-106576761D01*
X107941904Y-106624380D01*
X108132380Y-106624380D01*
X108227619Y-106576761D01*
X108275238Y-106529142D01*
X108322857Y-106433904D01*
X108322857Y-106195809D01*
X108275238Y-106100571D01*
X108227619Y-106052952D01*
X108132380Y-106005333D01*
X107941904Y-106005333D01*
X107846666Y-106052952D01*
X107799047Y-106100571D01*
X107751428Y-106195809D01*
X108941904Y-105624380D02*
X109037142Y-105624380D01*
X109132380Y-105672000D01*
X109180000Y-105719619D01*
X109227619Y-105814857D01*
X109275238Y-106005333D01*
X109275238Y-106243428D01*
X109227619Y-106433904D01*
X109180000Y-106529142D01*
X109132380Y-106576761D01*
X109037142Y-106624380D01*
X108941904Y-106624380D01*
X108846666Y-106576761D01*
X108799047Y-106529142D01*
X108751428Y-106433904D01*
X108703809Y-106243428D01*
X108703809Y-106005333D01*
X108751428Y-105814857D01*
X108799047Y-105719619D01*
X108846666Y-105672000D01*
X108941904Y-105624380D01*
X104322857Y-108164380D02*
X104418095Y-108164380D01*
X104513333Y-108212000D01*
X104560952Y-108259619D01*
X104608571Y-108354857D01*
X104656190Y-108545333D01*
X104656190Y-108783428D01*
X104608571Y-108973904D01*
X104560952Y-109069142D01*
X104513333Y-109116761D01*
X104418095Y-109164380D01*
X104322857Y-109164380D01*
X104227619Y-109116761D01*
X104180000Y-109069142D01*
X104132380Y-108973904D01*
X104084761Y-108783428D01*
X104084761Y-108545333D01*
X104132380Y-108354857D01*
X104180000Y-108259619D01*
X104227619Y-108212000D01*
X104322857Y-108164380D01*
X104989523Y-109164380D02*
X105513333Y-108497714D01*
X104989523Y-108497714D02*
X105513333Y-109164380D01*
X106084761Y-108164380D02*
X106180000Y-108164380D01*
X106275238Y-108212000D01*
X106322857Y-108259619D01*
X106370476Y-108354857D01*
X106418095Y-108545333D01*
X106418095Y-108783428D01*
X106370476Y-108973904D01*
X106322857Y-109069142D01*
X106275238Y-109116761D01*
X106180000Y-109164380D01*
X106084761Y-109164380D01*
X105989523Y-109116761D01*
X105941904Y-109069142D01*
X105894285Y-108973904D01*
X105846666Y-108783428D01*
X105846666Y-108545333D01*
X105894285Y-108354857D01*
X105941904Y-108259619D01*
X105989523Y-108212000D01*
X106084761Y-108164380D01*
X107275238Y-108497714D02*
X107275238Y-109164380D01*
X107037142Y-108116761D02*
X106799047Y-108831047D01*
X107418095Y-108831047D01*
X107703809Y-108164380D02*
X108370476Y-108164380D01*
X107941904Y-109164380D01*
X108941904Y-108164380D02*
X109037142Y-108164380D01*
X109132380Y-108212000D01*
X109180000Y-108259619D01*
X109227619Y-108354857D01*
X109275238Y-108545333D01*
X109275238Y-108783428D01*
X109227619Y-108973904D01*
X109180000Y-109069142D01*
X109132380Y-109116761D01*
X109037142Y-109164380D01*
X108941904Y-109164380D01*
X108846666Y-109116761D01*
X108799047Y-109069142D01*
X108751428Y-108973904D01*
X108703809Y-108783428D01*
X108703809Y-108545333D01*
X108751428Y-108354857D01*
X108799047Y-108259619D01*
X108846666Y-108212000D01*
X108941904Y-108164380D01*
X150423619Y-120166000D02*
X151423619Y-120166000D01*
X150423619Y-121213619D02*
X150899809Y-120880285D01*
X150423619Y-120642190D02*
X151423619Y-120642190D01*
X151423619Y-121023142D01*
X151376000Y-121118380D01*
X151328380Y-121166000D01*
X151233142Y-121213619D01*
X151090285Y-121213619D01*
X150995047Y-121166000D01*
X150947428Y-121118380D01*
X150899809Y-121023142D01*
X150899809Y-120642190D01*
X150328380Y-122308857D02*
X150376000Y-122213619D01*
X150471238Y-122118380D01*
X150614095Y-121975523D01*
X150661714Y-121880285D01*
X150661714Y-121785047D01*
X150423619Y-121832666D02*
X150471238Y-121737428D01*
X150566476Y-121642190D01*
X150756952Y-121594571D01*
X151090285Y-121594571D01*
X151280761Y-121642190D01*
X151376000Y-121737428D01*
X151423619Y-121832666D01*
X151423619Y-122023142D01*
X151376000Y-122118380D01*
X151280761Y-122213619D01*
X151090285Y-122261238D01*
X150756952Y-122261238D01*
X150566476Y-122213619D01*
X150471238Y-122118380D01*
X150423619Y-122023142D01*
X150423619Y-121832666D01*
X151423619Y-122594571D02*
X151423619Y-123261238D01*
X150423619Y-122832666D01*
X147883619Y-120166000D02*
X148883619Y-120166000D01*
X147883619Y-121213619D02*
X148359809Y-120880285D01*
X147883619Y-120642190D02*
X148883619Y-120642190D01*
X148883619Y-121023142D01*
X148836000Y-121118380D01*
X148788380Y-121166000D01*
X148693142Y-121213619D01*
X148550285Y-121213619D01*
X148455047Y-121166000D01*
X148407428Y-121118380D01*
X148359809Y-121023142D01*
X148359809Y-120642190D01*
X147788380Y-122308857D02*
X147836000Y-122213619D01*
X147931238Y-122118380D01*
X148074095Y-121975523D01*
X148121714Y-121880285D01*
X148121714Y-121785047D01*
X147883619Y-121832666D02*
X147931238Y-121737428D01*
X148026476Y-121642190D01*
X148216952Y-121594571D01*
X148550285Y-121594571D01*
X148740761Y-121642190D01*
X148836000Y-121737428D01*
X148883619Y-121832666D01*
X148883619Y-122023142D01*
X148836000Y-122118380D01*
X148740761Y-122213619D01*
X148550285Y-122261238D01*
X148216952Y-122261238D01*
X148026476Y-122213619D01*
X147931238Y-122118380D01*
X147883619Y-122023142D01*
X147883619Y-121832666D01*
X148883619Y-123118380D02*
X148883619Y-122927904D01*
X148836000Y-122832666D01*
X148788380Y-122785047D01*
X148645523Y-122689809D01*
X148455047Y-122642190D01*
X148074095Y-122642190D01*
X147978857Y-122689809D01*
X147931238Y-122737428D01*
X147883619Y-122832666D01*
X147883619Y-123023142D01*
X147931238Y-123118380D01*
X147978857Y-123166000D01*
X148074095Y-123213619D01*
X148312190Y-123213619D01*
X148407428Y-123166000D01*
X148455047Y-123118380D01*
X148502666Y-123023142D01*
X148502666Y-122832666D01*
X148455047Y-122737428D01*
X148407428Y-122689809D01*
X148312190Y-122642190D01*
X145343619Y-120166000D02*
X146343619Y-120166000D01*
X145343619Y-121213619D02*
X145819809Y-120880285D01*
X145343619Y-120642190D02*
X146343619Y-120642190D01*
X146343619Y-121023142D01*
X146296000Y-121118380D01*
X146248380Y-121166000D01*
X146153142Y-121213619D01*
X146010285Y-121213619D01*
X145915047Y-121166000D01*
X145867428Y-121118380D01*
X145819809Y-121023142D01*
X145819809Y-120642190D01*
X145248380Y-122308857D02*
X145296000Y-122213619D01*
X145391238Y-122118380D01*
X145534095Y-121975523D01*
X145581714Y-121880285D01*
X145581714Y-121785047D01*
X145343619Y-121832666D02*
X145391238Y-121737428D01*
X145486476Y-121642190D01*
X145676952Y-121594571D01*
X146010285Y-121594571D01*
X146200761Y-121642190D01*
X146296000Y-121737428D01*
X146343619Y-121832666D01*
X146343619Y-122023142D01*
X146296000Y-122118380D01*
X146200761Y-122213619D01*
X146010285Y-122261238D01*
X145676952Y-122261238D01*
X145486476Y-122213619D01*
X145391238Y-122118380D01*
X145343619Y-122023142D01*
X145343619Y-121832666D01*
X146343619Y-123166000D02*
X146343619Y-122689809D01*
X145867428Y-122642190D01*
X145915047Y-122689809D01*
X145962666Y-122785047D01*
X145962666Y-123023142D01*
X145915047Y-123118380D01*
X145867428Y-123166000D01*
X145772190Y-123213619D01*
X145534095Y-123213619D01*
X145438857Y-123166000D01*
X145391238Y-123118380D01*
X145343619Y-123023142D01*
X145343619Y-122785047D01*
X145391238Y-122689809D01*
X145438857Y-122642190D01*
X142803619Y-120166000D02*
X143803619Y-120166000D01*
X142803619Y-121213619D02*
X143279809Y-120880285D01*
X142803619Y-120642190D02*
X143803619Y-120642190D01*
X143803619Y-121023142D01*
X143756000Y-121118380D01*
X143708380Y-121166000D01*
X143613142Y-121213619D01*
X143470285Y-121213619D01*
X143375047Y-121166000D01*
X143327428Y-121118380D01*
X143279809Y-121023142D01*
X143279809Y-120642190D01*
X142708380Y-122308857D02*
X142756000Y-122213619D01*
X142851238Y-122118380D01*
X142994095Y-121975523D01*
X143041714Y-121880285D01*
X143041714Y-121785047D01*
X142803619Y-121832666D02*
X142851238Y-121737428D01*
X142946476Y-121642190D01*
X143136952Y-121594571D01*
X143470285Y-121594571D01*
X143660761Y-121642190D01*
X143756000Y-121737428D01*
X143803619Y-121832666D01*
X143803619Y-122023142D01*
X143756000Y-122118380D01*
X143660761Y-122213619D01*
X143470285Y-122261238D01*
X143136952Y-122261238D01*
X142946476Y-122213619D01*
X142851238Y-122118380D01*
X142803619Y-122023142D01*
X142803619Y-121832666D01*
X143470285Y-123118380D02*
X142803619Y-123118380D01*
X143851238Y-122880285D02*
X143136952Y-122642190D01*
X143136952Y-123261238D01*
X140263619Y-120166000D02*
X141263619Y-120166000D01*
X140263619Y-121213619D02*
X140739809Y-120880285D01*
X140263619Y-120642190D02*
X141263619Y-120642190D01*
X141263619Y-121023142D01*
X141216000Y-121118380D01*
X141168380Y-121166000D01*
X141073142Y-121213619D01*
X140930285Y-121213619D01*
X140835047Y-121166000D01*
X140787428Y-121118380D01*
X140739809Y-121023142D01*
X140739809Y-120642190D01*
X140168380Y-122308857D02*
X140216000Y-122213619D01*
X140311238Y-122118380D01*
X140454095Y-121975523D01*
X140501714Y-121880285D01*
X140501714Y-121785047D01*
X140263619Y-121832666D02*
X140311238Y-121737428D01*
X140406476Y-121642190D01*
X140596952Y-121594571D01*
X140930285Y-121594571D01*
X141120761Y-121642190D01*
X141216000Y-121737428D01*
X141263619Y-121832666D01*
X141263619Y-122023142D01*
X141216000Y-122118380D01*
X141120761Y-122213619D01*
X140930285Y-122261238D01*
X140596952Y-122261238D01*
X140406476Y-122213619D01*
X140311238Y-122118380D01*
X140263619Y-122023142D01*
X140263619Y-121832666D01*
X141263619Y-122594571D02*
X141263619Y-123213619D01*
X140882666Y-122880285D01*
X140882666Y-123023142D01*
X140835047Y-123118380D01*
X140787428Y-123166000D01*
X140692190Y-123213619D01*
X140454095Y-123213619D01*
X140358857Y-123166000D01*
X140311238Y-123118380D01*
X140263619Y-123023142D01*
X140263619Y-122737428D01*
X140311238Y-122642190D01*
X140358857Y-122594571D01*
X137723619Y-120166000D02*
X138723619Y-120166000D01*
X137723619Y-121213619D02*
X138199809Y-120880285D01*
X137723619Y-120642190D02*
X138723619Y-120642190D01*
X138723619Y-121023142D01*
X138676000Y-121118380D01*
X138628380Y-121166000D01*
X138533142Y-121213619D01*
X138390285Y-121213619D01*
X138295047Y-121166000D01*
X138247428Y-121118380D01*
X138199809Y-121023142D01*
X138199809Y-120642190D01*
X137628380Y-122308857D02*
X137676000Y-122213619D01*
X137771238Y-122118380D01*
X137914095Y-121975523D01*
X137961714Y-121880285D01*
X137961714Y-121785047D01*
X137723619Y-121832666D02*
X137771238Y-121737428D01*
X137866476Y-121642190D01*
X138056952Y-121594571D01*
X138390285Y-121594571D01*
X138580761Y-121642190D01*
X138676000Y-121737428D01*
X138723619Y-121832666D01*
X138723619Y-122023142D01*
X138676000Y-122118380D01*
X138580761Y-122213619D01*
X138390285Y-122261238D01*
X138056952Y-122261238D01*
X137866476Y-122213619D01*
X137771238Y-122118380D01*
X137723619Y-122023142D01*
X137723619Y-121832666D01*
X138628380Y-122642190D02*
X138676000Y-122689809D01*
X138723619Y-122785047D01*
X138723619Y-123023142D01*
X138676000Y-123118380D01*
X138628380Y-123166000D01*
X138533142Y-123213619D01*
X138437904Y-123213619D01*
X138295047Y-123166000D01*
X137723619Y-122594571D01*
X137723619Y-123213619D01*
D10*
G04 #@! TO.C,RN6*
X183772000Y-83058000D02*
X180972000Y-83058000D01*
X183772000Y-93388000D02*
X183772000Y-80348000D01*
X180972000Y-93388000D02*
X183772000Y-93388000D01*
X180972000Y-80348000D02*
X180972000Y-93388000D01*
X183772000Y-80348000D02*
X180972000Y-80348000D01*
G04 #@! TO.C,RN5*
X187328000Y-83058000D02*
X184528000Y-83058000D01*
X187328000Y-93388000D02*
X187328000Y-80348000D01*
X184528000Y-93388000D02*
X187328000Y-93388000D01*
X184528000Y-80348000D02*
X184528000Y-93388000D01*
X187328000Y-80348000D02*
X184528000Y-80348000D01*
G04 #@! TO.C,RN4*
X183772000Y-118618000D02*
X180972000Y-118618000D01*
X183772000Y-128948000D02*
X183772000Y-115908000D01*
X180972000Y-128948000D02*
X183772000Y-128948000D01*
X180972000Y-115908000D02*
X180972000Y-128948000D01*
X183772000Y-115908000D02*
X180972000Y-115908000D01*
G04 #@! TO.C,RN3*
X183772000Y-100838000D02*
X180972000Y-100838000D01*
X183772000Y-111168000D02*
X183772000Y-98128000D01*
X180972000Y-111168000D02*
X183772000Y-111168000D01*
X180972000Y-98128000D02*
X180972000Y-111168000D01*
X183772000Y-98128000D02*
X180972000Y-98128000D01*
G04 #@! TO.C,RN2*
X187328000Y-118618000D02*
X184528000Y-118618000D01*
X187328000Y-128948000D02*
X187328000Y-115908000D01*
X184528000Y-128948000D02*
X187328000Y-128948000D01*
X184528000Y-115908000D02*
X184528000Y-128948000D01*
X187328000Y-115908000D02*
X184528000Y-115908000D01*
G04 #@! TO.C,RN1*
X187328000Y-100838000D02*
X184528000Y-100838000D01*
X187328000Y-111168000D02*
X187328000Y-98128000D01*
X184528000Y-111168000D02*
X187328000Y-111168000D01*
X184528000Y-98128000D02*
X184528000Y-111168000D01*
X187328000Y-98128000D02*
X184528000Y-98128000D01*
G04 #@! TO.C,C4*
X125278000Y-84528000D02*
X129818000Y-84528000D01*
X125278000Y-86668000D02*
X129818000Y-86668000D01*
X125278000Y-84528000D02*
X125278000Y-84543000D01*
X125278000Y-86653000D02*
X125278000Y-86668000D01*
X129818000Y-84528000D02*
X129818000Y-84543000D01*
X129818000Y-86653000D02*
X129818000Y-86668000D01*
G04 #@! TO.C,C3*
X115118000Y-84528000D02*
X119658000Y-84528000D01*
X115118000Y-86668000D02*
X119658000Y-86668000D01*
X115118000Y-84528000D02*
X115118000Y-84543000D01*
X115118000Y-86653000D02*
X115118000Y-86668000D01*
X119658000Y-84528000D02*
X119658000Y-84543000D01*
X119658000Y-86653000D02*
X119658000Y-86668000D01*
G04 #@! TO.C,C2*
X135438000Y-84528000D02*
X139978000Y-84528000D01*
X135438000Y-86668000D02*
X139978000Y-86668000D01*
X135438000Y-84528000D02*
X135438000Y-84543000D01*
X135438000Y-86653000D02*
X135438000Y-86668000D01*
X139978000Y-84528000D02*
X139978000Y-84543000D01*
X139978000Y-86653000D02*
X139978000Y-86668000D01*
G04 #@! TO.C,C1*
X172920000Y-119070000D02*
X172920000Y-114530000D01*
X175060000Y-119070000D02*
X175060000Y-114530000D01*
X172920000Y-119070000D02*
X172935000Y-119070000D01*
X175045000Y-119070000D02*
X175060000Y-119070000D01*
X172920000Y-114530000D02*
X172935000Y-114530000D01*
X175045000Y-114530000D02*
X175060000Y-114530000D01*
G04 #@! TO.C,J3*
X193234000Y-93278000D02*
X198434000Y-93278000D01*
X193234000Y-83058000D02*
X193234000Y-93278000D01*
X198434000Y-80458000D02*
X198434000Y-93278000D01*
X193234000Y-83058000D02*
X195834000Y-83058000D01*
X195834000Y-83058000D02*
X195834000Y-80458000D01*
X195834000Y-80458000D02*
X198434000Y-80458000D01*
X193234000Y-81788000D02*
X193234000Y-80458000D01*
X193234000Y-80458000D02*
X194564000Y-80458000D01*
G04 #@! TO.C,J2*
X193234000Y-128838000D02*
X198434000Y-128838000D01*
X193234000Y-118618000D02*
X193234000Y-128838000D01*
X198434000Y-116018000D02*
X198434000Y-128838000D01*
X193234000Y-118618000D02*
X195834000Y-118618000D01*
X195834000Y-118618000D02*
X195834000Y-116018000D01*
X195834000Y-116018000D02*
X198434000Y-116018000D01*
X193234000Y-117348000D02*
X193234000Y-116018000D01*
X193234000Y-116018000D02*
X194564000Y-116018000D01*
G04 #@! TO.C,J1*
X193234000Y-111058000D02*
X198434000Y-111058000D01*
X193234000Y-100838000D02*
X193234000Y-111058000D01*
X198434000Y-98238000D02*
X198434000Y-111058000D01*
X193234000Y-100838000D02*
X195834000Y-100838000D01*
X195834000Y-100838000D02*
X195834000Y-98238000D01*
X195834000Y-98238000D02*
X198434000Y-98238000D01*
X193234000Y-99568000D02*
X193234000Y-98238000D01*
X193234000Y-98238000D02*
X194564000Y-98238000D01*
G04 #@! TO.C,U4*
X125238000Y-87570000D02*
X123588000Y-87570000D01*
X123588000Y-87570000D02*
X123588000Y-108010000D01*
X123588000Y-108010000D02*
X128888000Y-108010000D01*
X128888000Y-108010000D02*
X128888000Y-87570000D01*
X128888000Y-87570000D02*
X127238000Y-87570000D01*
X127238000Y-87570000D02*
G75*
G02*
X125238000Y-87570000I-1000000J0D01*
G01*
G04 #@! TO.C,U3*
X115078000Y-87570000D02*
X113428000Y-87570000D01*
X113428000Y-87570000D02*
X113428000Y-108010000D01*
X113428000Y-108010000D02*
X118728000Y-108010000D01*
X118728000Y-108010000D02*
X118728000Y-87570000D01*
X118728000Y-87570000D02*
X117078000Y-87570000D01*
X117078000Y-87570000D02*
G75*
G02*
X115078000Y-87570000I-1000000J0D01*
G01*
G04 #@! TO.C,U2*
X135398000Y-87570000D02*
X133748000Y-87570000D01*
X133748000Y-87570000D02*
X133748000Y-108010000D01*
X133748000Y-108010000D02*
X139048000Y-108010000D01*
X139048000Y-108010000D02*
X139048000Y-87570000D01*
X139048000Y-87570000D02*
X137398000Y-87570000D01*
X137398000Y-87570000D02*
G75*
G02*
X135398000Y-87570000I-1000000J0D01*
G01*
G04 #@! TO.C,U1*
X162576000Y-77410000D02*
X157116000Y-77410000D01*
X157116000Y-77410000D02*
X157116000Y-128330000D01*
X157116000Y-128330000D02*
X170036000Y-128330000D01*
X170036000Y-128330000D02*
X170036000Y-77410000D01*
X170036000Y-77410000D02*
X164576000Y-77410000D01*
X164576000Y-77410000D02*
G75*
G02*
X162576000Y-77410000I-1000000J0D01*
G01*
G04 #@! TO.C,J6*
X98238000Y-110042000D02*
X103438000Y-110042000D01*
X98238000Y-92202000D02*
X98238000Y-110042000D01*
X103438000Y-89602000D02*
X103438000Y-110042000D01*
X98238000Y-92202000D02*
X100838000Y-92202000D01*
X100838000Y-92202000D02*
X100838000Y-89602000D01*
X100838000Y-89602000D02*
X103438000Y-89602000D01*
X98238000Y-90932000D02*
X98238000Y-89602000D01*
X98238000Y-89602000D02*
X99568000Y-89602000D01*
G04 #@! TO.C,J5*
X136846000Y-113986000D02*
X136846000Y-119186000D01*
X149606000Y-113986000D02*
X136846000Y-113986000D01*
X152206000Y-119186000D02*
X136846000Y-119186000D01*
X149606000Y-113986000D02*
X149606000Y-116586000D01*
X149606000Y-116586000D02*
X152206000Y-116586000D01*
X152206000Y-116586000D02*
X152206000Y-119186000D01*
X150876000Y-113986000D02*
X152206000Y-113986000D01*
X152206000Y-113986000D02*
X152206000Y-115316000D01*
G04 #@! TO.C,J4*
X136846000Y-124146000D02*
X136846000Y-129346000D01*
X149606000Y-124146000D02*
X136846000Y-124146000D01*
X152206000Y-129346000D02*
X136846000Y-129346000D01*
X149606000Y-124146000D02*
X149606000Y-126746000D01*
X149606000Y-126746000D02*
X152206000Y-126746000D01*
X152206000Y-126746000D02*
X152206000Y-129346000D01*
X150876000Y-124146000D02*
X152206000Y-124146000D01*
X152206000Y-124146000D02*
X152206000Y-125476000D01*
G04 #@! TO.C,RN6*
D11*
X180046285Y-83939428D02*
X179379619Y-83939428D01*
X180427238Y-83701333D02*
X179712952Y-83463238D01*
X179712952Y-84082285D01*
X179474857Y-84463238D02*
X179427238Y-84510857D01*
X179379619Y-84463238D01*
X179427238Y-84415619D01*
X179474857Y-84463238D01*
X179379619Y-84463238D01*
X180379619Y-84844190D02*
X180379619Y-85510857D01*
X179379619Y-85082285D01*
X179379619Y-85891809D02*
X180379619Y-85891809D01*
X179760571Y-85987047D02*
X179379619Y-86272761D01*
X180046285Y-86272761D02*
X179665333Y-85891809D01*
X180379619Y-87653714D02*
X180379619Y-87844190D01*
X180332000Y-87939428D01*
X180236761Y-88034666D01*
X180046285Y-88082285D01*
X179712952Y-88082285D01*
X179522476Y-88034666D01*
X179427238Y-87939428D01*
X179379619Y-87844190D01*
X179379619Y-87653714D01*
X179427238Y-87558476D01*
X179522476Y-87463238D01*
X179712952Y-87415619D01*
X180046285Y-87415619D01*
X180236761Y-87463238D01*
X180332000Y-87558476D01*
X180379619Y-87653714D01*
X179379619Y-88510857D02*
X180379619Y-88510857D01*
X179903428Y-88510857D02*
X179903428Y-89082285D01*
X179379619Y-89082285D02*
X180379619Y-89082285D01*
X179379619Y-89558476D02*
X180379619Y-89558476D01*
X179665333Y-89891809D01*
X180379619Y-90225142D01*
X179379619Y-90225142D01*
G04 #@! TO.C,RN4*
X180046285Y-119499428D02*
X179379619Y-119499428D01*
X180427238Y-119261333D02*
X179712952Y-119023238D01*
X179712952Y-119642285D01*
X179474857Y-120023238D02*
X179427238Y-120070857D01*
X179379619Y-120023238D01*
X179427238Y-119975619D01*
X179474857Y-120023238D01*
X179379619Y-120023238D01*
X180379619Y-120404190D02*
X180379619Y-121070857D01*
X179379619Y-120642285D01*
X179379619Y-121451809D02*
X180379619Y-121451809D01*
X179760571Y-121547047D02*
X179379619Y-121832761D01*
X180046285Y-121832761D02*
X179665333Y-121451809D01*
X180379619Y-123213714D02*
X180379619Y-123404190D01*
X180332000Y-123499428D01*
X180236761Y-123594666D01*
X180046285Y-123642285D01*
X179712952Y-123642285D01*
X179522476Y-123594666D01*
X179427238Y-123499428D01*
X179379619Y-123404190D01*
X179379619Y-123213714D01*
X179427238Y-123118476D01*
X179522476Y-123023238D01*
X179712952Y-122975619D01*
X180046285Y-122975619D01*
X180236761Y-123023238D01*
X180332000Y-123118476D01*
X180379619Y-123213714D01*
X179379619Y-124070857D02*
X180379619Y-124070857D01*
X179903428Y-124070857D02*
X179903428Y-124642285D01*
X179379619Y-124642285D02*
X180379619Y-124642285D01*
X179379619Y-125118476D02*
X180379619Y-125118476D01*
X179665333Y-125451809D01*
X180379619Y-125785142D01*
X179379619Y-125785142D01*
G04 #@! TO.C,RN3*
X180046285Y-101719428D02*
X179379619Y-101719428D01*
X180427238Y-101481333D02*
X179712952Y-101243238D01*
X179712952Y-101862285D01*
X179474857Y-102243238D02*
X179427238Y-102290857D01*
X179379619Y-102243238D01*
X179427238Y-102195619D01*
X179474857Y-102243238D01*
X179379619Y-102243238D01*
X180379619Y-102624190D02*
X180379619Y-103290857D01*
X179379619Y-102862285D01*
X179379619Y-103671809D02*
X180379619Y-103671809D01*
X179760571Y-103767047D02*
X179379619Y-104052761D01*
X180046285Y-104052761D02*
X179665333Y-103671809D01*
X180379619Y-105433714D02*
X180379619Y-105624190D01*
X180332000Y-105719428D01*
X180236761Y-105814666D01*
X180046285Y-105862285D01*
X179712952Y-105862285D01*
X179522476Y-105814666D01*
X179427238Y-105719428D01*
X179379619Y-105624190D01*
X179379619Y-105433714D01*
X179427238Y-105338476D01*
X179522476Y-105243238D01*
X179712952Y-105195619D01*
X180046285Y-105195619D01*
X180236761Y-105243238D01*
X180332000Y-105338476D01*
X180379619Y-105433714D01*
X179379619Y-106290857D02*
X180379619Y-106290857D01*
X179903428Y-106290857D02*
X179903428Y-106862285D01*
X179379619Y-106862285D02*
X180379619Y-106862285D01*
X179379619Y-107338476D02*
X180379619Y-107338476D01*
X179665333Y-107671809D01*
X180379619Y-108005142D01*
X179379619Y-108005142D01*
G04 #@! TO.C,C4*
X125905142Y-83018380D02*
X126000380Y-83018380D01*
X126095619Y-83066000D01*
X126143238Y-83113619D01*
X126190857Y-83208857D01*
X126238476Y-83399333D01*
X126238476Y-83637428D01*
X126190857Y-83827904D01*
X126143238Y-83923142D01*
X126095619Y-83970761D01*
X126000380Y-84018380D01*
X125905142Y-84018380D01*
X125809904Y-83970761D01*
X125762285Y-83923142D01*
X125714666Y-83827904D01*
X125667047Y-83637428D01*
X125667047Y-83399333D01*
X125714666Y-83208857D01*
X125762285Y-83113619D01*
X125809904Y-83066000D01*
X125905142Y-83018380D01*
X126667047Y-83923142D02*
X126714666Y-83970761D01*
X126667047Y-84018380D01*
X126619428Y-83970761D01*
X126667047Y-83923142D01*
X126667047Y-84018380D01*
X127667047Y-84018380D02*
X127095619Y-84018380D01*
X127381333Y-84018380D02*
X127381333Y-83018380D01*
X127286095Y-83161238D01*
X127190857Y-83256476D01*
X127095619Y-83304095D01*
X128524190Y-83351714D02*
X128524190Y-84018380D01*
X128095619Y-83351714D02*
X128095619Y-83875523D01*
X128143238Y-83970761D01*
X128238476Y-84018380D01*
X128381333Y-84018380D01*
X128476571Y-83970761D01*
X128524190Y-83923142D01*
X129333714Y-83494571D02*
X129000380Y-83494571D01*
X129000380Y-84018380D02*
X129000380Y-83018380D01*
X129476571Y-83018380D01*
G04 #@! TO.C,C3*
X115705142Y-83018380D02*
X115800380Y-83018380D01*
X115895619Y-83066000D01*
X115943238Y-83113619D01*
X115990857Y-83208857D01*
X116038476Y-83399333D01*
X116038476Y-83637428D01*
X115990857Y-83827904D01*
X115943238Y-83923142D01*
X115895619Y-83970761D01*
X115800380Y-84018380D01*
X115705142Y-84018380D01*
X115609904Y-83970761D01*
X115562285Y-83923142D01*
X115514666Y-83827904D01*
X115467047Y-83637428D01*
X115467047Y-83399333D01*
X115514666Y-83208857D01*
X115562285Y-83113619D01*
X115609904Y-83066000D01*
X115705142Y-83018380D01*
X116467047Y-83923142D02*
X116514666Y-83970761D01*
X116467047Y-84018380D01*
X116419428Y-83970761D01*
X116467047Y-83923142D01*
X116467047Y-84018380D01*
X117467047Y-84018380D02*
X116895619Y-84018380D01*
X117181333Y-84018380D02*
X117181333Y-83018380D01*
X117086095Y-83161238D01*
X116990857Y-83256476D01*
X116895619Y-83304095D01*
X118324190Y-83351714D02*
X118324190Y-84018380D01*
X117895619Y-83351714D02*
X117895619Y-83875523D01*
X117943238Y-83970761D01*
X118038476Y-84018380D01*
X118181333Y-84018380D01*
X118276571Y-83970761D01*
X118324190Y-83923142D01*
X119133714Y-83494571D02*
X118800380Y-83494571D01*
X118800380Y-84018380D02*
X118800380Y-83018380D01*
X119276571Y-83018380D01*
G04 #@! TO.C,C2*
X136065142Y-83018380D02*
X136160380Y-83018380D01*
X136255619Y-83066000D01*
X136303238Y-83113619D01*
X136350857Y-83208857D01*
X136398476Y-83399333D01*
X136398476Y-83637428D01*
X136350857Y-83827904D01*
X136303238Y-83923142D01*
X136255619Y-83970761D01*
X136160380Y-84018380D01*
X136065142Y-84018380D01*
X135969904Y-83970761D01*
X135922285Y-83923142D01*
X135874666Y-83827904D01*
X135827047Y-83637428D01*
X135827047Y-83399333D01*
X135874666Y-83208857D01*
X135922285Y-83113619D01*
X135969904Y-83066000D01*
X136065142Y-83018380D01*
X136827047Y-83923142D02*
X136874666Y-83970761D01*
X136827047Y-84018380D01*
X136779428Y-83970761D01*
X136827047Y-83923142D01*
X136827047Y-84018380D01*
X137827047Y-84018380D02*
X137255619Y-84018380D01*
X137541333Y-84018380D02*
X137541333Y-83018380D01*
X137446095Y-83161238D01*
X137350857Y-83256476D01*
X137255619Y-83304095D01*
X138684190Y-83351714D02*
X138684190Y-84018380D01*
X138255619Y-83351714D02*
X138255619Y-83875523D01*
X138303238Y-83970761D01*
X138398476Y-84018380D01*
X138541333Y-84018380D01*
X138636571Y-83970761D01*
X138684190Y-83923142D01*
X139493714Y-83494571D02*
X139160380Y-83494571D01*
X139160380Y-84018380D02*
X139160380Y-83018380D01*
X139636571Y-83018380D01*
G04 #@! TO.C,C1*
X176569619Y-115197142D02*
X176569619Y-115292380D01*
X176522000Y-115387619D01*
X176474380Y-115435238D01*
X176379142Y-115482857D01*
X176188666Y-115530476D01*
X175950571Y-115530476D01*
X175760095Y-115482857D01*
X175664857Y-115435238D01*
X175617238Y-115387619D01*
X175569619Y-115292380D01*
X175569619Y-115197142D01*
X175617238Y-115101904D01*
X175664857Y-115054285D01*
X175760095Y-115006666D01*
X175950571Y-114959047D01*
X176188666Y-114959047D01*
X176379142Y-115006666D01*
X176474380Y-115054285D01*
X176522000Y-115101904D01*
X176569619Y-115197142D01*
X175664857Y-115959047D02*
X175617238Y-116006666D01*
X175569619Y-115959047D01*
X175617238Y-115911428D01*
X175664857Y-115959047D01*
X175569619Y-115959047D01*
X175569619Y-116959047D02*
X175569619Y-116387619D01*
X175569619Y-116673333D02*
X176569619Y-116673333D01*
X176426761Y-116578095D01*
X176331523Y-116482857D01*
X176283904Y-116387619D01*
X176236285Y-117816190D02*
X175569619Y-117816190D01*
X176236285Y-117387619D02*
X175712476Y-117387619D01*
X175617238Y-117435238D01*
X175569619Y-117530476D01*
X175569619Y-117673333D01*
X175617238Y-117768571D01*
X175664857Y-117816190D01*
X176093428Y-118625714D02*
X176093428Y-118292380D01*
X175569619Y-118292380D02*
X176569619Y-118292380D01*
X176569619Y-118768571D01*
G04 #@! TO.C,J3*
X193357809Y-79700380D02*
X193357809Y-78700380D01*
X193738761Y-78700380D01*
X193834000Y-78748000D01*
X193881619Y-78795619D01*
X193929238Y-78890857D01*
X193929238Y-79033714D01*
X193881619Y-79128952D01*
X193834000Y-79176571D01*
X193738761Y-79224190D01*
X193357809Y-79224190D01*
X194548285Y-78700380D02*
X194738761Y-78700380D01*
X194834000Y-78748000D01*
X194929238Y-78843238D01*
X194976857Y-79033714D01*
X194976857Y-79367047D01*
X194929238Y-79557523D01*
X194834000Y-79652761D01*
X194738761Y-79700380D01*
X194548285Y-79700380D01*
X194453047Y-79652761D01*
X194357809Y-79557523D01*
X194310190Y-79367047D01*
X194310190Y-79033714D01*
X194357809Y-78843238D01*
X194453047Y-78748000D01*
X194548285Y-78700380D01*
X195976857Y-79700380D02*
X195643523Y-79224190D01*
X195405428Y-79700380D02*
X195405428Y-78700380D01*
X195786380Y-78700380D01*
X195881619Y-78748000D01*
X195929238Y-78795619D01*
X195976857Y-78890857D01*
X195976857Y-79033714D01*
X195929238Y-79128952D01*
X195881619Y-79176571D01*
X195786380Y-79224190D01*
X195405428Y-79224190D01*
X196262571Y-78700380D02*
X196834000Y-78700380D01*
X196548285Y-79700380D02*
X196548285Y-78700380D01*
X197881619Y-79414666D02*
X198357809Y-79414666D01*
X197786380Y-79700380D02*
X198119714Y-78700380D01*
X198453047Y-79700380D01*
G04 #@! TO.C,J2*
X193286380Y-115260380D02*
X193286380Y-114260380D01*
X193667333Y-114260380D01*
X193762571Y-114308000D01*
X193810190Y-114355619D01*
X193857809Y-114450857D01*
X193857809Y-114593714D01*
X193810190Y-114688952D01*
X193762571Y-114736571D01*
X193667333Y-114784190D01*
X193286380Y-114784190D01*
X194476857Y-114260380D02*
X194667333Y-114260380D01*
X194762571Y-114308000D01*
X194857809Y-114403238D01*
X194905428Y-114593714D01*
X194905428Y-114927047D01*
X194857809Y-115117523D01*
X194762571Y-115212761D01*
X194667333Y-115260380D01*
X194476857Y-115260380D01*
X194381619Y-115212761D01*
X194286380Y-115117523D01*
X194238761Y-114927047D01*
X194238761Y-114593714D01*
X194286380Y-114403238D01*
X194381619Y-114308000D01*
X194476857Y-114260380D01*
X195905428Y-115260380D02*
X195572095Y-114784190D01*
X195334000Y-115260380D02*
X195334000Y-114260380D01*
X195714952Y-114260380D01*
X195810190Y-114308000D01*
X195857809Y-114355619D01*
X195905428Y-114450857D01*
X195905428Y-114593714D01*
X195857809Y-114688952D01*
X195810190Y-114736571D01*
X195714952Y-114784190D01*
X195334000Y-114784190D01*
X196191142Y-114260380D02*
X196762571Y-114260380D01*
X196476857Y-115260380D02*
X196476857Y-114260380D01*
X198191142Y-114736571D02*
X198334000Y-114784190D01*
X198381619Y-114831809D01*
X198429238Y-114927047D01*
X198429238Y-115069904D01*
X198381619Y-115165142D01*
X198334000Y-115212761D01*
X198238761Y-115260380D01*
X197857809Y-115260380D01*
X197857809Y-114260380D01*
X198191142Y-114260380D01*
X198286380Y-114308000D01*
X198334000Y-114355619D01*
X198381619Y-114450857D01*
X198381619Y-114546095D01*
X198334000Y-114641333D01*
X198286380Y-114688952D01*
X198191142Y-114736571D01*
X197857809Y-114736571D01*
G04 #@! TO.C,J1*
X193286380Y-97480380D02*
X193286380Y-96480380D01*
X193667333Y-96480380D01*
X193762571Y-96528000D01*
X193810190Y-96575619D01*
X193857809Y-96670857D01*
X193857809Y-96813714D01*
X193810190Y-96908952D01*
X193762571Y-96956571D01*
X193667333Y-97004190D01*
X193286380Y-97004190D01*
X194476857Y-96480380D02*
X194667333Y-96480380D01*
X194762571Y-96528000D01*
X194857809Y-96623238D01*
X194905428Y-96813714D01*
X194905428Y-97147047D01*
X194857809Y-97337523D01*
X194762571Y-97432761D01*
X194667333Y-97480380D01*
X194476857Y-97480380D01*
X194381619Y-97432761D01*
X194286380Y-97337523D01*
X194238761Y-97147047D01*
X194238761Y-96813714D01*
X194286380Y-96623238D01*
X194381619Y-96528000D01*
X194476857Y-96480380D01*
X195905428Y-97480380D02*
X195572095Y-97004190D01*
X195334000Y-97480380D02*
X195334000Y-96480380D01*
X195714952Y-96480380D01*
X195810190Y-96528000D01*
X195857809Y-96575619D01*
X195905428Y-96670857D01*
X195905428Y-96813714D01*
X195857809Y-96908952D01*
X195810190Y-96956571D01*
X195714952Y-97004190D01*
X195334000Y-97004190D01*
X196191142Y-96480380D02*
X196762571Y-96480380D01*
X196476857Y-97480380D02*
X196476857Y-96480380D01*
X198429238Y-97385142D02*
X198381619Y-97432761D01*
X198238761Y-97480380D01*
X198143523Y-97480380D01*
X198000666Y-97432761D01*
X197905428Y-97337523D01*
X197857809Y-97242285D01*
X197810190Y-97051809D01*
X197810190Y-96908952D01*
X197857809Y-96718476D01*
X197905428Y-96623238D01*
X198000666Y-96528000D01*
X198143523Y-96480380D01*
X198238761Y-96480380D01*
X198381619Y-96528000D01*
X198429238Y-96575619D01*
G04 #@! TO.C,U4*
X123118952Y-108462380D02*
X123785619Y-108462380D01*
X123357047Y-109462380D01*
X124595142Y-108795714D02*
X124595142Y-109462380D01*
X124357047Y-108414761D02*
X124118952Y-109129047D01*
X124738000Y-109129047D01*
X125595142Y-109462380D02*
X125118952Y-109462380D01*
X125118952Y-108462380D01*
X125880857Y-109414761D02*
X126023714Y-109462380D01*
X126261809Y-109462380D01*
X126357047Y-109414761D01*
X126404666Y-109367142D01*
X126452285Y-109271904D01*
X126452285Y-109176666D01*
X126404666Y-109081428D01*
X126357047Y-109033809D01*
X126261809Y-108986190D01*
X126071333Y-108938571D01*
X125976095Y-108890952D01*
X125928476Y-108843333D01*
X125880857Y-108748095D01*
X125880857Y-108652857D01*
X125928476Y-108557619D01*
X125976095Y-108510000D01*
X126071333Y-108462380D01*
X126309428Y-108462380D01*
X126452285Y-108510000D01*
X127404666Y-109462380D02*
X126833238Y-109462380D01*
X127118952Y-109462380D02*
X127118952Y-108462380D01*
X127023714Y-108605238D01*
X126928476Y-108700476D01*
X126833238Y-108748095D01*
X127738000Y-108462380D02*
X128357047Y-108462380D01*
X128023714Y-108843333D01*
X128166571Y-108843333D01*
X128261809Y-108890952D01*
X128309428Y-108938571D01*
X128357047Y-109033809D01*
X128357047Y-109271904D01*
X128309428Y-109367142D01*
X128261809Y-109414761D01*
X128166571Y-109462380D01*
X127880857Y-109462380D01*
X127785619Y-109414761D01*
X127738000Y-109367142D01*
X128928476Y-108890952D02*
X128833238Y-108843333D01*
X128785619Y-108795714D01*
X128738000Y-108700476D01*
X128738000Y-108652857D01*
X128785619Y-108557619D01*
X128833238Y-108510000D01*
X128928476Y-108462380D01*
X129118952Y-108462380D01*
X129214190Y-108510000D01*
X129261809Y-108557619D01*
X129309428Y-108652857D01*
X129309428Y-108700476D01*
X129261809Y-108795714D01*
X129214190Y-108843333D01*
X129118952Y-108890952D01*
X128928476Y-108890952D01*
X128833238Y-108938571D01*
X128785619Y-108986190D01*
X128738000Y-109081428D01*
X128738000Y-109271904D01*
X128785619Y-109367142D01*
X128833238Y-109414761D01*
X128928476Y-109462380D01*
X129118952Y-109462380D01*
X129214190Y-109414761D01*
X129261809Y-109367142D01*
X129309428Y-109271904D01*
X129309428Y-109081428D01*
X129261809Y-108986190D01*
X129214190Y-108938571D01*
X129118952Y-108890952D01*
G04 #@! TO.C,U3*
X112958952Y-108462380D02*
X113625619Y-108462380D01*
X113197047Y-109462380D01*
X114435142Y-108795714D02*
X114435142Y-109462380D01*
X114197047Y-108414761D02*
X113958952Y-109129047D01*
X114578000Y-109129047D01*
X115435142Y-109462380D02*
X114958952Y-109462380D01*
X114958952Y-108462380D01*
X115720857Y-109414761D02*
X115863714Y-109462380D01*
X116101809Y-109462380D01*
X116197047Y-109414761D01*
X116244666Y-109367142D01*
X116292285Y-109271904D01*
X116292285Y-109176666D01*
X116244666Y-109081428D01*
X116197047Y-109033809D01*
X116101809Y-108986190D01*
X115911333Y-108938571D01*
X115816095Y-108890952D01*
X115768476Y-108843333D01*
X115720857Y-108748095D01*
X115720857Y-108652857D01*
X115768476Y-108557619D01*
X115816095Y-108510000D01*
X115911333Y-108462380D01*
X116149428Y-108462380D01*
X116292285Y-108510000D01*
X117244666Y-109462380D02*
X116673238Y-109462380D01*
X116958952Y-109462380D02*
X116958952Y-108462380D01*
X116863714Y-108605238D01*
X116768476Y-108700476D01*
X116673238Y-108748095D01*
X117578000Y-108462380D02*
X118197047Y-108462380D01*
X117863714Y-108843333D01*
X118006571Y-108843333D01*
X118101809Y-108890952D01*
X118149428Y-108938571D01*
X118197047Y-109033809D01*
X118197047Y-109271904D01*
X118149428Y-109367142D01*
X118101809Y-109414761D01*
X118006571Y-109462380D01*
X117720857Y-109462380D01*
X117625619Y-109414761D01*
X117578000Y-109367142D01*
X118768476Y-108890952D02*
X118673238Y-108843333D01*
X118625619Y-108795714D01*
X118578000Y-108700476D01*
X118578000Y-108652857D01*
X118625619Y-108557619D01*
X118673238Y-108510000D01*
X118768476Y-108462380D01*
X118958952Y-108462380D01*
X119054190Y-108510000D01*
X119101809Y-108557619D01*
X119149428Y-108652857D01*
X119149428Y-108700476D01*
X119101809Y-108795714D01*
X119054190Y-108843333D01*
X118958952Y-108890952D01*
X118768476Y-108890952D01*
X118673238Y-108938571D01*
X118625619Y-108986190D01*
X118578000Y-109081428D01*
X118578000Y-109271904D01*
X118625619Y-109367142D01*
X118673238Y-109414761D01*
X118768476Y-109462380D01*
X118958952Y-109462380D01*
X119054190Y-109414761D01*
X119101809Y-109367142D01*
X119149428Y-109271904D01*
X119149428Y-109081428D01*
X119101809Y-108986190D01*
X119054190Y-108938571D01*
X118958952Y-108890952D01*
G04 #@! TO.C,U2*
X133278952Y-108462380D02*
X133945619Y-108462380D01*
X133517047Y-109462380D01*
X134755142Y-108795714D02*
X134755142Y-109462380D01*
X134517047Y-108414761D02*
X134278952Y-109129047D01*
X134898000Y-109129047D01*
X135755142Y-109462380D02*
X135278952Y-109462380D01*
X135278952Y-108462380D01*
X136040857Y-109414761D02*
X136183714Y-109462380D01*
X136421809Y-109462380D01*
X136517047Y-109414761D01*
X136564666Y-109367142D01*
X136612285Y-109271904D01*
X136612285Y-109176666D01*
X136564666Y-109081428D01*
X136517047Y-109033809D01*
X136421809Y-108986190D01*
X136231333Y-108938571D01*
X136136095Y-108890952D01*
X136088476Y-108843333D01*
X136040857Y-108748095D01*
X136040857Y-108652857D01*
X136088476Y-108557619D01*
X136136095Y-108510000D01*
X136231333Y-108462380D01*
X136469428Y-108462380D01*
X136612285Y-108510000D01*
X137564666Y-109462380D02*
X136993238Y-109462380D01*
X137278952Y-109462380D02*
X137278952Y-108462380D01*
X137183714Y-108605238D01*
X137088476Y-108700476D01*
X136993238Y-108748095D01*
X137898000Y-108462380D02*
X138517047Y-108462380D01*
X138183714Y-108843333D01*
X138326571Y-108843333D01*
X138421809Y-108890952D01*
X138469428Y-108938571D01*
X138517047Y-109033809D01*
X138517047Y-109271904D01*
X138469428Y-109367142D01*
X138421809Y-109414761D01*
X138326571Y-109462380D01*
X138040857Y-109462380D01*
X137945619Y-109414761D01*
X137898000Y-109367142D01*
X139088476Y-108890952D02*
X138993238Y-108843333D01*
X138945619Y-108795714D01*
X138898000Y-108700476D01*
X138898000Y-108652857D01*
X138945619Y-108557619D01*
X138993238Y-108510000D01*
X139088476Y-108462380D01*
X139278952Y-108462380D01*
X139374190Y-108510000D01*
X139421809Y-108557619D01*
X139469428Y-108652857D01*
X139469428Y-108700476D01*
X139421809Y-108795714D01*
X139374190Y-108843333D01*
X139278952Y-108890952D01*
X139088476Y-108890952D01*
X138993238Y-108938571D01*
X138945619Y-108986190D01*
X138898000Y-109081428D01*
X138898000Y-109271904D01*
X138945619Y-109367142D01*
X138993238Y-109414761D01*
X139088476Y-109462380D01*
X139278952Y-109462380D01*
X139374190Y-109414761D01*
X139421809Y-109367142D01*
X139469428Y-109271904D01*
X139469428Y-109081428D01*
X139421809Y-108986190D01*
X139374190Y-108938571D01*
X139278952Y-108890952D01*
G04 #@! TO.C,U1*
X162052190Y-129210952D02*
X161956952Y-129163333D01*
X161909333Y-129115714D01*
X161861714Y-129020476D01*
X161861714Y-128972857D01*
X161909333Y-128877619D01*
X161956952Y-128830000D01*
X162052190Y-128782380D01*
X162242666Y-128782380D01*
X162337904Y-128830000D01*
X162385523Y-128877619D01*
X162433142Y-128972857D01*
X162433142Y-129020476D01*
X162385523Y-129115714D01*
X162337904Y-129163333D01*
X162242666Y-129210952D01*
X162052190Y-129210952D01*
X161956952Y-129258571D01*
X161909333Y-129306190D01*
X161861714Y-129401428D01*
X161861714Y-129591904D01*
X161909333Y-129687142D01*
X161956952Y-129734761D01*
X162052190Y-129782380D01*
X162242666Y-129782380D01*
X162337904Y-129734761D01*
X162385523Y-129687142D01*
X162433142Y-129591904D01*
X162433142Y-129401428D01*
X162385523Y-129306190D01*
X162337904Y-129258571D01*
X162242666Y-129210952D01*
X162814095Y-128877619D02*
X162861714Y-128830000D01*
X162956952Y-128782380D01*
X163195047Y-128782380D01*
X163290285Y-128830000D01*
X163337904Y-128877619D01*
X163385523Y-128972857D01*
X163385523Y-129068095D01*
X163337904Y-129210952D01*
X162766476Y-129782380D01*
X163385523Y-129782380D01*
X164290285Y-128782380D02*
X163814095Y-128782380D01*
X163766476Y-129258571D01*
X163814095Y-129210952D01*
X163909333Y-129163333D01*
X164147428Y-129163333D01*
X164242666Y-129210952D01*
X164290285Y-129258571D01*
X164337904Y-129353809D01*
X164337904Y-129591904D01*
X164290285Y-129687142D01*
X164242666Y-129734761D01*
X164147428Y-129782380D01*
X163909333Y-129782380D01*
X163814095Y-129734761D01*
X163766476Y-129687142D01*
X165242666Y-128782380D02*
X164766476Y-128782380D01*
X164718857Y-129258571D01*
X164766476Y-129210952D01*
X164861714Y-129163333D01*
X165099809Y-129163333D01*
X165195047Y-129210952D01*
X165242666Y-129258571D01*
X165290285Y-129353809D01*
X165290285Y-129591904D01*
X165242666Y-129687142D01*
X165195047Y-129734761D01*
X165099809Y-129782380D01*
X164861714Y-129782380D01*
X164766476Y-129734761D01*
X164718857Y-129687142D01*
G04 #@! TO.C,J6*
X97838380Y-88272952D02*
X97743142Y-88225333D01*
X97695523Y-88177714D01*
X97647904Y-88082476D01*
X97647904Y-88034857D01*
X97695523Y-87939619D01*
X97743142Y-87892000D01*
X97838380Y-87844380D01*
X98028857Y-87844380D01*
X98124095Y-87892000D01*
X98171714Y-87939619D01*
X98219333Y-88034857D01*
X98219333Y-88082476D01*
X98171714Y-88177714D01*
X98124095Y-88225333D01*
X98028857Y-88272952D01*
X97838380Y-88272952D01*
X97743142Y-88320571D01*
X97695523Y-88368190D01*
X97647904Y-88463428D01*
X97647904Y-88653904D01*
X97695523Y-88749142D01*
X97743142Y-88796761D01*
X97838380Y-88844380D01*
X98028857Y-88844380D01*
X98124095Y-88796761D01*
X98171714Y-88749142D01*
X98219333Y-88653904D01*
X98219333Y-88463428D01*
X98171714Y-88368190D01*
X98124095Y-88320571D01*
X98028857Y-88272952D01*
X98600285Y-87939619D02*
X98647904Y-87892000D01*
X98743142Y-87844380D01*
X98981238Y-87844380D01*
X99076476Y-87892000D01*
X99124095Y-87939619D01*
X99171714Y-88034857D01*
X99171714Y-88130095D01*
X99124095Y-88272952D01*
X98552666Y-88844380D01*
X99171714Y-88844380D01*
X100076476Y-87844380D02*
X99600285Y-87844380D01*
X99552666Y-88320571D01*
X99600285Y-88272952D01*
X99695523Y-88225333D01*
X99933619Y-88225333D01*
X100028857Y-88272952D01*
X100076476Y-88320571D01*
X100124095Y-88415809D01*
X100124095Y-88653904D01*
X100076476Y-88749142D01*
X100028857Y-88796761D01*
X99933619Y-88844380D01*
X99695523Y-88844380D01*
X99600285Y-88796761D01*
X99552666Y-88749142D01*
X101028857Y-87844380D02*
X100552666Y-87844380D01*
X100505047Y-88320571D01*
X100552666Y-88272952D01*
X100647904Y-88225333D01*
X100886000Y-88225333D01*
X100981238Y-88272952D01*
X101028857Y-88320571D01*
X101076476Y-88415809D01*
X101076476Y-88653904D01*
X101028857Y-88749142D01*
X100981238Y-88796761D01*
X100886000Y-88844380D01*
X100647904Y-88844380D01*
X100552666Y-88796761D01*
X100505047Y-88749142D01*
X102600285Y-88320571D02*
X102743142Y-88368190D01*
X102790761Y-88415809D01*
X102838380Y-88511047D01*
X102838380Y-88653904D01*
X102790761Y-88749142D01*
X102743142Y-88796761D01*
X102647904Y-88844380D01*
X102266952Y-88844380D01*
X102266952Y-87844380D01*
X102600285Y-87844380D01*
X102695523Y-87892000D01*
X102743142Y-87939619D01*
X102790761Y-88034857D01*
X102790761Y-88130095D01*
X102743142Y-88225333D01*
X102695523Y-88272952D01*
X102600285Y-88320571D01*
X102266952Y-88320571D01*
X103219333Y-88558666D02*
X103695523Y-88558666D01*
X103124095Y-88844380D02*
X103457428Y-87844380D01*
X103790761Y-88844380D01*
X104076476Y-88796761D02*
X104219333Y-88844380D01*
X104457428Y-88844380D01*
X104552666Y-88796761D01*
X104600285Y-88749142D01*
X104647904Y-88653904D01*
X104647904Y-88558666D01*
X104600285Y-88463428D01*
X104552666Y-88415809D01*
X104457428Y-88368190D01*
X104266952Y-88320571D01*
X104171714Y-88272952D01*
X104124095Y-88225333D01*
X104076476Y-88130095D01*
X104076476Y-88034857D01*
X104124095Y-87939619D01*
X104171714Y-87892000D01*
X104266952Y-87844380D01*
X104505047Y-87844380D01*
X104647904Y-87892000D01*
X105076476Y-88320571D02*
X105409809Y-88320571D01*
X105552666Y-88844380D02*
X105076476Y-88844380D01*
X105076476Y-87844380D01*
X105552666Y-87844380D01*
X106743142Y-88844380D02*
X106743142Y-87844380D01*
X107124095Y-87844380D01*
X107219333Y-87892000D01*
X107266952Y-87939619D01*
X107314571Y-88034857D01*
X107314571Y-88177714D01*
X107266952Y-88272952D01*
X107219333Y-88320571D01*
X107124095Y-88368190D01*
X106743142Y-88368190D01*
X107933619Y-87844380D02*
X108124095Y-87844380D01*
X108219333Y-87892000D01*
X108314571Y-87987238D01*
X108362190Y-88177714D01*
X108362190Y-88511047D01*
X108314571Y-88701523D01*
X108219333Y-88796761D01*
X108124095Y-88844380D01*
X107933619Y-88844380D01*
X107838380Y-88796761D01*
X107743142Y-88701523D01*
X107695523Y-88511047D01*
X107695523Y-88177714D01*
X107743142Y-87987238D01*
X107838380Y-87892000D01*
X107933619Y-87844380D01*
X109362190Y-88844380D02*
X109028857Y-88368190D01*
X108790761Y-88844380D02*
X108790761Y-87844380D01*
X109171714Y-87844380D01*
X109266952Y-87892000D01*
X109314571Y-87939619D01*
X109362190Y-88034857D01*
X109362190Y-88177714D01*
X109314571Y-88272952D01*
X109266952Y-88320571D01*
X109171714Y-88368190D01*
X108790761Y-88368190D01*
X109647904Y-87844380D02*
X110219333Y-87844380D01*
X109933619Y-88844380D02*
X109933619Y-87844380D01*
G04 #@! TO.C,J5*
X139264095Y-113228380D02*
X139264095Y-112228380D01*
X139740285Y-113228380D02*
X139740285Y-112228380D01*
X140311714Y-113228380D01*
X140311714Y-112228380D01*
X140645047Y-112228380D02*
X141216476Y-112228380D01*
X140930761Y-113228380D02*
X140930761Y-112228380D01*
X142121238Y-113228380D02*
X141787904Y-112752190D01*
X141549809Y-113228380D02*
X141549809Y-112228380D01*
X141930761Y-112228380D01*
X142026000Y-112276000D01*
X142073619Y-112323619D01*
X142121238Y-112418857D01*
X142121238Y-112561714D01*
X142073619Y-112656952D01*
X142026000Y-112704571D01*
X141930761Y-112752190D01*
X141549809Y-112752190D01*
X143264095Y-112942666D02*
X143740285Y-112942666D01*
X143168857Y-113228380D02*
X143502190Y-112228380D01*
X143835523Y-113228380D01*
X144883142Y-113180761D02*
X145026000Y-113228380D01*
X145264095Y-113228380D01*
X145359333Y-113180761D01*
X145406952Y-113133142D01*
X145454571Y-113037904D01*
X145454571Y-112942666D01*
X145406952Y-112847428D01*
X145359333Y-112799809D01*
X145264095Y-112752190D01*
X145073619Y-112704571D01*
X144978380Y-112656952D01*
X144930761Y-112609333D01*
X144883142Y-112514095D01*
X144883142Y-112418857D01*
X144930761Y-112323619D01*
X144978380Y-112276000D01*
X145073619Y-112228380D01*
X145311714Y-112228380D01*
X145454571Y-112276000D01*
X145883142Y-112704571D02*
X146216476Y-112704571D01*
X146359333Y-113228380D02*
X145883142Y-113228380D01*
X145883142Y-112228380D01*
X146359333Y-112228380D01*
X147264095Y-113228380D02*
X146787904Y-113228380D01*
X146787904Y-112228380D01*
X147597428Y-112704571D02*
X147930761Y-112704571D01*
X148073619Y-113228380D02*
X147597428Y-113228380D01*
X147597428Y-112228380D01*
X148073619Y-112228380D01*
X149073619Y-113133142D02*
X149026000Y-113180761D01*
X148883142Y-113228380D01*
X148787904Y-113228380D01*
X148645047Y-113180761D01*
X148549809Y-113085523D01*
X148502190Y-112990285D01*
X148454571Y-112799809D01*
X148454571Y-112656952D01*
X148502190Y-112466476D01*
X148549809Y-112371238D01*
X148645047Y-112276000D01*
X148787904Y-112228380D01*
X148883142Y-112228380D01*
X149026000Y-112276000D01*
X149073619Y-112323619D01*
X149359333Y-112228380D02*
X149930761Y-112228380D01*
X149645047Y-113228380D02*
X149645047Y-112228380D01*
G04 #@! TO.C,J4*
X139192666Y-131008380D02*
X139192666Y-130008380D01*
X139668857Y-131008380D02*
X139668857Y-130008380D01*
X140240285Y-131008380D01*
X140240285Y-130008380D01*
X140573619Y-130008380D02*
X141145047Y-130008380D01*
X140859333Y-131008380D02*
X140859333Y-130008380D01*
X142049809Y-131008380D02*
X141716476Y-130532190D01*
X141478380Y-131008380D02*
X141478380Y-130008380D01*
X141859333Y-130008380D01*
X141954571Y-130056000D01*
X142002190Y-130103619D01*
X142049809Y-130198857D01*
X142049809Y-130341714D01*
X142002190Y-130436952D01*
X141954571Y-130484571D01*
X141859333Y-130532190D01*
X141478380Y-130532190D01*
X143573619Y-130484571D02*
X143716476Y-130532190D01*
X143764095Y-130579809D01*
X143811714Y-130675047D01*
X143811714Y-130817904D01*
X143764095Y-130913142D01*
X143716476Y-130960761D01*
X143621238Y-131008380D01*
X143240285Y-131008380D01*
X143240285Y-130008380D01*
X143573619Y-130008380D01*
X143668857Y-130056000D01*
X143716476Y-130103619D01*
X143764095Y-130198857D01*
X143764095Y-130294095D01*
X143716476Y-130389333D01*
X143668857Y-130436952D01*
X143573619Y-130484571D01*
X143240285Y-130484571D01*
X144954571Y-130960761D02*
X145097428Y-131008380D01*
X145335523Y-131008380D01*
X145430761Y-130960761D01*
X145478380Y-130913142D01*
X145526000Y-130817904D01*
X145526000Y-130722666D01*
X145478380Y-130627428D01*
X145430761Y-130579809D01*
X145335523Y-130532190D01*
X145145047Y-130484571D01*
X145049809Y-130436952D01*
X145002190Y-130389333D01*
X144954571Y-130294095D01*
X144954571Y-130198857D01*
X145002190Y-130103619D01*
X145049809Y-130056000D01*
X145145047Y-130008380D01*
X145383142Y-130008380D01*
X145526000Y-130056000D01*
X145954571Y-130484571D02*
X146287904Y-130484571D01*
X146430761Y-131008380D02*
X145954571Y-131008380D01*
X145954571Y-130008380D01*
X146430761Y-130008380D01*
X147335523Y-131008380D02*
X146859333Y-131008380D01*
X146859333Y-130008380D01*
X147668857Y-130484571D02*
X148002190Y-130484571D01*
X148145047Y-131008380D02*
X147668857Y-131008380D01*
X147668857Y-130008380D01*
X148145047Y-130008380D01*
X149145047Y-130913142D02*
X149097428Y-130960761D01*
X148954571Y-131008380D01*
X148859333Y-131008380D01*
X148716476Y-130960761D01*
X148621238Y-130865523D01*
X148573619Y-130770285D01*
X148526000Y-130579809D01*
X148526000Y-130436952D01*
X148573619Y-130246476D01*
X148621238Y-130151238D01*
X148716476Y-130056000D01*
X148859333Y-130008380D01*
X148954571Y-130008380D01*
X149097428Y-130056000D01*
X149145047Y-130103619D01*
X149430761Y-130008380D02*
X150002190Y-130008380D01*
X149716476Y-131008380D02*
X149716476Y-130008380D01*
G04 #@! TD*
M02*
