G04 #@! TF.GenerationSoftware,KiCad,Pcbnew,(5.1.8)-1*
G04 #@! TF.CreationDate,2021-12-17T11:47:49-07:00*
G04 #@! TF.ProjectId,Multi,4d756c74-692e-46b6-9963-61645f706362,rev?*
G04 #@! TF.SameCoordinates,Original*
G04 #@! TF.FileFunction,Legend,Top*
G04 #@! TF.FilePolarity,Positive*
%FSLAX46Y46*%
G04 Gerber Fmt 4.6, Leading zero omitted, Abs format (unit mm)*
G04 Created by KiCad (PCBNEW (5.1.8)-1) date 2021-12-17 11:47:49*
%MOMM*%
%LPD*%
G01*
G04 APERTURE LIST*
%ADD10C,0.150000*%
%ADD11C,0.127000*%
%ADD12C,0.300000*%
%ADD13C,0.120000*%
G04 APERTURE END LIST*
D10*
X133996285Y-172140571D02*
X133939142Y-172112000D01*
X133910571Y-172083428D01*
X133882000Y-172026285D01*
X133882000Y-171997714D01*
X133910571Y-171940571D01*
X133939142Y-171912000D01*
X133996285Y-171883428D01*
X134110571Y-171883428D01*
X134167714Y-171912000D01*
X134196285Y-171940571D01*
X134224857Y-171997714D01*
X134224857Y-172026285D01*
X134196285Y-172083428D01*
X134167714Y-172112000D01*
X134110571Y-172140571D01*
X133996285Y-172140571D01*
X133939142Y-172169142D01*
X133910571Y-172197714D01*
X133882000Y-172254857D01*
X133882000Y-172369142D01*
X133910571Y-172426285D01*
X133939142Y-172454857D01*
X133996285Y-172483428D01*
X134110571Y-172483428D01*
X134167714Y-172454857D01*
X134196285Y-172426285D01*
X134224857Y-172369142D01*
X134224857Y-172254857D01*
X134196285Y-172197714D01*
X134167714Y-172169142D01*
X134110571Y-172140571D01*
X134424857Y-172483428D02*
X134739142Y-172083428D01*
X134424857Y-172083428D02*
X134739142Y-172483428D01*
X135053428Y-172140571D02*
X134996285Y-172112000D01*
X134967714Y-172083428D01*
X134939142Y-172026285D01*
X134939142Y-171997714D01*
X134967714Y-171940571D01*
X134996285Y-171912000D01*
X135053428Y-171883428D01*
X135167714Y-171883428D01*
X135224857Y-171912000D01*
X135253428Y-171940571D01*
X135282000Y-171997714D01*
X135282000Y-172026285D01*
X135253428Y-172083428D01*
X135224857Y-172112000D01*
X135167714Y-172140571D01*
X135053428Y-172140571D01*
X134996285Y-172169142D01*
X134967714Y-172197714D01*
X134939142Y-172254857D01*
X134939142Y-172369142D01*
X134967714Y-172426285D01*
X134996285Y-172454857D01*
X135053428Y-172483428D01*
X135167714Y-172483428D01*
X135224857Y-172454857D01*
X135253428Y-172426285D01*
X135282000Y-172369142D01*
X135282000Y-172254857D01*
X135253428Y-172197714D01*
X135224857Y-172169142D01*
X135167714Y-172140571D01*
X135539142Y-172483428D02*
X135539142Y-172083428D01*
X135539142Y-172140571D02*
X135567714Y-172112000D01*
X135624857Y-172083428D01*
X135710571Y-172083428D01*
X135767714Y-172112000D01*
X135796285Y-172169142D01*
X135796285Y-172483428D01*
X135796285Y-172169142D02*
X135824857Y-172112000D01*
X135882000Y-172083428D01*
X135967714Y-172083428D01*
X136024857Y-172112000D01*
X136053428Y-172169142D01*
X136053428Y-172483428D01*
X136339142Y-172483428D02*
X136339142Y-172083428D01*
X136339142Y-172140571D02*
X136367714Y-172112000D01*
X136424857Y-172083428D01*
X136510571Y-172083428D01*
X136567714Y-172112000D01*
X136596285Y-172169142D01*
X136596285Y-172483428D01*
X136596285Y-172169142D02*
X136624857Y-172112000D01*
X136682000Y-172083428D01*
X136767714Y-172083428D01*
X136824857Y-172112000D01*
X136853428Y-172169142D01*
X136853428Y-172483428D01*
X134696285Y-160961428D02*
X134582000Y-160961428D01*
X134524857Y-160990000D01*
X134496285Y-161018571D01*
X134439142Y-161104285D01*
X134410571Y-161218571D01*
X134410571Y-161447142D01*
X134439142Y-161504285D01*
X134467714Y-161532857D01*
X134524857Y-161561428D01*
X134639142Y-161561428D01*
X134696285Y-161532857D01*
X134724857Y-161504285D01*
X134753428Y-161447142D01*
X134753428Y-161304285D01*
X134724857Y-161247142D01*
X134696285Y-161218571D01*
X134639142Y-161190000D01*
X134524857Y-161190000D01*
X134467714Y-161218571D01*
X134439142Y-161247142D01*
X134410571Y-161304285D01*
X135010571Y-161561428D02*
X135010571Y-161161428D01*
X135010571Y-161218571D02*
X135039142Y-161190000D01*
X135096285Y-161161428D01*
X135182000Y-161161428D01*
X135239142Y-161190000D01*
X135267714Y-161247142D01*
X135267714Y-161561428D01*
X135267714Y-161247142D02*
X135296285Y-161190000D01*
X135353428Y-161161428D01*
X135439142Y-161161428D01*
X135496285Y-161190000D01*
X135524857Y-161247142D01*
X135524857Y-161561428D01*
X135810571Y-161561428D02*
X135810571Y-161161428D01*
X135810571Y-161218571D02*
X135839142Y-161190000D01*
X135896285Y-161161428D01*
X135982000Y-161161428D01*
X136039142Y-161190000D01*
X136067714Y-161247142D01*
X136067714Y-161561428D01*
X136067714Y-161247142D02*
X136096285Y-161190000D01*
X136153428Y-161161428D01*
X136239142Y-161161428D01*
X136296285Y-161190000D01*
X136324857Y-161247142D01*
X136324857Y-161561428D01*
D11*
X112979502Y-49251809D02*
X112979502Y-48743809D01*
X113100454Y-48743809D01*
X113173026Y-48768000D01*
X113221407Y-48816380D01*
X113245597Y-48864761D01*
X113269788Y-48961523D01*
X113269788Y-49034095D01*
X113245597Y-49130857D01*
X113221407Y-49179238D01*
X113173026Y-49227619D01*
X113100454Y-49251809D01*
X112979502Y-49251809D01*
X113439121Y-48743809D02*
X113777788Y-48743809D01*
X113560073Y-49251809D01*
X112979502Y-51791809D02*
X112979502Y-51283809D01*
X113100454Y-51283809D01*
X113173026Y-51308000D01*
X113221407Y-51356380D01*
X113245597Y-51404761D01*
X113269788Y-51501523D01*
X113269788Y-51574095D01*
X113245597Y-51670857D01*
X113221407Y-51719238D01*
X113173026Y-51767619D01*
X113100454Y-51791809D01*
X112979502Y-51791809D01*
X113705216Y-51283809D02*
X113608454Y-51283809D01*
X113560073Y-51308000D01*
X113535883Y-51332190D01*
X113487502Y-51404761D01*
X113463311Y-51501523D01*
X113463311Y-51695047D01*
X113487502Y-51743428D01*
X113511692Y-51767619D01*
X113560073Y-51791809D01*
X113656835Y-51791809D01*
X113705216Y-51767619D01*
X113729407Y-51743428D01*
X113753597Y-51695047D01*
X113753597Y-51574095D01*
X113729407Y-51525714D01*
X113705216Y-51501523D01*
X113656835Y-51477333D01*
X113560073Y-51477333D01*
X113511692Y-51501523D01*
X113487502Y-51525714D01*
X113463311Y-51574095D01*
X112979502Y-56871809D02*
X112979502Y-56363809D01*
X113100454Y-56363809D01*
X113173026Y-56388000D01*
X113221407Y-56436380D01*
X113245597Y-56484761D01*
X113269788Y-56581523D01*
X113269788Y-56654095D01*
X113245597Y-56750857D01*
X113221407Y-56799238D01*
X113173026Y-56847619D01*
X113100454Y-56871809D01*
X112979502Y-56871809D01*
X113705216Y-56533142D02*
X113705216Y-56871809D01*
X113584264Y-56339619D02*
X113463311Y-56702476D01*
X113777788Y-56702476D01*
X112979502Y-59411809D02*
X112979502Y-58903809D01*
X113100454Y-58903809D01*
X113173026Y-58928000D01*
X113221407Y-58976380D01*
X113245597Y-59024761D01*
X113269788Y-59121523D01*
X113269788Y-59194095D01*
X113245597Y-59290857D01*
X113221407Y-59339238D01*
X113173026Y-59387619D01*
X113100454Y-59411809D01*
X112979502Y-59411809D01*
X113439121Y-58903809D02*
X113753597Y-58903809D01*
X113584264Y-59097333D01*
X113656835Y-59097333D01*
X113705216Y-59121523D01*
X113729407Y-59145714D01*
X113753597Y-59194095D01*
X113753597Y-59315047D01*
X113729407Y-59363428D01*
X113705216Y-59387619D01*
X113656835Y-59411809D01*
X113511692Y-59411809D01*
X113463311Y-59387619D01*
X113439121Y-59363428D01*
X112979502Y-61951809D02*
X112979502Y-61443809D01*
X113100454Y-61443809D01*
X113173026Y-61468000D01*
X113221407Y-61516380D01*
X113245597Y-61564761D01*
X113269788Y-61661523D01*
X113269788Y-61734095D01*
X113245597Y-61830857D01*
X113221407Y-61879238D01*
X113173026Y-61927619D01*
X113100454Y-61951809D01*
X112979502Y-61951809D01*
X113463311Y-61492190D02*
X113487502Y-61468000D01*
X113535883Y-61443809D01*
X113656835Y-61443809D01*
X113705216Y-61468000D01*
X113729407Y-61492190D01*
X113753597Y-61540571D01*
X113753597Y-61588952D01*
X113729407Y-61661523D01*
X113439121Y-61951809D01*
X113753597Y-61951809D01*
X112955311Y-64467619D02*
X113027883Y-64491809D01*
X113148835Y-64491809D01*
X113197216Y-64467619D01*
X113221407Y-64443428D01*
X113245597Y-64395047D01*
X113245597Y-64346666D01*
X113221407Y-64298285D01*
X113197216Y-64274095D01*
X113148835Y-64249904D01*
X113052073Y-64225714D01*
X113003692Y-64201523D01*
X112979502Y-64177333D01*
X112955311Y-64128952D01*
X112955311Y-64080571D01*
X112979502Y-64032190D01*
X113003692Y-64008000D01*
X113052073Y-63983809D01*
X113173026Y-63983809D01*
X113245597Y-64008000D01*
X113463311Y-64491809D02*
X113463311Y-63983809D01*
X113656835Y-63983809D01*
X113705216Y-64008000D01*
X113729407Y-64032190D01*
X113753597Y-64080571D01*
X113753597Y-64153142D01*
X113729407Y-64201523D01*
X113705216Y-64225714D01*
X113656835Y-64249904D01*
X113463311Y-64249904D01*
X113971311Y-64491809D02*
X113971311Y-63983809D01*
X114261597Y-64491809D02*
X114043883Y-64201523D01*
X114261597Y-63983809D02*
X113971311Y-64274095D01*
X114866359Y-64225714D02*
X115035692Y-64225714D01*
X115108264Y-64491809D02*
X114866359Y-64491809D01*
X114866359Y-63983809D01*
X115108264Y-63983809D01*
X115325978Y-64491809D02*
X115325978Y-63983809D01*
X115616264Y-64491809D01*
X115616264Y-63983809D01*
X112955311Y-67261619D02*
X113027883Y-67285809D01*
X113148835Y-67285809D01*
X113197216Y-67261619D01*
X113221407Y-67237428D01*
X113245597Y-67189047D01*
X113245597Y-67140666D01*
X113221407Y-67092285D01*
X113197216Y-67068095D01*
X113148835Y-67043904D01*
X113052073Y-67019714D01*
X113003692Y-66995523D01*
X112979502Y-66971333D01*
X112955311Y-66922952D01*
X112955311Y-66874571D01*
X112979502Y-66826190D01*
X113003692Y-66802000D01*
X113052073Y-66777809D01*
X113173026Y-66777809D01*
X113245597Y-66802000D01*
X113463311Y-67285809D02*
X113463311Y-66777809D01*
X113656835Y-66777809D01*
X113705216Y-66802000D01*
X113729407Y-66826190D01*
X113753597Y-66874571D01*
X113753597Y-66947142D01*
X113729407Y-66995523D01*
X113705216Y-67019714D01*
X113656835Y-67043904D01*
X113463311Y-67043904D01*
X113971311Y-67285809D02*
X113971311Y-66777809D01*
X114261597Y-67285809D02*
X114043883Y-66995523D01*
X114261597Y-66777809D02*
X113971311Y-67068095D01*
X115132454Y-66802000D02*
X115084073Y-66777809D01*
X115011502Y-66777809D01*
X114938930Y-66802000D01*
X114890550Y-66850380D01*
X114866359Y-66898761D01*
X114842169Y-66995523D01*
X114842169Y-67068095D01*
X114866359Y-67164857D01*
X114890550Y-67213238D01*
X114938930Y-67261619D01*
X115011502Y-67285809D01*
X115059883Y-67285809D01*
X115132454Y-67261619D01*
X115156645Y-67237428D01*
X115156645Y-67068095D01*
X115059883Y-67068095D01*
X115471121Y-66777809D02*
X115567883Y-66777809D01*
X115616264Y-66802000D01*
X115664645Y-66850380D01*
X115688835Y-66947142D01*
X115688835Y-67116476D01*
X115664645Y-67213238D01*
X115616264Y-67261619D01*
X115567883Y-67285809D01*
X115471121Y-67285809D01*
X115422740Y-67261619D01*
X115374359Y-67213238D01*
X115350169Y-67116476D01*
X115350169Y-66947142D01*
X115374359Y-66850380D01*
X115422740Y-66802000D01*
X115471121Y-66777809D01*
X113269788Y-53838928D02*
X113245597Y-53863119D01*
X113173026Y-53887309D01*
X113124645Y-53887309D01*
X113052073Y-53863119D01*
X113003692Y-53814738D01*
X112979502Y-53766357D01*
X112955311Y-53669595D01*
X112955311Y-53597023D01*
X112979502Y-53500261D01*
X113003692Y-53451880D01*
X113052073Y-53403500D01*
X113124645Y-53379309D01*
X113173026Y-53379309D01*
X113245597Y-53403500D01*
X113269788Y-53427690D01*
X113487502Y-53887309D02*
X113487502Y-53379309D01*
X113487502Y-53621214D02*
X113777788Y-53621214D01*
X113777788Y-53887309D02*
X113777788Y-53379309D01*
X113898740Y-53935690D02*
X114285788Y-53935690D01*
X114697026Y-53838928D02*
X114672835Y-53863119D01*
X114600264Y-53887309D01*
X114551883Y-53887309D01*
X114479311Y-53863119D01*
X114430930Y-53814738D01*
X114406740Y-53766357D01*
X114382550Y-53669595D01*
X114382550Y-53597023D01*
X114406740Y-53500261D01*
X114430930Y-53451880D01*
X114479311Y-53403500D01*
X114551883Y-53379309D01*
X114600264Y-53379309D01*
X114672835Y-53403500D01*
X114697026Y-53427690D01*
X114914740Y-53887309D02*
X114914740Y-53379309D01*
X115205026Y-53887309D02*
X114987311Y-53597023D01*
X115205026Y-53379309D02*
X114914740Y-53669595D01*
X115809788Y-53621214D02*
X115979121Y-53621214D01*
X116051692Y-53887309D02*
X115809788Y-53887309D01*
X115809788Y-53379309D01*
X116051692Y-53379309D01*
X116269407Y-53887309D02*
X116269407Y-53379309D01*
X116559692Y-53887309D01*
X116559692Y-53379309D01*
X112979502Y-54776309D02*
X112979502Y-54268309D01*
X113269788Y-54776309D01*
X113269788Y-54268309D01*
X113511692Y-54776309D02*
X113511692Y-54268309D01*
X113681026Y-54631166D01*
X113850359Y-54268309D01*
X113850359Y-54776309D01*
X114092264Y-54776309D02*
X114092264Y-54268309D01*
X114721216Y-54510214D02*
X114890550Y-54510214D01*
X114963121Y-54776309D02*
X114721216Y-54776309D01*
X114721216Y-54268309D01*
X114963121Y-54268309D01*
X115180835Y-54776309D02*
X115180835Y-54268309D01*
X115471121Y-54776309D01*
X115471121Y-54268309D01*
D10*
X127889047Y-188174380D02*
X127412857Y-188174380D01*
X127365238Y-188650571D01*
X127412857Y-188602952D01*
X127508095Y-188555333D01*
X127746190Y-188555333D01*
X127841428Y-188602952D01*
X127889047Y-188650571D01*
X127936666Y-188745809D01*
X127936666Y-188983904D01*
X127889047Y-189079142D01*
X127841428Y-189126761D01*
X127746190Y-189174380D01*
X127508095Y-189174380D01*
X127412857Y-189126761D01*
X127365238Y-189079142D01*
X128365238Y-188793428D02*
X129127142Y-188793428D01*
X128746190Y-189174380D02*
X128746190Y-188412476D01*
X124460095Y-188222000D02*
X124364857Y-188174380D01*
X124222000Y-188174380D01*
X124079142Y-188222000D01*
X123983904Y-188317238D01*
X123936285Y-188412476D01*
X123888666Y-188602952D01*
X123888666Y-188745809D01*
X123936285Y-188936285D01*
X123983904Y-189031523D01*
X124079142Y-189126761D01*
X124222000Y-189174380D01*
X124317238Y-189174380D01*
X124460095Y-189126761D01*
X124507714Y-189079142D01*
X124507714Y-188745809D01*
X124317238Y-188745809D01*
X124936285Y-189174380D02*
X124936285Y-188174380D01*
X125507714Y-189174380D01*
X125507714Y-188174380D01*
X125983904Y-189174380D02*
X125983904Y-188174380D01*
X126222000Y-188174380D01*
X126364857Y-188222000D01*
X126460095Y-188317238D01*
X126507714Y-188412476D01*
X126555333Y-188602952D01*
X126555333Y-188745809D01*
X126507714Y-188936285D01*
X126460095Y-189031523D01*
X126364857Y-189126761D01*
X126222000Y-189174380D01*
X125983904Y-189174380D01*
X119110285Y-189126761D02*
X119253142Y-189174380D01*
X119491238Y-189174380D01*
X119586476Y-189126761D01*
X119634095Y-189079142D01*
X119681714Y-188983904D01*
X119681714Y-188888666D01*
X119634095Y-188793428D01*
X119586476Y-188745809D01*
X119491238Y-188698190D01*
X119300761Y-188650571D01*
X119205523Y-188602952D01*
X119157904Y-188555333D01*
X119110285Y-188460095D01*
X119110285Y-188364857D01*
X119157904Y-188269619D01*
X119205523Y-188222000D01*
X119300761Y-188174380D01*
X119538857Y-188174380D01*
X119681714Y-188222000D01*
X120110285Y-189174380D02*
X120110285Y-188174380D01*
X120491238Y-188174380D01*
X120586476Y-188222000D01*
X120634095Y-188269619D01*
X120681714Y-188364857D01*
X120681714Y-188507714D01*
X120634095Y-188602952D01*
X120586476Y-188650571D01*
X120491238Y-188698190D01*
X120110285Y-188698190D01*
X121110285Y-189174380D02*
X121110285Y-188174380D01*
X121681714Y-189174380D02*
X121253142Y-188602952D01*
X121681714Y-188174380D02*
X121110285Y-188745809D01*
X132786380Y-121016000D02*
X132834000Y-121063619D01*
X132881619Y-121158857D01*
X132881619Y-121396952D01*
X132834000Y-121492190D01*
X132786380Y-121539809D01*
X132691142Y-121587428D01*
X132595904Y-121587428D01*
X132453047Y-121539809D01*
X131881619Y-120968380D01*
X131881619Y-121587428D01*
X132548285Y-122444571D02*
X131881619Y-122444571D01*
X132929238Y-122206476D02*
X132214952Y-121968380D01*
X132214952Y-122587428D01*
X131881619Y-123730285D02*
X132881619Y-123730285D01*
X132881619Y-124111238D01*
X132834000Y-124206476D01*
X132786380Y-124254095D01*
X132691142Y-124301714D01*
X132548285Y-124301714D01*
X132453047Y-124254095D01*
X132405428Y-124206476D01*
X132357809Y-124111238D01*
X132357809Y-123730285D01*
X131881619Y-124730285D02*
X132881619Y-124730285D01*
X131881619Y-125206476D02*
X132881619Y-125206476D01*
X131881619Y-125777904D01*
X132881619Y-125777904D01*
X132167333Y-126968380D02*
X132167333Y-127444571D01*
X131881619Y-126873142D02*
X132881619Y-127206476D01*
X131881619Y-127539809D01*
X132881619Y-127730285D02*
X132881619Y-128301714D01*
X131881619Y-128016000D02*
X132881619Y-128016000D01*
X132881619Y-128539809D02*
X131881619Y-129206476D01*
X132881619Y-129206476D02*
X131881619Y-128539809D01*
X131881619Y-130349333D02*
X132881619Y-130349333D01*
X132881619Y-130730285D01*
X132834000Y-130825523D01*
X132786380Y-130873142D01*
X132691142Y-130920761D01*
X132548285Y-130920761D01*
X132453047Y-130873142D01*
X132405428Y-130825523D01*
X132357809Y-130730285D01*
X132357809Y-130349333D01*
X132881619Y-131539809D02*
X132881619Y-131730285D01*
X132834000Y-131825523D01*
X132738761Y-131920761D01*
X132548285Y-131968380D01*
X132214952Y-131968380D01*
X132024476Y-131920761D01*
X131929238Y-131825523D01*
X131881619Y-131730285D01*
X131881619Y-131539809D01*
X131929238Y-131444571D01*
X132024476Y-131349333D01*
X132214952Y-131301714D01*
X132548285Y-131301714D01*
X132738761Y-131349333D01*
X132834000Y-131444571D01*
X132881619Y-131539809D01*
X132881619Y-132301714D02*
X131881619Y-132539809D01*
X132595904Y-132730285D01*
X131881619Y-132920761D01*
X132881619Y-133158857D01*
X132405428Y-133539809D02*
X132405428Y-133873142D01*
X131881619Y-134016000D02*
X131881619Y-133539809D01*
X132881619Y-133539809D01*
X132881619Y-134016000D01*
X131881619Y-135016000D02*
X132357809Y-134682666D01*
X131881619Y-134444571D02*
X132881619Y-134444571D01*
X132881619Y-134825523D01*
X132834000Y-134920761D01*
X132786380Y-134968380D01*
X132691142Y-135016000D01*
X132548285Y-135016000D01*
X132453047Y-134968380D01*
X132405428Y-134920761D01*
X132357809Y-134825523D01*
X132357809Y-134444571D01*
X132834000Y-73684190D02*
X132881619Y-73623714D01*
X132881619Y-73533000D01*
X132834000Y-73442285D01*
X132738761Y-73381809D01*
X132643523Y-73351571D01*
X132453047Y-73321333D01*
X132310190Y-73321333D01*
X132119714Y-73351571D01*
X132024476Y-73381809D01*
X131929238Y-73442285D01*
X131881619Y-73533000D01*
X131881619Y-73593476D01*
X131929238Y-73684190D01*
X131976857Y-73714428D01*
X132310190Y-73714428D01*
X132310190Y-73593476D01*
X131881619Y-73986571D02*
X132881619Y-73986571D01*
X131881619Y-74349428D01*
X132881619Y-74349428D01*
X131881619Y-74651809D02*
X132881619Y-74651809D01*
X132881619Y-74803000D01*
X132834000Y-74893714D01*
X132738761Y-74954190D01*
X132643523Y-74984428D01*
X132453047Y-75014666D01*
X132310190Y-75014666D01*
X132119714Y-74984428D01*
X132024476Y-74954190D01*
X131929238Y-74893714D01*
X131881619Y-74803000D01*
X131881619Y-74651809D01*
X132834000Y-76224190D02*
X132881619Y-76163714D01*
X132881619Y-76073000D01*
X132834000Y-75982285D01*
X132738761Y-75921809D01*
X132643523Y-75891571D01*
X132453047Y-75861333D01*
X132310190Y-75861333D01*
X132119714Y-75891571D01*
X132024476Y-75921809D01*
X131929238Y-75982285D01*
X131881619Y-76073000D01*
X131881619Y-76133476D01*
X131929238Y-76224190D01*
X131976857Y-76254428D01*
X132310190Y-76254428D01*
X132310190Y-76133476D01*
X131881619Y-76526571D02*
X132881619Y-76526571D01*
X131881619Y-76889428D01*
X132881619Y-76889428D01*
X131881619Y-77191809D02*
X132881619Y-77191809D01*
X132881619Y-77343000D01*
X132834000Y-77433714D01*
X132738761Y-77494190D01*
X132643523Y-77524428D01*
X132453047Y-77554666D01*
X132310190Y-77554666D01*
X132119714Y-77524428D01*
X132024476Y-77494190D01*
X131929238Y-77433714D01*
X131881619Y-77343000D01*
X131881619Y-77191809D01*
X131881619Y-81168119D02*
X132881619Y-81168119D01*
X131881619Y-81833357D02*
X132357809Y-81621690D01*
X131881619Y-81470500D02*
X132881619Y-81470500D01*
X132881619Y-81712404D01*
X132834000Y-81772880D01*
X132786380Y-81803119D01*
X132691142Y-81833357D01*
X132548285Y-81833357D01*
X132453047Y-81803119D01*
X132405428Y-81772880D01*
X132357809Y-81712404D01*
X132357809Y-81470500D01*
X132881619Y-82377642D02*
X132881619Y-82256690D01*
X132834000Y-82196214D01*
X132786380Y-82165976D01*
X132643523Y-82105500D01*
X132453047Y-82075261D01*
X132072095Y-82075261D01*
X131976857Y-82105500D01*
X131929238Y-82135738D01*
X131881619Y-82196214D01*
X131881619Y-82317166D01*
X131929238Y-82377642D01*
X131976857Y-82407880D01*
X132072095Y-82438119D01*
X132310190Y-82438119D01*
X132405428Y-82407880D01*
X132453047Y-82377642D01*
X132500666Y-82317166D01*
X132500666Y-82196214D01*
X132453047Y-82135738D01*
X132405428Y-82105500D01*
X132310190Y-82075261D01*
X138485619Y-83843904D02*
X139485619Y-83843904D01*
X139485619Y-84082000D01*
X139438000Y-84224857D01*
X139342761Y-84320095D01*
X139247523Y-84367714D01*
X139057047Y-84415333D01*
X138914190Y-84415333D01*
X138723714Y-84367714D01*
X138628476Y-84320095D01*
X138533238Y-84224857D01*
X138485619Y-84082000D01*
X138485619Y-83843904D01*
X139152285Y-85272476D02*
X138485619Y-85272476D01*
X139533238Y-85034380D02*
X138818952Y-84796285D01*
X138818952Y-85415333D01*
X138485619Y-81303904D02*
X139485619Y-81303904D01*
X139485619Y-81542000D01*
X139438000Y-81684857D01*
X139342761Y-81780095D01*
X139247523Y-81827714D01*
X139057047Y-81875333D01*
X138914190Y-81875333D01*
X138723714Y-81827714D01*
X138628476Y-81780095D01*
X138533238Y-81684857D01*
X138485619Y-81542000D01*
X138485619Y-81303904D01*
X139485619Y-82208666D02*
X139485619Y-82827714D01*
X139104666Y-82494380D01*
X139104666Y-82637238D01*
X139057047Y-82732476D01*
X139009428Y-82780095D01*
X138914190Y-82827714D01*
X138676095Y-82827714D01*
X138580857Y-82780095D01*
X138533238Y-82732476D01*
X138485619Y-82637238D01*
X138485619Y-82351523D01*
X138533238Y-82256285D01*
X138580857Y-82208666D01*
X132881619Y-91019428D02*
X131881619Y-91257523D01*
X132595904Y-91448000D01*
X131881619Y-91638476D01*
X132881619Y-91876571D01*
X131881619Y-92828952D02*
X132357809Y-92495619D01*
X131881619Y-92257523D02*
X132881619Y-92257523D01*
X132881619Y-92638476D01*
X132834000Y-92733714D01*
X132786380Y-92781333D01*
X132691142Y-92828952D01*
X132548285Y-92828952D01*
X132453047Y-92781333D01*
X132405428Y-92733714D01*
X132357809Y-92638476D01*
X132357809Y-92257523D01*
X138485619Y-88923904D02*
X139485619Y-88923904D01*
X139485619Y-89162000D01*
X139438000Y-89304857D01*
X139342761Y-89400095D01*
X139247523Y-89447714D01*
X139057047Y-89495333D01*
X138914190Y-89495333D01*
X138723714Y-89447714D01*
X138628476Y-89400095D01*
X138533238Y-89304857D01*
X138485619Y-89162000D01*
X138485619Y-88923904D01*
X139485619Y-90352476D02*
X139485619Y-90162000D01*
X139438000Y-90066761D01*
X139390380Y-90019142D01*
X139247523Y-89923904D01*
X139057047Y-89876285D01*
X138676095Y-89876285D01*
X138580857Y-89923904D01*
X138533238Y-89971523D01*
X138485619Y-90066761D01*
X138485619Y-90257238D01*
X138533238Y-90352476D01*
X138580857Y-90400095D01*
X138676095Y-90447714D01*
X138914190Y-90447714D01*
X139009428Y-90400095D01*
X139057047Y-90352476D01*
X139104666Y-90257238D01*
X139104666Y-90066761D01*
X139057047Y-89971523D01*
X139009428Y-89923904D01*
X138914190Y-89876285D01*
X138485619Y-76223904D02*
X139485619Y-76223904D01*
X139485619Y-76462000D01*
X139438000Y-76604857D01*
X139342761Y-76700095D01*
X139247523Y-76747714D01*
X139057047Y-76795333D01*
X138914190Y-76795333D01*
X138723714Y-76747714D01*
X138628476Y-76700095D01*
X138533238Y-76604857D01*
X138485619Y-76462000D01*
X138485619Y-76223904D01*
X138485619Y-77747714D02*
X138485619Y-77176285D01*
X138485619Y-77462000D02*
X139485619Y-77462000D01*
X139342761Y-77366761D01*
X139247523Y-77271523D01*
X139199904Y-77176285D01*
X138485619Y-86383904D02*
X139485619Y-86383904D01*
X139485619Y-86622000D01*
X139438000Y-86764857D01*
X139342761Y-86860095D01*
X139247523Y-86907714D01*
X139057047Y-86955333D01*
X138914190Y-86955333D01*
X138723714Y-86907714D01*
X138628476Y-86860095D01*
X138533238Y-86764857D01*
X138485619Y-86622000D01*
X138485619Y-86383904D01*
X139485619Y-87860095D02*
X139485619Y-87383904D01*
X139009428Y-87336285D01*
X139057047Y-87383904D01*
X139104666Y-87479142D01*
X139104666Y-87717238D01*
X139057047Y-87812476D01*
X139009428Y-87860095D01*
X138914190Y-87907714D01*
X138676095Y-87907714D01*
X138580857Y-87860095D01*
X138533238Y-87812476D01*
X138485619Y-87717238D01*
X138485619Y-87479142D01*
X138533238Y-87383904D01*
X138580857Y-87336285D01*
X138485619Y-78763904D02*
X139485619Y-78763904D01*
X139485619Y-79002000D01*
X139438000Y-79144857D01*
X139342761Y-79240095D01*
X139247523Y-79287714D01*
X139057047Y-79335333D01*
X138914190Y-79335333D01*
X138723714Y-79287714D01*
X138628476Y-79240095D01*
X138533238Y-79144857D01*
X138485619Y-79002000D01*
X138485619Y-78763904D01*
X139390380Y-79716285D02*
X139438000Y-79763904D01*
X139485619Y-79859142D01*
X139485619Y-80097238D01*
X139438000Y-80192476D01*
X139390380Y-80240095D01*
X139295142Y-80287714D01*
X139199904Y-80287714D01*
X139057047Y-80240095D01*
X138485619Y-79668666D01*
X138485619Y-80287714D01*
X138485619Y-91463904D02*
X139485619Y-91463904D01*
X139485619Y-91702000D01*
X139438000Y-91844857D01*
X139342761Y-91940095D01*
X139247523Y-91987714D01*
X139057047Y-92035333D01*
X138914190Y-92035333D01*
X138723714Y-91987714D01*
X138628476Y-91940095D01*
X138533238Y-91844857D01*
X138485619Y-91702000D01*
X138485619Y-91463904D01*
X139485619Y-92368666D02*
X139485619Y-93035333D01*
X138485619Y-92606761D01*
X131881619Y-89217523D02*
X132357809Y-88884190D01*
X131881619Y-88646095D02*
X132881619Y-88646095D01*
X132881619Y-89027047D01*
X132834000Y-89122285D01*
X132786380Y-89169904D01*
X132691142Y-89217523D01*
X132548285Y-89217523D01*
X132453047Y-89169904D01*
X132405428Y-89122285D01*
X132357809Y-89027047D01*
X132357809Y-88646095D01*
X131881619Y-89646095D02*
X132881619Y-89646095D01*
X132881619Y-89884190D01*
X132834000Y-90027047D01*
X132738761Y-90122285D01*
X132643523Y-90169904D01*
X132453047Y-90217523D01*
X132310190Y-90217523D01*
X132119714Y-90169904D01*
X132024476Y-90122285D01*
X131929238Y-90027047D01*
X131881619Y-89884190D01*
X131881619Y-89646095D01*
X132881619Y-79006095D02*
X132881619Y-78703714D01*
X132405428Y-78673476D01*
X132453047Y-78703714D01*
X132500666Y-78764190D01*
X132500666Y-78915380D01*
X132453047Y-78975857D01*
X132405428Y-79006095D01*
X132310190Y-79036333D01*
X132072095Y-79036333D01*
X131976857Y-79006095D01*
X131929238Y-78975857D01*
X131881619Y-78915380D01*
X131881619Y-78764190D01*
X131929238Y-78703714D01*
X131976857Y-78673476D01*
X132262571Y-79308476D02*
X132262571Y-79792285D01*
X131881619Y-79550380D02*
X132643523Y-79550380D01*
X138485619Y-73683904D02*
X139485619Y-73683904D01*
X139485619Y-73922000D01*
X139438000Y-74064857D01*
X139342761Y-74160095D01*
X139247523Y-74207714D01*
X139057047Y-74255333D01*
X138914190Y-74255333D01*
X138723714Y-74207714D01*
X138628476Y-74160095D01*
X138533238Y-74064857D01*
X138485619Y-73922000D01*
X138485619Y-73683904D01*
X139485619Y-74874380D02*
X139485619Y-74969619D01*
X139438000Y-75064857D01*
X139390380Y-75112476D01*
X139295142Y-75160095D01*
X139104666Y-75207714D01*
X138866571Y-75207714D01*
X138676095Y-75160095D01*
X138580857Y-75112476D01*
X138533238Y-75064857D01*
X138485619Y-74969619D01*
X138485619Y-74874380D01*
X138533238Y-74779142D01*
X138580857Y-74731523D01*
X138676095Y-74683904D01*
X138866571Y-74636285D01*
X139104666Y-74636285D01*
X139295142Y-74683904D01*
X139390380Y-74731523D01*
X139438000Y-74779142D01*
X139485619Y-74874380D01*
X132167333Y-83613714D02*
X132167333Y-84089904D01*
X131881619Y-83518476D02*
X132881619Y-83851809D01*
X131881619Y-84185142D01*
X132786380Y-84470857D02*
X132834000Y-84518476D01*
X132881619Y-84613714D01*
X132881619Y-84851809D01*
X132834000Y-84947047D01*
X132786380Y-84994666D01*
X132691142Y-85042285D01*
X132595904Y-85042285D01*
X132453047Y-84994666D01*
X131881619Y-84423238D01*
X131881619Y-85042285D01*
X131976857Y-86701333D02*
X131929238Y-86653714D01*
X131881619Y-86510857D01*
X131881619Y-86415619D01*
X131929238Y-86272761D01*
X132024476Y-86177523D01*
X132119714Y-86129904D01*
X132310190Y-86082285D01*
X132453047Y-86082285D01*
X132643523Y-86129904D01*
X132738761Y-86177523D01*
X132834000Y-86272761D01*
X132881619Y-86415619D01*
X132881619Y-86510857D01*
X132834000Y-86653714D01*
X132786380Y-86701333D01*
X131929238Y-87082285D02*
X131881619Y-87225142D01*
X131881619Y-87463238D01*
X131929238Y-87558476D01*
X131976857Y-87606095D01*
X132072095Y-87653714D01*
X132167333Y-87653714D01*
X132262571Y-87606095D01*
X132310190Y-87558476D01*
X132357809Y-87463238D01*
X132405428Y-87272761D01*
X132453047Y-87177523D01*
X132500666Y-87129904D01*
X132595904Y-87082285D01*
X132691142Y-87082285D01*
X132786380Y-87129904D01*
X132834000Y-87177523D01*
X132881619Y-87272761D01*
X132881619Y-87510857D01*
X132834000Y-87653714D01*
D12*
X-18243857Y-20959857D02*
X-17743857Y-20959857D01*
X-17529571Y-21745571D02*
X-18243857Y-21745571D01*
X-18243857Y-20245571D01*
X-17529571Y-20245571D01*
X-16886714Y-21745571D02*
X-16886714Y-20245571D01*
X-16386714Y-21317000D01*
X-15886714Y-20245571D01*
X-15886714Y-21745571D01*
X-15172428Y-21745571D02*
X-15172428Y-20245571D01*
X-14672428Y-21317000D01*
X-14172428Y-20245571D01*
X-14172428Y-21745571D01*
X-11458142Y-21602714D02*
X-11529571Y-21674142D01*
X-11743857Y-21745571D01*
X-11886714Y-21745571D01*
X-12101000Y-21674142D01*
X-12243857Y-21531285D01*
X-12315285Y-21388428D01*
X-12386714Y-21102714D01*
X-12386714Y-20888428D01*
X-12315285Y-20602714D01*
X-12243857Y-20459857D01*
X-12101000Y-20317000D01*
X-11886714Y-20245571D01*
X-11743857Y-20245571D01*
X-11529571Y-20317000D01*
X-11458142Y-20388428D01*
X-10529571Y-20245571D02*
X-10243857Y-20245571D01*
X-10101000Y-20317000D01*
X-9958142Y-20459857D01*
X-9886714Y-20745571D01*
X-9886714Y-21245571D01*
X-9958142Y-21531285D01*
X-10101000Y-21674142D01*
X-10243857Y-21745571D01*
X-10529571Y-21745571D01*
X-10672428Y-21674142D01*
X-10815285Y-21531285D01*
X-10886714Y-21245571D01*
X-10886714Y-20745571D01*
X-10815285Y-20459857D01*
X-10672428Y-20317000D01*
X-10529571Y-20245571D01*
X-9243857Y-21745571D02*
X-9243857Y-20245571D01*
X-8743857Y-21317000D01*
X-8243857Y-20245571D01*
X-8243857Y-21745571D01*
X-7529571Y-21745571D02*
X-7529571Y-20245571D01*
X-6958142Y-20245571D01*
X-6815285Y-20317000D01*
X-6743857Y-20388428D01*
X-6672428Y-20531285D01*
X-6672428Y-20745571D01*
X-6743857Y-20888428D01*
X-6815285Y-20959857D01*
X-6958142Y-21031285D01*
X-7529571Y-21031285D01*
X-6029571Y-20245571D02*
X-6029571Y-21459857D01*
X-5958142Y-21602714D01*
X-5886714Y-21674142D01*
X-5743857Y-21745571D01*
X-5458142Y-21745571D01*
X-5315285Y-21674142D01*
X-5243857Y-21602714D01*
X-5172428Y-21459857D01*
X-5172428Y-20245571D01*
X-4672428Y-20245571D02*
X-3815285Y-20245571D01*
X-4243857Y-21745571D02*
X-4243857Y-20245571D01*
X-3315285Y-20959857D02*
X-2815285Y-20959857D01*
X-2601000Y-21745571D02*
X-3315285Y-21745571D01*
X-3315285Y-20245571D01*
X-2601000Y-20245571D01*
X-1101000Y-21745571D02*
X-1601000Y-21031285D01*
X-1958142Y-21745571D02*
X-1958142Y-20245571D01*
X-1386714Y-20245571D01*
X-1243857Y-20317000D01*
X-1172428Y-20388428D01*
X-1101000Y-20531285D01*
X-1101000Y-20745571D01*
X-1172428Y-20888428D01*
X-1243857Y-20959857D01*
X-1386714Y-21031285D01*
X-1958142Y-21031285D01*
X-529571Y-21674142D02*
X-315285Y-21745571D01*
X41857Y-21745571D01*
X184714Y-21674142D01*
X256142Y-21602714D01*
X327571Y-21459857D01*
X327571Y-21317000D01*
X256142Y-21174142D01*
X184714Y-21102714D01*
X41857Y-21031285D01*
X-243857Y-20959857D01*
X-386714Y-20888428D01*
X-458142Y-20817000D01*
X-529571Y-20674142D01*
X-529571Y-20531285D01*
X-458142Y-20388428D01*
X-386714Y-20317000D01*
X-243857Y-20245571D01*
X113285Y-20245571D01*
X327571Y-20317000D01*
X-18029571Y-23438428D02*
X-18172428Y-23367000D01*
X-18243857Y-23295571D01*
X-18315285Y-23152714D01*
X-18315285Y-23081285D01*
X-18243857Y-22938428D01*
X-18172428Y-22867000D01*
X-18029571Y-22795571D01*
X-17743857Y-22795571D01*
X-17601000Y-22867000D01*
X-17529571Y-22938428D01*
X-17458142Y-23081285D01*
X-17458142Y-23152714D01*
X-17529571Y-23295571D01*
X-17601000Y-23367000D01*
X-17743857Y-23438428D01*
X-18029571Y-23438428D01*
X-18172428Y-23509857D01*
X-18243857Y-23581285D01*
X-18315285Y-23724142D01*
X-18315285Y-24009857D01*
X-18243857Y-24152714D01*
X-18172428Y-24224142D01*
X-18029571Y-24295571D01*
X-17743857Y-24295571D01*
X-17601000Y-24224142D01*
X-17529571Y-24152714D01*
X-17458142Y-24009857D01*
X-17458142Y-23724142D01*
X-17529571Y-23581285D01*
X-17601000Y-23509857D01*
X-17743857Y-23438428D01*
X-16815285Y-23724142D02*
X-15672428Y-23724142D01*
X-14458142Y-23509857D02*
X-14243857Y-23581285D01*
X-14172428Y-23652714D01*
X-14101000Y-23795571D01*
X-14101000Y-24009857D01*
X-14172428Y-24152714D01*
X-14243857Y-24224142D01*
X-14386714Y-24295571D01*
X-14958142Y-24295571D01*
X-14958142Y-22795571D01*
X-14458142Y-22795571D01*
X-14315285Y-22867000D01*
X-14243857Y-22938428D01*
X-14172428Y-23081285D01*
X-14172428Y-23224142D01*
X-14243857Y-23367000D01*
X-14315285Y-23438428D01*
X-14458142Y-23509857D01*
X-14958142Y-23509857D01*
X-13458142Y-24295571D02*
X-13458142Y-22795571D01*
X-12958142Y-22795571D02*
X-12101000Y-22795571D01*
X-12529571Y-24295571D02*
X-12529571Y-22795571D01*
X-10458142Y-24295571D02*
X-10458142Y-22795571D01*
X-9958142Y-23867000D01*
X-9458142Y-22795571D01*
X-9458142Y-24295571D01*
X-8815285Y-23867000D02*
X-8101000Y-23867000D01*
X-8958142Y-24295571D02*
X-8458142Y-22795571D01*
X-7958142Y-24295571D01*
X-7458142Y-24295571D02*
X-7458142Y-22795571D01*
X-6743857Y-24295571D02*
X-6743857Y-22795571D01*
X-5886714Y-24295571D01*
X-5886714Y-22795571D01*
X-3529571Y-23509857D02*
X-3315285Y-23581285D01*
X-3243857Y-23652714D01*
X-3172428Y-23795571D01*
X-3172428Y-24009857D01*
X-3243857Y-24152714D01*
X-3315285Y-24224142D01*
X-3458142Y-24295571D01*
X-4029571Y-24295571D01*
X-4029571Y-22795571D01*
X-3529571Y-22795571D01*
X-3386714Y-22867000D01*
X-3315285Y-22938428D01*
X-3243857Y-23081285D01*
X-3243857Y-23224142D01*
X-3315285Y-23367000D01*
X-3386714Y-23438428D01*
X-3529571Y-23509857D01*
X-4029571Y-23509857D01*
X-2243857Y-22795571D02*
X-1958142Y-22795571D01*
X-1815285Y-22867000D01*
X-1672428Y-23009857D01*
X-1601000Y-23295571D01*
X-1601000Y-23795571D01*
X-1672428Y-24081285D01*
X-1815285Y-24224142D01*
X-1958142Y-24295571D01*
X-2243857Y-24295571D01*
X-2386714Y-24224142D01*
X-2529571Y-24081285D01*
X-2601000Y-23795571D01*
X-2601000Y-23295571D01*
X-2529571Y-23009857D01*
X-2386714Y-22867000D01*
X-2243857Y-22795571D01*
X-1029571Y-23867000D02*
X-315285Y-23867000D01*
X-1172428Y-24295571D02*
X-672428Y-22795571D01*
X-172428Y-24295571D01*
X1184714Y-24295571D02*
X684714Y-23581285D01*
X327571Y-24295571D02*
X327571Y-22795571D01*
X899000Y-22795571D01*
X1041857Y-22867000D01*
X1113285Y-22938428D01*
X1184714Y-23081285D01*
X1184714Y-23295571D01*
X1113285Y-23438428D01*
X1041857Y-23509857D01*
X899000Y-23581285D01*
X327571Y-23581285D01*
X1827571Y-24295571D02*
X1827571Y-22795571D01*
X2184714Y-22795571D01*
X2399000Y-22867000D01*
X2541857Y-23009857D01*
X2613285Y-23152714D01*
X2684714Y-23438428D01*
X2684714Y-23652714D01*
X2613285Y-23938428D01*
X2541857Y-24081285D01*
X2399000Y-24224142D01*
X2184714Y-24295571D01*
X1827571Y-24295571D01*
X-17386714Y-26702714D02*
X-17458142Y-26774142D01*
X-17672428Y-26845571D01*
X-17815285Y-26845571D01*
X-18029571Y-26774142D01*
X-18172428Y-26631285D01*
X-18243857Y-26488428D01*
X-18315285Y-26202714D01*
X-18315285Y-25988428D01*
X-18243857Y-25702714D01*
X-18172428Y-25559857D01*
X-18029571Y-25417000D01*
X-17815285Y-25345571D01*
X-17672428Y-25345571D01*
X-17458142Y-25417000D01*
X-17386714Y-25488428D01*
X-16529571Y-26845571D02*
X-16672428Y-26774142D01*
X-16743857Y-26702714D01*
X-16815285Y-26559857D01*
X-16815285Y-26131285D01*
X-16743857Y-25988428D01*
X-16672428Y-25917000D01*
X-16529571Y-25845571D01*
X-16315285Y-25845571D01*
X-16172428Y-25917000D01*
X-16101000Y-25988428D01*
X-16029571Y-26131285D01*
X-16029571Y-26559857D01*
X-16101000Y-26702714D01*
X-16172428Y-26774142D01*
X-16315285Y-26845571D01*
X-16529571Y-26845571D01*
X-15386714Y-25845571D02*
X-15386714Y-27345571D01*
X-15386714Y-25917000D02*
X-15243857Y-25845571D01*
X-14958142Y-25845571D01*
X-14815285Y-25917000D01*
X-14743857Y-25988428D01*
X-14672428Y-26131285D01*
X-14672428Y-26559857D01*
X-14743857Y-26702714D01*
X-14815285Y-26774142D01*
X-14958142Y-26845571D01*
X-15243857Y-26845571D01*
X-15386714Y-26774142D01*
X-14172428Y-25845571D02*
X-13815285Y-26845571D01*
X-13458142Y-25845571D02*
X-13815285Y-26845571D01*
X-13958142Y-27202714D01*
X-14029571Y-27274142D01*
X-14172428Y-27345571D01*
X-12886714Y-26845571D02*
X-12886714Y-25845571D01*
X-12886714Y-26131285D02*
X-12815285Y-25988428D01*
X-12743857Y-25917000D01*
X-12601000Y-25845571D01*
X-12458142Y-25845571D01*
X-11958142Y-26845571D02*
X-11958142Y-25845571D01*
X-11958142Y-25345571D02*
X-12029571Y-25417000D01*
X-11958142Y-25488428D01*
X-11886714Y-25417000D01*
X-11958142Y-25345571D01*
X-11958142Y-25488428D01*
X-10601000Y-25845571D02*
X-10601000Y-27059857D01*
X-10672428Y-27202714D01*
X-10743857Y-27274142D01*
X-10886714Y-27345571D01*
X-11101000Y-27345571D01*
X-11243857Y-27274142D01*
X-10601000Y-26774142D02*
X-10743857Y-26845571D01*
X-11029571Y-26845571D01*
X-11172428Y-26774142D01*
X-11243857Y-26702714D01*
X-11315285Y-26559857D01*
X-11315285Y-26131285D01*
X-11243857Y-25988428D01*
X-11172428Y-25917000D01*
X-11029571Y-25845571D01*
X-10743857Y-25845571D01*
X-10601000Y-25917000D01*
X-9886714Y-26845571D02*
X-9886714Y-25345571D01*
X-9243857Y-26845571D02*
X-9243857Y-26059857D01*
X-9315285Y-25917000D01*
X-9458142Y-25845571D01*
X-9672428Y-25845571D01*
X-9815285Y-25917000D01*
X-9886714Y-25988428D01*
X-8743857Y-25845571D02*
X-8172428Y-25845571D01*
X-8529571Y-25345571D02*
X-8529571Y-26631285D01*
X-8458142Y-26774142D01*
X-8315285Y-26845571D01*
X-8172428Y-26845571D01*
X-6101000Y-27417000D02*
X-6172428Y-27345571D01*
X-6315285Y-27131285D01*
X-6386714Y-26988428D01*
X-6458142Y-26774142D01*
X-6529571Y-26417000D01*
X-6529571Y-26131285D01*
X-6458142Y-25774142D01*
X-6386714Y-25559857D01*
X-6315285Y-25417000D01*
X-6172428Y-25202714D01*
X-6101000Y-25131285D01*
X-4672428Y-26702714D02*
X-4743857Y-26774142D01*
X-4958142Y-26845571D01*
X-5101000Y-26845571D01*
X-5315285Y-26774142D01*
X-5458142Y-26631285D01*
X-5529571Y-26488428D01*
X-5601000Y-26202714D01*
X-5601000Y-25988428D01*
X-5529571Y-25702714D01*
X-5458142Y-25559857D01*
X-5315285Y-25417000D01*
X-5101000Y-25345571D01*
X-4958142Y-25345571D01*
X-4743857Y-25417000D01*
X-4672428Y-25488428D01*
X-4172428Y-27417000D02*
X-4101000Y-27345571D01*
X-3958142Y-27131285D01*
X-3886714Y-26988428D01*
X-3815285Y-26774142D01*
X-3743857Y-26417000D01*
X-3743857Y-26131285D01*
X-3815285Y-25774142D01*
X-3886714Y-25559857D01*
X-3958142Y-25417000D01*
X-4101000Y-25202714D01*
X-4172428Y-25131285D01*
X-1958142Y-25488428D02*
X-1886714Y-25417000D01*
X-1743857Y-25345571D01*
X-1386714Y-25345571D01*
X-1243857Y-25417000D01*
X-1172428Y-25488428D01*
X-1101000Y-25631285D01*
X-1101000Y-25774142D01*
X-1172428Y-25988428D01*
X-2029571Y-26845571D01*
X-1101000Y-26845571D01*
X-172428Y-25345571D02*
X-29571Y-25345571D01*
X113285Y-25417000D01*
X184714Y-25488428D01*
X256142Y-25631285D01*
X327571Y-25917000D01*
X327571Y-26274142D01*
X256142Y-26559857D01*
X184714Y-26702714D01*
X113285Y-26774142D01*
X-29571Y-26845571D01*
X-172428Y-26845571D01*
X-315285Y-26774142D01*
X-386714Y-26702714D01*
X-458142Y-26559857D01*
X-529571Y-26274142D01*
X-529571Y-25917000D01*
X-458142Y-25631285D01*
X-386714Y-25488428D01*
X-315285Y-25417000D01*
X-172428Y-25345571D01*
X899000Y-25488428D02*
X970428Y-25417000D01*
X1113285Y-25345571D01*
X1470428Y-25345571D01*
X1613285Y-25417000D01*
X1684714Y-25488428D01*
X1756142Y-25631285D01*
X1756142Y-25774142D01*
X1684714Y-25988428D01*
X827571Y-26845571D01*
X1756142Y-26845571D01*
X3184714Y-26845571D02*
X2327571Y-26845571D01*
X2756142Y-26845571D02*
X2756142Y-25345571D01*
X2613285Y-25559857D01*
X2470428Y-25702714D01*
X2327571Y-25774142D01*
X4970428Y-26059857D02*
X5470428Y-26059857D01*
X5684714Y-26845571D02*
X4970428Y-26845571D01*
X4970428Y-25345571D01*
X5684714Y-25345571D01*
X6327571Y-26845571D02*
X6327571Y-25345571D01*
X6827571Y-26417000D01*
X7327571Y-25345571D01*
X7327571Y-26845571D01*
X8041857Y-26845571D02*
X8041857Y-25345571D01*
X8541857Y-26417000D01*
X9041857Y-25345571D01*
X9041857Y-26845571D01*
X-18386714Y-28395571D02*
X-18101000Y-29395571D01*
X-17815285Y-28681285D01*
X-17529571Y-29395571D01*
X-17243857Y-28395571D01*
X-16815285Y-28395571D02*
X-16529571Y-29395571D01*
X-16243857Y-28681285D01*
X-15958142Y-29395571D01*
X-15672428Y-28395571D01*
X-15243857Y-28395571D02*
X-14958142Y-29395571D01*
X-14672428Y-28681285D01*
X-14386714Y-29395571D01*
X-14101000Y-28395571D01*
X-13529571Y-29252714D02*
X-13458142Y-29324142D01*
X-13529571Y-29395571D01*
X-13601000Y-29324142D01*
X-13529571Y-29252714D01*
X-13529571Y-29395571D01*
X-12815285Y-29395571D02*
X-12815285Y-27895571D01*
X-12172428Y-29395571D02*
X-12172428Y-28609857D01*
X-12243857Y-28467000D01*
X-12386714Y-28395571D01*
X-12601000Y-28395571D01*
X-12743857Y-28467000D01*
X-12815285Y-28538428D01*
X-11243857Y-29395571D02*
X-11386714Y-29324142D01*
X-11458142Y-29252714D01*
X-11529571Y-29109857D01*
X-11529571Y-28681285D01*
X-11458142Y-28538428D01*
X-11386714Y-28467000D01*
X-11243857Y-28395571D01*
X-11029571Y-28395571D01*
X-10886714Y-28467000D01*
X-10815285Y-28538428D01*
X-10743857Y-28681285D01*
X-10743857Y-29109857D01*
X-10815285Y-29252714D01*
X-10886714Y-29324142D01*
X-11029571Y-29395571D01*
X-11243857Y-29395571D01*
X-10101000Y-29395571D02*
X-10101000Y-28395571D01*
X-10101000Y-28538428D02*
X-10029571Y-28467000D01*
X-9886714Y-28395571D01*
X-9672428Y-28395571D01*
X-9529571Y-28467000D01*
X-9458142Y-28609857D01*
X-9458142Y-29395571D01*
X-9458142Y-28609857D02*
X-9386714Y-28467000D01*
X-9243857Y-28395571D01*
X-9029571Y-28395571D01*
X-8886714Y-28467000D01*
X-8815285Y-28609857D01*
X-8815285Y-29395571D01*
X-7529571Y-29324142D02*
X-7672428Y-29395571D01*
X-7958142Y-29395571D01*
X-8101000Y-29324142D01*
X-8172428Y-29181285D01*
X-8172428Y-28609857D01*
X-8101000Y-28467000D01*
X-7958142Y-28395571D01*
X-7672428Y-28395571D01*
X-7529571Y-28467000D01*
X-7458142Y-28609857D01*
X-7458142Y-28752714D01*
X-8172428Y-28895571D01*
X-6815285Y-29395571D02*
X-6815285Y-27895571D01*
X-6815285Y-28467000D02*
X-6672428Y-28395571D01*
X-6386714Y-28395571D01*
X-6243857Y-28467000D01*
X-6172428Y-28538428D01*
X-6101000Y-28681285D01*
X-6101000Y-29109857D01*
X-6172428Y-29252714D01*
X-6243857Y-29324142D01*
X-6386714Y-29395571D01*
X-6672428Y-29395571D01*
X-6815285Y-29324142D01*
X-5458142Y-29395571D02*
X-5458142Y-28395571D01*
X-5458142Y-28681285D02*
X-5386714Y-28538428D01*
X-5315285Y-28467000D01*
X-5172428Y-28395571D01*
X-5029571Y-28395571D01*
X-3958142Y-29324142D02*
X-4101000Y-29395571D01*
X-4386714Y-29395571D01*
X-4529571Y-29324142D01*
X-4601000Y-29181285D01*
X-4601000Y-28609857D01*
X-4529571Y-28467000D01*
X-4386714Y-28395571D01*
X-4101000Y-28395571D01*
X-3958142Y-28467000D01*
X-3886714Y-28609857D01*
X-3886714Y-28752714D01*
X-4601000Y-28895571D01*
X-3386714Y-28395571D02*
X-3101000Y-29395571D01*
X-2815285Y-28681285D01*
X-2529571Y-29395571D01*
X-2243857Y-28395571D01*
X-1458142Y-28538428D02*
X-1601000Y-28467000D01*
X-1672428Y-28395571D01*
X-1743857Y-28252714D01*
X-1743857Y-28181285D01*
X-1672428Y-28038428D01*
X-1601000Y-27967000D01*
X-1458142Y-27895571D01*
X-1172428Y-27895571D01*
X-1029571Y-27967000D01*
X-958142Y-28038428D01*
X-886714Y-28181285D01*
X-886714Y-28252714D01*
X-958142Y-28395571D01*
X-1029571Y-28467000D01*
X-1172428Y-28538428D01*
X-1458142Y-28538428D01*
X-1601000Y-28609857D01*
X-1672428Y-28681285D01*
X-1743857Y-28824142D01*
X-1743857Y-29109857D01*
X-1672428Y-29252714D01*
X-1601000Y-29324142D01*
X-1458142Y-29395571D01*
X-1172428Y-29395571D01*
X-1029571Y-29324142D01*
X-958142Y-29252714D01*
X-886714Y-29109857D01*
X-886714Y-28824142D01*
X-958142Y-28681285D01*
X-1029571Y-28609857D01*
X-1172428Y-28538428D01*
X41857Y-27895571D02*
X184714Y-27895571D01*
X327571Y-27967000D01*
X398999Y-28038428D01*
X470428Y-28181285D01*
X541857Y-28467000D01*
X541857Y-28824142D01*
X470428Y-29109857D01*
X398999Y-29252714D01*
X327571Y-29324142D01*
X184714Y-29395571D01*
X41857Y-29395571D01*
X-101000Y-29324142D01*
X-172428Y-29252714D01*
X-243857Y-29109857D01*
X-315285Y-28824142D01*
X-315285Y-28467000D01*
X-243857Y-28181285D01*
X-172428Y-28038428D01*
X-101000Y-27967000D01*
X41857Y-27895571D01*
X1398999Y-28538428D02*
X1256142Y-28467000D01*
X1184714Y-28395571D01*
X1113285Y-28252714D01*
X1113285Y-28181285D01*
X1184714Y-28038428D01*
X1256142Y-27967000D01*
X1398999Y-27895571D01*
X1684714Y-27895571D01*
X1827571Y-27967000D01*
X1898999Y-28038428D01*
X1970428Y-28181285D01*
X1970428Y-28252714D01*
X1898999Y-28395571D01*
X1827571Y-28467000D01*
X1684714Y-28538428D01*
X1398999Y-28538428D01*
X1256142Y-28609857D01*
X1184714Y-28681285D01*
X1113285Y-28824142D01*
X1113285Y-29109857D01*
X1184714Y-29252714D01*
X1256142Y-29324142D01*
X1398999Y-29395571D01*
X1684714Y-29395571D01*
X1827571Y-29324142D01*
X1898999Y-29252714D01*
X1970428Y-29109857D01*
X1970428Y-28824142D01*
X1898999Y-28681285D01*
X1827571Y-28609857D01*
X1684714Y-28538428D01*
X2827571Y-28538428D02*
X2684714Y-28467000D01*
X2613285Y-28395571D01*
X2541857Y-28252714D01*
X2541857Y-28181285D01*
X2613285Y-28038428D01*
X2684714Y-27967000D01*
X2827571Y-27895571D01*
X3113285Y-27895571D01*
X3256142Y-27967000D01*
X3327571Y-28038428D01*
X3398999Y-28181285D01*
X3398999Y-28252714D01*
X3327571Y-28395571D01*
X3256142Y-28467000D01*
X3113285Y-28538428D01*
X2827571Y-28538428D01*
X2684714Y-28609857D01*
X2613285Y-28681285D01*
X2541857Y-28824142D01*
X2541857Y-29109857D01*
X2613285Y-29252714D01*
X2684714Y-29324142D01*
X2827571Y-29395571D01*
X3113285Y-29395571D01*
X3256142Y-29324142D01*
X3327571Y-29252714D01*
X3398999Y-29109857D01*
X3398999Y-28824142D01*
X3327571Y-28681285D01*
X3256142Y-28609857D01*
X3113285Y-28538428D01*
X4041857Y-29252714D02*
X4113285Y-29324142D01*
X4041857Y-29395571D01*
X3970428Y-29324142D01*
X4041857Y-29252714D01*
X4041857Y-29395571D01*
X5398999Y-29324142D02*
X5256142Y-29395571D01*
X4970428Y-29395571D01*
X4827571Y-29324142D01*
X4756142Y-29252714D01*
X4684714Y-29109857D01*
X4684714Y-28681285D01*
X4756142Y-28538428D01*
X4827571Y-28467000D01*
X4970428Y-28395571D01*
X5256142Y-28395571D01*
X5398999Y-28467000D01*
X6256142Y-29395571D02*
X6113285Y-29324142D01*
X6041857Y-29252714D01*
X5970428Y-29109857D01*
X5970428Y-28681285D01*
X6041857Y-28538428D01*
X6113285Y-28467000D01*
X6256142Y-28395571D01*
X6470428Y-28395571D01*
X6613285Y-28467000D01*
X6684714Y-28538428D01*
X6756142Y-28681285D01*
X6756142Y-29109857D01*
X6684714Y-29252714D01*
X6613285Y-29324142D01*
X6470428Y-29395571D01*
X6256142Y-29395571D01*
X7399000Y-29395571D02*
X7399000Y-28395571D01*
X7399000Y-28538428D02*
X7470428Y-28467000D01*
X7613285Y-28395571D01*
X7827571Y-28395571D01*
X7970428Y-28467000D01*
X8041857Y-28609857D01*
X8041857Y-29395571D01*
X8041857Y-28609857D02*
X8113285Y-28467000D01*
X8256142Y-28395571D01*
X8470428Y-28395571D01*
X8613285Y-28467000D01*
X8684714Y-28609857D01*
X8684714Y-29395571D01*
D13*
G04 #@! TO.C,U2*
X106696000Y-42612000D02*
X105046000Y-42612000D01*
X105046000Y-42612000D02*
X105046000Y-68132000D01*
X105046000Y-68132000D02*
X110346000Y-68132000D01*
X110346000Y-68132000D02*
X110346000Y-42612000D01*
X110346000Y-42612000D02*
X108696000Y-42612000D01*
X108696000Y-42612000D02*
G75*
G02*
X106696000Y-42612000I-1000000J0D01*
G01*
G04 #@! TO.C,U1*
X114316000Y-156912000D02*
X112666000Y-156912000D01*
X112666000Y-156912000D02*
X112666000Y-177352000D01*
X112666000Y-177352000D02*
X117966000Y-177352000D01*
X117966000Y-177352000D02*
X117966000Y-156912000D01*
X117966000Y-156912000D02*
X116316000Y-156912000D01*
X116316000Y-156912000D02*
G75*
G02*
X114316000Y-156912000I-1000000J0D01*
G01*
G04 #@! TO.C,C19*
X106736000Y-39570000D02*
X111276000Y-39570000D01*
X106736000Y-41710000D02*
X111276000Y-41710000D01*
X106736000Y-39570000D02*
X106736000Y-39585000D01*
X106736000Y-41695000D02*
X106736000Y-41710000D01*
X111276000Y-39570000D02*
X111276000Y-39585000D01*
X111276000Y-41695000D02*
X111276000Y-41710000D01*
G04 #@! TO.C,C18*
X114356000Y-153870000D02*
X118896000Y-153870000D01*
X114356000Y-156010000D02*
X118896000Y-156010000D01*
X114356000Y-153870000D02*
X114356000Y-153885000D01*
X114356000Y-155995000D02*
X114356000Y-156010000D01*
X118896000Y-153870000D02*
X118896000Y-153885000D01*
X118896000Y-155995000D02*
X118896000Y-156010000D01*
G04 #@! TO.C,RN3*
X125860000Y-130132000D02*
X123060000Y-130132000D01*
X123060000Y-130132000D02*
X123060000Y-140632000D01*
X123060000Y-140632000D02*
X125860000Y-140632000D01*
X125860000Y-140632000D02*
X125860000Y-130132000D01*
X125860000Y-132842000D02*
X123060000Y-132842000D01*
G04 #@! TO.C,C17*
X-3087000Y-49474000D02*
X-3102000Y-49474000D01*
X-962000Y-49474000D02*
X-977000Y-49474000D01*
X-3087000Y-44934000D02*
X-3102000Y-44934000D01*
X-962000Y-44934000D02*
X-977000Y-44934000D01*
X-3102000Y-44934000D02*
X-3102000Y-49474000D01*
X-962000Y-44934000D02*
X-962000Y-49474000D01*
G04 #@! TO.C,C16*
X-977000Y-115800000D02*
X-962000Y-115800000D01*
X-3102000Y-115800000D02*
X-3087000Y-115800000D01*
X-977000Y-120340000D02*
X-962000Y-120340000D01*
X-3102000Y-120340000D02*
X-3087000Y-120340000D01*
X-962000Y-120340000D02*
X-962000Y-115800000D01*
X-3102000Y-120340000D02*
X-3102000Y-115800000D01*
G04 #@! TO.C,C15*
X-23407000Y-49474000D02*
X-23422000Y-49474000D01*
X-21282000Y-49474000D02*
X-21297000Y-49474000D01*
X-23407000Y-44934000D02*
X-23422000Y-44934000D01*
X-21282000Y-44934000D02*
X-21297000Y-44934000D01*
X-23422000Y-44934000D02*
X-23422000Y-49474000D01*
X-21282000Y-44934000D02*
X-21282000Y-49474000D01*
G04 #@! TO.C,C14*
X19343000Y-115800000D02*
X19358000Y-115800000D01*
X17218000Y-115800000D02*
X17233000Y-115800000D01*
X19343000Y-120340000D02*
X19358000Y-120340000D01*
X17218000Y-120340000D02*
X17233000Y-120340000D01*
X19358000Y-120340000D02*
X19358000Y-115800000D01*
X17218000Y-120340000D02*
X17218000Y-115800000D01*
G04 #@! TO.C,C13*
X17233000Y-49474000D02*
X17218000Y-49474000D01*
X19358000Y-49474000D02*
X19343000Y-49474000D01*
X17233000Y-44934000D02*
X17218000Y-44934000D01*
X19358000Y-44934000D02*
X19343000Y-44934000D01*
X17218000Y-44934000D02*
X17218000Y-49474000D01*
X19358000Y-44934000D02*
X19358000Y-49474000D01*
G04 #@! TO.C,C11*
X-21297000Y-115800000D02*
X-21282000Y-115800000D01*
X-23422000Y-115800000D02*
X-23407000Y-115800000D01*
X-21297000Y-120340000D02*
X-21282000Y-120340000D01*
X-23422000Y-120340000D02*
X-23407000Y-120340000D01*
X-21282000Y-120340000D02*
X-21282000Y-115800000D01*
X-23422000Y-120340000D02*
X-23422000Y-115800000D01*
G04 #@! TO.C,C27*
X-32566000Y-120340000D02*
X-32566000Y-115800000D01*
X-30426000Y-120340000D02*
X-30426000Y-115800000D01*
X-32566000Y-120340000D02*
X-32551000Y-120340000D01*
X-30441000Y-120340000D02*
X-30426000Y-120340000D01*
X-32566000Y-115800000D02*
X-32551000Y-115800000D01*
X-30441000Y-115800000D02*
X-30426000Y-115800000D01*
G04 #@! TO.C,J14*
X-254000Y-42672000D02*
X-254000Y-121412000D01*
X7366000Y-42672000D02*
X-254000Y-42672000D01*
X7366000Y-121412000D02*
X7366000Y-42672000D01*
X-254000Y-121412000D02*
X7366000Y-121412000D01*
G04 #@! TO.C,J13*
X-20574000Y-42672000D02*
X-20574000Y-121412000D01*
X-12954000Y-42672000D02*
X-20574000Y-42672000D01*
X-12954000Y-121412000D02*
X-12954000Y-42672000D01*
X-20574000Y-121412000D02*
X-12954000Y-121412000D01*
G04 #@! TO.C,J12*
X-40894000Y-42672000D02*
X-40894000Y-121412000D01*
X-33274000Y-42672000D02*
X-40894000Y-42672000D01*
X-33274000Y-121412000D02*
X-33274000Y-42672000D01*
X-40894000Y-121412000D02*
X-33274000Y-121412000D01*
G04 #@! TO.C,J11*
X68326000Y-149352000D02*
X68326000Y-129032000D01*
X60706000Y-149352000D02*
X60706000Y-129032000D01*
X68326000Y-129032000D02*
X60706000Y-129032000D01*
X60706000Y-149352000D02*
X68326000Y-149352000D01*
G04 #@! TO.C,RN1*
X30988000Y-30604000D02*
X30988000Y-33404000D01*
X38778000Y-30604000D02*
X28278000Y-30604000D01*
X38778000Y-33404000D02*
X38778000Y-30604000D01*
X28278000Y-33404000D02*
X38778000Y-33404000D01*
X28278000Y-30604000D02*
X28278000Y-33404000D01*
G04 #@! TO.C,R13*
X117634000Y-99976000D02*
X117634000Y-102716000D01*
X117634000Y-102716000D02*
X124174000Y-102716000D01*
X124174000Y-102716000D02*
X124174000Y-99976000D01*
X124174000Y-99976000D02*
X117634000Y-99976000D01*
X116864000Y-101346000D02*
X117634000Y-101346000D01*
X124944000Y-101346000D02*
X124174000Y-101346000D01*
G04 #@! TO.C,R12*
X117634000Y-96928000D02*
X117634000Y-99668000D01*
X117634000Y-99668000D02*
X124174000Y-99668000D01*
X124174000Y-99668000D02*
X124174000Y-96928000D01*
X124174000Y-96928000D02*
X117634000Y-96928000D01*
X116864000Y-98298000D02*
X117634000Y-98298000D01*
X124944000Y-98298000D02*
X124174000Y-98298000D01*
G04 #@! TO.C,RN2*
X63246000Y-30604000D02*
X63246000Y-33404000D01*
X83736000Y-30604000D02*
X60536000Y-30604000D01*
X83736000Y-33404000D02*
X83736000Y-30604000D01*
X60536000Y-33404000D02*
X83736000Y-33404000D01*
X60536000Y-30604000D02*
X60536000Y-33404000D01*
G04 #@! TO.C,R9*
X121190000Y-34670000D02*
X121190000Y-37410000D01*
X121190000Y-37410000D02*
X127730000Y-37410000D01*
X127730000Y-37410000D02*
X127730000Y-34670000D01*
X127730000Y-34670000D02*
X121190000Y-34670000D01*
X120420000Y-36040000D02*
X121190000Y-36040000D01*
X128500000Y-36040000D02*
X127730000Y-36040000D01*
G04 #@! TO.C,R8*
X121190000Y-31650000D02*
X121190000Y-34390000D01*
X121190000Y-34390000D02*
X127730000Y-34390000D01*
X127730000Y-34390000D02*
X127730000Y-31650000D01*
X127730000Y-31650000D02*
X121190000Y-31650000D01*
X120420000Y-33020000D02*
X121190000Y-33020000D01*
X128500000Y-33020000D02*
X127730000Y-33020000D01*
G04 #@! TO.C,R7*
X125190000Y-148944000D02*
X125190000Y-146204000D01*
X125190000Y-146204000D02*
X118650000Y-146204000D01*
X118650000Y-146204000D02*
X118650000Y-148944000D01*
X118650000Y-148944000D02*
X125190000Y-148944000D01*
X125960000Y-147574000D02*
X125190000Y-147574000D01*
X117880000Y-147574000D02*
X118650000Y-147574000D01*
G04 #@! TO.C,R6*
X29110000Y-143986000D02*
X31850000Y-143986000D01*
X31850000Y-143986000D02*
X31850000Y-137446000D01*
X31850000Y-137446000D02*
X29110000Y-137446000D01*
X29110000Y-137446000D02*
X29110000Y-143986000D01*
X30480000Y-144756000D02*
X30480000Y-143986000D01*
X30480000Y-136676000D02*
X30480000Y-137446000D01*
G04 #@! TO.C,C10*
X129247000Y-79192000D02*
X129232000Y-79192000D01*
X131372000Y-79192000D02*
X131357000Y-79192000D01*
X129247000Y-74652000D02*
X129232000Y-74652000D01*
X131372000Y-74652000D02*
X131357000Y-74652000D01*
X129232000Y-74652000D02*
X129232000Y-79192000D01*
X131372000Y-74652000D02*
X131372000Y-79192000D01*
G04 #@! TO.C,C9*
X126040000Y-37792000D02*
X130580000Y-37792000D01*
X126040000Y-39932000D02*
X130580000Y-39932000D01*
X126040000Y-37792000D02*
X126040000Y-37807000D01*
X126040000Y-39917000D02*
X126040000Y-39932000D01*
X130580000Y-37792000D02*
X130580000Y-37807000D01*
X130580000Y-39917000D02*
X130580000Y-39932000D01*
G04 #@! TO.C,R4*
X44042000Y-168688000D02*
X41302000Y-168688000D01*
X41302000Y-168688000D02*
X41302000Y-175228000D01*
X41302000Y-175228000D02*
X44042000Y-175228000D01*
X44042000Y-175228000D02*
X44042000Y-168688000D01*
X42672000Y-167918000D02*
X42672000Y-168688000D01*
X42672000Y-175998000D02*
X42672000Y-175228000D01*
G04 #@! TO.C,R2*
X47090000Y-168688000D02*
X44350000Y-168688000D01*
X44350000Y-168688000D02*
X44350000Y-175228000D01*
X44350000Y-175228000D02*
X47090000Y-175228000D01*
X47090000Y-175228000D02*
X47090000Y-168688000D01*
X45720000Y-167918000D02*
X45720000Y-168688000D01*
X45720000Y-175998000D02*
X45720000Y-175228000D01*
G04 #@! TO.C,R18*
X27532000Y-157258000D02*
X24792000Y-157258000D01*
X24792000Y-157258000D02*
X24792000Y-163798000D01*
X24792000Y-163798000D02*
X27532000Y-163798000D01*
X27532000Y-163798000D02*
X27532000Y-157258000D01*
X26162000Y-156488000D02*
X26162000Y-157258000D01*
X26162000Y-164568000D02*
X26162000Y-163798000D01*
G04 #@! TO.C,R17*
X64362000Y-162592000D02*
X61622000Y-162592000D01*
X61622000Y-162592000D02*
X61622000Y-169132000D01*
X61622000Y-169132000D02*
X64362000Y-169132000D01*
X64362000Y-169132000D02*
X64362000Y-162592000D01*
X62992000Y-161822000D02*
X62992000Y-162592000D01*
X62992000Y-169902000D02*
X62992000Y-169132000D01*
G04 #@! TO.C,R14*
X24484000Y-157258000D02*
X21744000Y-157258000D01*
X21744000Y-157258000D02*
X21744000Y-163798000D01*
X21744000Y-163798000D02*
X24484000Y-163798000D01*
X24484000Y-163798000D02*
X24484000Y-157258000D01*
X23114000Y-156488000D02*
X23114000Y-157258000D01*
X23114000Y-164568000D02*
X23114000Y-163798000D01*
G04 #@! TO.C,R5*
X118650000Y-143156000D02*
X118650000Y-145896000D01*
X118650000Y-145896000D02*
X125190000Y-145896000D01*
X125190000Y-145896000D02*
X125190000Y-143156000D01*
X125190000Y-143156000D02*
X118650000Y-143156000D01*
X117880000Y-144526000D02*
X118650000Y-144526000D01*
X125960000Y-144526000D02*
X125190000Y-144526000D01*
G04 #@! TO.C,R3*
X67410000Y-162592000D02*
X64670000Y-162592000D01*
X64670000Y-162592000D02*
X64670000Y-169132000D01*
X64670000Y-169132000D02*
X67410000Y-169132000D01*
X67410000Y-169132000D02*
X67410000Y-162592000D01*
X66040000Y-161822000D02*
X66040000Y-162592000D01*
X66040000Y-169902000D02*
X66040000Y-169132000D01*
G04 #@! TO.C,U3*
X84582000Y-168680000D02*
X84582000Y-169450000D01*
X84582000Y-176760000D02*
X84582000Y-175990000D01*
X83212000Y-169450000D02*
X83212000Y-175990000D01*
X85952000Y-169450000D02*
X83212000Y-169450000D01*
X85952000Y-175990000D02*
X85952000Y-169450000D01*
X83212000Y-175990000D02*
X85952000Y-175990000D01*
G04 #@! TO.C,J6*
X124654000Y-170882000D02*
X125984000Y-170882000D01*
X124654000Y-172212000D02*
X124654000Y-170882000D01*
X124654000Y-173482000D02*
X127314000Y-173482000D01*
X127314000Y-173482000D02*
X127314000Y-176082000D01*
X124654000Y-173482000D02*
X124654000Y-176082000D01*
X124654000Y-176082000D02*
X127314000Y-176082000D01*
G04 #@! TO.C,J3*
X119066000Y-187512000D02*
X119066000Y-186182000D01*
X120396000Y-187512000D02*
X119066000Y-187512000D01*
X121666000Y-187512000D02*
X121666000Y-184852000D01*
X121666000Y-184852000D02*
X129346000Y-184852000D01*
X121666000Y-187512000D02*
X129346000Y-187512000D01*
X129346000Y-187512000D02*
X129346000Y-184852000D01*
G04 #@! TO.C,C1*
X101116000Y-74715000D02*
X101116000Y-74730000D01*
X101116000Y-72590000D02*
X101116000Y-72605000D01*
X96576000Y-74715000D02*
X96576000Y-74730000D01*
X96576000Y-72590000D02*
X96576000Y-72605000D01*
X96576000Y-74730000D02*
X101116000Y-74730000D01*
X96576000Y-72590000D02*
X101116000Y-72590000D01*
G04 #@! TO.C,U117*
X77326000Y-156912000D02*
X75676000Y-156912000D01*
X77326000Y-177352000D02*
X77326000Y-156912000D01*
X72026000Y-177352000D02*
X77326000Y-177352000D01*
X72026000Y-156912000D02*
X72026000Y-177352000D01*
X73676000Y-156912000D02*
X72026000Y-156912000D01*
X75676000Y-156912000D02*
G75*
G02*
X73676000Y-156912000I-1000000J0D01*
G01*
G04 #@! TO.C,J10*
X88646000Y-149352000D02*
X88646000Y-129032000D01*
X81026000Y-149352000D02*
X81026000Y-129032000D01*
X88646000Y-129032000D02*
X81026000Y-129032000D01*
X81026000Y-149352000D02*
X88646000Y-149352000D01*
G04 #@! TO.C,SW1*
X139084000Y-162258000D02*
X139084000Y-160758000D01*
X137834000Y-158258000D02*
X133334000Y-158258000D01*
X132084000Y-160758000D02*
X132084000Y-162258000D01*
X133334000Y-164758000D02*
X137834000Y-164758000D01*
G04 #@! TO.C,R1*
X116864000Y-106172000D02*
X117634000Y-106172000D01*
X124944000Y-106172000D02*
X124174000Y-106172000D01*
X117634000Y-107542000D02*
X124174000Y-107542000D01*
X117634000Y-104802000D02*
X117634000Y-107542000D01*
X124174000Y-104802000D02*
X117634000Y-104802000D01*
X124174000Y-107542000D02*
X124174000Y-104802000D01*
G04 #@! TO.C,D1*
X122364000Y-109184000D02*
X122208000Y-109184000D01*
X124680000Y-109184000D02*
X124524000Y-109184000D01*
X122364163Y-111785130D02*
G75*
G02*
X122364000Y-109703039I1079837J1041130D01*
G01*
X124523837Y-111785130D02*
G75*
G03*
X124524000Y-109703039I-1079837J1041130D01*
G01*
X122365392Y-112416335D02*
G75*
G02*
X122208484Y-109184000I1078608J1672335D01*
G01*
X124522608Y-112416335D02*
G75*
G03*
X124679516Y-109184000I-1078608J1672335D01*
G01*
G04 #@! TO.C,C7*
X101116000Y-41695000D02*
X101116000Y-41710000D01*
X101116000Y-39570000D02*
X101116000Y-39585000D01*
X96576000Y-41695000D02*
X96576000Y-41710000D01*
X96576000Y-39570000D02*
X96576000Y-39585000D01*
X96576000Y-41710000D02*
X101116000Y-41710000D01*
X96576000Y-39570000D02*
X101116000Y-39570000D01*
G04 #@! TO.C,8x8mm1*
X139700000Y-176610000D02*
X131064000Y-176610000D01*
X131064000Y-167974000D02*
X139700000Y-167974000D01*
X139700000Y-167974000D02*
X139700000Y-176610000D01*
X131064000Y-167974000D02*
X131064000Y-176610000D01*
G04 #@! TO.C,ATXPOWER1*
X135382000Y-111252000D02*
X129540000Y-111252000D01*
X133636000Y-153152000D02*
X141886000Y-153152000D01*
X133636000Y-152902000D02*
X133636000Y-153152000D01*
X133636000Y-102902000D02*
X133636000Y-152902000D01*
X141886000Y-152902000D02*
X141886000Y-153152000D01*
X141886000Y-102902000D02*
X141886000Y-152902000D01*
X133636000Y-102902000D02*
X141886000Y-102902000D01*
G04 #@! TO.C,C29*
X37538000Y-120340000D02*
X37538000Y-115800000D01*
X39678000Y-120340000D02*
X39678000Y-115800000D01*
X37538000Y-120340000D02*
X37553000Y-120340000D01*
X39663000Y-120340000D02*
X39678000Y-120340000D01*
X37538000Y-115800000D02*
X37553000Y-115800000D01*
X39663000Y-115800000D02*
X39678000Y-115800000D01*
G04 #@! TO.C,C28*
X57858000Y-120340000D02*
X57858000Y-115800000D01*
X59998000Y-120340000D02*
X59998000Y-115800000D01*
X57858000Y-120340000D02*
X57873000Y-120340000D01*
X59983000Y-120340000D02*
X59998000Y-120340000D01*
X57858000Y-115800000D02*
X57873000Y-115800000D01*
X59983000Y-115800000D02*
X59998000Y-115800000D01*
G04 #@! TO.C,C26*
X78178000Y-120340000D02*
X78178000Y-115800000D01*
X80318000Y-120340000D02*
X80318000Y-115800000D01*
X78178000Y-120340000D02*
X78193000Y-120340000D01*
X80303000Y-120340000D02*
X80318000Y-120340000D01*
X78178000Y-115800000D02*
X78193000Y-115800000D01*
X80303000Y-115800000D02*
X80318000Y-115800000D01*
G04 #@! TO.C,C25*
X39678000Y-44934000D02*
X39678000Y-49474000D01*
X37538000Y-44934000D02*
X37538000Y-49474000D01*
X39678000Y-44934000D02*
X39663000Y-44934000D01*
X37553000Y-44934000D02*
X37538000Y-44934000D01*
X39678000Y-49474000D02*
X39663000Y-49474000D01*
X37553000Y-49474000D02*
X37538000Y-49474000D01*
G04 #@! TO.C,C24*
X-30426000Y-44934000D02*
X-30426000Y-49474000D01*
X-32566000Y-44934000D02*
X-32566000Y-49474000D01*
X-30426000Y-44934000D02*
X-30441000Y-44934000D01*
X-32551000Y-44934000D02*
X-32566000Y-44934000D01*
X-30426000Y-49474000D02*
X-30441000Y-49474000D01*
X-32551000Y-49474000D02*
X-32566000Y-49474000D01*
G04 #@! TO.C,C23*
X80318000Y-44934000D02*
X80318000Y-49474000D01*
X78178000Y-44934000D02*
X78178000Y-49474000D01*
X80318000Y-44934000D02*
X80303000Y-44934000D01*
X78193000Y-44934000D02*
X78178000Y-44934000D01*
X80318000Y-49474000D02*
X80303000Y-49474000D01*
X78193000Y-49474000D02*
X78178000Y-49474000D01*
G04 #@! TO.C,C22*
X59998000Y-44934000D02*
X59998000Y-49474000D01*
X57858000Y-44934000D02*
X57858000Y-49474000D01*
X59998000Y-44934000D02*
X59983000Y-44934000D01*
X57873000Y-44934000D02*
X57858000Y-44934000D01*
X59998000Y-49474000D02*
X59983000Y-49474000D01*
X57873000Y-49474000D02*
X57858000Y-49474000D01*
G04 #@! TO.C,J2*
X125425200Y-18669000D02*
X132181600Y-18669000D01*
X132181600Y-18669000D02*
X138938000Y-18669000D01*
X125425200Y-18669000D02*
X125425200Y-31470600D01*
X138938000Y-18669000D02*
X138938000Y-31470600D01*
X125425200Y-31470600D02*
X138938000Y-31470600D01*
G04 #@! TO.C,U17*
X97646000Y-156912000D02*
X95996000Y-156912000D01*
X97646000Y-177352000D02*
X97646000Y-156912000D01*
X92346000Y-177352000D02*
X97646000Y-177352000D01*
X92346000Y-156912000D02*
X92346000Y-177352000D01*
X93996000Y-156912000D02*
X92346000Y-156912000D01*
X95996000Y-156912000D02*
G75*
G02*
X93996000Y-156912000I-1000000J0D01*
G01*
G04 #@! TO.C,CH376*
X138236000Y-73092000D02*
X133036000Y-73092000D01*
X138236000Y-90932000D02*
X138236000Y-73092000D01*
X133036000Y-93532000D02*
X133036000Y-73092000D01*
X138236000Y-90932000D02*
X135636000Y-90932000D01*
X135636000Y-90932000D02*
X135636000Y-93532000D01*
X135636000Y-93532000D02*
X133036000Y-93532000D01*
X138236000Y-92202000D02*
X138236000Y-93532000D01*
X138236000Y-93532000D02*
X136906000Y-93532000D01*
G04 #@! TO.C,U9*
X-7604000Y-154372000D02*
X-9254000Y-154372000D01*
X-9254000Y-154372000D02*
X-9254000Y-174812000D01*
X-9254000Y-174812000D02*
X-3954000Y-174812000D01*
X-3954000Y-174812000D02*
X-3954000Y-154372000D01*
X-3954000Y-154372000D02*
X-5604000Y-154372000D01*
X-5604000Y-154372000D02*
G75*
G02*
X-7604000Y-154372000I-1000000J0D01*
G01*
G04 #@! TO.C,U11*
X36686000Y-154372000D02*
X35036000Y-154372000D01*
X36686000Y-177352000D02*
X36686000Y-154372000D01*
X31386000Y-177352000D02*
X36686000Y-177352000D01*
X31386000Y-154372000D02*
X31386000Y-177352000D01*
X33036000Y-154372000D02*
X31386000Y-154372000D01*
X35036000Y-154372000D02*
G75*
G02*
X33036000Y-154372000I-1000000J0D01*
G01*
G04 #@! TO.C,U12*
X16366000Y-154372000D02*
X14716000Y-154372000D01*
X16366000Y-174812000D02*
X16366000Y-154372000D01*
X11066000Y-174812000D02*
X16366000Y-174812000D01*
X11066000Y-154372000D02*
X11066000Y-174812000D01*
X12716000Y-154372000D02*
X11066000Y-154372000D01*
X14716000Y-154372000D02*
G75*
G02*
X12716000Y-154372000I-1000000J0D01*
G01*
G04 #@! TO.C,U13*
X57006000Y-128972000D02*
X55356000Y-128972000D01*
X57006000Y-149412000D02*
X57006000Y-128972000D01*
X51706000Y-149412000D02*
X57006000Y-149412000D01*
X51706000Y-128972000D02*
X51706000Y-149412000D01*
X53356000Y-128972000D02*
X51706000Y-128972000D01*
X55356000Y-128972000D02*
G75*
G02*
X53356000Y-128972000I-1000000J0D01*
G01*
G04 #@! TO.C,U14*
X57006000Y-156912000D02*
X55356000Y-156912000D01*
X57006000Y-174812000D02*
X57006000Y-156912000D01*
X51706000Y-174812000D02*
X57006000Y-174812000D01*
X51706000Y-156912000D02*
X51706000Y-174812000D01*
X53356000Y-156912000D02*
X51706000Y-156912000D01*
X55356000Y-156912000D02*
G75*
G02*
X53356000Y-156912000I-1000000J0D01*
G01*
G04 #@! TO.C,U15*
X100186000Y-42612000D02*
X98536000Y-42612000D01*
X100186000Y-68132000D02*
X100186000Y-42612000D01*
X94886000Y-68132000D02*
X100186000Y-68132000D01*
X94886000Y-42612000D02*
X94886000Y-68132000D01*
X96536000Y-42612000D02*
X94886000Y-42612000D01*
X98536000Y-42612000D02*
G75*
G02*
X96536000Y-42612000I-1000000J0D01*
G01*
G04 #@! TO.C,U16*
X97646000Y-128972000D02*
X95996000Y-128972000D01*
X97646000Y-146872000D02*
X97646000Y-128972000D01*
X92346000Y-146872000D02*
X97646000Y-146872000D01*
X92346000Y-128972000D02*
X92346000Y-146872000D01*
X93996000Y-128972000D02*
X92346000Y-128972000D01*
X95996000Y-128972000D02*
G75*
G02*
X93996000Y-128972000I-1000000J0D01*
G01*
G04 #@! TO.C,Y2*
X46721000Y-162219000D02*
X46721000Y-155969000D01*
X41671000Y-162219000D02*
X41671000Y-155969000D01*
X46721000Y-162219000D02*
G75*
G02*
X41671000Y-162219000I-2525000J0D01*
G01*
X46721000Y-155969000D02*
G75*
G03*
X41671000Y-155969000I-2525000J0D01*
G01*
G04 #@! TO.C,J1*
X20066000Y-42672000D02*
X20066000Y-121412000D01*
X27686000Y-42672000D02*
X20066000Y-42672000D01*
X27686000Y-121412000D02*
X27686000Y-42672000D01*
X20066000Y-121412000D02*
X27686000Y-121412000D01*
G04 #@! TO.C,J7*
X40386000Y-121412000D02*
X48006000Y-121412000D01*
X48006000Y-121412000D02*
X48006000Y-42672000D01*
X48006000Y-42672000D02*
X40386000Y-42672000D01*
X40386000Y-42672000D02*
X40386000Y-121412000D01*
G04 #@! TO.C,J8*
X60706000Y-42672000D02*
X60706000Y-121412000D01*
X68326000Y-42672000D02*
X60706000Y-42672000D01*
X68326000Y-121412000D02*
X68326000Y-42672000D01*
X60706000Y-121412000D02*
X68326000Y-121412000D01*
G04 #@! TO.C,J9*
X81026000Y-121412000D02*
X88646000Y-121412000D01*
X88646000Y-121412000D02*
X88646000Y-42672000D01*
X88646000Y-42672000D02*
X81026000Y-42672000D01*
X81026000Y-42672000D02*
X81026000Y-121412000D01*
G04 #@! TO.C,U19*
X141390000Y-40982000D02*
X130540000Y-40982000D01*
X141390000Y-64682000D02*
X141390000Y-40982000D01*
X117690000Y-64682000D02*
X141390000Y-64682000D01*
X117690000Y-41982000D02*
X117690000Y-64682000D01*
X118690000Y-40982000D02*
X117690000Y-41982000D01*
X128540000Y-40982000D02*
X118690000Y-40982000D01*
G04 #@! TO.C,U20*
X96536000Y-75632000D02*
X94886000Y-75632000D01*
X94886000Y-75632000D02*
X94886000Y-93532000D01*
X94886000Y-93532000D02*
X100186000Y-93532000D01*
X100186000Y-93532000D02*
X100186000Y-75632000D01*
X100186000Y-75632000D02*
X98536000Y-75632000D01*
X98536000Y-75632000D02*
G75*
G02*
X96536000Y-75632000I-1000000J0D01*
G01*
G04 #@! TO.C,C1*
X-3024000Y-153455000D02*
X-3024000Y-153470000D01*
X-3024000Y-151330000D02*
X-3024000Y-151345000D01*
X-7564000Y-153455000D02*
X-7564000Y-153470000D01*
X-7564000Y-151330000D02*
X-7564000Y-151345000D01*
X-7564000Y-153470000D02*
X-3024000Y-153470000D01*
X-7564000Y-151330000D02*
X-3024000Y-151330000D01*
G04 #@! TO.C,C2*
X12756000Y-151330000D02*
X17296000Y-151330000D01*
X12756000Y-153470000D02*
X17296000Y-153470000D01*
X12756000Y-151330000D02*
X12756000Y-151345000D01*
X12756000Y-153455000D02*
X12756000Y-153470000D01*
X17296000Y-151330000D02*
X17296000Y-151345000D01*
X17296000Y-153455000D02*
X17296000Y-153470000D01*
G04 #@! TO.C,C3*
X98576000Y-155995000D02*
X98576000Y-156010000D01*
X98576000Y-153870000D02*
X98576000Y-153885000D01*
X94036000Y-155995000D02*
X94036000Y-156010000D01*
X94036000Y-153870000D02*
X94036000Y-153885000D01*
X94036000Y-156010000D02*
X98576000Y-156010000D01*
X94036000Y-153870000D02*
X98576000Y-153870000D01*
G04 #@! TO.C,C4*
X53396000Y-153870000D02*
X57936000Y-153870000D01*
X53396000Y-156010000D02*
X57936000Y-156010000D01*
X53396000Y-153870000D02*
X53396000Y-153885000D01*
X53396000Y-155995000D02*
X53396000Y-156010000D01*
X57936000Y-153870000D02*
X57936000Y-153885000D01*
X57936000Y-155995000D02*
X57936000Y-156010000D01*
G04 #@! TO.C,C5*
X94036000Y-125930000D02*
X98576000Y-125930000D01*
X94036000Y-128070000D02*
X98576000Y-128070000D01*
X94036000Y-125930000D02*
X94036000Y-125945000D01*
X94036000Y-128055000D02*
X94036000Y-128070000D01*
X98576000Y-125930000D02*
X98576000Y-125945000D01*
X98576000Y-128055000D02*
X98576000Y-128070000D01*
G04 #@! TO.C,C6*
X78256000Y-155995000D02*
X78256000Y-156010000D01*
X78256000Y-153870000D02*
X78256000Y-153885000D01*
X73716000Y-155995000D02*
X73716000Y-156010000D01*
X73716000Y-153870000D02*
X73716000Y-153885000D01*
X73716000Y-156010000D02*
X78256000Y-156010000D01*
X73716000Y-153870000D02*
X78256000Y-153870000D01*
G04 #@! TO.C,C8*
X53396000Y-125930000D02*
X57936000Y-125930000D01*
X53396000Y-128070000D02*
X57936000Y-128070000D01*
X53396000Y-125930000D02*
X53396000Y-125945000D01*
X53396000Y-128055000D02*
X53396000Y-128070000D01*
X57936000Y-125930000D02*
X57936000Y-125945000D01*
X57936000Y-128055000D02*
X57936000Y-128070000D01*
G04 #@! TO.C,C12*
X37616000Y-153455000D02*
X37616000Y-153470000D01*
X37616000Y-151330000D02*
X37616000Y-151345000D01*
X33076000Y-153455000D02*
X33076000Y-153470000D01*
X33076000Y-151330000D02*
X33076000Y-151345000D01*
X33076000Y-153470000D02*
X37616000Y-153470000D01*
X33076000Y-151330000D02*
X37616000Y-151330000D01*
G04 #@! TO.C,U2*
D10*
X104576952Y-68584380D02*
X105243619Y-68584380D01*
X104815047Y-69584380D01*
X106053142Y-68917714D02*
X106053142Y-69584380D01*
X105815047Y-68536761D02*
X105576952Y-69251047D01*
X106196000Y-69251047D01*
X107053142Y-69584380D02*
X106576952Y-69584380D01*
X106576952Y-68584380D01*
X107338857Y-69536761D02*
X107481714Y-69584380D01*
X107719809Y-69584380D01*
X107815047Y-69536761D01*
X107862666Y-69489142D01*
X107910285Y-69393904D01*
X107910285Y-69298666D01*
X107862666Y-69203428D01*
X107815047Y-69155809D01*
X107719809Y-69108190D01*
X107529333Y-69060571D01*
X107434095Y-69012952D01*
X107386476Y-68965333D01*
X107338857Y-68870095D01*
X107338857Y-68774857D01*
X107386476Y-68679619D01*
X107434095Y-68632000D01*
X107529333Y-68584380D01*
X107767428Y-68584380D01*
X107910285Y-68632000D01*
X108291238Y-68679619D02*
X108338857Y-68632000D01*
X108434095Y-68584380D01*
X108672190Y-68584380D01*
X108767428Y-68632000D01*
X108815047Y-68679619D01*
X108862666Y-68774857D01*
X108862666Y-68870095D01*
X108815047Y-69012952D01*
X108243619Y-69584380D01*
X108862666Y-69584380D01*
X109719809Y-68917714D02*
X109719809Y-69584380D01*
X109481714Y-68536761D02*
X109243619Y-69251047D01*
X109862666Y-69251047D01*
X110719809Y-68584380D02*
X110243619Y-68584380D01*
X110196000Y-69060571D01*
X110243619Y-69012952D01*
X110338857Y-68965333D01*
X110576952Y-68965333D01*
X110672190Y-69012952D01*
X110719809Y-69060571D01*
X110767428Y-69155809D01*
X110767428Y-69393904D01*
X110719809Y-69489142D01*
X110672190Y-69536761D01*
X110576952Y-69584380D01*
X110338857Y-69584380D01*
X110243619Y-69536761D01*
X110196000Y-69489142D01*
G04 #@! TO.C,U1*
X112196952Y-177804380D02*
X112863619Y-177804380D01*
X112435047Y-178804380D01*
X113673142Y-178137714D02*
X113673142Y-178804380D01*
X113435047Y-177756761D02*
X113196952Y-178471047D01*
X113816000Y-178471047D01*
X114673142Y-178804380D02*
X114196952Y-178804380D01*
X114196952Y-177804380D01*
X114958857Y-178756761D02*
X115101714Y-178804380D01*
X115339809Y-178804380D01*
X115435047Y-178756761D01*
X115482666Y-178709142D01*
X115530285Y-178613904D01*
X115530285Y-178518666D01*
X115482666Y-178423428D01*
X115435047Y-178375809D01*
X115339809Y-178328190D01*
X115149333Y-178280571D01*
X115054095Y-178232952D01*
X115006476Y-178185333D01*
X114958857Y-178090095D01*
X114958857Y-177994857D01*
X115006476Y-177899619D01*
X115054095Y-177852000D01*
X115149333Y-177804380D01*
X115387428Y-177804380D01*
X115530285Y-177852000D01*
X116482666Y-178804380D02*
X115911238Y-178804380D01*
X116196952Y-178804380D02*
X116196952Y-177804380D01*
X116101714Y-177947238D01*
X116006476Y-178042476D01*
X115911238Y-178090095D01*
X116816000Y-177804380D02*
X117435047Y-177804380D01*
X117101714Y-178185333D01*
X117244571Y-178185333D01*
X117339809Y-178232952D01*
X117387428Y-178280571D01*
X117435047Y-178375809D01*
X117435047Y-178613904D01*
X117387428Y-178709142D01*
X117339809Y-178756761D01*
X117244571Y-178804380D01*
X116958857Y-178804380D01*
X116863619Y-178756761D01*
X116816000Y-178709142D01*
X117911238Y-178804380D02*
X118101714Y-178804380D01*
X118196952Y-178756761D01*
X118244571Y-178709142D01*
X118339809Y-178566285D01*
X118387428Y-178375809D01*
X118387428Y-177994857D01*
X118339809Y-177899619D01*
X118292190Y-177852000D01*
X118196952Y-177804380D01*
X118006476Y-177804380D01*
X117911238Y-177852000D01*
X117863619Y-177899619D01*
X117816000Y-177994857D01*
X117816000Y-178232952D01*
X117863619Y-178328190D01*
X117911238Y-178375809D01*
X118006476Y-178423428D01*
X118196952Y-178423428D01*
X118292190Y-178375809D01*
X118339809Y-178328190D01*
X118387428Y-178232952D01*
G04 #@! TO.C,C19*
X107069142Y-38060380D02*
X107164380Y-38060380D01*
X107259619Y-38108000D01*
X107307238Y-38155619D01*
X107354857Y-38250857D01*
X107402476Y-38441333D01*
X107402476Y-38679428D01*
X107354857Y-38869904D01*
X107307238Y-38965142D01*
X107259619Y-39012761D01*
X107164380Y-39060380D01*
X107069142Y-39060380D01*
X106973904Y-39012761D01*
X106926285Y-38965142D01*
X106878666Y-38869904D01*
X106831047Y-38679428D01*
X106831047Y-38441333D01*
X106878666Y-38250857D01*
X106926285Y-38155619D01*
X106973904Y-38108000D01*
X107069142Y-38060380D01*
X107831047Y-38965142D02*
X107878666Y-39012761D01*
X107831047Y-39060380D01*
X107783428Y-39012761D01*
X107831047Y-38965142D01*
X107831047Y-39060380D01*
X108831047Y-39060380D02*
X108259619Y-39060380D01*
X108545333Y-39060380D02*
X108545333Y-38060380D01*
X108450095Y-38203238D01*
X108354857Y-38298476D01*
X108259619Y-38346095D01*
X109688190Y-38393714D02*
X109688190Y-39060380D01*
X109259619Y-38393714D02*
X109259619Y-38917523D01*
X109307238Y-39012761D01*
X109402476Y-39060380D01*
X109545333Y-39060380D01*
X109640571Y-39012761D01*
X109688190Y-38965142D01*
X110497714Y-38536571D02*
X110164380Y-38536571D01*
X110164380Y-39060380D02*
X110164380Y-38060380D01*
X110640571Y-38060380D01*
G04 #@! TO.C,C18*
X114943142Y-152360380D02*
X115038380Y-152360380D01*
X115133619Y-152408000D01*
X115181238Y-152455619D01*
X115228857Y-152550857D01*
X115276476Y-152741333D01*
X115276476Y-152979428D01*
X115228857Y-153169904D01*
X115181238Y-153265142D01*
X115133619Y-153312761D01*
X115038380Y-153360380D01*
X114943142Y-153360380D01*
X114847904Y-153312761D01*
X114800285Y-153265142D01*
X114752666Y-153169904D01*
X114705047Y-152979428D01*
X114705047Y-152741333D01*
X114752666Y-152550857D01*
X114800285Y-152455619D01*
X114847904Y-152408000D01*
X114943142Y-152360380D01*
X115705047Y-153265142D02*
X115752666Y-153312761D01*
X115705047Y-153360380D01*
X115657428Y-153312761D01*
X115705047Y-153265142D01*
X115705047Y-153360380D01*
X116705047Y-153360380D02*
X116133619Y-153360380D01*
X116419333Y-153360380D02*
X116419333Y-152360380D01*
X116324095Y-152503238D01*
X116228857Y-152598476D01*
X116133619Y-152646095D01*
X117562190Y-152693714D02*
X117562190Y-153360380D01*
X117133619Y-152693714D02*
X117133619Y-153217523D01*
X117181238Y-153312761D01*
X117276476Y-153360380D01*
X117419333Y-153360380D01*
X117514571Y-153312761D01*
X117562190Y-153265142D01*
X118371714Y-152836571D02*
X118038380Y-152836571D01*
X118038380Y-153360380D02*
X118038380Y-152360380D01*
X118514571Y-152360380D01*
G04 #@! TO.C,RN3*
X121467619Y-132580380D02*
X121467619Y-132008952D01*
X121467619Y-132294666D02*
X122467619Y-132294666D01*
X122324761Y-132199428D01*
X122229523Y-132104190D01*
X122181904Y-132008952D01*
X122467619Y-133199428D02*
X122467619Y-133294666D01*
X122420000Y-133389904D01*
X122372380Y-133437523D01*
X122277142Y-133485142D01*
X122086666Y-133532761D01*
X121848571Y-133532761D01*
X121658095Y-133485142D01*
X121562857Y-133437523D01*
X121515238Y-133389904D01*
X121467619Y-133294666D01*
X121467619Y-133199428D01*
X121515238Y-133104190D01*
X121562857Y-133056571D01*
X121658095Y-133008952D01*
X121848571Y-132961333D01*
X122086666Y-132961333D01*
X122277142Y-133008952D01*
X122372380Y-133056571D01*
X122420000Y-133104190D01*
X122467619Y-133199428D01*
X121467619Y-133961333D02*
X122467619Y-133961333D01*
X121848571Y-134056571D02*
X121467619Y-134342285D01*
X122134285Y-134342285D02*
X121753333Y-133961333D01*
X121467619Y-135675619D02*
X121515238Y-135580380D01*
X121562857Y-135532761D01*
X121658095Y-135485142D01*
X121943809Y-135485142D01*
X122039047Y-135532761D01*
X122086666Y-135580380D01*
X122134285Y-135675619D01*
X122134285Y-135818476D01*
X122086666Y-135913714D01*
X122039047Y-135961333D01*
X121943809Y-136008952D01*
X121658095Y-136008952D01*
X121562857Y-135961333D01*
X121515238Y-135913714D01*
X121467619Y-135818476D01*
X121467619Y-135675619D01*
X121467619Y-136437523D02*
X122467619Y-136437523D01*
X121467619Y-136866095D02*
X121991428Y-136866095D01*
X122086666Y-136818476D01*
X122134285Y-136723238D01*
X122134285Y-136580380D01*
X122086666Y-136485142D01*
X122039047Y-136437523D01*
X121467619Y-137342285D02*
X122134285Y-137342285D01*
X122039047Y-137342285D02*
X122086666Y-137389904D01*
X122134285Y-137485142D01*
X122134285Y-137628000D01*
X122086666Y-137723238D01*
X121991428Y-137770857D01*
X121467619Y-137770857D01*
X121991428Y-137770857D02*
X122086666Y-137818476D01*
X122134285Y-137913714D01*
X122134285Y-138056571D01*
X122086666Y-138151809D01*
X121991428Y-138199428D01*
X121467619Y-138199428D01*
G04 #@! TO.C,R*
X-37536476Y-40838380D02*
X-37869809Y-40362190D01*
X-38107904Y-40838380D02*
X-38107904Y-39838380D01*
X-37726952Y-39838380D01*
X-37631714Y-39886000D01*
X-37584095Y-39933619D01*
X-37536476Y-40028857D01*
X-37536476Y-40171714D01*
X-37584095Y-40266952D01*
X-37631714Y-40314571D01*
X-37726952Y-40362190D01*
X-38107904Y-40362190D01*
X-17216476Y-40838380D02*
X-17549809Y-40362190D01*
X-17787904Y-40838380D02*
X-17787904Y-39838380D01*
X-17406952Y-39838380D01*
X-17311714Y-39886000D01*
X-17264095Y-39933619D01*
X-17216476Y-40028857D01*
X-17216476Y-40171714D01*
X-17264095Y-40266952D01*
X-17311714Y-40314571D01*
X-17406952Y-40362190D01*
X-17787904Y-40362190D01*
X3103523Y-40838380D02*
X2770190Y-40362190D01*
X2532095Y-40838380D02*
X2532095Y-39838380D01*
X2913047Y-39838380D01*
X3008285Y-39886000D01*
X3055904Y-39933619D01*
X3103523Y-40028857D01*
X3103523Y-40171714D01*
X3055904Y-40266952D01*
X3008285Y-40314571D01*
X2913047Y-40362190D01*
X2532095Y-40362190D01*
G04 #@! TO.C,C17*
X-3684380Y-45561142D02*
X-3684380Y-45656380D01*
X-3731999Y-45751619D01*
X-3779619Y-45799238D01*
X-3874857Y-45846857D01*
X-4065333Y-45894476D01*
X-4303428Y-45894476D01*
X-4493904Y-45846857D01*
X-4589142Y-45799238D01*
X-4636761Y-45751619D01*
X-4684380Y-45656380D01*
X-4684380Y-45561142D01*
X-4636761Y-45465904D01*
X-4589142Y-45418285D01*
X-4493904Y-45370666D01*
X-4303428Y-45323047D01*
X-4065333Y-45323047D01*
X-3874857Y-45370666D01*
X-3779619Y-45418285D01*
X-3731999Y-45465904D01*
X-3684380Y-45561142D01*
X-4589142Y-46323047D02*
X-4636761Y-46370666D01*
X-4684380Y-46323047D01*
X-4636761Y-46275428D01*
X-4589142Y-46323047D01*
X-4684380Y-46323047D01*
X-4684380Y-47323047D02*
X-4684380Y-46751619D01*
X-4684380Y-47037333D02*
X-3684380Y-47037333D01*
X-3827238Y-46942095D01*
X-3922476Y-46846857D01*
X-3970095Y-46751619D01*
X-4017714Y-48180190D02*
X-4684380Y-48180190D01*
X-4017714Y-47751619D02*
X-4541523Y-47751619D01*
X-4636761Y-47799238D01*
X-4684380Y-47894476D01*
X-4684380Y-48037333D01*
X-4636761Y-48132571D01*
X-4589142Y-48180190D01*
X-4160571Y-48989714D02*
X-4160571Y-48656380D01*
X-4684380Y-48656380D02*
X-3684380Y-48656380D01*
X-3684380Y-49132571D01*
G04 #@! TO.C,C16*
X-3516380Y-116387142D02*
X-3516380Y-116482380D01*
X-3563999Y-116577619D01*
X-3611619Y-116625238D01*
X-3706857Y-116672857D01*
X-3897333Y-116720476D01*
X-4135428Y-116720476D01*
X-4325904Y-116672857D01*
X-4421142Y-116625238D01*
X-4468761Y-116577619D01*
X-4516380Y-116482380D01*
X-4516380Y-116387142D01*
X-4468761Y-116291904D01*
X-4421142Y-116244285D01*
X-4325904Y-116196666D01*
X-4135428Y-116149047D01*
X-3897333Y-116149047D01*
X-3706857Y-116196666D01*
X-3611619Y-116244285D01*
X-3563999Y-116291904D01*
X-3516380Y-116387142D01*
X-4421142Y-117149047D02*
X-4468761Y-117196666D01*
X-4516380Y-117149047D01*
X-4468761Y-117101428D01*
X-4421142Y-117149047D01*
X-4516380Y-117149047D01*
X-4516380Y-118149047D02*
X-4516380Y-117577619D01*
X-4516380Y-117863333D02*
X-3516380Y-117863333D01*
X-3659238Y-117768095D01*
X-3754476Y-117672857D01*
X-3802095Y-117577619D01*
X-3849714Y-119006190D02*
X-4516380Y-119006190D01*
X-3849714Y-118577619D02*
X-4373523Y-118577619D01*
X-4468761Y-118625238D01*
X-4516380Y-118720476D01*
X-4516380Y-118863333D01*
X-4468761Y-118958571D01*
X-4421142Y-119006190D01*
X-3992571Y-119815714D02*
X-3992571Y-119482380D01*
X-4516380Y-119482380D02*
X-3516380Y-119482380D01*
X-3516380Y-119958571D01*
G04 #@! TO.C,C15*
X-24004380Y-45561142D02*
X-24004380Y-45656380D01*
X-24052000Y-45751619D01*
X-24099619Y-45799238D01*
X-24194857Y-45846857D01*
X-24385333Y-45894476D01*
X-24623428Y-45894476D01*
X-24813904Y-45846857D01*
X-24909142Y-45799238D01*
X-24956761Y-45751619D01*
X-25004380Y-45656380D01*
X-25004380Y-45561142D01*
X-24956761Y-45465904D01*
X-24909142Y-45418285D01*
X-24813904Y-45370666D01*
X-24623428Y-45323047D01*
X-24385333Y-45323047D01*
X-24194857Y-45370666D01*
X-24099619Y-45418285D01*
X-24052000Y-45465904D01*
X-24004380Y-45561142D01*
X-24909142Y-46323047D02*
X-24956761Y-46370666D01*
X-25004380Y-46323047D01*
X-24956761Y-46275428D01*
X-24909142Y-46323047D01*
X-25004380Y-46323047D01*
X-25004380Y-47323047D02*
X-25004380Y-46751619D01*
X-25004380Y-47037333D02*
X-24004380Y-47037333D01*
X-24147238Y-46942095D01*
X-24242476Y-46846857D01*
X-24290095Y-46751619D01*
X-24337714Y-48180190D02*
X-25004380Y-48180190D01*
X-24337714Y-47751619D02*
X-24861523Y-47751619D01*
X-24956761Y-47799238D01*
X-25004380Y-47894476D01*
X-25004380Y-48037333D01*
X-24956761Y-48132571D01*
X-24909142Y-48180190D01*
X-24480571Y-48989714D02*
X-24480571Y-48656380D01*
X-25004380Y-48656380D02*
X-24004380Y-48656380D01*
X-24004380Y-49132571D01*
G04 #@! TO.C,C14*
X16803619Y-116467142D02*
X16803619Y-116562380D01*
X16756000Y-116657619D01*
X16708380Y-116705238D01*
X16613142Y-116752857D01*
X16422666Y-116800476D01*
X16184571Y-116800476D01*
X15994095Y-116752857D01*
X15898857Y-116705238D01*
X15851238Y-116657619D01*
X15803619Y-116562380D01*
X15803619Y-116467142D01*
X15851238Y-116371904D01*
X15898857Y-116324285D01*
X15994095Y-116276666D01*
X16184571Y-116229047D01*
X16422666Y-116229047D01*
X16613142Y-116276666D01*
X16708380Y-116324285D01*
X16756000Y-116371904D01*
X16803619Y-116467142D01*
X15898857Y-117229047D02*
X15851238Y-117276666D01*
X15803619Y-117229047D01*
X15851238Y-117181428D01*
X15898857Y-117229047D01*
X15803619Y-117229047D01*
X15803619Y-118229047D02*
X15803619Y-117657619D01*
X15803619Y-117943333D02*
X16803619Y-117943333D01*
X16660761Y-117848095D01*
X16565523Y-117752857D01*
X16517904Y-117657619D01*
X16470285Y-119086190D02*
X15803619Y-119086190D01*
X16470285Y-118657619D02*
X15946476Y-118657619D01*
X15851238Y-118705238D01*
X15803619Y-118800476D01*
X15803619Y-118943333D01*
X15851238Y-119038571D01*
X15898857Y-119086190D01*
X16327428Y-119895714D02*
X16327428Y-119562380D01*
X15803619Y-119562380D02*
X16803619Y-119562380D01*
X16803619Y-120038571D01*
G04 #@! TO.C,C13*
X16635619Y-45561142D02*
X16635619Y-45656380D01*
X16588000Y-45751619D01*
X16540380Y-45799238D01*
X16445142Y-45846857D01*
X16254666Y-45894476D01*
X16016571Y-45894476D01*
X15826095Y-45846857D01*
X15730857Y-45799238D01*
X15683238Y-45751619D01*
X15635619Y-45656380D01*
X15635619Y-45561142D01*
X15683238Y-45465904D01*
X15730857Y-45418285D01*
X15826095Y-45370666D01*
X16016571Y-45323047D01*
X16254666Y-45323047D01*
X16445142Y-45370666D01*
X16540380Y-45418285D01*
X16588000Y-45465904D01*
X16635619Y-45561142D01*
X15730857Y-46323047D02*
X15683238Y-46370666D01*
X15635619Y-46323047D01*
X15683238Y-46275428D01*
X15730857Y-46323047D01*
X15635619Y-46323047D01*
X15635619Y-47323047D02*
X15635619Y-46751619D01*
X15635619Y-47037333D02*
X16635619Y-47037333D01*
X16492761Y-46942095D01*
X16397523Y-46846857D01*
X16349904Y-46751619D01*
X16302285Y-48180190D02*
X15635619Y-48180190D01*
X16302285Y-47751619D02*
X15778476Y-47751619D01*
X15683238Y-47799238D01*
X15635619Y-47894476D01*
X15635619Y-48037333D01*
X15683238Y-48132571D01*
X15730857Y-48180190D01*
X16159428Y-48989714D02*
X16159428Y-48656380D01*
X15635619Y-48656380D02*
X16635619Y-48656380D01*
X16635619Y-49132571D01*
G04 #@! TO.C,C11*
X-23836380Y-116467142D02*
X-23836380Y-116562380D01*
X-23884000Y-116657619D01*
X-23931619Y-116705238D01*
X-24026857Y-116752857D01*
X-24217333Y-116800476D01*
X-24455428Y-116800476D01*
X-24645904Y-116752857D01*
X-24741142Y-116705238D01*
X-24788761Y-116657619D01*
X-24836380Y-116562380D01*
X-24836380Y-116467142D01*
X-24788761Y-116371904D01*
X-24741142Y-116324285D01*
X-24645904Y-116276666D01*
X-24455428Y-116229047D01*
X-24217333Y-116229047D01*
X-24026857Y-116276666D01*
X-23931619Y-116324285D01*
X-23884000Y-116371904D01*
X-23836380Y-116467142D01*
X-24741142Y-117229047D02*
X-24788761Y-117276666D01*
X-24836380Y-117229047D01*
X-24788761Y-117181428D01*
X-24741142Y-117229047D01*
X-24836380Y-117229047D01*
X-24836380Y-118229047D02*
X-24836380Y-117657619D01*
X-24836380Y-117943333D02*
X-23836380Y-117943333D01*
X-23979238Y-117848095D01*
X-24074476Y-117752857D01*
X-24122095Y-117657619D01*
X-24169714Y-119086190D02*
X-24836380Y-119086190D01*
X-24169714Y-118657619D02*
X-24693523Y-118657619D01*
X-24788761Y-118705238D01*
X-24836380Y-118800476D01*
X-24836380Y-118943333D01*
X-24788761Y-119038571D01*
X-24741142Y-119086190D01*
X-24312571Y-119895714D02*
X-24312571Y-119562380D01*
X-24836380Y-119562380D02*
X-23836380Y-119562380D01*
X-23836380Y-120038571D01*
G04 #@! TO.C,C27*
X-28748380Y-116427142D02*
X-28748380Y-116522380D01*
X-28796000Y-116617619D01*
X-28843619Y-116665238D01*
X-28938857Y-116712857D01*
X-29129333Y-116760476D01*
X-29367428Y-116760476D01*
X-29557904Y-116712857D01*
X-29653142Y-116665238D01*
X-29700761Y-116617619D01*
X-29748380Y-116522380D01*
X-29748380Y-116427142D01*
X-29700761Y-116331904D01*
X-29653142Y-116284285D01*
X-29557904Y-116236666D01*
X-29367428Y-116189047D01*
X-29129333Y-116189047D01*
X-28938857Y-116236666D01*
X-28843619Y-116284285D01*
X-28796000Y-116331904D01*
X-28748380Y-116427142D01*
X-29653142Y-117189047D02*
X-29700761Y-117236666D01*
X-29748380Y-117189047D01*
X-29700761Y-117141428D01*
X-29653142Y-117189047D01*
X-29748380Y-117189047D01*
X-29748380Y-118189047D02*
X-29748380Y-117617619D01*
X-29748380Y-117903333D02*
X-28748380Y-117903333D01*
X-28891238Y-117808095D01*
X-28986476Y-117712857D01*
X-29034095Y-117617619D01*
X-29081714Y-119046190D02*
X-29748380Y-119046190D01*
X-29081714Y-118617619D02*
X-29605523Y-118617619D01*
X-29700761Y-118665238D01*
X-29748380Y-118760476D01*
X-29748380Y-118903333D01*
X-29700761Y-118998571D01*
X-29653142Y-119046190D01*
X-29224571Y-119855714D02*
X-29224571Y-119522380D01*
X-29748380Y-119522380D02*
X-28748380Y-119522380D01*
X-28748380Y-119998571D01*
G04 #@! TO.C,*
X98917619Y-71064380D02*
X98917619Y-70064380D01*
X99298571Y-70064380D01*
X99393809Y-70112000D01*
X99441428Y-70159619D01*
X99489047Y-70254857D01*
X99489047Y-70397714D01*
X99441428Y-70492952D01*
X99393809Y-70540571D01*
X99298571Y-70588190D01*
X98917619Y-70588190D01*
X100108095Y-70064380D02*
X100298571Y-70064380D01*
X100393809Y-70112000D01*
X100489047Y-70207238D01*
X100536666Y-70397714D01*
X100536666Y-70731047D01*
X100489047Y-70921523D01*
X100393809Y-71016761D01*
X100298571Y-71064380D01*
X100108095Y-71064380D01*
X100012857Y-71016761D01*
X99917619Y-70921523D01*
X99870000Y-70731047D01*
X99870000Y-70397714D01*
X99917619Y-70207238D01*
X100012857Y-70112000D01*
X100108095Y-70064380D01*
X101536666Y-71064380D02*
X101203333Y-70588190D01*
X100965238Y-71064380D02*
X100965238Y-70064380D01*
X101346190Y-70064380D01*
X101441428Y-70112000D01*
X101489047Y-70159619D01*
X101536666Y-70254857D01*
X101536666Y-70397714D01*
X101489047Y-70492952D01*
X101441428Y-70540571D01*
X101346190Y-70588190D01*
X100965238Y-70588190D01*
X101822380Y-70064380D02*
X102393809Y-70064380D01*
X102108095Y-71064380D02*
X102108095Y-70064380D01*
X103679523Y-70064380D02*
X103774761Y-70064380D01*
X103870000Y-70112000D01*
X103917619Y-70159619D01*
X103965238Y-70254857D01*
X104012857Y-70445333D01*
X104012857Y-70683428D01*
X103965238Y-70873904D01*
X103917619Y-70969142D01*
X103870000Y-71016761D01*
X103774761Y-71064380D01*
X103679523Y-71064380D01*
X103584285Y-71016761D01*
X103536666Y-70969142D01*
X103489047Y-70873904D01*
X103441428Y-70683428D01*
X103441428Y-70445333D01*
X103489047Y-70254857D01*
X103536666Y-70159619D01*
X103584285Y-70112000D01*
X103679523Y-70064380D01*
X104346190Y-70064380D02*
X105012857Y-71064380D01*
X105012857Y-70064380D02*
X104346190Y-71064380D01*
X105822380Y-70064380D02*
X105631904Y-70064380D01*
X105536666Y-70112000D01*
X105489047Y-70159619D01*
X105393809Y-70302476D01*
X105346190Y-70492952D01*
X105346190Y-70873904D01*
X105393809Y-70969142D01*
X105441428Y-71016761D01*
X105536666Y-71064380D01*
X105727142Y-71064380D01*
X105822380Y-71016761D01*
X105870000Y-70969142D01*
X105917619Y-70873904D01*
X105917619Y-70635809D01*
X105870000Y-70540571D01*
X105822380Y-70492952D01*
X105727142Y-70445333D01*
X105536666Y-70445333D01*
X105441428Y-70492952D01*
X105393809Y-70540571D01*
X105346190Y-70635809D01*
X106870000Y-71064380D02*
X106298571Y-71064380D01*
X106584285Y-71064380D02*
X106584285Y-70064380D01*
X106489047Y-70207238D01*
X106393809Y-70302476D01*
X106298571Y-70350095D01*
X125587619Y-67508380D02*
X125587619Y-66508380D01*
X125968571Y-66508380D01*
X126063809Y-66556000D01*
X126111428Y-66603619D01*
X126159047Y-66698857D01*
X126159047Y-66841714D01*
X126111428Y-66936952D01*
X126063809Y-66984571D01*
X125968571Y-67032190D01*
X125587619Y-67032190D01*
X126778095Y-66508380D02*
X126968571Y-66508380D01*
X127063809Y-66556000D01*
X127159047Y-66651238D01*
X127206666Y-66841714D01*
X127206666Y-67175047D01*
X127159047Y-67365523D01*
X127063809Y-67460761D01*
X126968571Y-67508380D01*
X126778095Y-67508380D01*
X126682857Y-67460761D01*
X126587619Y-67365523D01*
X126540000Y-67175047D01*
X126540000Y-66841714D01*
X126587619Y-66651238D01*
X126682857Y-66556000D01*
X126778095Y-66508380D01*
X128206666Y-67508380D02*
X127873333Y-67032190D01*
X127635238Y-67508380D02*
X127635238Y-66508380D01*
X128016190Y-66508380D01*
X128111428Y-66556000D01*
X128159047Y-66603619D01*
X128206666Y-66698857D01*
X128206666Y-66841714D01*
X128159047Y-66936952D01*
X128111428Y-66984571D01*
X128016190Y-67032190D01*
X127635238Y-67032190D01*
X128492380Y-66508380D02*
X129063809Y-66508380D01*
X128778095Y-67508380D02*
X128778095Y-66508380D01*
X130349523Y-66508380D02*
X130444761Y-66508380D01*
X130540000Y-66556000D01*
X130587619Y-66603619D01*
X130635238Y-66698857D01*
X130682857Y-66889333D01*
X130682857Y-67127428D01*
X130635238Y-67317904D01*
X130587619Y-67413142D01*
X130540000Y-67460761D01*
X130444761Y-67508380D01*
X130349523Y-67508380D01*
X130254285Y-67460761D01*
X130206666Y-67413142D01*
X130159047Y-67317904D01*
X130111428Y-67127428D01*
X130111428Y-66889333D01*
X130159047Y-66698857D01*
X130206666Y-66603619D01*
X130254285Y-66556000D01*
X130349523Y-66508380D01*
X131016190Y-66508380D02*
X131682857Y-67508380D01*
X131682857Y-66508380D02*
X131016190Y-67508380D01*
X132492380Y-66508380D02*
X132301904Y-66508380D01*
X132206666Y-66556000D01*
X132159047Y-66603619D01*
X132063809Y-66746476D01*
X132016190Y-66936952D01*
X132016190Y-67317904D01*
X132063809Y-67413142D01*
X132111428Y-67460761D01*
X132206666Y-67508380D01*
X132397142Y-67508380D01*
X132492380Y-67460761D01*
X132540000Y-67413142D01*
X132587619Y-67317904D01*
X132587619Y-67079809D01*
X132540000Y-66984571D01*
X132492380Y-66936952D01*
X132397142Y-66889333D01*
X132206666Y-66889333D01*
X132111428Y-66936952D01*
X132063809Y-66984571D01*
X132016190Y-67079809D01*
X133206666Y-66508380D02*
X133301904Y-66508380D01*
X133397142Y-66556000D01*
X133444761Y-66603619D01*
X133492380Y-66698857D01*
X133540000Y-66889333D01*
X133540000Y-67127428D01*
X133492380Y-67317904D01*
X133444761Y-67413142D01*
X133397142Y-67460761D01*
X133301904Y-67508380D01*
X133206666Y-67508380D01*
X133111428Y-67460761D01*
X133063809Y-67413142D01*
X133016190Y-67317904D01*
X132968571Y-67127428D01*
X132968571Y-66889333D01*
X133016190Y-66698857D01*
X133063809Y-66603619D01*
X133111428Y-66556000D01*
X133206666Y-66508380D01*
G04 #@! TO.C,RN1*
X32250380Y-34856380D02*
X31678952Y-34856380D01*
X31964666Y-34856380D02*
X31964666Y-33856380D01*
X31869428Y-33999238D01*
X31774190Y-34094476D01*
X31678952Y-34142095D01*
X32869428Y-33856380D02*
X32964666Y-33856380D01*
X33059904Y-33904000D01*
X33107523Y-33951619D01*
X33155142Y-34046857D01*
X33202761Y-34237333D01*
X33202761Y-34475428D01*
X33155142Y-34665904D01*
X33107523Y-34761142D01*
X33059904Y-34808761D01*
X32964666Y-34856380D01*
X32869428Y-34856380D01*
X32774190Y-34808761D01*
X32726571Y-34761142D01*
X32678952Y-34665904D01*
X32631333Y-34475428D01*
X32631333Y-34237333D01*
X32678952Y-34046857D01*
X32726571Y-33951619D01*
X32774190Y-33904000D01*
X32869428Y-33856380D01*
X33631333Y-34856380D02*
X33631333Y-33856380D01*
X33726571Y-34475428D02*
X34012285Y-34856380D01*
X34012285Y-34189714D02*
X33631333Y-34570666D01*
X35345619Y-34856380D02*
X35250380Y-34808761D01*
X35202761Y-34761142D01*
X35155142Y-34665904D01*
X35155142Y-34380190D01*
X35202761Y-34284952D01*
X35250380Y-34237333D01*
X35345619Y-34189714D01*
X35488476Y-34189714D01*
X35583714Y-34237333D01*
X35631333Y-34284952D01*
X35678952Y-34380190D01*
X35678952Y-34665904D01*
X35631333Y-34761142D01*
X35583714Y-34808761D01*
X35488476Y-34856380D01*
X35345619Y-34856380D01*
X36107523Y-34856380D02*
X36107523Y-33856380D01*
X36536095Y-34856380D02*
X36536095Y-34332571D01*
X36488476Y-34237333D01*
X36393238Y-34189714D01*
X36250380Y-34189714D01*
X36155142Y-34237333D01*
X36107523Y-34284952D01*
X37012285Y-34856380D02*
X37012285Y-34189714D01*
X37012285Y-34284952D02*
X37059904Y-34237333D01*
X37155142Y-34189714D01*
X37298000Y-34189714D01*
X37393238Y-34237333D01*
X37440857Y-34332571D01*
X37440857Y-34856380D01*
X37440857Y-34332571D02*
X37488476Y-34237333D01*
X37583714Y-34189714D01*
X37726571Y-34189714D01*
X37821809Y-34237333D01*
X37869428Y-34332571D01*
X37869428Y-34856380D01*
G04 #@! TO.C,R13*
X118356380Y-101798380D02*
X117784952Y-101798380D01*
X118070666Y-101798380D02*
X118070666Y-100798380D01*
X117975428Y-100941238D01*
X117880190Y-101036476D01*
X117784952Y-101084095D01*
X118975428Y-100798380D02*
X119070666Y-100798380D01*
X119165904Y-100846000D01*
X119213523Y-100893619D01*
X119261142Y-100988857D01*
X119308761Y-101179333D01*
X119308761Y-101417428D01*
X119261142Y-101607904D01*
X119213523Y-101703142D01*
X119165904Y-101750761D01*
X119070666Y-101798380D01*
X118975428Y-101798380D01*
X118880190Y-101750761D01*
X118832571Y-101703142D01*
X118784952Y-101607904D01*
X118737333Y-101417428D01*
X118737333Y-101179333D01*
X118784952Y-100988857D01*
X118832571Y-100893619D01*
X118880190Y-100846000D01*
X118975428Y-100798380D01*
X119737333Y-101798380D02*
X119737333Y-100798380D01*
X119832571Y-101417428D02*
X120118285Y-101798380D01*
X120118285Y-101131714D02*
X119737333Y-101512666D01*
X121451619Y-101798380D02*
X121356380Y-101750761D01*
X121308761Y-101703142D01*
X121261142Y-101607904D01*
X121261142Y-101322190D01*
X121308761Y-101226952D01*
X121356380Y-101179333D01*
X121451619Y-101131714D01*
X121594476Y-101131714D01*
X121689714Y-101179333D01*
X121737333Y-101226952D01*
X121784952Y-101322190D01*
X121784952Y-101607904D01*
X121737333Y-101703142D01*
X121689714Y-101750761D01*
X121594476Y-101798380D01*
X121451619Y-101798380D01*
X122213523Y-101798380D02*
X122213523Y-100798380D01*
X122642095Y-101798380D02*
X122642095Y-101274571D01*
X122594476Y-101179333D01*
X122499238Y-101131714D01*
X122356380Y-101131714D01*
X122261142Y-101179333D01*
X122213523Y-101226952D01*
X123118285Y-101798380D02*
X123118285Y-101131714D01*
X123118285Y-101226952D02*
X123165904Y-101179333D01*
X123261142Y-101131714D01*
X123404000Y-101131714D01*
X123499238Y-101179333D01*
X123546857Y-101274571D01*
X123546857Y-101798380D01*
X123546857Y-101274571D02*
X123594476Y-101179333D01*
X123689714Y-101131714D01*
X123832571Y-101131714D01*
X123927809Y-101179333D01*
X123975428Y-101274571D01*
X123975428Y-101798380D01*
G04 #@! TO.C,R12*
X118356380Y-98750380D02*
X117784952Y-98750380D01*
X118070666Y-98750380D02*
X118070666Y-97750380D01*
X117975428Y-97893238D01*
X117880190Y-97988476D01*
X117784952Y-98036095D01*
X118975428Y-97750380D02*
X119070666Y-97750380D01*
X119165904Y-97798000D01*
X119213523Y-97845619D01*
X119261142Y-97940857D01*
X119308761Y-98131333D01*
X119308761Y-98369428D01*
X119261142Y-98559904D01*
X119213523Y-98655142D01*
X119165904Y-98702761D01*
X119070666Y-98750380D01*
X118975428Y-98750380D01*
X118880190Y-98702761D01*
X118832571Y-98655142D01*
X118784952Y-98559904D01*
X118737333Y-98369428D01*
X118737333Y-98131333D01*
X118784952Y-97940857D01*
X118832571Y-97845619D01*
X118880190Y-97798000D01*
X118975428Y-97750380D01*
X119737333Y-98750380D02*
X119737333Y-97750380D01*
X119832571Y-98369428D02*
X120118285Y-98750380D01*
X120118285Y-98083714D02*
X119737333Y-98464666D01*
X121451619Y-98750380D02*
X121356380Y-98702761D01*
X121308761Y-98655142D01*
X121261142Y-98559904D01*
X121261142Y-98274190D01*
X121308761Y-98178952D01*
X121356380Y-98131333D01*
X121451619Y-98083714D01*
X121594476Y-98083714D01*
X121689714Y-98131333D01*
X121737333Y-98178952D01*
X121784952Y-98274190D01*
X121784952Y-98559904D01*
X121737333Y-98655142D01*
X121689714Y-98702761D01*
X121594476Y-98750380D01*
X121451619Y-98750380D01*
X122213523Y-98750380D02*
X122213523Y-97750380D01*
X122642095Y-98750380D02*
X122642095Y-98226571D01*
X122594476Y-98131333D01*
X122499238Y-98083714D01*
X122356380Y-98083714D01*
X122261142Y-98131333D01*
X122213523Y-98178952D01*
X123118285Y-98750380D02*
X123118285Y-98083714D01*
X123118285Y-98178952D02*
X123165904Y-98131333D01*
X123261142Y-98083714D01*
X123404000Y-98083714D01*
X123499238Y-98131333D01*
X123546857Y-98226571D01*
X123546857Y-98750380D01*
X123546857Y-98226571D02*
X123594476Y-98131333D01*
X123689714Y-98083714D01*
X123832571Y-98083714D01*
X123927809Y-98131333D01*
X123975428Y-98226571D01*
X123975428Y-98750380D01*
G04 #@! TO.C,RN2*
X70763142Y-34856380D02*
X70191714Y-34856380D01*
X70477428Y-34856380D02*
X70477428Y-33856380D01*
X70382190Y-33999238D01*
X70286952Y-34094476D01*
X70191714Y-34142095D01*
X71382190Y-33856380D02*
X71477428Y-33856380D01*
X71572666Y-33904000D01*
X71620285Y-33951619D01*
X71667904Y-34046857D01*
X71715523Y-34237333D01*
X71715523Y-34475428D01*
X71667904Y-34665904D01*
X71620285Y-34761142D01*
X71572666Y-34808761D01*
X71477428Y-34856380D01*
X71382190Y-34856380D01*
X71286952Y-34808761D01*
X71239333Y-34761142D01*
X71191714Y-34665904D01*
X71144095Y-34475428D01*
X71144095Y-34237333D01*
X71191714Y-34046857D01*
X71239333Y-33951619D01*
X71286952Y-33904000D01*
X71382190Y-33856380D01*
X72144095Y-34856380D02*
X72144095Y-33856380D01*
X72715523Y-34856380D02*
X72286952Y-34284952D01*
X72715523Y-33856380D02*
X72144095Y-34427809D01*
X74048857Y-34856380D02*
X73953619Y-34808761D01*
X73906000Y-34761142D01*
X73858380Y-34665904D01*
X73858380Y-34380190D01*
X73906000Y-34284952D01*
X73953619Y-34237333D01*
X74048857Y-34189714D01*
X74191714Y-34189714D01*
X74286952Y-34237333D01*
X74334571Y-34284952D01*
X74382190Y-34380190D01*
X74382190Y-34665904D01*
X74334571Y-34761142D01*
X74286952Y-34808761D01*
X74191714Y-34856380D01*
X74048857Y-34856380D01*
X74810761Y-34856380D02*
X74810761Y-33856380D01*
X75239333Y-34856380D02*
X75239333Y-34332571D01*
X75191714Y-34237333D01*
X75096476Y-34189714D01*
X74953619Y-34189714D01*
X74858380Y-34237333D01*
X74810761Y-34284952D01*
X75715523Y-34856380D02*
X75715523Y-34189714D01*
X75715523Y-34284952D02*
X75763142Y-34237333D01*
X75858380Y-34189714D01*
X76001238Y-34189714D01*
X76096476Y-34237333D01*
X76144095Y-34332571D01*
X76144095Y-34856380D01*
X76144095Y-34332571D02*
X76191714Y-34237333D01*
X76286952Y-34189714D01*
X76429809Y-34189714D01*
X76525047Y-34237333D01*
X76572666Y-34332571D01*
X76572666Y-34856380D01*
G04 #@! TO.C,R9*
X121912380Y-36520380D02*
X121340952Y-36520380D01*
X121626666Y-36520380D02*
X121626666Y-35520380D01*
X121531428Y-35663238D01*
X121436190Y-35758476D01*
X121340952Y-35806095D01*
X122531428Y-35520380D02*
X122626666Y-35520380D01*
X122721904Y-35568000D01*
X122769523Y-35615619D01*
X122817142Y-35710857D01*
X122864761Y-35901333D01*
X122864761Y-36139428D01*
X122817142Y-36329904D01*
X122769523Y-36425142D01*
X122721904Y-36472761D01*
X122626666Y-36520380D01*
X122531428Y-36520380D01*
X122436190Y-36472761D01*
X122388571Y-36425142D01*
X122340952Y-36329904D01*
X122293333Y-36139428D01*
X122293333Y-35901333D01*
X122340952Y-35710857D01*
X122388571Y-35615619D01*
X122436190Y-35568000D01*
X122531428Y-35520380D01*
X123293333Y-36520380D02*
X123293333Y-35520380D01*
X123388571Y-36139428D02*
X123674285Y-36520380D01*
X123674285Y-35853714D02*
X123293333Y-36234666D01*
X125007619Y-36520380D02*
X124912380Y-36472761D01*
X124864761Y-36425142D01*
X124817142Y-36329904D01*
X124817142Y-36044190D01*
X124864761Y-35948952D01*
X124912380Y-35901333D01*
X125007619Y-35853714D01*
X125150476Y-35853714D01*
X125245714Y-35901333D01*
X125293333Y-35948952D01*
X125340952Y-36044190D01*
X125340952Y-36329904D01*
X125293333Y-36425142D01*
X125245714Y-36472761D01*
X125150476Y-36520380D01*
X125007619Y-36520380D01*
X125769523Y-36520380D02*
X125769523Y-35520380D01*
X126198095Y-36520380D02*
X126198095Y-35996571D01*
X126150476Y-35901333D01*
X126055238Y-35853714D01*
X125912380Y-35853714D01*
X125817142Y-35901333D01*
X125769523Y-35948952D01*
X126674285Y-36520380D02*
X126674285Y-35853714D01*
X126674285Y-35948952D02*
X126721904Y-35901333D01*
X126817142Y-35853714D01*
X126960000Y-35853714D01*
X127055238Y-35901333D01*
X127102857Y-35996571D01*
X127102857Y-36520380D01*
X127102857Y-35996571D02*
X127150476Y-35901333D01*
X127245714Y-35853714D01*
X127388571Y-35853714D01*
X127483809Y-35901333D01*
X127531428Y-35996571D01*
X127531428Y-36520380D01*
G04 #@! TO.C,R8*
X121912380Y-33472380D02*
X121340952Y-33472380D01*
X121626666Y-33472380D02*
X121626666Y-32472380D01*
X121531428Y-32615238D01*
X121436190Y-32710476D01*
X121340952Y-32758095D01*
X122531428Y-32472380D02*
X122626666Y-32472380D01*
X122721904Y-32520000D01*
X122769523Y-32567619D01*
X122817142Y-32662857D01*
X122864761Y-32853333D01*
X122864761Y-33091428D01*
X122817142Y-33281904D01*
X122769523Y-33377142D01*
X122721904Y-33424761D01*
X122626666Y-33472380D01*
X122531428Y-33472380D01*
X122436190Y-33424761D01*
X122388571Y-33377142D01*
X122340952Y-33281904D01*
X122293333Y-33091428D01*
X122293333Y-32853333D01*
X122340952Y-32662857D01*
X122388571Y-32567619D01*
X122436190Y-32520000D01*
X122531428Y-32472380D01*
X123293333Y-33472380D02*
X123293333Y-32472380D01*
X123388571Y-33091428D02*
X123674285Y-33472380D01*
X123674285Y-32805714D02*
X123293333Y-33186666D01*
X125007619Y-33472380D02*
X124912380Y-33424761D01*
X124864761Y-33377142D01*
X124817142Y-33281904D01*
X124817142Y-32996190D01*
X124864761Y-32900952D01*
X124912380Y-32853333D01*
X125007619Y-32805714D01*
X125150476Y-32805714D01*
X125245714Y-32853333D01*
X125293333Y-32900952D01*
X125340952Y-32996190D01*
X125340952Y-33281904D01*
X125293333Y-33377142D01*
X125245714Y-33424761D01*
X125150476Y-33472380D01*
X125007619Y-33472380D01*
X125769523Y-33472380D02*
X125769523Y-32472380D01*
X126198095Y-33472380D02*
X126198095Y-32948571D01*
X126150476Y-32853333D01*
X126055238Y-32805714D01*
X125912380Y-32805714D01*
X125817142Y-32853333D01*
X125769523Y-32900952D01*
X126674285Y-33472380D02*
X126674285Y-32805714D01*
X126674285Y-32900952D02*
X126721904Y-32853333D01*
X126817142Y-32805714D01*
X126960000Y-32805714D01*
X127055238Y-32853333D01*
X127102857Y-32948571D01*
X127102857Y-33472380D01*
X127102857Y-32948571D02*
X127150476Y-32853333D01*
X127245714Y-32805714D01*
X127388571Y-32805714D01*
X127483809Y-32853333D01*
X127531428Y-32948571D01*
X127531428Y-33472380D01*
G04 #@! TO.C,R7*
X119372380Y-148026380D02*
X118800952Y-148026380D01*
X119086666Y-148026380D02*
X119086666Y-147026380D01*
X118991428Y-147169238D01*
X118896190Y-147264476D01*
X118800952Y-147312095D01*
X119991428Y-147026380D02*
X120086666Y-147026380D01*
X120181904Y-147074000D01*
X120229523Y-147121619D01*
X120277142Y-147216857D01*
X120324761Y-147407333D01*
X120324761Y-147645428D01*
X120277142Y-147835904D01*
X120229523Y-147931142D01*
X120181904Y-147978761D01*
X120086666Y-148026380D01*
X119991428Y-148026380D01*
X119896190Y-147978761D01*
X119848571Y-147931142D01*
X119800952Y-147835904D01*
X119753333Y-147645428D01*
X119753333Y-147407333D01*
X119800952Y-147216857D01*
X119848571Y-147121619D01*
X119896190Y-147074000D01*
X119991428Y-147026380D01*
X120753333Y-148026380D02*
X120753333Y-147026380D01*
X120848571Y-147645428D02*
X121134285Y-148026380D01*
X121134285Y-147359714D02*
X120753333Y-147740666D01*
X122467619Y-148026380D02*
X122372380Y-147978761D01*
X122324761Y-147931142D01*
X122277142Y-147835904D01*
X122277142Y-147550190D01*
X122324761Y-147454952D01*
X122372380Y-147407333D01*
X122467619Y-147359714D01*
X122610476Y-147359714D01*
X122705714Y-147407333D01*
X122753333Y-147454952D01*
X122800952Y-147550190D01*
X122800952Y-147835904D01*
X122753333Y-147931142D01*
X122705714Y-147978761D01*
X122610476Y-148026380D01*
X122467619Y-148026380D01*
X123229523Y-148026380D02*
X123229523Y-147026380D01*
X123658095Y-148026380D02*
X123658095Y-147502571D01*
X123610476Y-147407333D01*
X123515238Y-147359714D01*
X123372380Y-147359714D01*
X123277142Y-147407333D01*
X123229523Y-147454952D01*
X124134285Y-148026380D02*
X124134285Y-147359714D01*
X124134285Y-147454952D02*
X124181904Y-147407333D01*
X124277142Y-147359714D01*
X124420000Y-147359714D01*
X124515238Y-147407333D01*
X124562857Y-147502571D01*
X124562857Y-148026380D01*
X124562857Y-147502571D02*
X124610476Y-147407333D01*
X124705714Y-147359714D01*
X124848571Y-147359714D01*
X124943809Y-147407333D01*
X124991428Y-147502571D01*
X124991428Y-148026380D01*
G04 #@! TO.C,R6*
X30027619Y-138168380D02*
X30027619Y-137596952D01*
X30027619Y-137882666D02*
X31027619Y-137882666D01*
X30884761Y-137787428D01*
X30789523Y-137692190D01*
X30741904Y-137596952D01*
X31027619Y-138787428D02*
X31027619Y-138882666D01*
X30980000Y-138977904D01*
X30932380Y-139025523D01*
X30837142Y-139073142D01*
X30646666Y-139120761D01*
X30408571Y-139120761D01*
X30218095Y-139073142D01*
X30122857Y-139025523D01*
X30075238Y-138977904D01*
X30027619Y-138882666D01*
X30027619Y-138787428D01*
X30075238Y-138692190D01*
X30122857Y-138644571D01*
X30218095Y-138596952D01*
X30408571Y-138549333D01*
X30646666Y-138549333D01*
X30837142Y-138596952D01*
X30932380Y-138644571D01*
X30980000Y-138692190D01*
X31027619Y-138787428D01*
X30027619Y-139549333D02*
X31027619Y-139549333D01*
X30408571Y-139644571D02*
X30027619Y-139930285D01*
X30694285Y-139930285D02*
X30313333Y-139549333D01*
X30027619Y-141263619D02*
X30075238Y-141168380D01*
X30122857Y-141120761D01*
X30218095Y-141073142D01*
X30503809Y-141073142D01*
X30599047Y-141120761D01*
X30646666Y-141168380D01*
X30694285Y-141263619D01*
X30694285Y-141406476D01*
X30646666Y-141501714D01*
X30599047Y-141549333D01*
X30503809Y-141596952D01*
X30218095Y-141596952D01*
X30122857Y-141549333D01*
X30075238Y-141501714D01*
X30027619Y-141406476D01*
X30027619Y-141263619D01*
X30027619Y-142025523D02*
X31027619Y-142025523D01*
X30027619Y-142454095D02*
X30551428Y-142454095D01*
X30646666Y-142406476D01*
X30694285Y-142311238D01*
X30694285Y-142168380D01*
X30646666Y-142073142D01*
X30599047Y-142025523D01*
X30027619Y-142930285D02*
X30694285Y-142930285D01*
X30599047Y-142930285D02*
X30646666Y-142977904D01*
X30694285Y-143073142D01*
X30694285Y-143216000D01*
X30646666Y-143311238D01*
X30551428Y-143358857D01*
X30027619Y-143358857D01*
X30551428Y-143358857D02*
X30646666Y-143406476D01*
X30694285Y-143501714D01*
X30694285Y-143644571D01*
X30646666Y-143739809D01*
X30551428Y-143787428D01*
X30027619Y-143787428D01*
G04 #@! TO.C,C10*
X128649619Y-75279142D02*
X128649619Y-75374380D01*
X128602000Y-75469619D01*
X128554380Y-75517238D01*
X128459142Y-75564857D01*
X128268666Y-75612476D01*
X128030571Y-75612476D01*
X127840095Y-75564857D01*
X127744857Y-75517238D01*
X127697238Y-75469619D01*
X127649619Y-75374380D01*
X127649619Y-75279142D01*
X127697238Y-75183904D01*
X127744857Y-75136285D01*
X127840095Y-75088666D01*
X128030571Y-75041047D01*
X128268666Y-75041047D01*
X128459142Y-75088666D01*
X128554380Y-75136285D01*
X128602000Y-75183904D01*
X128649619Y-75279142D01*
X127744857Y-76041047D02*
X127697238Y-76088666D01*
X127649619Y-76041047D01*
X127697238Y-75993428D01*
X127744857Y-76041047D01*
X127649619Y-76041047D01*
X127649619Y-77041047D02*
X127649619Y-76469619D01*
X127649619Y-76755333D02*
X128649619Y-76755333D01*
X128506761Y-76660095D01*
X128411523Y-76564857D01*
X128363904Y-76469619D01*
X128316285Y-77898190D02*
X127649619Y-77898190D01*
X128316285Y-77469619D02*
X127792476Y-77469619D01*
X127697238Y-77517238D01*
X127649619Y-77612476D01*
X127649619Y-77755333D01*
X127697238Y-77850571D01*
X127744857Y-77898190D01*
X128173428Y-78707714D02*
X128173428Y-78374380D01*
X127649619Y-78374380D02*
X128649619Y-78374380D01*
X128649619Y-78850571D01*
G04 #@! TO.C,C9*
X126627142Y-38314380D02*
X126722380Y-38314380D01*
X126817619Y-38362000D01*
X126865238Y-38409619D01*
X126912857Y-38504857D01*
X126960476Y-38695333D01*
X126960476Y-38933428D01*
X126912857Y-39123904D01*
X126865238Y-39219142D01*
X126817619Y-39266761D01*
X126722380Y-39314380D01*
X126627142Y-39314380D01*
X126531904Y-39266761D01*
X126484285Y-39219142D01*
X126436666Y-39123904D01*
X126389047Y-38933428D01*
X126389047Y-38695333D01*
X126436666Y-38504857D01*
X126484285Y-38409619D01*
X126531904Y-38362000D01*
X126627142Y-38314380D01*
X127389047Y-39219142D02*
X127436666Y-39266761D01*
X127389047Y-39314380D01*
X127341428Y-39266761D01*
X127389047Y-39219142D01*
X127389047Y-39314380D01*
X128389047Y-39314380D02*
X127817619Y-39314380D01*
X128103333Y-39314380D02*
X128103333Y-38314380D01*
X128008095Y-38457238D01*
X127912857Y-38552476D01*
X127817619Y-38600095D01*
X129246190Y-38647714D02*
X129246190Y-39314380D01*
X128817619Y-38647714D02*
X128817619Y-39171523D01*
X128865238Y-39266761D01*
X128960476Y-39314380D01*
X129103333Y-39314380D01*
X129198571Y-39266761D01*
X129246190Y-39219142D01*
X130055714Y-38790571D02*
X129722380Y-38790571D01*
X129722380Y-39314380D02*
X129722380Y-38314380D01*
X130198571Y-38314380D01*
G04 #@! TO.C,R4*
X43219619Y-169291333D02*
X43219619Y-168815142D01*
X42743428Y-168767523D01*
X42791047Y-168815142D01*
X42838666Y-168910380D01*
X42838666Y-169148476D01*
X42791047Y-169243714D01*
X42743428Y-169291333D01*
X42648190Y-169338952D01*
X42410095Y-169338952D01*
X42314857Y-169291333D01*
X42267238Y-169243714D01*
X42219619Y-169148476D01*
X42219619Y-168910380D01*
X42267238Y-168815142D01*
X42314857Y-168767523D01*
X42219619Y-170291333D02*
X42219619Y-169719904D01*
X42219619Y-170005619D02*
X43219619Y-170005619D01*
X43076761Y-169910380D01*
X42981523Y-169815142D01*
X42933904Y-169719904D01*
X43219619Y-170910380D02*
X43219619Y-171005619D01*
X43172000Y-171100857D01*
X43124380Y-171148476D01*
X43029142Y-171196095D01*
X42838666Y-171243714D01*
X42600571Y-171243714D01*
X42410095Y-171196095D01*
X42314857Y-171148476D01*
X42267238Y-171100857D01*
X42219619Y-171005619D01*
X42219619Y-170910380D01*
X42267238Y-170815142D01*
X42314857Y-170767523D01*
X42410095Y-170719904D01*
X42600571Y-170672285D01*
X42838666Y-170672285D01*
X43029142Y-170719904D01*
X43124380Y-170767523D01*
X43172000Y-170815142D01*
X43219619Y-170910380D01*
X42219619Y-172577047D02*
X42267238Y-172481809D01*
X42314857Y-172434190D01*
X42410095Y-172386571D01*
X42695809Y-172386571D01*
X42791047Y-172434190D01*
X42838666Y-172481809D01*
X42886285Y-172577047D01*
X42886285Y-172719904D01*
X42838666Y-172815142D01*
X42791047Y-172862761D01*
X42695809Y-172910380D01*
X42410095Y-172910380D01*
X42314857Y-172862761D01*
X42267238Y-172815142D01*
X42219619Y-172719904D01*
X42219619Y-172577047D01*
X42219619Y-173338952D02*
X43219619Y-173338952D01*
X42219619Y-173767523D02*
X42743428Y-173767523D01*
X42838666Y-173719904D01*
X42886285Y-173624666D01*
X42886285Y-173481809D01*
X42838666Y-173386571D01*
X42791047Y-173338952D01*
X42219619Y-174243714D02*
X42886285Y-174243714D01*
X42791047Y-174243714D02*
X42838666Y-174291333D01*
X42886285Y-174386571D01*
X42886285Y-174529428D01*
X42838666Y-174624666D01*
X42743428Y-174672285D01*
X42219619Y-174672285D01*
X42743428Y-174672285D02*
X42838666Y-174719904D01*
X42886285Y-174815142D01*
X42886285Y-174958000D01*
X42838666Y-175053238D01*
X42743428Y-175100857D01*
X42219619Y-175100857D01*
G04 #@! TO.C,R2*
X46267619Y-169291333D02*
X46267619Y-168815142D01*
X45791428Y-168767523D01*
X45839047Y-168815142D01*
X45886666Y-168910380D01*
X45886666Y-169148476D01*
X45839047Y-169243714D01*
X45791428Y-169291333D01*
X45696190Y-169338952D01*
X45458095Y-169338952D01*
X45362857Y-169291333D01*
X45315238Y-169243714D01*
X45267619Y-169148476D01*
X45267619Y-168910380D01*
X45315238Y-168815142D01*
X45362857Y-168767523D01*
X45267619Y-170291333D02*
X45267619Y-169719904D01*
X45267619Y-170005619D02*
X46267619Y-170005619D01*
X46124761Y-169910380D01*
X46029523Y-169815142D01*
X45981904Y-169719904D01*
X46267619Y-170910380D02*
X46267619Y-171005619D01*
X46220000Y-171100857D01*
X46172380Y-171148476D01*
X46077142Y-171196095D01*
X45886666Y-171243714D01*
X45648571Y-171243714D01*
X45458095Y-171196095D01*
X45362857Y-171148476D01*
X45315238Y-171100857D01*
X45267619Y-171005619D01*
X45267619Y-170910380D01*
X45315238Y-170815142D01*
X45362857Y-170767523D01*
X45458095Y-170719904D01*
X45648571Y-170672285D01*
X45886666Y-170672285D01*
X46077142Y-170719904D01*
X46172380Y-170767523D01*
X46220000Y-170815142D01*
X46267619Y-170910380D01*
X45267619Y-172577047D02*
X45315238Y-172481809D01*
X45362857Y-172434190D01*
X45458095Y-172386571D01*
X45743809Y-172386571D01*
X45839047Y-172434190D01*
X45886666Y-172481809D01*
X45934285Y-172577047D01*
X45934285Y-172719904D01*
X45886666Y-172815142D01*
X45839047Y-172862761D01*
X45743809Y-172910380D01*
X45458095Y-172910380D01*
X45362857Y-172862761D01*
X45315238Y-172815142D01*
X45267619Y-172719904D01*
X45267619Y-172577047D01*
X45267619Y-173338952D02*
X46267619Y-173338952D01*
X45267619Y-173767523D02*
X45791428Y-173767523D01*
X45886666Y-173719904D01*
X45934285Y-173624666D01*
X45934285Y-173481809D01*
X45886666Y-173386571D01*
X45839047Y-173338952D01*
X45267619Y-174243714D02*
X45934285Y-174243714D01*
X45839047Y-174243714D02*
X45886666Y-174291333D01*
X45934285Y-174386571D01*
X45934285Y-174529428D01*
X45886666Y-174624666D01*
X45791428Y-174672285D01*
X45267619Y-174672285D01*
X45791428Y-174672285D02*
X45886666Y-174719904D01*
X45934285Y-174815142D01*
X45934285Y-174958000D01*
X45886666Y-175053238D01*
X45791428Y-175100857D01*
X45267619Y-175100857D01*
G04 #@! TO.C,R18*
X26614380Y-157813714D02*
X26662000Y-157861333D01*
X26709619Y-157956571D01*
X26709619Y-158194666D01*
X26662000Y-158289904D01*
X26614380Y-158337523D01*
X26519142Y-158385142D01*
X26423904Y-158385142D01*
X26281047Y-158337523D01*
X25709619Y-157766095D01*
X25709619Y-158385142D01*
X26709619Y-158718476D02*
X26709619Y-159385142D01*
X25709619Y-158956571D01*
X25709619Y-160670857D02*
X25757238Y-160575619D01*
X25804857Y-160528000D01*
X25900095Y-160480380D01*
X26185809Y-160480380D01*
X26281047Y-160528000D01*
X26328666Y-160575619D01*
X26376285Y-160670857D01*
X26376285Y-160813714D01*
X26328666Y-160908952D01*
X26281047Y-160956571D01*
X26185809Y-161004190D01*
X25900095Y-161004190D01*
X25804857Y-160956571D01*
X25757238Y-160908952D01*
X25709619Y-160813714D01*
X25709619Y-160670857D01*
X25709619Y-161432761D02*
X26709619Y-161432761D01*
X25709619Y-161861333D02*
X26233428Y-161861333D01*
X26328666Y-161813714D01*
X26376285Y-161718476D01*
X26376285Y-161575619D01*
X26328666Y-161480380D01*
X26281047Y-161432761D01*
X25709619Y-162337523D02*
X26376285Y-162337523D01*
X26281047Y-162337523D02*
X26328666Y-162385142D01*
X26376285Y-162480380D01*
X26376285Y-162623238D01*
X26328666Y-162718476D01*
X26233428Y-162766095D01*
X25709619Y-162766095D01*
X26233428Y-162766095D02*
X26328666Y-162813714D01*
X26376285Y-162908952D01*
X26376285Y-163051809D01*
X26328666Y-163147047D01*
X26233428Y-163194666D01*
X25709619Y-163194666D01*
G04 #@! TO.C,R17*
X63444380Y-163147714D02*
X63492000Y-163195333D01*
X63539619Y-163290571D01*
X63539619Y-163528666D01*
X63492000Y-163623904D01*
X63444380Y-163671523D01*
X63349142Y-163719142D01*
X63253904Y-163719142D01*
X63111047Y-163671523D01*
X62539619Y-163100095D01*
X62539619Y-163719142D01*
X63539619Y-164052476D02*
X63539619Y-164719142D01*
X62539619Y-164290571D01*
X62539619Y-166004857D02*
X62587238Y-165909619D01*
X62634857Y-165862000D01*
X62730095Y-165814380D01*
X63015809Y-165814380D01*
X63111047Y-165862000D01*
X63158666Y-165909619D01*
X63206285Y-166004857D01*
X63206285Y-166147714D01*
X63158666Y-166242952D01*
X63111047Y-166290571D01*
X63015809Y-166338190D01*
X62730095Y-166338190D01*
X62634857Y-166290571D01*
X62587238Y-166242952D01*
X62539619Y-166147714D01*
X62539619Y-166004857D01*
X62539619Y-166766761D02*
X63539619Y-166766761D01*
X62539619Y-167195333D02*
X63063428Y-167195333D01*
X63158666Y-167147714D01*
X63206285Y-167052476D01*
X63206285Y-166909619D01*
X63158666Y-166814380D01*
X63111047Y-166766761D01*
X62539619Y-167671523D02*
X63206285Y-167671523D01*
X63111047Y-167671523D02*
X63158666Y-167719142D01*
X63206285Y-167814380D01*
X63206285Y-167957238D01*
X63158666Y-168052476D01*
X63063428Y-168100095D01*
X62539619Y-168100095D01*
X63063428Y-168100095D02*
X63158666Y-168147714D01*
X63206285Y-168242952D01*
X63206285Y-168385809D01*
X63158666Y-168481047D01*
X63063428Y-168528666D01*
X62539619Y-168528666D01*
G04 #@! TO.C,R14*
X23566380Y-157813714D02*
X23614000Y-157861333D01*
X23661619Y-157956571D01*
X23661619Y-158194666D01*
X23614000Y-158289904D01*
X23566380Y-158337523D01*
X23471142Y-158385142D01*
X23375904Y-158385142D01*
X23233047Y-158337523D01*
X22661619Y-157766095D01*
X22661619Y-158385142D01*
X23661619Y-158718476D02*
X23661619Y-159385142D01*
X22661619Y-158956571D01*
X22661619Y-160670857D02*
X22709238Y-160575619D01*
X22756857Y-160528000D01*
X22852095Y-160480380D01*
X23137809Y-160480380D01*
X23233047Y-160528000D01*
X23280666Y-160575619D01*
X23328285Y-160670857D01*
X23328285Y-160813714D01*
X23280666Y-160908952D01*
X23233047Y-160956571D01*
X23137809Y-161004190D01*
X22852095Y-161004190D01*
X22756857Y-160956571D01*
X22709238Y-160908952D01*
X22661619Y-160813714D01*
X22661619Y-160670857D01*
X22661619Y-161432761D02*
X23661619Y-161432761D01*
X22661619Y-161861333D02*
X23185428Y-161861333D01*
X23280666Y-161813714D01*
X23328285Y-161718476D01*
X23328285Y-161575619D01*
X23280666Y-161480380D01*
X23233047Y-161432761D01*
X22661619Y-162337523D02*
X23328285Y-162337523D01*
X23233047Y-162337523D02*
X23280666Y-162385142D01*
X23328285Y-162480380D01*
X23328285Y-162623238D01*
X23280666Y-162718476D01*
X23185428Y-162766095D01*
X22661619Y-162766095D01*
X23185428Y-162766095D02*
X23280666Y-162813714D01*
X23328285Y-162908952D01*
X23328285Y-163051809D01*
X23280666Y-163147047D01*
X23185428Y-163194666D01*
X22661619Y-163194666D01*
G04 #@! TO.C,R5*
X119372380Y-144978380D02*
X118800952Y-144978380D01*
X119086666Y-144978380D02*
X119086666Y-143978380D01*
X118991428Y-144121238D01*
X118896190Y-144216476D01*
X118800952Y-144264095D01*
X119991428Y-143978380D02*
X120086666Y-143978380D01*
X120181904Y-144026000D01*
X120229523Y-144073619D01*
X120277142Y-144168857D01*
X120324761Y-144359333D01*
X120324761Y-144597428D01*
X120277142Y-144787904D01*
X120229523Y-144883142D01*
X120181904Y-144930761D01*
X120086666Y-144978380D01*
X119991428Y-144978380D01*
X119896190Y-144930761D01*
X119848571Y-144883142D01*
X119800952Y-144787904D01*
X119753333Y-144597428D01*
X119753333Y-144359333D01*
X119800952Y-144168857D01*
X119848571Y-144073619D01*
X119896190Y-144026000D01*
X119991428Y-143978380D01*
X120753333Y-144978380D02*
X120753333Y-143978380D01*
X120848571Y-144597428D02*
X121134285Y-144978380D01*
X121134285Y-144311714D02*
X120753333Y-144692666D01*
X122467619Y-144978380D02*
X122372380Y-144930761D01*
X122324761Y-144883142D01*
X122277142Y-144787904D01*
X122277142Y-144502190D01*
X122324761Y-144406952D01*
X122372380Y-144359333D01*
X122467619Y-144311714D01*
X122610476Y-144311714D01*
X122705714Y-144359333D01*
X122753333Y-144406952D01*
X122800952Y-144502190D01*
X122800952Y-144787904D01*
X122753333Y-144883142D01*
X122705714Y-144930761D01*
X122610476Y-144978380D01*
X122467619Y-144978380D01*
X123229523Y-144978380D02*
X123229523Y-143978380D01*
X123658095Y-144978380D02*
X123658095Y-144454571D01*
X123610476Y-144359333D01*
X123515238Y-144311714D01*
X123372380Y-144311714D01*
X123277142Y-144359333D01*
X123229523Y-144406952D01*
X124134285Y-144978380D02*
X124134285Y-144311714D01*
X124134285Y-144406952D02*
X124181904Y-144359333D01*
X124277142Y-144311714D01*
X124420000Y-144311714D01*
X124515238Y-144359333D01*
X124562857Y-144454571D01*
X124562857Y-144978380D01*
X124562857Y-144454571D02*
X124610476Y-144359333D01*
X124705714Y-144311714D01*
X124848571Y-144311714D01*
X124943809Y-144359333D01*
X124991428Y-144454571D01*
X124991428Y-144978380D01*
G04 #@! TO.C,R3*
X66492380Y-163147714D02*
X66540000Y-163195333D01*
X66587619Y-163290571D01*
X66587619Y-163528666D01*
X66540000Y-163623904D01*
X66492380Y-163671523D01*
X66397142Y-163719142D01*
X66301904Y-163719142D01*
X66159047Y-163671523D01*
X65587619Y-163100095D01*
X65587619Y-163719142D01*
X66587619Y-164052476D02*
X66587619Y-164719142D01*
X65587619Y-164290571D01*
X65587619Y-166004857D02*
X65635238Y-165909619D01*
X65682857Y-165862000D01*
X65778095Y-165814380D01*
X66063809Y-165814380D01*
X66159047Y-165862000D01*
X66206666Y-165909619D01*
X66254285Y-166004857D01*
X66254285Y-166147714D01*
X66206666Y-166242952D01*
X66159047Y-166290571D01*
X66063809Y-166338190D01*
X65778095Y-166338190D01*
X65682857Y-166290571D01*
X65635238Y-166242952D01*
X65587619Y-166147714D01*
X65587619Y-166004857D01*
X65587619Y-166766761D02*
X66587619Y-166766761D01*
X65587619Y-167195333D02*
X66111428Y-167195333D01*
X66206666Y-167147714D01*
X66254285Y-167052476D01*
X66254285Y-166909619D01*
X66206666Y-166814380D01*
X66159047Y-166766761D01*
X65587619Y-167671523D02*
X66254285Y-167671523D01*
X66159047Y-167671523D02*
X66206666Y-167719142D01*
X66254285Y-167814380D01*
X66254285Y-167957238D01*
X66206666Y-168052476D01*
X66111428Y-168100095D01*
X65587619Y-168100095D01*
X66111428Y-168100095D02*
X66206666Y-168147714D01*
X66254285Y-168242952D01*
X66254285Y-168385809D01*
X66206666Y-168481047D01*
X66111428Y-168528666D01*
X65587619Y-168528666D01*
G04 #@! TO.C,U3*
X85129619Y-170212095D02*
X85129619Y-170831142D01*
X84748666Y-170497809D01*
X84748666Y-170640666D01*
X84701047Y-170735904D01*
X84653428Y-170783523D01*
X84558190Y-170831142D01*
X84320095Y-170831142D01*
X84224857Y-170783523D01*
X84177238Y-170735904D01*
X84129619Y-170640666D01*
X84129619Y-170354952D01*
X84177238Y-170259714D01*
X84224857Y-170212095D01*
X85129619Y-171164476D02*
X85129619Y-171783523D01*
X84748666Y-171450190D01*
X84748666Y-171593047D01*
X84701047Y-171688285D01*
X84653428Y-171735904D01*
X84558190Y-171783523D01*
X84320095Y-171783523D01*
X84224857Y-171735904D01*
X84177238Y-171688285D01*
X84129619Y-171593047D01*
X84129619Y-171307333D01*
X84177238Y-171212095D01*
X84224857Y-171164476D01*
X84129619Y-173116857D02*
X84177238Y-173021619D01*
X84224857Y-172974000D01*
X84320095Y-172926380D01*
X84605809Y-172926380D01*
X84701047Y-172974000D01*
X84748666Y-173021619D01*
X84796285Y-173116857D01*
X84796285Y-173259714D01*
X84748666Y-173354952D01*
X84701047Y-173402571D01*
X84605809Y-173450190D01*
X84320095Y-173450190D01*
X84224857Y-173402571D01*
X84177238Y-173354952D01*
X84129619Y-173259714D01*
X84129619Y-173116857D01*
X84129619Y-173878761D02*
X85129619Y-173878761D01*
X84129619Y-174307333D02*
X84653428Y-174307333D01*
X84748666Y-174259714D01*
X84796285Y-174164476D01*
X84796285Y-174021619D01*
X84748666Y-173926380D01*
X84701047Y-173878761D01*
X84129619Y-174783523D02*
X84796285Y-174783523D01*
X84701047Y-174783523D02*
X84748666Y-174831142D01*
X84796285Y-174926380D01*
X84796285Y-175069238D01*
X84748666Y-175164476D01*
X84653428Y-175212095D01*
X84129619Y-175212095D01*
X84653428Y-175212095D02*
X84748666Y-175259714D01*
X84796285Y-175354952D01*
X84796285Y-175497809D01*
X84748666Y-175593047D01*
X84653428Y-175640666D01*
X84129619Y-175640666D01*
G04 #@! TO.C,J6*
X123222095Y-177534380D02*
X123222095Y-176534380D01*
X123603047Y-176534380D01*
X123698285Y-176582000D01*
X123745904Y-176629619D01*
X123793523Y-176724857D01*
X123793523Y-176867714D01*
X123745904Y-176962952D01*
X123698285Y-177010571D01*
X123603047Y-177058190D01*
X123222095Y-177058190D01*
X124126857Y-176534380D02*
X124364952Y-177534380D01*
X124555428Y-176820095D01*
X124745904Y-177534380D01*
X124984000Y-176534380D01*
X125936380Y-177534380D02*
X125603047Y-177058190D01*
X125364952Y-177534380D02*
X125364952Y-176534380D01*
X125745904Y-176534380D01*
X125841142Y-176582000D01*
X125888761Y-176629619D01*
X125936380Y-176724857D01*
X125936380Y-176867714D01*
X125888761Y-176962952D01*
X125841142Y-177010571D01*
X125745904Y-177058190D01*
X125364952Y-177058190D01*
X127317333Y-176534380D02*
X127507809Y-176534380D01*
X127603047Y-176582000D01*
X127698285Y-176677238D01*
X127745904Y-176867714D01*
X127745904Y-177201047D01*
X127698285Y-177391523D01*
X127603047Y-177486761D01*
X127507809Y-177534380D01*
X127317333Y-177534380D01*
X127222095Y-177486761D01*
X127126857Y-177391523D01*
X127079238Y-177201047D01*
X127079238Y-176867714D01*
X127126857Y-176677238D01*
X127222095Y-176582000D01*
X127317333Y-176534380D01*
X128174476Y-177534380D02*
X128174476Y-176534380D01*
X128745904Y-177534380D01*
X128745904Y-176534380D01*
G04 #@! TO.C,J3*
X123174285Y-184046761D02*
X123317142Y-184094380D01*
X123555238Y-184094380D01*
X123650476Y-184046761D01*
X123698095Y-183999142D01*
X123745714Y-183903904D01*
X123745714Y-183808666D01*
X123698095Y-183713428D01*
X123650476Y-183665809D01*
X123555238Y-183618190D01*
X123364761Y-183570571D01*
X123269523Y-183522952D01*
X123221904Y-183475333D01*
X123174285Y-183380095D01*
X123174285Y-183284857D01*
X123221904Y-183189619D01*
X123269523Y-183142000D01*
X123364761Y-183094380D01*
X123602857Y-183094380D01*
X123745714Y-183142000D01*
X124174285Y-184094380D02*
X124174285Y-183094380D01*
X124555238Y-183094380D01*
X124650476Y-183142000D01*
X124698095Y-183189619D01*
X124745714Y-183284857D01*
X124745714Y-183427714D01*
X124698095Y-183522952D01*
X124650476Y-183570571D01*
X124555238Y-183618190D01*
X124174285Y-183618190D01*
X125174285Y-184094380D02*
X125174285Y-183094380D01*
X125745714Y-184094380D02*
X125317142Y-183522952D01*
X125745714Y-183094380D02*
X125174285Y-183665809D01*
G04 #@! TO.C,C1*
X97163142Y-73112380D02*
X97258380Y-73112380D01*
X97353619Y-73160000D01*
X97401238Y-73207619D01*
X97448857Y-73302857D01*
X97496476Y-73493333D01*
X97496476Y-73731428D01*
X97448857Y-73921904D01*
X97401238Y-74017142D01*
X97353619Y-74064761D01*
X97258380Y-74112380D01*
X97163142Y-74112380D01*
X97067904Y-74064761D01*
X97020285Y-74017142D01*
X96972666Y-73921904D01*
X96925047Y-73731428D01*
X96925047Y-73493333D01*
X96972666Y-73302857D01*
X97020285Y-73207619D01*
X97067904Y-73160000D01*
X97163142Y-73112380D01*
X97925047Y-74017142D02*
X97972666Y-74064761D01*
X97925047Y-74112380D01*
X97877428Y-74064761D01*
X97925047Y-74017142D01*
X97925047Y-74112380D01*
X98925047Y-74112380D02*
X98353619Y-74112380D01*
X98639333Y-74112380D02*
X98639333Y-73112380D01*
X98544095Y-73255238D01*
X98448857Y-73350476D01*
X98353619Y-73398095D01*
X99782190Y-73445714D02*
X99782190Y-74112380D01*
X99353619Y-73445714D02*
X99353619Y-73969523D01*
X99401238Y-74064761D01*
X99496476Y-74112380D01*
X99639333Y-74112380D01*
X99734571Y-74064761D01*
X99782190Y-74017142D01*
X100591714Y-73588571D02*
X100258380Y-73588571D01*
X100258380Y-74112380D02*
X100258380Y-73112380D01*
X100734571Y-73112380D01*
G04 #@! TO.C,U117*
X71556952Y-177804380D02*
X72223619Y-177804380D01*
X71795047Y-178804380D01*
X73033142Y-178137714D02*
X73033142Y-178804380D01*
X72795047Y-177756761D02*
X72556952Y-178471047D01*
X73176000Y-178471047D01*
X74033142Y-178804380D02*
X73556952Y-178804380D01*
X73556952Y-177804380D01*
X74318857Y-178756761D02*
X74461714Y-178804380D01*
X74699809Y-178804380D01*
X74795047Y-178756761D01*
X74842666Y-178709142D01*
X74890285Y-178613904D01*
X74890285Y-178518666D01*
X74842666Y-178423428D01*
X74795047Y-178375809D01*
X74699809Y-178328190D01*
X74509333Y-178280571D01*
X74414095Y-178232952D01*
X74366476Y-178185333D01*
X74318857Y-178090095D01*
X74318857Y-177994857D01*
X74366476Y-177899619D01*
X74414095Y-177852000D01*
X74509333Y-177804380D01*
X74747428Y-177804380D01*
X74890285Y-177852000D01*
X75842666Y-178804380D02*
X75271238Y-178804380D01*
X75556952Y-178804380D02*
X75556952Y-177804380D01*
X75461714Y-177947238D01*
X75366476Y-178042476D01*
X75271238Y-178090095D01*
X76176000Y-177804380D02*
X76795047Y-177804380D01*
X76461714Y-178185333D01*
X76604571Y-178185333D01*
X76699809Y-178232952D01*
X76747428Y-178280571D01*
X76795047Y-178375809D01*
X76795047Y-178613904D01*
X76747428Y-178709142D01*
X76699809Y-178756761D01*
X76604571Y-178804380D01*
X76318857Y-178804380D01*
X76223619Y-178756761D01*
X76176000Y-178709142D01*
X77271238Y-178804380D02*
X77461714Y-178804380D01*
X77556952Y-178756761D01*
X77604571Y-178709142D01*
X77699809Y-178566285D01*
X77747428Y-178375809D01*
X77747428Y-177994857D01*
X77699809Y-177899619D01*
X77652190Y-177852000D01*
X77556952Y-177804380D01*
X77366476Y-177804380D01*
X77271238Y-177852000D01*
X77223619Y-177899619D01*
X77176000Y-177994857D01*
X77176000Y-178232952D01*
X77223619Y-178328190D01*
X77271238Y-178375809D01*
X77366476Y-178423428D01*
X77556952Y-178423428D01*
X77652190Y-178375809D01*
X77699809Y-178328190D01*
X77747428Y-178232952D01*
G04 #@! TO.C,SW1*
X134631619Y-166410380D02*
X134298285Y-165934190D01*
X134060190Y-166410380D02*
X134060190Y-165410380D01*
X134441142Y-165410380D01*
X134536380Y-165458000D01*
X134584000Y-165505619D01*
X134631619Y-165600857D01*
X134631619Y-165743714D01*
X134584000Y-165838952D01*
X134536380Y-165886571D01*
X134441142Y-165934190D01*
X134060190Y-165934190D01*
X135060190Y-165886571D02*
X135393523Y-165886571D01*
X135536380Y-166410380D02*
X135060190Y-166410380D01*
X135060190Y-165410380D01*
X135536380Y-165410380D01*
X135917333Y-166362761D02*
X136060190Y-166410380D01*
X136298285Y-166410380D01*
X136393523Y-166362761D01*
X136441142Y-166315142D01*
X136488761Y-166219904D01*
X136488761Y-166124666D01*
X136441142Y-166029428D01*
X136393523Y-165981809D01*
X136298285Y-165934190D01*
X136107809Y-165886571D01*
X136012571Y-165838952D01*
X135964952Y-165791333D01*
X135917333Y-165696095D01*
X135917333Y-165600857D01*
X135964952Y-165505619D01*
X136012571Y-165458000D01*
X136107809Y-165410380D01*
X136345904Y-165410380D01*
X136488761Y-165458000D01*
X136917333Y-165886571D02*
X137250666Y-165886571D01*
X137393523Y-166410380D02*
X136917333Y-166410380D01*
X136917333Y-165410380D01*
X137393523Y-165410380D01*
X137679238Y-165410380D02*
X138250666Y-165410380D01*
X137964952Y-166410380D02*
X137964952Y-165410380D01*
G04 #@! TO.C,R1*
X118237333Y-105624380D02*
X117761142Y-105624380D01*
X117713523Y-106100571D01*
X117761142Y-106052952D01*
X117856380Y-106005333D01*
X118094476Y-106005333D01*
X118189714Y-106052952D01*
X118237333Y-106100571D01*
X118284952Y-106195809D01*
X118284952Y-106433904D01*
X118237333Y-106529142D01*
X118189714Y-106576761D01*
X118094476Y-106624380D01*
X117856380Y-106624380D01*
X117761142Y-106576761D01*
X117713523Y-106529142D01*
X119237333Y-106624380D02*
X118665904Y-106624380D01*
X118951619Y-106624380D02*
X118951619Y-105624380D01*
X118856380Y-105767238D01*
X118761142Y-105862476D01*
X118665904Y-105910095D01*
X119856380Y-105624380D02*
X119951619Y-105624380D01*
X120046857Y-105672000D01*
X120094476Y-105719619D01*
X120142095Y-105814857D01*
X120189714Y-106005333D01*
X120189714Y-106243428D01*
X120142095Y-106433904D01*
X120094476Y-106529142D01*
X120046857Y-106576761D01*
X119951619Y-106624380D01*
X119856380Y-106624380D01*
X119761142Y-106576761D01*
X119713523Y-106529142D01*
X119665904Y-106433904D01*
X119618285Y-106243428D01*
X119618285Y-106005333D01*
X119665904Y-105814857D01*
X119713523Y-105719619D01*
X119761142Y-105672000D01*
X119856380Y-105624380D01*
X121523047Y-106624380D02*
X121427809Y-106576761D01*
X121380190Y-106529142D01*
X121332571Y-106433904D01*
X121332571Y-106148190D01*
X121380190Y-106052952D01*
X121427809Y-106005333D01*
X121523047Y-105957714D01*
X121665904Y-105957714D01*
X121761142Y-106005333D01*
X121808761Y-106052952D01*
X121856380Y-106148190D01*
X121856380Y-106433904D01*
X121808761Y-106529142D01*
X121761142Y-106576761D01*
X121665904Y-106624380D01*
X121523047Y-106624380D01*
X122284952Y-106624380D02*
X122284952Y-105624380D01*
X122713523Y-106624380D02*
X122713523Y-106100571D01*
X122665904Y-106005333D01*
X122570666Y-105957714D01*
X122427809Y-105957714D01*
X122332571Y-106005333D01*
X122284952Y-106052952D01*
X123189714Y-106624380D02*
X123189714Y-105957714D01*
X123189714Y-106052952D02*
X123237333Y-106005333D01*
X123332571Y-105957714D01*
X123475428Y-105957714D01*
X123570666Y-106005333D01*
X123618285Y-106100571D01*
X123618285Y-106624380D01*
X123618285Y-106100571D02*
X123665904Y-106005333D01*
X123761142Y-105957714D01*
X123904000Y-105957714D01*
X123999238Y-106005333D01*
X124046857Y-106100571D01*
X124046857Y-106624380D01*
G04 #@! TO.C,D1*
X121134476Y-114498380D02*
X121134476Y-113498380D01*
X121515428Y-113498380D01*
X121610666Y-113546000D01*
X121658285Y-113593619D01*
X121705904Y-113688857D01*
X121705904Y-113831714D01*
X121658285Y-113926952D01*
X121610666Y-113974571D01*
X121515428Y-114022190D01*
X121134476Y-114022190D01*
X122324952Y-113498380D02*
X122515428Y-113498380D01*
X122610666Y-113546000D01*
X122705904Y-113641238D01*
X122753523Y-113831714D01*
X122753523Y-114165047D01*
X122705904Y-114355523D01*
X122610666Y-114450761D01*
X122515428Y-114498380D01*
X122324952Y-114498380D01*
X122229714Y-114450761D01*
X122134476Y-114355523D01*
X122086857Y-114165047D01*
X122086857Y-113831714D01*
X122134476Y-113641238D01*
X122229714Y-113546000D01*
X122324952Y-113498380D01*
X123086857Y-113498380D02*
X123324952Y-114498380D01*
X123515428Y-113784095D01*
X123705904Y-114498380D01*
X123944000Y-113498380D01*
X124324952Y-113974571D02*
X124658285Y-113974571D01*
X124801142Y-114498380D02*
X124324952Y-114498380D01*
X124324952Y-113498380D01*
X124801142Y-113498380D01*
X125801142Y-114498380D02*
X125467809Y-114022190D01*
X125229714Y-114498380D02*
X125229714Y-113498380D01*
X125610666Y-113498380D01*
X125705904Y-113546000D01*
X125753523Y-113593619D01*
X125801142Y-113688857D01*
X125801142Y-113831714D01*
X125753523Y-113926952D01*
X125705904Y-113974571D01*
X125610666Y-114022190D01*
X125229714Y-114022190D01*
G04 #@! TO.C,C7*
X97163142Y-38060380D02*
X97258380Y-38060380D01*
X97353619Y-38108000D01*
X97401238Y-38155619D01*
X97448857Y-38250857D01*
X97496476Y-38441333D01*
X97496476Y-38679428D01*
X97448857Y-38869904D01*
X97401238Y-38965142D01*
X97353619Y-39012761D01*
X97258380Y-39060380D01*
X97163142Y-39060380D01*
X97067904Y-39012761D01*
X97020285Y-38965142D01*
X96972666Y-38869904D01*
X96925047Y-38679428D01*
X96925047Y-38441333D01*
X96972666Y-38250857D01*
X97020285Y-38155619D01*
X97067904Y-38108000D01*
X97163142Y-38060380D01*
X97925047Y-38965142D02*
X97972666Y-39012761D01*
X97925047Y-39060380D01*
X97877428Y-39012761D01*
X97925047Y-38965142D01*
X97925047Y-39060380D01*
X98925047Y-39060380D02*
X98353619Y-39060380D01*
X98639333Y-39060380D02*
X98639333Y-38060380D01*
X98544095Y-38203238D01*
X98448857Y-38298476D01*
X98353619Y-38346095D01*
X99782190Y-38393714D02*
X99782190Y-39060380D01*
X99353619Y-38393714D02*
X99353619Y-38917523D01*
X99401238Y-39012761D01*
X99496476Y-39060380D01*
X99639333Y-39060380D01*
X99734571Y-39012761D01*
X99782190Y-38965142D01*
X100591714Y-38536571D02*
X100258380Y-38536571D01*
X100258380Y-39060380D02*
X100258380Y-38060380D01*
X100734571Y-38060380D01*
G04 #@! TO.C,8x8mm1*
X132620095Y-178078380D02*
X132620095Y-177078380D01*
X133001047Y-177078380D01*
X133096285Y-177126000D01*
X133143904Y-177173619D01*
X133191523Y-177268857D01*
X133191523Y-177411714D01*
X133143904Y-177506952D01*
X133096285Y-177554571D01*
X133001047Y-177602190D01*
X132620095Y-177602190D01*
X133524857Y-177078380D02*
X133762952Y-178078380D01*
X133953428Y-177364095D01*
X134143904Y-178078380D01*
X134382000Y-177078380D01*
X135334380Y-178078380D02*
X135001047Y-177602190D01*
X134762952Y-178078380D02*
X134762952Y-177078380D01*
X135143904Y-177078380D01*
X135239142Y-177126000D01*
X135286761Y-177173619D01*
X135334380Y-177268857D01*
X135334380Y-177411714D01*
X135286761Y-177506952D01*
X135239142Y-177554571D01*
X135143904Y-177602190D01*
X134762952Y-177602190D01*
X136477238Y-178030761D02*
X136620095Y-178078380D01*
X136858190Y-178078380D01*
X136953428Y-178030761D01*
X137001047Y-177983142D01*
X137048666Y-177887904D01*
X137048666Y-177792666D01*
X137001047Y-177697428D01*
X136953428Y-177649809D01*
X136858190Y-177602190D01*
X136667714Y-177554571D01*
X136572476Y-177506952D01*
X136524857Y-177459333D01*
X136477238Y-177364095D01*
X136477238Y-177268857D01*
X136524857Y-177173619D01*
X136572476Y-177126000D01*
X136667714Y-177078380D01*
X136905809Y-177078380D01*
X137048666Y-177126000D01*
X137382000Y-177078380D02*
X137620095Y-178078380D01*
X137810571Y-177364095D01*
X138001047Y-178078380D01*
X138239142Y-177078380D01*
G04 #@! TO.C,ATXPOWER1*
X130556095Y-111815619D02*
X130603714Y-111768000D01*
X130698952Y-111720380D01*
X130937047Y-111720380D01*
X131032285Y-111768000D01*
X131079904Y-111815619D01*
X131127523Y-111910857D01*
X131127523Y-112006095D01*
X131079904Y-112148952D01*
X130508476Y-112720380D01*
X131127523Y-112720380D01*
X131746571Y-111720380D02*
X131841809Y-111720380D01*
X131937047Y-111768000D01*
X131984666Y-111815619D01*
X132032285Y-111910857D01*
X132079904Y-112101333D01*
X132079904Y-112339428D01*
X132032285Y-112529904D01*
X131984666Y-112625142D01*
X131937047Y-112672761D01*
X131841809Y-112720380D01*
X131746571Y-112720380D01*
X131651333Y-112672761D01*
X131603714Y-112625142D01*
X131556095Y-112529904D01*
X131508476Y-112339428D01*
X131508476Y-112101333D01*
X131556095Y-111910857D01*
X131603714Y-111815619D01*
X131651333Y-111768000D01*
X131746571Y-111720380D01*
X130556095Y-109783619D02*
X130603714Y-109736000D01*
X130698952Y-109688380D01*
X130937047Y-109688380D01*
X131032285Y-109736000D01*
X131079904Y-109783619D01*
X131127523Y-109878857D01*
X131127523Y-109974095D01*
X131079904Y-110116952D01*
X130508476Y-110688380D01*
X131127523Y-110688380D01*
X131984666Y-110021714D02*
X131984666Y-110688380D01*
X131746571Y-109640761D02*
X131508476Y-110355047D01*
X132127523Y-110355047D01*
G04 #@! TO.C,C29*
X36996619Y-116427142D02*
X36996619Y-116522380D01*
X36949000Y-116617619D01*
X36901380Y-116665238D01*
X36806142Y-116712857D01*
X36615666Y-116760476D01*
X36377571Y-116760476D01*
X36187095Y-116712857D01*
X36091857Y-116665238D01*
X36044238Y-116617619D01*
X35996619Y-116522380D01*
X35996619Y-116427142D01*
X36044238Y-116331904D01*
X36091857Y-116284285D01*
X36187095Y-116236666D01*
X36377571Y-116189047D01*
X36615666Y-116189047D01*
X36806142Y-116236666D01*
X36901380Y-116284285D01*
X36949000Y-116331904D01*
X36996619Y-116427142D01*
X36091857Y-117189047D02*
X36044238Y-117236666D01*
X35996619Y-117189047D01*
X36044238Y-117141428D01*
X36091857Y-117189047D01*
X35996619Y-117189047D01*
X35996619Y-118189047D02*
X35996619Y-117617619D01*
X35996619Y-117903333D02*
X36996619Y-117903333D01*
X36853761Y-117808095D01*
X36758523Y-117712857D01*
X36710904Y-117617619D01*
X36663285Y-119046190D02*
X35996619Y-119046190D01*
X36663285Y-118617619D02*
X36139476Y-118617619D01*
X36044238Y-118665238D01*
X35996619Y-118760476D01*
X35996619Y-118903333D01*
X36044238Y-118998571D01*
X36091857Y-119046190D01*
X36520428Y-119855714D02*
X36520428Y-119522380D01*
X35996619Y-119522380D02*
X36996619Y-119522380D01*
X36996619Y-119998571D01*
G04 #@! TO.C,C28*
X57316619Y-116467142D02*
X57316619Y-116562380D01*
X57269000Y-116657619D01*
X57221380Y-116705238D01*
X57126142Y-116752857D01*
X56935666Y-116800476D01*
X56697571Y-116800476D01*
X56507095Y-116752857D01*
X56411857Y-116705238D01*
X56364238Y-116657619D01*
X56316619Y-116562380D01*
X56316619Y-116467142D01*
X56364238Y-116371904D01*
X56411857Y-116324285D01*
X56507095Y-116276666D01*
X56697571Y-116229047D01*
X56935666Y-116229047D01*
X57126142Y-116276666D01*
X57221380Y-116324285D01*
X57269000Y-116371904D01*
X57316619Y-116467142D01*
X56411857Y-117229047D02*
X56364238Y-117276666D01*
X56316619Y-117229047D01*
X56364238Y-117181428D01*
X56411857Y-117229047D01*
X56316619Y-117229047D01*
X56316619Y-118229047D02*
X56316619Y-117657619D01*
X56316619Y-117943333D02*
X57316619Y-117943333D01*
X57173761Y-117848095D01*
X57078523Y-117752857D01*
X57030904Y-117657619D01*
X56983285Y-119086190D02*
X56316619Y-119086190D01*
X56983285Y-118657619D02*
X56459476Y-118657619D01*
X56364238Y-118705238D01*
X56316619Y-118800476D01*
X56316619Y-118943333D01*
X56364238Y-119038571D01*
X56411857Y-119086190D01*
X56840428Y-119895714D02*
X56840428Y-119562380D01*
X56316619Y-119562380D02*
X57316619Y-119562380D01*
X57316619Y-120038571D01*
G04 #@! TO.C,C26*
X77636619Y-116467142D02*
X77636619Y-116562380D01*
X77589000Y-116657619D01*
X77541380Y-116705238D01*
X77446142Y-116752857D01*
X77255666Y-116800476D01*
X77017571Y-116800476D01*
X76827095Y-116752857D01*
X76731857Y-116705238D01*
X76684238Y-116657619D01*
X76636619Y-116562380D01*
X76636619Y-116467142D01*
X76684238Y-116371904D01*
X76731857Y-116324285D01*
X76827095Y-116276666D01*
X77017571Y-116229047D01*
X77255666Y-116229047D01*
X77446142Y-116276666D01*
X77541380Y-116324285D01*
X77589000Y-116371904D01*
X77636619Y-116467142D01*
X76731857Y-117229047D02*
X76684238Y-117276666D01*
X76636619Y-117229047D01*
X76684238Y-117181428D01*
X76731857Y-117229047D01*
X76636619Y-117229047D01*
X76636619Y-118229047D02*
X76636619Y-117657619D01*
X76636619Y-117943333D02*
X77636619Y-117943333D01*
X77493761Y-117848095D01*
X77398523Y-117752857D01*
X77350904Y-117657619D01*
X77303285Y-119086190D02*
X76636619Y-119086190D01*
X77303285Y-118657619D02*
X76779476Y-118657619D01*
X76684238Y-118705238D01*
X76636619Y-118800476D01*
X76636619Y-118943333D01*
X76684238Y-119038571D01*
X76731857Y-119086190D01*
X77160428Y-119895714D02*
X77160428Y-119562380D01*
X76636619Y-119562380D02*
X77636619Y-119562380D01*
X77636619Y-120038571D01*
G04 #@! TO.C,C25*
X36955619Y-45561142D02*
X36955619Y-45656380D01*
X36908000Y-45751619D01*
X36860380Y-45799238D01*
X36765142Y-45846857D01*
X36574666Y-45894476D01*
X36336571Y-45894476D01*
X36146095Y-45846857D01*
X36050857Y-45799238D01*
X36003238Y-45751619D01*
X35955619Y-45656380D01*
X35955619Y-45561142D01*
X36003238Y-45465904D01*
X36050857Y-45418285D01*
X36146095Y-45370666D01*
X36336571Y-45323047D01*
X36574666Y-45323047D01*
X36765142Y-45370666D01*
X36860380Y-45418285D01*
X36908000Y-45465904D01*
X36955619Y-45561142D01*
X36050857Y-46323047D02*
X36003238Y-46370666D01*
X35955619Y-46323047D01*
X36003238Y-46275428D01*
X36050857Y-46323047D01*
X35955619Y-46323047D01*
X35955619Y-47323047D02*
X35955619Y-46751619D01*
X35955619Y-47037333D02*
X36955619Y-47037333D01*
X36812761Y-46942095D01*
X36717523Y-46846857D01*
X36669904Y-46751619D01*
X36622285Y-48180190D02*
X35955619Y-48180190D01*
X36622285Y-47751619D02*
X36098476Y-47751619D01*
X36003238Y-47799238D01*
X35955619Y-47894476D01*
X35955619Y-48037333D01*
X36003238Y-48132571D01*
X36050857Y-48180190D01*
X36479428Y-48989714D02*
X36479428Y-48656380D01*
X35955619Y-48656380D02*
X36955619Y-48656380D01*
X36955619Y-49132571D01*
G04 #@! TO.C,C24*
X-28916380Y-45561142D02*
X-28916380Y-45656380D01*
X-28964000Y-45751619D01*
X-29011619Y-45799238D01*
X-29106857Y-45846857D01*
X-29297333Y-45894476D01*
X-29535428Y-45894476D01*
X-29725904Y-45846857D01*
X-29821142Y-45799238D01*
X-29868761Y-45751619D01*
X-29916380Y-45656380D01*
X-29916380Y-45561142D01*
X-29868761Y-45465904D01*
X-29821142Y-45418285D01*
X-29725904Y-45370666D01*
X-29535428Y-45323047D01*
X-29297333Y-45323047D01*
X-29106857Y-45370666D01*
X-29011619Y-45418285D01*
X-28964000Y-45465904D01*
X-28916380Y-45561142D01*
X-29821142Y-46323047D02*
X-29868761Y-46370666D01*
X-29916380Y-46323047D01*
X-29868761Y-46275428D01*
X-29821142Y-46323047D01*
X-29916380Y-46323047D01*
X-29916380Y-47323047D02*
X-29916380Y-46751619D01*
X-29916380Y-47037333D02*
X-28916380Y-47037333D01*
X-29059238Y-46942095D01*
X-29154476Y-46846857D01*
X-29202095Y-46751619D01*
X-29249714Y-48180190D02*
X-29916380Y-48180190D01*
X-29249714Y-47751619D02*
X-29773523Y-47751619D01*
X-29868761Y-47799238D01*
X-29916380Y-47894476D01*
X-29916380Y-48037333D01*
X-29868761Y-48132571D01*
X-29821142Y-48180190D01*
X-29392571Y-48989714D02*
X-29392571Y-48656380D01*
X-29916380Y-48656380D02*
X-28916380Y-48656380D01*
X-28916380Y-49132571D01*
G04 #@! TO.C,C23*
X77595619Y-45561142D02*
X77595619Y-45656380D01*
X77548000Y-45751619D01*
X77500380Y-45799238D01*
X77405142Y-45846857D01*
X77214666Y-45894476D01*
X76976571Y-45894476D01*
X76786095Y-45846857D01*
X76690857Y-45799238D01*
X76643238Y-45751619D01*
X76595619Y-45656380D01*
X76595619Y-45561142D01*
X76643238Y-45465904D01*
X76690857Y-45418285D01*
X76786095Y-45370666D01*
X76976571Y-45323047D01*
X77214666Y-45323047D01*
X77405142Y-45370666D01*
X77500380Y-45418285D01*
X77548000Y-45465904D01*
X77595619Y-45561142D01*
X76690857Y-46323047D02*
X76643238Y-46370666D01*
X76595619Y-46323047D01*
X76643238Y-46275428D01*
X76690857Y-46323047D01*
X76595619Y-46323047D01*
X76595619Y-47323047D02*
X76595619Y-46751619D01*
X76595619Y-47037333D02*
X77595619Y-47037333D01*
X77452761Y-46942095D01*
X77357523Y-46846857D01*
X77309904Y-46751619D01*
X77262285Y-48180190D02*
X76595619Y-48180190D01*
X77262285Y-47751619D02*
X76738476Y-47751619D01*
X76643238Y-47799238D01*
X76595619Y-47894476D01*
X76595619Y-48037333D01*
X76643238Y-48132571D01*
X76690857Y-48180190D01*
X77119428Y-48989714D02*
X77119428Y-48656380D01*
X76595619Y-48656380D02*
X77595619Y-48656380D01*
X77595619Y-49132571D01*
G04 #@! TO.C,C22*
X57275619Y-45561142D02*
X57275619Y-45656380D01*
X57228000Y-45751619D01*
X57180380Y-45799238D01*
X57085142Y-45846857D01*
X56894666Y-45894476D01*
X56656571Y-45894476D01*
X56466095Y-45846857D01*
X56370857Y-45799238D01*
X56323238Y-45751619D01*
X56275619Y-45656380D01*
X56275619Y-45561142D01*
X56323238Y-45465904D01*
X56370857Y-45418285D01*
X56466095Y-45370666D01*
X56656571Y-45323047D01*
X56894666Y-45323047D01*
X57085142Y-45370666D01*
X57180380Y-45418285D01*
X57228000Y-45465904D01*
X57275619Y-45561142D01*
X56370857Y-46323047D02*
X56323238Y-46370666D01*
X56275619Y-46323047D01*
X56323238Y-46275428D01*
X56370857Y-46323047D01*
X56275619Y-46323047D01*
X56275619Y-47323047D02*
X56275619Y-46751619D01*
X56275619Y-47037333D02*
X57275619Y-47037333D01*
X57132761Y-46942095D01*
X57037523Y-46846857D01*
X56989904Y-46751619D01*
X56942285Y-48180190D02*
X56275619Y-48180190D01*
X56942285Y-47751619D02*
X56418476Y-47751619D01*
X56323238Y-47799238D01*
X56275619Y-47894476D01*
X56275619Y-48037333D01*
X56323238Y-48132571D01*
X56370857Y-48180190D01*
X56799428Y-48989714D02*
X56799428Y-48656380D01*
X56275619Y-48656380D02*
X57275619Y-48656380D01*
X57275619Y-49132571D01*
G04 #@! TO.C,J2*
X128121304Y-19908780D02*
X128121304Y-18908780D01*
X128454638Y-19623066D01*
X128787971Y-18908780D01*
X128787971Y-19908780D01*
X129264161Y-19908780D02*
X129264161Y-19242114D01*
X129264161Y-18908780D02*
X129216542Y-18956400D01*
X129264161Y-19004019D01*
X129311780Y-18956400D01*
X129264161Y-18908780D01*
X129264161Y-19004019D01*
X129740352Y-19242114D02*
X129740352Y-19908780D01*
X129740352Y-19337352D02*
X129787971Y-19289733D01*
X129883209Y-19242114D01*
X130026066Y-19242114D01*
X130121304Y-19289733D01*
X130168923Y-19384971D01*
X130168923Y-19908780D01*
X130645114Y-19908780D02*
X130645114Y-19242114D01*
X130645114Y-18908780D02*
X130597495Y-18956400D01*
X130645114Y-19004019D01*
X130692733Y-18956400D01*
X130645114Y-18908780D01*
X130645114Y-19004019D01*
X131121304Y-19527828D02*
X131883209Y-19527828D01*
X132359400Y-19908780D02*
X132359400Y-18908780D01*
X132597495Y-18908780D01*
X132740352Y-18956400D01*
X132835590Y-19051638D01*
X132883209Y-19146876D01*
X132930828Y-19337352D01*
X132930828Y-19480209D01*
X132883209Y-19670685D01*
X132835590Y-19765923D01*
X132740352Y-19861161D01*
X132597495Y-19908780D01*
X132359400Y-19908780D01*
X133359400Y-19908780D02*
X133359400Y-18908780D01*
X133835590Y-19908780D02*
X133835590Y-18908780D01*
X134407019Y-19908780D01*
X134407019Y-18908780D01*
X134883209Y-19527828D02*
X135645114Y-19527828D01*
X136549876Y-18908780D02*
X136359400Y-18908780D01*
X136264161Y-18956400D01*
X136216542Y-19004019D01*
X136121304Y-19146876D01*
X136073685Y-19337352D01*
X136073685Y-19718304D01*
X136121304Y-19813542D01*
X136168923Y-19861161D01*
X136264161Y-19908780D01*
X136454638Y-19908780D01*
X136549876Y-19861161D01*
X136597495Y-19813542D01*
X136645114Y-19718304D01*
X136645114Y-19480209D01*
X136597495Y-19384971D01*
X136549876Y-19337352D01*
X136454638Y-19289733D01*
X136264161Y-19289733D01*
X136168923Y-19337352D01*
X136121304Y-19384971D01*
X136073685Y-19480209D01*
G04 #@! TO.C,*
G04 #@! TO.C,U17*
X91876952Y-177804380D02*
X92543619Y-177804380D01*
X92115047Y-178804380D01*
X93353142Y-178137714D02*
X93353142Y-178804380D01*
X93115047Y-177756761D02*
X92876952Y-178471047D01*
X93496000Y-178471047D01*
X94353142Y-178804380D02*
X93876952Y-178804380D01*
X93876952Y-177804380D01*
X94638857Y-178756761D02*
X94781714Y-178804380D01*
X95019809Y-178804380D01*
X95115047Y-178756761D01*
X95162666Y-178709142D01*
X95210285Y-178613904D01*
X95210285Y-178518666D01*
X95162666Y-178423428D01*
X95115047Y-178375809D01*
X95019809Y-178328190D01*
X94829333Y-178280571D01*
X94734095Y-178232952D01*
X94686476Y-178185333D01*
X94638857Y-178090095D01*
X94638857Y-177994857D01*
X94686476Y-177899619D01*
X94734095Y-177852000D01*
X94829333Y-177804380D01*
X95067428Y-177804380D01*
X95210285Y-177852000D01*
X96162666Y-178804380D02*
X95591238Y-178804380D01*
X95876952Y-178804380D02*
X95876952Y-177804380D01*
X95781714Y-177947238D01*
X95686476Y-178042476D01*
X95591238Y-178090095D01*
X96496000Y-177804380D02*
X97115047Y-177804380D01*
X96781714Y-178185333D01*
X96924571Y-178185333D01*
X97019809Y-178232952D01*
X97067428Y-178280571D01*
X97115047Y-178375809D01*
X97115047Y-178613904D01*
X97067428Y-178709142D01*
X97019809Y-178756761D01*
X96924571Y-178804380D01*
X96638857Y-178804380D01*
X96543619Y-178756761D01*
X96496000Y-178709142D01*
X97591238Y-178804380D02*
X97781714Y-178804380D01*
X97876952Y-178756761D01*
X97924571Y-178709142D01*
X98019809Y-178566285D01*
X98067428Y-178375809D01*
X98067428Y-177994857D01*
X98019809Y-177899619D01*
X97972190Y-177852000D01*
X97876952Y-177804380D01*
X97686476Y-177804380D01*
X97591238Y-177852000D01*
X97543619Y-177899619D01*
X97496000Y-177994857D01*
X97496000Y-178232952D01*
X97543619Y-178328190D01*
X97591238Y-178375809D01*
X97686476Y-178423428D01*
X97876952Y-178423428D01*
X97972190Y-178375809D01*
X98019809Y-178328190D01*
X98067428Y-178232952D01*
G04 #@! TO.C,R*
X23423523Y-40838380D02*
X23090190Y-40362190D01*
X22852095Y-40838380D02*
X22852095Y-39838380D01*
X23233047Y-39838380D01*
X23328285Y-39886000D01*
X23375904Y-39933619D01*
X23423523Y-40028857D01*
X23423523Y-40171714D01*
X23375904Y-40266952D01*
X23328285Y-40314571D01*
X23233047Y-40362190D01*
X22852095Y-40362190D01*
G04 #@! TO.C,*
G04 #@! TO.C,CH376*
X133993142Y-94889142D02*
X133945523Y-94936761D01*
X133802666Y-94984380D01*
X133707428Y-94984380D01*
X133564571Y-94936761D01*
X133469333Y-94841523D01*
X133421714Y-94746285D01*
X133374095Y-94555809D01*
X133374095Y-94412952D01*
X133421714Y-94222476D01*
X133469333Y-94127238D01*
X133564571Y-94032000D01*
X133707428Y-93984380D01*
X133802666Y-93984380D01*
X133945523Y-94032000D01*
X133993142Y-94079619D01*
X134421714Y-94984380D02*
X134421714Y-93984380D01*
X134421714Y-94460571D02*
X134993142Y-94460571D01*
X134993142Y-94984380D02*
X134993142Y-93984380D01*
X135374095Y-93984380D02*
X135993142Y-93984380D01*
X135659809Y-94365333D01*
X135802666Y-94365333D01*
X135897904Y-94412952D01*
X135945523Y-94460571D01*
X135993142Y-94555809D01*
X135993142Y-94793904D01*
X135945523Y-94889142D01*
X135897904Y-94936761D01*
X135802666Y-94984380D01*
X135516952Y-94984380D01*
X135421714Y-94936761D01*
X135374095Y-94889142D01*
X136326476Y-93984380D02*
X136993142Y-93984380D01*
X136564571Y-94984380D01*
X137802666Y-93984380D02*
X137612190Y-93984380D01*
X137516952Y-94032000D01*
X137469333Y-94079619D01*
X137374095Y-94222476D01*
X137326476Y-94412952D01*
X137326476Y-94793904D01*
X137374095Y-94889142D01*
X137421714Y-94936761D01*
X137516952Y-94984380D01*
X137707428Y-94984380D01*
X137802666Y-94936761D01*
X137850285Y-94889142D01*
X137897904Y-94793904D01*
X137897904Y-94555809D01*
X137850285Y-94460571D01*
X137802666Y-94412952D01*
X137707428Y-94365333D01*
X137516952Y-94365333D01*
X137421714Y-94412952D01*
X137374095Y-94460571D01*
X137326476Y-94555809D01*
X130357619Y-81161428D02*
X131357619Y-81161428D01*
X131357619Y-81542380D01*
X131310000Y-81637619D01*
X131262380Y-81685238D01*
X131167142Y-81732857D01*
X131024285Y-81732857D01*
X130929047Y-81685238D01*
X130881428Y-81637619D01*
X130833809Y-81542380D01*
X130833809Y-81161428D01*
X131357619Y-82351904D02*
X131357619Y-82542380D01*
X131310000Y-82637619D01*
X131214761Y-82732857D01*
X131024285Y-82780476D01*
X130690952Y-82780476D01*
X130500476Y-82732857D01*
X130405238Y-82637619D01*
X130357619Y-82542380D01*
X130357619Y-82351904D01*
X130405238Y-82256666D01*
X130500476Y-82161428D01*
X130690952Y-82113809D01*
X131024285Y-82113809D01*
X131214761Y-82161428D01*
X131310000Y-82256666D01*
X131357619Y-82351904D01*
X130357619Y-83780476D02*
X130833809Y-83447142D01*
X130357619Y-83209047D02*
X131357619Y-83209047D01*
X131357619Y-83590000D01*
X131310000Y-83685238D01*
X131262380Y-83732857D01*
X131167142Y-83780476D01*
X131024285Y-83780476D01*
X130929047Y-83732857D01*
X130881428Y-83685238D01*
X130833809Y-83590000D01*
X130833809Y-83209047D01*
X131357619Y-84066190D02*
X131357619Y-84637619D01*
X130357619Y-84351904D02*
X131357619Y-84351904D01*
X131357619Y-85923333D02*
X131357619Y-86018571D01*
X131310000Y-86113809D01*
X131262380Y-86161428D01*
X131167142Y-86209047D01*
X130976666Y-86256666D01*
X130738571Y-86256666D01*
X130548095Y-86209047D01*
X130452857Y-86161428D01*
X130405238Y-86113809D01*
X130357619Y-86018571D01*
X130357619Y-85923333D01*
X130405238Y-85828095D01*
X130452857Y-85780476D01*
X130548095Y-85732857D01*
X130738571Y-85685238D01*
X130976666Y-85685238D01*
X131167142Y-85732857D01*
X131262380Y-85780476D01*
X131310000Y-85828095D01*
X131357619Y-85923333D01*
X131357619Y-86590000D02*
X130357619Y-87256666D01*
X131357619Y-87256666D02*
X130357619Y-86590000D01*
X130881428Y-87637619D02*
X130881428Y-87970952D01*
X130357619Y-88113809D02*
X130357619Y-87637619D01*
X131357619Y-87637619D01*
X131357619Y-88113809D01*
X131357619Y-88732857D02*
X131357619Y-88828095D01*
X131310000Y-88923333D01*
X131262380Y-88970952D01*
X131167142Y-89018571D01*
X130976666Y-89066190D01*
X130738571Y-89066190D01*
X130548095Y-89018571D01*
X130452857Y-88970952D01*
X130405238Y-88923333D01*
X130357619Y-88828095D01*
X130357619Y-88732857D01*
X130405238Y-88637619D01*
X130452857Y-88590000D01*
X130548095Y-88542380D01*
X130738571Y-88494761D01*
X130976666Y-88494761D01*
X131167142Y-88542380D01*
X131262380Y-88590000D01*
X131310000Y-88637619D01*
X131357619Y-88732857D01*
G04 #@! TO.C,U9*
X-9723047Y-175264380D02*
X-9056380Y-175264380D01*
X-9484952Y-176264380D01*
X-8246857Y-175597714D02*
X-8246857Y-176264380D01*
X-8484952Y-175216761D02*
X-8723047Y-175931047D01*
X-8103999Y-175931047D01*
X-7246857Y-176264380D02*
X-7723047Y-176264380D01*
X-7723047Y-175264380D01*
X-6961142Y-176216761D02*
X-6818285Y-176264380D01*
X-6580190Y-176264380D01*
X-6484952Y-176216761D01*
X-6437333Y-176169142D01*
X-6389714Y-176073904D01*
X-6389714Y-175978666D01*
X-6437333Y-175883428D01*
X-6484952Y-175835809D01*
X-6580190Y-175788190D01*
X-6770666Y-175740571D01*
X-6865904Y-175692952D01*
X-6913523Y-175645333D01*
X-6961142Y-175550095D01*
X-6961142Y-175454857D01*
X-6913523Y-175359619D01*
X-6865904Y-175312000D01*
X-6770666Y-175264380D01*
X-6532571Y-175264380D01*
X-6389714Y-175312000D01*
X-5437333Y-176264380D02*
X-6008761Y-176264380D01*
X-5723047Y-176264380D02*
X-5723047Y-175264380D01*
X-5818285Y-175407238D01*
X-5913523Y-175502476D01*
X-6008761Y-175550095D01*
X-5104000Y-175264380D02*
X-4484952Y-175264380D01*
X-4818285Y-175645333D01*
X-4675428Y-175645333D01*
X-4580190Y-175692952D01*
X-4532571Y-175740571D01*
X-4484952Y-175835809D01*
X-4484952Y-176073904D01*
X-4532571Y-176169142D01*
X-4580190Y-176216761D01*
X-4675428Y-176264380D01*
X-4961142Y-176264380D01*
X-5056380Y-176216761D01*
X-5104000Y-176169142D01*
X-3913523Y-175692952D02*
X-4008761Y-175645333D01*
X-4056380Y-175597714D01*
X-4104000Y-175502476D01*
X-4104000Y-175454857D01*
X-4056380Y-175359619D01*
X-4008761Y-175312000D01*
X-3913523Y-175264380D01*
X-3723047Y-175264380D01*
X-3627809Y-175312000D01*
X-3580190Y-175359619D01*
X-3532571Y-175454857D01*
X-3532571Y-175502476D01*
X-3580190Y-175597714D01*
X-3627809Y-175645333D01*
X-3723047Y-175692952D01*
X-3913523Y-175692952D01*
X-4008761Y-175740571D01*
X-4056380Y-175788190D01*
X-4104000Y-175883428D01*
X-4104000Y-176073904D01*
X-4056380Y-176169142D01*
X-4008761Y-176216761D01*
X-3913523Y-176264380D01*
X-3723047Y-176264380D01*
X-3627809Y-176216761D01*
X-3580190Y-176169142D01*
X-3532571Y-176073904D01*
X-3532571Y-175883428D01*
X-3580190Y-175788190D01*
X-3627809Y-175740571D01*
X-3723047Y-175692952D01*
G04 #@! TO.C,U11*
X32512190Y-178232952D02*
X32416952Y-178185333D01*
X32369333Y-178137714D01*
X32321714Y-178042476D01*
X32321714Y-177994857D01*
X32369333Y-177899619D01*
X32416952Y-177852000D01*
X32512190Y-177804380D01*
X32702666Y-177804380D01*
X32797904Y-177852000D01*
X32845523Y-177899619D01*
X32893142Y-177994857D01*
X32893142Y-178042476D01*
X32845523Y-178137714D01*
X32797904Y-178185333D01*
X32702666Y-178232952D01*
X32512190Y-178232952D01*
X32416952Y-178280571D01*
X32369333Y-178328190D01*
X32321714Y-178423428D01*
X32321714Y-178613904D01*
X32369333Y-178709142D01*
X32416952Y-178756761D01*
X32512190Y-178804380D01*
X32702666Y-178804380D01*
X32797904Y-178756761D01*
X32845523Y-178709142D01*
X32893142Y-178613904D01*
X32893142Y-178423428D01*
X32845523Y-178328190D01*
X32797904Y-178280571D01*
X32702666Y-178232952D01*
X33274095Y-177899619D02*
X33321714Y-177852000D01*
X33416952Y-177804380D01*
X33655047Y-177804380D01*
X33750285Y-177852000D01*
X33797904Y-177899619D01*
X33845523Y-177994857D01*
X33845523Y-178090095D01*
X33797904Y-178232952D01*
X33226476Y-178804380D01*
X33845523Y-178804380D01*
X34416952Y-178232952D02*
X34321714Y-178185333D01*
X34274095Y-178137714D01*
X34226476Y-178042476D01*
X34226476Y-177994857D01*
X34274095Y-177899619D01*
X34321714Y-177852000D01*
X34416952Y-177804380D01*
X34607428Y-177804380D01*
X34702666Y-177852000D01*
X34750285Y-177899619D01*
X34797904Y-177994857D01*
X34797904Y-178042476D01*
X34750285Y-178137714D01*
X34702666Y-178185333D01*
X34607428Y-178232952D01*
X34416952Y-178232952D01*
X34321714Y-178280571D01*
X34274095Y-178328190D01*
X34226476Y-178423428D01*
X34226476Y-178613904D01*
X34274095Y-178709142D01*
X34321714Y-178756761D01*
X34416952Y-178804380D01*
X34607428Y-178804380D01*
X34702666Y-178756761D01*
X34750285Y-178709142D01*
X34797904Y-178613904D01*
X34797904Y-178423428D01*
X34750285Y-178328190D01*
X34702666Y-178280571D01*
X34607428Y-178232952D01*
X35655047Y-178137714D02*
X35655047Y-178804380D01*
X35416952Y-177756761D02*
X35178857Y-178471047D01*
X35797904Y-178471047D01*
G04 #@! TO.C,U12*
X10596952Y-175264380D02*
X11263619Y-175264380D01*
X10835047Y-176264380D01*
X12073142Y-175597714D02*
X12073142Y-176264380D01*
X11835047Y-175216761D02*
X11596952Y-175931047D01*
X12216000Y-175931047D01*
X13073142Y-176264380D02*
X12596952Y-176264380D01*
X12596952Y-175264380D01*
X13358857Y-176216761D02*
X13501714Y-176264380D01*
X13739809Y-176264380D01*
X13835047Y-176216761D01*
X13882666Y-176169142D01*
X13930285Y-176073904D01*
X13930285Y-175978666D01*
X13882666Y-175883428D01*
X13835047Y-175835809D01*
X13739809Y-175788190D01*
X13549333Y-175740571D01*
X13454095Y-175692952D01*
X13406476Y-175645333D01*
X13358857Y-175550095D01*
X13358857Y-175454857D01*
X13406476Y-175359619D01*
X13454095Y-175312000D01*
X13549333Y-175264380D01*
X13787428Y-175264380D01*
X13930285Y-175312000D01*
X14882666Y-176264380D02*
X14311238Y-176264380D01*
X14596952Y-176264380D02*
X14596952Y-175264380D01*
X14501714Y-175407238D01*
X14406476Y-175502476D01*
X14311238Y-175550095D01*
X15216000Y-175264380D02*
X15835047Y-175264380D01*
X15501714Y-175645333D01*
X15644571Y-175645333D01*
X15739809Y-175692952D01*
X15787428Y-175740571D01*
X15835047Y-175835809D01*
X15835047Y-176073904D01*
X15787428Y-176169142D01*
X15739809Y-176216761D01*
X15644571Y-176264380D01*
X15358857Y-176264380D01*
X15263619Y-176216761D01*
X15216000Y-176169142D01*
X16406476Y-175692952D02*
X16311238Y-175645333D01*
X16263619Y-175597714D01*
X16216000Y-175502476D01*
X16216000Y-175454857D01*
X16263619Y-175359619D01*
X16311238Y-175312000D01*
X16406476Y-175264380D01*
X16596952Y-175264380D01*
X16692190Y-175312000D01*
X16739809Y-175359619D01*
X16787428Y-175454857D01*
X16787428Y-175502476D01*
X16739809Y-175597714D01*
X16692190Y-175645333D01*
X16596952Y-175692952D01*
X16406476Y-175692952D01*
X16311238Y-175740571D01*
X16263619Y-175788190D01*
X16216000Y-175883428D01*
X16216000Y-176073904D01*
X16263619Y-176169142D01*
X16311238Y-176216761D01*
X16406476Y-176264380D01*
X16596952Y-176264380D01*
X16692190Y-176216761D01*
X16739809Y-176169142D01*
X16787428Y-176073904D01*
X16787428Y-175883428D01*
X16739809Y-175788190D01*
X16692190Y-175740571D01*
X16596952Y-175692952D01*
G04 #@! TO.C,U13*
X51236952Y-149864380D02*
X51903619Y-149864380D01*
X51475047Y-150864380D01*
X52713142Y-150197714D02*
X52713142Y-150864380D01*
X52475047Y-149816761D02*
X52236952Y-150531047D01*
X52856000Y-150531047D01*
X53713142Y-150864380D02*
X53236952Y-150864380D01*
X53236952Y-149864380D01*
X53998857Y-150816761D02*
X54141714Y-150864380D01*
X54379809Y-150864380D01*
X54475047Y-150816761D01*
X54522666Y-150769142D01*
X54570285Y-150673904D01*
X54570285Y-150578666D01*
X54522666Y-150483428D01*
X54475047Y-150435809D01*
X54379809Y-150388190D01*
X54189333Y-150340571D01*
X54094095Y-150292952D01*
X54046476Y-150245333D01*
X53998857Y-150150095D01*
X53998857Y-150054857D01*
X54046476Y-149959619D01*
X54094095Y-149912000D01*
X54189333Y-149864380D01*
X54427428Y-149864380D01*
X54570285Y-149912000D01*
X55522666Y-150864380D02*
X54951238Y-150864380D01*
X55236952Y-150864380D02*
X55236952Y-149864380D01*
X55141714Y-150007238D01*
X55046476Y-150102476D01*
X54951238Y-150150095D01*
X55856000Y-149864380D02*
X56475047Y-149864380D01*
X56141714Y-150245333D01*
X56284571Y-150245333D01*
X56379809Y-150292952D01*
X56427428Y-150340571D01*
X56475047Y-150435809D01*
X56475047Y-150673904D01*
X56427428Y-150769142D01*
X56379809Y-150816761D01*
X56284571Y-150864380D01*
X55998857Y-150864380D01*
X55903619Y-150816761D01*
X55856000Y-150769142D01*
X57046476Y-150292952D02*
X56951238Y-150245333D01*
X56903619Y-150197714D01*
X56856000Y-150102476D01*
X56856000Y-150054857D01*
X56903619Y-149959619D01*
X56951238Y-149912000D01*
X57046476Y-149864380D01*
X57236952Y-149864380D01*
X57332190Y-149912000D01*
X57379809Y-149959619D01*
X57427428Y-150054857D01*
X57427428Y-150102476D01*
X57379809Y-150197714D01*
X57332190Y-150245333D01*
X57236952Y-150292952D01*
X57046476Y-150292952D01*
X56951238Y-150340571D01*
X56903619Y-150388190D01*
X56856000Y-150483428D01*
X56856000Y-150673904D01*
X56903619Y-150769142D01*
X56951238Y-150816761D01*
X57046476Y-150864380D01*
X57236952Y-150864380D01*
X57332190Y-150816761D01*
X57379809Y-150769142D01*
X57427428Y-150673904D01*
X57427428Y-150483428D01*
X57379809Y-150388190D01*
X57332190Y-150340571D01*
X57236952Y-150292952D01*
G04 #@! TO.C,U14*
X51713142Y-175264380D02*
X52379809Y-175264380D01*
X51951238Y-176264380D01*
X53189333Y-175597714D02*
X53189333Y-176264380D01*
X52951238Y-175216761D02*
X52713142Y-175931047D01*
X53332190Y-175931047D01*
X54189333Y-176264380D02*
X53713142Y-176264380D01*
X53713142Y-175264380D01*
X54475047Y-176216761D02*
X54617904Y-176264380D01*
X54856000Y-176264380D01*
X54951238Y-176216761D01*
X54998857Y-176169142D01*
X55046476Y-176073904D01*
X55046476Y-175978666D01*
X54998857Y-175883428D01*
X54951238Y-175835809D01*
X54856000Y-175788190D01*
X54665523Y-175740571D01*
X54570285Y-175692952D01*
X54522666Y-175645333D01*
X54475047Y-175550095D01*
X54475047Y-175454857D01*
X54522666Y-175359619D01*
X54570285Y-175312000D01*
X54665523Y-175264380D01*
X54903619Y-175264380D01*
X55046476Y-175312000D01*
X55379809Y-175264380D02*
X56046476Y-175264380D01*
X55617904Y-176264380D01*
X56856000Y-175597714D02*
X56856000Y-176264380D01*
X56617904Y-175216761D02*
X56379809Y-175931047D01*
X56998857Y-175931047D01*
G04 #@! TO.C,U15*
X94416952Y-68584380D02*
X95083619Y-68584380D01*
X94655047Y-69584380D01*
X95893142Y-68917714D02*
X95893142Y-69584380D01*
X95655047Y-68536761D02*
X95416952Y-69251047D01*
X96036000Y-69251047D01*
X96893142Y-69584380D02*
X96416952Y-69584380D01*
X96416952Y-68584380D01*
X97178857Y-69536761D02*
X97321714Y-69584380D01*
X97559809Y-69584380D01*
X97655047Y-69536761D01*
X97702666Y-69489142D01*
X97750285Y-69393904D01*
X97750285Y-69298666D01*
X97702666Y-69203428D01*
X97655047Y-69155809D01*
X97559809Y-69108190D01*
X97369333Y-69060571D01*
X97274095Y-69012952D01*
X97226476Y-68965333D01*
X97178857Y-68870095D01*
X97178857Y-68774857D01*
X97226476Y-68679619D01*
X97274095Y-68632000D01*
X97369333Y-68584380D01*
X97607428Y-68584380D01*
X97750285Y-68632000D01*
X98655047Y-68584380D02*
X98178857Y-68584380D01*
X98131238Y-69060571D01*
X98178857Y-69012952D01*
X98274095Y-68965333D01*
X98512190Y-68965333D01*
X98607428Y-69012952D01*
X98655047Y-69060571D01*
X98702666Y-69155809D01*
X98702666Y-69393904D01*
X98655047Y-69489142D01*
X98607428Y-69536761D01*
X98512190Y-69584380D01*
X98274095Y-69584380D01*
X98178857Y-69536761D01*
X98131238Y-69489142D01*
X99036000Y-68584380D02*
X99702666Y-68584380D01*
X99274095Y-69584380D01*
X99988380Y-68584380D02*
X100607428Y-68584380D01*
X100274095Y-68965333D01*
X100416952Y-68965333D01*
X100512190Y-69012952D01*
X100559809Y-69060571D01*
X100607428Y-69155809D01*
X100607428Y-69393904D01*
X100559809Y-69489142D01*
X100512190Y-69536761D01*
X100416952Y-69584380D01*
X100131238Y-69584380D01*
X100036000Y-69536761D01*
X99988380Y-69489142D01*
G04 #@! TO.C,U16*
X92353142Y-147324380D02*
X93019809Y-147324380D01*
X92591238Y-148324380D01*
X93829333Y-147657714D02*
X93829333Y-148324380D01*
X93591238Y-147276761D02*
X93353142Y-147991047D01*
X93972190Y-147991047D01*
X94829333Y-148324380D02*
X94353142Y-148324380D01*
X94353142Y-147324380D01*
X95115047Y-148276761D02*
X95257904Y-148324380D01*
X95496000Y-148324380D01*
X95591238Y-148276761D01*
X95638857Y-148229142D01*
X95686476Y-148133904D01*
X95686476Y-148038666D01*
X95638857Y-147943428D01*
X95591238Y-147895809D01*
X95496000Y-147848190D01*
X95305523Y-147800571D01*
X95210285Y-147752952D01*
X95162666Y-147705333D01*
X95115047Y-147610095D01*
X95115047Y-147514857D01*
X95162666Y-147419619D01*
X95210285Y-147372000D01*
X95305523Y-147324380D01*
X95543619Y-147324380D01*
X95686476Y-147372000D01*
X96305523Y-147324380D02*
X96400761Y-147324380D01*
X96496000Y-147372000D01*
X96543619Y-147419619D01*
X96591238Y-147514857D01*
X96638857Y-147705333D01*
X96638857Y-147943428D01*
X96591238Y-148133904D01*
X96543619Y-148229142D01*
X96496000Y-148276761D01*
X96400761Y-148324380D01*
X96305523Y-148324380D01*
X96210285Y-148276761D01*
X96162666Y-148229142D01*
X96115047Y-148133904D01*
X96067428Y-147943428D01*
X96067428Y-147705333D01*
X96115047Y-147514857D01*
X96162666Y-147419619D01*
X96210285Y-147372000D01*
X96305523Y-147324380D01*
X97496000Y-147657714D02*
X97496000Y-148324380D01*
X97257904Y-147276761D02*
X97019809Y-147991047D01*
X97638857Y-147991047D01*
G04 #@! TO.C,Y2*
X40187619Y-154403523D02*
X40187619Y-153832095D01*
X40187619Y-154117809D02*
X41187619Y-154117809D01*
X41044761Y-154022571D01*
X40949523Y-153927333D01*
X40901904Y-153832095D01*
X40854285Y-155260666D02*
X40187619Y-155260666D01*
X41235238Y-155022571D02*
X40520952Y-154784476D01*
X40520952Y-155403523D01*
X40282857Y-155784476D02*
X40235238Y-155832095D01*
X40187619Y-155784476D01*
X40235238Y-155736857D01*
X40282857Y-155784476D01*
X40187619Y-155784476D01*
X41187619Y-156165428D02*
X41187619Y-156784476D01*
X40806666Y-156451142D01*
X40806666Y-156594000D01*
X40759047Y-156689238D01*
X40711428Y-156736857D01*
X40616190Y-156784476D01*
X40378095Y-156784476D01*
X40282857Y-156736857D01*
X40235238Y-156689238D01*
X40187619Y-156594000D01*
X40187619Y-156308285D01*
X40235238Y-156213047D01*
X40282857Y-156165428D01*
X40187619Y-157736857D02*
X40187619Y-157165428D01*
X40187619Y-157451142D02*
X41187619Y-157451142D01*
X41044761Y-157355904D01*
X40949523Y-157260666D01*
X40901904Y-157165428D01*
X40759047Y-158308285D02*
X40806666Y-158213047D01*
X40854285Y-158165428D01*
X40949523Y-158117809D01*
X40997142Y-158117809D01*
X41092380Y-158165428D01*
X41140000Y-158213047D01*
X41187619Y-158308285D01*
X41187619Y-158498761D01*
X41140000Y-158594000D01*
X41092380Y-158641619D01*
X40997142Y-158689238D01*
X40949523Y-158689238D01*
X40854285Y-158641619D01*
X40806666Y-158594000D01*
X40759047Y-158498761D01*
X40759047Y-158308285D01*
X40711428Y-158213047D01*
X40663809Y-158165428D01*
X40568571Y-158117809D01*
X40378095Y-158117809D01*
X40282857Y-158165428D01*
X40235238Y-158213047D01*
X40187619Y-158308285D01*
X40187619Y-158498761D01*
X40235238Y-158594000D01*
X40282857Y-158641619D01*
X40378095Y-158689238D01*
X40568571Y-158689238D01*
X40663809Y-158641619D01*
X40711428Y-158594000D01*
X40759047Y-158498761D01*
X40187619Y-159641619D02*
X40187619Y-159070190D01*
X40187619Y-159355904D02*
X41187619Y-159355904D01*
X41044761Y-159260666D01*
X40949523Y-159165428D01*
X40901904Y-159070190D01*
X40759047Y-160213047D02*
X40806666Y-160117809D01*
X40854285Y-160070190D01*
X40949523Y-160022571D01*
X40997142Y-160022571D01*
X41092380Y-160070190D01*
X41140000Y-160117809D01*
X41187619Y-160213047D01*
X41187619Y-160403523D01*
X41140000Y-160498761D01*
X41092380Y-160546380D01*
X40997142Y-160594000D01*
X40949523Y-160594000D01*
X40854285Y-160546380D01*
X40806666Y-160498761D01*
X40759047Y-160403523D01*
X40759047Y-160213047D01*
X40711428Y-160117809D01*
X40663809Y-160070190D01*
X40568571Y-160022571D01*
X40378095Y-160022571D01*
X40282857Y-160070190D01*
X40235238Y-160117809D01*
X40187619Y-160213047D01*
X40187619Y-160403523D01*
X40235238Y-160498761D01*
X40282857Y-160546380D01*
X40378095Y-160594000D01*
X40568571Y-160594000D01*
X40663809Y-160546380D01*
X40711428Y-160498761D01*
X40759047Y-160403523D01*
X40187619Y-161784476D02*
X41187619Y-161784476D01*
X40473333Y-162117809D01*
X41187619Y-162451142D01*
X40187619Y-162451142D01*
X40187619Y-162927333D02*
X41187619Y-162927333D01*
X40711428Y-162927333D02*
X40711428Y-163498761D01*
X40187619Y-163498761D02*
X41187619Y-163498761D01*
X40854285Y-163879714D02*
X40854285Y-164403523D01*
X40187619Y-163879714D01*
X40187619Y-164403523D01*
G04 #@! TO.C,U19*
X124587619Y-65462952D02*
X124492380Y-65415333D01*
X124444761Y-65367714D01*
X124397142Y-65272476D01*
X124397142Y-65224857D01*
X124444761Y-65129619D01*
X124492380Y-65082000D01*
X124587619Y-65034380D01*
X124778095Y-65034380D01*
X124873333Y-65082000D01*
X124920952Y-65129619D01*
X124968571Y-65224857D01*
X124968571Y-65272476D01*
X124920952Y-65367714D01*
X124873333Y-65415333D01*
X124778095Y-65462952D01*
X124587619Y-65462952D01*
X124492380Y-65510571D01*
X124444761Y-65558190D01*
X124397142Y-65653428D01*
X124397142Y-65843904D01*
X124444761Y-65939142D01*
X124492380Y-65986761D01*
X124587619Y-66034380D01*
X124778095Y-66034380D01*
X124873333Y-65986761D01*
X124920952Y-65939142D01*
X124968571Y-65843904D01*
X124968571Y-65653428D01*
X124920952Y-65558190D01*
X124873333Y-65510571D01*
X124778095Y-65462952D01*
X125349523Y-65129619D02*
X125397142Y-65082000D01*
X125492380Y-65034380D01*
X125730476Y-65034380D01*
X125825714Y-65082000D01*
X125873333Y-65129619D01*
X125920952Y-65224857D01*
X125920952Y-65320095D01*
X125873333Y-65462952D01*
X125301904Y-66034380D01*
X125920952Y-66034380D01*
X126920952Y-65939142D02*
X126873333Y-65986761D01*
X126730476Y-66034380D01*
X126635238Y-66034380D01*
X126492380Y-65986761D01*
X126397142Y-65891523D01*
X126349523Y-65796285D01*
X126301904Y-65605809D01*
X126301904Y-65462952D01*
X126349523Y-65272476D01*
X126397142Y-65177238D01*
X126492380Y-65082000D01*
X126635238Y-65034380D01*
X126730476Y-65034380D01*
X126873333Y-65082000D01*
X126920952Y-65129619D01*
X127778095Y-65367714D02*
X127778095Y-66034380D01*
X127540000Y-64986761D02*
X127301904Y-65701047D01*
X127920952Y-65701047D01*
X128254285Y-65129619D02*
X128301904Y-65082000D01*
X128397142Y-65034380D01*
X128635238Y-65034380D01*
X128730476Y-65082000D01*
X128778095Y-65129619D01*
X128825714Y-65224857D01*
X128825714Y-65320095D01*
X128778095Y-65462952D01*
X128206666Y-66034380D01*
X128825714Y-66034380D01*
X129968571Y-64986761D02*
X129111428Y-66272476D01*
X130444761Y-65462952D02*
X130349523Y-65415333D01*
X130301904Y-65367714D01*
X130254285Y-65272476D01*
X130254285Y-65224857D01*
X130301904Y-65129619D01*
X130349523Y-65082000D01*
X130444761Y-65034380D01*
X130635238Y-65034380D01*
X130730476Y-65082000D01*
X130778095Y-65129619D01*
X130825714Y-65224857D01*
X130825714Y-65272476D01*
X130778095Y-65367714D01*
X130730476Y-65415333D01*
X130635238Y-65462952D01*
X130444761Y-65462952D01*
X130349523Y-65510571D01*
X130301904Y-65558190D01*
X130254285Y-65653428D01*
X130254285Y-65843904D01*
X130301904Y-65939142D01*
X130349523Y-65986761D01*
X130444761Y-66034380D01*
X130635238Y-66034380D01*
X130730476Y-65986761D01*
X130778095Y-65939142D01*
X130825714Y-65843904D01*
X130825714Y-65653428D01*
X130778095Y-65558190D01*
X130730476Y-65510571D01*
X130635238Y-65462952D01*
X131159047Y-65034380D02*
X131778095Y-65034380D01*
X131444761Y-65415333D01*
X131587619Y-65415333D01*
X131682857Y-65462952D01*
X131730476Y-65510571D01*
X131778095Y-65605809D01*
X131778095Y-65843904D01*
X131730476Y-65939142D01*
X131682857Y-65986761D01*
X131587619Y-66034380D01*
X131301904Y-66034380D01*
X131206666Y-65986761D01*
X131159047Y-65939142D01*
X132778095Y-65939142D02*
X132730476Y-65986761D01*
X132587619Y-66034380D01*
X132492380Y-66034380D01*
X132349523Y-65986761D01*
X132254285Y-65891523D01*
X132206666Y-65796285D01*
X132159047Y-65605809D01*
X132159047Y-65462952D01*
X132206666Y-65272476D01*
X132254285Y-65177238D01*
X132349523Y-65082000D01*
X132492380Y-65034380D01*
X132587619Y-65034380D01*
X132730476Y-65082000D01*
X132778095Y-65129619D01*
X133635238Y-65367714D02*
X133635238Y-66034380D01*
X133397142Y-64986761D02*
X133159047Y-65701047D01*
X133778095Y-65701047D01*
X134111428Y-65129619D02*
X134159047Y-65082000D01*
X134254285Y-65034380D01*
X134492380Y-65034380D01*
X134587619Y-65082000D01*
X134635238Y-65129619D01*
X134682857Y-65224857D01*
X134682857Y-65320095D01*
X134635238Y-65462952D01*
X134063809Y-66034380D01*
X134682857Y-66034380D01*
G04 #@! TO.C,U20*
X94893142Y-93984380D02*
X95559809Y-93984380D01*
X95131238Y-94984380D01*
X96369333Y-94317714D02*
X96369333Y-94984380D01*
X96131238Y-93936761D02*
X95893142Y-94651047D01*
X96512190Y-94651047D01*
X97369333Y-94984380D02*
X96893142Y-94984380D01*
X96893142Y-93984380D01*
X97655047Y-94936761D02*
X97797904Y-94984380D01*
X98036000Y-94984380D01*
X98131238Y-94936761D01*
X98178857Y-94889142D01*
X98226476Y-94793904D01*
X98226476Y-94698666D01*
X98178857Y-94603428D01*
X98131238Y-94555809D01*
X98036000Y-94508190D01*
X97845523Y-94460571D01*
X97750285Y-94412952D01*
X97702666Y-94365333D01*
X97655047Y-94270095D01*
X97655047Y-94174857D01*
X97702666Y-94079619D01*
X97750285Y-94032000D01*
X97845523Y-93984380D01*
X98083619Y-93984380D01*
X98226476Y-94032000D01*
X98845523Y-93984380D02*
X98940761Y-93984380D01*
X99036000Y-94032000D01*
X99083619Y-94079619D01*
X99131238Y-94174857D01*
X99178857Y-94365333D01*
X99178857Y-94603428D01*
X99131238Y-94793904D01*
X99083619Y-94889142D01*
X99036000Y-94936761D01*
X98940761Y-94984380D01*
X98845523Y-94984380D01*
X98750285Y-94936761D01*
X98702666Y-94889142D01*
X98655047Y-94793904D01*
X98607428Y-94603428D01*
X98607428Y-94365333D01*
X98655047Y-94174857D01*
X98702666Y-94079619D01*
X98750285Y-94032000D01*
X98845523Y-93984380D01*
X99512190Y-93984380D02*
X100178857Y-93984380D01*
X99750285Y-94984380D01*
G04 #@! TO.C,C1*
X-6976857Y-149820380D02*
X-6881619Y-149820380D01*
X-6786380Y-149868000D01*
X-6738761Y-149915619D01*
X-6691142Y-150010857D01*
X-6643523Y-150201333D01*
X-6643523Y-150439428D01*
X-6691142Y-150629904D01*
X-6738761Y-150725142D01*
X-6786380Y-150772761D01*
X-6881619Y-150820380D01*
X-6976857Y-150820380D01*
X-7072095Y-150772761D01*
X-7119714Y-150725142D01*
X-7167333Y-150629904D01*
X-7214952Y-150439428D01*
X-7214952Y-150201333D01*
X-7167333Y-150010857D01*
X-7119714Y-149915619D01*
X-7072095Y-149868000D01*
X-6976857Y-149820380D01*
X-6214952Y-150725142D02*
X-6167333Y-150772761D01*
X-6214952Y-150820380D01*
X-6262571Y-150772761D01*
X-6214952Y-150725142D01*
X-6214952Y-150820380D01*
X-5214952Y-150820380D02*
X-5786380Y-150820380D01*
X-5500666Y-150820380D02*
X-5500666Y-149820380D01*
X-5595904Y-149963238D01*
X-5691142Y-150058476D01*
X-5786380Y-150106095D01*
X-4357809Y-150153714D02*
X-4357809Y-150820380D01*
X-4786380Y-150153714D02*
X-4786380Y-150677523D01*
X-4738761Y-150772761D01*
X-4643523Y-150820380D01*
X-4500666Y-150820380D01*
X-4405428Y-150772761D01*
X-4357809Y-150725142D01*
X-3548285Y-150296571D02*
X-3881619Y-150296571D01*
X-3881619Y-150820380D02*
X-3881619Y-149820380D01*
X-3405428Y-149820380D01*
G04 #@! TO.C,C2*
X13343142Y-149820380D02*
X13438380Y-149820380D01*
X13533619Y-149868000D01*
X13581238Y-149915619D01*
X13628857Y-150010857D01*
X13676476Y-150201333D01*
X13676476Y-150439428D01*
X13628857Y-150629904D01*
X13581238Y-150725142D01*
X13533619Y-150772761D01*
X13438380Y-150820380D01*
X13343142Y-150820380D01*
X13247904Y-150772761D01*
X13200285Y-150725142D01*
X13152666Y-150629904D01*
X13105047Y-150439428D01*
X13105047Y-150201333D01*
X13152666Y-150010857D01*
X13200285Y-149915619D01*
X13247904Y-149868000D01*
X13343142Y-149820380D01*
X14105047Y-150725142D02*
X14152666Y-150772761D01*
X14105047Y-150820380D01*
X14057428Y-150772761D01*
X14105047Y-150725142D01*
X14105047Y-150820380D01*
X15105047Y-150820380D02*
X14533619Y-150820380D01*
X14819333Y-150820380D02*
X14819333Y-149820380D01*
X14724095Y-149963238D01*
X14628857Y-150058476D01*
X14533619Y-150106095D01*
X15962190Y-150153714D02*
X15962190Y-150820380D01*
X15533619Y-150153714D02*
X15533619Y-150677523D01*
X15581238Y-150772761D01*
X15676476Y-150820380D01*
X15819333Y-150820380D01*
X15914571Y-150772761D01*
X15962190Y-150725142D01*
X16771714Y-150296571D02*
X16438380Y-150296571D01*
X16438380Y-150820380D02*
X16438380Y-149820380D01*
X16914571Y-149820380D01*
G04 #@! TO.C,C3*
X94663142Y-152360380D02*
X94758380Y-152360380D01*
X94853619Y-152408000D01*
X94901238Y-152455619D01*
X94948857Y-152550857D01*
X94996476Y-152741333D01*
X94996476Y-152979428D01*
X94948857Y-153169904D01*
X94901238Y-153265142D01*
X94853619Y-153312761D01*
X94758380Y-153360380D01*
X94663142Y-153360380D01*
X94567904Y-153312761D01*
X94520285Y-153265142D01*
X94472666Y-153169904D01*
X94425047Y-152979428D01*
X94425047Y-152741333D01*
X94472666Y-152550857D01*
X94520285Y-152455619D01*
X94567904Y-152408000D01*
X94663142Y-152360380D01*
X95425047Y-153265142D02*
X95472666Y-153312761D01*
X95425047Y-153360380D01*
X95377428Y-153312761D01*
X95425047Y-153265142D01*
X95425047Y-153360380D01*
X96425047Y-153360380D02*
X95853619Y-153360380D01*
X96139333Y-153360380D02*
X96139333Y-152360380D01*
X96044095Y-152503238D01*
X95948857Y-152598476D01*
X95853619Y-152646095D01*
X97282190Y-152693714D02*
X97282190Y-153360380D01*
X96853619Y-152693714D02*
X96853619Y-153217523D01*
X96901238Y-153312761D01*
X96996476Y-153360380D01*
X97139333Y-153360380D01*
X97234571Y-153312761D01*
X97282190Y-153265142D01*
X98091714Y-152836571D02*
X97758380Y-152836571D01*
X97758380Y-153360380D02*
X97758380Y-152360380D01*
X98234571Y-152360380D01*
G04 #@! TO.C,C4*
X54023142Y-152360380D02*
X54118380Y-152360380D01*
X54213619Y-152408000D01*
X54261238Y-152455619D01*
X54308857Y-152550857D01*
X54356476Y-152741333D01*
X54356476Y-152979428D01*
X54308857Y-153169904D01*
X54261238Y-153265142D01*
X54213619Y-153312761D01*
X54118380Y-153360380D01*
X54023142Y-153360380D01*
X53927904Y-153312761D01*
X53880285Y-153265142D01*
X53832666Y-153169904D01*
X53785047Y-152979428D01*
X53785047Y-152741333D01*
X53832666Y-152550857D01*
X53880285Y-152455619D01*
X53927904Y-152408000D01*
X54023142Y-152360380D01*
X54785047Y-153265142D02*
X54832666Y-153312761D01*
X54785047Y-153360380D01*
X54737428Y-153312761D01*
X54785047Y-153265142D01*
X54785047Y-153360380D01*
X55785047Y-153360380D02*
X55213619Y-153360380D01*
X55499333Y-153360380D02*
X55499333Y-152360380D01*
X55404095Y-152503238D01*
X55308857Y-152598476D01*
X55213619Y-152646095D01*
X56642190Y-152693714D02*
X56642190Y-153360380D01*
X56213619Y-152693714D02*
X56213619Y-153217523D01*
X56261238Y-153312761D01*
X56356476Y-153360380D01*
X56499333Y-153360380D01*
X56594571Y-153312761D01*
X56642190Y-153265142D01*
X57451714Y-152836571D02*
X57118380Y-152836571D01*
X57118380Y-153360380D02*
X57118380Y-152360380D01*
X57594571Y-152360380D01*
G04 #@! TO.C,C5*
X94663142Y-124420380D02*
X94758380Y-124420380D01*
X94853619Y-124468000D01*
X94901238Y-124515619D01*
X94948857Y-124610857D01*
X94996476Y-124801333D01*
X94996476Y-125039428D01*
X94948857Y-125229904D01*
X94901238Y-125325142D01*
X94853619Y-125372761D01*
X94758380Y-125420380D01*
X94663142Y-125420380D01*
X94567904Y-125372761D01*
X94520285Y-125325142D01*
X94472666Y-125229904D01*
X94425047Y-125039428D01*
X94425047Y-124801333D01*
X94472666Y-124610857D01*
X94520285Y-124515619D01*
X94567904Y-124468000D01*
X94663142Y-124420380D01*
X95425047Y-125325142D02*
X95472666Y-125372761D01*
X95425047Y-125420380D01*
X95377428Y-125372761D01*
X95425047Y-125325142D01*
X95425047Y-125420380D01*
X96425047Y-125420380D02*
X95853619Y-125420380D01*
X96139333Y-125420380D02*
X96139333Y-124420380D01*
X96044095Y-124563238D01*
X95948857Y-124658476D01*
X95853619Y-124706095D01*
X97282190Y-124753714D02*
X97282190Y-125420380D01*
X96853619Y-124753714D02*
X96853619Y-125277523D01*
X96901238Y-125372761D01*
X96996476Y-125420380D01*
X97139333Y-125420380D01*
X97234571Y-125372761D01*
X97282190Y-125325142D01*
X98091714Y-124896571D02*
X97758380Y-124896571D01*
X97758380Y-125420380D02*
X97758380Y-124420380D01*
X98234571Y-124420380D01*
G04 #@! TO.C,C6*
X74303142Y-152360380D02*
X74398380Y-152360380D01*
X74493619Y-152408000D01*
X74541238Y-152455619D01*
X74588857Y-152550857D01*
X74636476Y-152741333D01*
X74636476Y-152979428D01*
X74588857Y-153169904D01*
X74541238Y-153265142D01*
X74493619Y-153312761D01*
X74398380Y-153360380D01*
X74303142Y-153360380D01*
X74207904Y-153312761D01*
X74160285Y-153265142D01*
X74112666Y-153169904D01*
X74065047Y-152979428D01*
X74065047Y-152741333D01*
X74112666Y-152550857D01*
X74160285Y-152455619D01*
X74207904Y-152408000D01*
X74303142Y-152360380D01*
X75065047Y-153265142D02*
X75112666Y-153312761D01*
X75065047Y-153360380D01*
X75017428Y-153312761D01*
X75065047Y-153265142D01*
X75065047Y-153360380D01*
X76065047Y-153360380D02*
X75493619Y-153360380D01*
X75779333Y-153360380D02*
X75779333Y-152360380D01*
X75684095Y-152503238D01*
X75588857Y-152598476D01*
X75493619Y-152646095D01*
X76922190Y-152693714D02*
X76922190Y-153360380D01*
X76493619Y-152693714D02*
X76493619Y-153217523D01*
X76541238Y-153312761D01*
X76636476Y-153360380D01*
X76779333Y-153360380D01*
X76874571Y-153312761D01*
X76922190Y-153265142D01*
X77731714Y-152836571D02*
X77398380Y-152836571D01*
X77398380Y-153360380D02*
X77398380Y-152360380D01*
X77874571Y-152360380D01*
G04 #@! TO.C,C8*
X54023142Y-124420380D02*
X54118380Y-124420380D01*
X54213619Y-124468000D01*
X54261238Y-124515619D01*
X54308857Y-124610857D01*
X54356476Y-124801333D01*
X54356476Y-125039428D01*
X54308857Y-125229904D01*
X54261238Y-125325142D01*
X54213619Y-125372761D01*
X54118380Y-125420380D01*
X54023142Y-125420380D01*
X53927904Y-125372761D01*
X53880285Y-125325142D01*
X53832666Y-125229904D01*
X53785047Y-125039428D01*
X53785047Y-124801333D01*
X53832666Y-124610857D01*
X53880285Y-124515619D01*
X53927904Y-124468000D01*
X54023142Y-124420380D01*
X54785047Y-125325142D02*
X54832666Y-125372761D01*
X54785047Y-125420380D01*
X54737428Y-125372761D01*
X54785047Y-125325142D01*
X54785047Y-125420380D01*
X55785047Y-125420380D02*
X55213619Y-125420380D01*
X55499333Y-125420380D02*
X55499333Y-124420380D01*
X55404095Y-124563238D01*
X55308857Y-124658476D01*
X55213619Y-124706095D01*
X56642190Y-124753714D02*
X56642190Y-125420380D01*
X56213619Y-124753714D02*
X56213619Y-125277523D01*
X56261238Y-125372761D01*
X56356476Y-125420380D01*
X56499333Y-125420380D01*
X56594571Y-125372761D01*
X56642190Y-125325142D01*
X57451714Y-124896571D02*
X57118380Y-124896571D01*
X57118380Y-125420380D02*
X57118380Y-124420380D01*
X57594571Y-124420380D01*
G04 #@! TO.C,C12*
X33663142Y-149820380D02*
X33758380Y-149820380D01*
X33853619Y-149868000D01*
X33901238Y-149915619D01*
X33948857Y-150010857D01*
X33996476Y-150201333D01*
X33996476Y-150439428D01*
X33948857Y-150629904D01*
X33901238Y-150725142D01*
X33853619Y-150772761D01*
X33758380Y-150820380D01*
X33663142Y-150820380D01*
X33567904Y-150772761D01*
X33520285Y-150725142D01*
X33472666Y-150629904D01*
X33425047Y-150439428D01*
X33425047Y-150201333D01*
X33472666Y-150010857D01*
X33520285Y-149915619D01*
X33567904Y-149868000D01*
X33663142Y-149820380D01*
X34425047Y-150725142D02*
X34472666Y-150772761D01*
X34425047Y-150820380D01*
X34377428Y-150772761D01*
X34425047Y-150725142D01*
X34425047Y-150820380D01*
X35425047Y-150820380D02*
X34853619Y-150820380D01*
X35139333Y-150820380D02*
X35139333Y-149820380D01*
X35044095Y-149963238D01*
X34948857Y-150058476D01*
X34853619Y-150106095D01*
X36282190Y-150153714D02*
X36282190Y-150820380D01*
X35853619Y-150153714D02*
X35853619Y-150677523D01*
X35901238Y-150772761D01*
X35996476Y-150820380D01*
X36139333Y-150820380D01*
X36234571Y-150772761D01*
X36282190Y-150725142D01*
X37091714Y-150296571D02*
X36758380Y-150296571D01*
X36758380Y-150820380D02*
X36758380Y-149820380D01*
X37234571Y-149820380D01*
G04 #@! TD*
M02*
