G04 #@! TF.GenerationSoftware,KiCad,Pcbnew,(5.1.8)-1*
G04 #@! TF.CreationDate,2022-04-01T17:24:14-06:00*
G04 #@! TF.ProjectId,640k,3634306b-2e6b-4696-9361-645f70636258,rev?*
G04 #@! TF.SameCoordinates,Original*
G04 #@! TF.FileFunction,Soldermask,Top*
G04 #@! TF.FilePolarity,Negative*
%FSLAX46Y46*%
G04 Gerber Fmt 4.6, Leading zero omitted, Abs format (unit mm)*
G04 Created by KiCad (PCBNEW (5.1.8)-1) date 2022-04-01 17:24:14*
%MOMM*%
%LPD*%
G01*
G04 APERTURE LIST*
%ADD10O,1.600000X1.600000*%
%ADD11R,1.600000X1.600000*%
%ADD12C,1.600000*%
%ADD13R,1.780000X7.620000*%
%ADD14C,3.556000*%
G04 APERTURE END LIST*
D10*
G04 #@! TO.C,U6*
X142740380Y-73888600D03*
X127500380Y-111988600D03*
X142740380Y-76428600D03*
X127500380Y-109448600D03*
X142740380Y-78968600D03*
X127500380Y-106908600D03*
X142740380Y-81508600D03*
X127500380Y-104368600D03*
X142740380Y-84048600D03*
X127500380Y-101828600D03*
X142740380Y-86588600D03*
X127500380Y-99288600D03*
X142740380Y-89128600D03*
X127500380Y-96748600D03*
X142740380Y-91668600D03*
X127500380Y-94208600D03*
X142740380Y-94208600D03*
X127500380Y-91668600D03*
X142740380Y-96748600D03*
X127500380Y-89128600D03*
X142740380Y-99288600D03*
X127500380Y-86588600D03*
X142740380Y-101828600D03*
X127500380Y-84048600D03*
X142740380Y-104368600D03*
X127500380Y-81508600D03*
X142740380Y-106908600D03*
X127500380Y-78968600D03*
X142740380Y-109448600D03*
X127500380Y-76428600D03*
X142740380Y-111988600D03*
D11*
X127500380Y-73888600D03*
G04 #@! TD*
D10*
G04 #@! TO.C,U3*
X163060380Y-73888600D03*
X147820380Y-111988600D03*
X163060380Y-76428600D03*
X147820380Y-109448600D03*
X163060380Y-78968600D03*
X147820380Y-106908600D03*
X163060380Y-81508600D03*
X147820380Y-104368600D03*
X163060380Y-84048600D03*
X147820380Y-101828600D03*
X163060380Y-86588600D03*
X147820380Y-99288600D03*
X163060380Y-89128600D03*
X147820380Y-96748600D03*
X163060380Y-91668600D03*
X147820380Y-94208600D03*
X163060380Y-94208600D03*
X147820380Y-91668600D03*
X163060380Y-96748600D03*
X147820380Y-89128600D03*
X163060380Y-99288600D03*
X147820380Y-86588600D03*
X163060380Y-101828600D03*
X147820380Y-84048600D03*
X163060380Y-104368600D03*
X147820380Y-81508600D03*
X163060380Y-106908600D03*
X147820380Y-78968600D03*
X163060380Y-109448600D03*
X147820380Y-76428600D03*
X163060380Y-111988600D03*
D11*
X147820380Y-73888600D03*
G04 #@! TD*
D10*
G04 #@! TO.C,U2*
X102100380Y-78968600D03*
X86860380Y-111988600D03*
X102100380Y-81508600D03*
X86860380Y-109448600D03*
X102100380Y-84048600D03*
X86860380Y-106908600D03*
X102100380Y-86588600D03*
X86860380Y-104368600D03*
X102100380Y-89128600D03*
X86860380Y-101828600D03*
X102100380Y-91668600D03*
X86860380Y-99288600D03*
X102100380Y-94208600D03*
X86860380Y-96748600D03*
X102100380Y-96748600D03*
X86860380Y-94208600D03*
X102100380Y-99288600D03*
X86860380Y-91668600D03*
X102100380Y-101828600D03*
X86860380Y-89128600D03*
X102100380Y-104368600D03*
X86860380Y-86588600D03*
X102100380Y-106908600D03*
X86860380Y-84048600D03*
X102100380Y-109448600D03*
X86860380Y-81508600D03*
X102100380Y-111988600D03*
D11*
X86860380Y-78968600D03*
G04 #@! TD*
D10*
G04 #@! TO.C,U1*
X122420380Y-78968600D03*
X107180380Y-111988600D03*
X122420380Y-81508600D03*
X107180380Y-109448600D03*
X122420380Y-84048600D03*
X107180380Y-106908600D03*
X122420380Y-86588600D03*
X107180380Y-104368600D03*
X122420380Y-89128600D03*
X107180380Y-101828600D03*
X122420380Y-91668600D03*
X107180380Y-99288600D03*
X122420380Y-94208600D03*
X107180380Y-96748600D03*
X122420380Y-96748600D03*
X107180380Y-94208600D03*
X122420380Y-99288600D03*
X107180380Y-91668600D03*
X122420380Y-101828600D03*
X107180380Y-89128600D03*
X122420380Y-104368600D03*
X107180380Y-86588600D03*
X122420380Y-106908600D03*
X107180380Y-84048600D03*
X122420380Y-109448600D03*
X107180380Y-81508600D03*
X122420380Y-111988600D03*
D11*
X107180380Y-78968600D03*
G04 #@! TD*
D12*
G04 #@! TO.C,C6*
X163060380Y-70586600D03*
X158060380Y-70586600D03*
G04 #@! TD*
G04 #@! TO.C,C3*
X122420380Y-75666600D03*
X117420380Y-75666600D03*
G04 #@! TD*
G04 #@! TO.C,C2*
X142740380Y-70586600D03*
X137740380Y-70586600D03*
G04 #@! TD*
G04 #@! TO.C,C1*
X102100380Y-75666600D03*
X97100380Y-75666600D03*
G04 #@! TD*
D13*
G04 #@! TO.C,J9*
X85336380Y-129768600D03*
X87876380Y-129768600D03*
X90416380Y-129768600D03*
X92956380Y-129768600D03*
X95496380Y-129768600D03*
X98036380Y-129768600D03*
X100576380Y-129768600D03*
X103116380Y-129768600D03*
X105656380Y-129768600D03*
X108196380Y-129768600D03*
X110736380Y-129768600D03*
X113276380Y-129768600D03*
X115816380Y-129768600D03*
X118356380Y-129768600D03*
X120896380Y-129768600D03*
X123436380Y-129768600D03*
X125976380Y-129768600D03*
X128516380Y-129768600D03*
X131056380Y-129768600D03*
X133596380Y-129768600D03*
X136136380Y-129768600D03*
X138676380Y-129768600D03*
X141216380Y-129768600D03*
X143756380Y-129768600D03*
X146296380Y-129768600D03*
X148836380Y-129768600D03*
X151376380Y-129768600D03*
X153916380Y-129768600D03*
X156456380Y-129768600D03*
X158996380Y-129768600D03*
X161536380Y-129768600D03*
G04 #@! TD*
D14*
G04 #@! TO.C,R*
X181602380Y-122148600D03*
G04 #@! TD*
G04 #@! TO.C,R*
X181602380Y-64998600D03*
G04 #@! TD*
D10*
G04 #@! TO.C,U5*
X179316380Y-99288600D03*
X171696380Y-117068600D03*
X179316380Y-101828600D03*
X171696380Y-114528600D03*
X179316380Y-104368600D03*
X171696380Y-111988600D03*
X179316380Y-106908600D03*
X171696380Y-109448600D03*
X179316380Y-109448600D03*
X171696380Y-106908600D03*
X179316380Y-111988600D03*
X171696380Y-104368600D03*
X179316380Y-114528600D03*
X171696380Y-101828600D03*
X179316380Y-117068600D03*
D11*
X171696380Y-99288600D03*
G04 #@! TD*
D10*
G04 #@! TO.C,U4*
X179316380Y-73888600D03*
X171696380Y-91668600D03*
X179316380Y-76428600D03*
X171696380Y-89128600D03*
X179316380Y-78968600D03*
X171696380Y-86588600D03*
X179316380Y-81508600D03*
X171696380Y-84048600D03*
X179316380Y-84048600D03*
X171696380Y-81508600D03*
X179316380Y-86588600D03*
X171696380Y-78968600D03*
X179316380Y-89128600D03*
X171696380Y-76428600D03*
X179316380Y-91668600D03*
D11*
X171696380Y-73888600D03*
G04 #@! TD*
D12*
G04 #@! TO.C,C5*
X179316380Y-95986600D03*
X174316380Y-95986600D03*
G04 #@! TD*
G04 #@! TO.C,C4*
X179316380Y-70586600D03*
X174316380Y-70586600D03*
G04 #@! TD*
M02*
