G04 #@! TF.GenerationSoftware,KiCad,Pcbnew,(5.1.8)-1*
G04 #@! TF.CreationDate,2022-04-01T17:24:14-06:00*
G04 #@! TF.ProjectId,640k,3634306b-2e6b-4696-9361-645f70636258,rev?*
G04 #@! TF.SameCoordinates,Original*
G04 #@! TF.FileFunction,Copper,L1,Top*
G04 #@! TF.FilePolarity,Positive*
%FSLAX46Y46*%
G04 Gerber Fmt 4.6, Leading zero omitted, Abs format (unit mm)*
G04 Created by KiCad (PCBNEW (5.1.8)-1) date 2022-04-01 17:24:14*
%MOMM*%
%LPD*%
G01*
G04 APERTURE LIST*
G04 #@! TA.AperFunction,ComponentPad*
%ADD10O,1.600000X1.600000*%
G04 #@! TD*
G04 #@! TA.AperFunction,ComponentPad*
%ADD11R,1.600000X1.600000*%
G04 #@! TD*
G04 #@! TA.AperFunction,ComponentPad*
%ADD12C,1.600000*%
G04 #@! TD*
G04 #@! TA.AperFunction,ConnectorPad*
%ADD13R,1.780000X7.620000*%
G04 #@! TD*
G04 #@! TA.AperFunction,ComponentPad*
%ADD14C,3.556000*%
G04 #@! TD*
G04 #@! TA.AperFunction,ViaPad*
%ADD15C,0.800000*%
G04 #@! TD*
G04 #@! TA.AperFunction,Conductor*
%ADD16C,0.330200*%
G04 #@! TD*
G04 #@! TA.AperFunction,Conductor*
%ADD17C,0.250000*%
G04 #@! TD*
G04 APERTURE END LIST*
D10*
G04 #@! TO.P,U6,32*
G04 #@! TO.N,/5+*
X142740380Y-73888600D03*
G04 #@! TO.P,U6,16*
G04 #@! TO.N,/GND*
X127500380Y-111988600D03*
G04 #@! TO.P,U6,31*
G04 #@! TO.N,/A15*
X142740380Y-76428600D03*
G04 #@! TO.P,U6,15*
G04 #@! TO.N,/D2*
X127500380Y-109448600D03*
G04 #@! TO.P,U6,30*
G04 #@! TO.N,/5+*
X142740380Y-78968600D03*
G04 #@! TO.P,U6,14*
G04 #@! TO.N,/D1*
X127500380Y-106908600D03*
G04 #@! TO.P,U6,29*
G04 #@! TO.N,/MWR*
X142740380Y-81508600D03*
G04 #@! TO.P,U6,13*
G04 #@! TO.N,/D0*
X127500380Y-104368600D03*
G04 #@! TO.P,U6,28*
G04 #@! TO.N,/A13*
X142740380Y-84048600D03*
G04 #@! TO.P,U6,12*
G04 #@! TO.N,/A0*
X127500380Y-101828600D03*
G04 #@! TO.P,U6,27*
G04 #@! TO.N,/A8*
X142740380Y-86588600D03*
G04 #@! TO.P,U6,11*
G04 #@! TO.N,/A1*
X127500380Y-99288600D03*
G04 #@! TO.P,U6,26*
G04 #@! TO.N,/A9*
X142740380Y-89128600D03*
G04 #@! TO.P,U6,10*
G04 #@! TO.N,/A2*
X127500380Y-96748600D03*
G04 #@! TO.P,U6,25*
G04 #@! TO.N,/A11*
X142740380Y-91668600D03*
G04 #@! TO.P,U6,9*
G04 #@! TO.N,/A3*
X127500380Y-94208600D03*
G04 #@! TO.P,U6,24*
G04 #@! TO.N,/MRD*
X142740380Y-94208600D03*
G04 #@! TO.P,U6,8*
G04 #@! TO.N,/A4*
X127500380Y-91668600D03*
G04 #@! TO.P,U6,23*
G04 #@! TO.N,/A10*
X142740380Y-96748600D03*
G04 #@! TO.P,U6,7*
G04 #@! TO.N,/A5*
X127500380Y-89128600D03*
G04 #@! TO.P,U6,22*
G04 #@! TO.N,/128K_CS*
X142740380Y-99288600D03*
G04 #@! TO.P,U6,6*
G04 #@! TO.N,/A6*
X127500380Y-86588600D03*
G04 #@! TO.P,U6,21*
G04 #@! TO.N,/D7*
X142740380Y-101828600D03*
G04 #@! TO.P,U6,5*
G04 #@! TO.N,/A7*
X127500380Y-84048600D03*
G04 #@! TO.P,U6,20*
G04 #@! TO.N,/D6*
X142740380Y-104368600D03*
G04 #@! TO.P,U6,4*
G04 #@! TO.N,/A12*
X127500380Y-81508600D03*
G04 #@! TO.P,U6,19*
G04 #@! TO.N,/D5*
X142740380Y-106908600D03*
G04 #@! TO.P,U6,3*
G04 #@! TO.N,/A14*
X127500380Y-78968600D03*
G04 #@! TO.P,U6,18*
G04 #@! TO.N,/D4*
X142740380Y-109448600D03*
G04 #@! TO.P,U6,2*
G04 #@! TO.N,/A16*
X127500380Y-76428600D03*
G04 #@! TO.P,U6,17*
G04 #@! TO.N,/D3*
X142740380Y-111988600D03*
D11*
G04 #@! TO.P,U6,1*
G04 #@! TO.N,Net-(U6-Pad1)*
X127500380Y-73888600D03*
G04 #@! TD*
D10*
G04 #@! TO.P,U3,32*
G04 #@! TO.N,/5+*
X163060380Y-73888600D03*
G04 #@! TO.P,U3,16*
G04 #@! TO.N,/GND*
X147820380Y-111988600D03*
G04 #@! TO.P,U3,31*
G04 #@! TO.N,/A15*
X163060380Y-76428600D03*
G04 #@! TO.P,U3,15*
G04 #@! TO.N,/D2*
X147820380Y-109448600D03*
G04 #@! TO.P,U3,30*
G04 #@! TO.N,/A17*
X163060380Y-78968600D03*
G04 #@! TO.P,U3,14*
G04 #@! TO.N,/D1*
X147820380Y-106908600D03*
G04 #@! TO.P,U3,29*
G04 #@! TO.N,/MWR*
X163060380Y-81508600D03*
G04 #@! TO.P,U3,13*
G04 #@! TO.N,/D0*
X147820380Y-104368600D03*
G04 #@! TO.P,U3,28*
G04 #@! TO.N,/A13*
X163060380Y-84048600D03*
G04 #@! TO.P,U3,12*
G04 #@! TO.N,/A0*
X147820380Y-101828600D03*
G04 #@! TO.P,U3,27*
G04 #@! TO.N,/A8*
X163060380Y-86588600D03*
G04 #@! TO.P,U3,11*
G04 #@! TO.N,/A1*
X147820380Y-99288600D03*
G04 #@! TO.P,U3,26*
G04 #@! TO.N,/A9*
X163060380Y-89128600D03*
G04 #@! TO.P,U3,10*
G04 #@! TO.N,/A2*
X147820380Y-96748600D03*
G04 #@! TO.P,U3,25*
G04 #@! TO.N,/A11*
X163060380Y-91668600D03*
G04 #@! TO.P,U3,9*
G04 #@! TO.N,/A3*
X147820380Y-94208600D03*
G04 #@! TO.P,U3,24*
G04 #@! TO.N,/MRD*
X163060380Y-94208600D03*
G04 #@! TO.P,U3,8*
G04 #@! TO.N,/A4*
X147820380Y-91668600D03*
G04 #@! TO.P,U3,23*
G04 #@! TO.N,/A10*
X163060380Y-96748600D03*
G04 #@! TO.P,U3,7*
G04 #@! TO.N,/A5*
X147820380Y-89128600D03*
G04 #@! TO.P,U3,22*
G04 #@! TO.N,/512K_CS*
X163060380Y-99288600D03*
G04 #@! TO.P,U3,6*
G04 #@! TO.N,/A6*
X147820380Y-86588600D03*
G04 #@! TO.P,U3,21*
G04 #@! TO.N,/D7*
X163060380Y-101828600D03*
G04 #@! TO.P,U3,5*
G04 #@! TO.N,/A7*
X147820380Y-84048600D03*
G04 #@! TO.P,U3,20*
G04 #@! TO.N,/D6*
X163060380Y-104368600D03*
G04 #@! TO.P,U3,4*
G04 #@! TO.N,/A12*
X147820380Y-81508600D03*
G04 #@! TO.P,U3,19*
G04 #@! TO.N,/D5*
X163060380Y-106908600D03*
G04 #@! TO.P,U3,3*
G04 #@! TO.N,/A14*
X147820380Y-78968600D03*
G04 #@! TO.P,U3,18*
G04 #@! TO.N,/D4*
X163060380Y-109448600D03*
G04 #@! TO.P,U3,2*
G04 #@! TO.N,/A16*
X147820380Y-76428600D03*
G04 #@! TO.P,U3,17*
G04 #@! TO.N,/D3*
X163060380Y-111988600D03*
D11*
G04 #@! TO.P,U3,1*
G04 #@! TO.N,/A18*
X147820380Y-73888600D03*
G04 #@! TD*
D10*
G04 #@! TO.P,U2,28*
G04 #@! TO.N,/5+*
X102100380Y-78968600D03*
G04 #@! TO.P,U2,14*
G04 #@! TO.N,/GND*
X86860380Y-111988600D03*
G04 #@! TO.P,U2,27*
G04 #@! TO.N,/5+*
X102100380Y-81508600D03*
G04 #@! TO.P,U2,13*
G04 #@! TO.N,/D2*
X86860380Y-109448600D03*
G04 #@! TO.P,U2,26*
G04 #@! TO.N,/A13*
X102100380Y-84048600D03*
G04 #@! TO.P,U2,12*
G04 #@! TO.N,/D1*
X86860380Y-106908600D03*
G04 #@! TO.P,U2,25*
G04 #@! TO.N,/A8*
X102100380Y-86588600D03*
G04 #@! TO.P,U2,11*
G04 #@! TO.N,/D0*
X86860380Y-104368600D03*
G04 #@! TO.P,U2,24*
G04 #@! TO.N,/A9*
X102100380Y-89128600D03*
G04 #@! TO.P,U2,10*
G04 #@! TO.N,/A0*
X86860380Y-101828600D03*
G04 #@! TO.P,U2,23*
G04 #@! TO.N,/A11*
X102100380Y-91668600D03*
G04 #@! TO.P,U2,9*
G04 #@! TO.N,/A1*
X86860380Y-99288600D03*
G04 #@! TO.P,U2,22*
G04 #@! TO.N,/MRD*
X102100380Y-94208600D03*
G04 #@! TO.P,U2,8*
G04 #@! TO.N,/A2*
X86860380Y-96748600D03*
G04 #@! TO.P,U2,21*
G04 #@! TO.N,/A10*
X102100380Y-96748600D03*
G04 #@! TO.P,U2,7*
G04 #@! TO.N,/A3*
X86860380Y-94208600D03*
G04 #@! TO.P,U2,20*
G04 #@! TO.N,/32K_ROM_CS*
X102100380Y-99288600D03*
G04 #@! TO.P,U2,6*
G04 #@! TO.N,/A4*
X86860380Y-91668600D03*
G04 #@! TO.P,U2,19*
G04 #@! TO.N,/D7*
X102100380Y-101828600D03*
G04 #@! TO.P,U2,5*
G04 #@! TO.N,/A5*
X86860380Y-89128600D03*
G04 #@! TO.P,U2,18*
G04 #@! TO.N,/D6*
X102100380Y-104368600D03*
G04 #@! TO.P,U2,4*
G04 #@! TO.N,/A6*
X86860380Y-86588600D03*
G04 #@! TO.P,U2,17*
G04 #@! TO.N,/D5*
X102100380Y-106908600D03*
G04 #@! TO.P,U2,3*
G04 #@! TO.N,/A7*
X86860380Y-84048600D03*
G04 #@! TO.P,U2,16*
G04 #@! TO.N,/D4*
X102100380Y-109448600D03*
G04 #@! TO.P,U2,2*
G04 #@! TO.N,/A12*
X86860380Y-81508600D03*
G04 #@! TO.P,U2,15*
G04 #@! TO.N,/D3*
X102100380Y-111988600D03*
D11*
G04 #@! TO.P,U2,1*
G04 #@! TO.N,/A14*
X86860380Y-78968600D03*
G04 #@! TD*
D10*
G04 #@! TO.P,U1,28*
G04 #@! TO.N,/5+*
X122420380Y-78968600D03*
G04 #@! TO.P,U1,14*
G04 #@! TO.N,/GND*
X107180380Y-111988600D03*
G04 #@! TO.P,U1,27*
G04 #@! TO.N,/MWR*
X122420380Y-81508600D03*
G04 #@! TO.P,U1,13*
G04 #@! TO.N,/D2*
X107180380Y-109448600D03*
G04 #@! TO.P,U1,26*
G04 #@! TO.N,/A13*
X122420380Y-84048600D03*
G04 #@! TO.P,U1,12*
G04 #@! TO.N,/D1*
X107180380Y-106908600D03*
G04 #@! TO.P,U1,25*
G04 #@! TO.N,/A8*
X122420380Y-86588600D03*
G04 #@! TO.P,U1,11*
G04 #@! TO.N,/D0*
X107180380Y-104368600D03*
G04 #@! TO.P,U1,24*
G04 #@! TO.N,/A9*
X122420380Y-89128600D03*
G04 #@! TO.P,U1,10*
G04 #@! TO.N,/A0*
X107180380Y-101828600D03*
G04 #@! TO.P,U1,23*
G04 #@! TO.N,/A11*
X122420380Y-91668600D03*
G04 #@! TO.P,U1,9*
G04 #@! TO.N,/A1*
X107180380Y-99288600D03*
G04 #@! TO.P,U1,22*
G04 #@! TO.N,/MRD*
X122420380Y-94208600D03*
G04 #@! TO.P,U1,8*
G04 #@! TO.N,/A2*
X107180380Y-96748600D03*
G04 #@! TO.P,U1,21*
G04 #@! TO.N,/A10*
X122420380Y-96748600D03*
G04 #@! TO.P,U1,7*
G04 #@! TO.N,/A3*
X107180380Y-94208600D03*
G04 #@! TO.P,U1,20*
G04 #@! TO.N,/32K_RAM_CS*
X122420380Y-99288600D03*
G04 #@! TO.P,U1,6*
G04 #@! TO.N,/A4*
X107180380Y-91668600D03*
G04 #@! TO.P,U1,19*
G04 #@! TO.N,/D7*
X122420380Y-101828600D03*
G04 #@! TO.P,U1,5*
G04 #@! TO.N,/A5*
X107180380Y-89128600D03*
G04 #@! TO.P,U1,18*
G04 #@! TO.N,/D6*
X122420380Y-104368600D03*
G04 #@! TO.P,U1,4*
G04 #@! TO.N,/A6*
X107180380Y-86588600D03*
G04 #@! TO.P,U1,17*
G04 #@! TO.N,/D5*
X122420380Y-106908600D03*
G04 #@! TO.P,U1,3*
G04 #@! TO.N,/A7*
X107180380Y-84048600D03*
G04 #@! TO.P,U1,16*
G04 #@! TO.N,/D4*
X122420380Y-109448600D03*
G04 #@! TO.P,U1,2*
G04 #@! TO.N,/A12*
X107180380Y-81508600D03*
G04 #@! TO.P,U1,15*
G04 #@! TO.N,/D3*
X122420380Y-111988600D03*
D11*
G04 #@! TO.P,U1,1*
G04 #@! TO.N,/A14*
X107180380Y-78968600D03*
G04 #@! TD*
D12*
G04 #@! TO.P,C6,2*
G04 #@! TO.N,/5+*
X163060380Y-70586600D03*
G04 #@! TO.P,C6,1*
G04 #@! TO.N,/GND*
X158060380Y-70586600D03*
G04 #@! TD*
G04 #@! TO.P,C3,2*
G04 #@! TO.N,/5+*
X122420380Y-75666600D03*
G04 #@! TO.P,C3,1*
G04 #@! TO.N,/GND*
X117420380Y-75666600D03*
G04 #@! TD*
G04 #@! TO.P,C2,2*
G04 #@! TO.N,/5+*
X142740380Y-70586600D03*
G04 #@! TO.P,C2,1*
G04 #@! TO.N,/GND*
X137740380Y-70586600D03*
G04 #@! TD*
G04 #@! TO.P,C1,2*
G04 #@! TO.N,/5+*
X102100380Y-75666600D03*
G04 #@! TO.P,C1,1*
G04 #@! TO.N,/GND*
X97100380Y-75666600D03*
G04 #@! TD*
D13*
G04 #@! TO.P,J9,62*
G04 #@! TO.N,/A0*
X85336380Y-129768600D03*
G04 #@! TO.P,J9,61*
G04 #@! TO.N,/A1*
X87876380Y-129768600D03*
G04 #@! TO.P,J9,60*
G04 #@! TO.N,/A2*
X90416380Y-129768600D03*
G04 #@! TO.P,J9,59*
G04 #@! TO.N,/A3*
X92956380Y-129768600D03*
G04 #@! TO.P,J9,58*
G04 #@! TO.N,/A4*
X95496380Y-129768600D03*
G04 #@! TO.P,J9,57*
G04 #@! TO.N,/A5*
X98036380Y-129768600D03*
G04 #@! TO.P,J9,56*
G04 #@! TO.N,/A6*
X100576380Y-129768600D03*
G04 #@! TO.P,J9,55*
G04 #@! TO.N,/A7*
X103116380Y-129768600D03*
G04 #@! TO.P,J9,54*
G04 #@! TO.N,/A8*
X105656380Y-129768600D03*
G04 #@! TO.P,J9,53*
G04 #@! TO.N,/A9*
X108196380Y-129768600D03*
G04 #@! TO.P,J9,52*
G04 #@! TO.N,/A10*
X110736380Y-129768600D03*
G04 #@! TO.P,J9,51*
G04 #@! TO.N,/A11*
X113276380Y-129768600D03*
G04 #@! TO.P,J9,50*
G04 #@! TO.N,/A12*
X115816380Y-129768600D03*
G04 #@! TO.P,J9,49*
G04 #@! TO.N,/A13*
X118356380Y-129768600D03*
G04 #@! TO.P,J9,48*
G04 #@! TO.N,/A14*
X120896380Y-129768600D03*
G04 #@! TO.P,J9,47*
G04 #@! TO.N,/A15*
X123436380Y-129768600D03*
G04 #@! TO.P,J9,46*
G04 #@! TO.N,/A16*
X125976380Y-129768600D03*
G04 #@! TO.P,J9,45*
G04 #@! TO.N,/A17*
X128516380Y-129768600D03*
G04 #@! TO.P,J9,44*
G04 #@! TO.N,/A18*
X131056380Y-129768600D03*
G04 #@! TO.P,J9,43*
G04 #@! TO.N,/A19*
X133596380Y-129768600D03*
G04 #@! TO.P,J9,42*
G04 #@! TO.N,/AEN*
X136136380Y-129768600D03*
G04 #@! TO.P,J9,41*
G04 #@! TO.N,/RDY1*
X138676380Y-129768600D03*
G04 #@! TO.P,J9,40*
G04 #@! TO.N,/D0*
X141216380Y-129768600D03*
G04 #@! TO.P,J9,39*
G04 #@! TO.N,/D1*
X143756380Y-129768600D03*
G04 #@! TO.P,J9,38*
G04 #@! TO.N,/D2*
X146296380Y-129768600D03*
G04 #@! TO.P,J9,37*
G04 #@! TO.N,/D3*
X148836380Y-129768600D03*
G04 #@! TO.P,J9,36*
G04 #@! TO.N,/D4*
X151376380Y-129768600D03*
G04 #@! TO.P,J9,35*
G04 #@! TO.N,/D5*
X153916380Y-129768600D03*
G04 #@! TO.P,J9,34*
G04 #@! TO.N,/D6*
X156456380Y-129768600D03*
G04 #@! TO.P,J9,33*
G04 #@! TO.N,/D7*
X158996380Y-129768600D03*
G04 #@! TO.P,J9,32*
G04 #@! TO.N,/CH_CK*
X161536380Y-129768600D03*
G04 #@! TD*
D14*
G04 #@! TO.P,R,1*
G04 #@! TO.N,/GND*
X181602380Y-122148600D03*
G04 #@! TD*
G04 #@! TO.P,R,1*
G04 #@! TO.N,N/C*
X181602380Y-64998600D03*
G04 #@! TD*
D10*
G04 #@! TO.P,U5,16*
G04 #@! TO.N,/5+*
X179316380Y-99288600D03*
G04 #@! TO.P,U5,8*
G04 #@! TO.N,/GND*
X171696380Y-117068600D03*
G04 #@! TO.P,U5,15*
G04 #@! TO.N,Net-(U5-Pad15)*
X179316380Y-101828600D03*
G04 #@! TO.P,U5,7*
G04 #@! TO.N,/32K_ROM_CS*
X171696380Y-114528600D03*
G04 #@! TO.P,U5,14*
G04 #@! TO.N,Net-(U5-Pad14)*
X179316380Y-104368600D03*
G04 #@! TO.P,U5,6*
G04 #@! TO.N,/A18*
X171696380Y-111988600D03*
G04 #@! TO.P,U5,13*
G04 #@! TO.N,Net-(U5-Pad13)*
X179316380Y-106908600D03*
G04 #@! TO.P,U5,5*
G04 #@! TO.N,/GND*
X171696380Y-109448600D03*
G04 #@! TO.P,U5,12*
G04 #@! TO.N,Net-(U5-Pad12)*
X179316380Y-109448600D03*
G04 #@! TO.P,U5,4*
G04 #@! TO.N,/UPPER_512K*
X171696380Y-106908600D03*
G04 #@! TO.P,U5,11*
G04 #@! TO.N,Net-(U5-Pad11)*
X179316380Y-111988600D03*
G04 #@! TO.P,U5,3*
G04 #@! TO.N,/A17*
X171696380Y-104368600D03*
G04 #@! TO.P,U5,10*
G04 #@! TO.N,Net-(U5-Pad10)*
X179316380Y-114528600D03*
G04 #@! TO.P,U5,2*
G04 #@! TO.N,/A16*
X171696380Y-101828600D03*
G04 #@! TO.P,U5,9*
G04 #@! TO.N,/32K_RAM_CS*
X179316380Y-117068600D03*
D11*
G04 #@! TO.P,U5,1*
G04 #@! TO.N,/A15*
X171696380Y-99288600D03*
G04 #@! TD*
D10*
G04 #@! TO.P,U4,16*
G04 #@! TO.N,/5+*
X179316380Y-73888600D03*
G04 #@! TO.P,U4,8*
G04 #@! TO.N,/GND*
X171696380Y-91668600D03*
G04 #@! TO.P,U4,15*
G04 #@! TO.N,/UPPER_512K*
X179316380Y-76428600D03*
G04 #@! TO.P,U4,7*
G04 #@! TO.N,Net-(U4-Pad7)*
X171696380Y-89128600D03*
G04 #@! TO.P,U4,14*
G04 #@! TO.N,/A17*
X179316380Y-78968600D03*
G04 #@! TO.P,U4,6*
G04 #@! TO.N,Net-(U4-Pad6)*
X171696380Y-86588600D03*
G04 #@! TO.P,U4,13*
G04 #@! TO.N,/A18*
X179316380Y-81508600D03*
G04 #@! TO.P,U4,5*
G04 #@! TO.N,/UPPER_512K*
X171696380Y-84048600D03*
G04 #@! TO.P,U4,12*
G04 #@! TO.N,/128K_CS*
X179316380Y-84048600D03*
G04 #@! TO.P,U4,4*
G04 #@! TO.N,/512K_CS*
X171696380Y-81508600D03*
G04 #@! TO.P,U4,11*
G04 #@! TO.N,Net-(U4-Pad11)*
X179316380Y-86588600D03*
G04 #@! TO.P,U4,3*
G04 #@! TO.N,/GND*
X171696380Y-78968600D03*
G04 #@! TO.P,U4,10*
G04 #@! TO.N,Net-(U4-Pad10)*
X179316380Y-89128600D03*
G04 #@! TO.P,U4,2*
G04 #@! TO.N,/A19*
X171696380Y-76428600D03*
G04 #@! TO.P,U4,9*
G04 #@! TO.N,Net-(U4-Pad9)*
X179316380Y-91668600D03*
D11*
G04 #@! TO.P,U4,1*
G04 #@! TO.N,/GND*
X171696380Y-73888600D03*
G04 #@! TD*
D12*
G04 #@! TO.P,C5,2*
G04 #@! TO.N,/5+*
X179316380Y-95986600D03*
G04 #@! TO.P,C5,1*
G04 #@! TO.N,/GND*
X174316380Y-95986600D03*
G04 #@! TD*
G04 #@! TO.P,C4,2*
G04 #@! TO.N,/5+*
X179316380Y-70586600D03*
G04 #@! TO.P,C4,1*
G04 #@! TO.N,/GND*
X174316380Y-70586600D03*
G04 #@! TD*
D15*
G04 #@! TO.N,/5+*
X179316380Y-69062600D03*
X176776380Y-69062600D03*
X176776380Y-95986600D03*
X90670380Y-74396600D03*
X122420380Y-69824598D03*
X155948380Y-70078600D03*
X90670380Y-82016600D03*
X139692380Y-70078600D03*
X139692380Y-79476600D03*
G04 #@! TO.N,/GND*
X181602380Y-124688600D03*
X174236380Y-116560600D03*
X174236380Y-108940600D03*
X174236380Y-78460600D03*
X174236380Y-91160600D03*
X174236380Y-73380600D03*
X161536380Y-124688600D03*
X117594380Y-71094600D03*
X92956380Y-111480600D03*
X92956380Y-76174600D03*
X138676380Y-111480600D03*
X174236380Y-124688600D03*
G04 #@! TO.N,/D7*
X160266380Y-124688600D03*
X160266380Y-102336600D03*
G04 #@! TO.N,/D6*
X157726380Y-124688600D03*
X157726380Y-104876600D03*
G04 #@! TO.N,/D5*
X155186380Y-124688600D03*
X155186380Y-107416600D03*
G04 #@! TO.N,/D4*
X152646380Y-124688600D03*
X152646380Y-109956600D03*
G04 #@! TO.N,/D3*
X150106380Y-124688600D03*
X149598380Y-113258600D03*
G04 #@! TO.N,/D2*
X147566380Y-124688600D03*
X146042380Y-108940600D03*
G04 #@! TO.N,/D1*
X145026380Y-124688600D03*
X144772380Y-106400600D03*
G04 #@! TO.N,/D0*
X142486380Y-124688600D03*
X140962380Y-103098600D03*
G04 #@! TO.N,/A19*
X134866380Y-124688600D03*
X169664380Y-75920600D03*
X169664380Y-115798600D03*
X134866380Y-115798600D03*
G04 #@! TO.N,/A18*
X132326380Y-124688600D03*
X168902380Y-82778600D03*
X168902380Y-116560600D03*
X132326380Y-116560600D03*
X168902380Y-111480600D03*
X151122380Y-116560600D03*
X151122380Y-73380600D03*
G04 #@! TO.N,/A17*
X129786380Y-124688600D03*
X168140380Y-80238600D03*
X168140380Y-103860600D03*
X168140380Y-117322600D03*
X129786380Y-117322600D03*
G04 #@! TO.N,/A16*
X127246380Y-124688600D03*
X129786380Y-75920600D03*
X167378380Y-75666600D03*
X167378380Y-101320600D03*
G04 #@! TO.N,/A15*
X124706380Y-124688600D03*
X124960380Y-77698600D03*
X166616380Y-76936600D03*
X166616380Y-98780600D03*
G04 #@! TO.N,/A14*
X122166380Y-124688600D03*
X119880380Y-78460600D03*
G04 #@! TO.N,/A13*
X119626380Y-124688600D03*
X119626380Y-84556600D03*
G04 #@! TO.N,/A12*
X117086380Y-124688600D03*
X117086380Y-81000600D03*
G04 #@! TO.N,/A11*
X114546380Y-124688600D03*
X114546380Y-92176600D03*
G04 #@! TO.N,/A10*
X112006380Y-124688600D03*
X112006380Y-97256600D03*
G04 #@! TO.N,/A9*
X109466380Y-124688600D03*
X109974380Y-89636600D03*
G04 #@! TO.N,/A8*
X106926380Y-124688600D03*
X108958380Y-87858600D03*
G04 #@! TO.N,/A7*
X104386380Y-124688600D03*
X104386380Y-83540600D03*
G04 #@! TO.N,/A6*
X101846380Y-124688600D03*
X99560380Y-86080600D03*
G04 #@! TO.N,/A5*
X99306380Y-124688600D03*
X98798380Y-88620600D03*
G04 #@! TO.N,/A4*
X96766380Y-124688600D03*
X96766380Y-91160600D03*
G04 #@! TO.N,/A3*
X94226380Y-124688600D03*
X94226380Y-93700600D03*
G04 #@! TO.N,/A2*
X91686380Y-124688600D03*
X91686380Y-96240600D03*
G04 #@! TO.N,/A1*
X89146380Y-124688600D03*
X89654380Y-98780600D03*
G04 #@! TO.N,/A0*
X86606380Y-124688600D03*
X88892380Y-101320600D03*
G04 #@! TO.N,/MWR*
X136136380Y-82016600D03*
G04 #@! TO.N,/MRD*
X133596380Y-94716600D03*
G04 #@! TO.N,/32K_RAM_CS*
X125468380Y-99796600D03*
X125468380Y-118338600D03*
G04 #@! TO.N,/32K_ROM_CS*
X105148380Y-115036600D03*
X105148380Y-99796600D03*
G04 #@! TO.N,/512K_CS*
X165854380Y-99796600D03*
X165854380Y-82016600D03*
G04 #@! TO.N,/UPPER_512K*
X175506380Y-84556600D03*
X175506380Y-107162600D03*
X175506380Y-76682600D03*
G04 #@! TO.N,/128K_CS*
X160774380Y-99796600D03*
X160774380Y-85318600D03*
G04 #@! TD*
D16*
G04 #@! TO.N,/5+*
X176776380Y-69062600D02*
X179316380Y-69062600D01*
X179316380Y-95986600D02*
X176776380Y-95986600D01*
X121912380Y-75158600D02*
X122420380Y-75666600D01*
X118356380Y-74396600D02*
X119118380Y-75158600D01*
X116070380Y-74396600D02*
X118356380Y-74396600D01*
X115308380Y-75158600D02*
X116070380Y-74396600D01*
X119118380Y-75158600D02*
X121912380Y-75158600D01*
X102608380Y-75158600D02*
X115308380Y-75158600D01*
X102100380Y-75666600D02*
X102608380Y-75158600D01*
X90670380Y-74396600D02*
X98290380Y-74396600D01*
X98290380Y-74396600D02*
X99052380Y-75158600D01*
X142740380Y-70586600D02*
X143248380Y-70078600D01*
X158996380Y-69316600D02*
X159758380Y-70078600D01*
X162552380Y-70078600D02*
X163060380Y-70586600D01*
X156710380Y-69316600D02*
X158996380Y-69316600D01*
X155948380Y-70078600D02*
X156710380Y-69316600D01*
X159758380Y-70078600D02*
X162552380Y-70078600D01*
X143248380Y-70078600D02*
X155948380Y-70078600D01*
X101592380Y-75158600D02*
X102100380Y-75666600D01*
X99052380Y-75158600D02*
X101592380Y-75158600D01*
X135882382Y-69824598D02*
X122420380Y-69824598D01*
X138930380Y-69316600D02*
X136390380Y-69316600D01*
X136390380Y-69316600D02*
X135882382Y-69824598D01*
X142232380Y-70078600D02*
X139692380Y-70078600D01*
X142740380Y-70586600D02*
X142232380Y-70078600D01*
X176776380Y-69062600D02*
X172966380Y-69062600D01*
X172966380Y-69062600D02*
X171950380Y-70078600D01*
X163568380Y-70078600D02*
X163060380Y-70586600D01*
X171950380Y-70078600D02*
X163568380Y-70078600D01*
X102100380Y-81508600D02*
X101592380Y-82016600D01*
X101592380Y-82016600D02*
X90670380Y-82016600D01*
X139692380Y-70078600D02*
X138930380Y-69316600D01*
X142232380Y-79476600D02*
X142740380Y-78968600D01*
X139692380Y-79476600D02*
X142232380Y-79476600D01*
G04 #@! TO.N,/GND*
X117420380Y-75666600D02*
X116912380Y-76174600D01*
X101164380Y-76936600D02*
X100402380Y-76174600D01*
X97608380Y-76174600D02*
X97100380Y-75666600D01*
X103450380Y-76936600D02*
X101164380Y-76936600D01*
X104212380Y-76174600D02*
X103450380Y-76936600D01*
X100402380Y-76174600D02*
X97608380Y-76174600D01*
X116912380Y-76174600D02*
X104212380Y-76174600D01*
X161536380Y-124688600D02*
X181602380Y-124688600D01*
X172204380Y-116560600D02*
X171696380Y-117068600D01*
X174236380Y-116560600D02*
X172204380Y-116560600D01*
X172204380Y-108940600D02*
X171696380Y-109448600D01*
X174236380Y-108940600D02*
X172204380Y-108940600D01*
X172204380Y-91160600D02*
X171696380Y-91668600D01*
X174236380Y-91160600D02*
X172204380Y-91160600D01*
X172204380Y-78460600D02*
X171696380Y-78968600D01*
X174236380Y-78460600D02*
X172204380Y-78460600D01*
X172204380Y-73380600D02*
X171696380Y-73888600D01*
X174236380Y-73380600D02*
X172204380Y-73380600D01*
X106672380Y-111480600D02*
X107180380Y-111988600D01*
X87368380Y-111480600D02*
X92956380Y-111480600D01*
X103370380Y-110718600D02*
X104132380Y-111480600D01*
X86860380Y-111988600D02*
X87368380Y-111480600D01*
X104132380Y-111480600D02*
X106672380Y-111480600D01*
X99560380Y-111480600D02*
X100322380Y-110718600D01*
X100322380Y-110718600D02*
X103370380Y-110718600D01*
X120642380Y-110718600D02*
X123690380Y-110718600D01*
X126992380Y-111480600D02*
X127500380Y-111988600D01*
X124452380Y-111480600D02*
X126992380Y-111480600D01*
X123690380Y-110718600D02*
X124452380Y-111480600D01*
X119880380Y-111480600D02*
X120642380Y-110718600D01*
X107688380Y-111480600D02*
X119880380Y-111480600D01*
X107180380Y-111988600D02*
X107688380Y-111480600D01*
X147312380Y-111480600D02*
X147820380Y-111988600D01*
X144772380Y-111480600D02*
X147312380Y-111480600D01*
X127500380Y-111988600D02*
X128008380Y-111480600D01*
X140962380Y-110718600D02*
X144010380Y-110718600D01*
X140200380Y-111480600D02*
X140962380Y-110718600D01*
X144010380Y-110718600D02*
X144772380Y-111480600D01*
X128008380Y-111480600D02*
X140200380Y-111480600D01*
X141042380Y-71094600D02*
X138248380Y-71094600D01*
X141804380Y-71856600D02*
X141042380Y-71094600D01*
X138248380Y-71094600D02*
X137740380Y-70586600D01*
X158060380Y-70586600D02*
X157552380Y-71094600D01*
X157552380Y-71094600D02*
X144852380Y-71094600D01*
X144852380Y-71094600D02*
X144090380Y-71856600D01*
X144090380Y-71856600D02*
X141804380Y-71856600D01*
X137740380Y-70586600D02*
X137660380Y-70586600D01*
X137660380Y-70586600D02*
X137152380Y-71094600D01*
X137152380Y-71094600D02*
X117594380Y-71094600D01*
X92956380Y-111480600D02*
X99560380Y-111480600D01*
X96592380Y-76174600D02*
X97100380Y-75666600D01*
X92956380Y-76174600D02*
X96592380Y-76174600D01*
X147820380Y-112018600D02*
X147820380Y-111988600D01*
X171188380Y-109956600D02*
X171696380Y-109448600D01*
X165092380Y-109956600D02*
X171188380Y-109956600D01*
X164330380Y-110718600D02*
X165092380Y-109956600D01*
X160520380Y-110718600D02*
X164330380Y-110718600D01*
X159758380Y-111480600D02*
X160520380Y-110718600D01*
X148328380Y-111480600D02*
X159758380Y-111480600D01*
X147820380Y-111988600D02*
X148328380Y-111480600D01*
X174316380Y-70586600D02*
X174236380Y-70586600D01*
X174236380Y-70586600D02*
X173728380Y-71094600D01*
X173728380Y-71094600D02*
X165600380Y-71094600D01*
X165600380Y-71094600D02*
X164838380Y-71856600D01*
X164838380Y-71856600D02*
X162044380Y-71856600D01*
X162044380Y-71856600D02*
X161282380Y-71094600D01*
X158568380Y-71094600D02*
X158060380Y-70586600D01*
X161282380Y-71094600D02*
X158568380Y-71094600D01*
D17*
G04 #@! TO.N,/D7*
X122928380Y-102336600D02*
X122420380Y-101828600D01*
X146550380Y-103098600D02*
X145788380Y-102336600D01*
X102608380Y-102336600D02*
X102100380Y-101828600D01*
X163060380Y-101828600D02*
X162552380Y-102336600D01*
X109720380Y-102336600D02*
X108958380Y-103098600D01*
X149598380Y-103098600D02*
X146550380Y-103098600D01*
X143248380Y-102336600D02*
X142740380Y-101828600D01*
X145788380Y-102336600D02*
X143248380Y-102336600D01*
X162552380Y-102336600D02*
X150360380Y-102336600D01*
X126230380Y-103098600D02*
X125468380Y-102336600D01*
X122420380Y-101828600D02*
X121912380Y-102336600D01*
X105148380Y-102336600D02*
X102608380Y-102336600D01*
X121912380Y-102336600D02*
X109720380Y-102336600D01*
X129278380Y-103098600D02*
X126230380Y-103098600D01*
X150360380Y-102336600D02*
X149598380Y-103098600D01*
X130040380Y-102336600D02*
X129278380Y-103098600D01*
X108958380Y-103098600D02*
X105910380Y-103098600D01*
X142232380Y-102336600D02*
X130040380Y-102336600D01*
X142740380Y-101828600D02*
X142232380Y-102336600D01*
X105910380Y-103098600D02*
X105148380Y-102336600D01*
X125468380Y-102336600D02*
X122928380Y-102336600D01*
X158996380Y-129768600D02*
X158996380Y-125958600D01*
X158996380Y-125958600D02*
X160266380Y-124688600D01*
G04 #@! TO.N,/D6*
X156456380Y-129768600D02*
X156456380Y-125958600D01*
X122928380Y-104876600D02*
X122420380Y-104368600D01*
X102608380Y-104876600D02*
X102100380Y-104368600D01*
X146550380Y-105638600D02*
X145788380Y-104876600D01*
X163060380Y-104368600D02*
X162552380Y-104876600D01*
X150360380Y-104876600D02*
X149598380Y-105638600D01*
X105148380Y-104876600D02*
X102608380Y-104876600D01*
X126230380Y-105638600D02*
X125468380Y-104876600D01*
X130040380Y-104876600D02*
X129278380Y-105638600D01*
X122420380Y-104368600D02*
X121912380Y-104876600D01*
X129278380Y-105638600D02*
X126230380Y-105638600D01*
X121912380Y-104876600D02*
X109720380Y-104876600D01*
X142740380Y-104368600D02*
X142232380Y-104876600D01*
X125468380Y-104876600D02*
X122928380Y-104876600D01*
X108958380Y-105638600D02*
X105910380Y-105638600D01*
X105910380Y-105638600D02*
X105148380Y-104876600D01*
X142232380Y-104876600D02*
X130040380Y-104876600D01*
X162552380Y-104876600D02*
X150360380Y-104876600D01*
X109720380Y-104876600D02*
X108958380Y-105638600D01*
X149598380Y-105638600D02*
X146550380Y-105638600D01*
X145788380Y-104876600D02*
X143248380Y-104876600D01*
X143248380Y-104876600D02*
X142740380Y-104368600D01*
X156456380Y-125958600D02*
X157726380Y-124688600D01*
G04 #@! TO.N,/D5*
X153916380Y-129768600D02*
X153916380Y-125958600D01*
X102608380Y-107416600D02*
X102100380Y-106908600D01*
X105148380Y-107416600D02*
X102608380Y-107416600D01*
X108958380Y-108178600D02*
X105910380Y-108178600D01*
X105910380Y-108178600D02*
X105148380Y-107416600D01*
X121912380Y-107416600D02*
X109720380Y-107416600D01*
X109720380Y-107416600D02*
X108958380Y-108178600D01*
X122420380Y-106908600D02*
X121912380Y-107416600D01*
X142740380Y-106908600D02*
X142232380Y-107416600D01*
X142232380Y-107416600D02*
X130040380Y-107416600D01*
X129278380Y-108178600D02*
X126230380Y-108178600D01*
X122928380Y-107416600D02*
X122420380Y-106908600D01*
X125468380Y-107416600D02*
X122928380Y-107416600D01*
X143248380Y-107416600D02*
X142740380Y-106908600D01*
X162552380Y-107416600D02*
X150360380Y-107416600D01*
X146550380Y-108178600D02*
X145788380Y-107416600D01*
X163060380Y-106908600D02*
X162552380Y-107416600D01*
X150360380Y-107416600D02*
X149598380Y-108178600D01*
X149598380Y-108178600D02*
X146550380Y-108178600D01*
X145788380Y-107416600D02*
X143248380Y-107416600D01*
X126230380Y-108178600D02*
X125468380Y-107416600D01*
X130040380Y-107416600D02*
X129278380Y-108178600D01*
X153916380Y-125958600D02*
X155186380Y-124688600D01*
G04 #@! TO.N,/D4*
X151376380Y-129768600D02*
X151376380Y-125958600D01*
X143248380Y-109956600D02*
X142740380Y-109448600D01*
X162552380Y-109956600D02*
X150360380Y-109956600D01*
X146550380Y-110718600D02*
X145788380Y-109956600D01*
X163060380Y-109448600D02*
X162552380Y-109956600D01*
X145788380Y-109956600D02*
X143248380Y-109956600D01*
X150360380Y-109956600D02*
X149598380Y-110718600D01*
X149598380Y-110718600D02*
X146550380Y-110718600D01*
X129278380Y-110718600D02*
X126230380Y-110718600D01*
X122928380Y-109956600D02*
X122420380Y-109448600D01*
X125468380Y-109956600D02*
X122928380Y-109956600D01*
X126230380Y-110718600D02*
X125468380Y-109956600D01*
X130040380Y-109956600D02*
X129278380Y-110718600D01*
X142232380Y-109956600D02*
X130040380Y-109956600D01*
X142740380Y-109448600D02*
X142232380Y-109956600D01*
X102608380Y-109956600D02*
X102100380Y-109448600D01*
X105148380Y-109956600D02*
X102608380Y-109956600D01*
X122420380Y-109448600D02*
X121912380Y-109956600D01*
X108958380Y-110718600D02*
X105910380Y-110718600D01*
X109720380Y-109956600D02*
X108958380Y-110718600D01*
X105910380Y-110718600D02*
X105148380Y-109956600D01*
X121912380Y-109956600D02*
X109720380Y-109956600D01*
X151376380Y-125958600D02*
X152646380Y-124688600D01*
G04 #@! TO.N,/D3*
X148836380Y-129768600D02*
X148836380Y-125958600D01*
X148836380Y-125958600D02*
X150106380Y-124688600D01*
X105910380Y-113258600D02*
X105148380Y-112496600D01*
X162552380Y-112496600D02*
X150360380Y-112496600D01*
X122420380Y-111988600D02*
X121912380Y-112496600D01*
X146550380Y-113258600D02*
X145788380Y-112496600D01*
X121912380Y-112496600D02*
X109720380Y-112496600D01*
X143248380Y-112496600D02*
X142740380Y-111988600D01*
X129278380Y-113258600D02*
X126230380Y-113258600D01*
X105148380Y-112496600D02*
X102608380Y-112496600D01*
X145788380Y-112496600D02*
X143248380Y-112496600D01*
X163060380Y-111988600D02*
X162552380Y-112496600D01*
X125468380Y-112496600D02*
X122928380Y-112496600D01*
X150360380Y-112496600D02*
X149598380Y-113258600D01*
X126230380Y-113258600D02*
X125468380Y-112496600D01*
X130040380Y-112496600D02*
X129278380Y-113258600D01*
X142232380Y-112496600D02*
X130040380Y-112496600D01*
X122928380Y-112496600D02*
X122420380Y-111988600D01*
X142740380Y-111988600D02*
X142232380Y-112496600D01*
X109720380Y-112496600D02*
X108958380Y-113258600D01*
X108958380Y-113258600D02*
X105910380Y-113258600D01*
X102608380Y-112496600D02*
X102100380Y-111988600D01*
X149598380Y-113258600D02*
X146550380Y-113258600D01*
G04 #@! TO.N,/D2*
X146296380Y-129768600D02*
X146296380Y-125958600D01*
X106672380Y-108940600D02*
X107180380Y-109448600D01*
X104132380Y-108940600D02*
X106672380Y-108940600D01*
X103370380Y-108178600D02*
X104132380Y-108940600D01*
X100322380Y-108178600D02*
X103370380Y-108178600D01*
X99560380Y-108940600D02*
X100322380Y-108178600D01*
X87368380Y-108940600D02*
X99560380Y-108940600D01*
X86860380Y-109448600D02*
X87368380Y-108940600D01*
X126992380Y-108940600D02*
X127500380Y-109448600D01*
X107688380Y-108940600D02*
X119880380Y-108940600D01*
X123690380Y-108178600D02*
X124452380Y-108940600D01*
X107180380Y-109448600D02*
X107688380Y-108940600D01*
X124452380Y-108940600D02*
X126992380Y-108940600D01*
X119880380Y-108940600D02*
X120642380Y-108178600D01*
X120642380Y-108178600D02*
X123690380Y-108178600D01*
X140962380Y-108178600D02*
X144010380Y-108178600D01*
X147312380Y-108940600D02*
X147820380Y-109448600D01*
X144772380Y-108940600D02*
X147312380Y-108940600D01*
X144010380Y-108178600D02*
X144772380Y-108940600D01*
X140200380Y-108940600D02*
X140962380Y-108178600D01*
X128008380Y-108940600D02*
X140200380Y-108940600D01*
X127500380Y-109448600D02*
X128008380Y-108940600D01*
X146296380Y-125958600D02*
X147566380Y-124688600D01*
G04 #@! TO.N,/D1*
X106672380Y-106400600D02*
X107180380Y-106908600D01*
X87368380Y-106400600D02*
X99560380Y-106400600D01*
X103370380Y-105638600D02*
X104132380Y-106400600D01*
X86860380Y-106908600D02*
X87368380Y-106400600D01*
X104132380Y-106400600D02*
X106672380Y-106400600D01*
X99560380Y-106400600D02*
X100322380Y-105638600D01*
X100322380Y-105638600D02*
X103370380Y-105638600D01*
X120642380Y-105638600D02*
X123690380Y-105638600D01*
X126992380Y-106400600D02*
X127500380Y-106908600D01*
X124452380Y-106400600D02*
X126992380Y-106400600D01*
X123690380Y-105638600D02*
X124452380Y-106400600D01*
X119880380Y-106400600D02*
X120642380Y-105638600D01*
X107688380Y-106400600D02*
X119880380Y-106400600D01*
X107180380Y-106908600D02*
X107688380Y-106400600D01*
X147312380Y-106400600D02*
X147820380Y-106908600D01*
X144772380Y-106400600D02*
X147312380Y-106400600D01*
X127500380Y-106908600D02*
X128008380Y-106400600D01*
X140962380Y-105638600D02*
X144010380Y-105638600D01*
X140200380Y-106400600D02*
X140962380Y-105638600D01*
X144010380Y-105638600D02*
X144772380Y-106400600D01*
X128008380Y-106400600D02*
X140200380Y-106400600D01*
X143756380Y-129768600D02*
X143756380Y-125958600D01*
X143756380Y-125958600D02*
X145026380Y-124688600D01*
G04 #@! TO.N,/D0*
X104132380Y-103860600D02*
X106672380Y-103860600D01*
X144772380Y-103860600D02*
X147312380Y-103860600D01*
X123690380Y-103098600D02*
X124452380Y-103860600D01*
X106672380Y-103860600D02*
X107180380Y-104368600D01*
X103370380Y-103098600D02*
X104132380Y-103860600D01*
X100322380Y-103098600D02*
X103370380Y-103098600D01*
X107180380Y-104368600D02*
X107688380Y-103860600D01*
X86860380Y-104368600D02*
X87368380Y-103860600D01*
X124452380Y-103860600D02*
X126992380Y-103860600D01*
X119880380Y-103860600D02*
X120642380Y-103098600D01*
X127500380Y-104368600D02*
X128008380Y-103860600D01*
X99560380Y-103860600D02*
X100322380Y-103098600D01*
X87368380Y-103860600D02*
X99560380Y-103860600D01*
X120642380Y-103098600D02*
X123690380Y-103098600D01*
X107688380Y-103860600D02*
X119880380Y-103860600D01*
X140200380Y-103860600D02*
X140962380Y-103098600D01*
X144010380Y-103098600D02*
X144772380Y-103860600D01*
X140962380Y-103098600D02*
X144010380Y-103098600D01*
X126992380Y-103860600D02*
X127500380Y-104368600D01*
X128008380Y-103860600D02*
X140200380Y-103860600D01*
X147312380Y-103860600D02*
X147820380Y-104368600D01*
X141216380Y-129768600D02*
X141216380Y-125958600D01*
X141216380Y-125958600D02*
X142486380Y-124688600D01*
G04 #@! TO.N,/A19*
X133596380Y-129768600D02*
X133596380Y-125958600D01*
X133596380Y-125958600D02*
X134866380Y-124688600D01*
X171188380Y-75920600D02*
X169664380Y-75920600D01*
X171696380Y-76428600D02*
X171188380Y-75920600D01*
X169664380Y-115798600D02*
X134866380Y-115798600D01*
G04 #@! TO.N,/A18*
X131056380Y-129768600D02*
X131056380Y-125958600D01*
X131056380Y-125958600D02*
X132326380Y-124688600D01*
X173474380Y-82778600D02*
X168902380Y-82778600D01*
X178808380Y-82016600D02*
X174236380Y-82016600D01*
X174236380Y-82016600D02*
X173474380Y-82778600D01*
X179316380Y-81508600D02*
X178808380Y-82016600D01*
X168902380Y-116560600D02*
X151122380Y-116560600D01*
X171696380Y-111988600D02*
X171188380Y-111480600D01*
X171188380Y-111480600D02*
X168902380Y-111480600D01*
X151122380Y-116560600D02*
X132326380Y-116560600D01*
X148328380Y-73380600D02*
X147820380Y-73888600D01*
X151122380Y-73380600D02*
X148328380Y-73380600D01*
G04 #@! TO.N,/A17*
X128516380Y-129768600D02*
X128516380Y-125958600D01*
X128516380Y-125958600D02*
X129786380Y-124688600D01*
X174744380Y-80238600D02*
X175506380Y-79476600D01*
X178808380Y-79476600D02*
X179316380Y-78968600D01*
X175506380Y-79476600D02*
X178808380Y-79476600D01*
X168140380Y-80238600D02*
X174744380Y-80238600D01*
X171188380Y-103860600D02*
X171696380Y-104368600D01*
X168140380Y-103860600D02*
X171188380Y-103860600D01*
X167378380Y-79476600D02*
X168140380Y-80238600D01*
X163568380Y-79476600D02*
X167378380Y-79476600D01*
X163060380Y-78968600D02*
X163568380Y-79476600D01*
X168140380Y-117322600D02*
X129786380Y-117322600D01*
G04 #@! TO.N,/A16*
X125976380Y-129768600D02*
X125976380Y-125958600D01*
X140962380Y-75158600D02*
X144010380Y-75158600D01*
X144010380Y-75158600D02*
X144772380Y-75920600D01*
X128008380Y-75920600D02*
X140200380Y-75920600D01*
X140200380Y-75920600D02*
X140962380Y-75158600D01*
X144772380Y-75920600D02*
X147312380Y-75920600D01*
X147312380Y-75920600D02*
X147820380Y-76428600D01*
X127500380Y-76428600D02*
X128008380Y-75920600D01*
X125976380Y-125958600D02*
X127246380Y-124688600D01*
X147820380Y-76458600D02*
X147820380Y-76428600D01*
X164330380Y-75158600D02*
X164838380Y-75666600D01*
X161536380Y-75158600D02*
X164330380Y-75158600D01*
X160774380Y-75920600D02*
X161536380Y-75158600D01*
X148328380Y-75920600D02*
X160774380Y-75920600D01*
X147820380Y-76428600D02*
X148328380Y-75920600D01*
X164838380Y-75666600D02*
X167378380Y-75666600D01*
X171188380Y-101320600D02*
X171696380Y-101828600D01*
X167378380Y-101320600D02*
X171188380Y-101320600D01*
G04 #@! TO.N,/A15*
X123436380Y-129768600D02*
X123436380Y-125958600D01*
X123436380Y-125958600D02*
X124706380Y-124688600D01*
X142262380Y-76936600D02*
X142740380Y-76458600D01*
X129532380Y-76936600D02*
X142262380Y-76936600D01*
X128770380Y-77698600D02*
X129532380Y-76936600D01*
X124960380Y-77698600D02*
X128770380Y-77698600D01*
X150360380Y-76936600D02*
X162582380Y-76936600D01*
X149598380Y-77698600D02*
X150360380Y-76936600D01*
X146042380Y-77698600D02*
X149598380Y-77698600D01*
X145280380Y-76936600D02*
X146042380Y-77698600D01*
X143248380Y-76936600D02*
X145280380Y-76936600D01*
X142770380Y-76458600D02*
X143248380Y-76936600D01*
X162582380Y-76936600D02*
X163060380Y-76458600D01*
X142740380Y-76458600D02*
X142770380Y-76458600D01*
X163060380Y-76458600D02*
X163090380Y-76458600D01*
X163090380Y-76458600D02*
X163568380Y-76936600D01*
X163568380Y-76936600D02*
X166616380Y-76936600D01*
X171188380Y-98780600D02*
X171696380Y-99288600D01*
X166616380Y-98780600D02*
X171188380Y-98780600D01*
G04 #@! TO.N,/A14*
X120896380Y-129768600D02*
X120896380Y-125958600D01*
X123690380Y-77698600D02*
X124452380Y-78460600D01*
X100322380Y-77698600D02*
X103370380Y-77698600D01*
X119880380Y-78460600D02*
X120642380Y-77698600D01*
X120642380Y-77698600D02*
X123690380Y-77698600D01*
X140962380Y-77698600D02*
X144010380Y-77698600D01*
X144010380Y-77698600D02*
X144772380Y-78460600D01*
X99560380Y-78460600D02*
X100322380Y-77698600D01*
X86860380Y-78968600D02*
X87368380Y-78460600D01*
X106672380Y-78460600D02*
X107180380Y-78968600D01*
X103370380Y-77698600D02*
X104132380Y-78460600D01*
X128008380Y-78460600D02*
X140200380Y-78460600D01*
X87368380Y-78460600D02*
X99560380Y-78460600D01*
X144772380Y-78460600D02*
X147312380Y-78460600D01*
X124452380Y-78460600D02*
X126992380Y-78460600D01*
X104132380Y-78460600D02*
X106672380Y-78460600D01*
X140200380Y-78460600D02*
X140962380Y-77698600D01*
X107688380Y-78460600D02*
X119880380Y-78460600D01*
X126992380Y-78460600D02*
X127500380Y-78968600D01*
X147312380Y-78460600D02*
X147820380Y-78968600D01*
X127500380Y-78968600D02*
X128008380Y-78460600D01*
X107180380Y-78968600D02*
X107688380Y-78460600D01*
X120896380Y-125958600D02*
X122166380Y-124688600D01*
G04 #@! TO.N,/A13*
X145788380Y-84556600D02*
X143248380Y-84556600D01*
X129278380Y-85318600D02*
X126230380Y-85318600D01*
X150360380Y-84556600D02*
X149598380Y-85318600D01*
X122420380Y-84048600D02*
X121912380Y-84556600D01*
X105148380Y-84556600D02*
X102608380Y-84556600D01*
X163060380Y-84048600D02*
X162552380Y-84556600D01*
X102608380Y-84556600D02*
X102100380Y-84048600D01*
X125468380Y-84556600D02*
X122928380Y-84556600D01*
X142740380Y-84048600D02*
X142232380Y-84556600D01*
X149598380Y-85318600D02*
X146550380Y-85318600D01*
X122928380Y-84556600D02*
X122420380Y-84048600D01*
X105910380Y-85318600D02*
X105148380Y-84556600D01*
X162552380Y-84556600D02*
X150360380Y-84556600D01*
X146550380Y-85318600D02*
X145788380Y-84556600D01*
X121912380Y-84556600D02*
X109720380Y-84556600D01*
X143248380Y-84556600D02*
X142740380Y-84048600D01*
X130040380Y-84556600D02*
X129278380Y-85318600D01*
X109720380Y-84556600D02*
X108958380Y-85318600D01*
X126230380Y-85318600D02*
X125468380Y-84556600D01*
X108958380Y-85318600D02*
X105910380Y-85318600D01*
X142232380Y-84556600D02*
X130040380Y-84556600D01*
X118356380Y-129768600D02*
X118356380Y-125958600D01*
X118356380Y-125958600D02*
X119626380Y-124688600D01*
G04 #@! TO.N,/A12*
X115816380Y-129768600D02*
X115816380Y-125958600D01*
X127500380Y-81508600D02*
X128008380Y-81000600D01*
X107180380Y-81508600D02*
X107688380Y-81000600D01*
X144010380Y-80238600D02*
X144772380Y-81000600D01*
X120642380Y-80238600D02*
X123690380Y-80238600D01*
X140962380Y-80238600D02*
X144010380Y-80238600D01*
X144772380Y-81000600D02*
X147312380Y-81000600D01*
X100322380Y-80238600D02*
X103370380Y-80238600D01*
X87368380Y-81000600D02*
X99560380Y-81000600D01*
X99560380Y-81000600D02*
X100322380Y-80238600D01*
X147312380Y-81000600D02*
X147820380Y-81508600D01*
X103370380Y-80238600D02*
X104132380Y-81000600D01*
X128008380Y-81000600D02*
X140200380Y-81000600D01*
X123690380Y-80238600D02*
X124452380Y-81000600D01*
X124452380Y-81000600D02*
X126992380Y-81000600D01*
X106672380Y-81000600D02*
X107180380Y-81508600D01*
X104132380Y-81000600D02*
X106672380Y-81000600D01*
X140200380Y-81000600D02*
X140962380Y-80238600D01*
X107688380Y-81000600D02*
X119880380Y-81000600D01*
X126992380Y-81000600D02*
X127500380Y-81508600D01*
X119880380Y-81000600D02*
X120642380Y-80238600D01*
X86860380Y-81508600D02*
X87368380Y-81000600D01*
X115816380Y-125958600D02*
X117086380Y-124688600D01*
G04 #@! TO.N,/A11*
X113276380Y-129768600D02*
X113276380Y-125958600D01*
X122420380Y-91668600D02*
X121912380Y-92176600D01*
X102608380Y-92176600D02*
X102100380Y-91668600D01*
X125468380Y-92176600D02*
X122928380Y-92176600D01*
X142740380Y-91668600D02*
X142232380Y-92176600D01*
X142232380Y-92176600D02*
X130040380Y-92176600D01*
X143248380Y-92176600D02*
X142740380Y-91668600D01*
X109720380Y-92176600D02*
X108958380Y-92938600D01*
X145788380Y-92176600D02*
X143248380Y-92176600D01*
X121912380Y-92176600D02*
X109720380Y-92176600D01*
X105148380Y-92176600D02*
X102608380Y-92176600D01*
X130040380Y-92176600D02*
X129278380Y-92938600D01*
X105910380Y-92938600D02*
X105148380Y-92176600D01*
X162552380Y-92176600D02*
X150360380Y-92176600D01*
X146550380Y-92938600D02*
X145788380Y-92176600D01*
X150360380Y-92176600D02*
X149598380Y-92938600D01*
X129278380Y-92938600D02*
X126230380Y-92938600D01*
X126230380Y-92938600D02*
X125468380Y-92176600D01*
X149598380Y-92938600D02*
X146550380Y-92938600D01*
X163060380Y-91668600D02*
X162552380Y-92176600D01*
X108958380Y-92938600D02*
X105910380Y-92938600D01*
X122928380Y-92176600D02*
X122420380Y-91668600D01*
X113276380Y-125958600D02*
X114546380Y-124688600D01*
G04 #@! TO.N,/A10*
X122928380Y-97256600D02*
X122420380Y-96748600D01*
X102608380Y-97256600D02*
X102100380Y-96748600D01*
X146550380Y-98018600D02*
X145788380Y-97256600D01*
X109720380Y-97256600D02*
X108958380Y-98018600D01*
X149598380Y-98018600D02*
X146550380Y-98018600D01*
X145788380Y-97256600D02*
X143248380Y-97256600D01*
X130040380Y-97256600D02*
X129278380Y-98018600D01*
X142740380Y-96748600D02*
X142232380Y-97256600D01*
X163060380Y-96748600D02*
X162552380Y-97256600D01*
X121912380Y-97256600D02*
X109720380Y-97256600D01*
X129278380Y-98018600D02*
X126230380Y-98018600D01*
X150360380Y-97256600D02*
X149598380Y-98018600D01*
X105910380Y-98018600D02*
X105148380Y-97256600D01*
X162552380Y-97256600D02*
X150360380Y-97256600D01*
X142232380Y-97256600D02*
X130040380Y-97256600D01*
X122420380Y-96748600D02*
X121912380Y-97256600D01*
X125468380Y-97256600D02*
X122928380Y-97256600D01*
X105148380Y-97256600D02*
X102608380Y-97256600D01*
X108958380Y-98018600D02*
X105910380Y-98018600D01*
X143248380Y-97256600D02*
X142740380Y-96748600D01*
X126230380Y-98018600D02*
X125468380Y-97256600D01*
X110736380Y-129768600D02*
X110736380Y-125958600D01*
X110736380Y-125958600D02*
X112006380Y-124688600D01*
G04 #@! TO.N,/A9*
X108196380Y-129768600D02*
X108196380Y-125958600D01*
X102608380Y-89636600D02*
X102100380Y-89128600D01*
X142740380Y-89128600D02*
X142232380Y-89636600D01*
X142232380Y-89636600D02*
X130040380Y-89636600D01*
X122420380Y-89128600D02*
X121912380Y-89636600D01*
X125468380Y-89636600D02*
X122928380Y-89636600D01*
X163060380Y-89128600D02*
X162552380Y-89636600D01*
X121912380Y-89636600D02*
X109720380Y-89636600D01*
X105148380Y-89636600D02*
X102608380Y-89636600D01*
X105910380Y-90398600D02*
X105148380Y-89636600D01*
X108958380Y-90398600D02*
X105910380Y-90398600D01*
X162552380Y-89636600D02*
X150360380Y-89636600D01*
X146550380Y-90398600D02*
X145788380Y-89636600D01*
X130040380Y-89636600D02*
X129278380Y-90398600D01*
X143248380Y-89636600D02*
X142740380Y-89128600D01*
X129278380Y-90398600D02*
X126230380Y-90398600D01*
X109720380Y-89636600D02*
X108958380Y-90398600D01*
X150360380Y-89636600D02*
X149598380Y-90398600D01*
X145788380Y-89636600D02*
X143248380Y-89636600D01*
X126230380Y-90398600D02*
X125468380Y-89636600D01*
X149598380Y-90398600D02*
X146550380Y-90398600D01*
X122928380Y-89636600D02*
X122420380Y-89128600D01*
X108196380Y-125958600D02*
X109466380Y-124688600D01*
G04 #@! TO.N,/A8*
X105656380Y-129768600D02*
X105656380Y-125958600D01*
X130040380Y-87096600D02*
X129278380Y-87858600D01*
X146550380Y-87858600D02*
X145788380Y-87096600D01*
X109720380Y-87096600D02*
X108958380Y-87858600D01*
X149598380Y-87858600D02*
X146550380Y-87858600D01*
X150360380Y-87096600D02*
X149598380Y-87858600D01*
X122928380Y-87096600D02*
X122420380Y-86588600D01*
X143248380Y-87096600D02*
X142740380Y-86588600D01*
X129278380Y-87858600D02*
X126230380Y-87858600D01*
X145788380Y-87096600D02*
X143248380Y-87096600D01*
X126230380Y-87858600D02*
X125468380Y-87096600D01*
X162552380Y-87096600D02*
X150360380Y-87096600D01*
X122420380Y-86588600D02*
X121912380Y-87096600D01*
X102608380Y-87096600D02*
X102100380Y-86588600D01*
X125468380Y-87096600D02*
X122928380Y-87096600D01*
X121912380Y-87096600D02*
X109720380Y-87096600D01*
X105148380Y-87096600D02*
X102608380Y-87096600D01*
X105910380Y-87858600D02*
X105148380Y-87096600D01*
X142740380Y-86588600D02*
X142232380Y-87096600D01*
X163060380Y-86588600D02*
X162552380Y-87096600D01*
X142232380Y-87096600D02*
X130040380Y-87096600D01*
X108958380Y-87858600D02*
X105910380Y-87858600D01*
X105656380Y-125958600D02*
X106926380Y-124688600D01*
G04 #@! TO.N,/A7*
X140200380Y-83540600D02*
X140962380Y-82778600D01*
X128008380Y-83540600D02*
X140200380Y-83540600D01*
X120642380Y-82778600D02*
X123690380Y-82778600D01*
X123690380Y-82778600D02*
X124452380Y-83540600D01*
X107180380Y-84048600D02*
X107688380Y-83540600D01*
X144010380Y-82778600D02*
X144772380Y-83540600D01*
X103370380Y-82778600D02*
X104132380Y-83540600D01*
X140962380Y-82778600D02*
X144010380Y-82778600D01*
X147312380Y-83540600D02*
X147820380Y-84048600D01*
X87368380Y-83540600D02*
X99560380Y-83540600D01*
X119880380Y-83540600D02*
X120642380Y-82778600D01*
X99560380Y-83540600D02*
X100322380Y-82778600D01*
X144772380Y-83540600D02*
X147312380Y-83540600D01*
X124452380Y-83540600D02*
X126992380Y-83540600D01*
X106672380Y-83540600D02*
X107180380Y-84048600D01*
X86860380Y-84048600D02*
X87368380Y-83540600D01*
X107688380Y-83540600D02*
X119880380Y-83540600D01*
X104132380Y-83540600D02*
X106672380Y-83540600D01*
X126992380Y-83540600D02*
X127500380Y-84048600D01*
X127500380Y-84048600D02*
X128008380Y-83540600D01*
X100322380Y-82778600D02*
X103370380Y-82778600D01*
X103116380Y-129768600D02*
X103116380Y-125958600D01*
X103116380Y-125958600D02*
X104386380Y-124688600D01*
G04 #@! TO.N,/A6*
X100576380Y-129768600D02*
X100576380Y-125958600D01*
X126992380Y-86080600D02*
X127500380Y-86588600D01*
X144772380Y-86080600D02*
X147312380Y-86080600D01*
X140200380Y-86080600D02*
X140962380Y-85318600D01*
X127500380Y-86588600D02*
X128008380Y-86080600D01*
X119880380Y-86080600D02*
X120642380Y-85318600D01*
X128008380Y-86080600D02*
X140200380Y-86080600D01*
X104132380Y-86080600D02*
X106672380Y-86080600D01*
X86860380Y-86588600D02*
X87368380Y-86080600D01*
X140962380Y-85318600D02*
X144010380Y-85318600D01*
X106672380Y-86080600D02*
X107180380Y-86588600D01*
X107688380Y-86080600D02*
X119880380Y-86080600D01*
X124452380Y-86080600D02*
X126992380Y-86080600D01*
X87368380Y-86080600D02*
X99560380Y-86080600D01*
X120642380Y-85318600D02*
X123690380Y-85318600D01*
X123690380Y-85318600D02*
X124452380Y-86080600D01*
X107180380Y-86588600D02*
X107688380Y-86080600D01*
X144010380Y-85318600D02*
X144772380Y-86080600D01*
X103370380Y-85318600D02*
X104132380Y-86080600D01*
X147312380Y-86080600D02*
X147820380Y-86588600D01*
X99560380Y-86080600D02*
X100322380Y-85318600D01*
X100322380Y-85318600D02*
X103370380Y-85318600D01*
X100576380Y-125958600D02*
X101846380Y-124688600D01*
G04 #@! TO.N,/A5*
X98036380Y-129768600D02*
X98036380Y-125958600D01*
X87368380Y-88620600D02*
X99560380Y-88620600D01*
X124452380Y-88620600D02*
X126992380Y-88620600D01*
X144010380Y-87858600D02*
X144772380Y-88620600D01*
X147312380Y-88620600D02*
X147820380Y-89128600D01*
X103370380Y-87858600D02*
X104132380Y-88620600D01*
X86860380Y-89128600D02*
X87368380Y-88620600D01*
X140962380Y-87858600D02*
X144010380Y-87858600D01*
X106672380Y-88620600D02*
X107180380Y-89128600D01*
X107180380Y-89128600D02*
X107688380Y-88620600D01*
X107688380Y-88620600D02*
X119880380Y-88620600D01*
X120642380Y-87858600D02*
X123690380Y-87858600D01*
X99560380Y-88620600D02*
X100322380Y-87858600D01*
X100322380Y-87858600D02*
X103370380Y-87858600D01*
X123690380Y-87858600D02*
X124452380Y-88620600D01*
X140200380Y-88620600D02*
X140962380Y-87858600D01*
X144772380Y-88620600D02*
X147312380Y-88620600D01*
X119880380Y-88620600D02*
X120642380Y-87858600D01*
X104132380Y-88620600D02*
X106672380Y-88620600D01*
X127500380Y-89128600D02*
X128008380Y-88620600D01*
X126992380Y-88620600D02*
X127500380Y-89128600D01*
X128008380Y-88620600D02*
X140200380Y-88620600D01*
X98036380Y-125958600D02*
X99306380Y-124688600D01*
G04 #@! TO.N,/A4*
X95496380Y-129768600D02*
X95496380Y-125958600D01*
X87368380Y-91160600D02*
X99560380Y-91160600D01*
X144010380Y-90398600D02*
X144772380Y-91160600D01*
X124452380Y-91160600D02*
X126992380Y-91160600D01*
X147312380Y-91160600D02*
X147820380Y-91668600D01*
X103370380Y-90398600D02*
X104132380Y-91160600D01*
X86860380Y-91668600D02*
X87368380Y-91160600D01*
X100322380Y-90398600D02*
X103370380Y-90398600D01*
X128008380Y-91160600D02*
X140200380Y-91160600D01*
X140962380Y-90398600D02*
X144010380Y-90398600D01*
X107688380Y-91160600D02*
X119880380Y-91160600D01*
X99560380Y-91160600D02*
X100322380Y-90398600D01*
X106672380Y-91160600D02*
X107180380Y-91668600D01*
X120642380Y-90398600D02*
X123690380Y-90398600D01*
X104132380Y-91160600D02*
X106672380Y-91160600D01*
X144772380Y-91160600D02*
X147312380Y-91160600D01*
X107180380Y-91668600D02*
X107688380Y-91160600D01*
X127500380Y-91668600D02*
X128008380Y-91160600D01*
X126992380Y-91160600D02*
X127500380Y-91668600D01*
X140200380Y-91160600D02*
X140962380Y-90398600D01*
X119880380Y-91160600D02*
X120642380Y-90398600D01*
X123690380Y-90398600D02*
X124452380Y-91160600D01*
X95496380Y-125958600D02*
X96766380Y-124688600D01*
G04 #@! TO.N,/A3*
X92956380Y-129768600D02*
X92956380Y-125958600D01*
X119880380Y-93700600D02*
X120642380Y-92938600D01*
X127500380Y-94208600D02*
X128008380Y-93700600D01*
X100322380Y-92938600D02*
X103370380Y-92938600D01*
X128008380Y-93700600D02*
X140200380Y-93700600D01*
X87368380Y-93700600D02*
X99560380Y-93700600D01*
X144772380Y-93700600D02*
X147312380Y-93700600D01*
X107180380Y-94208600D02*
X107688380Y-93700600D01*
X144010380Y-92938600D02*
X144772380Y-93700600D01*
X123690380Y-92938600D02*
X124452380Y-93700600D01*
X140962380Y-92938600D02*
X144010380Y-92938600D01*
X107688380Y-93700600D02*
X119880380Y-93700600D01*
X120642380Y-92938600D02*
X123690380Y-92938600D01*
X106672380Y-93700600D02*
X107180380Y-94208600D01*
X124452380Y-93700600D02*
X126992380Y-93700600D01*
X99560380Y-93700600D02*
X100322380Y-92938600D01*
X104132380Y-93700600D02*
X106672380Y-93700600D01*
X147312380Y-93700600D02*
X147820380Y-94208600D01*
X103370380Y-92938600D02*
X104132380Y-93700600D01*
X86860380Y-94208600D02*
X87368380Y-93700600D01*
X126992380Y-93700600D02*
X127500380Y-94208600D01*
X140200380Y-93700600D02*
X140962380Y-92938600D01*
X92956380Y-125958600D02*
X94226380Y-124688600D01*
G04 #@! TO.N,/A2*
X90416380Y-129768600D02*
X90416380Y-125958600D01*
X124452380Y-96240600D02*
X126992380Y-96240600D01*
X140962380Y-95478600D02*
X144010380Y-95478600D01*
X99560380Y-96240600D02*
X100322380Y-95478600D01*
X87368380Y-96240600D02*
X99560380Y-96240600D01*
X104132380Y-96240600D02*
X106672380Y-96240600D01*
X147312380Y-96240600D02*
X147820380Y-96748600D01*
X144772380Y-96240600D02*
X147312380Y-96240600D01*
X123690380Y-95478600D02*
X124452380Y-96240600D01*
X107180380Y-96748600D02*
X107688380Y-96240600D01*
X103370380Y-95478600D02*
X104132380Y-96240600D01*
X144010380Y-95478600D02*
X144772380Y-96240600D01*
X107688380Y-96240600D02*
X119880380Y-96240600D01*
X120642380Y-95478600D02*
X123690380Y-95478600D01*
X86860380Y-96748600D02*
X87368380Y-96240600D01*
X126992380Y-96240600D02*
X127500380Y-96748600D01*
X106672380Y-96240600D02*
X107180380Y-96748600D01*
X140200380Y-96240600D02*
X140962380Y-95478600D01*
X127500380Y-96748600D02*
X128008380Y-96240600D01*
X100322380Y-95478600D02*
X103370380Y-95478600D01*
X119880380Y-96240600D02*
X120642380Y-95478600D01*
X128008380Y-96240600D02*
X140200380Y-96240600D01*
X90416380Y-125958600D02*
X91686380Y-124688600D01*
G04 #@! TO.N,/A1*
X104132380Y-98780600D02*
X106672380Y-98780600D01*
X147312380Y-98780600D02*
X147820380Y-99288600D01*
X144772380Y-98780600D02*
X147312380Y-98780600D01*
X144010380Y-98018600D02*
X144772380Y-98780600D01*
X87368380Y-98780600D02*
X99560380Y-98780600D01*
X124452380Y-98780600D02*
X126992380Y-98780600D01*
X123690380Y-98018600D02*
X124452380Y-98780600D01*
X107180380Y-99288600D02*
X107688380Y-98780600D01*
X103370380Y-98018600D02*
X104132380Y-98780600D01*
X107688380Y-98780600D02*
X119880380Y-98780600D01*
X140962380Y-98018600D02*
X144010380Y-98018600D01*
X99560380Y-98780600D02*
X100322380Y-98018600D01*
X120642380Y-98018600D02*
X123690380Y-98018600D01*
X127500380Y-99288600D02*
X128008380Y-98780600D01*
X100322380Y-98018600D02*
X103370380Y-98018600D01*
X128008380Y-98780600D02*
X140200380Y-98780600D01*
X126992380Y-98780600D02*
X127500380Y-99288600D01*
X86860380Y-99288600D02*
X87368380Y-98780600D01*
X119880380Y-98780600D02*
X120642380Y-98018600D01*
X140200380Y-98780600D02*
X140962380Y-98018600D01*
X106672380Y-98780600D02*
X107180380Y-99288600D01*
X87876380Y-129768600D02*
X87876380Y-125958600D01*
X87876380Y-125958600D02*
X89146380Y-124688600D01*
G04 #@! TO.N,/A0*
X104132380Y-101320600D02*
X106672380Y-101320600D01*
X144772380Y-101320600D02*
X147312380Y-101320600D01*
X147312380Y-101320600D02*
X147820380Y-101828600D01*
X144010380Y-100558600D02*
X144772380Y-101320600D01*
X128008380Y-101320600D02*
X140200380Y-101320600D01*
X140962380Y-100558600D02*
X144010380Y-100558600D01*
X126992380Y-101320600D02*
X127500380Y-101828600D01*
X123690380Y-100558600D02*
X124452380Y-101320600D01*
X86860380Y-101828600D02*
X87368380Y-101320600D01*
X100322380Y-100558600D02*
X103370380Y-100558600D01*
X107180380Y-101828600D02*
X107688380Y-101320600D01*
X106672380Y-101320600D02*
X107180380Y-101828600D01*
X103370380Y-100558600D02*
X104132380Y-101320600D01*
X119880380Y-101320600D02*
X120642380Y-100558600D01*
X107688380Y-101320600D02*
X119880380Y-101320600D01*
X140200380Y-101320600D02*
X140962380Y-100558600D01*
X87368380Y-101320600D02*
X99560380Y-101320600D01*
X99560380Y-101320600D02*
X100322380Y-100558600D01*
X120642380Y-100558600D02*
X123690380Y-100558600D01*
X124452380Y-101320600D02*
X126992380Y-101320600D01*
X127500380Y-101828600D02*
X128008380Y-101320600D01*
X85336380Y-129768600D02*
X85336380Y-125958600D01*
X85336380Y-125958600D02*
X86606380Y-124688600D01*
G04 #@! TO.N,/MWR*
X129278380Y-82016600D02*
X142262380Y-82016600D01*
X142262380Y-82016600D02*
X142740380Y-81538600D01*
X128516380Y-82778600D02*
X129278380Y-82016600D01*
X126230380Y-82778600D02*
X128516380Y-82778600D01*
X125468380Y-82016600D02*
X126230380Y-82778600D01*
X122928380Y-82016600D02*
X125468380Y-82016600D01*
X122420380Y-81508600D02*
X122928380Y-82016600D01*
X145788380Y-82016600D02*
X146550380Y-82778600D01*
X143248380Y-82016600D02*
X145788380Y-82016600D01*
X142740380Y-81508600D02*
X143248380Y-82016600D01*
X146550380Y-82778600D02*
X148836380Y-82778600D01*
X162582380Y-82016600D02*
X163060380Y-81538600D01*
X149598380Y-82016600D02*
X162582380Y-82016600D01*
X148836380Y-82778600D02*
X149598380Y-82016600D01*
G04 #@! TO.N,/MRD*
X108958380Y-95478600D02*
X105910380Y-95478600D01*
X105148380Y-94716600D02*
X102608380Y-94716600D01*
X142232380Y-94716600D02*
X130040380Y-94716600D01*
X125468380Y-94716600D02*
X122928380Y-94716600D01*
X126230380Y-95478600D02*
X125468380Y-94716600D01*
X143248380Y-94716600D02*
X142740380Y-94208600D01*
X122420380Y-94208600D02*
X121912380Y-94716600D01*
X109720380Y-94716600D02*
X108958380Y-95478600D01*
X145788380Y-94716600D02*
X143248380Y-94716600D01*
X121912380Y-94716600D02*
X109720380Y-94716600D01*
X122928380Y-94716600D02*
X122420380Y-94208600D01*
X149598380Y-95478600D02*
X146550380Y-95478600D01*
X142740380Y-94208600D02*
X142232380Y-94716600D01*
X102608380Y-94716600D02*
X102100380Y-94208600D01*
X163060380Y-94208600D02*
X162552380Y-94716600D01*
X150360380Y-94716600D02*
X149598380Y-95478600D01*
X130040380Y-94716600D02*
X129278380Y-95478600D01*
X129278380Y-95478600D02*
X126230380Y-95478600D01*
X146550380Y-95478600D02*
X145788380Y-94716600D01*
X105910380Y-95478600D02*
X105148380Y-94716600D01*
X162552380Y-94716600D02*
X150360380Y-94716600D01*
G04 #@! TO.N,/32K_RAM_CS*
X122928380Y-99796600D02*
X122420380Y-99288600D01*
X125468380Y-99796600D02*
X122928380Y-99796600D01*
X179316380Y-117068600D02*
X178046380Y-118338600D01*
X178046380Y-118338600D02*
X125468380Y-118338600D01*
G04 #@! TO.N,/32K_ROM_CS*
X171696380Y-114528600D02*
X171188380Y-115036600D01*
X171188380Y-115036600D02*
X105148380Y-115036600D01*
X102608380Y-99796600D02*
X102100380Y-99288600D01*
X105148380Y-99796600D02*
X102608380Y-99796600D01*
G04 #@! TO.N,/512K_CS*
X163538380Y-99796600D02*
X163060380Y-99318600D01*
X165854380Y-99796600D02*
X163538380Y-99796600D01*
X171188380Y-82016600D02*
X165854380Y-82016600D01*
X171696380Y-81508600D02*
X171188380Y-82016600D01*
G04 #@! TO.N,/UPPER_512K*
X171696380Y-84048600D02*
X172204380Y-84556600D01*
X172204380Y-84556600D02*
X175506380Y-84556600D01*
X171950380Y-107162600D02*
X171696380Y-106908600D01*
X175506380Y-107162600D02*
X171950380Y-107162600D01*
X179062380Y-76682600D02*
X179316380Y-76428600D01*
X175506380Y-76682600D02*
X179062380Y-76682600D01*
G04 #@! TO.N,/128K_CS*
X142740380Y-99318600D02*
X142770380Y-99318600D01*
X142770380Y-99318600D02*
X143248380Y-99796600D01*
X143248380Y-99796600D02*
X146042380Y-99796600D01*
X146042380Y-99796600D02*
X146804380Y-100558600D01*
X146804380Y-100558600D02*
X149344380Y-100558600D01*
X149344380Y-100558600D02*
X150106380Y-99796600D01*
X150106380Y-99796600D02*
X160774380Y-99796600D01*
X179316380Y-84048600D02*
X178808380Y-84556600D01*
X178808380Y-84556600D02*
X177284380Y-84556600D01*
X177284380Y-84556600D02*
X176522380Y-85318600D01*
X176522380Y-85318600D02*
X165854380Y-85318600D01*
X165854380Y-85318600D02*
X160774380Y-85318600D01*
G04 #@! TD*
M02*
