G04 #@! TF.GenerationSoftware,KiCad,Pcbnew,(5.1.8)-1*
G04 #@! TF.CreationDate,2022-04-01T17:24:14-06:00*
G04 #@! TF.ProjectId,640k,3634306b-2e6b-4696-9361-645f70636258,rev?*
G04 #@! TF.SameCoordinates,Original*
G04 #@! TF.FileFunction,Copper,L2,Bot*
G04 #@! TF.FilePolarity,Positive*
%FSLAX46Y46*%
G04 Gerber Fmt 4.6, Leading zero omitted, Abs format (unit mm)*
G04 Created by KiCad (PCBNEW (5.1.8)-1) date 2022-04-01 17:24:14*
%MOMM*%
%LPD*%
G01*
G04 APERTURE LIST*
G04 #@! TA.AperFunction,ComponentPad*
%ADD10O,1.600000X1.600000*%
G04 #@! TD*
G04 #@! TA.AperFunction,ComponentPad*
%ADD11R,1.600000X1.600000*%
G04 #@! TD*
G04 #@! TA.AperFunction,ComponentPad*
%ADD12C,1.600000*%
G04 #@! TD*
G04 #@! TA.AperFunction,ConnectorPad*
%ADD13R,1.780000X7.620000*%
G04 #@! TD*
G04 #@! TA.AperFunction,ComponentPad*
%ADD14C,3.556000*%
G04 #@! TD*
G04 #@! TA.AperFunction,ViaPad*
%ADD15C,0.800000*%
G04 #@! TD*
G04 #@! TA.AperFunction,Conductor*
%ADD16C,0.330200*%
G04 #@! TD*
G04 #@! TA.AperFunction,Conductor*
%ADD17C,0.250000*%
G04 #@! TD*
G04 APERTURE END LIST*
D10*
G04 #@! TO.P,U6,32*
G04 #@! TO.N,/5+*
X142740380Y-73888600D03*
G04 #@! TO.P,U6,16*
G04 #@! TO.N,/GND*
X127500380Y-111988600D03*
G04 #@! TO.P,U6,31*
G04 #@! TO.N,/A15*
X142740380Y-76428600D03*
G04 #@! TO.P,U6,15*
G04 #@! TO.N,/D2*
X127500380Y-109448600D03*
G04 #@! TO.P,U6,30*
G04 #@! TO.N,/5+*
X142740380Y-78968600D03*
G04 #@! TO.P,U6,14*
G04 #@! TO.N,/D1*
X127500380Y-106908600D03*
G04 #@! TO.P,U6,29*
G04 #@! TO.N,/MWR*
X142740380Y-81508600D03*
G04 #@! TO.P,U6,13*
G04 #@! TO.N,/D0*
X127500380Y-104368600D03*
G04 #@! TO.P,U6,28*
G04 #@! TO.N,/A13*
X142740380Y-84048600D03*
G04 #@! TO.P,U6,12*
G04 #@! TO.N,/A0*
X127500380Y-101828600D03*
G04 #@! TO.P,U6,27*
G04 #@! TO.N,/A8*
X142740380Y-86588600D03*
G04 #@! TO.P,U6,11*
G04 #@! TO.N,/A1*
X127500380Y-99288600D03*
G04 #@! TO.P,U6,26*
G04 #@! TO.N,/A9*
X142740380Y-89128600D03*
G04 #@! TO.P,U6,10*
G04 #@! TO.N,/A2*
X127500380Y-96748600D03*
G04 #@! TO.P,U6,25*
G04 #@! TO.N,/A11*
X142740380Y-91668600D03*
G04 #@! TO.P,U6,9*
G04 #@! TO.N,/A3*
X127500380Y-94208600D03*
G04 #@! TO.P,U6,24*
G04 #@! TO.N,/MRD*
X142740380Y-94208600D03*
G04 #@! TO.P,U6,8*
G04 #@! TO.N,/A4*
X127500380Y-91668600D03*
G04 #@! TO.P,U6,23*
G04 #@! TO.N,/A10*
X142740380Y-96748600D03*
G04 #@! TO.P,U6,7*
G04 #@! TO.N,/A5*
X127500380Y-89128600D03*
G04 #@! TO.P,U6,22*
G04 #@! TO.N,/128K_CS*
X142740380Y-99288600D03*
G04 #@! TO.P,U6,6*
G04 #@! TO.N,/A6*
X127500380Y-86588600D03*
G04 #@! TO.P,U6,21*
G04 #@! TO.N,/D7*
X142740380Y-101828600D03*
G04 #@! TO.P,U6,5*
G04 #@! TO.N,/A7*
X127500380Y-84048600D03*
G04 #@! TO.P,U6,20*
G04 #@! TO.N,/D6*
X142740380Y-104368600D03*
G04 #@! TO.P,U6,4*
G04 #@! TO.N,/A12*
X127500380Y-81508600D03*
G04 #@! TO.P,U6,19*
G04 #@! TO.N,/D5*
X142740380Y-106908600D03*
G04 #@! TO.P,U6,3*
G04 #@! TO.N,/A14*
X127500380Y-78968600D03*
G04 #@! TO.P,U6,18*
G04 #@! TO.N,/D4*
X142740380Y-109448600D03*
G04 #@! TO.P,U6,2*
G04 #@! TO.N,/A16*
X127500380Y-76428600D03*
G04 #@! TO.P,U6,17*
G04 #@! TO.N,/D3*
X142740380Y-111988600D03*
D11*
G04 #@! TO.P,U6,1*
G04 #@! TO.N,Net-(U6-Pad1)*
X127500380Y-73888600D03*
G04 #@! TD*
D10*
G04 #@! TO.P,U3,32*
G04 #@! TO.N,/5+*
X163060380Y-73888600D03*
G04 #@! TO.P,U3,16*
G04 #@! TO.N,/GND*
X147820380Y-111988600D03*
G04 #@! TO.P,U3,31*
G04 #@! TO.N,/A15*
X163060380Y-76428600D03*
G04 #@! TO.P,U3,15*
G04 #@! TO.N,/D2*
X147820380Y-109448600D03*
G04 #@! TO.P,U3,30*
G04 #@! TO.N,/A17*
X163060380Y-78968600D03*
G04 #@! TO.P,U3,14*
G04 #@! TO.N,/D1*
X147820380Y-106908600D03*
G04 #@! TO.P,U3,29*
G04 #@! TO.N,/MWR*
X163060380Y-81508600D03*
G04 #@! TO.P,U3,13*
G04 #@! TO.N,/D0*
X147820380Y-104368600D03*
G04 #@! TO.P,U3,28*
G04 #@! TO.N,/A13*
X163060380Y-84048600D03*
G04 #@! TO.P,U3,12*
G04 #@! TO.N,/A0*
X147820380Y-101828600D03*
G04 #@! TO.P,U3,27*
G04 #@! TO.N,/A8*
X163060380Y-86588600D03*
G04 #@! TO.P,U3,11*
G04 #@! TO.N,/A1*
X147820380Y-99288600D03*
G04 #@! TO.P,U3,26*
G04 #@! TO.N,/A9*
X163060380Y-89128600D03*
G04 #@! TO.P,U3,10*
G04 #@! TO.N,/A2*
X147820380Y-96748600D03*
G04 #@! TO.P,U3,25*
G04 #@! TO.N,/A11*
X163060380Y-91668600D03*
G04 #@! TO.P,U3,9*
G04 #@! TO.N,/A3*
X147820380Y-94208600D03*
G04 #@! TO.P,U3,24*
G04 #@! TO.N,/MRD*
X163060380Y-94208600D03*
G04 #@! TO.P,U3,8*
G04 #@! TO.N,/A4*
X147820380Y-91668600D03*
G04 #@! TO.P,U3,23*
G04 #@! TO.N,/A10*
X163060380Y-96748600D03*
G04 #@! TO.P,U3,7*
G04 #@! TO.N,/A5*
X147820380Y-89128600D03*
G04 #@! TO.P,U3,22*
G04 #@! TO.N,/512K_CS*
X163060380Y-99288600D03*
G04 #@! TO.P,U3,6*
G04 #@! TO.N,/A6*
X147820380Y-86588600D03*
G04 #@! TO.P,U3,21*
G04 #@! TO.N,/D7*
X163060380Y-101828600D03*
G04 #@! TO.P,U3,5*
G04 #@! TO.N,/A7*
X147820380Y-84048600D03*
G04 #@! TO.P,U3,20*
G04 #@! TO.N,/D6*
X163060380Y-104368600D03*
G04 #@! TO.P,U3,4*
G04 #@! TO.N,/A12*
X147820380Y-81508600D03*
G04 #@! TO.P,U3,19*
G04 #@! TO.N,/D5*
X163060380Y-106908600D03*
G04 #@! TO.P,U3,3*
G04 #@! TO.N,/A14*
X147820380Y-78968600D03*
G04 #@! TO.P,U3,18*
G04 #@! TO.N,/D4*
X163060380Y-109448600D03*
G04 #@! TO.P,U3,2*
G04 #@! TO.N,/A16*
X147820380Y-76428600D03*
G04 #@! TO.P,U3,17*
G04 #@! TO.N,/D3*
X163060380Y-111988600D03*
D11*
G04 #@! TO.P,U3,1*
G04 #@! TO.N,/A18*
X147820380Y-73888600D03*
G04 #@! TD*
D10*
G04 #@! TO.P,U2,28*
G04 #@! TO.N,/5+*
X102100380Y-78968600D03*
G04 #@! TO.P,U2,14*
G04 #@! TO.N,/GND*
X86860380Y-111988600D03*
G04 #@! TO.P,U2,27*
G04 #@! TO.N,/5+*
X102100380Y-81508600D03*
G04 #@! TO.P,U2,13*
G04 #@! TO.N,/D2*
X86860380Y-109448600D03*
G04 #@! TO.P,U2,26*
G04 #@! TO.N,/A13*
X102100380Y-84048600D03*
G04 #@! TO.P,U2,12*
G04 #@! TO.N,/D1*
X86860380Y-106908600D03*
G04 #@! TO.P,U2,25*
G04 #@! TO.N,/A8*
X102100380Y-86588600D03*
G04 #@! TO.P,U2,11*
G04 #@! TO.N,/D0*
X86860380Y-104368600D03*
G04 #@! TO.P,U2,24*
G04 #@! TO.N,/A9*
X102100380Y-89128600D03*
G04 #@! TO.P,U2,10*
G04 #@! TO.N,/A0*
X86860380Y-101828600D03*
G04 #@! TO.P,U2,23*
G04 #@! TO.N,/A11*
X102100380Y-91668600D03*
G04 #@! TO.P,U2,9*
G04 #@! TO.N,/A1*
X86860380Y-99288600D03*
G04 #@! TO.P,U2,22*
G04 #@! TO.N,/MRD*
X102100380Y-94208600D03*
G04 #@! TO.P,U2,8*
G04 #@! TO.N,/A2*
X86860380Y-96748600D03*
G04 #@! TO.P,U2,21*
G04 #@! TO.N,/A10*
X102100380Y-96748600D03*
G04 #@! TO.P,U2,7*
G04 #@! TO.N,/A3*
X86860380Y-94208600D03*
G04 #@! TO.P,U2,20*
G04 #@! TO.N,/32K_ROM_CS*
X102100380Y-99288600D03*
G04 #@! TO.P,U2,6*
G04 #@! TO.N,/A4*
X86860380Y-91668600D03*
G04 #@! TO.P,U2,19*
G04 #@! TO.N,/D7*
X102100380Y-101828600D03*
G04 #@! TO.P,U2,5*
G04 #@! TO.N,/A5*
X86860380Y-89128600D03*
G04 #@! TO.P,U2,18*
G04 #@! TO.N,/D6*
X102100380Y-104368600D03*
G04 #@! TO.P,U2,4*
G04 #@! TO.N,/A6*
X86860380Y-86588600D03*
G04 #@! TO.P,U2,17*
G04 #@! TO.N,/D5*
X102100380Y-106908600D03*
G04 #@! TO.P,U2,3*
G04 #@! TO.N,/A7*
X86860380Y-84048600D03*
G04 #@! TO.P,U2,16*
G04 #@! TO.N,/D4*
X102100380Y-109448600D03*
G04 #@! TO.P,U2,2*
G04 #@! TO.N,/A12*
X86860380Y-81508600D03*
G04 #@! TO.P,U2,15*
G04 #@! TO.N,/D3*
X102100380Y-111988600D03*
D11*
G04 #@! TO.P,U2,1*
G04 #@! TO.N,/A14*
X86860380Y-78968600D03*
G04 #@! TD*
D10*
G04 #@! TO.P,U1,28*
G04 #@! TO.N,/5+*
X122420380Y-78968600D03*
G04 #@! TO.P,U1,14*
G04 #@! TO.N,/GND*
X107180380Y-111988600D03*
G04 #@! TO.P,U1,27*
G04 #@! TO.N,/MWR*
X122420380Y-81508600D03*
G04 #@! TO.P,U1,13*
G04 #@! TO.N,/D2*
X107180380Y-109448600D03*
G04 #@! TO.P,U1,26*
G04 #@! TO.N,/A13*
X122420380Y-84048600D03*
G04 #@! TO.P,U1,12*
G04 #@! TO.N,/D1*
X107180380Y-106908600D03*
G04 #@! TO.P,U1,25*
G04 #@! TO.N,/A8*
X122420380Y-86588600D03*
G04 #@! TO.P,U1,11*
G04 #@! TO.N,/D0*
X107180380Y-104368600D03*
G04 #@! TO.P,U1,24*
G04 #@! TO.N,/A9*
X122420380Y-89128600D03*
G04 #@! TO.P,U1,10*
G04 #@! TO.N,/A0*
X107180380Y-101828600D03*
G04 #@! TO.P,U1,23*
G04 #@! TO.N,/A11*
X122420380Y-91668600D03*
G04 #@! TO.P,U1,9*
G04 #@! TO.N,/A1*
X107180380Y-99288600D03*
G04 #@! TO.P,U1,22*
G04 #@! TO.N,/MRD*
X122420380Y-94208600D03*
G04 #@! TO.P,U1,8*
G04 #@! TO.N,/A2*
X107180380Y-96748600D03*
G04 #@! TO.P,U1,21*
G04 #@! TO.N,/A10*
X122420380Y-96748600D03*
G04 #@! TO.P,U1,7*
G04 #@! TO.N,/A3*
X107180380Y-94208600D03*
G04 #@! TO.P,U1,20*
G04 #@! TO.N,/32K_RAM_CS*
X122420380Y-99288600D03*
G04 #@! TO.P,U1,6*
G04 #@! TO.N,/A4*
X107180380Y-91668600D03*
G04 #@! TO.P,U1,19*
G04 #@! TO.N,/D7*
X122420380Y-101828600D03*
G04 #@! TO.P,U1,5*
G04 #@! TO.N,/A5*
X107180380Y-89128600D03*
G04 #@! TO.P,U1,18*
G04 #@! TO.N,/D6*
X122420380Y-104368600D03*
G04 #@! TO.P,U1,4*
G04 #@! TO.N,/A6*
X107180380Y-86588600D03*
G04 #@! TO.P,U1,17*
G04 #@! TO.N,/D5*
X122420380Y-106908600D03*
G04 #@! TO.P,U1,3*
G04 #@! TO.N,/A7*
X107180380Y-84048600D03*
G04 #@! TO.P,U1,16*
G04 #@! TO.N,/D4*
X122420380Y-109448600D03*
G04 #@! TO.P,U1,2*
G04 #@! TO.N,/A12*
X107180380Y-81508600D03*
G04 #@! TO.P,U1,15*
G04 #@! TO.N,/D3*
X122420380Y-111988600D03*
D11*
G04 #@! TO.P,U1,1*
G04 #@! TO.N,/A14*
X107180380Y-78968600D03*
G04 #@! TD*
D12*
G04 #@! TO.P,C6,2*
G04 #@! TO.N,/5+*
X163060380Y-70586600D03*
G04 #@! TO.P,C6,1*
G04 #@! TO.N,/GND*
X158060380Y-70586600D03*
G04 #@! TD*
G04 #@! TO.P,C3,2*
G04 #@! TO.N,/5+*
X122420380Y-75666600D03*
G04 #@! TO.P,C3,1*
G04 #@! TO.N,/GND*
X117420380Y-75666600D03*
G04 #@! TD*
G04 #@! TO.P,C2,2*
G04 #@! TO.N,/5+*
X142740380Y-70586600D03*
G04 #@! TO.P,C2,1*
G04 #@! TO.N,/GND*
X137740380Y-70586600D03*
G04 #@! TD*
G04 #@! TO.P,C1,2*
G04 #@! TO.N,/5+*
X102100380Y-75666600D03*
G04 #@! TO.P,C1,1*
G04 #@! TO.N,/GND*
X97100380Y-75666600D03*
G04 #@! TD*
D13*
G04 #@! TO.P,J9,31*
G04 #@! TO.N,/GND*
X85336380Y-129768600D03*
G04 #@! TO.P,J9,30*
G04 #@! TO.N,/OSC88*
X87876380Y-129768600D03*
G04 #@! TO.P,J9,29*
G04 #@! TO.N,/5+*
X90416380Y-129768600D03*
G04 #@! TO.P,J9,28*
G04 #@! TO.N,/ALE*
X92956380Y-129768600D03*
G04 #@! TO.P,J9,27*
G04 #@! TO.N,/TC*
X95496380Y-129768600D03*
G04 #@! TO.P,J9,26*
G04 #@! TO.N,/DACK2*
X98036380Y-129768600D03*
G04 #@! TO.P,J9,25*
G04 #@! TO.N,/IRQ3*
X100576380Y-129768600D03*
G04 #@! TO.P,J9,24*
G04 #@! TO.N,/IRQ4*
X103116380Y-129768600D03*
G04 #@! TO.P,J9,23*
G04 #@! TO.N,/IRQ5*
X105656380Y-129768600D03*
G04 #@! TO.P,J9,22*
G04 #@! TO.N,/IRQ6*
X108196380Y-129768600D03*
G04 #@! TO.P,J9,21*
G04 #@! TO.N,/IRQ7*
X110736380Y-129768600D03*
G04 #@! TO.P,J9,20*
G04 #@! TO.N,/CLK88*
X113276380Y-129768600D03*
G04 #@! TO.P,J9,19*
G04 #@! TO.N,/REFRQ*
X115816380Y-129768600D03*
G04 #@! TO.P,J9,18*
G04 #@! TO.N,/DRQ1*
X118356380Y-129768600D03*
G04 #@! TO.P,J9,17*
G04 #@! TO.N,/DACK1*
X120896380Y-129768600D03*
G04 #@! TO.P,J9,16*
G04 #@! TO.N,/DRQ3*
X123436380Y-129768600D03*
G04 #@! TO.P,J9,15*
G04 #@! TO.N,/DACK3*
X125976380Y-129768600D03*
G04 #@! TO.P,J9,14*
G04 #@! TO.N,/IORD*
X128516380Y-129768600D03*
G04 #@! TO.P,J9,13*
G04 #@! TO.N,/IOWR*
X131056380Y-129768600D03*
G04 #@! TO.P,J9,12*
G04 #@! TO.N,/MRD*
X133596380Y-129768600D03*
G04 #@! TO.P,J9,11*
G04 #@! TO.N,/MWR*
X136136380Y-129768600D03*
G04 #@! TO.P,J9,10*
G04 #@! TO.N,/GND*
X138676380Y-129768600D03*
G04 #@! TO.P,J9,9*
G04 #@! TO.N,/12+*
X141216380Y-129768600D03*
G04 #@! TO.P,J9,8*
G04 #@! TO.N,/NC*
X143756380Y-129768600D03*
G04 #@! TO.P,J9,7*
G04 #@! TO.N,/12-*
X146296380Y-129768600D03*
G04 #@! TO.P,J9,6*
G04 #@! TO.N,/DRQ2*
X148836380Y-129768600D03*
G04 #@! TO.P,J9,5*
G04 #@! TO.N,/5-*
X151376380Y-129768600D03*
G04 #@! TO.P,J9,4*
G04 #@! TO.N,/IRQ2*
X153916380Y-129768600D03*
G04 #@! TO.P,J9,3*
G04 #@! TO.N,/5+*
X156456380Y-129768600D03*
G04 #@! TO.P,J9,2*
G04 #@! TO.N,/RESOUT*
X158996380Y-129768600D03*
G04 #@! TO.P,J9,1*
G04 #@! TO.N,/GND*
X161536380Y-129768600D03*
G04 #@! TD*
D14*
G04 #@! TO.P,R,1*
G04 #@! TO.N,/GND*
X181602380Y-122148600D03*
G04 #@! TD*
G04 #@! TO.P,R,1*
G04 #@! TO.N,N/C*
X181602380Y-64998600D03*
G04 #@! TD*
D10*
G04 #@! TO.P,U5,16*
G04 #@! TO.N,/5+*
X179316380Y-99288600D03*
G04 #@! TO.P,U5,8*
G04 #@! TO.N,/GND*
X171696380Y-117068600D03*
G04 #@! TO.P,U5,15*
G04 #@! TO.N,Net-(U5-Pad15)*
X179316380Y-101828600D03*
G04 #@! TO.P,U5,7*
G04 #@! TO.N,/32K_ROM_CS*
X171696380Y-114528600D03*
G04 #@! TO.P,U5,14*
G04 #@! TO.N,Net-(U5-Pad14)*
X179316380Y-104368600D03*
G04 #@! TO.P,U5,6*
G04 #@! TO.N,/A18*
X171696380Y-111988600D03*
G04 #@! TO.P,U5,13*
G04 #@! TO.N,Net-(U5-Pad13)*
X179316380Y-106908600D03*
G04 #@! TO.P,U5,5*
G04 #@! TO.N,/GND*
X171696380Y-109448600D03*
G04 #@! TO.P,U5,12*
G04 #@! TO.N,Net-(U5-Pad12)*
X179316380Y-109448600D03*
G04 #@! TO.P,U5,4*
G04 #@! TO.N,/UPPER_512K*
X171696380Y-106908600D03*
G04 #@! TO.P,U5,11*
G04 #@! TO.N,Net-(U5-Pad11)*
X179316380Y-111988600D03*
G04 #@! TO.P,U5,3*
G04 #@! TO.N,/A17*
X171696380Y-104368600D03*
G04 #@! TO.P,U5,10*
G04 #@! TO.N,Net-(U5-Pad10)*
X179316380Y-114528600D03*
G04 #@! TO.P,U5,2*
G04 #@! TO.N,/A16*
X171696380Y-101828600D03*
G04 #@! TO.P,U5,9*
G04 #@! TO.N,/32K_RAM_CS*
X179316380Y-117068600D03*
D11*
G04 #@! TO.P,U5,1*
G04 #@! TO.N,/A15*
X171696380Y-99288600D03*
G04 #@! TD*
D10*
G04 #@! TO.P,U4,16*
G04 #@! TO.N,/5+*
X179316380Y-73888600D03*
G04 #@! TO.P,U4,8*
G04 #@! TO.N,/GND*
X171696380Y-91668600D03*
G04 #@! TO.P,U4,15*
G04 #@! TO.N,/UPPER_512K*
X179316380Y-76428600D03*
G04 #@! TO.P,U4,7*
G04 #@! TO.N,Net-(U4-Pad7)*
X171696380Y-89128600D03*
G04 #@! TO.P,U4,14*
G04 #@! TO.N,/A17*
X179316380Y-78968600D03*
G04 #@! TO.P,U4,6*
G04 #@! TO.N,Net-(U4-Pad6)*
X171696380Y-86588600D03*
G04 #@! TO.P,U4,13*
G04 #@! TO.N,/A18*
X179316380Y-81508600D03*
G04 #@! TO.P,U4,5*
G04 #@! TO.N,/UPPER_512K*
X171696380Y-84048600D03*
G04 #@! TO.P,U4,12*
G04 #@! TO.N,/128K_CS*
X179316380Y-84048600D03*
G04 #@! TO.P,U4,4*
G04 #@! TO.N,/512K_CS*
X171696380Y-81508600D03*
G04 #@! TO.P,U4,11*
G04 #@! TO.N,Net-(U4-Pad11)*
X179316380Y-86588600D03*
G04 #@! TO.P,U4,3*
G04 #@! TO.N,/GND*
X171696380Y-78968600D03*
G04 #@! TO.P,U4,10*
G04 #@! TO.N,Net-(U4-Pad10)*
X179316380Y-89128600D03*
G04 #@! TO.P,U4,2*
G04 #@! TO.N,/A19*
X171696380Y-76428600D03*
G04 #@! TO.P,U4,9*
G04 #@! TO.N,Net-(U4-Pad9)*
X179316380Y-91668600D03*
D11*
G04 #@! TO.P,U4,1*
G04 #@! TO.N,/GND*
X171696380Y-73888600D03*
G04 #@! TD*
D12*
G04 #@! TO.P,C5,2*
G04 #@! TO.N,/5+*
X179316380Y-95986600D03*
G04 #@! TO.P,C5,1*
G04 #@! TO.N,/GND*
X174316380Y-95986600D03*
G04 #@! TD*
G04 #@! TO.P,C4,2*
G04 #@! TO.N,/5+*
X179316380Y-70586600D03*
G04 #@! TO.P,C4,1*
G04 #@! TO.N,/GND*
X174316380Y-70586600D03*
G04 #@! TD*
D15*
G04 #@! TO.N,/5+*
X179316380Y-69062600D03*
X176776380Y-69062600D03*
X176776380Y-95986600D03*
X90670380Y-74396600D03*
X122420380Y-69824598D03*
X155948380Y-70078600D03*
X90670380Y-82016600D03*
X139692380Y-70078600D03*
X139692380Y-79476600D03*
G04 #@! TO.N,/GND*
X181602380Y-124688600D03*
X174236380Y-116560600D03*
X174236380Y-108940600D03*
X174236380Y-78460600D03*
X174236380Y-91160600D03*
X174236380Y-73380600D03*
X161536380Y-124688600D03*
X117594380Y-71094600D03*
X92956380Y-111480600D03*
X92956380Y-76174600D03*
X138676380Y-111480600D03*
X174236380Y-124688600D03*
G04 #@! TO.N,/D7*
X160266380Y-124688600D03*
X160266380Y-102336600D03*
G04 #@! TO.N,/D6*
X157726380Y-124688600D03*
X157726380Y-104876600D03*
G04 #@! TO.N,/D5*
X155186380Y-124688600D03*
X155186380Y-107416600D03*
G04 #@! TO.N,/D4*
X152646380Y-124688600D03*
X152646380Y-109956600D03*
G04 #@! TO.N,/D3*
X150106380Y-124688600D03*
X149598380Y-113258600D03*
G04 #@! TO.N,/D2*
X147566380Y-124688600D03*
X146042380Y-108940600D03*
G04 #@! TO.N,/D1*
X145026380Y-124688600D03*
X144772380Y-106400600D03*
G04 #@! TO.N,/D0*
X142486380Y-124688600D03*
X140962380Y-103098600D03*
G04 #@! TO.N,/A19*
X134866380Y-124688600D03*
X169664380Y-75920600D03*
X169664380Y-115798600D03*
X134866380Y-115798600D03*
G04 #@! TO.N,/A18*
X132326380Y-124688600D03*
X168902380Y-82778600D03*
X168902380Y-116560600D03*
X132326380Y-116560600D03*
X168902380Y-111480600D03*
X151122380Y-116560600D03*
X151122380Y-73380600D03*
G04 #@! TO.N,/A17*
X129786380Y-124688600D03*
X168140380Y-80238600D03*
X168140380Y-103860600D03*
X168140380Y-117322600D03*
X129786380Y-117322600D03*
G04 #@! TO.N,/A16*
X127246380Y-124688600D03*
X129786380Y-75920600D03*
X167378380Y-75666600D03*
X167378380Y-101320600D03*
G04 #@! TO.N,/A15*
X124706380Y-124688600D03*
X124960380Y-77698600D03*
X166616380Y-76936600D03*
X166616380Y-98780600D03*
G04 #@! TO.N,/A14*
X122166380Y-124688600D03*
X119880380Y-78460600D03*
G04 #@! TO.N,/A13*
X119626380Y-124688600D03*
X119626380Y-84556600D03*
G04 #@! TO.N,/A12*
X117086380Y-124688600D03*
X117086380Y-81000600D03*
G04 #@! TO.N,/A11*
X114546380Y-124688600D03*
X114546380Y-92176600D03*
G04 #@! TO.N,/A10*
X112006380Y-124688600D03*
X112006380Y-97256600D03*
G04 #@! TO.N,/A9*
X109466380Y-124688600D03*
X109974380Y-89636600D03*
G04 #@! TO.N,/A8*
X106926380Y-124688600D03*
X108958380Y-87858600D03*
G04 #@! TO.N,/A7*
X104386380Y-124688600D03*
X104386380Y-83540600D03*
G04 #@! TO.N,/A6*
X101846380Y-124688600D03*
X99560380Y-86080600D03*
G04 #@! TO.N,/A5*
X99306380Y-124688600D03*
X98798380Y-88620600D03*
G04 #@! TO.N,/A4*
X96766380Y-124688600D03*
X96766380Y-91160600D03*
G04 #@! TO.N,/A3*
X94226380Y-124688600D03*
X94226380Y-93700600D03*
G04 #@! TO.N,/A2*
X91686380Y-124688600D03*
X91686380Y-96240600D03*
G04 #@! TO.N,/A1*
X89146380Y-124688600D03*
X89654380Y-98780600D03*
G04 #@! TO.N,/A0*
X86606380Y-124688600D03*
X88892380Y-101320600D03*
G04 #@! TO.N,/MWR*
X136136380Y-82016600D03*
G04 #@! TO.N,/MRD*
X133596380Y-94716600D03*
G04 #@! TO.N,/32K_RAM_CS*
X125468380Y-99796600D03*
X125468380Y-118338600D03*
G04 #@! TO.N,/32K_ROM_CS*
X105148380Y-115036600D03*
X105148380Y-99796600D03*
G04 #@! TO.N,/512K_CS*
X165854380Y-99796600D03*
X165854380Y-82016600D03*
G04 #@! TO.N,/UPPER_512K*
X175506380Y-84556600D03*
X175506380Y-107162600D03*
X175506380Y-76682600D03*
G04 #@! TO.N,/128K_CS*
X160774380Y-99796600D03*
X160774380Y-85318600D03*
G04 #@! TD*
D16*
G04 #@! TO.N,/5+*
X179316380Y-69062600D02*
X179316380Y-70586600D01*
X179316380Y-70586600D02*
X179316380Y-73888600D01*
X176776380Y-69062600D02*
X176776380Y-95986600D01*
X179316380Y-95986600D02*
X179316380Y-99288600D01*
X90416380Y-129768600D02*
X90416380Y-107924600D01*
X90416380Y-107924600D02*
X90670380Y-107670600D01*
X90670380Y-107670600D02*
X90670380Y-74396600D01*
X122420380Y-78968600D02*
X122420380Y-75666600D01*
X122420380Y-75666600D02*
X122420380Y-69824598D01*
X156456380Y-72618600D02*
X155948380Y-72110600D01*
X155948380Y-72110600D02*
X155948380Y-70078600D01*
X156456380Y-129768600D02*
X156456380Y-72618600D01*
X102100380Y-75666600D02*
X102100380Y-78968600D01*
X142740380Y-70586600D02*
X142740380Y-73918600D01*
X163060380Y-70586600D02*
X163060380Y-73918600D01*
X139692380Y-70078600D02*
X139692380Y-79476600D01*
G04 #@! TO.N,/GND*
X181602380Y-124688600D02*
X181602380Y-122148600D01*
X174236380Y-96066600D02*
X174236380Y-108940600D01*
X174316380Y-95986600D02*
X174236380Y-96066600D01*
X174236380Y-108940600D02*
X174236380Y-116560600D01*
X174236380Y-95906600D02*
X174316380Y-95986600D01*
X174236380Y-70666600D02*
X174236380Y-73380600D01*
X174316380Y-70586600D02*
X174236380Y-70666600D01*
X174236380Y-78460600D02*
X174236380Y-91160600D01*
X174236380Y-91160600D02*
X174236380Y-95906600D01*
X174236380Y-73380600D02*
X174236380Y-78460600D01*
X138676380Y-129768600D02*
X138676380Y-127482600D01*
X138676380Y-127482600D02*
X139184380Y-126974600D01*
X161536380Y-129768600D02*
X161536380Y-124688600D01*
X117594380Y-75492600D02*
X117420380Y-75666600D01*
X117594380Y-71094600D02*
X117594380Y-75492600D01*
X92956380Y-111480600D02*
X92956380Y-76174600D01*
X85336380Y-129768600D02*
X85336380Y-115290600D01*
X86860380Y-113766600D02*
X86860380Y-111988600D01*
X85336380Y-115290600D02*
X86860380Y-113766600D01*
X138676380Y-129768600D02*
X138676380Y-111480600D01*
X174236380Y-116560600D02*
X174236380Y-124688600D01*
D17*
G04 #@! TO.N,/D7*
X160266380Y-124688600D02*
X160266380Y-102336600D01*
G04 #@! TO.N,/D6*
X157726380Y-124688600D02*
X157726380Y-104876600D01*
G04 #@! TO.N,/D5*
X155186380Y-124688600D02*
X155186380Y-107416600D01*
G04 #@! TO.N,/D4*
X152646380Y-124688600D02*
X152646380Y-109956600D01*
G04 #@! TO.N,/D3*
X150106380Y-124688600D02*
X150106380Y-113766600D01*
X150106380Y-113766600D02*
X149598380Y-113258600D01*
G04 #@! TO.N,/D2*
X147566380Y-124688600D02*
X147566380Y-115798600D01*
X147566380Y-115798600D02*
X146042380Y-114274600D01*
X146042380Y-114274600D02*
X146042380Y-108940600D01*
G04 #@! TO.N,/D1*
X145026380Y-124688600D02*
X145026380Y-106654600D01*
X145026380Y-106654600D02*
X144772380Y-106400600D01*
G04 #@! TO.N,/D0*
X142486380Y-124688600D02*
X142486380Y-116560600D01*
X142486380Y-116560600D02*
X140962380Y-115036600D01*
X140962380Y-115036600D02*
X140962380Y-103098600D01*
G04 #@! TO.N,/A19*
X169664380Y-115798600D02*
X169664380Y-75920600D01*
X134866380Y-115798600D02*
X134866380Y-124688600D01*
G04 #@! TO.N,/A18*
X168902380Y-82778600D02*
X168902380Y-116560600D01*
X151122380Y-116560600D02*
X151122380Y-73380600D01*
X132326380Y-116560600D02*
X132326380Y-124688600D01*
G04 #@! TO.N,/A17*
X168140380Y-80238600D02*
X168140380Y-103860600D01*
X168140380Y-103860600D02*
X168140380Y-117322600D01*
X129786380Y-124688600D02*
X129786380Y-117322600D01*
G04 #@! TO.N,/A16*
X127246380Y-124688600D02*
X127246380Y-116560600D01*
X127246380Y-116560600D02*
X129786380Y-114020600D01*
X129786380Y-114020600D02*
X129786380Y-75920600D01*
X167378380Y-75666600D02*
X167378380Y-101320600D01*
G04 #@! TO.N,/A15*
X124706380Y-124688600D02*
X124706380Y-77952600D01*
X124706380Y-77952600D02*
X124960380Y-77698600D01*
X166616380Y-76936600D02*
X166616380Y-98780600D01*
G04 #@! TO.N,/A14*
X122166380Y-124688600D02*
X122166380Y-115290600D01*
X122166380Y-115290600D02*
X120388380Y-113512600D01*
X120388380Y-113512600D02*
X120388380Y-78968600D01*
X120388380Y-78968600D02*
X119880380Y-78460600D01*
G04 #@! TO.N,/A13*
X119626380Y-124688600D02*
X119626380Y-84556600D01*
G04 #@! TO.N,/A12*
X117086380Y-124688600D02*
X117086380Y-81000600D01*
G04 #@! TO.N,/A11*
X114546380Y-124688600D02*
X114546380Y-92176600D01*
G04 #@! TO.N,/A10*
X112006380Y-124688600D02*
X112006380Y-97256600D01*
G04 #@! TO.N,/A9*
X109466380Y-124688600D02*
X109466380Y-116560600D01*
X109466380Y-116560600D02*
X109974380Y-116052600D01*
X109974380Y-116052600D02*
X109974380Y-89636600D01*
G04 #@! TO.N,/A8*
X106926380Y-124688600D02*
X106926380Y-116560600D01*
X106926380Y-116560600D02*
X109212380Y-114274600D01*
X109212380Y-114274600D02*
X109212380Y-88112600D01*
X109212380Y-88112600D02*
X108958380Y-87858600D01*
G04 #@! TO.N,/A7*
X104386380Y-124688600D02*
X104386380Y-83540600D01*
G04 #@! TO.N,/A6*
X101846380Y-124688600D02*
X101846380Y-117068600D01*
X101846380Y-117068600D02*
X99814380Y-115036600D01*
X99814380Y-115036600D02*
X99814380Y-86334600D01*
X99814380Y-86334600D02*
X99560380Y-86080600D01*
G04 #@! TO.N,/A5*
X99306380Y-124688600D02*
X99306380Y-116306600D01*
X99306380Y-116306600D02*
X98798380Y-115798600D01*
X98798380Y-115798600D02*
X98798380Y-88620600D01*
G04 #@! TO.N,/A4*
X96766380Y-124688600D02*
X96766380Y-91160600D01*
G04 #@! TO.N,/A3*
X94226380Y-124688600D02*
X94226380Y-93700600D01*
G04 #@! TO.N,/A2*
X91686380Y-124688600D02*
X91686380Y-96240600D01*
G04 #@! TO.N,/A1*
X89146380Y-124688600D02*
X89146380Y-115798600D01*
X89146380Y-115798600D02*
X89654380Y-115290600D01*
X89654380Y-115290600D02*
X89654380Y-98780600D01*
G04 #@! TO.N,/A0*
X86606380Y-124688600D02*
X86606380Y-117068600D01*
X86606380Y-117068600D02*
X88892380Y-114782600D01*
X88892380Y-114782600D02*
X88892380Y-101320600D01*
G04 #@! TO.N,/MWR*
X136136380Y-129768600D02*
X136136380Y-82016600D01*
G04 #@! TO.N,/MRD*
X133596380Y-129768600D02*
X133596380Y-94716600D01*
G04 #@! TO.N,/32K_RAM_CS*
X125468380Y-99796600D02*
X125468380Y-118338600D01*
G04 #@! TO.N,/32K_ROM_CS*
X105148380Y-115036600D02*
X105148380Y-99796600D01*
G04 #@! TO.N,/512K_CS*
X165854380Y-82016600D02*
X165854380Y-99796600D01*
G04 #@! TO.N,/UPPER_512K*
X175506380Y-97002600D02*
X175506380Y-107162600D01*
X175760380Y-96748600D02*
X175506380Y-97002600D01*
X175760380Y-94970600D02*
X175760380Y-96748600D01*
X175506380Y-94716600D02*
X175760380Y-94970600D01*
X175506380Y-84556600D02*
X175506380Y-94716600D01*
X175506380Y-84556600D02*
X175506380Y-76682600D01*
G04 #@! TO.N,/128K_CS*
X160774380Y-99796600D02*
X160774380Y-85318600D01*
G04 #@! TD*
M02*
