G04 #@! TF.GenerationSoftware,KiCad,Pcbnew,(5.1.8)-1*
G04 #@! TF.CreationDate,2022-03-26T12:00:40-06:00*
G04 #@! TF.ProjectId,DMA,444d412e-6b69-4636-9164-5f7063625858,rev?*
G04 #@! TF.SameCoordinates,Original*
G04 #@! TF.FileFunction,Copper,L1,Top*
G04 #@! TF.FilePolarity,Positive*
%FSLAX46Y46*%
G04 Gerber Fmt 4.6, Leading zero omitted, Abs format (unit mm)*
G04 Created by KiCad (PCBNEW (5.1.8)-1) date 2022-03-26 12:00:40*
%MOMM*%
%LPD*%
G01*
G04 APERTURE LIST*
G04 #@! TA.AperFunction,ComponentPad*
%ADD10O,1.600000X1.600000*%
G04 #@! TD*
G04 #@! TA.AperFunction,ComponentPad*
%ADD11C,1.600000*%
G04 #@! TD*
G04 #@! TA.AperFunction,ConnectorPad*
%ADD12R,1.780000X7.620000*%
G04 #@! TD*
G04 #@! TA.AperFunction,ComponentPad*
%ADD13R,1.600000X1.600000*%
G04 #@! TD*
G04 #@! TA.AperFunction,ComponentPad*
%ADD14C,3.556000*%
G04 #@! TD*
G04 #@! TA.AperFunction,ViaPad*
%ADD15C,0.800000*%
G04 #@! TD*
G04 #@! TA.AperFunction,Conductor*
%ADD16C,0.330200*%
G04 #@! TD*
G04 #@! TA.AperFunction,Conductor*
%ADD17C,0.250000*%
G04 #@! TD*
G04 APERTURE END LIST*
D10*
G04 #@! TO.P,R3,2*
G04 #@! TO.N,/CLK88*
X121404380Y-91160600D03*
D11*
G04 #@! TO.P,R3,1*
G04 #@! TO.N,/CLK88_1*
X121404380Y-81000600D03*
G04 #@! TD*
D10*
G04 #@! TO.P,R2,2*
G04 #@! TO.N,/GND*
X77716380Y-109448600D03*
D11*
G04 #@! TO.P,R2,1*
G04 #@! TO.N,/DRQ0_*
X67556380Y-109448600D03*
G04 #@! TD*
D12*
G04 #@! TO.P,J9,62*
G04 #@! TO.N,/A0*
X85336380Y-129768600D03*
G04 #@! TO.P,J9,61*
G04 #@! TO.N,/A1*
X87876380Y-129768600D03*
G04 #@! TO.P,J9,60*
G04 #@! TO.N,/A2*
X90416380Y-129768600D03*
G04 #@! TO.P,J9,59*
G04 #@! TO.N,/A3*
X92956380Y-129768600D03*
G04 #@! TO.P,J9,58*
G04 #@! TO.N,/A4*
X95496380Y-129768600D03*
G04 #@! TO.P,J9,57*
G04 #@! TO.N,/A5*
X98036380Y-129768600D03*
G04 #@! TO.P,J9,56*
G04 #@! TO.N,/A6*
X100576380Y-129768600D03*
G04 #@! TO.P,J9,55*
G04 #@! TO.N,/A7*
X103116380Y-129768600D03*
G04 #@! TO.P,J9,54*
G04 #@! TO.N,/A8*
X105656380Y-129768600D03*
G04 #@! TO.P,J9,53*
G04 #@! TO.N,/A9*
X108196380Y-129768600D03*
G04 #@! TO.P,J9,52*
G04 #@! TO.N,/A10*
X110736380Y-129768600D03*
G04 #@! TO.P,J9,51*
G04 #@! TO.N,/A11*
X113276380Y-129768600D03*
G04 #@! TO.P,J9,50*
G04 #@! TO.N,/A12*
X115816380Y-129768600D03*
G04 #@! TO.P,J9,49*
G04 #@! TO.N,/A13*
X118356380Y-129768600D03*
G04 #@! TO.P,J9,48*
G04 #@! TO.N,/A14*
X120896380Y-129768600D03*
G04 #@! TO.P,J9,47*
G04 #@! TO.N,/A15*
X123436380Y-129768600D03*
G04 #@! TO.P,J9,46*
G04 #@! TO.N,/A16*
X125976380Y-129768600D03*
G04 #@! TO.P,J9,45*
G04 #@! TO.N,/A17*
X128516380Y-129768600D03*
G04 #@! TO.P,J9,44*
G04 #@! TO.N,/A18*
X131056380Y-129768600D03*
G04 #@! TO.P,J9,43*
G04 #@! TO.N,/A19*
X133596380Y-129768600D03*
G04 #@! TO.P,J9,42*
G04 #@! TO.N,/AEN*
X136136380Y-129768600D03*
G04 #@! TO.P,J9,41*
G04 #@! TO.N,/RDY1*
X138676380Y-129768600D03*
G04 #@! TO.P,J9,40*
G04 #@! TO.N,/D0*
X141216380Y-129768600D03*
G04 #@! TO.P,J9,39*
G04 #@! TO.N,/D1*
X143756380Y-129768600D03*
G04 #@! TO.P,J9,38*
G04 #@! TO.N,/D2*
X146296380Y-129768600D03*
G04 #@! TO.P,J9,37*
G04 #@! TO.N,/D3*
X148836380Y-129768600D03*
G04 #@! TO.P,J9,36*
G04 #@! TO.N,/D4*
X151376380Y-129768600D03*
G04 #@! TO.P,J9,35*
G04 #@! TO.N,/D5*
X153916380Y-129768600D03*
G04 #@! TO.P,J9,34*
G04 #@! TO.N,/D6*
X156456380Y-129768600D03*
G04 #@! TO.P,J9,33*
G04 #@! TO.N,/D7*
X158996380Y-129768600D03*
G04 #@! TO.P,J9,32*
G04 #@! TO.N,/CH_CK*
X161536380Y-129768600D03*
G04 #@! TD*
D10*
G04 #@! TO.P,U2,16*
G04 #@! TO.N,/5+*
X155440380Y-70586600D03*
G04 #@! TO.P,U2,8*
G04 #@! TO.N,/GND*
X137660380Y-62966600D03*
G04 #@! TO.P,U2,15*
G04 #@! TO.N,N/C*
X152900380Y-70586600D03*
G04 #@! TO.P,U2,7*
G04 #@! TO.N,Net-(U2-Pad7)*
X140200380Y-62966600D03*
G04 #@! TO.P,U2,14*
G04 #@! TO.N,N/C*
X150360380Y-70586600D03*
G04 #@! TO.P,U2,6*
G04 #@! TO.N,Net-(U2-Pad6)*
X142740380Y-62966600D03*
G04 #@! TO.P,U2,13*
G04 #@! TO.N,N/C*
X147820380Y-70586600D03*
G04 #@! TO.P,U2,5*
G04 #@! TO.N,Net-(U2-Pad5)*
X145280380Y-62966600D03*
G04 #@! TO.P,U2,12*
G04 #@! TO.N,N/C*
X145280380Y-70586600D03*
G04 #@! TO.P,U2,4*
G04 #@! TO.N,/760_EN*
X147820380Y-62966600D03*
G04 #@! TO.P,U2,11*
G04 #@! TO.N,N/C*
X142740380Y-70586600D03*
G04 #@! TO.P,U2,3*
G04 #@! TO.N,/IOWR*
X150360380Y-62966600D03*
G04 #@! TO.P,U2,10*
G04 #@! TO.N,N/C*
X140200380Y-70586600D03*
G04 #@! TO.P,U2,2*
G04 #@! TO.N,/IO_008X*
X152900380Y-62966600D03*
G04 #@! TO.P,U2,9*
G04 #@! TO.N,N/C*
X137660380Y-70586600D03*
D13*
G04 #@! TO.P,U2,1*
G04 #@! TO.N,/GND*
X155440380Y-62966600D03*
G04 #@! TD*
D10*
G04 #@! TO.P,U1,40*
G04 #@! TO.N,/A7*
X106926380Y-86588600D03*
G04 #@! TO.P,U1,20*
G04 #@! TO.N,/GND*
X58666380Y-71348600D03*
G04 #@! TO.P,U1,39*
G04 #@! TO.N,/A6*
X104386380Y-86588600D03*
G04 #@! TO.P,U1,19*
G04 #@! TO.N,/DRQ0_*
X61206380Y-71348600D03*
G04 #@! TO.P,U1,38*
G04 #@! TO.N,/A5*
X101846380Y-86588600D03*
G04 #@! TO.P,U1,18*
G04 #@! TO.N,/DRQ1*
X63746380Y-71348600D03*
G04 #@! TO.P,U1,37*
G04 #@! TO.N,/A4*
X99306380Y-86588600D03*
G04 #@! TO.P,U1,17*
G04 #@! TO.N,/DRQ2*
X66286380Y-71348600D03*
G04 #@! TO.P,U1,36*
G04 #@! TO.N,/EOP*
X96766380Y-86588600D03*
G04 #@! TO.P,U1,16*
G04 #@! TO.N,/DRQ3*
X68826380Y-71348600D03*
G04 #@! TO.P,U1,35*
G04 #@! TO.N,/A3*
X94226380Y-86588600D03*
G04 #@! TO.P,U1,15*
G04 #@! TO.N,/DACK3*
X71366380Y-71348600D03*
G04 #@! TO.P,U1,34*
G04 #@! TO.N,/A2*
X91686380Y-86588600D03*
G04 #@! TO.P,U1,14*
G04 #@! TO.N,/DACK2*
X73906380Y-71348600D03*
G04 #@! TO.P,U1,33*
G04 #@! TO.N,/A1*
X89146380Y-86588600D03*
G04 #@! TO.P,U1,13*
G04 #@! TO.N,/RESOUT*
X76446380Y-71348600D03*
G04 #@! TO.P,U1,32*
G04 #@! TO.N,/A0*
X86606380Y-86588600D03*
G04 #@! TO.P,U1,12*
G04 #@! TO.N,/CLK88_1*
X78986380Y-71348600D03*
G04 #@! TO.P,U1,31*
G04 #@! TO.N,/5+*
X84066380Y-86588600D03*
G04 #@! TO.P,U1,11*
G04 #@! TO.N,/IO_000X*
X81526380Y-71348600D03*
G04 #@! TO.P,U1,30*
G04 #@! TO.N,/D0*
X81526380Y-86588600D03*
G04 #@! TO.P,U1,10*
G04 #@! TO.N,/HOLD*
X84066380Y-71348600D03*
G04 #@! TO.P,U1,29*
G04 #@! TO.N,/D1*
X78986380Y-86588600D03*
G04 #@! TO.P,U1,9*
G04 #@! TO.N,/AEN*
X86606380Y-71348600D03*
G04 #@! TO.P,U1,28*
G04 #@! TO.N,/D2*
X76446380Y-86588600D03*
G04 #@! TO.P,U1,8*
G04 #@! TO.N,/ADSTB*
X89146380Y-71348600D03*
G04 #@! TO.P,U1,27*
G04 #@! TO.N,/D3*
X73906380Y-86588600D03*
G04 #@! TO.P,U1,7*
G04 #@! TO.N,/HOLDA*
X91686380Y-71348600D03*
G04 #@! TO.P,U1,26*
G04 #@! TO.N,/D4*
X71366380Y-86588600D03*
G04 #@! TO.P,U1,6*
G04 #@! TO.N,/READY*
X94226380Y-71348600D03*
G04 #@! TO.P,U1,25*
G04 #@! TO.N,/DACK0*
X68826380Y-86588600D03*
G04 #@! TO.P,U1,5*
G04 #@! TO.N,/5+*
X96766380Y-71348600D03*
G04 #@! TO.P,U1,24*
G04 #@! TO.N,/DACK1*
X66286380Y-86588600D03*
G04 #@! TO.P,U1,4*
G04 #@! TO.N,/MWR*
X99306380Y-71348600D03*
G04 #@! TO.P,U1,23*
G04 #@! TO.N,/D5*
X63746380Y-86588600D03*
G04 #@! TO.P,U1,3*
G04 #@! TO.N,/MRD*
X101846380Y-71348600D03*
G04 #@! TO.P,U1,22*
G04 #@! TO.N,/D6*
X61206380Y-86588600D03*
G04 #@! TO.P,U1,2*
G04 #@! TO.N,/IOWR*
X104386380Y-71348600D03*
G04 #@! TO.P,U1,21*
G04 #@! TO.N,/D7*
X58666380Y-86588600D03*
D13*
G04 #@! TO.P,U1,1*
G04 #@! TO.N,/IORD*
X106926380Y-71348600D03*
G04 #@! TD*
D10*
G04 #@! TO.P,U4,16*
G04 #@! TO.N,/5+*
X155440380Y-95986600D03*
G04 #@! TO.P,U4,8*
G04 #@! TO.N,/GND*
X137660380Y-88366600D03*
G04 #@! TO.P,U4,15*
G04 #@! TO.N,/D0*
X152900380Y-95986600D03*
G04 #@! TO.P,U4,7*
G04 #@! TO.N,/A18*
X140200380Y-88366600D03*
G04 #@! TO.P,U4,14*
G04 #@! TO.N,/A0*
X150360380Y-95986600D03*
G04 #@! TO.P,U4,6*
G04 #@! TO.N,/A19*
X142740380Y-88366600D03*
G04 #@! TO.P,U4,13*
G04 #@! TO.N,/A1*
X147820380Y-95986600D03*
G04 #@! TO.P,U4,5*
G04 #@! TO.N,/DACK3*
X145280380Y-88366600D03*
G04 #@! TO.P,U4,12*
G04 #@! TO.N,/760_EN*
X145280380Y-95986600D03*
G04 #@! TO.P,U4,4*
G04 #@! TO.N,/DACK2*
X147820380Y-88366600D03*
G04 #@! TO.P,U4,11*
G04 #@! TO.N,/AEN_OE*
X142740380Y-95986600D03*
G04 #@! TO.P,U4,3*
G04 #@! TO.N,/D3*
X150360380Y-88366600D03*
G04 #@! TO.P,U4,10*
G04 #@! TO.N,/A16*
X140200380Y-95986600D03*
G04 #@! TO.P,U4,2*
G04 #@! TO.N,/D2*
X152900380Y-88366600D03*
G04 #@! TO.P,U4,9*
G04 #@! TO.N,/A17*
X137660380Y-95986600D03*
D13*
G04 #@! TO.P,U4,1*
G04 #@! TO.N,/D1*
X155440380Y-88366600D03*
G04 #@! TD*
D10*
G04 #@! TO.P,U3,14*
G04 #@! TO.N,/5+*
X155440380Y-83286600D03*
G04 #@! TO.P,U3,7*
G04 #@! TO.N,/GND*
X140200380Y-75666600D03*
G04 #@! TO.P,U3,13*
G04 #@! TO.N,N/C*
X152900380Y-83286600D03*
G04 #@! TO.P,U3,6*
G04 #@! TO.N,/TC*
X142740380Y-75666600D03*
G04 #@! TO.P,U3,12*
G04 #@! TO.N,N/C*
X150360380Y-83286600D03*
G04 #@! TO.P,U3,5*
G04 #@! TO.N,/EOP*
X145280380Y-75666600D03*
G04 #@! TO.P,U3,11*
G04 #@! TO.N,N/C*
X147820380Y-83286600D03*
G04 #@! TO.P,U3,4*
G04 #@! TO.N,/AEN_OE*
X147820380Y-75666600D03*
G04 #@! TO.P,U3,10*
G04 #@! TO.N,N/C*
X145280380Y-83286600D03*
G04 #@! TO.P,U3,3*
G04 #@! TO.N,/AEN*
X150360380Y-75666600D03*
G04 #@! TO.P,U3,9*
G04 #@! TO.N,N/C*
X142740380Y-83286600D03*
G04 #@! TO.P,U3,2*
G04 #@! TO.N,Net-(U3-Pad2)*
X152900380Y-75666600D03*
G04 #@! TO.P,U3,8*
G04 #@! TO.N,N/C*
X140200380Y-83286600D03*
D13*
G04 #@! TO.P,U3,1*
G04 #@! TO.N,Net-(U3-Pad1)*
X155440380Y-75666600D03*
G04 #@! TD*
D10*
G04 #@! TO.P,R1,2*
G04 #@! TO.N,/5+*
X116324380Y-91160600D03*
D11*
G04 #@! TO.P,R1,1*
G04 #@! TO.N,/EOP*
X116324380Y-81000600D03*
G04 #@! TD*
G04 #@! TO.P,C5,2*
G04 #@! TO.N,/5+*
X129786380Y-117068600D03*
G04 #@! TO.P,C5,1*
G04 #@! TO.N,/GND*
X129786380Y-112068600D03*
G04 #@! TD*
G04 #@! TO.P,C4,2*
G04 #@! TO.N,/5+*
X158742380Y-95986600D03*
G04 #@! TO.P,C4,1*
G04 #@! TO.N,/GND*
X158742380Y-90986600D03*
G04 #@! TD*
G04 #@! TO.P,C3,2*
G04 #@! TO.N,/5+*
X158742380Y-83286600D03*
G04 #@! TO.P,C3,1*
G04 #@! TO.N,/GND*
X158742380Y-78286600D03*
G04 #@! TD*
G04 #@! TO.P,C2,2*
G04 #@! TO.N,/5+*
X82796380Y-89382600D03*
G04 #@! TO.P,C2,1*
G04 #@! TO.N,/GND*
X77796380Y-89382600D03*
G04 #@! TD*
G04 #@! TO.P,C1,2*
G04 #@! TO.N,/5+*
X158742380Y-70586600D03*
G04 #@! TO.P,C1,1*
G04 #@! TO.N,/GND*
X158742380Y-65586600D03*
G04 #@! TD*
D10*
G04 #@! TO.P,U5,20*
G04 #@! TO.N,/5+*
X126484380Y-117068600D03*
G04 #@! TO.P,U5,10*
G04 #@! TO.N,/GND*
X103624380Y-109448600D03*
G04 #@! TO.P,U5,19*
G04 #@! TO.N,/A15*
X123944380Y-117068600D03*
G04 #@! TO.P,U5,9*
G04 #@! TO.N,/D0*
X106164380Y-109448600D03*
G04 #@! TO.P,U5,18*
G04 #@! TO.N,/A14*
X121404380Y-117068600D03*
G04 #@! TO.P,U5,8*
G04 #@! TO.N,/D1*
X108704380Y-109448600D03*
G04 #@! TO.P,U5,17*
G04 #@! TO.N,/A13*
X118864380Y-117068600D03*
G04 #@! TO.P,U5,7*
G04 #@! TO.N,/D2*
X111244380Y-109448600D03*
G04 #@! TO.P,U5,16*
G04 #@! TO.N,/A12*
X116324380Y-117068600D03*
G04 #@! TO.P,U5,6*
G04 #@! TO.N,/D3*
X113784380Y-109448600D03*
G04 #@! TO.P,U5,15*
G04 #@! TO.N,/A11*
X113784380Y-117068600D03*
G04 #@! TO.P,U5,5*
G04 #@! TO.N,/D4*
X116324380Y-109448600D03*
G04 #@! TO.P,U5,14*
G04 #@! TO.N,/A10*
X111244380Y-117068600D03*
G04 #@! TO.P,U5,4*
G04 #@! TO.N,/D5*
X118864380Y-109448600D03*
G04 #@! TO.P,U5,13*
G04 #@! TO.N,/A9*
X108704380Y-117068600D03*
G04 #@! TO.P,U5,3*
G04 #@! TO.N,/D6*
X121404380Y-109448600D03*
G04 #@! TO.P,U5,12*
G04 #@! TO.N,/A8*
X106164380Y-117068600D03*
G04 #@! TO.P,U5,2*
G04 #@! TO.N,/D7*
X123944380Y-109448600D03*
G04 #@! TO.P,U5,11*
G04 #@! TO.N,/ADSTB*
X103624380Y-117068600D03*
D13*
G04 #@! TO.P,U5,1*
G04 #@! TO.N,/AEN_OE*
X126484380Y-109448600D03*
G04 #@! TD*
D14*
G04 #@! TO.P,R,1*
G04 #@! TO.N,/GND*
X181602380Y-122148600D03*
G04 #@! TD*
D12*
G04 #@! TO.P,J1,9*
G04 #@! TO.N,/SPK_OUT*
X57396380Y-129768600D03*
G04 #@! TO.P,J1,10*
G04 #@! TO.N,/SPK_GO*
X59936380Y-129768600D03*
G04 #@! TO.P,J1,11*
G04 #@! TO.N,/HF_PCLK*
X62476380Y-129768600D03*
G04 #@! TO.P,J1,12*
G04 #@! TO.N,/DRQ0*
X65016380Y-129768600D03*
G04 #@! TO.P,J1,13*
G04 #@! TO.N,/HOLDA*
X67556380Y-129768600D03*
G04 #@! TO.P,J1,14*
G04 #@! TO.N,/HOLD*
X70096380Y-129768600D03*
G04 #@! TO.P,J1,15*
G04 #@! TO.N,/READY*
X72636380Y-129768600D03*
G04 #@! TO.P,J1,16*
G04 #@! TO.N,/RESET*
X75176380Y-129768600D03*
G04 #@! TD*
D14*
G04 #@! TO.P,R,1*
G04 #@! TO.N,/GND*
X181602380Y-64998600D03*
G04 #@! TD*
D15*
G04 #@! TO.N,/5+*
X90162380Y-123164600D03*
X82796380Y-123164600D03*
X129786380Y-115036600D03*
X82796380Y-115036600D03*
X98036380Y-94970600D03*
X82796380Y-94970600D03*
X156710380Y-117068600D03*
X156710380Y-99034600D03*
X158742380Y-99034600D03*
X116324380Y-94970600D03*
X135374380Y-94970600D03*
X135374380Y-99034600D03*
G04 #@! TO.N,/GND*
X84320380Y-109448600D03*
X57396380Y-89382600D03*
X103624380Y-112242600D03*
X137152380Y-75666600D03*
X58666380Y-75666600D03*
X161536380Y-91160600D03*
X161536380Y-112242600D03*
X155440380Y-65506600D03*
X161536380Y-122148600D03*
X158234380Y-86080600D03*
X137152380Y-86080600D03*
G04 #@! TO.N,/DRQ2*
X67556380Y-96748600D03*
X149090380Y-108178600D03*
X131564380Y-108178600D03*
X131564380Y-96748600D03*
G04 #@! TO.N,/DACK3*
X125214380Y-98272600D03*
X72636380Y-98272600D03*
X145280380Y-90144600D03*
X125214380Y-90144600D03*
G04 #@! TO.N,/DRQ3*
X122674380Y-99034600D03*
X70096380Y-99034600D03*
G04 #@! TO.N,/DACK1*
X120134380Y-99796600D03*
X66286380Y-99796600D03*
G04 #@! TO.N,/DRQ1*
X117594380Y-100558600D03*
X65016380Y-100558600D03*
G04 #@! TO.N,/DACK2*
X147820380Y-90906600D03*
X75176380Y-97510600D03*
X125976380Y-97510600D03*
X125976380Y-90906600D03*
X97782380Y-97510600D03*
G04 #@! TO.N,/TC*
X95496380Y-77952600D03*
X142740380Y-77952600D03*
G04 #@! TO.N,/D7*
X157980380Y-124688600D03*
X157980380Y-102082600D03*
X58666380Y-102082600D03*
X123944380Y-102082600D03*
G04 #@! TO.N,/D6*
X155440380Y-124688600D03*
X155440380Y-102844600D03*
X61206380Y-102844600D03*
X121404380Y-102844600D03*
G04 #@! TO.N,/D5*
X152900380Y-124688600D03*
X152900380Y-103606600D03*
X118864380Y-103606600D03*
X64000380Y-103606600D03*
G04 #@! TO.N,/D4*
X150360380Y-124688600D03*
X150360380Y-104368600D03*
X71366380Y-104368600D03*
X116324380Y-104368600D03*
G04 #@! TO.N,/D3*
X147820380Y-124688600D03*
X113784380Y-105130600D03*
X147820380Y-105130600D03*
X73906380Y-105130600D03*
X149090380Y-105130600D03*
G04 #@! TO.N,/D2*
X145280380Y-124688600D03*
X111244380Y-105892600D03*
X145280380Y-105892600D03*
X76446380Y-105892600D03*
X151630380Y-105892600D03*
G04 #@! TO.N,/D1*
X142740380Y-124688600D03*
X108704380Y-106654600D03*
X142740380Y-106654600D03*
X78986380Y-106654600D03*
X154170380Y-106654600D03*
G04 #@! TO.N,/D0*
X140200380Y-124688600D03*
X140200380Y-107416600D03*
X81526380Y-107416600D03*
X106164380Y-107416600D03*
X140200380Y-101320600D03*
X152900380Y-101320600D03*
G04 #@! TO.N,/AEN*
X136644380Y-124688600D03*
X150360380Y-78714600D03*
X86606380Y-78714600D03*
X136644380Y-101320600D03*
X126738380Y-101320600D03*
X126738380Y-78714600D03*
G04 #@! TO.N,/A19*
X134104380Y-122656600D03*
X141470380Y-122656600D03*
X134104380Y-124688600D03*
G04 #@! TO.N,/A18*
X131564380Y-124688588D03*
X131564380Y-121894600D03*
X138676380Y-121894600D03*
G04 #@! TO.N,/A17*
X129024380Y-124688588D03*
X129024380Y-121132600D03*
X137914380Y-121132600D03*
G04 #@! TO.N,/A16*
X126484380Y-124688588D03*
X126484380Y-120370600D03*
X139438380Y-120370600D03*
G04 #@! TO.N,/A15*
X123944380Y-124688588D03*
G04 #@! TO.N,/A14*
X121404380Y-124688600D03*
G04 #@! TO.N,/A13*
X118864380Y-124688600D03*
G04 #@! TO.N,/A12*
X116324380Y-124688600D03*
G04 #@! TO.N,/A11*
X113784380Y-124688600D03*
G04 #@! TO.N,/A10*
X111244380Y-124688600D03*
G04 #@! TO.N,/A9*
X108704380Y-124688600D03*
G04 #@! TO.N,/A8*
X106164380Y-124688600D03*
G04 #@! TO.N,/A7*
X106672380Y-92430600D03*
X102608380Y-124688600D03*
X102354388Y-92430600D03*
G04 #@! TO.N,/A6*
X101592380Y-124688600D03*
X101592380Y-91414600D03*
X104132364Y-91414600D03*
G04 #@! TO.N,/A5*
X99052380Y-124688600D03*
X99052380Y-90398594D03*
X101592374Y-90398594D03*
G04 #@! TO.N,/A4*
X96512380Y-124688600D03*
X96512380Y-89382600D03*
X99052380Y-89382600D03*
G04 #@! TO.N,/A3*
X93972380Y-124688600D03*
G04 #@! TO.N,/A2*
X91432380Y-124688600D03*
G04 #@! TO.N,/A1*
X88892380Y-124688600D03*
X147820380Y-93954600D03*
X88892380Y-93954600D03*
G04 #@! TO.N,/A0*
X86352380Y-124688600D03*
X86352380Y-93192600D03*
X150868380Y-93192600D03*
G04 #@! TO.N,/RESOUT*
X76446380Y-73380600D03*
X159758380Y-100558600D03*
X127500380Y-100558600D03*
X127500360Y-73380600D03*
G04 #@! TO.N,/MWR*
X135374380Y-123418600D03*
X104894380Y-123418600D03*
X100576380Y-89382600D03*
X104894380Y-89382600D03*
G04 #@! TO.N,/MRD*
X132834380Y-122656600D03*
X107434380Y-122656600D03*
X103116380Y-90398600D03*
X107434380Y-90398600D03*
G04 #@! TO.N,/IOWR*
X130294380Y-121894600D03*
X109974380Y-121894600D03*
X105656380Y-91414600D03*
X109974380Y-91414600D03*
X150360380Y-64744600D03*
X104894380Y-64744600D03*
G04 #@! TO.N,/IORD*
X127754380Y-121132600D03*
X108196380Y-92430600D03*
X112514380Y-92430600D03*
X113022386Y-121132600D03*
G04 #@! TO.N,/CLK88*
X133850380Y-119608600D03*
X112006380Y-119608596D03*
X133850380Y-91668600D03*
G04 #@! TO.N,/HOLDA*
X66794380Y-124942600D03*
X90416380Y-120624600D03*
X66794380Y-120624600D03*
G04 #@! TO.N,/HOLD*
X69334380Y-124942600D03*
X85336380Y-121386600D03*
X69334380Y-121386600D03*
G04 #@! TO.N,/READY*
X71874380Y-124942600D03*
X92956380Y-119862600D03*
X71874380Y-119862600D03*
G04 #@! TO.N,/IO_008X*
X63238380Y-95986600D03*
X152900380Y-65506600D03*
X128262380Y-95986600D03*
X128262380Y-65506600D03*
G04 #@! TO.N,/IO_000X*
X80256380Y-122148600D03*
X73398380Y-122148600D03*
G04 #@! TO.N,/EOP*
X145280380Y-80963601D03*
X96766380Y-81000600D03*
G04 #@! TO.N,/AEN_OE*
X143502380Y-109448600D03*
X147820380Y-77952600D03*
X144010380Y-77952600D03*
G04 #@! TO.N,/CLK88_1*
X78986380Y-79476600D03*
X121404380Y-79476600D03*
G04 #@! TO.N,/ADSTB*
X87876380Y-117068600D03*
G04 #@! TO.N,/DRQ0_*
X62476380Y-109448600D03*
G04 #@! TD*
D16*
G04 #@! TO.N,/5+*
X90162380Y-123164600D02*
X82796380Y-123164600D01*
X129786380Y-117068600D02*
X126484380Y-117068600D01*
X129786380Y-115036600D02*
X82796380Y-115036600D01*
X98036380Y-94970600D02*
X82796380Y-94970600D01*
X98036380Y-94970600D02*
X135374380Y-94970600D01*
X129786380Y-117068600D02*
X156710380Y-117068600D01*
X158742380Y-95986600D02*
X155440380Y-95986600D01*
X156710380Y-99034600D02*
X158742380Y-99034600D01*
X158742380Y-70586600D02*
X155440380Y-70586600D01*
X158742380Y-83286600D02*
X155440380Y-83286600D01*
X156710380Y-99034600D02*
X135374380Y-99034600D01*
G04 #@! TO.N,/GND*
X103624380Y-109448600D02*
X84320380Y-109448600D01*
X57396380Y-89382600D02*
X77796380Y-89382600D01*
X84320380Y-109448600D02*
X77716380Y-109448600D01*
X129786380Y-112068600D02*
X129706380Y-112068600D01*
X129706380Y-112068600D02*
X129532380Y-112242600D01*
X129532380Y-112242600D02*
X103624380Y-112242600D01*
X137152380Y-75666600D02*
X140200380Y-75666600D01*
X137152380Y-75666600D02*
X58666380Y-75666600D01*
X158916380Y-91160600D02*
X158742380Y-90986600D01*
X161536380Y-91160600D02*
X158916380Y-91160600D01*
X129786380Y-112068600D02*
X129866380Y-112068600D01*
X129866380Y-112068600D02*
X130040380Y-112242600D01*
X130040380Y-112242600D02*
X161536380Y-112242600D01*
X158742380Y-65586600D02*
X158916380Y-65586600D01*
X158916380Y-65586600D02*
X158996380Y-65506600D01*
X181094380Y-65506600D02*
X181602380Y-64998600D01*
X158996380Y-65506600D02*
X181094380Y-65506600D01*
X158662380Y-65506600D02*
X155440380Y-65506600D01*
X158742380Y-65586600D02*
X158662380Y-65506600D01*
X181602380Y-122148600D02*
X161536380Y-122148600D01*
X158234380Y-86080600D02*
X137152380Y-86080600D01*
D17*
G04 #@! TO.N,/DRQ2*
X149090380Y-108178600D02*
X131564380Y-108178600D01*
X67556380Y-96748600D02*
X131564380Y-96748600D01*
G04 #@! TO.N,/DACK3*
X125214380Y-98272600D02*
X72636380Y-98272600D01*
X145280380Y-90144600D02*
X125214380Y-90144600D01*
G04 #@! TO.N,/DRQ3*
X122674380Y-99034600D02*
X70096380Y-99034600D01*
G04 #@! TO.N,/DACK1*
X120134380Y-99796600D02*
X66286380Y-99796600D01*
G04 #@! TO.N,/DRQ1*
X117594380Y-100558600D02*
X65016380Y-100558600D01*
G04 #@! TO.N,/DACK2*
X125976380Y-90906600D02*
X147820380Y-90906600D01*
X125976380Y-97510600D02*
X97782380Y-97510600D01*
X75176380Y-97510600D02*
X97782380Y-97510600D01*
G04 #@! TO.N,/TC*
X142740380Y-77952600D02*
X95496380Y-77952600D01*
G04 #@! TO.N,/D7*
X158996380Y-129768600D02*
X158996380Y-125704600D01*
X158996380Y-125704600D02*
X157980380Y-124688600D01*
X157980380Y-102082600D02*
X123944380Y-102082600D01*
X123944380Y-102082600D02*
X58666380Y-102082600D01*
G04 #@! TO.N,/D6*
X156456380Y-129768600D02*
X156456380Y-125704600D01*
X156456380Y-125704600D02*
X155440380Y-124688600D01*
X155440380Y-102844600D02*
X121404380Y-102844600D01*
X121404380Y-102844600D02*
X61206380Y-102844600D01*
G04 #@! TO.N,/D5*
X153916380Y-129768600D02*
X153916380Y-125704600D01*
X153916380Y-125704600D02*
X152900380Y-124688600D01*
X152900380Y-103606600D02*
X118864380Y-103606600D01*
X118864380Y-103606600D02*
X64000380Y-103606600D01*
G04 #@! TO.N,/D4*
X151376380Y-125704600D02*
X150360380Y-124688600D01*
X151376380Y-129768600D02*
X151376380Y-125704600D01*
X150360380Y-104368600D02*
X116324380Y-104368600D01*
X116324380Y-104368600D02*
X71366380Y-104368600D01*
G04 #@! TO.N,/D3*
X148836380Y-129768600D02*
X148836380Y-125704600D01*
X148836380Y-125704600D02*
X147820380Y-124688600D01*
X147820380Y-105130600D02*
X113784380Y-105130600D01*
X113784380Y-105130600D02*
X73906380Y-105130600D01*
X149090380Y-105130600D02*
X147820380Y-105130600D01*
G04 #@! TO.N,/D2*
X146296380Y-129768600D02*
X146296380Y-125704600D01*
X146296380Y-125704600D02*
X145280380Y-124688600D01*
X111244380Y-105892600D02*
X145280380Y-105892600D01*
X111244380Y-105892600D02*
X76446380Y-105892600D01*
X151630380Y-105892600D02*
X145280380Y-105892600D01*
G04 #@! TO.N,/D1*
X143756380Y-125704600D02*
X142740380Y-124688600D01*
X143756380Y-129768600D02*
X143756380Y-125704600D01*
X142740380Y-106654600D02*
X108704380Y-106654600D01*
X108704380Y-106654600D02*
X78986380Y-106654600D01*
X154170380Y-106654600D02*
X142740380Y-106654600D01*
G04 #@! TO.N,/D0*
X141216380Y-125704600D02*
X140200380Y-124688600D01*
X141216380Y-129768600D02*
X141216380Y-125704600D01*
X140200380Y-107416600D02*
X81526380Y-107416600D01*
X140200380Y-101320600D02*
X152900380Y-101320600D01*
G04 #@! TO.N,/AEN*
X136136380Y-130022600D02*
X136136380Y-125196600D01*
X136136380Y-125196600D02*
X136644380Y-124688600D01*
X150360380Y-78714600D02*
X86606380Y-78714600D01*
X136644380Y-101320600D02*
X126738380Y-101320600D01*
G04 #@! TO.N,/A19*
X141470380Y-122656600D02*
X134104380Y-122656600D01*
X133596380Y-125196600D02*
X134104380Y-124688600D01*
X133596380Y-130022600D02*
X133596380Y-125196600D01*
G04 #@! TO.N,/A18*
X131056380Y-129768600D02*
X131056380Y-125196588D01*
X131056380Y-125196588D02*
X131564380Y-124688588D01*
X138676380Y-121894600D02*
X131564380Y-121894600D01*
G04 #@! TO.N,/A17*
X128516380Y-129768600D02*
X128516380Y-125196588D01*
X128516380Y-125196588D02*
X129024380Y-124688588D01*
X129024380Y-121132600D02*
X137914380Y-121132600D01*
G04 #@! TO.N,/A16*
X125976380Y-129768600D02*
X125976380Y-125196588D01*
X125976380Y-125196588D02*
X126484380Y-124688588D01*
X126484380Y-120370600D02*
X139438380Y-120370600D01*
G04 #@! TO.N,/A15*
X123436380Y-129768600D02*
X123436380Y-125196588D01*
X123436380Y-125196588D02*
X123944380Y-124688588D01*
G04 #@! TO.N,/A14*
X120896380Y-125196600D02*
X121404380Y-124688600D01*
X120896380Y-129768600D02*
X120896380Y-125196600D01*
G04 #@! TO.N,/A13*
X118356380Y-125196600D02*
X118864380Y-124688600D01*
X118356380Y-129768600D02*
X118356380Y-125196600D01*
G04 #@! TO.N,/A12*
X115816380Y-129768600D02*
X115816380Y-125196600D01*
X115816380Y-125196600D02*
X116324380Y-124688600D01*
G04 #@! TO.N,/A11*
X113276380Y-129768600D02*
X113276380Y-125196600D01*
X113276380Y-125196600D02*
X113784380Y-124688600D01*
G04 #@! TO.N,/A10*
X110736380Y-129768600D02*
X110736380Y-125196600D01*
X110736380Y-125196600D02*
X111244380Y-124688600D01*
G04 #@! TO.N,/A9*
X108196380Y-125196600D02*
X108704380Y-124688600D01*
X108196380Y-129768600D02*
X108196380Y-125196600D01*
G04 #@! TO.N,/A8*
X105656380Y-125196600D02*
X106164380Y-124688600D01*
X105656380Y-129768600D02*
X105656380Y-125196600D01*
G04 #@! TO.N,/A7*
X103116380Y-129768600D02*
X103116380Y-125196600D01*
X103116380Y-125196600D02*
X102608380Y-124688600D01*
X106672380Y-92430600D02*
X102354388Y-92430600D01*
G04 #@! TO.N,/A6*
X100576380Y-129768600D02*
X100576380Y-125704600D01*
X100576380Y-125704600D02*
X101592380Y-124688600D01*
X101592380Y-91414600D02*
X104132364Y-91414600D01*
G04 #@! TO.N,/A5*
X98036380Y-125704600D02*
X99052380Y-124688600D01*
X98036380Y-129768600D02*
X98036380Y-125704600D01*
X99052380Y-90398594D02*
X101592374Y-90398594D01*
G04 #@! TO.N,/A4*
X95496380Y-125704600D02*
X96512380Y-124688600D01*
X95496380Y-129768600D02*
X95496380Y-125704600D01*
X96512380Y-89382600D02*
X99052380Y-89382600D01*
G04 #@! TO.N,/A3*
X92956380Y-129768600D02*
X92956380Y-125704600D01*
X92956380Y-125704600D02*
X93972380Y-124688600D01*
G04 #@! TO.N,/A2*
X90416380Y-125704600D02*
X91432380Y-124688600D01*
X90416380Y-129768600D02*
X90416380Y-125704600D01*
G04 #@! TO.N,/A1*
X87876380Y-125704600D02*
X88892380Y-124688600D01*
X87876380Y-129768600D02*
X87876380Y-125704600D01*
X147820380Y-93954600D02*
X88892380Y-93954600D01*
G04 #@! TO.N,/A0*
X85336380Y-125704600D02*
X86352380Y-124688600D01*
X85336380Y-129768600D02*
X85336380Y-125704600D01*
X86352380Y-93192600D02*
X150868380Y-93192600D01*
G04 #@! TO.N,/RESOUT*
X159758380Y-100558600D02*
X127500380Y-100558600D01*
X76446380Y-73380600D02*
X127500360Y-73380600D01*
G04 #@! TO.N,/MWR*
X135374380Y-123418600D02*
X104894380Y-123418600D01*
X100576380Y-89382600D02*
X104894380Y-89382600D01*
G04 #@! TO.N,/MRD*
X132834380Y-122656600D02*
X107434380Y-122656600D01*
X103116380Y-90398600D02*
X107434380Y-90398600D01*
G04 #@! TO.N,/IOWR*
X130294380Y-121894600D02*
X109974380Y-121894600D01*
X105656380Y-91414600D02*
X109974380Y-91414600D01*
X150360380Y-64744600D02*
X104894380Y-64744600D01*
G04 #@! TO.N,/IORD*
X108196380Y-92430600D02*
X112514380Y-92430600D01*
X127754380Y-121132600D02*
X113022386Y-121132600D01*
G04 #@! TO.N,/CLK88*
X133850380Y-119608600D02*
X112006380Y-119608600D01*
X121912380Y-91668600D02*
X121404380Y-91160600D01*
X133850380Y-91668600D02*
X121912380Y-91668600D01*
G04 #@! TO.N,/HOLDA*
X67556380Y-129768600D02*
X67556380Y-125704600D01*
X67556380Y-125704600D02*
X66794380Y-124942600D01*
X90416380Y-120624600D02*
X66794380Y-120624600D01*
G04 #@! TO.N,/HOLD*
X70096380Y-125704600D02*
X69334380Y-124942600D01*
X70096380Y-129768600D02*
X70096380Y-125704600D01*
X85336380Y-121386600D02*
X69334380Y-121386600D01*
G04 #@! TO.N,/READY*
X72636380Y-129768600D02*
X72636380Y-125704600D01*
X72636380Y-125704600D02*
X71874380Y-124942600D01*
X92956380Y-119862600D02*
X71874380Y-119862600D01*
G04 #@! TO.N,/IO_008X*
X128262380Y-65506600D02*
X152900380Y-65506600D01*
X63238380Y-95986600D02*
X128262380Y-95986600D01*
G04 #@! TO.N,/IO_000X*
X80256380Y-122148600D02*
X73398380Y-122148600D01*
G04 #@! TO.N,/EOP*
X96803379Y-80963601D02*
X96766380Y-81000600D01*
X96766380Y-81000600D02*
X116324380Y-81000600D01*
X124489379Y-80963601D02*
X145280380Y-80963601D01*
X122928380Y-82524600D02*
X124489379Y-80963601D01*
X119118380Y-82524600D02*
X122928380Y-82524600D01*
X117594380Y-81000600D02*
X119118380Y-82524600D01*
X116324380Y-81000600D02*
X117594380Y-81000600D01*
G04 #@! TO.N,/AEN_OE*
X126484380Y-109448600D02*
X143502380Y-109448600D01*
X147820380Y-77952600D02*
X144010380Y-77952600D01*
G04 #@! TO.N,/CLK88_1*
X78986380Y-79476600D02*
X121404380Y-79476600D01*
G04 #@! TO.N,/ADSTB*
X103624380Y-117068600D02*
X87876380Y-117068600D01*
G04 #@! TO.N,/DRQ0_*
X67556380Y-109448600D02*
X62476380Y-109448600D01*
G04 #@! TD*
M02*
