G04 #@! TF.GenerationSoftware,KiCad,Pcbnew,(5.1.8)-1*
G04 #@! TF.CreationDate,2022-03-26T07:54:42-06:00*
G04 #@! TF.ProjectId,DMA,444d412e-6b69-4636-9164-5f7063625858,rev?*
G04 #@! TF.SameCoordinates,Original*
G04 #@! TF.FileFunction,Soldermask,Top*
G04 #@! TF.FilePolarity,Negative*
%FSLAX46Y46*%
G04 Gerber Fmt 4.6, Leading zero omitted, Abs format (unit mm)*
G04 Created by KiCad (PCBNEW (5.1.8)-1) date 2022-03-26 07:54:42*
%MOMM*%
%LPD*%
G01*
G04 APERTURE LIST*
%ADD10O,1.600000X1.600000*%
%ADD11C,1.600000*%
%ADD12R,1.780000X7.620000*%
%ADD13R,1.600000X1.600000*%
%ADD14C,3.556000*%
G04 APERTURE END LIST*
D10*
G04 #@! TO.C,R3*
X121404380Y-91160600D03*
D11*
X121404380Y-81000600D03*
G04 #@! TD*
D10*
G04 #@! TO.C,R2*
X77716380Y-109448600D03*
D11*
X67556380Y-109448600D03*
G04 #@! TD*
D12*
G04 #@! TO.C,J9*
X85336380Y-129768600D03*
X87876380Y-129768600D03*
X90416380Y-129768600D03*
X92956380Y-129768600D03*
X95496380Y-129768600D03*
X98036380Y-129768600D03*
X100576380Y-129768600D03*
X103116380Y-129768600D03*
X105656380Y-129768600D03*
X108196380Y-129768600D03*
X110736380Y-129768600D03*
X113276380Y-129768600D03*
X115816380Y-129768600D03*
X118356380Y-129768600D03*
X120896380Y-129768600D03*
X123436380Y-129768600D03*
X125976380Y-129768600D03*
X128516380Y-129768600D03*
X131056380Y-129768600D03*
X133596380Y-129768600D03*
X136136380Y-129768600D03*
X138676380Y-129768600D03*
X141216380Y-129768600D03*
X143756380Y-129768600D03*
X146296380Y-129768600D03*
X148836380Y-129768600D03*
X151376380Y-129768600D03*
X153916380Y-129768600D03*
X156456380Y-129768600D03*
X158996380Y-129768600D03*
X161536380Y-129768600D03*
G04 #@! TD*
D10*
G04 #@! TO.C,U2*
X155440380Y-70586600D03*
X137660380Y-62966600D03*
X152900380Y-70586600D03*
X140200380Y-62966600D03*
X150360380Y-70586600D03*
X142740380Y-62966600D03*
X147820380Y-70586600D03*
X145280380Y-62966600D03*
X145280380Y-70586600D03*
X147820380Y-62966600D03*
X142740380Y-70586600D03*
X150360380Y-62966600D03*
X140200380Y-70586600D03*
X152900380Y-62966600D03*
X137660380Y-70586600D03*
D13*
X155440380Y-62966600D03*
G04 #@! TD*
D10*
G04 #@! TO.C,U1*
X106926380Y-86588600D03*
X58666380Y-71348600D03*
X104386380Y-86588600D03*
X61206380Y-71348600D03*
X101846380Y-86588600D03*
X63746380Y-71348600D03*
X99306380Y-86588600D03*
X66286380Y-71348600D03*
X96766380Y-86588600D03*
X68826380Y-71348600D03*
X94226380Y-86588600D03*
X71366380Y-71348600D03*
X91686380Y-86588600D03*
X73906380Y-71348600D03*
X89146380Y-86588600D03*
X76446380Y-71348600D03*
X86606380Y-86588600D03*
X78986380Y-71348600D03*
X84066380Y-86588600D03*
X81526380Y-71348600D03*
X81526380Y-86588600D03*
X84066380Y-71348600D03*
X78986380Y-86588600D03*
X86606380Y-71348600D03*
X76446380Y-86588600D03*
X89146380Y-71348600D03*
X73906380Y-86588600D03*
X91686380Y-71348600D03*
X71366380Y-86588600D03*
X94226380Y-71348600D03*
X68826380Y-86588600D03*
X96766380Y-71348600D03*
X66286380Y-86588600D03*
X99306380Y-71348600D03*
X63746380Y-86588600D03*
X101846380Y-71348600D03*
X61206380Y-86588600D03*
X104386380Y-71348600D03*
X58666380Y-86588600D03*
D13*
X106926380Y-71348600D03*
G04 #@! TD*
D10*
G04 #@! TO.C,U4*
X155440380Y-95986600D03*
X137660380Y-88366600D03*
X152900380Y-95986600D03*
X140200380Y-88366600D03*
X150360380Y-95986600D03*
X142740380Y-88366600D03*
X147820380Y-95986600D03*
X145280380Y-88366600D03*
X145280380Y-95986600D03*
X147820380Y-88366600D03*
X142740380Y-95986600D03*
X150360380Y-88366600D03*
X140200380Y-95986600D03*
X152900380Y-88366600D03*
X137660380Y-95986600D03*
D13*
X155440380Y-88366600D03*
G04 #@! TD*
D10*
G04 #@! TO.C,U3*
X155440380Y-83286600D03*
X140200380Y-75666600D03*
X152900380Y-83286600D03*
X142740380Y-75666600D03*
X150360380Y-83286600D03*
X145280380Y-75666600D03*
X147820380Y-83286600D03*
X147820380Y-75666600D03*
X145280380Y-83286600D03*
X150360380Y-75666600D03*
X142740380Y-83286600D03*
X152900380Y-75666600D03*
X140200380Y-83286600D03*
D13*
X155440380Y-75666600D03*
G04 #@! TD*
D10*
G04 #@! TO.C,R1*
X116324380Y-91160600D03*
D11*
X116324380Y-81000600D03*
G04 #@! TD*
G04 #@! TO.C,C8*
X129786380Y-117068600D03*
X129786380Y-112068600D03*
G04 #@! TD*
G04 #@! TO.C,C4*
X158742380Y-95986600D03*
X158742380Y-90986600D03*
G04 #@! TD*
G04 #@! TO.C,C3*
X158742380Y-83286600D03*
X158742380Y-78286600D03*
G04 #@! TD*
G04 #@! TO.C,C2*
X82796380Y-89382600D03*
X77796380Y-89382600D03*
G04 #@! TD*
G04 #@! TO.C,C1*
X158742380Y-70586600D03*
X158742380Y-65586600D03*
G04 #@! TD*
D10*
G04 #@! TO.C,U5*
X126484380Y-117068600D03*
X103624380Y-109448600D03*
X123944380Y-117068600D03*
X106164380Y-109448600D03*
X121404380Y-117068600D03*
X108704380Y-109448600D03*
X118864380Y-117068600D03*
X111244380Y-109448600D03*
X116324380Y-117068600D03*
X113784380Y-109448600D03*
X113784380Y-117068600D03*
X116324380Y-109448600D03*
X111244380Y-117068600D03*
X118864380Y-109448600D03*
X108704380Y-117068600D03*
X121404380Y-109448600D03*
X106164380Y-117068600D03*
X123944380Y-109448600D03*
X103624380Y-117068600D03*
D13*
X126484380Y-109448600D03*
G04 #@! TD*
D14*
G04 #@! TO.C,R*
X181602380Y-122148600D03*
G04 #@! TD*
D12*
G04 #@! TO.C,J1*
X57396380Y-129768600D03*
X59936380Y-129768600D03*
X62476380Y-129768600D03*
X65016380Y-129768600D03*
X67556380Y-129768600D03*
X70096380Y-129768600D03*
X72636380Y-129768600D03*
X75176380Y-129768600D03*
G04 #@! TD*
D14*
G04 #@! TO.C,R*
X181602380Y-64998600D03*
G04 #@! TD*
M02*
