G04 #@! TF.GenerationSoftware,KiCad,Pcbnew,(5.1.8)-1*
G04 #@! TF.CreationDate,2021-11-26T20:47:42-07:00*
G04 #@! TF.ProjectId,DMA,444d412e-6b69-4636-9164-5f7063625858,rev?*
G04 #@! TF.SameCoordinates,Original*
G04 #@! TF.FileFunction,Legend,Top*
G04 #@! TF.FilePolarity,Positive*
%FSLAX46Y46*%
G04 Gerber Fmt 4.6, Leading zero omitted, Abs format (unit mm)*
G04 Created by KiCad (PCBNEW (5.1.8)-1) date 2021-11-26 20:47:42*
%MOMM*%
%LPD*%
G01*
G04 APERTURE LIST*
%ADD10C,0.063500*%
%ADD11C,0.150000*%
%ADD12C,0.120000*%
G04 APERTURE END LIST*
D10*
X68711475Y-81399742D02*
X68965475Y-81399742D01*
X68711475Y-81544885D01*
X68965475Y-81544885D01*
X68965475Y-81714219D02*
X68965475Y-81762600D01*
X68953380Y-81786790D01*
X68929189Y-81810980D01*
X68880808Y-81823076D01*
X68796141Y-81823076D01*
X68747760Y-81810980D01*
X68723570Y-81786790D01*
X68711475Y-81762600D01*
X68711475Y-81714219D01*
X68723570Y-81690028D01*
X68747760Y-81665838D01*
X68796141Y-81653742D01*
X68880808Y-81653742D01*
X68929189Y-81665838D01*
X68953380Y-81690028D01*
X68965475Y-81714219D01*
X68711475Y-82125457D02*
X68965475Y-82125457D01*
X68965475Y-82185933D01*
X68953380Y-82222219D01*
X68929189Y-82246409D01*
X68904999Y-82258504D01*
X68856618Y-82270600D01*
X68820332Y-82270600D01*
X68771951Y-82258504D01*
X68747760Y-82246409D01*
X68723570Y-82222219D01*
X68711475Y-82185933D01*
X68711475Y-82125457D01*
X68784046Y-82367361D02*
X68784046Y-82488314D01*
X68711475Y-82343171D02*
X68965475Y-82427838D01*
X68711475Y-82512504D01*
X68735665Y-82742314D02*
X68723570Y-82730219D01*
X68711475Y-82693933D01*
X68711475Y-82669742D01*
X68723570Y-82633457D01*
X68747760Y-82609266D01*
X68771951Y-82597171D01*
X68820332Y-82585076D01*
X68856618Y-82585076D01*
X68904999Y-82597171D01*
X68929189Y-82609266D01*
X68953380Y-82633457D01*
X68965475Y-82669742D01*
X68965475Y-82693933D01*
X68953380Y-82730219D01*
X68941284Y-82742314D01*
X68711475Y-82851171D02*
X68965475Y-82851171D01*
X68711475Y-82996314D02*
X68856618Y-82887457D01*
X68965475Y-82996314D02*
X68820332Y-82851171D01*
X68965475Y-83153552D02*
X68965475Y-83177742D01*
X68953380Y-83201933D01*
X68941284Y-83214028D01*
X68917094Y-83226123D01*
X68868713Y-83238219D01*
X68808237Y-83238219D01*
X68759856Y-83226123D01*
X68735665Y-83214028D01*
X68723570Y-83201933D01*
X68711475Y-83177742D01*
X68711475Y-83153552D01*
X68723570Y-83129361D01*
X68735665Y-83117266D01*
X68759856Y-83105171D01*
X68808237Y-83093076D01*
X68868713Y-83093076D01*
X68917094Y-83105171D01*
X68941284Y-83117266D01*
X68953380Y-83129361D01*
X68965475Y-83153552D01*
X68977570Y-83528504D02*
X68650999Y-83310790D01*
X68711475Y-83758314D02*
X68832427Y-83673647D01*
X68711475Y-83613171D02*
X68965475Y-83613171D01*
X68965475Y-83709933D01*
X68953380Y-83734123D01*
X68941284Y-83746219D01*
X68917094Y-83758314D01*
X68880808Y-83758314D01*
X68856618Y-83746219D01*
X68844522Y-83734123D01*
X68832427Y-83709933D01*
X68832427Y-83613171D01*
X68844522Y-83867171D02*
X68844522Y-83951838D01*
X68711475Y-83988123D02*
X68711475Y-83867171D01*
X68965475Y-83867171D01*
X68965475Y-83988123D01*
X68844522Y-84181647D02*
X68844522Y-84096980D01*
X68711475Y-84096980D02*
X68965475Y-84096980D01*
X68965475Y-84217933D01*
X68735665Y-84653361D02*
X68723570Y-84641266D01*
X68711475Y-84604980D01*
X68711475Y-84580790D01*
X68723570Y-84544504D01*
X68747760Y-84520314D01*
X68771951Y-84508219D01*
X68820332Y-84496123D01*
X68856618Y-84496123D01*
X68904999Y-84508219D01*
X68929189Y-84520314D01*
X68953380Y-84544504D01*
X68965475Y-84580790D01*
X68965475Y-84604980D01*
X68953380Y-84641266D01*
X68941284Y-84653361D01*
X68965475Y-84810600D02*
X68965475Y-84858980D01*
X68953380Y-84883171D01*
X68929189Y-84907361D01*
X68880808Y-84919457D01*
X68796141Y-84919457D01*
X68747760Y-84907361D01*
X68723570Y-84883171D01*
X68711475Y-84858980D01*
X68711475Y-84810600D01*
X68723570Y-84786409D01*
X68747760Y-84762219D01*
X68796141Y-84750123D01*
X68880808Y-84750123D01*
X68929189Y-84762219D01*
X68953380Y-84786409D01*
X68965475Y-84810600D01*
X68711475Y-85028314D02*
X68965475Y-85028314D01*
X68711475Y-85173457D01*
X68965475Y-85173457D01*
D11*
X55445975Y-60674171D02*
X55779308Y-60674171D01*
X55922165Y-61197980D02*
X55445975Y-61197980D01*
X55445975Y-60197980D01*
X55922165Y-60197980D01*
X56350737Y-61197980D02*
X56350737Y-60197980D01*
X56684070Y-60912266D01*
X57017403Y-60197980D01*
X57017403Y-61197980D01*
X57493594Y-61197980D02*
X57493594Y-60197980D01*
X57826927Y-60912266D01*
X58160260Y-60197980D01*
X58160260Y-61197980D01*
X59969784Y-61102742D02*
X59922165Y-61150361D01*
X59779308Y-61197980D01*
X59684070Y-61197980D01*
X59541213Y-61150361D01*
X59445975Y-61055123D01*
X59398356Y-60959885D01*
X59350737Y-60769409D01*
X59350737Y-60626552D01*
X59398356Y-60436076D01*
X59445975Y-60340838D01*
X59541213Y-60245600D01*
X59684070Y-60197980D01*
X59779308Y-60197980D01*
X59922165Y-60245600D01*
X59969784Y-60293219D01*
X60588832Y-60197980D02*
X60779308Y-60197980D01*
X60874546Y-60245600D01*
X60969784Y-60340838D01*
X61017403Y-60531314D01*
X61017403Y-60864647D01*
X60969784Y-61055123D01*
X60874546Y-61150361D01*
X60779308Y-61197980D01*
X60588832Y-61197980D01*
X60493594Y-61150361D01*
X60398356Y-61055123D01*
X60350737Y-60864647D01*
X60350737Y-60531314D01*
X60398356Y-60340838D01*
X60493594Y-60245600D01*
X60588832Y-60197980D01*
X61445975Y-61197980D02*
X61445975Y-60197980D01*
X61779308Y-60912266D01*
X62112641Y-60197980D01*
X62112641Y-61197980D01*
X62588832Y-61197980D02*
X62588832Y-60197980D01*
X62969784Y-60197980D01*
X63065022Y-60245600D01*
X63112641Y-60293219D01*
X63160260Y-60388457D01*
X63160260Y-60531314D01*
X63112641Y-60626552D01*
X63065022Y-60674171D01*
X62969784Y-60721790D01*
X62588832Y-60721790D01*
X63588832Y-60197980D02*
X63588832Y-61007504D01*
X63636451Y-61102742D01*
X63684070Y-61150361D01*
X63779308Y-61197980D01*
X63969784Y-61197980D01*
X64065022Y-61150361D01*
X64112641Y-61102742D01*
X64160260Y-61007504D01*
X64160260Y-60197980D01*
X64493594Y-60197980D02*
X65065022Y-60197980D01*
X64779308Y-61197980D02*
X64779308Y-60197980D01*
X65398356Y-60674171D02*
X65731689Y-60674171D01*
X65874546Y-61197980D02*
X65398356Y-61197980D01*
X65398356Y-60197980D01*
X65874546Y-60197980D01*
X66874546Y-61197980D02*
X66541213Y-60721790D01*
X66303118Y-61197980D02*
X66303118Y-60197980D01*
X66684070Y-60197980D01*
X66779308Y-60245600D01*
X66826927Y-60293219D01*
X66874546Y-60388457D01*
X66874546Y-60531314D01*
X66826927Y-60626552D01*
X66779308Y-60674171D01*
X66684070Y-60721790D01*
X66303118Y-60721790D01*
X67255499Y-61150361D02*
X67398356Y-61197980D01*
X67636451Y-61197980D01*
X67731689Y-61150361D01*
X67779308Y-61102742D01*
X67826927Y-61007504D01*
X67826927Y-60912266D01*
X67779308Y-60817028D01*
X67731689Y-60769409D01*
X67636451Y-60721790D01*
X67445975Y-60674171D01*
X67350737Y-60626552D01*
X67303118Y-60578933D01*
X67255499Y-60483695D01*
X67255499Y-60388457D01*
X67303118Y-60293219D01*
X67350737Y-60245600D01*
X67445975Y-60197980D01*
X67684070Y-60197980D01*
X67826927Y-60245600D01*
X55588832Y-62276552D02*
X55493594Y-62228933D01*
X55445975Y-62181314D01*
X55398356Y-62086076D01*
X55398356Y-62038457D01*
X55445975Y-61943219D01*
X55493594Y-61895600D01*
X55588832Y-61847980D01*
X55779308Y-61847980D01*
X55874546Y-61895600D01*
X55922165Y-61943219D01*
X55969784Y-62038457D01*
X55969784Y-62086076D01*
X55922165Y-62181314D01*
X55874546Y-62228933D01*
X55779308Y-62276552D01*
X55588832Y-62276552D01*
X55493594Y-62324171D01*
X55445975Y-62371790D01*
X55398356Y-62467028D01*
X55398356Y-62657504D01*
X55445975Y-62752742D01*
X55493594Y-62800361D01*
X55588832Y-62847980D01*
X55779308Y-62847980D01*
X55874546Y-62800361D01*
X55922165Y-62752742D01*
X55969784Y-62657504D01*
X55969784Y-62467028D01*
X55922165Y-62371790D01*
X55874546Y-62324171D01*
X55779308Y-62276552D01*
X56350737Y-61943219D02*
X56398356Y-61895600D01*
X56493594Y-61847980D01*
X56731689Y-61847980D01*
X56826927Y-61895600D01*
X56874546Y-61943219D01*
X56922165Y-62038457D01*
X56922165Y-62133695D01*
X56874546Y-62276552D01*
X56303118Y-62847980D01*
X56922165Y-62847980D01*
X57255499Y-61847980D02*
X57874546Y-61847980D01*
X57541213Y-62228933D01*
X57684070Y-62228933D01*
X57779308Y-62276552D01*
X57826927Y-62324171D01*
X57874546Y-62419409D01*
X57874546Y-62657504D01*
X57826927Y-62752742D01*
X57779308Y-62800361D01*
X57684070Y-62847980D01*
X57398356Y-62847980D01*
X57303118Y-62800361D01*
X57255499Y-62752742D01*
X58207880Y-61847980D02*
X58874546Y-61847980D01*
X58445975Y-62847980D01*
X60017403Y-62847980D02*
X60017403Y-61847980D01*
X60255499Y-61847980D01*
X60398356Y-61895600D01*
X60493594Y-61990838D01*
X60541213Y-62086076D01*
X60588832Y-62276552D01*
X60588832Y-62419409D01*
X60541213Y-62609885D01*
X60493594Y-62705123D01*
X60398356Y-62800361D01*
X60255499Y-62847980D01*
X60017403Y-62847980D01*
X61017403Y-62847980D02*
X61017403Y-61847980D01*
X61350737Y-62562266D01*
X61684070Y-61847980D01*
X61684070Y-62847980D01*
X62112641Y-62562266D02*
X62588832Y-62562266D01*
X62017403Y-62847980D02*
X62350737Y-61847980D01*
X62684070Y-62847980D01*
X64350737Y-62752742D02*
X64303118Y-62800361D01*
X64160260Y-62847980D01*
X64065022Y-62847980D01*
X63922165Y-62800361D01*
X63826927Y-62705123D01*
X63779308Y-62609885D01*
X63731689Y-62419409D01*
X63731689Y-62276552D01*
X63779308Y-62086076D01*
X63826927Y-61990838D01*
X63922165Y-61895600D01*
X64065022Y-61847980D01*
X64160260Y-61847980D01*
X64303118Y-61895600D01*
X64350737Y-61943219D01*
X64969784Y-61847980D02*
X65160260Y-61847980D01*
X65255499Y-61895600D01*
X65350737Y-61990838D01*
X65398356Y-62181314D01*
X65398356Y-62514647D01*
X65350737Y-62705123D01*
X65255499Y-62800361D01*
X65160260Y-62847980D01*
X64969784Y-62847980D01*
X64874546Y-62800361D01*
X64779308Y-62705123D01*
X64731689Y-62514647D01*
X64731689Y-62181314D01*
X64779308Y-61990838D01*
X64874546Y-61895600D01*
X64969784Y-61847980D01*
X65826927Y-62847980D02*
X65826927Y-61847980D01*
X66398356Y-62847980D01*
X66398356Y-61847980D01*
X66731689Y-61847980D02*
X67303118Y-61847980D01*
X67017403Y-62847980D02*
X67017403Y-61847980D01*
X68207880Y-62847980D02*
X67874546Y-62371790D01*
X67636451Y-62847980D02*
X67636451Y-61847980D01*
X68017403Y-61847980D01*
X68112641Y-61895600D01*
X68160260Y-61943219D01*
X68207880Y-62038457D01*
X68207880Y-62181314D01*
X68160260Y-62276552D01*
X68112641Y-62324171D01*
X68017403Y-62371790D01*
X67636451Y-62371790D01*
X68826927Y-61847980D02*
X69017403Y-61847980D01*
X69112641Y-61895600D01*
X69207880Y-61990838D01*
X69255499Y-62181314D01*
X69255499Y-62514647D01*
X69207880Y-62705123D01*
X69112641Y-62800361D01*
X69017403Y-62847980D01*
X68826927Y-62847980D01*
X68731689Y-62800361D01*
X68636451Y-62705123D01*
X68588832Y-62514647D01*
X68588832Y-62181314D01*
X68636451Y-61990838D01*
X68731689Y-61895600D01*
X68826927Y-61847980D01*
X70160260Y-62847980D02*
X69684070Y-62847980D01*
X69684070Y-61847980D01*
X70969784Y-62847980D02*
X70493594Y-62847980D01*
X70493594Y-61847980D01*
X71303118Y-62324171D02*
X71636451Y-62324171D01*
X71779308Y-62847980D02*
X71303118Y-62847980D01*
X71303118Y-61847980D01*
X71779308Y-61847980D01*
X72779308Y-62847980D02*
X72445975Y-62371790D01*
X72207880Y-62847980D02*
X72207880Y-61847980D01*
X72588832Y-61847980D01*
X72684070Y-61895600D01*
X72731689Y-61943219D01*
X72779308Y-62038457D01*
X72779308Y-62181314D01*
X72731689Y-62276552D01*
X72684070Y-62324171D01*
X72588832Y-62371790D01*
X72207880Y-62371790D01*
X56017403Y-64402742D02*
X55969784Y-64450361D01*
X55826927Y-64497980D01*
X55731689Y-64497980D01*
X55588832Y-64450361D01*
X55493594Y-64355123D01*
X55445975Y-64259885D01*
X55398356Y-64069409D01*
X55398356Y-63926552D01*
X55445975Y-63736076D01*
X55493594Y-63640838D01*
X55588832Y-63545600D01*
X55731689Y-63497980D01*
X55826927Y-63497980D01*
X55969784Y-63545600D01*
X56017403Y-63593219D01*
X56588832Y-64497980D02*
X56493594Y-64450361D01*
X56445975Y-64402742D01*
X56398356Y-64307504D01*
X56398356Y-64021790D01*
X56445975Y-63926552D01*
X56493594Y-63878933D01*
X56588832Y-63831314D01*
X56731689Y-63831314D01*
X56826927Y-63878933D01*
X56874546Y-63926552D01*
X56922165Y-64021790D01*
X56922165Y-64307504D01*
X56874546Y-64402742D01*
X56826927Y-64450361D01*
X56731689Y-64497980D01*
X56588832Y-64497980D01*
X57350737Y-63831314D02*
X57350737Y-64831314D01*
X57350737Y-63878933D02*
X57445975Y-63831314D01*
X57636451Y-63831314D01*
X57731689Y-63878933D01*
X57779308Y-63926552D01*
X57826927Y-64021790D01*
X57826927Y-64307504D01*
X57779308Y-64402742D01*
X57731689Y-64450361D01*
X57636451Y-64497980D01*
X57445975Y-64497980D01*
X57350737Y-64450361D01*
X58160260Y-63831314D02*
X58398356Y-64497980D01*
X58636451Y-63831314D02*
X58398356Y-64497980D01*
X58303118Y-64736076D01*
X58255499Y-64783695D01*
X58160260Y-64831314D01*
X59017403Y-64497980D02*
X59017403Y-63831314D01*
X59017403Y-64021790D02*
X59065022Y-63926552D01*
X59112641Y-63878933D01*
X59207880Y-63831314D01*
X59303118Y-63831314D01*
X59636451Y-64497980D02*
X59636451Y-63831314D01*
X59636451Y-63497980D02*
X59588832Y-63545600D01*
X59636451Y-63593219D01*
X59684070Y-63545600D01*
X59636451Y-63497980D01*
X59636451Y-63593219D01*
X60541213Y-63831314D02*
X60541213Y-64640838D01*
X60493594Y-64736076D01*
X60445975Y-64783695D01*
X60350737Y-64831314D01*
X60207880Y-64831314D01*
X60112641Y-64783695D01*
X60541213Y-64450361D02*
X60445975Y-64497980D01*
X60255499Y-64497980D01*
X60160260Y-64450361D01*
X60112641Y-64402742D01*
X60065022Y-64307504D01*
X60065022Y-64021790D01*
X60112641Y-63926552D01*
X60160260Y-63878933D01*
X60255499Y-63831314D01*
X60445975Y-63831314D01*
X60541213Y-63878933D01*
X61017403Y-64497980D02*
X61017403Y-63497980D01*
X61445975Y-64497980D02*
X61445975Y-63974171D01*
X61398356Y-63878933D01*
X61303118Y-63831314D01*
X61160260Y-63831314D01*
X61065022Y-63878933D01*
X61017403Y-63926552D01*
X61779308Y-63831314D02*
X62160260Y-63831314D01*
X61922165Y-63497980D02*
X61922165Y-64355123D01*
X61969784Y-64450361D01*
X62065022Y-64497980D01*
X62160260Y-64497980D01*
X63541213Y-64878933D02*
X63493594Y-64831314D01*
X63398356Y-64688457D01*
X63350737Y-64593219D01*
X63303118Y-64450361D01*
X63255499Y-64212266D01*
X63255499Y-64021790D01*
X63303118Y-63783695D01*
X63350737Y-63640838D01*
X63398356Y-63545600D01*
X63493594Y-63402742D01*
X63541213Y-63355123D01*
X64493594Y-64402742D02*
X64445975Y-64450361D01*
X64303118Y-64497980D01*
X64207880Y-64497980D01*
X64065022Y-64450361D01*
X63969784Y-64355123D01*
X63922165Y-64259885D01*
X63874546Y-64069409D01*
X63874546Y-63926552D01*
X63922165Y-63736076D01*
X63969784Y-63640838D01*
X64065022Y-63545600D01*
X64207880Y-63497980D01*
X64303118Y-63497980D01*
X64445975Y-63545600D01*
X64493594Y-63593219D01*
X64826927Y-64878933D02*
X64874546Y-64831314D01*
X64969784Y-64688457D01*
X65017403Y-64593219D01*
X65065022Y-64450361D01*
X65112641Y-64212266D01*
X65112641Y-64021790D01*
X65065022Y-63783695D01*
X65017403Y-63640838D01*
X64969784Y-63545600D01*
X64874546Y-63402742D01*
X64826927Y-63355123D01*
X66303118Y-63593219D02*
X66350737Y-63545600D01*
X66445975Y-63497980D01*
X66684070Y-63497980D01*
X66779308Y-63545600D01*
X66826927Y-63593219D01*
X66874546Y-63688457D01*
X66874546Y-63783695D01*
X66826927Y-63926552D01*
X66255499Y-64497980D01*
X66874546Y-64497980D01*
X67493594Y-63497980D02*
X67588832Y-63497980D01*
X67684070Y-63545600D01*
X67731689Y-63593219D01*
X67779308Y-63688457D01*
X67826927Y-63878933D01*
X67826927Y-64117028D01*
X67779308Y-64307504D01*
X67731689Y-64402742D01*
X67684070Y-64450361D01*
X67588832Y-64497980D01*
X67493594Y-64497980D01*
X67398356Y-64450361D01*
X67350737Y-64402742D01*
X67303118Y-64307504D01*
X67255499Y-64117028D01*
X67255499Y-63878933D01*
X67303118Y-63688457D01*
X67350737Y-63593219D01*
X67398356Y-63545600D01*
X67493594Y-63497980D01*
X68207880Y-63593219D02*
X68255499Y-63545600D01*
X68350737Y-63497980D01*
X68588832Y-63497980D01*
X68684070Y-63545600D01*
X68731689Y-63593219D01*
X68779308Y-63688457D01*
X68779308Y-63783695D01*
X68731689Y-63926552D01*
X68160260Y-64497980D01*
X68779308Y-64497980D01*
X69731689Y-64497980D02*
X69160260Y-64497980D01*
X69445975Y-64497980D02*
X69445975Y-63497980D01*
X69350737Y-63640838D01*
X69255499Y-63736076D01*
X69160260Y-63783695D01*
X70922165Y-63974171D02*
X71255499Y-63974171D01*
X71398356Y-64497980D02*
X70922165Y-64497980D01*
X70922165Y-63497980D01*
X71398356Y-63497980D01*
X71826927Y-64497980D02*
X71826927Y-63497980D01*
X72160260Y-64212266D01*
X72493594Y-63497980D01*
X72493594Y-64497980D01*
X72969784Y-64497980D02*
X72969784Y-63497980D01*
X73303118Y-64212266D01*
X73636451Y-63497980D01*
X73636451Y-64497980D01*
X55350737Y-65481314D02*
X55541213Y-66147980D01*
X55731689Y-65671790D01*
X55922165Y-66147980D01*
X56112641Y-65481314D01*
X56398356Y-65481314D02*
X56588832Y-66147980D01*
X56779308Y-65671790D01*
X56969784Y-66147980D01*
X57160260Y-65481314D01*
X57445975Y-65481314D02*
X57636451Y-66147980D01*
X57826927Y-65671790D01*
X58017403Y-66147980D01*
X58207880Y-65481314D01*
X58588832Y-66052742D02*
X58636451Y-66100361D01*
X58588832Y-66147980D01*
X58541213Y-66100361D01*
X58588832Y-66052742D01*
X58588832Y-66147980D01*
X59065022Y-66147980D02*
X59065022Y-65147980D01*
X59493594Y-66147980D02*
X59493594Y-65624171D01*
X59445975Y-65528933D01*
X59350737Y-65481314D01*
X59207880Y-65481314D01*
X59112641Y-65528933D01*
X59065022Y-65576552D01*
X60112641Y-66147980D02*
X60017403Y-66100361D01*
X59969784Y-66052742D01*
X59922165Y-65957504D01*
X59922165Y-65671790D01*
X59969784Y-65576552D01*
X60017403Y-65528933D01*
X60112641Y-65481314D01*
X60255499Y-65481314D01*
X60350737Y-65528933D01*
X60398356Y-65576552D01*
X60445975Y-65671790D01*
X60445975Y-65957504D01*
X60398356Y-66052742D01*
X60350737Y-66100361D01*
X60255499Y-66147980D01*
X60112641Y-66147980D01*
X60874546Y-66147980D02*
X60874546Y-65481314D01*
X60874546Y-65576552D02*
X60922165Y-65528933D01*
X61017403Y-65481314D01*
X61160260Y-65481314D01*
X61255499Y-65528933D01*
X61303118Y-65624171D01*
X61303118Y-66147980D01*
X61303118Y-65624171D02*
X61350737Y-65528933D01*
X61445975Y-65481314D01*
X61588832Y-65481314D01*
X61684070Y-65528933D01*
X61731689Y-65624171D01*
X61731689Y-66147980D01*
X62588832Y-66100361D02*
X62493594Y-66147980D01*
X62303118Y-66147980D01*
X62207880Y-66100361D01*
X62160260Y-66005123D01*
X62160260Y-65624171D01*
X62207880Y-65528933D01*
X62303118Y-65481314D01*
X62493594Y-65481314D01*
X62588832Y-65528933D01*
X62636451Y-65624171D01*
X62636451Y-65719409D01*
X62160260Y-65814647D01*
X63065022Y-66147980D02*
X63065022Y-65147980D01*
X63065022Y-65528933D02*
X63160260Y-65481314D01*
X63350737Y-65481314D01*
X63445975Y-65528933D01*
X63493594Y-65576552D01*
X63541213Y-65671790D01*
X63541213Y-65957504D01*
X63493594Y-66052742D01*
X63445975Y-66100361D01*
X63350737Y-66147980D01*
X63160260Y-66147980D01*
X63065022Y-66100361D01*
X63969784Y-66147980D02*
X63969784Y-65481314D01*
X63969784Y-65671790D02*
X64017403Y-65576552D01*
X64065022Y-65528933D01*
X64160260Y-65481314D01*
X64255499Y-65481314D01*
X64969784Y-66100361D02*
X64874546Y-66147980D01*
X64684070Y-66147980D01*
X64588832Y-66100361D01*
X64541213Y-66005123D01*
X64541213Y-65624171D01*
X64588832Y-65528933D01*
X64684070Y-65481314D01*
X64874546Y-65481314D01*
X64969784Y-65528933D01*
X65017403Y-65624171D01*
X65017403Y-65719409D01*
X64541213Y-65814647D01*
X65350737Y-65481314D02*
X65541213Y-66147980D01*
X65731689Y-65671790D01*
X65922165Y-66147980D01*
X66112641Y-65481314D01*
X66636451Y-65576552D02*
X66541213Y-65528933D01*
X66493594Y-65481314D01*
X66445975Y-65386076D01*
X66445975Y-65338457D01*
X66493594Y-65243219D01*
X66541213Y-65195600D01*
X66636451Y-65147980D01*
X66826927Y-65147980D01*
X66922165Y-65195600D01*
X66969784Y-65243219D01*
X67017403Y-65338457D01*
X67017403Y-65386076D01*
X66969784Y-65481314D01*
X66922165Y-65528933D01*
X66826927Y-65576552D01*
X66636451Y-65576552D01*
X66541213Y-65624171D01*
X66493594Y-65671790D01*
X66445975Y-65767028D01*
X66445975Y-65957504D01*
X66493594Y-66052742D01*
X66541213Y-66100361D01*
X66636451Y-66147980D01*
X66826927Y-66147980D01*
X66922165Y-66100361D01*
X66969784Y-66052742D01*
X67017403Y-65957504D01*
X67017403Y-65767028D01*
X66969784Y-65671790D01*
X66922165Y-65624171D01*
X66826927Y-65576552D01*
X67636451Y-65147980D02*
X67731689Y-65147980D01*
X67826927Y-65195600D01*
X67874546Y-65243219D01*
X67922165Y-65338457D01*
X67969784Y-65528933D01*
X67969784Y-65767028D01*
X67922165Y-65957504D01*
X67874546Y-66052742D01*
X67826927Y-66100361D01*
X67731689Y-66147980D01*
X67636451Y-66147980D01*
X67541213Y-66100361D01*
X67493594Y-66052742D01*
X67445975Y-65957504D01*
X67398356Y-65767028D01*
X67398356Y-65528933D01*
X67445975Y-65338457D01*
X67493594Y-65243219D01*
X67541213Y-65195600D01*
X67636451Y-65147980D01*
X68541213Y-65576552D02*
X68445975Y-65528933D01*
X68398356Y-65481314D01*
X68350737Y-65386076D01*
X68350737Y-65338457D01*
X68398356Y-65243219D01*
X68445975Y-65195600D01*
X68541213Y-65147980D01*
X68731689Y-65147980D01*
X68826927Y-65195600D01*
X68874546Y-65243219D01*
X68922165Y-65338457D01*
X68922165Y-65386076D01*
X68874546Y-65481314D01*
X68826927Y-65528933D01*
X68731689Y-65576552D01*
X68541213Y-65576552D01*
X68445975Y-65624171D01*
X68398356Y-65671790D01*
X68350737Y-65767028D01*
X68350737Y-65957504D01*
X68398356Y-66052742D01*
X68445975Y-66100361D01*
X68541213Y-66147980D01*
X68731689Y-66147980D01*
X68826927Y-66100361D01*
X68874546Y-66052742D01*
X68922165Y-65957504D01*
X68922165Y-65767028D01*
X68874546Y-65671790D01*
X68826927Y-65624171D01*
X68731689Y-65576552D01*
X69493594Y-65576552D02*
X69398356Y-65528933D01*
X69350737Y-65481314D01*
X69303118Y-65386076D01*
X69303118Y-65338457D01*
X69350737Y-65243219D01*
X69398356Y-65195600D01*
X69493594Y-65147980D01*
X69684070Y-65147980D01*
X69779308Y-65195600D01*
X69826927Y-65243219D01*
X69874546Y-65338457D01*
X69874546Y-65386076D01*
X69826927Y-65481314D01*
X69779308Y-65528933D01*
X69684070Y-65576552D01*
X69493594Y-65576552D01*
X69398356Y-65624171D01*
X69350737Y-65671790D01*
X69303118Y-65767028D01*
X69303118Y-65957504D01*
X69350737Y-66052742D01*
X69398356Y-66100361D01*
X69493594Y-66147980D01*
X69684070Y-66147980D01*
X69779308Y-66100361D01*
X69826927Y-66052742D01*
X69874546Y-65957504D01*
X69874546Y-65767028D01*
X69826927Y-65671790D01*
X69779308Y-65624171D01*
X69684070Y-65576552D01*
X70303118Y-66052742D02*
X70350737Y-66100361D01*
X70303118Y-66147980D01*
X70255499Y-66100361D01*
X70303118Y-66052742D01*
X70303118Y-66147980D01*
X71207880Y-66100361D02*
X71112641Y-66147980D01*
X70922165Y-66147980D01*
X70826927Y-66100361D01*
X70779308Y-66052742D01*
X70731689Y-65957504D01*
X70731689Y-65671790D01*
X70779308Y-65576552D01*
X70826927Y-65528933D01*
X70922165Y-65481314D01*
X71112641Y-65481314D01*
X71207880Y-65528933D01*
X71779308Y-66147980D02*
X71684070Y-66100361D01*
X71636451Y-66052742D01*
X71588832Y-65957504D01*
X71588832Y-65671790D01*
X71636451Y-65576552D01*
X71684070Y-65528933D01*
X71779308Y-65481314D01*
X71922165Y-65481314D01*
X72017403Y-65528933D01*
X72065022Y-65576552D01*
X72112641Y-65671790D01*
X72112641Y-65957504D01*
X72065022Y-66052742D01*
X72017403Y-66100361D01*
X71922165Y-66147980D01*
X71779308Y-66147980D01*
X72541213Y-66147980D02*
X72541213Y-65481314D01*
X72541213Y-65576552D02*
X72588832Y-65528933D01*
X72684070Y-65481314D01*
X72826927Y-65481314D01*
X72922165Y-65528933D01*
X72969784Y-65624171D01*
X72969784Y-66147980D01*
X72969784Y-65624171D02*
X73017403Y-65528933D01*
X73112641Y-65481314D01*
X73255499Y-65481314D01*
X73350737Y-65528933D01*
X73398356Y-65624171D01*
X73398356Y-66147980D01*
D12*
G04 #@! TO.C,R2*
X76676380Y-109448600D02*
X75906380Y-109448600D01*
X68596380Y-109448600D02*
X69366380Y-109448600D01*
X75906380Y-108078600D02*
X69366380Y-108078600D01*
X75906380Y-110818600D02*
X75906380Y-108078600D01*
X69366380Y-110818600D02*
X75906380Y-110818600D01*
X69366380Y-108078600D02*
X69366380Y-110818600D01*
G04 #@! TO.C,U5*
X156770380Y-65776600D02*
X156770380Y-64126600D01*
X156770380Y-64126600D02*
X136330380Y-64126600D01*
X136330380Y-64126600D02*
X136330380Y-69426600D01*
X136330380Y-69426600D02*
X156770380Y-69426600D01*
X156770380Y-69426600D02*
X156770380Y-67776600D01*
X156770380Y-67776600D02*
G75*
G02*
X156770380Y-65776600I0J1000000D01*
G01*
G04 #@! TO.C,U4*
X108256380Y-77968600D02*
X108256380Y-72508600D01*
X108256380Y-72508600D02*
X57336380Y-72508600D01*
X57336380Y-72508600D02*
X57336380Y-85428600D01*
X57336380Y-85428600D02*
X108256380Y-85428600D01*
X108256380Y-85428600D02*
X108256380Y-79968600D01*
X108256380Y-79968600D02*
G75*
G02*
X108256380Y-77968600I0J1000000D01*
G01*
G04 #@! TO.C,U3*
X156770380Y-91176600D02*
X156770380Y-89526600D01*
X156770380Y-89526600D02*
X136330380Y-89526600D01*
X136330380Y-89526600D02*
X136330380Y-94826600D01*
X136330380Y-94826600D02*
X156770380Y-94826600D01*
X156770380Y-94826600D02*
X156770380Y-93176600D01*
X156770380Y-93176600D02*
G75*
G02*
X156770380Y-91176600I0J1000000D01*
G01*
G04 #@! TO.C,U1*
X156770380Y-78476600D02*
X156770380Y-76826600D01*
X156770380Y-76826600D02*
X138870380Y-76826600D01*
X138870380Y-76826600D02*
X138870380Y-82126600D01*
X138870380Y-82126600D02*
X156770380Y-82126600D01*
X156770380Y-82126600D02*
X156770380Y-80476600D01*
X156770380Y-80476600D02*
G75*
G02*
X156770380Y-78476600I0J1000000D01*
G01*
G04 #@! TO.C,R1*
X117694380Y-82810600D02*
X114954380Y-82810600D01*
X114954380Y-82810600D02*
X114954380Y-89350600D01*
X114954380Y-89350600D02*
X117694380Y-89350600D01*
X117694380Y-89350600D02*
X117694380Y-82810600D01*
X116324380Y-82040600D02*
X116324380Y-82810600D01*
X116324380Y-90120600D02*
X116324380Y-89350600D01*
G04 #@! TO.C,C8*
X130856380Y-112298600D02*
X130856380Y-116838600D01*
X128716380Y-112298600D02*
X128716380Y-116838600D01*
X130856380Y-112298600D02*
X130841380Y-112298600D01*
X128731380Y-112298600D02*
X128716380Y-112298600D01*
X130856380Y-116838600D02*
X130841380Y-116838600D01*
X128731380Y-116838600D02*
X128716380Y-116838600D01*
G04 #@! TO.C,C4*
X159812380Y-91216600D02*
X159812380Y-95756600D01*
X157672380Y-91216600D02*
X157672380Y-95756600D01*
X159812380Y-91216600D02*
X159797380Y-91216600D01*
X157687380Y-91216600D02*
X157672380Y-91216600D01*
X159812380Y-95756600D02*
X159797380Y-95756600D01*
X157687380Y-95756600D02*
X157672380Y-95756600D01*
G04 #@! TO.C,C3*
X159812380Y-78516600D02*
X159812380Y-83056600D01*
X157672380Y-78516600D02*
X157672380Y-83056600D01*
X159812380Y-78516600D02*
X159797380Y-78516600D01*
X157687380Y-78516600D02*
X157672380Y-78516600D01*
X159812380Y-83056600D02*
X159797380Y-83056600D01*
X157687380Y-83056600D02*
X157672380Y-83056600D01*
G04 #@! TO.C,C2*
X78026380Y-88312600D02*
X82566380Y-88312600D01*
X78026380Y-90452600D02*
X82566380Y-90452600D01*
X78026380Y-88312600D02*
X78026380Y-88327600D01*
X78026380Y-90437600D02*
X78026380Y-90452600D01*
X82566380Y-88312600D02*
X82566380Y-88327600D01*
X82566380Y-90437600D02*
X82566380Y-90452600D01*
G04 #@! TO.C,C1*
X159812380Y-65816600D02*
X159812380Y-70356600D01*
X157672380Y-65816600D02*
X157672380Y-70356600D01*
X159812380Y-65816600D02*
X159797380Y-65816600D01*
X157687380Y-65816600D02*
X157672380Y-65816600D01*
X159812380Y-70356600D02*
X159797380Y-70356600D01*
X157687380Y-70356600D02*
X157672380Y-70356600D01*
G04 #@! TO.C,U2*
X127814380Y-115908600D02*
X127814380Y-114258600D01*
X102294380Y-115908600D02*
X127814380Y-115908600D01*
X102294380Y-110608600D02*
X102294380Y-115908600D01*
X127814380Y-110608600D02*
X102294380Y-110608600D01*
X127814380Y-112258600D02*
X127814380Y-110608600D01*
X127814380Y-114258600D02*
G75*
G02*
X127814380Y-112258600I0J1000000D01*
G01*
G04 #@! TO.C,R2*
D11*
X70088760Y-112270980D02*
X69517332Y-112270980D01*
X69803046Y-112270980D02*
X69803046Y-111270980D01*
X69707808Y-111413838D01*
X69612570Y-111509076D01*
X69517332Y-111556695D01*
X70707808Y-111270980D02*
X70803046Y-111270980D01*
X70898284Y-111318600D01*
X70945903Y-111366219D01*
X70993522Y-111461457D01*
X71041141Y-111651933D01*
X71041141Y-111890028D01*
X70993522Y-112080504D01*
X70945903Y-112175742D01*
X70898284Y-112223361D01*
X70803046Y-112270980D01*
X70707808Y-112270980D01*
X70612570Y-112223361D01*
X70564951Y-112175742D01*
X70517332Y-112080504D01*
X70469713Y-111890028D01*
X70469713Y-111651933D01*
X70517332Y-111461457D01*
X70564951Y-111366219D01*
X70612570Y-111318600D01*
X70707808Y-111270980D01*
X71469713Y-112270980D02*
X71469713Y-111270980D01*
X71564951Y-111890028D02*
X71850665Y-112270980D01*
X71850665Y-111604314D02*
X71469713Y-111985266D01*
X73183999Y-112270980D02*
X73088760Y-112223361D01*
X73041141Y-112175742D01*
X72993522Y-112080504D01*
X72993522Y-111794790D01*
X73041141Y-111699552D01*
X73088760Y-111651933D01*
X73183999Y-111604314D01*
X73326856Y-111604314D01*
X73422094Y-111651933D01*
X73469713Y-111699552D01*
X73517332Y-111794790D01*
X73517332Y-112080504D01*
X73469713Y-112175742D01*
X73422094Y-112223361D01*
X73326856Y-112270980D01*
X73183999Y-112270980D01*
X73945903Y-112270980D02*
X73945903Y-111270980D01*
X74374475Y-112270980D02*
X74374475Y-111747171D01*
X74326856Y-111651933D01*
X74231618Y-111604314D01*
X74088760Y-111604314D01*
X73993522Y-111651933D01*
X73945903Y-111699552D01*
X74850665Y-112270980D02*
X74850665Y-111604314D01*
X74850665Y-111699552D02*
X74898284Y-111651933D01*
X74993522Y-111604314D01*
X75136380Y-111604314D01*
X75231618Y-111651933D01*
X75279237Y-111747171D01*
X75279237Y-112270980D01*
X75279237Y-111747171D02*
X75326856Y-111651933D01*
X75422094Y-111604314D01*
X75564951Y-111604314D01*
X75660189Y-111651933D01*
X75707808Y-111747171D01*
X75707808Y-112270980D01*
G04 #@! TO.C,U5*
X135877999Y-63657552D02*
X135877999Y-64324219D01*
X134877999Y-63895647D01*
X135544665Y-65133742D02*
X134877999Y-65133742D01*
X135925618Y-64895647D02*
X135211332Y-64657552D01*
X135211332Y-65276600D01*
X134877999Y-66133742D02*
X134877999Y-65657552D01*
X135877999Y-65657552D01*
X134925618Y-66419457D02*
X134877999Y-66562314D01*
X134877999Y-66800409D01*
X134925618Y-66895647D01*
X134973237Y-66943266D01*
X135068475Y-66990885D01*
X135163713Y-66990885D01*
X135258951Y-66943266D01*
X135306570Y-66895647D01*
X135354189Y-66800409D01*
X135401808Y-66609933D01*
X135449427Y-66514695D01*
X135497046Y-66467076D01*
X135592284Y-66419457D01*
X135687522Y-66419457D01*
X135782760Y-66467076D01*
X135830380Y-66514695D01*
X135877999Y-66609933D01*
X135877999Y-66848028D01*
X135830380Y-66990885D01*
X134877999Y-67943266D02*
X134877999Y-67371838D01*
X134877999Y-67657552D02*
X135877999Y-67657552D01*
X135735141Y-67562314D01*
X135639903Y-67467076D01*
X135592284Y-67371838D01*
X135877999Y-68276600D02*
X135877999Y-68895647D01*
X135497046Y-68562314D01*
X135497046Y-68705171D01*
X135449427Y-68800409D01*
X135401808Y-68848028D01*
X135306570Y-68895647D01*
X135068475Y-68895647D01*
X134973237Y-68848028D01*
X134925618Y-68800409D01*
X134877999Y-68705171D01*
X134877999Y-68419457D01*
X134925618Y-68324219D01*
X134973237Y-68276600D01*
X134877999Y-69371838D02*
X134877999Y-69562314D01*
X134925618Y-69657552D01*
X134973237Y-69705171D01*
X135116094Y-69800409D01*
X135306570Y-69848028D01*
X135687522Y-69848028D01*
X135782760Y-69800409D01*
X135830380Y-69752790D01*
X135877999Y-69657552D01*
X135877999Y-69467076D01*
X135830380Y-69371838D01*
X135782760Y-69324219D01*
X135687522Y-69276600D01*
X135449427Y-69276600D01*
X135354189Y-69324219D01*
X135306570Y-69371838D01*
X135258951Y-69467076D01*
X135258951Y-69657552D01*
X135306570Y-69752790D01*
X135354189Y-69800409D01*
X135449427Y-69848028D01*
G04 #@! TO.C,U4*
X56455427Y-77444790D02*
X56503046Y-77349552D01*
X56550665Y-77301933D01*
X56645903Y-77254314D01*
X56693522Y-77254314D01*
X56788760Y-77301933D01*
X56836380Y-77349552D01*
X56883999Y-77444790D01*
X56883999Y-77635266D01*
X56836380Y-77730504D01*
X56788760Y-77778123D01*
X56693522Y-77825742D01*
X56645903Y-77825742D01*
X56550665Y-77778123D01*
X56503046Y-77730504D01*
X56455427Y-77635266D01*
X56455427Y-77444790D01*
X56407808Y-77349552D01*
X56360189Y-77301933D01*
X56264951Y-77254314D01*
X56074475Y-77254314D01*
X55979237Y-77301933D01*
X55931618Y-77349552D01*
X55883999Y-77444790D01*
X55883999Y-77635266D01*
X55931618Y-77730504D01*
X55979237Y-77778123D01*
X56074475Y-77825742D01*
X56264951Y-77825742D01*
X56360189Y-77778123D01*
X56407808Y-77730504D01*
X56455427Y-77635266D01*
X56788760Y-78206695D02*
X56836380Y-78254314D01*
X56883999Y-78349552D01*
X56883999Y-78587647D01*
X56836380Y-78682885D01*
X56788760Y-78730504D01*
X56693522Y-78778123D01*
X56598284Y-78778123D01*
X56455427Y-78730504D01*
X55883999Y-78159076D01*
X55883999Y-78778123D01*
X56883999Y-79111457D02*
X56883999Y-79730504D01*
X56503046Y-79397171D01*
X56503046Y-79540028D01*
X56455427Y-79635266D01*
X56407808Y-79682885D01*
X56312570Y-79730504D01*
X56074475Y-79730504D01*
X55979237Y-79682885D01*
X55931618Y-79635266D01*
X55883999Y-79540028D01*
X55883999Y-79254314D01*
X55931618Y-79159076D01*
X55979237Y-79111457D01*
X56883999Y-80063838D02*
X56883999Y-80730504D01*
X55883999Y-80301933D01*
G04 #@! TO.C,U3*
X135877999Y-89057552D02*
X135877999Y-89724219D01*
X134877999Y-89295647D01*
X135544665Y-90533742D02*
X134877999Y-90533742D01*
X135925618Y-90295647D02*
X135211332Y-90057552D01*
X135211332Y-90676600D01*
X134877999Y-91533742D02*
X134877999Y-91057552D01*
X135877999Y-91057552D01*
X134925618Y-91819457D02*
X134877999Y-91962314D01*
X134877999Y-92200409D01*
X134925618Y-92295647D01*
X134973237Y-92343266D01*
X135068475Y-92390885D01*
X135163713Y-92390885D01*
X135258951Y-92343266D01*
X135306570Y-92295647D01*
X135354189Y-92200409D01*
X135401808Y-92009933D01*
X135449427Y-91914695D01*
X135497046Y-91867076D01*
X135592284Y-91819457D01*
X135687522Y-91819457D01*
X135782760Y-91867076D01*
X135830380Y-91914695D01*
X135877999Y-92009933D01*
X135877999Y-92248028D01*
X135830380Y-92390885D01*
X135877999Y-93248028D02*
X135877999Y-93057552D01*
X135830380Y-92962314D01*
X135782760Y-92914695D01*
X135639903Y-92819457D01*
X135449427Y-92771838D01*
X135068475Y-92771838D01*
X134973237Y-92819457D01*
X134925618Y-92867076D01*
X134877999Y-92962314D01*
X134877999Y-93152790D01*
X134925618Y-93248028D01*
X134973237Y-93295647D01*
X135068475Y-93343266D01*
X135306570Y-93343266D01*
X135401808Y-93295647D01*
X135449427Y-93248028D01*
X135497046Y-93152790D01*
X135497046Y-92962314D01*
X135449427Y-92867076D01*
X135401808Y-92819457D01*
X135306570Y-92771838D01*
X135877999Y-93676600D02*
X135877999Y-94343266D01*
X134877999Y-93914695D01*
X135877999Y-94914695D02*
X135877999Y-95009933D01*
X135830380Y-95105171D01*
X135782760Y-95152790D01*
X135687522Y-95200409D01*
X135497046Y-95248028D01*
X135258951Y-95248028D01*
X135068475Y-95200409D01*
X134973237Y-95152790D01*
X134925618Y-95105171D01*
X134877999Y-95009933D01*
X134877999Y-94914695D01*
X134925618Y-94819457D01*
X134973237Y-94771838D01*
X135068475Y-94724219D01*
X135258951Y-94676600D01*
X135497046Y-94676600D01*
X135687522Y-94724219D01*
X135782760Y-94771838D01*
X135830380Y-94819457D01*
X135877999Y-94914695D01*
G04 #@! TO.C,U1*
X138417999Y-76833742D02*
X138417999Y-77500409D01*
X137417999Y-77071838D01*
X138084665Y-78309933D02*
X137417999Y-78309933D01*
X138465618Y-78071838D02*
X137751332Y-77833742D01*
X137751332Y-78452790D01*
X137417999Y-79309933D02*
X137417999Y-78833742D01*
X138417999Y-78833742D01*
X137465618Y-79595647D02*
X137417999Y-79738504D01*
X137417999Y-79976600D01*
X137465618Y-80071838D01*
X137513237Y-80119457D01*
X137608475Y-80167076D01*
X137703713Y-80167076D01*
X137798951Y-80119457D01*
X137846570Y-80071838D01*
X137894189Y-79976600D01*
X137941808Y-79786123D01*
X137989427Y-79690885D01*
X138037046Y-79643266D01*
X138132284Y-79595647D01*
X138227522Y-79595647D01*
X138322760Y-79643266D01*
X138370380Y-79690885D01*
X138417999Y-79786123D01*
X138417999Y-80024219D01*
X138370380Y-80167076D01*
X138417999Y-80786123D02*
X138417999Y-80881361D01*
X138370380Y-80976600D01*
X138322760Y-81024219D01*
X138227522Y-81071838D01*
X138037046Y-81119457D01*
X137798951Y-81119457D01*
X137608475Y-81071838D01*
X137513237Y-81024219D01*
X137465618Y-80976600D01*
X137417999Y-80881361D01*
X137417999Y-80786123D01*
X137465618Y-80690885D01*
X137513237Y-80643266D01*
X137608475Y-80595647D01*
X137798951Y-80548028D01*
X138037046Y-80548028D01*
X138227522Y-80595647D01*
X138322760Y-80643266D01*
X138370380Y-80690885D01*
X138417999Y-80786123D01*
X138084665Y-81976600D02*
X137417999Y-81976600D01*
X138465618Y-81738504D02*
X137751332Y-81500409D01*
X137751332Y-82119457D01*
G04 #@! TO.C,R1*
X113501999Y-83532980D02*
X113501999Y-82961552D01*
X113501999Y-83247266D02*
X114501999Y-83247266D01*
X114359141Y-83152028D01*
X114263903Y-83056790D01*
X114216284Y-82961552D01*
X114501999Y-84152028D02*
X114501999Y-84247266D01*
X114454380Y-84342504D01*
X114406760Y-84390123D01*
X114311522Y-84437742D01*
X114121046Y-84485361D01*
X113882951Y-84485361D01*
X113692475Y-84437742D01*
X113597237Y-84390123D01*
X113549618Y-84342504D01*
X113501999Y-84247266D01*
X113501999Y-84152028D01*
X113549618Y-84056790D01*
X113597237Y-84009171D01*
X113692475Y-83961552D01*
X113882951Y-83913933D01*
X114121046Y-83913933D01*
X114311522Y-83961552D01*
X114406760Y-84009171D01*
X114454380Y-84056790D01*
X114501999Y-84152028D01*
X113501999Y-84913933D02*
X114501999Y-84913933D01*
X113882951Y-85009171D02*
X113501999Y-85294885D01*
X114168665Y-85294885D02*
X113787713Y-84913933D01*
X113501999Y-86628219D02*
X113549618Y-86532980D01*
X113597237Y-86485361D01*
X113692475Y-86437742D01*
X113978189Y-86437742D01*
X114073427Y-86485361D01*
X114121046Y-86532980D01*
X114168665Y-86628219D01*
X114168665Y-86771076D01*
X114121046Y-86866314D01*
X114073427Y-86913933D01*
X113978189Y-86961552D01*
X113692475Y-86961552D01*
X113597237Y-86913933D01*
X113549618Y-86866314D01*
X113501999Y-86771076D01*
X113501999Y-86628219D01*
X113501999Y-87390123D02*
X114501999Y-87390123D01*
X113501999Y-87818695D02*
X114025808Y-87818695D01*
X114121046Y-87771076D01*
X114168665Y-87675838D01*
X114168665Y-87532980D01*
X114121046Y-87437742D01*
X114073427Y-87390123D01*
X113501999Y-88294885D02*
X114168665Y-88294885D01*
X114073427Y-88294885D02*
X114121046Y-88342504D01*
X114168665Y-88437742D01*
X114168665Y-88580600D01*
X114121046Y-88675838D01*
X114025808Y-88723457D01*
X113501999Y-88723457D01*
X114025808Y-88723457D02*
X114121046Y-88771076D01*
X114168665Y-88866314D01*
X114168665Y-89009171D01*
X114121046Y-89104409D01*
X114025808Y-89152028D01*
X113501999Y-89152028D01*
G04 #@! TO.C,C8*
X132365999Y-112885742D02*
X132365999Y-112980980D01*
X132318380Y-113076219D01*
X132270760Y-113123838D01*
X132175522Y-113171457D01*
X131985046Y-113219076D01*
X131746951Y-113219076D01*
X131556475Y-113171457D01*
X131461237Y-113123838D01*
X131413618Y-113076219D01*
X131365999Y-112980980D01*
X131365999Y-112885742D01*
X131413618Y-112790504D01*
X131461237Y-112742885D01*
X131556475Y-112695266D01*
X131746951Y-112647647D01*
X131985046Y-112647647D01*
X132175522Y-112695266D01*
X132270760Y-112742885D01*
X132318380Y-112790504D01*
X132365999Y-112885742D01*
X131461237Y-113647647D02*
X131413618Y-113695266D01*
X131365999Y-113647647D01*
X131413618Y-113600028D01*
X131461237Y-113647647D01*
X131365999Y-113647647D01*
X131365999Y-114647647D02*
X131365999Y-114076219D01*
X131365999Y-114361933D02*
X132365999Y-114361933D01*
X132223141Y-114266695D01*
X132127903Y-114171457D01*
X132080284Y-114076219D01*
X132032665Y-115504790D02*
X131365999Y-115504790D01*
X132032665Y-115076219D02*
X131508856Y-115076219D01*
X131413618Y-115123838D01*
X131365999Y-115219076D01*
X131365999Y-115361933D01*
X131413618Y-115457171D01*
X131461237Y-115504790D01*
X131889808Y-116314314D02*
X131889808Y-115980980D01*
X131365999Y-115980980D02*
X132365999Y-115980980D01*
X132365999Y-116457171D01*
G04 #@! TO.C,C4*
X161321999Y-91803742D02*
X161321999Y-91898980D01*
X161274380Y-91994219D01*
X161226760Y-92041838D01*
X161131522Y-92089457D01*
X160941046Y-92137076D01*
X160702951Y-92137076D01*
X160512475Y-92089457D01*
X160417237Y-92041838D01*
X160369618Y-91994219D01*
X160321999Y-91898980D01*
X160321999Y-91803742D01*
X160369618Y-91708504D01*
X160417237Y-91660885D01*
X160512475Y-91613266D01*
X160702951Y-91565647D01*
X160941046Y-91565647D01*
X161131522Y-91613266D01*
X161226760Y-91660885D01*
X161274380Y-91708504D01*
X161321999Y-91803742D01*
X160417237Y-92565647D02*
X160369618Y-92613266D01*
X160321999Y-92565647D01*
X160369618Y-92518028D01*
X160417237Y-92565647D01*
X160321999Y-92565647D01*
X160321999Y-93565647D02*
X160321999Y-92994219D01*
X160321999Y-93279933D02*
X161321999Y-93279933D01*
X161179141Y-93184695D01*
X161083903Y-93089457D01*
X161036284Y-92994219D01*
X160988665Y-94422790D02*
X160321999Y-94422790D01*
X160988665Y-93994219D02*
X160464856Y-93994219D01*
X160369618Y-94041838D01*
X160321999Y-94137076D01*
X160321999Y-94279933D01*
X160369618Y-94375171D01*
X160417237Y-94422790D01*
X160845808Y-95232314D02*
X160845808Y-94898980D01*
X160321999Y-94898980D02*
X161321999Y-94898980D01*
X161321999Y-95375171D01*
G04 #@! TO.C,C3*
X161321999Y-79103742D02*
X161321999Y-79198980D01*
X161274380Y-79294219D01*
X161226760Y-79341838D01*
X161131522Y-79389457D01*
X160941046Y-79437076D01*
X160702951Y-79437076D01*
X160512475Y-79389457D01*
X160417237Y-79341838D01*
X160369618Y-79294219D01*
X160321999Y-79198980D01*
X160321999Y-79103742D01*
X160369618Y-79008504D01*
X160417237Y-78960885D01*
X160512475Y-78913266D01*
X160702951Y-78865647D01*
X160941046Y-78865647D01*
X161131522Y-78913266D01*
X161226760Y-78960885D01*
X161274380Y-79008504D01*
X161321999Y-79103742D01*
X160417237Y-79865647D02*
X160369618Y-79913266D01*
X160321999Y-79865647D01*
X160369618Y-79818028D01*
X160417237Y-79865647D01*
X160321999Y-79865647D01*
X160321999Y-80865647D02*
X160321999Y-80294219D01*
X160321999Y-80579933D02*
X161321999Y-80579933D01*
X161179141Y-80484695D01*
X161083903Y-80389457D01*
X161036284Y-80294219D01*
X160988665Y-81722790D02*
X160321999Y-81722790D01*
X160988665Y-81294219D02*
X160464856Y-81294219D01*
X160369618Y-81341838D01*
X160321999Y-81437076D01*
X160321999Y-81579933D01*
X160369618Y-81675171D01*
X160417237Y-81722790D01*
X160845808Y-82532314D02*
X160845808Y-82198980D01*
X160321999Y-82198980D02*
X161321999Y-82198980D01*
X161321999Y-82675171D01*
G04 #@! TO.C,C2*
X78653522Y-91034980D02*
X78748760Y-91034980D01*
X78843999Y-91082600D01*
X78891618Y-91130219D01*
X78939237Y-91225457D01*
X78986856Y-91415933D01*
X78986856Y-91654028D01*
X78939237Y-91844504D01*
X78891618Y-91939742D01*
X78843999Y-91987361D01*
X78748760Y-92034980D01*
X78653522Y-92034980D01*
X78558284Y-91987361D01*
X78510665Y-91939742D01*
X78463046Y-91844504D01*
X78415427Y-91654028D01*
X78415427Y-91415933D01*
X78463046Y-91225457D01*
X78510665Y-91130219D01*
X78558284Y-91082600D01*
X78653522Y-91034980D01*
X79415427Y-91939742D02*
X79463046Y-91987361D01*
X79415427Y-92034980D01*
X79367808Y-91987361D01*
X79415427Y-91939742D01*
X79415427Y-92034980D01*
X80415427Y-92034980D02*
X79843999Y-92034980D01*
X80129713Y-92034980D02*
X80129713Y-91034980D01*
X80034475Y-91177838D01*
X79939237Y-91273076D01*
X79843999Y-91320695D01*
X81272570Y-91368314D02*
X81272570Y-92034980D01*
X80843999Y-91368314D02*
X80843999Y-91892123D01*
X80891618Y-91987361D01*
X80986856Y-92034980D01*
X81129713Y-92034980D01*
X81224951Y-91987361D01*
X81272570Y-91939742D01*
X82082094Y-91511171D02*
X81748760Y-91511171D01*
X81748760Y-92034980D02*
X81748760Y-91034980D01*
X82224951Y-91034980D01*
G04 #@! TO.C,C1*
X161321999Y-66403742D02*
X161321999Y-66498980D01*
X161274380Y-66594219D01*
X161226760Y-66641838D01*
X161131522Y-66689457D01*
X160941046Y-66737076D01*
X160702951Y-66737076D01*
X160512475Y-66689457D01*
X160417237Y-66641838D01*
X160369618Y-66594219D01*
X160321999Y-66498980D01*
X160321999Y-66403742D01*
X160369618Y-66308504D01*
X160417237Y-66260885D01*
X160512475Y-66213266D01*
X160702951Y-66165647D01*
X160941046Y-66165647D01*
X161131522Y-66213266D01*
X161226760Y-66260885D01*
X161274380Y-66308504D01*
X161321999Y-66403742D01*
X160417237Y-67165647D02*
X160369618Y-67213266D01*
X160321999Y-67165647D01*
X160369618Y-67118028D01*
X160417237Y-67165647D01*
X160321999Y-67165647D01*
X160321999Y-68165647D02*
X160321999Y-67594219D01*
X160321999Y-67879933D02*
X161321999Y-67879933D01*
X161179141Y-67784695D01*
X161083903Y-67689457D01*
X161036284Y-67594219D01*
X160988665Y-69022790D02*
X160321999Y-69022790D01*
X160988665Y-68594219D02*
X160464856Y-68594219D01*
X160369618Y-68641838D01*
X160321999Y-68737076D01*
X160321999Y-68879933D01*
X160369618Y-68975171D01*
X160417237Y-69022790D01*
X160845808Y-69832314D02*
X160845808Y-69498980D01*
X160321999Y-69498980D02*
X161321999Y-69498980D01*
X161321999Y-69975171D01*
G04 #@! TO.C,U2*
X101841999Y-110139552D02*
X101841999Y-110806219D01*
X100841999Y-110377647D01*
X101508665Y-111615742D02*
X100841999Y-111615742D01*
X101889618Y-111377647D02*
X101175332Y-111139552D01*
X101175332Y-111758600D01*
X100841999Y-112615742D02*
X100841999Y-112139552D01*
X101841999Y-112139552D01*
X100889618Y-112901457D02*
X100841999Y-113044314D01*
X100841999Y-113282409D01*
X100889618Y-113377647D01*
X100937237Y-113425266D01*
X101032475Y-113472885D01*
X101127713Y-113472885D01*
X101222951Y-113425266D01*
X101270570Y-113377647D01*
X101318189Y-113282409D01*
X101365808Y-113091933D01*
X101413427Y-112996695D01*
X101461046Y-112949076D01*
X101556284Y-112901457D01*
X101651522Y-112901457D01*
X101746760Y-112949076D01*
X101794380Y-112996695D01*
X101841999Y-113091933D01*
X101841999Y-113330028D01*
X101794380Y-113472885D01*
X101841999Y-114377647D02*
X101841999Y-113901457D01*
X101365808Y-113853838D01*
X101413427Y-113901457D01*
X101461046Y-113996695D01*
X101461046Y-114234790D01*
X101413427Y-114330028D01*
X101365808Y-114377647D01*
X101270570Y-114425266D01*
X101032475Y-114425266D01*
X100937237Y-114377647D01*
X100889618Y-114330028D01*
X100841999Y-114234790D01*
X100841999Y-113996695D01*
X100889618Y-113901457D01*
X100937237Y-113853838D01*
X101841999Y-114758600D02*
X101841999Y-115425266D01*
X100841999Y-114996695D01*
X101841999Y-115710980D02*
X101841999Y-116330028D01*
X101461046Y-115996695D01*
X101461046Y-116139552D01*
X101413427Y-116234790D01*
X101365808Y-116282409D01*
X101270570Y-116330028D01*
X101032475Y-116330028D01*
X100937237Y-116282409D01*
X100889618Y-116234790D01*
X100841999Y-116139552D01*
X100841999Y-115853838D01*
X100889618Y-115758600D01*
X100937237Y-115710980D01*
G04 #@! TO.C,*
G04 #@! TD*
M02*
