M48
; DRILL file {KiCad (5.1.8)-1} date 03/24/22 15:27:31
; FORMAT={-:-/ absolute / inch / decimal}
; #@! TF.CreationDate,2022-03-24T15:27:31-06:00
; #@! TF.GenerationSoftware,Kicad,Pcbnew,(5.1.8)-1
; #@! TF.FileFunction,Plated,1,2,PTH
FMAT,2
INCH
T1C0.0157
T2C0.0315
T3C0.1200
%
G90
G05
T1
X2.2597Y-3.519
X2.3097Y-2.979
X2.3097Y-4.019
X2.4097Y-4.049
X2.4597Y-4.309
X2.4897Y-3.779
X2.5197Y-4.079
X2.5597Y-3.959
X2.6097Y-3.929
X2.6297Y-4.749
X2.6297Y-4.919
X2.6597Y-3.809
X2.7297Y-4.779
X2.7297Y-4.919
X2.7597Y-3.899
X2.8097Y-4.109
X2.8297Y-4.719
X2.8297Y-4.919
X2.8597Y-3.869
X2.8897Y-4.809
X2.9097Y-4.139
X2.9597Y-3.839
X3.0097Y-2.889
X3.0097Y-4.169
X3.1097Y-3.129
X3.1097Y-4.199
X3.1597Y-4.809
X3.2097Y-4.229
X3.2597Y-3.739
X3.2597Y-4.529
X3.2597Y-4.849
X3.3197Y-4.309
X3.3597Y-4.779
X3.3997Y-3.669
X3.3997Y-4.909
X3.4097Y-3.099
X3.4597Y-4.609
X3.4997Y-3.699
X3.4997Y-4.909
X3.5497Y-4.849
X3.5597Y-4.749
X3.5997Y-4.909
X3.6597Y-4.719
X3.6997Y-4.909
X3.7597Y-3.069
X3.7997Y-3.519
X3.7997Y-4.909
X3.8097Y-3.189
X3.8497Y-3.839
X3.8597Y-3.739
X3.8997Y-3.519
X3.8997Y-3.559
X3.8997Y-4.909
X3.9597Y-3.519
X3.9997Y-3.559
X3.9997Y-3.599
X3.9997Y-4.909
X4.0297Y-3.639
X4.0397Y-4.909
X4.0597Y-3.559
X4.0797Y-4.419
X4.0997Y-3.599
X4.1297Y-2.549
X4.1297Y-3.519
X4.1297Y-4.859
X4.1597Y-3.599
X4.1797Y-4.229
X4.1797Y-4.909
X4.1997Y-3.639
X4.2297Y-3.559
X4.2297Y-4.829
X4.2597Y-3.639
X4.2797Y-4.199
X4.2797Y-4.909
X4.3297Y-3.599
X4.3297Y-4.799
X4.3797Y-4.169
X4.3797Y-4.909
X4.4097Y-4.709
X4.4297Y-3.639
X4.4497Y-4.769
X4.4797Y-4.139
X4.4797Y-4.909
X4.5797Y-3.739
X4.5797Y-4.109
X4.5797Y-4.909
X4.6297Y-3.959
X4.6797Y-4.079
X4.6797Y-4.909
X4.7297Y-3.929
X4.7797Y-3.129
X4.7797Y-4.049
X4.7797Y-4.909
X4.8297Y-3.899
X4.8797Y-4.019
X4.8797Y-4.909
X4.9297Y-3.549
X4.9297Y-3.869
X4.9597Y-3.579
X4.9597Y-3.839
X4.9797Y-4.739
X4.9797Y-4.909
X4.9897Y-3.099
X4.9897Y-3.989
X5.0197Y-2.889
X5.0197Y-3.959
X5.0297Y-4.769
X5.0497Y-2.579
X5.0497Y-3.779
X5.0797Y-4.769
X5.0797Y-4.909
X5.1097Y-4.529
X5.1297Y-4.799
X5.1797Y-3.809
X5.1797Y-4.259
X5.1797Y-4.799
X5.1797Y-4.909
X5.2297Y-4.829
X5.2697Y-3.609
X5.2697Y-4.709
X5.2797Y-4.829
X5.2797Y-4.909
X5.3297Y-3.739
X5.3297Y-3.899
X5.3297Y-4.859
X5.3797Y-3.989
X5.3797Y-4.909
X5.3997Y-2.979
X5.3997Y-3.389
X5.4297Y-4.769
X5.4597Y-4.799
X5.4897Y-4.739
X5.5197Y-3.989
X5.5197Y-4.229
X5.5197Y-4.909
X5.5697Y-4.829
X5.6197Y-3.069
X5.6197Y-4.199
X5.6197Y-4.909
X5.6497Y-4.309
X5.6697Y-3.069
X5.7197Y-3.1875
X5.7197Y-3.549
X5.7197Y-4.169
X5.7197Y-4.909
X5.8197Y-3.069
X5.8197Y-3.579
X5.8197Y-3.699
X5.8197Y-4.139
X5.8197Y-4.909
X5.8697Y-4.139
X5.8697Y-4.259
X5.9197Y-2.549
X5.9197Y-3.099
X5.9197Y-4.109
X5.9197Y-4.909
X5.9397Y-3.669
X5.9697Y-4.169
X6.0197Y-2.579
X6.0197Y-3.989
X6.0197Y-4.079
X6.0197Y-4.909
X6.0697Y-4.199
X6.1197Y-2.579
X6.1197Y-4.049
X6.1197Y-4.909
X6.1697Y-3.899
X6.1697Y-4.609
X6.2197Y-4.019
X6.2197Y-4.909
X6.2297Y-3.389
X6.2497Y-3.899
X6.2897Y-3.959
X6.3597Y-3.589
X6.3597Y-4.419
X6.3597Y-4.809
T2
X6.2497Y-3.0821
X6.2497Y-3.279
X6.2497Y-2.5821
X6.2497Y-2.779
X5.5197Y-2.979
X5.5197Y-3.279
X5.6197Y-2.979
X5.6197Y-3.279
X5.7197Y-2.979
X5.7197Y-3.279
X5.8197Y-2.979
X5.8197Y-3.279
X5.9197Y-2.979
X5.9197Y-3.279
X6.0197Y-2.979
X6.0197Y-3.279
X6.1197Y-2.979
X6.1197Y-3.279
X4.5797Y-3.189
X4.5797Y-3.589
X5.4197Y-3.479
X5.4197Y-3.779
X5.5197Y-3.479
X5.5197Y-3.779
X5.6197Y-3.479
X5.6197Y-3.779
X5.7197Y-3.479
X5.7197Y-3.779
X5.8197Y-3.479
X5.8197Y-3.779
X5.9197Y-3.479
X5.9197Y-3.779
X6.0197Y-3.479
X6.0197Y-3.779
X6.1197Y-3.479
X6.1197Y-3.779
X2.3097Y-2.809
X2.3097Y-3.409
X2.4097Y-2.809
X2.4097Y-3.409
X2.5097Y-2.809
X2.5097Y-3.409
X2.6097Y-2.809
X2.6097Y-3.409
X2.7097Y-2.809
X2.7097Y-3.409
X2.8097Y-2.809
X2.8097Y-3.409
X2.9097Y-2.809
X2.9097Y-3.409
X3.0097Y-2.809
X3.0097Y-3.409
X3.1097Y-2.809
X3.1097Y-3.409
X3.2097Y-2.809
X3.2097Y-3.409
X3.3097Y-2.809
X3.3097Y-3.409
X3.4097Y-2.809
X3.4097Y-3.409
X3.5097Y-2.809
X3.5097Y-3.409
X3.6097Y-2.809
X3.6097Y-3.409
X3.7097Y-2.809
X3.7097Y-3.409
X3.8097Y-2.809
X3.8097Y-3.409
X3.9097Y-2.809
X3.9097Y-3.409
X4.0097Y-2.809
X4.0097Y-3.409
X4.1097Y-2.809
X4.1097Y-3.409
X4.2097Y-2.809
X4.2097Y-3.409
X4.7797Y-3.189
X4.7797Y-3.589
X5.4197Y-2.479
X5.4197Y-2.779
X5.5197Y-2.479
X5.5197Y-2.779
X5.6197Y-2.479
X5.6197Y-2.779
X5.7197Y-2.479
X5.7197Y-2.779
X5.8197Y-2.479
X5.8197Y-2.779
X5.9197Y-2.479
X5.9197Y-2.779
X6.0197Y-2.479
X6.0197Y-2.779
X6.1197Y-2.479
X6.1197Y-2.779
X4.0797Y-4.309
X4.0797Y-4.609
X4.1797Y-4.309
X4.1797Y-4.609
X4.2797Y-4.309
X4.2797Y-4.609
X4.3797Y-4.309
X4.3797Y-4.609
X4.4797Y-4.309
X4.4797Y-4.609
X4.5797Y-4.309
X4.5797Y-4.609
X4.6797Y-4.309
X4.6797Y-4.609
X4.7797Y-4.309
X4.7797Y-4.609
X4.8797Y-4.309
X4.8797Y-4.609
X4.9797Y-4.309
X4.9797Y-4.609
X6.2497Y-3.5821
X6.2497Y-3.779
X2.6597Y-4.309
X3.0597Y-4.309
X3.0628Y-3.519
X3.2597Y-3.519
X5.1097Y-4.4121
X5.1097Y-4.609
T3
X7.1497Y-2.559
X7.1497Y-4.809
T0
M30
