M48
; DRILL file {KiCad (5.1.8)-1} date 12/31/22 14:50:22
; FORMAT={-:-/ absolute / inch / decimal}
; #@! TF.CreationDate,2022-12-31T14:50:22-07:00
; #@! TF.GenerationSoftware,Kicad,Pcbnew,(5.1.8)-1
; #@! TF.FileFunction,Plated,1,2,PTH
FMAT,2
INCH
T1C0.0157
T2C0.0315
T3C0.1200
%
G90
G05
T1
X3.4097Y-4.909
X3.4997Y-3.989
X3.5097Y-4.909
X3.5297Y-3.889
X3.5697Y-2.759
X3.5697Y-2.989
X3.6097Y-3.789
X3.6097Y-4.909
X3.7097Y-3.689
X3.7097Y-4.909
X3.7597Y-2.799
X3.7597Y-2.929
X3.7597Y-3.029
X3.7597Y-3.129
X3.7597Y-4.389
X3.8097Y-3.589
X3.8097Y-4.909
X3.8897Y-3.489
X3.9097Y-4.909
X3.9197Y-3.389
X4.0097Y-4.909
X4.1097Y-3.289
X4.1097Y-4.909
X4.1397Y-3.929
X4.1397Y-4.529
X4.2097Y-4.909
X4.2197Y-2.799
X4.2897Y-3.459
X4.3097Y-4.909
X4.3297Y-3.529
X4.4097Y-3.829
X4.4097Y-4.909
X4.5097Y-3.629
X4.5097Y-4.909
X4.6097Y-3.189
X4.6097Y-4.909
X4.7097Y-3.329
X4.7097Y-4.909
X4.7497Y-3.229
X4.8097Y-4.909
X4.9097Y-3.059
X4.9097Y-4.909
X5.0097Y-4.909
X5.1097Y-2.989
X5.1097Y-4.619
X5.1097Y-4.909
X5.1397Y-3.089
X5.1397Y-3.259
X5.2097Y-4.589
X5.2097Y-4.909
X5.2597Y-3.729
X5.3097Y-4.559
X5.3097Y-4.909
X5.3597Y-2.959
X5.3597Y-3.229
X5.3897Y-3.959
X5.3897Y-4.659
X5.4597Y-4.389
X5.4997Y-2.759
X5.4997Y-3.129
X5.5497Y-4.059
X5.6097Y-4.909
X5.6997Y-4.189
X5.7097Y-4.909
X5.7497Y-4.289
X5.8097Y-4.909
X5.8897Y-4.459
X5.9097Y-4.909
X5.9497Y-2.889
X5.9497Y-4.589
X6.0097Y-4.329
X6.0097Y-4.909
X6.1097Y-4.229
X6.1097Y-4.909
X6.1397Y-2.759
X6.2097Y-4.129
X6.2097Y-4.909
X6.3097Y-4.029
X6.3097Y-4.909
X6.3297Y-3.359
X6.3297Y-3.929
X6.3597Y-4.359
X6.5297Y-3.229
X6.5297Y-3.929
X6.5897Y-2.959
X6.5897Y-3.909
X6.6197Y-3.159
X6.6197Y-4.009
X6.6197Y-4.619
X6.6497Y-3.259
X6.6497Y-4.109
X6.6497Y-4.589
X6.6797Y-2.989
X6.6797Y-4.559
X6.8597Y-2.909
X6.8597Y-3.109
X6.8597Y-3.609
X6.8597Y-4.309
X6.8597Y-4.609
X6.9097Y-3.019
X6.9097Y-3.329
X6.9097Y-4.219
X6.9597Y-2.719
X6.9597Y-3.779
X6.9597Y-4.409
X7.0597Y-2.719
T2
X6.8628Y-2.779
X7.0597Y-2.779
X5.8197Y-2.909
X5.8197Y-3.009
X5.8197Y-3.109
X5.8197Y-3.209
X5.8197Y-3.309
X5.8197Y-3.409
X5.8197Y-3.509
X5.8197Y-3.609
X5.8197Y-3.709
X5.8197Y-3.809
X5.8197Y-3.909
X5.8197Y-4.009
X5.8197Y-4.109
X5.8197Y-4.209
X5.8197Y-4.309
X5.8197Y-4.409
X6.4197Y-2.909
X6.4197Y-3.009
X6.4197Y-3.109
X6.4197Y-3.209
X6.4197Y-3.309
X6.4197Y-3.409
X6.4197Y-3.509
X6.4197Y-3.609
X6.4197Y-3.709
X6.4197Y-3.809
X6.4197Y-3.909
X6.4197Y-4.009
X6.4197Y-4.109
X6.4197Y-4.209
X6.4197Y-4.309
X6.4197Y-4.409
X4.2197Y-2.909
X4.2197Y-3.009
X4.2197Y-3.109
X4.2197Y-3.209
X4.2197Y-3.309
X4.2197Y-3.409
X4.2197Y-3.509
X4.2197Y-3.609
X4.2197Y-3.709
X4.2197Y-3.809
X4.2197Y-3.909
X4.2197Y-4.009
X4.2197Y-4.109
X4.2197Y-4.209
X4.2197Y-4.309
X4.2197Y-4.409
X4.8197Y-2.909
X4.8197Y-3.009
X4.8197Y-3.109
X4.8197Y-3.209
X4.8197Y-3.309
X4.8197Y-3.409
X4.8197Y-3.509
X4.8197Y-3.609
X4.8197Y-3.709
X4.8197Y-3.809
X4.8197Y-3.909
X4.8197Y-4.009
X4.8197Y-4.109
X4.8197Y-4.209
X4.8197Y-4.309
X4.8197Y-4.409
X6.7597Y-3.909
X6.7597Y-4.009
X6.7597Y-4.109
X6.7597Y-4.209
X6.7597Y-4.309
X6.7597Y-4.409
X6.7597Y-4.509
X6.7597Y-4.609
X7.0597Y-3.909
X7.0597Y-4.009
X7.0597Y-4.109
X7.0597Y-4.209
X7.0597Y-4.309
X7.0597Y-4.409
X7.0597Y-4.509
X7.0597Y-4.609
X5.4228Y-2.779
X5.6197Y-2.779
X5.0197Y-2.909
X5.0197Y-3.009
X5.0197Y-3.109
X5.0197Y-3.209
X5.0197Y-3.309
X5.0197Y-3.409
X5.0197Y-3.509
X5.0197Y-3.609
X5.0197Y-3.709
X5.0197Y-3.809
X5.0197Y-3.909
X5.0197Y-4.009
X5.0197Y-4.109
X5.0197Y-4.209
X5.0197Y-4.309
X5.0197Y-4.409
X5.6197Y-2.909
X5.6197Y-3.009
X5.6197Y-3.109
X5.6197Y-3.209
X5.6197Y-3.309
X5.6197Y-3.409
X5.6197Y-3.509
X5.6197Y-3.609
X5.6197Y-3.709
X5.6197Y-3.809
X5.6197Y-3.909
X5.6197Y-4.009
X5.6197Y-4.109
X5.6197Y-4.209
X5.6197Y-4.309
X5.6197Y-4.409
X3.4197Y-2.909
X3.4197Y-3.009
X3.4197Y-3.109
X3.4197Y-3.209
X3.4197Y-3.309
X3.4197Y-3.409
X3.4197Y-3.509
X3.4197Y-3.609
X3.4197Y-3.709
X3.4197Y-3.809
X3.4197Y-3.909
X3.4197Y-4.009
X3.4197Y-4.109
X3.4197Y-4.209
X3.4197Y-4.309
X3.4197Y-4.409
X4.0197Y-2.909
X4.0197Y-3.009
X4.0197Y-3.109
X4.0197Y-3.209
X4.0197Y-3.309
X4.0197Y-3.409
X4.0197Y-3.509
X4.0197Y-3.609
X4.0197Y-3.709
X4.0197Y-3.809
X4.0197Y-3.909
X4.0197Y-4.009
X4.0197Y-4.109
X4.0197Y-4.209
X4.0197Y-4.309
X4.0197Y-4.409
X6.7597Y-2.909
X6.7597Y-3.009
X6.7597Y-3.109
X6.7597Y-3.209
X6.7597Y-3.309
X6.7597Y-3.409
X6.7597Y-3.509
X6.7597Y-3.609
X7.0597Y-2.909
X7.0597Y-3.009
X7.0597Y-3.109
X7.0597Y-3.209
X7.0597Y-3.309
X7.0597Y-3.409
X7.0597Y-3.509
X7.0597Y-3.609
X6.8628Y-3.779
X7.0597Y-3.779
X4.6228Y-2.779
X4.8197Y-2.779
X6.2228Y-2.779
X6.4197Y-2.779
X3.8228Y-2.779
X4.0197Y-2.779
T3
X7.1497Y-4.809
X7.1497Y-2.559
T0
M30
