G04 #@! TF.GenerationSoftware,KiCad,Pcbnew,(5.1.8)-1*
G04 #@! TF.CreationDate,2022-11-01T10:43:00-06:00*
G04 #@! TF.ProjectId,64K 640K ISA,36344b20-3634-4304-9b20-4953412e6b69,rev?*
G04 #@! TF.SameCoordinates,Original*
G04 #@! TF.FileFunction,Legend,Top*
G04 #@! TF.FilePolarity,Positive*
%FSLAX46Y46*%
G04 Gerber Fmt 4.6, Leading zero omitted, Abs format (unit mm)*
G04 Created by KiCad (PCBNEW (5.1.8)-1) date 2022-11-01 10:43:00*
%MOMM*%
%LPD*%
G01*
G04 APERTURE LIST*
%ADD10C,0.150000*%
%ADD11C,0.120000*%
G04 APERTURE END LIST*
D10*
X106038475Y-116250980D02*
X106038475Y-115250980D01*
X106371808Y-115965266D01*
X106705141Y-115250980D01*
X106705141Y-116250980D01*
X107181332Y-115727171D02*
X107514665Y-115727171D01*
X107657522Y-116250980D02*
X107181332Y-116250980D01*
X107181332Y-115250980D01*
X107657522Y-115250980D01*
X108086094Y-116250980D02*
X108086094Y-115250980D01*
X108419427Y-115965266D01*
X108752760Y-115250980D01*
X108752760Y-116250980D01*
X109943237Y-115965266D02*
X110419427Y-115965266D01*
X109847999Y-116250980D02*
X110181332Y-115250980D01*
X110514665Y-116250980D01*
X110847999Y-116250980D02*
X110847999Y-115250980D01*
X111086094Y-115250980D01*
X111228951Y-115298600D01*
X111324189Y-115393838D01*
X111371808Y-115489076D01*
X111419427Y-115679552D01*
X111419427Y-115822409D01*
X111371808Y-116012885D01*
X111324189Y-116108123D01*
X111228951Y-116203361D01*
X111086094Y-116250980D01*
X110847999Y-116250980D01*
X111847999Y-116250980D02*
X111847999Y-115250980D01*
X112086094Y-115250980D01*
X112228951Y-115298600D01*
X112324189Y-115393838D01*
X112371808Y-115489076D01*
X112419427Y-115679552D01*
X112419427Y-115822409D01*
X112371808Y-116012885D01*
X112324189Y-116108123D01*
X112228951Y-116203361D01*
X112086094Y-116250980D01*
X111847999Y-116250980D01*
X113419427Y-116250980D02*
X113086094Y-115774790D01*
X112847999Y-116250980D02*
X112847999Y-115250980D01*
X113228951Y-115250980D01*
X113324189Y-115298600D01*
X113371808Y-115346219D01*
X113419427Y-115441457D01*
X113419427Y-115584314D01*
X113371808Y-115679552D01*
X113324189Y-115727171D01*
X113228951Y-115774790D01*
X112847999Y-115774790D01*
X113847999Y-115727171D02*
X114181332Y-115727171D01*
X114324189Y-116250980D02*
X113847999Y-116250980D01*
X113847999Y-115250980D01*
X114324189Y-115250980D01*
X114705141Y-116203361D02*
X114847999Y-116250980D01*
X115086094Y-116250980D01*
X115181332Y-116203361D01*
X115228951Y-116155742D01*
X115276570Y-116060504D01*
X115276570Y-115965266D01*
X115228951Y-115870028D01*
X115181332Y-115822409D01*
X115086094Y-115774790D01*
X114895618Y-115727171D01*
X114800380Y-115679552D01*
X114752760Y-115631933D01*
X114705141Y-115536695D01*
X114705141Y-115441457D01*
X114752760Y-115346219D01*
X114800380Y-115298600D01*
X114895618Y-115250980D01*
X115133713Y-115250980D01*
X115276570Y-115298600D01*
X115657522Y-116203361D02*
X115800380Y-116250980D01*
X116038475Y-116250980D01*
X116133713Y-116203361D01*
X116181332Y-116155742D01*
X116228951Y-116060504D01*
X116228951Y-115965266D01*
X116181332Y-115870028D01*
X116133713Y-115822409D01*
X116038475Y-115774790D01*
X115847999Y-115727171D01*
X115752760Y-115679552D01*
X115705141Y-115631933D01*
X115657522Y-115536695D01*
X115657522Y-115441457D01*
X115705141Y-115346219D01*
X115752760Y-115298600D01*
X115847999Y-115250980D01*
X116086094Y-115250980D01*
X116228951Y-115298600D01*
X117609903Y-115250980D02*
X117705141Y-115250980D01*
X117800380Y-115298600D01*
X117847999Y-115346219D01*
X117895618Y-115441457D01*
X117943237Y-115631933D01*
X117943237Y-115870028D01*
X117895618Y-116060504D01*
X117847999Y-116155742D01*
X117800380Y-116203361D01*
X117705141Y-116250980D01*
X117609903Y-116250980D01*
X117514665Y-116203361D01*
X117467046Y-116155742D01*
X117419427Y-116060504D01*
X117371808Y-115870028D01*
X117371808Y-115631933D01*
X117419427Y-115441457D01*
X117467046Y-115346219D01*
X117514665Y-115298600D01*
X117609903Y-115250980D01*
X118276570Y-115250980D02*
X118943237Y-116250980D01*
X118943237Y-115250980D02*
X118276570Y-116250980D01*
X119324189Y-115727171D02*
X119657522Y-115727171D01*
X119800380Y-116250980D02*
X119324189Y-116250980D01*
X119324189Y-115250980D01*
X119800380Y-115250980D01*
X120419427Y-115250980D02*
X120514665Y-115250980D01*
X120609903Y-115298600D01*
X120657522Y-115346219D01*
X120705141Y-115441457D01*
X120752760Y-115631933D01*
X120752760Y-115870028D01*
X120705141Y-116060504D01*
X120657522Y-116155742D01*
X120609903Y-116203361D01*
X120514665Y-116250980D01*
X120419427Y-116250980D01*
X120324189Y-116203361D01*
X120276570Y-116155742D01*
X120228951Y-116060504D01*
X120181332Y-115870028D01*
X120181332Y-115631933D01*
X120228951Y-115441457D01*
X120276570Y-115346219D01*
X120324189Y-115298600D01*
X120419427Y-115250980D01*
X121371808Y-115250980D02*
X121467046Y-115250980D01*
X121562284Y-115298600D01*
X121609903Y-115346219D01*
X121657522Y-115441457D01*
X121705141Y-115631933D01*
X121705141Y-115870028D01*
X121657522Y-116060504D01*
X121609903Y-116155742D01*
X121562284Y-116203361D01*
X121467046Y-116250980D01*
X121371808Y-116250980D01*
X121276570Y-116203361D01*
X121228951Y-116155742D01*
X121181332Y-116060504D01*
X121133713Y-115870028D01*
X121133713Y-115631933D01*
X121181332Y-115441457D01*
X121228951Y-115346219D01*
X121276570Y-115298600D01*
X121371808Y-115250980D01*
X122324189Y-115250980D02*
X122419427Y-115250980D01*
X122514665Y-115298600D01*
X122562284Y-115346219D01*
X122609903Y-115441457D01*
X122657522Y-115631933D01*
X122657522Y-115870028D01*
X122609903Y-116060504D01*
X122562284Y-116155742D01*
X122514665Y-116203361D01*
X122419427Y-116250980D01*
X122324189Y-116250980D01*
X122228951Y-116203361D01*
X122181332Y-116155742D01*
X122133713Y-116060504D01*
X122086094Y-115870028D01*
X122086094Y-115631933D01*
X122133713Y-115441457D01*
X122181332Y-115346219D01*
X122228951Y-115298600D01*
X122324189Y-115250980D01*
X123276570Y-115250980D02*
X123371808Y-115250980D01*
X123467046Y-115298600D01*
X123514665Y-115346219D01*
X123562284Y-115441457D01*
X123609903Y-115631933D01*
X123609903Y-115870028D01*
X123562284Y-116060504D01*
X123514665Y-116155742D01*
X123467046Y-116203361D01*
X123371808Y-116250980D01*
X123276570Y-116250980D01*
X123181332Y-116203361D01*
X123133713Y-116155742D01*
X123086094Y-116060504D01*
X123038475Y-115870028D01*
X123038475Y-115631933D01*
X123086094Y-115441457D01*
X123133713Y-115346219D01*
X123181332Y-115298600D01*
X123276570Y-115250980D01*
X126334665Y-116504980D02*
X126334665Y-115504980D01*
X126667999Y-116219266D01*
X127001332Y-115504980D01*
X127001332Y-116504980D01*
X127477522Y-115981171D02*
X127810856Y-115981171D01*
X127953713Y-116504980D02*
X127477522Y-116504980D01*
X127477522Y-115504980D01*
X127953713Y-115504980D01*
X128382284Y-116504980D02*
X128382284Y-115504980D01*
X128715618Y-116219266D01*
X129048951Y-115504980D01*
X129048951Y-116504980D01*
X130239427Y-116219266D02*
X130715618Y-116219266D01*
X130144189Y-116504980D02*
X130477522Y-115504980D01*
X130810856Y-116504980D01*
X131144189Y-116504980D02*
X131144189Y-115504980D01*
X131382284Y-115504980D01*
X131525141Y-115552600D01*
X131620380Y-115647838D01*
X131667999Y-115743076D01*
X131715618Y-115933552D01*
X131715618Y-116076409D01*
X131667999Y-116266885D01*
X131620380Y-116362123D01*
X131525141Y-116457361D01*
X131382284Y-116504980D01*
X131144189Y-116504980D01*
X132144189Y-116504980D02*
X132144189Y-115504980D01*
X132382284Y-115504980D01*
X132525141Y-115552600D01*
X132620380Y-115647838D01*
X132667999Y-115743076D01*
X132715618Y-115933552D01*
X132715618Y-116076409D01*
X132667999Y-116266885D01*
X132620380Y-116362123D01*
X132525141Y-116457361D01*
X132382284Y-116504980D01*
X132144189Y-116504980D01*
X133715618Y-116504980D02*
X133382284Y-116028790D01*
X133144189Y-116504980D02*
X133144189Y-115504980D01*
X133525141Y-115504980D01*
X133620380Y-115552600D01*
X133667999Y-115600219D01*
X133715618Y-115695457D01*
X133715618Y-115838314D01*
X133667999Y-115933552D01*
X133620380Y-115981171D01*
X133525141Y-116028790D01*
X133144189Y-116028790D01*
X134144189Y-115981171D02*
X134477522Y-115981171D01*
X134620380Y-116504980D02*
X134144189Y-116504980D01*
X134144189Y-115504980D01*
X134620380Y-115504980D01*
X135001332Y-116457361D02*
X135144189Y-116504980D01*
X135382284Y-116504980D01*
X135477522Y-116457361D01*
X135525141Y-116409742D01*
X135572760Y-116314504D01*
X135572760Y-116219266D01*
X135525141Y-116124028D01*
X135477522Y-116076409D01*
X135382284Y-116028790D01*
X135191808Y-115981171D01*
X135096570Y-115933552D01*
X135048951Y-115885933D01*
X135001332Y-115790695D01*
X135001332Y-115695457D01*
X135048951Y-115600219D01*
X135096570Y-115552600D01*
X135191808Y-115504980D01*
X135429903Y-115504980D01*
X135572760Y-115552600D01*
X135953713Y-116457361D02*
X136096570Y-116504980D01*
X136334665Y-116504980D01*
X136429903Y-116457361D01*
X136477522Y-116409742D01*
X136525141Y-116314504D01*
X136525141Y-116219266D01*
X136477522Y-116124028D01*
X136429903Y-116076409D01*
X136334665Y-116028790D01*
X136144189Y-115981171D01*
X136048951Y-115933552D01*
X136001332Y-115885933D01*
X135953713Y-115790695D01*
X135953713Y-115695457D01*
X136001332Y-115600219D01*
X136048951Y-115552600D01*
X136144189Y-115504980D01*
X136382284Y-115504980D01*
X136525141Y-115552600D01*
X137906094Y-115504980D02*
X138001332Y-115504980D01*
X138096570Y-115552600D01*
X138144189Y-115600219D01*
X138191808Y-115695457D01*
X138239427Y-115885933D01*
X138239427Y-116124028D01*
X138191808Y-116314504D01*
X138144189Y-116409742D01*
X138096570Y-116457361D01*
X138001332Y-116504980D01*
X137906094Y-116504980D01*
X137810856Y-116457361D01*
X137763237Y-116409742D01*
X137715618Y-116314504D01*
X137667999Y-116124028D01*
X137667999Y-115885933D01*
X137715618Y-115695457D01*
X137763237Y-115600219D01*
X137810856Y-115552600D01*
X137906094Y-115504980D01*
X138572760Y-115504980D02*
X139239427Y-116504980D01*
X139239427Y-115504980D02*
X138572760Y-116504980D01*
X139763237Y-115933552D02*
X139667999Y-115885933D01*
X139620380Y-115838314D01*
X139572760Y-115743076D01*
X139572760Y-115695457D01*
X139620380Y-115600219D01*
X139667999Y-115552600D01*
X139763237Y-115504980D01*
X139953713Y-115504980D01*
X140048951Y-115552600D01*
X140096570Y-115600219D01*
X140144189Y-115695457D01*
X140144189Y-115743076D01*
X140096570Y-115838314D01*
X140048951Y-115885933D01*
X139953713Y-115933552D01*
X139763237Y-115933552D01*
X139667999Y-115981171D01*
X139620380Y-116028790D01*
X139572760Y-116124028D01*
X139572760Y-116314504D01*
X139620380Y-116409742D01*
X139667999Y-116457361D01*
X139763237Y-116504980D01*
X139953713Y-116504980D01*
X140048951Y-116457361D01*
X140096570Y-116409742D01*
X140144189Y-116314504D01*
X140144189Y-116124028D01*
X140096570Y-116028790D01*
X140048951Y-115981171D01*
X139953713Y-115933552D01*
X140763237Y-115504980D02*
X140858475Y-115504980D01*
X140953713Y-115552600D01*
X141001332Y-115600219D01*
X141048951Y-115695457D01*
X141096570Y-115885933D01*
X141096570Y-116124028D01*
X141048951Y-116314504D01*
X141001332Y-116409742D01*
X140953713Y-116457361D01*
X140858475Y-116504980D01*
X140763237Y-116504980D01*
X140667999Y-116457361D01*
X140620380Y-116409742D01*
X140572760Y-116314504D01*
X140525141Y-116124028D01*
X140525141Y-115885933D01*
X140572760Y-115695457D01*
X140620380Y-115600219D01*
X140667999Y-115552600D01*
X140763237Y-115504980D01*
X141715618Y-115504980D02*
X141810856Y-115504980D01*
X141906094Y-115552600D01*
X141953713Y-115600219D01*
X142001332Y-115695457D01*
X142048951Y-115885933D01*
X142048951Y-116124028D01*
X142001332Y-116314504D01*
X141953713Y-116409742D01*
X141906094Y-116457361D01*
X141810856Y-116504980D01*
X141715618Y-116504980D01*
X141620380Y-116457361D01*
X141572760Y-116409742D01*
X141525141Y-116314504D01*
X141477522Y-116124028D01*
X141477522Y-115885933D01*
X141525141Y-115695457D01*
X141572760Y-115600219D01*
X141620380Y-115552600D01*
X141715618Y-115504980D01*
X142667999Y-115504980D02*
X142763237Y-115504980D01*
X142858475Y-115552600D01*
X142906094Y-115600219D01*
X142953713Y-115695457D01*
X143001332Y-115885933D01*
X143001332Y-116124028D01*
X142953713Y-116314504D01*
X142906094Y-116409742D01*
X142858475Y-116457361D01*
X142763237Y-116504980D01*
X142667999Y-116504980D01*
X142572760Y-116457361D01*
X142525141Y-116409742D01*
X142477522Y-116314504D01*
X142429903Y-116124028D01*
X142429903Y-115885933D01*
X142477522Y-115695457D01*
X142525141Y-115600219D01*
X142572760Y-115552600D01*
X142667999Y-115504980D01*
X143620380Y-115504980D02*
X143715618Y-115504980D01*
X143810856Y-115552600D01*
X143858475Y-115600219D01*
X143906094Y-115695457D01*
X143953713Y-115885933D01*
X143953713Y-116124028D01*
X143906094Y-116314504D01*
X143858475Y-116409742D01*
X143810856Y-116457361D01*
X143715618Y-116504980D01*
X143620380Y-116504980D01*
X143525141Y-116457361D01*
X143477522Y-116409742D01*
X143429903Y-116314504D01*
X143382284Y-116124028D01*
X143382284Y-115885933D01*
X143429903Y-115695457D01*
X143477522Y-115600219D01*
X143525141Y-115552600D01*
X143620380Y-115504980D01*
X146654665Y-116504980D02*
X146654665Y-115504980D01*
X146987999Y-116219266D01*
X147321332Y-115504980D01*
X147321332Y-116504980D01*
X147797522Y-115981171D02*
X148130856Y-115981171D01*
X148273713Y-116504980D02*
X147797522Y-116504980D01*
X147797522Y-115504980D01*
X148273713Y-115504980D01*
X148702284Y-116504980D02*
X148702284Y-115504980D01*
X149035618Y-116219266D01*
X149368951Y-115504980D01*
X149368951Y-116504980D01*
X150559427Y-116219266D02*
X151035618Y-116219266D01*
X150464189Y-116504980D02*
X150797522Y-115504980D01*
X151130856Y-116504980D01*
X151464189Y-116504980D02*
X151464189Y-115504980D01*
X151702284Y-115504980D01*
X151845141Y-115552600D01*
X151940380Y-115647838D01*
X151987999Y-115743076D01*
X152035618Y-115933552D01*
X152035618Y-116076409D01*
X151987999Y-116266885D01*
X151940380Y-116362123D01*
X151845141Y-116457361D01*
X151702284Y-116504980D01*
X151464189Y-116504980D01*
X152464189Y-116504980D02*
X152464189Y-115504980D01*
X152702284Y-115504980D01*
X152845141Y-115552600D01*
X152940380Y-115647838D01*
X152987999Y-115743076D01*
X153035618Y-115933552D01*
X153035618Y-116076409D01*
X152987999Y-116266885D01*
X152940380Y-116362123D01*
X152845141Y-116457361D01*
X152702284Y-116504980D01*
X152464189Y-116504980D01*
X154035618Y-116504980D02*
X153702284Y-116028790D01*
X153464189Y-116504980D02*
X153464189Y-115504980D01*
X153845141Y-115504980D01*
X153940380Y-115552600D01*
X153987999Y-115600219D01*
X154035618Y-115695457D01*
X154035618Y-115838314D01*
X153987999Y-115933552D01*
X153940380Y-115981171D01*
X153845141Y-116028790D01*
X153464189Y-116028790D01*
X154464189Y-115981171D02*
X154797522Y-115981171D01*
X154940380Y-116504980D02*
X154464189Y-116504980D01*
X154464189Y-115504980D01*
X154940380Y-115504980D01*
X155321332Y-116457361D02*
X155464189Y-116504980D01*
X155702284Y-116504980D01*
X155797522Y-116457361D01*
X155845141Y-116409742D01*
X155892760Y-116314504D01*
X155892760Y-116219266D01*
X155845141Y-116124028D01*
X155797522Y-116076409D01*
X155702284Y-116028790D01*
X155511808Y-115981171D01*
X155416570Y-115933552D01*
X155368951Y-115885933D01*
X155321332Y-115790695D01*
X155321332Y-115695457D01*
X155368951Y-115600219D01*
X155416570Y-115552600D01*
X155511808Y-115504980D01*
X155749903Y-115504980D01*
X155892760Y-115552600D01*
X156273713Y-116457361D02*
X156416570Y-116504980D01*
X156654665Y-116504980D01*
X156749903Y-116457361D01*
X156797522Y-116409742D01*
X156845141Y-116314504D01*
X156845141Y-116219266D01*
X156797522Y-116124028D01*
X156749903Y-116076409D01*
X156654665Y-116028790D01*
X156464189Y-115981171D01*
X156368951Y-115933552D01*
X156321332Y-115885933D01*
X156273713Y-115790695D01*
X156273713Y-115695457D01*
X156321332Y-115600219D01*
X156368951Y-115552600D01*
X156464189Y-115504980D01*
X156702284Y-115504980D01*
X156845141Y-115552600D01*
X158226094Y-115504980D02*
X158321332Y-115504980D01*
X158416570Y-115552600D01*
X158464189Y-115600219D01*
X158511808Y-115695457D01*
X158559427Y-115885933D01*
X158559427Y-116124028D01*
X158511808Y-116314504D01*
X158464189Y-116409742D01*
X158416570Y-116457361D01*
X158321332Y-116504980D01*
X158226094Y-116504980D01*
X158130856Y-116457361D01*
X158083237Y-116409742D01*
X158035618Y-116314504D01*
X157987999Y-116124028D01*
X157987999Y-115885933D01*
X158035618Y-115695457D01*
X158083237Y-115600219D01*
X158130856Y-115552600D01*
X158226094Y-115504980D01*
X158892760Y-115504980D02*
X159559427Y-116504980D01*
X159559427Y-115504980D02*
X158892760Y-116504980D01*
X160130856Y-115504980D02*
X160226094Y-115504980D01*
X160321332Y-115552600D01*
X160368951Y-115600219D01*
X160416570Y-115695457D01*
X160464189Y-115885933D01*
X160464189Y-116124028D01*
X160416570Y-116314504D01*
X160368951Y-116409742D01*
X160321332Y-116457361D01*
X160226094Y-116504980D01*
X160130856Y-116504980D01*
X160035618Y-116457361D01*
X159987999Y-116409742D01*
X159940380Y-116314504D01*
X159892760Y-116124028D01*
X159892760Y-115885933D01*
X159940380Y-115695457D01*
X159987999Y-115600219D01*
X160035618Y-115552600D01*
X160130856Y-115504980D01*
X161083237Y-115504980D02*
X161178475Y-115504980D01*
X161273713Y-115552600D01*
X161321332Y-115600219D01*
X161368951Y-115695457D01*
X161416570Y-115885933D01*
X161416570Y-116124028D01*
X161368951Y-116314504D01*
X161321332Y-116409742D01*
X161273713Y-116457361D01*
X161178475Y-116504980D01*
X161083237Y-116504980D01*
X160987999Y-116457361D01*
X160940380Y-116409742D01*
X160892760Y-116314504D01*
X160845141Y-116124028D01*
X160845141Y-115885933D01*
X160892760Y-115695457D01*
X160940380Y-115600219D01*
X160987999Y-115552600D01*
X161083237Y-115504980D01*
X162035618Y-115504980D02*
X162130856Y-115504980D01*
X162226094Y-115552600D01*
X162273713Y-115600219D01*
X162321332Y-115695457D01*
X162368951Y-115885933D01*
X162368951Y-116124028D01*
X162321332Y-116314504D01*
X162273713Y-116409742D01*
X162226094Y-116457361D01*
X162130856Y-116504980D01*
X162035618Y-116504980D01*
X161940380Y-116457361D01*
X161892760Y-116409742D01*
X161845141Y-116314504D01*
X161797522Y-116124028D01*
X161797522Y-115885933D01*
X161845141Y-115695457D01*
X161892760Y-115600219D01*
X161940380Y-115552600D01*
X162035618Y-115504980D01*
X162987999Y-115504980D02*
X163083237Y-115504980D01*
X163178475Y-115552600D01*
X163226094Y-115600219D01*
X163273713Y-115695457D01*
X163321332Y-115885933D01*
X163321332Y-116124028D01*
X163273713Y-116314504D01*
X163226094Y-116409742D01*
X163178475Y-116457361D01*
X163083237Y-116504980D01*
X162987999Y-116504980D01*
X162892760Y-116457361D01*
X162845141Y-116409742D01*
X162797522Y-116314504D01*
X162749903Y-116124028D01*
X162749903Y-115885933D01*
X162797522Y-115695457D01*
X162845141Y-115600219D01*
X162892760Y-115552600D01*
X162987999Y-115504980D01*
X163940380Y-115504980D02*
X164035618Y-115504980D01*
X164130856Y-115552600D01*
X164178475Y-115600219D01*
X164226094Y-115695457D01*
X164273713Y-115885933D01*
X164273713Y-116124028D01*
X164226094Y-116314504D01*
X164178475Y-116409742D01*
X164130856Y-116457361D01*
X164035618Y-116504980D01*
X163940380Y-116504980D01*
X163845141Y-116457361D01*
X163797522Y-116409742D01*
X163749903Y-116314504D01*
X163702284Y-116124028D01*
X163702284Y-115885933D01*
X163749903Y-115695457D01*
X163797522Y-115600219D01*
X163845141Y-115552600D01*
X163940380Y-115504980D01*
X85996284Y-116250980D02*
X85996284Y-115250980D01*
X86329618Y-115965266D01*
X86662951Y-115250980D01*
X86662951Y-116250980D01*
X87139141Y-115727171D02*
X87472475Y-115727171D01*
X87615332Y-116250980D02*
X87139141Y-116250980D01*
X87139141Y-115250980D01*
X87615332Y-115250980D01*
X88043903Y-116250980D02*
X88043903Y-115250980D01*
X88377237Y-115965266D01*
X88710570Y-115250980D01*
X88710570Y-116250980D01*
X89901046Y-115965266D02*
X90377237Y-115965266D01*
X89805808Y-116250980D02*
X90139141Y-115250980D01*
X90472475Y-116250980D01*
X90805808Y-116250980D02*
X90805808Y-115250980D01*
X91043903Y-115250980D01*
X91186760Y-115298600D01*
X91281999Y-115393838D01*
X91329618Y-115489076D01*
X91377237Y-115679552D01*
X91377237Y-115822409D01*
X91329618Y-116012885D01*
X91281999Y-116108123D01*
X91186760Y-116203361D01*
X91043903Y-116250980D01*
X90805808Y-116250980D01*
X91805808Y-116250980D02*
X91805808Y-115250980D01*
X92043903Y-115250980D01*
X92186760Y-115298600D01*
X92281999Y-115393838D01*
X92329618Y-115489076D01*
X92377237Y-115679552D01*
X92377237Y-115822409D01*
X92329618Y-116012885D01*
X92281999Y-116108123D01*
X92186760Y-116203361D01*
X92043903Y-116250980D01*
X91805808Y-116250980D01*
X93377237Y-116250980D02*
X93043903Y-115774790D01*
X92805808Y-116250980D02*
X92805808Y-115250980D01*
X93186760Y-115250980D01*
X93281999Y-115298600D01*
X93329618Y-115346219D01*
X93377237Y-115441457D01*
X93377237Y-115584314D01*
X93329618Y-115679552D01*
X93281999Y-115727171D01*
X93186760Y-115774790D01*
X92805808Y-115774790D01*
X93805808Y-115727171D02*
X94139141Y-115727171D01*
X94281999Y-116250980D02*
X93805808Y-116250980D01*
X93805808Y-115250980D01*
X94281999Y-115250980D01*
X94662951Y-116203361D02*
X94805808Y-116250980D01*
X95043903Y-116250980D01*
X95139141Y-116203361D01*
X95186760Y-116155742D01*
X95234380Y-116060504D01*
X95234380Y-115965266D01*
X95186760Y-115870028D01*
X95139141Y-115822409D01*
X95043903Y-115774790D01*
X94853427Y-115727171D01*
X94758189Y-115679552D01*
X94710570Y-115631933D01*
X94662951Y-115536695D01*
X94662951Y-115441457D01*
X94710570Y-115346219D01*
X94758189Y-115298600D01*
X94853427Y-115250980D01*
X95091522Y-115250980D01*
X95234380Y-115298600D01*
X95615332Y-116203361D02*
X95758189Y-116250980D01*
X95996284Y-116250980D01*
X96091522Y-116203361D01*
X96139141Y-116155742D01*
X96186760Y-116060504D01*
X96186760Y-115965266D01*
X96139141Y-115870028D01*
X96091522Y-115822409D01*
X95996284Y-115774790D01*
X95805808Y-115727171D01*
X95710570Y-115679552D01*
X95662951Y-115631933D01*
X95615332Y-115536695D01*
X95615332Y-115441457D01*
X95662951Y-115346219D01*
X95710570Y-115298600D01*
X95805808Y-115250980D01*
X96043903Y-115250980D01*
X96186760Y-115298600D01*
X97567713Y-115250980D02*
X97662951Y-115250980D01*
X97758189Y-115298600D01*
X97805808Y-115346219D01*
X97853427Y-115441457D01*
X97901046Y-115631933D01*
X97901046Y-115870028D01*
X97853427Y-116060504D01*
X97805808Y-116155742D01*
X97758189Y-116203361D01*
X97662951Y-116250980D01*
X97567713Y-116250980D01*
X97472475Y-116203361D01*
X97424856Y-116155742D01*
X97377237Y-116060504D01*
X97329618Y-115870028D01*
X97329618Y-115631933D01*
X97377237Y-115441457D01*
X97424856Y-115346219D01*
X97472475Y-115298600D01*
X97567713Y-115250980D01*
X98234380Y-115250980D02*
X98901046Y-116250980D01*
X98901046Y-115250980D02*
X98234380Y-116250980D01*
X99615332Y-115727171D02*
X99281999Y-115727171D01*
X99281999Y-116250980D02*
X99281999Y-115250980D01*
X99758189Y-115250980D01*
X100329618Y-115250980D02*
X100424856Y-115250980D01*
X100520094Y-115298600D01*
X100567713Y-115346219D01*
X100615332Y-115441457D01*
X100662951Y-115631933D01*
X100662951Y-115870028D01*
X100615332Y-116060504D01*
X100567713Y-116155742D01*
X100520094Y-116203361D01*
X100424856Y-116250980D01*
X100329618Y-116250980D01*
X100234380Y-116203361D01*
X100186760Y-116155742D01*
X100139141Y-116060504D01*
X100091522Y-115870028D01*
X100091522Y-115631933D01*
X100139141Y-115441457D01*
X100186760Y-115346219D01*
X100234380Y-115298600D01*
X100329618Y-115250980D01*
X101281999Y-115250980D02*
X101377237Y-115250980D01*
X101472475Y-115298600D01*
X101520094Y-115346219D01*
X101567713Y-115441457D01*
X101615332Y-115631933D01*
X101615332Y-115870028D01*
X101567713Y-116060504D01*
X101520094Y-116155742D01*
X101472475Y-116203361D01*
X101377237Y-116250980D01*
X101281999Y-116250980D01*
X101186760Y-116203361D01*
X101139141Y-116155742D01*
X101091522Y-116060504D01*
X101043903Y-115870028D01*
X101043903Y-115631933D01*
X101091522Y-115441457D01*
X101139141Y-115346219D01*
X101186760Y-115298600D01*
X101281999Y-115250980D01*
X102234380Y-115250980D02*
X102329618Y-115250980D01*
X102424856Y-115298600D01*
X102472475Y-115346219D01*
X102520094Y-115441457D01*
X102567713Y-115631933D01*
X102567713Y-115870028D01*
X102520094Y-116060504D01*
X102472475Y-116155742D01*
X102424856Y-116203361D01*
X102329618Y-116250980D01*
X102234380Y-116250980D01*
X102139141Y-116203361D01*
X102091522Y-116155742D01*
X102043903Y-116060504D01*
X101996284Y-115870028D01*
X101996284Y-115631933D01*
X102043903Y-115441457D01*
X102091522Y-115346219D01*
X102139141Y-115298600D01*
X102234380Y-115250980D01*
X103186760Y-115250980D02*
X103281999Y-115250980D01*
X103377237Y-115298600D01*
X103424856Y-115346219D01*
X103472475Y-115441457D01*
X103520094Y-115631933D01*
X103520094Y-115870028D01*
X103472475Y-116060504D01*
X103424856Y-116155742D01*
X103377237Y-116203361D01*
X103281999Y-116250980D01*
X103186760Y-116250980D01*
X103091522Y-116203361D01*
X103043903Y-116155742D01*
X102996284Y-116060504D01*
X102948665Y-115870028D01*
X102948665Y-115631933D01*
X102996284Y-115441457D01*
X103043903Y-115346219D01*
X103091522Y-115298600D01*
X103186760Y-115250980D01*
X83385975Y-60674171D02*
X83719308Y-60674171D01*
X83862165Y-61197980D02*
X83385975Y-61197980D01*
X83385975Y-60197980D01*
X83862165Y-60197980D01*
X84290737Y-61197980D02*
X84290737Y-60197980D01*
X84624070Y-60912266D01*
X84957403Y-60197980D01*
X84957403Y-61197980D01*
X85433594Y-61197980D02*
X85433594Y-60197980D01*
X85766927Y-60912266D01*
X86100260Y-60197980D01*
X86100260Y-61197980D01*
X87909784Y-61102742D02*
X87862165Y-61150361D01*
X87719308Y-61197980D01*
X87624070Y-61197980D01*
X87481213Y-61150361D01*
X87385975Y-61055123D01*
X87338356Y-60959885D01*
X87290737Y-60769409D01*
X87290737Y-60626552D01*
X87338356Y-60436076D01*
X87385975Y-60340838D01*
X87481213Y-60245600D01*
X87624070Y-60197980D01*
X87719308Y-60197980D01*
X87862165Y-60245600D01*
X87909784Y-60293219D01*
X88528832Y-60197980D02*
X88719308Y-60197980D01*
X88814546Y-60245600D01*
X88909784Y-60340838D01*
X88957403Y-60531314D01*
X88957403Y-60864647D01*
X88909784Y-61055123D01*
X88814546Y-61150361D01*
X88719308Y-61197980D01*
X88528832Y-61197980D01*
X88433594Y-61150361D01*
X88338356Y-61055123D01*
X88290737Y-60864647D01*
X88290737Y-60531314D01*
X88338356Y-60340838D01*
X88433594Y-60245600D01*
X88528832Y-60197980D01*
X89385975Y-61197980D02*
X89385975Y-60197980D01*
X89719308Y-60912266D01*
X90052641Y-60197980D01*
X90052641Y-61197980D01*
X90528832Y-61197980D02*
X90528832Y-60197980D01*
X90909784Y-60197980D01*
X91005022Y-60245600D01*
X91052641Y-60293219D01*
X91100260Y-60388457D01*
X91100260Y-60531314D01*
X91052641Y-60626552D01*
X91005022Y-60674171D01*
X90909784Y-60721790D01*
X90528832Y-60721790D01*
X91528832Y-60197980D02*
X91528832Y-61007504D01*
X91576451Y-61102742D01*
X91624070Y-61150361D01*
X91719308Y-61197980D01*
X91909784Y-61197980D01*
X92005022Y-61150361D01*
X92052641Y-61102742D01*
X92100260Y-61007504D01*
X92100260Y-60197980D01*
X92433594Y-60197980D02*
X93005022Y-60197980D01*
X92719308Y-61197980D02*
X92719308Y-60197980D01*
X93338356Y-60674171D02*
X93671689Y-60674171D01*
X93814546Y-61197980D02*
X93338356Y-61197980D01*
X93338356Y-60197980D01*
X93814546Y-60197980D01*
X94814546Y-61197980D02*
X94481213Y-60721790D01*
X94243118Y-61197980D02*
X94243118Y-60197980D01*
X94624070Y-60197980D01*
X94719308Y-60245600D01*
X94766927Y-60293219D01*
X94814546Y-60388457D01*
X94814546Y-60531314D01*
X94766927Y-60626552D01*
X94719308Y-60674171D01*
X94624070Y-60721790D01*
X94243118Y-60721790D01*
X95195499Y-61150361D02*
X95338356Y-61197980D01*
X95576451Y-61197980D01*
X95671689Y-61150361D01*
X95719308Y-61102742D01*
X95766927Y-61007504D01*
X95766927Y-60912266D01*
X95719308Y-60817028D01*
X95671689Y-60769409D01*
X95576451Y-60721790D01*
X95385975Y-60674171D01*
X95290737Y-60626552D01*
X95243118Y-60578933D01*
X95195499Y-60483695D01*
X95195499Y-60388457D01*
X95243118Y-60293219D01*
X95290737Y-60245600D01*
X95385975Y-60197980D01*
X95624070Y-60197980D01*
X95766927Y-60245600D01*
X83814546Y-61847980D02*
X83624070Y-61847980D01*
X83528832Y-61895600D01*
X83481213Y-61943219D01*
X83385975Y-62086076D01*
X83338356Y-62276552D01*
X83338356Y-62657504D01*
X83385975Y-62752742D01*
X83433594Y-62800361D01*
X83528832Y-62847980D01*
X83719308Y-62847980D01*
X83814546Y-62800361D01*
X83862165Y-62752742D01*
X83909784Y-62657504D01*
X83909784Y-62419409D01*
X83862165Y-62324171D01*
X83814546Y-62276552D01*
X83719308Y-62228933D01*
X83528832Y-62228933D01*
X83433594Y-62276552D01*
X83385975Y-62324171D01*
X83338356Y-62419409D01*
X84766927Y-62181314D02*
X84766927Y-62847980D01*
X84528832Y-61800361D02*
X84290737Y-62514647D01*
X84909784Y-62514647D01*
X85481213Y-61847980D02*
X85576451Y-61847980D01*
X85671689Y-61895600D01*
X85719308Y-61943219D01*
X85766927Y-62038457D01*
X85814546Y-62228933D01*
X85814546Y-62467028D01*
X85766927Y-62657504D01*
X85719308Y-62752742D01*
X85671689Y-62800361D01*
X85576451Y-62847980D01*
X85481213Y-62847980D01*
X85385975Y-62800361D01*
X85338356Y-62752742D01*
X85290737Y-62657504D01*
X85243118Y-62467028D01*
X85243118Y-62228933D01*
X85290737Y-62038457D01*
X85338356Y-61943219D01*
X85385975Y-61895600D01*
X85481213Y-61847980D01*
X86243118Y-62847980D02*
X86243118Y-61847980D01*
X86814546Y-62847980D02*
X86385975Y-62276552D01*
X86814546Y-61847980D02*
X86243118Y-62419409D01*
X88576451Y-62847980D02*
X88243118Y-62371790D01*
X88005022Y-62847980D02*
X88005022Y-61847980D01*
X88385975Y-61847980D01*
X88481213Y-61895600D01*
X88528832Y-61943219D01*
X88576451Y-62038457D01*
X88576451Y-62181314D01*
X88528832Y-62276552D01*
X88481213Y-62324171D01*
X88385975Y-62371790D01*
X88005022Y-62371790D01*
X88957403Y-62562266D02*
X89433594Y-62562266D01*
X88862165Y-62847980D02*
X89195499Y-61847980D01*
X89528832Y-62847980D01*
X89862165Y-62847980D02*
X89862165Y-61847980D01*
X90195499Y-62562266D01*
X90528832Y-61847980D01*
X90528832Y-62847980D01*
X91052641Y-62800361D02*
X91052641Y-62847980D01*
X91005022Y-62943219D01*
X90957403Y-62990838D01*
X92671689Y-61847980D02*
X92481213Y-61847980D01*
X92385975Y-61895600D01*
X92338356Y-61943219D01*
X92243118Y-62086076D01*
X92195499Y-62276552D01*
X92195499Y-62657504D01*
X92243118Y-62752742D01*
X92290737Y-62800361D01*
X92385975Y-62847980D01*
X92576451Y-62847980D01*
X92671689Y-62800361D01*
X92719308Y-62752742D01*
X92766927Y-62657504D01*
X92766927Y-62419409D01*
X92719308Y-62324171D01*
X92671689Y-62276552D01*
X92576451Y-62228933D01*
X92385975Y-62228933D01*
X92290737Y-62276552D01*
X92243118Y-62324171D01*
X92195499Y-62419409D01*
X93624070Y-62181314D02*
X93624070Y-62847980D01*
X93385975Y-61800361D02*
X93147880Y-62514647D01*
X93766927Y-62514647D01*
X94147880Y-62847980D02*
X94147880Y-61847980D01*
X94719308Y-62847980D02*
X94290737Y-62276552D01*
X94719308Y-61847980D02*
X94147880Y-62419409D01*
X96481213Y-62847980D02*
X96147880Y-62371790D01*
X95909784Y-62847980D02*
X95909784Y-61847980D01*
X96290737Y-61847980D01*
X96385975Y-61895600D01*
X96433594Y-61943219D01*
X96481213Y-62038457D01*
X96481213Y-62181314D01*
X96433594Y-62276552D01*
X96385975Y-62324171D01*
X96290737Y-62371790D01*
X95909784Y-62371790D01*
X97100260Y-61847980D02*
X97290737Y-61847980D01*
X97385975Y-61895600D01*
X97481213Y-61990838D01*
X97528832Y-62181314D01*
X97528832Y-62514647D01*
X97481213Y-62705123D01*
X97385975Y-62800361D01*
X97290737Y-62847980D01*
X97100260Y-62847980D01*
X97005022Y-62800361D01*
X96909784Y-62705123D01*
X96862165Y-62514647D01*
X96862165Y-62181314D01*
X96909784Y-61990838D01*
X97005022Y-61895600D01*
X97100260Y-61847980D01*
X97957403Y-62847980D02*
X97957403Y-61847980D01*
X98290737Y-62562266D01*
X98624070Y-61847980D01*
X98624070Y-62847980D01*
X83957403Y-64402742D02*
X83909784Y-64450361D01*
X83766927Y-64497980D01*
X83671689Y-64497980D01*
X83528832Y-64450361D01*
X83433594Y-64355123D01*
X83385975Y-64259885D01*
X83338356Y-64069409D01*
X83338356Y-63926552D01*
X83385975Y-63736076D01*
X83433594Y-63640838D01*
X83528832Y-63545600D01*
X83671689Y-63497980D01*
X83766927Y-63497980D01*
X83909784Y-63545600D01*
X83957403Y-63593219D01*
X84528832Y-64497980D02*
X84433594Y-64450361D01*
X84385975Y-64402742D01*
X84338356Y-64307504D01*
X84338356Y-64021790D01*
X84385975Y-63926552D01*
X84433594Y-63878933D01*
X84528832Y-63831314D01*
X84671689Y-63831314D01*
X84766927Y-63878933D01*
X84814546Y-63926552D01*
X84862165Y-64021790D01*
X84862165Y-64307504D01*
X84814546Y-64402742D01*
X84766927Y-64450361D01*
X84671689Y-64497980D01*
X84528832Y-64497980D01*
X85290737Y-63831314D02*
X85290737Y-64831314D01*
X85290737Y-63878933D02*
X85385975Y-63831314D01*
X85576451Y-63831314D01*
X85671689Y-63878933D01*
X85719308Y-63926552D01*
X85766927Y-64021790D01*
X85766927Y-64307504D01*
X85719308Y-64402742D01*
X85671689Y-64450361D01*
X85576451Y-64497980D01*
X85385975Y-64497980D01*
X85290737Y-64450361D01*
X86100260Y-63831314D02*
X86338356Y-64497980D01*
X86576451Y-63831314D02*
X86338356Y-64497980D01*
X86243118Y-64736076D01*
X86195499Y-64783695D01*
X86100260Y-64831314D01*
X86957403Y-64497980D02*
X86957403Y-63831314D01*
X86957403Y-64021790D02*
X87005022Y-63926552D01*
X87052641Y-63878933D01*
X87147880Y-63831314D01*
X87243118Y-63831314D01*
X87576451Y-64497980D02*
X87576451Y-63831314D01*
X87576451Y-63497980D02*
X87528832Y-63545600D01*
X87576451Y-63593219D01*
X87624070Y-63545600D01*
X87576451Y-63497980D01*
X87576451Y-63593219D01*
X88481213Y-63831314D02*
X88481213Y-64640838D01*
X88433594Y-64736076D01*
X88385975Y-64783695D01*
X88290737Y-64831314D01*
X88147880Y-64831314D01*
X88052641Y-64783695D01*
X88481213Y-64450361D02*
X88385975Y-64497980D01*
X88195499Y-64497980D01*
X88100260Y-64450361D01*
X88052641Y-64402742D01*
X88005022Y-64307504D01*
X88005022Y-64021790D01*
X88052641Y-63926552D01*
X88100260Y-63878933D01*
X88195499Y-63831314D01*
X88385975Y-63831314D01*
X88481213Y-63878933D01*
X88957403Y-64497980D02*
X88957403Y-63497980D01*
X89385975Y-64497980D02*
X89385975Y-63974171D01*
X89338356Y-63878933D01*
X89243118Y-63831314D01*
X89100260Y-63831314D01*
X89005022Y-63878933D01*
X88957403Y-63926552D01*
X89719308Y-63831314D02*
X90100260Y-63831314D01*
X89862165Y-63497980D02*
X89862165Y-64355123D01*
X89909784Y-64450361D01*
X90005022Y-64497980D01*
X90100260Y-64497980D01*
X91481213Y-64878933D02*
X91433594Y-64831314D01*
X91338356Y-64688457D01*
X91290737Y-64593219D01*
X91243118Y-64450361D01*
X91195499Y-64212266D01*
X91195499Y-64021790D01*
X91243118Y-63783695D01*
X91290737Y-63640838D01*
X91338356Y-63545600D01*
X91433594Y-63402742D01*
X91481213Y-63355123D01*
X92433594Y-64402742D02*
X92385975Y-64450361D01*
X92243118Y-64497980D01*
X92147880Y-64497980D01*
X92005022Y-64450361D01*
X91909784Y-64355123D01*
X91862165Y-64259885D01*
X91814546Y-64069409D01*
X91814546Y-63926552D01*
X91862165Y-63736076D01*
X91909784Y-63640838D01*
X92005022Y-63545600D01*
X92147880Y-63497980D01*
X92243118Y-63497980D01*
X92385975Y-63545600D01*
X92433594Y-63593219D01*
X92766927Y-64878933D02*
X92814546Y-64831314D01*
X92909784Y-64688457D01*
X92957403Y-64593219D01*
X93005022Y-64450361D01*
X93052641Y-64212266D01*
X93052641Y-64021790D01*
X93005022Y-63783695D01*
X92957403Y-63640838D01*
X92909784Y-63545600D01*
X92814546Y-63402742D01*
X92766927Y-63355123D01*
X94243118Y-63593219D02*
X94290737Y-63545600D01*
X94385975Y-63497980D01*
X94624070Y-63497980D01*
X94719308Y-63545600D01*
X94766927Y-63593219D01*
X94814546Y-63688457D01*
X94814546Y-63783695D01*
X94766927Y-63926552D01*
X94195499Y-64497980D01*
X94814546Y-64497980D01*
X95433594Y-63497980D02*
X95528832Y-63497980D01*
X95624070Y-63545600D01*
X95671689Y-63593219D01*
X95719308Y-63688457D01*
X95766927Y-63878933D01*
X95766927Y-64117028D01*
X95719308Y-64307504D01*
X95671689Y-64402742D01*
X95624070Y-64450361D01*
X95528832Y-64497980D01*
X95433594Y-64497980D01*
X95338356Y-64450361D01*
X95290737Y-64402742D01*
X95243118Y-64307504D01*
X95195499Y-64117028D01*
X95195499Y-63878933D01*
X95243118Y-63688457D01*
X95290737Y-63593219D01*
X95338356Y-63545600D01*
X95433594Y-63497980D01*
X96147880Y-63593219D02*
X96195499Y-63545600D01*
X96290737Y-63497980D01*
X96528832Y-63497980D01*
X96624070Y-63545600D01*
X96671689Y-63593219D01*
X96719308Y-63688457D01*
X96719308Y-63783695D01*
X96671689Y-63926552D01*
X96100260Y-64497980D01*
X96719308Y-64497980D01*
X97100260Y-63593219D02*
X97147880Y-63545600D01*
X97243118Y-63497980D01*
X97481213Y-63497980D01*
X97576451Y-63545600D01*
X97624070Y-63593219D01*
X97671689Y-63688457D01*
X97671689Y-63783695D01*
X97624070Y-63926552D01*
X97052641Y-64497980D01*
X97671689Y-64497980D01*
X98862165Y-63974171D02*
X99195499Y-63974171D01*
X99338356Y-64497980D02*
X98862165Y-64497980D01*
X98862165Y-63497980D01*
X99338356Y-63497980D01*
X99766927Y-64497980D02*
X99766927Y-63497980D01*
X100100260Y-64212266D01*
X100433594Y-63497980D01*
X100433594Y-64497980D01*
X100909784Y-64497980D02*
X100909784Y-63497980D01*
X101243118Y-64212266D01*
X101576451Y-63497980D01*
X101576451Y-64497980D01*
X83290737Y-65481314D02*
X83481213Y-66147980D01*
X83671689Y-65671790D01*
X83862165Y-66147980D01*
X84052641Y-65481314D01*
X84338356Y-65481314D02*
X84528832Y-66147980D01*
X84719308Y-65671790D01*
X84909784Y-66147980D01*
X85100260Y-65481314D01*
X85385975Y-65481314D02*
X85576451Y-66147980D01*
X85766927Y-65671790D01*
X85957403Y-66147980D01*
X86147880Y-65481314D01*
X86528832Y-66052742D02*
X86576451Y-66100361D01*
X86528832Y-66147980D01*
X86481213Y-66100361D01*
X86528832Y-66052742D01*
X86528832Y-66147980D01*
X87005022Y-66147980D02*
X87005022Y-65147980D01*
X87433594Y-66147980D02*
X87433594Y-65624171D01*
X87385975Y-65528933D01*
X87290737Y-65481314D01*
X87147880Y-65481314D01*
X87052641Y-65528933D01*
X87005022Y-65576552D01*
X88052641Y-66147980D02*
X87957403Y-66100361D01*
X87909784Y-66052742D01*
X87862165Y-65957504D01*
X87862165Y-65671790D01*
X87909784Y-65576552D01*
X87957403Y-65528933D01*
X88052641Y-65481314D01*
X88195499Y-65481314D01*
X88290737Y-65528933D01*
X88338356Y-65576552D01*
X88385975Y-65671790D01*
X88385975Y-65957504D01*
X88338356Y-66052742D01*
X88290737Y-66100361D01*
X88195499Y-66147980D01*
X88052641Y-66147980D01*
X88814546Y-66147980D02*
X88814546Y-65481314D01*
X88814546Y-65576552D02*
X88862165Y-65528933D01*
X88957403Y-65481314D01*
X89100260Y-65481314D01*
X89195499Y-65528933D01*
X89243118Y-65624171D01*
X89243118Y-66147980D01*
X89243118Y-65624171D02*
X89290737Y-65528933D01*
X89385975Y-65481314D01*
X89528832Y-65481314D01*
X89624070Y-65528933D01*
X89671689Y-65624171D01*
X89671689Y-66147980D01*
X90528832Y-66100361D02*
X90433594Y-66147980D01*
X90243118Y-66147980D01*
X90147880Y-66100361D01*
X90100260Y-66005123D01*
X90100260Y-65624171D01*
X90147880Y-65528933D01*
X90243118Y-65481314D01*
X90433594Y-65481314D01*
X90528832Y-65528933D01*
X90576451Y-65624171D01*
X90576451Y-65719409D01*
X90100260Y-65814647D01*
X91005022Y-66147980D02*
X91005022Y-65147980D01*
X91005022Y-65528933D02*
X91100260Y-65481314D01*
X91290737Y-65481314D01*
X91385975Y-65528933D01*
X91433594Y-65576552D01*
X91481213Y-65671790D01*
X91481213Y-65957504D01*
X91433594Y-66052742D01*
X91385975Y-66100361D01*
X91290737Y-66147980D01*
X91100260Y-66147980D01*
X91005022Y-66100361D01*
X91909784Y-66147980D02*
X91909784Y-65481314D01*
X91909784Y-65671790D02*
X91957403Y-65576552D01*
X92005022Y-65528933D01*
X92100260Y-65481314D01*
X92195499Y-65481314D01*
X92909784Y-66100361D02*
X92814546Y-66147980D01*
X92624070Y-66147980D01*
X92528832Y-66100361D01*
X92481213Y-66005123D01*
X92481213Y-65624171D01*
X92528832Y-65528933D01*
X92624070Y-65481314D01*
X92814546Y-65481314D01*
X92909784Y-65528933D01*
X92957403Y-65624171D01*
X92957403Y-65719409D01*
X92481213Y-65814647D01*
X93290737Y-65481314D02*
X93481213Y-66147980D01*
X93671689Y-65671790D01*
X93862165Y-66147980D01*
X94052641Y-65481314D01*
X94576451Y-65576552D02*
X94481213Y-65528933D01*
X94433594Y-65481314D01*
X94385975Y-65386076D01*
X94385975Y-65338457D01*
X94433594Y-65243219D01*
X94481213Y-65195600D01*
X94576451Y-65147980D01*
X94766927Y-65147980D01*
X94862165Y-65195600D01*
X94909784Y-65243219D01*
X94957403Y-65338457D01*
X94957403Y-65386076D01*
X94909784Y-65481314D01*
X94862165Y-65528933D01*
X94766927Y-65576552D01*
X94576451Y-65576552D01*
X94481213Y-65624171D01*
X94433594Y-65671790D01*
X94385975Y-65767028D01*
X94385975Y-65957504D01*
X94433594Y-66052742D01*
X94481213Y-66100361D01*
X94576451Y-66147980D01*
X94766927Y-66147980D01*
X94862165Y-66100361D01*
X94909784Y-66052742D01*
X94957403Y-65957504D01*
X94957403Y-65767028D01*
X94909784Y-65671790D01*
X94862165Y-65624171D01*
X94766927Y-65576552D01*
X95576451Y-65147980D02*
X95671689Y-65147980D01*
X95766927Y-65195600D01*
X95814546Y-65243219D01*
X95862165Y-65338457D01*
X95909784Y-65528933D01*
X95909784Y-65767028D01*
X95862165Y-65957504D01*
X95814546Y-66052742D01*
X95766927Y-66100361D01*
X95671689Y-66147980D01*
X95576451Y-66147980D01*
X95481213Y-66100361D01*
X95433594Y-66052742D01*
X95385975Y-65957504D01*
X95338356Y-65767028D01*
X95338356Y-65528933D01*
X95385975Y-65338457D01*
X95433594Y-65243219D01*
X95481213Y-65195600D01*
X95576451Y-65147980D01*
X96481213Y-65576552D02*
X96385975Y-65528933D01*
X96338356Y-65481314D01*
X96290737Y-65386076D01*
X96290737Y-65338457D01*
X96338356Y-65243219D01*
X96385975Y-65195600D01*
X96481213Y-65147980D01*
X96671689Y-65147980D01*
X96766927Y-65195600D01*
X96814546Y-65243219D01*
X96862165Y-65338457D01*
X96862165Y-65386076D01*
X96814546Y-65481314D01*
X96766927Y-65528933D01*
X96671689Y-65576552D01*
X96481213Y-65576552D01*
X96385975Y-65624171D01*
X96338356Y-65671790D01*
X96290737Y-65767028D01*
X96290737Y-65957504D01*
X96338356Y-66052742D01*
X96385975Y-66100361D01*
X96481213Y-66147980D01*
X96671689Y-66147980D01*
X96766927Y-66100361D01*
X96814546Y-66052742D01*
X96862165Y-65957504D01*
X96862165Y-65767028D01*
X96814546Y-65671790D01*
X96766927Y-65624171D01*
X96671689Y-65576552D01*
X97433594Y-65576552D02*
X97338356Y-65528933D01*
X97290737Y-65481314D01*
X97243118Y-65386076D01*
X97243118Y-65338457D01*
X97290737Y-65243219D01*
X97338356Y-65195600D01*
X97433594Y-65147980D01*
X97624070Y-65147980D01*
X97719308Y-65195600D01*
X97766927Y-65243219D01*
X97814546Y-65338457D01*
X97814546Y-65386076D01*
X97766927Y-65481314D01*
X97719308Y-65528933D01*
X97624070Y-65576552D01*
X97433594Y-65576552D01*
X97338356Y-65624171D01*
X97290737Y-65671790D01*
X97243118Y-65767028D01*
X97243118Y-65957504D01*
X97290737Y-66052742D01*
X97338356Y-66100361D01*
X97433594Y-66147980D01*
X97624070Y-66147980D01*
X97719308Y-66100361D01*
X97766927Y-66052742D01*
X97814546Y-65957504D01*
X97814546Y-65767028D01*
X97766927Y-65671790D01*
X97719308Y-65624171D01*
X97624070Y-65576552D01*
X98243118Y-66052742D02*
X98290737Y-66100361D01*
X98243118Y-66147980D01*
X98195499Y-66100361D01*
X98243118Y-66052742D01*
X98243118Y-66147980D01*
X99147880Y-66100361D02*
X99052641Y-66147980D01*
X98862165Y-66147980D01*
X98766927Y-66100361D01*
X98719308Y-66052742D01*
X98671689Y-65957504D01*
X98671689Y-65671790D01*
X98719308Y-65576552D01*
X98766927Y-65528933D01*
X98862165Y-65481314D01*
X99052641Y-65481314D01*
X99147880Y-65528933D01*
X99719308Y-66147980D02*
X99624070Y-66100361D01*
X99576451Y-66052742D01*
X99528832Y-65957504D01*
X99528832Y-65671790D01*
X99576451Y-65576552D01*
X99624070Y-65528933D01*
X99719308Y-65481314D01*
X99862165Y-65481314D01*
X99957403Y-65528933D01*
X100005022Y-65576552D01*
X100052641Y-65671790D01*
X100052641Y-65957504D01*
X100005022Y-66052742D01*
X99957403Y-66100361D01*
X99862165Y-66147980D01*
X99719308Y-66147980D01*
X100481213Y-66147980D02*
X100481213Y-65481314D01*
X100481213Y-65576552D02*
X100528832Y-65528933D01*
X100624070Y-65481314D01*
X100766927Y-65481314D01*
X100862165Y-65528933D01*
X100909784Y-65624171D01*
X100909784Y-66147980D01*
X100909784Y-65624171D02*
X100957403Y-65528933D01*
X101052641Y-65481314D01*
X101195499Y-65481314D01*
X101290737Y-65528933D01*
X101338356Y-65624171D01*
X101338356Y-66147980D01*
D11*
G04 #@! TO.C,C2*
X122190380Y-71641600D02*
X122190380Y-71656600D01*
X122190380Y-69516600D02*
X122190380Y-69531600D01*
X117650380Y-71641600D02*
X117650380Y-71656600D01*
X117650380Y-69516600D02*
X117650380Y-69531600D01*
X117650380Y-71656600D02*
X122190380Y-71656600D01*
X117650380Y-69516600D02*
X122190380Y-69516600D01*
G04 #@! TO.C,U2*
X121260380Y-72558600D02*
X115800380Y-72558600D01*
X121260380Y-113318600D02*
X121260380Y-72558600D01*
X108340380Y-113318600D02*
X121260380Y-113318600D01*
X108340380Y-72558600D02*
X108340380Y-113318600D01*
X113800380Y-72558600D02*
X108340380Y-72558600D01*
X115800380Y-72558600D02*
G75*
G02*
X113800380Y-72558600I-1000000J0D01*
G01*
G04 #@! TO.C,U1*
X93480380Y-72558600D02*
X88020380Y-72558600D01*
X88020380Y-72558600D02*
X88020380Y-113318600D01*
X88020380Y-113318600D02*
X100940380Y-113318600D01*
X100940380Y-113318600D02*
X100940380Y-72558600D01*
X100940380Y-72558600D02*
X95480380Y-72558600D01*
X95480380Y-72558600D02*
G75*
G02*
X93480380Y-72558600I-1000000J0D01*
G01*
G04 #@! TO.C,C1*
X97330380Y-69516600D02*
X101870380Y-69516600D01*
X97330380Y-71656600D02*
X101870380Y-71656600D01*
X97330380Y-69516600D02*
X97330380Y-69531600D01*
X97330380Y-71641600D02*
X97330380Y-71656600D01*
X101870380Y-69516600D02*
X101870380Y-69531600D01*
X101870380Y-71641600D02*
X101870380Y-71656600D01*
G04 #@! TO.C,U3*
X141580380Y-72558600D02*
X136120380Y-72558600D01*
X141580380Y-113318600D02*
X141580380Y-72558600D01*
X128660380Y-113318600D02*
X141580380Y-113318600D01*
X128660380Y-72558600D02*
X128660380Y-113318600D01*
X134120380Y-72558600D02*
X128660380Y-72558600D01*
X136120380Y-72558600D02*
G75*
G02*
X134120380Y-72558600I-1000000J0D01*
G01*
G04 #@! TO.C,U4*
X161900380Y-72558600D02*
X156440380Y-72558600D01*
X161900380Y-113318600D02*
X161900380Y-72558600D01*
X148980380Y-113318600D02*
X161900380Y-113318600D01*
X148980380Y-72558600D02*
X148980380Y-113318600D01*
X154440380Y-72558600D02*
X148980380Y-72558600D01*
X156440380Y-72558600D02*
G75*
G02*
X154440380Y-72558600I-1000000J0D01*
G01*
G04 #@! TO.C,C6*
X179086380Y-97041600D02*
X179086380Y-97056600D01*
X179086380Y-94916600D02*
X179086380Y-94931600D01*
X174546380Y-97041600D02*
X174546380Y-97056600D01*
X174546380Y-94916600D02*
X174546380Y-94931600D01*
X174546380Y-97056600D02*
X179086380Y-97056600D01*
X174546380Y-94916600D02*
X179086380Y-94916600D01*
G04 #@! TO.C,C3*
X142510380Y-71641600D02*
X142510380Y-71656600D01*
X142510380Y-69516600D02*
X142510380Y-69531600D01*
X137970380Y-71641600D02*
X137970380Y-71656600D01*
X137970380Y-69516600D02*
X137970380Y-69531600D01*
X137970380Y-71656600D02*
X142510380Y-71656600D01*
X137970380Y-69516600D02*
X142510380Y-69516600D01*
G04 #@! TO.C,U6*
X174506380Y-97958600D02*
X172856380Y-97958600D01*
X172856380Y-97958600D02*
X172856380Y-118398600D01*
X172856380Y-118398600D02*
X178156380Y-118398600D01*
X178156380Y-118398600D02*
X178156380Y-97958600D01*
X178156380Y-97958600D02*
X176506380Y-97958600D01*
X176506380Y-97958600D02*
G75*
G02*
X174506380Y-97958600I-1000000J0D01*
G01*
G04 #@! TO.C,U5*
X174506380Y-72558600D02*
X172856380Y-72558600D01*
X172856380Y-72558600D02*
X172856380Y-92998600D01*
X172856380Y-92998600D02*
X178156380Y-92998600D01*
X178156380Y-92998600D02*
X178156380Y-72558600D01*
X178156380Y-72558600D02*
X176506380Y-72558600D01*
X176506380Y-72558600D02*
G75*
G02*
X174506380Y-72558600I-1000000J0D01*
G01*
G04 #@! TO.C,C5*
X174546380Y-69516600D02*
X179086380Y-69516600D01*
X174546380Y-71656600D02*
X179086380Y-71656600D01*
X174546380Y-69516600D02*
X174546380Y-69531600D01*
X174546380Y-71641600D02*
X174546380Y-71656600D01*
X179086380Y-69516600D02*
X179086380Y-69531600D01*
X179086380Y-71641600D02*
X179086380Y-71656600D01*
G04 #@! TO.C,C4*
X158290380Y-69516600D02*
X162830380Y-69516600D01*
X158290380Y-71656600D02*
X162830380Y-71656600D01*
X158290380Y-69516600D02*
X158290380Y-69531600D01*
X158290380Y-71641600D02*
X158290380Y-71656600D01*
X162830380Y-69516600D02*
X162830380Y-69531600D01*
X162830380Y-71641600D02*
X162830380Y-71656600D01*
G04 #@! TO.C,C2*
D10*
X118237522Y-68006980D02*
X118332760Y-68006980D01*
X118427999Y-68054600D01*
X118475618Y-68102219D01*
X118523237Y-68197457D01*
X118570856Y-68387933D01*
X118570856Y-68626028D01*
X118523237Y-68816504D01*
X118475618Y-68911742D01*
X118427999Y-68959361D01*
X118332760Y-69006980D01*
X118237522Y-69006980D01*
X118142284Y-68959361D01*
X118094665Y-68911742D01*
X118047046Y-68816504D01*
X117999427Y-68626028D01*
X117999427Y-68387933D01*
X118047046Y-68197457D01*
X118094665Y-68102219D01*
X118142284Y-68054600D01*
X118237522Y-68006980D01*
X118999427Y-68911742D02*
X119047046Y-68959361D01*
X118999427Y-69006980D01*
X118951808Y-68959361D01*
X118999427Y-68911742D01*
X118999427Y-69006980D01*
X119999427Y-69006980D02*
X119427999Y-69006980D01*
X119713713Y-69006980D02*
X119713713Y-68006980D01*
X119618475Y-68149838D01*
X119523237Y-68245076D01*
X119427999Y-68292695D01*
X120856570Y-68340314D02*
X120856570Y-69006980D01*
X120427999Y-68340314D02*
X120427999Y-68864123D01*
X120475618Y-68959361D01*
X120570856Y-69006980D01*
X120713713Y-69006980D01*
X120808951Y-68959361D01*
X120856570Y-68911742D01*
X121666094Y-68483171D02*
X121332760Y-68483171D01*
X121332760Y-69006980D02*
X121332760Y-68006980D01*
X121808951Y-68006980D01*
G04 #@! TO.C,U2*
X114014665Y-113770980D02*
X113824189Y-113770980D01*
X113728951Y-113818600D01*
X113681332Y-113866219D01*
X113586094Y-114009076D01*
X113538475Y-114199552D01*
X113538475Y-114580504D01*
X113586094Y-114675742D01*
X113633713Y-114723361D01*
X113728951Y-114770980D01*
X113919427Y-114770980D01*
X114014665Y-114723361D01*
X114062284Y-114675742D01*
X114109903Y-114580504D01*
X114109903Y-114342409D01*
X114062284Y-114247171D01*
X114014665Y-114199552D01*
X113919427Y-114151933D01*
X113728951Y-114151933D01*
X113633713Y-114199552D01*
X113586094Y-114247171D01*
X113538475Y-114342409D01*
X114967046Y-114104314D02*
X114967046Y-114770980D01*
X114728951Y-113723361D02*
X114490856Y-114437647D01*
X115109903Y-114437647D01*
X115490856Y-114770980D02*
X115490856Y-113770980D01*
X116062284Y-114770980D02*
X115633713Y-114199552D01*
X116062284Y-113770980D02*
X115490856Y-114342409D01*
G04 #@! TO.C,U1*
X93694665Y-113770980D02*
X93504189Y-113770980D01*
X93408951Y-113818600D01*
X93361332Y-113866219D01*
X93266094Y-114009076D01*
X93218475Y-114199552D01*
X93218475Y-114580504D01*
X93266094Y-114675742D01*
X93313713Y-114723361D01*
X93408951Y-114770980D01*
X93599427Y-114770980D01*
X93694665Y-114723361D01*
X93742284Y-114675742D01*
X93789903Y-114580504D01*
X93789903Y-114342409D01*
X93742284Y-114247171D01*
X93694665Y-114199552D01*
X93599427Y-114151933D01*
X93408951Y-114151933D01*
X93313713Y-114199552D01*
X93266094Y-114247171D01*
X93218475Y-114342409D01*
X94647046Y-114104314D02*
X94647046Y-114770980D01*
X94408951Y-113723361D02*
X94170856Y-114437647D01*
X94789903Y-114437647D01*
X95170856Y-114770980D02*
X95170856Y-113770980D01*
X95742284Y-114770980D02*
X95313713Y-114199552D01*
X95742284Y-113770980D02*
X95170856Y-114342409D01*
G04 #@! TO.C,C1*
X97957522Y-68006980D02*
X98052760Y-68006980D01*
X98147999Y-68054600D01*
X98195618Y-68102219D01*
X98243237Y-68197457D01*
X98290856Y-68387933D01*
X98290856Y-68626028D01*
X98243237Y-68816504D01*
X98195618Y-68911742D01*
X98147999Y-68959361D01*
X98052760Y-69006980D01*
X97957522Y-69006980D01*
X97862284Y-68959361D01*
X97814665Y-68911742D01*
X97767046Y-68816504D01*
X97719427Y-68626028D01*
X97719427Y-68387933D01*
X97767046Y-68197457D01*
X97814665Y-68102219D01*
X97862284Y-68054600D01*
X97957522Y-68006980D01*
X98719427Y-68911742D02*
X98767046Y-68959361D01*
X98719427Y-69006980D01*
X98671808Y-68959361D01*
X98719427Y-68911742D01*
X98719427Y-69006980D01*
X99719427Y-69006980D02*
X99147999Y-69006980D01*
X99433713Y-69006980D02*
X99433713Y-68006980D01*
X99338475Y-68149838D01*
X99243237Y-68245076D01*
X99147999Y-68292695D01*
X100576570Y-68340314D02*
X100576570Y-69006980D01*
X100147999Y-68340314D02*
X100147999Y-68864123D01*
X100195618Y-68959361D01*
X100290856Y-69006980D01*
X100433713Y-69006980D01*
X100528951Y-68959361D01*
X100576570Y-68911742D01*
X101386094Y-68483171D02*
X101052760Y-68483171D01*
X101052760Y-69006980D02*
X101052760Y-68006980D01*
X101528951Y-68006980D01*
G04 #@! TO.C,U3*
X131525141Y-114485266D02*
X132001332Y-114485266D01*
X131429903Y-114770980D02*
X131763237Y-113770980D01*
X132096570Y-114770980D01*
X132382284Y-114723361D02*
X132525141Y-114770980D01*
X132763237Y-114770980D01*
X132858475Y-114723361D01*
X132906094Y-114675742D01*
X132953713Y-114580504D01*
X132953713Y-114485266D01*
X132906094Y-114390028D01*
X132858475Y-114342409D01*
X132763237Y-114294790D01*
X132572760Y-114247171D01*
X132477522Y-114199552D01*
X132429903Y-114151933D01*
X132382284Y-114056695D01*
X132382284Y-113961457D01*
X132429903Y-113866219D01*
X132477522Y-113818600D01*
X132572760Y-113770980D01*
X132810856Y-113770980D01*
X132953713Y-113818600D01*
X133810856Y-113770980D02*
X133620380Y-113770980D01*
X133525141Y-113818600D01*
X133477522Y-113866219D01*
X133382284Y-114009076D01*
X133334665Y-114199552D01*
X133334665Y-114580504D01*
X133382284Y-114675742D01*
X133429903Y-114723361D01*
X133525141Y-114770980D01*
X133715618Y-114770980D01*
X133810856Y-114723361D01*
X133858475Y-114675742D01*
X133906094Y-114580504D01*
X133906094Y-114342409D01*
X133858475Y-114247171D01*
X133810856Y-114199552D01*
X133715618Y-114151933D01*
X133525141Y-114151933D01*
X133429903Y-114199552D01*
X133382284Y-114247171D01*
X133334665Y-114342409D01*
X134906094Y-114675742D02*
X134858475Y-114723361D01*
X134715618Y-114770980D01*
X134620380Y-114770980D01*
X134477522Y-114723361D01*
X134382284Y-114628123D01*
X134334665Y-114532885D01*
X134287046Y-114342409D01*
X134287046Y-114199552D01*
X134334665Y-114009076D01*
X134382284Y-113913838D01*
X134477522Y-113818600D01*
X134620380Y-113770980D01*
X134715618Y-113770980D01*
X134858475Y-113818600D01*
X134906094Y-113866219D01*
X135858475Y-114770980D02*
X135287046Y-114770980D01*
X135572760Y-114770980D02*
X135572760Y-113770980D01*
X135477522Y-113913838D01*
X135382284Y-114009076D01*
X135287046Y-114056695D01*
X136477522Y-113770980D02*
X136572760Y-113770980D01*
X136667999Y-113818600D01*
X136715618Y-113866219D01*
X136763237Y-113961457D01*
X136810856Y-114151933D01*
X136810856Y-114390028D01*
X136763237Y-114580504D01*
X136715618Y-114675742D01*
X136667999Y-114723361D01*
X136572760Y-114770980D01*
X136477522Y-114770980D01*
X136382284Y-114723361D01*
X136334665Y-114675742D01*
X136287046Y-114580504D01*
X136239427Y-114390028D01*
X136239427Y-114151933D01*
X136287046Y-113961457D01*
X136334665Y-113866219D01*
X136382284Y-113818600D01*
X136477522Y-113770980D01*
X137429903Y-113770980D02*
X137525141Y-113770980D01*
X137620380Y-113818600D01*
X137667999Y-113866219D01*
X137715618Y-113961457D01*
X137763237Y-114151933D01*
X137763237Y-114390028D01*
X137715618Y-114580504D01*
X137667999Y-114675742D01*
X137620380Y-114723361D01*
X137525141Y-114770980D01*
X137429903Y-114770980D01*
X137334665Y-114723361D01*
X137287046Y-114675742D01*
X137239427Y-114580504D01*
X137191808Y-114390028D01*
X137191808Y-114151933D01*
X137239427Y-113961457D01*
X137287046Y-113866219D01*
X137334665Y-113818600D01*
X137429903Y-113770980D01*
X138334665Y-114199552D02*
X138239427Y-114151933D01*
X138191808Y-114104314D01*
X138144189Y-114009076D01*
X138144189Y-113961457D01*
X138191808Y-113866219D01*
X138239427Y-113818600D01*
X138334665Y-113770980D01*
X138525141Y-113770980D01*
X138620380Y-113818600D01*
X138667999Y-113866219D01*
X138715618Y-113961457D01*
X138715618Y-114009076D01*
X138667999Y-114104314D01*
X138620380Y-114151933D01*
X138525141Y-114199552D01*
X138334665Y-114199552D01*
X138239427Y-114247171D01*
X138191808Y-114294790D01*
X138144189Y-114390028D01*
X138144189Y-114580504D01*
X138191808Y-114675742D01*
X138239427Y-114723361D01*
X138334665Y-114770980D01*
X138525141Y-114770980D01*
X138620380Y-114723361D01*
X138667999Y-114675742D01*
X138715618Y-114580504D01*
X138715618Y-114390028D01*
X138667999Y-114294790D01*
X138620380Y-114247171D01*
X138525141Y-114199552D01*
G04 #@! TO.C,U4*
X151845141Y-114485266D02*
X152321332Y-114485266D01*
X151749903Y-114770980D02*
X152083237Y-113770980D01*
X152416570Y-114770980D01*
X152702284Y-114723361D02*
X152845141Y-114770980D01*
X153083237Y-114770980D01*
X153178475Y-114723361D01*
X153226094Y-114675742D01*
X153273713Y-114580504D01*
X153273713Y-114485266D01*
X153226094Y-114390028D01*
X153178475Y-114342409D01*
X153083237Y-114294790D01*
X152892760Y-114247171D01*
X152797522Y-114199552D01*
X152749903Y-114151933D01*
X152702284Y-114056695D01*
X152702284Y-113961457D01*
X152749903Y-113866219D01*
X152797522Y-113818600D01*
X152892760Y-113770980D01*
X153130856Y-113770980D01*
X153273713Y-113818600D01*
X154130856Y-113770980D02*
X153940380Y-113770980D01*
X153845141Y-113818600D01*
X153797522Y-113866219D01*
X153702284Y-114009076D01*
X153654665Y-114199552D01*
X153654665Y-114580504D01*
X153702284Y-114675742D01*
X153749903Y-114723361D01*
X153845141Y-114770980D01*
X154035618Y-114770980D01*
X154130856Y-114723361D01*
X154178475Y-114675742D01*
X154226094Y-114580504D01*
X154226094Y-114342409D01*
X154178475Y-114247171D01*
X154130856Y-114199552D01*
X154035618Y-114151933D01*
X153845141Y-114151933D01*
X153749903Y-114199552D01*
X153702284Y-114247171D01*
X153654665Y-114342409D01*
X155226094Y-114675742D02*
X155178475Y-114723361D01*
X155035618Y-114770980D01*
X154940380Y-114770980D01*
X154797522Y-114723361D01*
X154702284Y-114628123D01*
X154654665Y-114532885D01*
X154607046Y-114342409D01*
X154607046Y-114199552D01*
X154654665Y-114009076D01*
X154702284Y-113913838D01*
X154797522Y-113818600D01*
X154940380Y-113770980D01*
X155035618Y-113770980D01*
X155178475Y-113818600D01*
X155226094Y-113866219D01*
X156083237Y-114104314D02*
X156083237Y-114770980D01*
X155845141Y-113723361D02*
X155607046Y-114437647D01*
X156226094Y-114437647D01*
X156797522Y-113770980D02*
X156892760Y-113770980D01*
X156987999Y-113818600D01*
X157035618Y-113866219D01*
X157083237Y-113961457D01*
X157130856Y-114151933D01*
X157130856Y-114390028D01*
X157083237Y-114580504D01*
X157035618Y-114675742D01*
X156987999Y-114723361D01*
X156892760Y-114770980D01*
X156797522Y-114770980D01*
X156702284Y-114723361D01*
X156654665Y-114675742D01*
X156607046Y-114580504D01*
X156559427Y-114390028D01*
X156559427Y-114151933D01*
X156607046Y-113961457D01*
X156654665Y-113866219D01*
X156702284Y-113818600D01*
X156797522Y-113770980D01*
X157749903Y-113770980D02*
X157845141Y-113770980D01*
X157940380Y-113818600D01*
X157987999Y-113866219D01*
X158035618Y-113961457D01*
X158083237Y-114151933D01*
X158083237Y-114390028D01*
X158035618Y-114580504D01*
X157987999Y-114675742D01*
X157940380Y-114723361D01*
X157845141Y-114770980D01*
X157749903Y-114770980D01*
X157654665Y-114723361D01*
X157607046Y-114675742D01*
X157559427Y-114580504D01*
X157511808Y-114390028D01*
X157511808Y-114151933D01*
X157559427Y-113961457D01*
X157607046Y-113866219D01*
X157654665Y-113818600D01*
X157749903Y-113770980D01*
X158654665Y-114199552D02*
X158559427Y-114151933D01*
X158511808Y-114104314D01*
X158464189Y-114009076D01*
X158464189Y-113961457D01*
X158511808Y-113866219D01*
X158559427Y-113818600D01*
X158654665Y-113770980D01*
X158845141Y-113770980D01*
X158940380Y-113818600D01*
X158987999Y-113866219D01*
X159035618Y-113961457D01*
X159035618Y-114009076D01*
X158987999Y-114104314D01*
X158940380Y-114151933D01*
X158845141Y-114199552D01*
X158654665Y-114199552D01*
X158559427Y-114247171D01*
X158511808Y-114294790D01*
X158464189Y-114390028D01*
X158464189Y-114580504D01*
X158511808Y-114675742D01*
X158559427Y-114723361D01*
X158654665Y-114770980D01*
X158845141Y-114770980D01*
X158940380Y-114723361D01*
X158987999Y-114675742D01*
X159035618Y-114580504D01*
X159035618Y-114390028D01*
X158987999Y-114294790D01*
X158940380Y-114247171D01*
X158845141Y-114199552D01*
G04 #@! TO.C,C6*
X175173522Y-95438980D02*
X175268760Y-95438980D01*
X175363999Y-95486600D01*
X175411618Y-95534219D01*
X175459237Y-95629457D01*
X175506856Y-95819933D01*
X175506856Y-96058028D01*
X175459237Y-96248504D01*
X175411618Y-96343742D01*
X175363999Y-96391361D01*
X175268760Y-96438980D01*
X175173522Y-96438980D01*
X175078284Y-96391361D01*
X175030665Y-96343742D01*
X174983046Y-96248504D01*
X174935427Y-96058028D01*
X174935427Y-95819933D01*
X174983046Y-95629457D01*
X175030665Y-95534219D01*
X175078284Y-95486600D01*
X175173522Y-95438980D01*
X175935427Y-96343742D02*
X175983046Y-96391361D01*
X175935427Y-96438980D01*
X175887808Y-96391361D01*
X175935427Y-96343742D01*
X175935427Y-96438980D01*
X176935427Y-96438980D02*
X176363999Y-96438980D01*
X176649713Y-96438980D02*
X176649713Y-95438980D01*
X176554475Y-95581838D01*
X176459237Y-95677076D01*
X176363999Y-95724695D01*
X177792570Y-95772314D02*
X177792570Y-96438980D01*
X177363999Y-95772314D02*
X177363999Y-96296123D01*
X177411618Y-96391361D01*
X177506856Y-96438980D01*
X177649713Y-96438980D01*
X177744951Y-96391361D01*
X177792570Y-96343742D01*
X178602094Y-95915171D02*
X178268760Y-95915171D01*
X178268760Y-96438980D02*
X178268760Y-95438980D01*
X178744951Y-95438980D01*
G04 #@! TO.C,C3*
X138557522Y-68006980D02*
X138652760Y-68006980D01*
X138747999Y-68054600D01*
X138795618Y-68102219D01*
X138843237Y-68197457D01*
X138890856Y-68387933D01*
X138890856Y-68626028D01*
X138843237Y-68816504D01*
X138795618Y-68911742D01*
X138747999Y-68959361D01*
X138652760Y-69006980D01*
X138557522Y-69006980D01*
X138462284Y-68959361D01*
X138414665Y-68911742D01*
X138367046Y-68816504D01*
X138319427Y-68626028D01*
X138319427Y-68387933D01*
X138367046Y-68197457D01*
X138414665Y-68102219D01*
X138462284Y-68054600D01*
X138557522Y-68006980D01*
X139319427Y-68911742D02*
X139367046Y-68959361D01*
X139319427Y-69006980D01*
X139271808Y-68959361D01*
X139319427Y-68911742D01*
X139319427Y-69006980D01*
X140319427Y-69006980D02*
X139747999Y-69006980D01*
X140033713Y-69006980D02*
X140033713Y-68006980D01*
X139938475Y-68149838D01*
X139843237Y-68245076D01*
X139747999Y-68292695D01*
X141176570Y-68340314D02*
X141176570Y-69006980D01*
X140747999Y-68340314D02*
X140747999Y-68864123D01*
X140795618Y-68959361D01*
X140890856Y-69006980D01*
X141033713Y-69006980D01*
X141128951Y-68959361D01*
X141176570Y-68911742D01*
X141986094Y-68483171D02*
X141652760Y-68483171D01*
X141652760Y-69006980D02*
X141652760Y-68006980D01*
X142128951Y-68006980D01*
G04 #@! TO.C,U6*
X172387332Y-118850980D02*
X173053999Y-118850980D01*
X172625427Y-119850980D01*
X173863522Y-119184314D02*
X173863522Y-119850980D01*
X173625427Y-118803361D02*
X173387332Y-119517647D01*
X174006380Y-119517647D01*
X174863522Y-119850980D02*
X174387332Y-119850980D01*
X174387332Y-118850980D01*
X175149237Y-119803361D02*
X175292094Y-119850980D01*
X175530189Y-119850980D01*
X175625427Y-119803361D01*
X175673046Y-119755742D01*
X175720665Y-119660504D01*
X175720665Y-119565266D01*
X175673046Y-119470028D01*
X175625427Y-119422409D01*
X175530189Y-119374790D01*
X175339713Y-119327171D01*
X175244475Y-119279552D01*
X175196856Y-119231933D01*
X175149237Y-119136695D01*
X175149237Y-119041457D01*
X175196856Y-118946219D01*
X175244475Y-118898600D01*
X175339713Y-118850980D01*
X175577808Y-118850980D01*
X175720665Y-118898600D01*
X176673046Y-119850980D02*
X176101618Y-119850980D01*
X176387332Y-119850980D02*
X176387332Y-118850980D01*
X176292094Y-118993838D01*
X176196856Y-119089076D01*
X176101618Y-119136695D01*
X177006380Y-118850980D02*
X177625427Y-118850980D01*
X177292094Y-119231933D01*
X177434951Y-119231933D01*
X177530189Y-119279552D01*
X177577808Y-119327171D01*
X177625427Y-119422409D01*
X177625427Y-119660504D01*
X177577808Y-119755742D01*
X177530189Y-119803361D01*
X177434951Y-119850980D01*
X177149237Y-119850980D01*
X177053999Y-119803361D01*
X177006380Y-119755742D01*
X178196856Y-119279552D02*
X178101618Y-119231933D01*
X178053999Y-119184314D01*
X178006380Y-119089076D01*
X178006380Y-119041457D01*
X178053999Y-118946219D01*
X178101618Y-118898600D01*
X178196856Y-118850980D01*
X178387332Y-118850980D01*
X178482570Y-118898600D01*
X178530189Y-118946219D01*
X178577808Y-119041457D01*
X178577808Y-119089076D01*
X178530189Y-119184314D01*
X178482570Y-119231933D01*
X178387332Y-119279552D01*
X178196856Y-119279552D01*
X178101618Y-119327171D01*
X178053999Y-119374790D01*
X178006380Y-119470028D01*
X178006380Y-119660504D01*
X178053999Y-119755742D01*
X178101618Y-119803361D01*
X178196856Y-119850980D01*
X178387332Y-119850980D01*
X178482570Y-119803361D01*
X178530189Y-119755742D01*
X178577808Y-119660504D01*
X178577808Y-119470028D01*
X178530189Y-119374790D01*
X178482570Y-119327171D01*
X178387332Y-119279552D01*
G04 #@! TO.C,U5*
X172387332Y-93450980D02*
X173053999Y-93450980D01*
X172625427Y-94450980D01*
X173863522Y-93784314D02*
X173863522Y-94450980D01*
X173625427Y-93403361D02*
X173387332Y-94117647D01*
X174006380Y-94117647D01*
X174863522Y-94450980D02*
X174387332Y-94450980D01*
X174387332Y-93450980D01*
X175149237Y-94403361D02*
X175292094Y-94450980D01*
X175530189Y-94450980D01*
X175625427Y-94403361D01*
X175673046Y-94355742D01*
X175720665Y-94260504D01*
X175720665Y-94165266D01*
X175673046Y-94070028D01*
X175625427Y-94022409D01*
X175530189Y-93974790D01*
X175339713Y-93927171D01*
X175244475Y-93879552D01*
X175196856Y-93831933D01*
X175149237Y-93736695D01*
X175149237Y-93641457D01*
X175196856Y-93546219D01*
X175244475Y-93498600D01*
X175339713Y-93450980D01*
X175577808Y-93450980D01*
X175720665Y-93498600D01*
X176673046Y-94450980D02*
X176101618Y-94450980D01*
X176387332Y-94450980D02*
X176387332Y-93450980D01*
X176292094Y-93593838D01*
X176196856Y-93689076D01*
X176101618Y-93736695D01*
X177006380Y-93450980D02*
X177625427Y-93450980D01*
X177292094Y-93831933D01*
X177434951Y-93831933D01*
X177530189Y-93879552D01*
X177577808Y-93927171D01*
X177625427Y-94022409D01*
X177625427Y-94260504D01*
X177577808Y-94355742D01*
X177530189Y-94403361D01*
X177434951Y-94450980D01*
X177149237Y-94450980D01*
X177053999Y-94403361D01*
X177006380Y-94355742D01*
X178101618Y-94450980D02*
X178292094Y-94450980D01*
X178387332Y-94403361D01*
X178434951Y-94355742D01*
X178530189Y-94212885D01*
X178577808Y-94022409D01*
X178577808Y-93641457D01*
X178530189Y-93546219D01*
X178482570Y-93498600D01*
X178387332Y-93450980D01*
X178196856Y-93450980D01*
X178101618Y-93498600D01*
X178053999Y-93546219D01*
X178006380Y-93641457D01*
X178006380Y-93879552D01*
X178053999Y-93974790D01*
X178101618Y-94022409D01*
X178196856Y-94070028D01*
X178387332Y-94070028D01*
X178482570Y-94022409D01*
X178530189Y-93974790D01*
X178577808Y-93879552D01*
G04 #@! TO.C,C5*
X175173522Y-68006980D02*
X175268760Y-68006980D01*
X175363999Y-68054600D01*
X175411618Y-68102219D01*
X175459237Y-68197457D01*
X175506856Y-68387933D01*
X175506856Y-68626028D01*
X175459237Y-68816504D01*
X175411618Y-68911742D01*
X175363999Y-68959361D01*
X175268760Y-69006980D01*
X175173522Y-69006980D01*
X175078284Y-68959361D01*
X175030665Y-68911742D01*
X174983046Y-68816504D01*
X174935427Y-68626028D01*
X174935427Y-68387933D01*
X174983046Y-68197457D01*
X175030665Y-68102219D01*
X175078284Y-68054600D01*
X175173522Y-68006980D01*
X175935427Y-68911742D02*
X175983046Y-68959361D01*
X175935427Y-69006980D01*
X175887808Y-68959361D01*
X175935427Y-68911742D01*
X175935427Y-69006980D01*
X176935427Y-69006980D02*
X176363999Y-69006980D01*
X176649713Y-69006980D02*
X176649713Y-68006980D01*
X176554475Y-68149838D01*
X176459237Y-68245076D01*
X176363999Y-68292695D01*
X177792570Y-68340314D02*
X177792570Y-69006980D01*
X177363999Y-68340314D02*
X177363999Y-68864123D01*
X177411618Y-68959361D01*
X177506856Y-69006980D01*
X177649713Y-69006980D01*
X177744951Y-68959361D01*
X177792570Y-68911742D01*
X178602094Y-68483171D02*
X178268760Y-68483171D01*
X178268760Y-69006980D02*
X178268760Y-68006980D01*
X178744951Y-68006980D01*
G04 #@! TO.C,C4*
X158917522Y-68006980D02*
X159012760Y-68006980D01*
X159107999Y-68054600D01*
X159155618Y-68102219D01*
X159203237Y-68197457D01*
X159250856Y-68387933D01*
X159250856Y-68626028D01*
X159203237Y-68816504D01*
X159155618Y-68911742D01*
X159107999Y-68959361D01*
X159012760Y-69006980D01*
X158917522Y-69006980D01*
X158822284Y-68959361D01*
X158774665Y-68911742D01*
X158727046Y-68816504D01*
X158679427Y-68626028D01*
X158679427Y-68387933D01*
X158727046Y-68197457D01*
X158774665Y-68102219D01*
X158822284Y-68054600D01*
X158917522Y-68006980D01*
X159679427Y-68911742D02*
X159727046Y-68959361D01*
X159679427Y-69006980D01*
X159631808Y-68959361D01*
X159679427Y-68911742D01*
X159679427Y-69006980D01*
X160679427Y-69006980D02*
X160107999Y-69006980D01*
X160393713Y-69006980D02*
X160393713Y-68006980D01*
X160298475Y-68149838D01*
X160203237Y-68245076D01*
X160107999Y-68292695D01*
X161536570Y-68340314D02*
X161536570Y-69006980D01*
X161107999Y-68340314D02*
X161107999Y-68864123D01*
X161155618Y-68959361D01*
X161250856Y-69006980D01*
X161393713Y-69006980D01*
X161488951Y-68959361D01*
X161536570Y-68911742D01*
X162346094Y-68483171D02*
X162012760Y-68483171D01*
X162012760Y-69006980D02*
X162012760Y-68006980D01*
X162488951Y-68006980D01*
G04 #@! TO.C,*
G04 #@! TD*
M02*
