G04 #@! TF.GenerationSoftware,KiCad,Pcbnew,(5.1.8)-1*
G04 #@! TF.CreationDate,2022-04-25T13:15:40-06:00*
G04 #@! TF.ProjectId,LCD 8255,4c434420-3832-4353-952e-6b696361645f,rev?*
G04 #@! TF.SameCoordinates,Original*
G04 #@! TF.FileFunction,Copper,L1,Top*
G04 #@! TF.FilePolarity,Positive*
%FSLAX46Y46*%
G04 Gerber Fmt 4.6, Leading zero omitted, Abs format (unit mm)*
G04 Created by KiCad (PCBNEW (5.1.8)-1) date 2022-04-25 13:15:40*
%MOMM*%
%LPD*%
G01*
G04 APERTURE LIST*
G04 #@! TA.AperFunction,ConnectorPad*
%ADD10R,1.780000X7.620000*%
G04 #@! TD*
G04 #@! TA.AperFunction,ComponentPad*
%ADD11C,3.556000*%
G04 #@! TD*
G04 #@! TA.AperFunction,ComponentPad*
%ADD12C,1.620000*%
G04 #@! TD*
G04 #@! TA.AperFunction,ComponentPad*
%ADD13O,1.600000X1.600000*%
G04 #@! TD*
G04 #@! TA.AperFunction,ComponentPad*
%ADD14R,1.600000X1.600000*%
G04 #@! TD*
G04 #@! TA.AperFunction,ComponentPad*
%ADD15O,1.700000X1.700000*%
G04 #@! TD*
G04 #@! TA.AperFunction,ComponentPad*
%ADD16R,1.700000X1.700000*%
G04 #@! TD*
G04 #@! TA.AperFunction,ComponentPad*
%ADD17C,1.600000*%
G04 #@! TD*
G04 #@! TA.AperFunction,ViaPad*
%ADD18C,0.800000*%
G04 #@! TD*
G04 #@! TA.AperFunction,Conductor*
%ADD19C,0.330200*%
G04 #@! TD*
G04 #@! TA.AperFunction,Conductor*
%ADD20C,0.250000*%
G04 #@! TD*
G04 APERTURE END LIST*
D10*
G04 #@! TO.P,J1,62*
G04 #@! TO.N,/A0*
X97028000Y-146050000D03*
G04 #@! TO.P,J1,61*
G04 #@! TO.N,/A1*
X99568000Y-146050000D03*
G04 #@! TO.P,J1,60*
G04 #@! TO.N,/A2*
X102108000Y-146050000D03*
G04 #@! TO.P,J1,59*
G04 #@! TO.N,/A3*
X104648000Y-146050000D03*
G04 #@! TO.P,J1,58*
G04 #@! TO.N,/A4*
X107188000Y-146050000D03*
G04 #@! TO.P,J1,57*
G04 #@! TO.N,/A5*
X109728000Y-146050000D03*
G04 #@! TO.P,J1,56*
G04 #@! TO.N,/A6*
X112268000Y-146050000D03*
G04 #@! TO.P,J1,55*
G04 #@! TO.N,/A7*
X114808000Y-146050000D03*
G04 #@! TO.P,J1,54*
G04 #@! TO.N,/A8*
X117348000Y-146050000D03*
G04 #@! TO.P,J1,53*
G04 #@! TO.N,/A9*
X119888000Y-146050000D03*
G04 #@! TO.P,J1,52*
G04 #@! TO.N,/A10*
X122428000Y-146050000D03*
G04 #@! TO.P,J1,51*
G04 #@! TO.N,/A11*
X124968000Y-146050000D03*
G04 #@! TO.P,J1,50*
G04 #@! TO.N,/A12*
X127508000Y-146050000D03*
G04 #@! TO.P,J1,49*
G04 #@! TO.N,/A13*
X130048000Y-146050000D03*
G04 #@! TO.P,J1,48*
G04 #@! TO.N,/A14*
X132588000Y-146050000D03*
G04 #@! TO.P,J1,47*
G04 #@! TO.N,/A15*
X135128000Y-146050000D03*
G04 #@! TO.P,J1,46*
G04 #@! TO.N,Net-(J1-Pad46)*
X137668000Y-146050000D03*
G04 #@! TO.P,J1,45*
G04 #@! TO.N,Net-(J1-Pad45)*
X140208000Y-146050000D03*
G04 #@! TO.P,J1,44*
G04 #@! TO.N,Net-(J1-Pad44)*
X142748000Y-146050000D03*
G04 #@! TO.P,J1,43*
G04 #@! TO.N,Net-(J1-Pad43)*
X145288000Y-146050000D03*
G04 #@! TO.P,J1,42*
G04 #@! TO.N,Net-(J1-Pad42)*
X147828000Y-146050000D03*
G04 #@! TO.P,J1,41*
G04 #@! TO.N,Net-(J1-Pad41)*
X150368000Y-146050000D03*
G04 #@! TO.P,J1,40*
G04 #@! TO.N,/D0*
X152908000Y-146050000D03*
G04 #@! TO.P,J1,39*
G04 #@! TO.N,/D1*
X155448000Y-146050000D03*
G04 #@! TO.P,J1,38*
G04 #@! TO.N,/D2*
X157988000Y-146050000D03*
G04 #@! TO.P,J1,37*
G04 #@! TO.N,/D3*
X160528000Y-146050000D03*
G04 #@! TO.P,J1,36*
G04 #@! TO.N,/D4*
X163068000Y-146050000D03*
G04 #@! TO.P,J1,35*
G04 #@! TO.N,/D5*
X165608000Y-146050000D03*
G04 #@! TO.P,J1,34*
G04 #@! TO.N,/D6*
X168148000Y-146050000D03*
G04 #@! TO.P,J1,33*
G04 #@! TO.N,/D7*
X170688000Y-146050000D03*
G04 #@! TO.P,J1,32*
G04 #@! TO.N,Net-(J1-Pad32)*
X173228000Y-146050000D03*
G04 #@! TD*
D11*
G04 #@! TO.P,R,1*
G04 #@! TO.N,/GND*
X193294000Y-138430000D03*
G04 #@! TD*
G04 #@! TO.P,R,1*
G04 #@! TO.N,N/C*
X193294000Y-81280000D03*
G04 #@! TD*
D12*
G04 #@! TO.P,RV1,1*
G04 #@! TO.N,/GND*
X182880000Y-125984000D03*
G04 #@! TO.P,RV1,2*
G04 #@! TO.N,/CONTRAST*
X187880000Y-123484000D03*
G04 #@! TO.P,RV1,3*
G04 #@! TO.N,/5+*
X182880000Y-120984000D03*
G04 #@! TD*
D13*
G04 #@! TO.P,U4,40*
G04 #@! TO.N,/PA4*
X162052000Y-104140000D03*
G04 #@! TO.P,U4,20*
G04 #@! TO.N,/LCD_RS*
X113792000Y-88900000D03*
G04 #@! TO.P,U4,39*
G04 #@! TO.N,/PA5*
X159512000Y-104140000D03*
G04 #@! TO.P,U4,19*
G04 #@! TO.N,/LCD_RW*
X116332000Y-88900000D03*
G04 #@! TO.P,U4,38*
G04 #@! TO.N,/PA6*
X156972000Y-104140000D03*
G04 #@! TO.P,U4,18*
G04 #@! TO.N,/LCD_EN*
X118872000Y-88900000D03*
G04 #@! TO.P,U4,37*
G04 #@! TO.N,/PA7*
X154432000Y-104140000D03*
G04 #@! TO.P,U4,17*
G04 #@! TO.N,Net-(U4-Pad17)*
X121412000Y-88900000D03*
G04 #@! TO.P,U4,36*
G04 #@! TO.N,/IOWR*
X151892000Y-104140000D03*
G04 #@! TO.P,U4,16*
G04 #@! TO.N,Net-(U4-Pad16)*
X123952000Y-88900000D03*
G04 #@! TO.P,U4,35*
G04 #@! TO.N,/RESET*
X149352000Y-104140000D03*
G04 #@! TO.P,U4,15*
G04 #@! TO.N,Net-(U4-Pad15)*
X126492000Y-88900000D03*
G04 #@! TO.P,U4,34*
G04 #@! TO.N,/D0*
X146812000Y-104140000D03*
G04 #@! TO.P,U4,14*
G04 #@! TO.N,Net-(U4-Pad14)*
X129032000Y-88900000D03*
G04 #@! TO.P,U4,33*
G04 #@! TO.N,/D1*
X144272000Y-104140000D03*
G04 #@! TO.P,U4,13*
G04 #@! TO.N,/STBA*
X131572000Y-88900000D03*
G04 #@! TO.P,U4,32*
G04 #@! TO.N,/D2*
X141732000Y-104140000D03*
G04 #@! TO.P,U4,12*
G04 #@! TO.N,Net-(U4-Pad12)*
X134112000Y-88900000D03*
G04 #@! TO.P,U4,31*
G04 #@! TO.N,/D3*
X139192000Y-104140000D03*
G04 #@! TO.P,U4,11*
G04 #@! TO.N,/ACKA*
X136652000Y-88900000D03*
G04 #@! TO.P,U4,30*
G04 #@! TO.N,/D4*
X136652000Y-104140000D03*
G04 #@! TO.P,U4,10*
G04 #@! TO.N,Net-(U4-Pad10)*
X139192000Y-88900000D03*
G04 #@! TO.P,U4,29*
G04 #@! TO.N,/D5*
X134112000Y-104140000D03*
G04 #@! TO.P,U4,9*
G04 #@! TO.N,/A0*
X141732000Y-88900000D03*
G04 #@! TO.P,U4,28*
G04 #@! TO.N,/D6*
X131572000Y-104140000D03*
G04 #@! TO.P,U4,8*
G04 #@! TO.N,/A1*
X144272000Y-88900000D03*
G04 #@! TO.P,U4,27*
G04 #@! TO.N,/D7*
X129032000Y-104140000D03*
G04 #@! TO.P,U4,7*
G04 #@! TO.N,/GND*
X146812000Y-88900000D03*
G04 #@! TO.P,U4,26*
G04 #@! TO.N,/5+*
X126492000Y-104140000D03*
G04 #@! TO.P,U4,6*
G04 #@! TO.N,/0X044X*
X149352000Y-88900000D03*
G04 #@! TO.P,U4,25*
G04 #@! TO.N,Net-(U4-Pad25)*
X123952000Y-104140000D03*
G04 #@! TO.P,U4,5*
G04 #@! TO.N,/IORD*
X151892000Y-88900000D03*
G04 #@! TO.P,U4,24*
G04 #@! TO.N,Net-(U4-Pad24)*
X121412000Y-104140000D03*
G04 #@! TO.P,U4,4*
G04 #@! TO.N,/PA0*
X154432000Y-88900000D03*
G04 #@! TO.P,U4,23*
G04 #@! TO.N,/ACKA*
X118872000Y-104140000D03*
G04 #@! TO.P,U4,3*
G04 #@! TO.N,/PA1*
X156972000Y-88900000D03*
G04 #@! TO.P,U4,22*
G04 #@! TO.N,/STBA*
X116332000Y-104140000D03*
G04 #@! TO.P,U4,2*
G04 #@! TO.N,/PA2*
X159512000Y-88900000D03*
G04 #@! TO.P,U4,21*
G04 #@! TO.N,Net-(U4-Pad21)*
X113792000Y-104140000D03*
D14*
G04 #@! TO.P,U4,1*
G04 #@! TO.N,/PA3*
X162052000Y-88900000D03*
G04 #@! TD*
D13*
G04 #@! TO.P,U3,16*
G04 #@! TO.N,/5+*
X117856000Y-127508000D03*
G04 #@! TO.P,U3,8*
G04 #@! TO.N,/GND*
X100076000Y-119888000D03*
G04 #@! TO.P,U3,15*
G04 #@! TO.N,Net-(U3-Pad15)*
X115316000Y-127508000D03*
G04 #@! TO.P,U3,7*
G04 #@! TO.N,Net-(U3-Pad7)*
X102616000Y-119888000D03*
G04 #@! TO.P,U3,14*
G04 #@! TO.N,Net-(U3-Pad14)*
X112776000Y-127508000D03*
G04 #@! TO.P,U3,6*
G04 #@! TO.N,/5+*
X105156000Y-119888000D03*
G04 #@! TO.P,U3,13*
G04 #@! TO.N,/0X044X*
X110236000Y-127508000D03*
G04 #@! TO.P,U3,5*
G04 #@! TO.N,/0X04XX*
X107696000Y-119888000D03*
G04 #@! TO.P,U3,12*
G04 #@! TO.N,Net-(U3-Pad12)*
X107696000Y-127508000D03*
G04 #@! TO.P,U3,4*
G04 #@! TO.N,/A4*
X110236000Y-119888000D03*
G04 #@! TO.P,U3,11*
G04 #@! TO.N,Net-(U3-Pad11)*
X105156000Y-127508000D03*
G04 #@! TO.P,U3,3*
G04 #@! TO.N,/A7*
X112776000Y-119888000D03*
G04 #@! TO.P,U3,10*
G04 #@! TO.N,Net-(U3-Pad10)*
X102616000Y-127508000D03*
G04 #@! TO.P,U3,2*
G04 #@! TO.N,/A6*
X115316000Y-119888000D03*
G04 #@! TO.P,U3,9*
G04 #@! TO.N,Net-(U3-Pad9)*
X100076000Y-127508000D03*
D14*
G04 #@! TO.P,U3,1*
G04 #@! TO.N,/A5*
X117856000Y-119888000D03*
G04 #@! TD*
D13*
G04 #@! TO.P,U2,16*
G04 #@! TO.N,/5+*
X144272000Y-127508000D03*
G04 #@! TO.P,U2,8*
G04 #@! TO.N,/GND*
X126492000Y-119888000D03*
G04 #@! TO.P,U2,15*
G04 #@! TO.N,Net-(U2-Pad15)*
X141732000Y-127508000D03*
G04 #@! TO.P,U2,7*
G04 #@! TO.N,Net-(U2-Pad7)*
X129032000Y-119888000D03*
G04 #@! TO.P,U2,14*
G04 #@! TO.N,Net-(U2-Pad14)*
X139192000Y-127508000D03*
G04 #@! TO.P,U2,6*
G04 #@! TO.N,/5+*
X131572000Y-119888000D03*
G04 #@! TO.P,U2,13*
G04 #@! TO.N,Net-(U2-Pad13)*
X136652000Y-127508000D03*
G04 #@! TO.P,U2,5*
G04 #@! TO.N,/0X0XXX*
X134112000Y-119888000D03*
G04 #@! TO.P,U2,12*
G04 #@! TO.N,Net-(U2-Pad12)*
X134112000Y-127508000D03*
G04 #@! TO.P,U2,4*
G04 #@! TO.N,/A11*
X136652000Y-119888000D03*
G04 #@! TO.P,U2,11*
G04 #@! TO.N,/0X04XX*
X131572000Y-127508000D03*
G04 #@! TO.P,U2,3*
G04 #@! TO.N,/A10*
X139192000Y-119888000D03*
G04 #@! TO.P,U2,10*
G04 #@! TO.N,Net-(U2-Pad10)*
X129032000Y-127508000D03*
G04 #@! TO.P,U2,2*
G04 #@! TO.N,/A9*
X141732000Y-119888000D03*
G04 #@! TO.P,U2,9*
G04 #@! TO.N,Net-(U2-Pad9)*
X126492000Y-127508000D03*
D14*
G04 #@! TO.P,U2,1*
G04 #@! TO.N,/A8*
X144272000Y-119888000D03*
G04 #@! TD*
D13*
G04 #@! TO.P,U1,16*
G04 #@! TO.N,/5+*
X170688000Y-127508000D03*
G04 #@! TO.P,U1,8*
G04 #@! TO.N,/GND*
X152908000Y-119888000D03*
G04 #@! TO.P,U1,15*
G04 #@! TO.N,/0X0XXX*
X168148000Y-127508000D03*
G04 #@! TO.P,U1,7*
G04 #@! TO.N,Net-(U1-Pad7)*
X155448000Y-119888000D03*
G04 #@! TO.P,U1,14*
G04 #@! TO.N,Net-(U1-Pad14)*
X165608000Y-127508000D03*
G04 #@! TO.P,U1,6*
G04 #@! TO.N,/5+*
X157988000Y-119888000D03*
G04 #@! TO.P,U1,13*
G04 #@! TO.N,Net-(U1-Pad13)*
X163068000Y-127508000D03*
G04 #@! TO.P,U1,5*
G04 #@! TO.N,/GND*
X160528000Y-119888000D03*
G04 #@! TO.P,U1,12*
G04 #@! TO.N,Net-(U1-Pad12)*
X160528000Y-127508000D03*
G04 #@! TO.P,U1,4*
G04 #@! TO.N,/A15*
X163068000Y-119888000D03*
G04 #@! TO.P,U1,11*
G04 #@! TO.N,Net-(U1-Pad11)*
X157988000Y-127508000D03*
G04 #@! TO.P,U1,3*
G04 #@! TO.N,/A14*
X165608000Y-119888000D03*
G04 #@! TO.P,U1,10*
G04 #@! TO.N,Net-(U1-Pad10)*
X155448000Y-127508000D03*
G04 #@! TO.P,U1,2*
G04 #@! TO.N,/A13*
X168148000Y-119888000D03*
G04 #@! TO.P,U1,9*
G04 #@! TO.N,Net-(U1-Pad9)*
X152908000Y-127508000D03*
D14*
G04 #@! TO.P,U1,1*
G04 #@! TO.N,/A12*
X170688000Y-119888000D03*
G04 #@! TD*
D15*
G04 #@! TO.P,J2,16*
G04 #@! TO.N,/GND*
X125984000Y-69596000D03*
G04 #@! TO.P,J2,15*
G04 #@! TO.N,/5+*
X123444000Y-69596000D03*
G04 #@! TO.P,J2,14*
G04 #@! TO.N,/PA7*
X120904000Y-69596000D03*
G04 #@! TO.P,J2,13*
G04 #@! TO.N,/PA6*
X118364000Y-69596000D03*
G04 #@! TO.P,J2,12*
G04 #@! TO.N,/PA5*
X115824000Y-69596000D03*
G04 #@! TO.P,J2,11*
G04 #@! TO.N,/PA4*
X113284000Y-69596000D03*
G04 #@! TO.P,J2,10*
G04 #@! TO.N,/PA3*
X110744000Y-69596000D03*
G04 #@! TO.P,J2,9*
G04 #@! TO.N,/PA2*
X108204000Y-69596000D03*
G04 #@! TO.P,J2,8*
G04 #@! TO.N,/PA1*
X105664000Y-69596000D03*
G04 #@! TO.P,J2,7*
G04 #@! TO.N,/PA0*
X103124000Y-69596000D03*
G04 #@! TO.P,J2,6*
G04 #@! TO.N,/LCD_EN*
X100584000Y-69596000D03*
G04 #@! TO.P,J2,5*
G04 #@! TO.N,/LCD_RW*
X98044000Y-69596000D03*
G04 #@! TO.P,J2,4*
G04 #@! TO.N,/LCD_RS*
X95504000Y-69596000D03*
G04 #@! TO.P,J2,3*
G04 #@! TO.N,/CONTRAST*
X92964000Y-69596000D03*
G04 #@! TO.P,J2,2*
G04 #@! TO.N,/5+*
X90424000Y-69596000D03*
D16*
G04 #@! TO.P,J2,1*
G04 #@! TO.N,/GND*
X87884000Y-69596000D03*
G04 #@! TD*
D17*
G04 #@! TO.P,C4,2*
G04 #@! TO.N,/5+*
X173990000Y-127508000D03*
G04 #@! TO.P,C4,1*
G04 #@! TO.N,/GND*
X173990000Y-122508000D03*
G04 #@! TD*
G04 #@! TO.P,C3,2*
G04 #@! TO.N,/5+*
X147574000Y-127508000D03*
G04 #@! TO.P,C3,1*
G04 #@! TO.N,/GND*
X147574000Y-122508000D03*
G04 #@! TD*
G04 #@! TO.P,C2,2*
G04 #@! TO.N,/5+*
X121158000Y-127508000D03*
G04 #@! TO.P,C2,1*
G04 #@! TO.N,/GND*
X121158000Y-122508000D03*
G04 #@! TD*
G04 #@! TO.P,C1,2*
G04 #@! TO.N,/5+*
X126492000Y-106934000D03*
G04 #@! TO.P,C1,1*
G04 #@! TO.N,/GND*
X121492000Y-106934000D03*
G04 #@! TD*
D18*
G04 #@! TO.N,/5+*
X127762000Y-106934000D03*
X127762000Y-73914000D03*
X90424000Y-73914000D03*
X123444000Y-73914000D03*
X121158000Y-124206000D03*
X182880000Y-124206000D03*
X173990000Y-124206000D03*
X157988000Y-124206000D03*
X147574000Y-124206000D03*
X131572000Y-124206000D03*
X105156000Y-124206000D03*
X127762000Y-124206000D03*
X173990000Y-139446000D03*
X169164000Y-139446000D03*
X101346000Y-124206000D03*
G04 #@! TO.N,/GND*
X146812000Y-74930000D03*
X87884000Y-74930000D03*
X125984000Y-74930000D03*
X100076000Y-122682000D03*
X152908000Y-122682000D03*
X160528000Y-122682000D03*
X126492000Y-122682000D03*
X172212000Y-122682000D03*
X172212000Y-125730000D03*
X172720000Y-138430000D03*
X146812000Y-100330000D03*
X122682000Y-100330000D03*
X122682000Y-122682000D03*
X151638000Y-122682000D03*
G04 #@! TO.N,/A0*
X97028000Y-140970000D03*
X97028000Y-91948000D03*
X141732000Y-91948000D03*
G04 #@! TO.N,/A1*
X97790000Y-140208000D03*
X97790000Y-92710000D03*
X144272000Y-92710000D03*
G04 #@! TO.N,/A4*
X107188000Y-140970000D03*
G04 #@! TO.N,/A5*
X109728000Y-140970000D03*
X109728000Y-130556000D03*
X116586000Y-130556000D03*
G04 #@! TO.N,/A6*
X112268000Y-140970000D03*
G04 #@! TO.N,/A7*
X114808000Y-140970000D03*
X114808000Y-132080000D03*
X111506000Y-132080000D03*
G04 #@! TO.N,/A8*
X117348000Y-140970000D03*
X117348000Y-131572000D03*
X143002000Y-131572000D03*
G04 #@! TO.N,/A9*
X119888000Y-140970000D03*
X119888000Y-132334000D03*
X140462000Y-132334000D03*
G04 #@! TO.N,/A10*
X122428000Y-140970000D03*
X122428000Y-133096000D03*
X137922000Y-133096000D03*
G04 #@! TO.N,/A11*
X124968000Y-140970000D03*
X124968000Y-133858000D03*
X135382000Y-133858000D03*
G04 #@! TO.N,/A12*
X127508000Y-140970000D03*
X169418000Y-137160000D03*
X127508000Y-137160000D03*
G04 #@! TO.N,/A13*
X130048000Y-140970000D03*
X166878000Y-136398000D03*
X130048000Y-136398000D03*
G04 #@! TO.N,/A14*
X132588000Y-140970000D03*
X164338000Y-135636000D03*
X132588000Y-135636000D03*
G04 #@! TO.N,/A15*
X135128000Y-140970000D03*
X161798000Y-134874000D03*
X135128000Y-134874000D03*
G04 #@! TO.N,/IORD*
X140208000Y-139446000D03*
X150622000Y-139446000D03*
G04 #@! TO.N,/IOWR*
X142748000Y-138684000D03*
X151892000Y-107696000D03*
X149860000Y-107696000D03*
X149860000Y-138684000D03*
G04 #@! TO.N,/RESET*
X149098000Y-137922000D03*
X171450000Y-137922000D03*
G04 #@! TO.N,/PA7*
X153162000Y-78486000D03*
X120904000Y-78486000D03*
G04 #@! TO.N,/PA6*
X155702000Y-79248000D03*
X118364000Y-79248000D03*
G04 #@! TO.N,/PA5*
X158242000Y-80010000D03*
X115824000Y-80010000D03*
G04 #@! TO.N,/PA4*
X160782000Y-80772000D03*
X113284000Y-80772000D03*
G04 #@! TO.N,/PA3*
X162052000Y-81534000D03*
X110744000Y-81534000D03*
G04 #@! TO.N,/PA2*
X159512000Y-82296000D03*
X108204000Y-82296000D03*
G04 #@! TO.N,/PA1*
X156972000Y-83058000D03*
X105664000Y-83058000D03*
G04 #@! TO.N,/PA0*
X154432000Y-83820000D03*
X103124000Y-83820000D03*
G04 #@! TO.N,/LCD_EN*
X118872000Y-84582000D03*
X100584000Y-84582000D03*
G04 #@! TO.N,/LCD_RW*
X116332000Y-85344000D03*
X98044000Y-85344000D03*
G04 #@! TO.N,/LCD_RS*
X113792000Y-86106000D03*
X95504000Y-86106000D03*
G04 #@! TO.N,/CONTRAST*
X187452000Y-115824000D03*
X92964000Y-115824000D03*
G04 #@! TO.N,/0X0XXX*
X134112000Y-125476000D03*
X168148000Y-125476000D03*
G04 #@! TO.N,/0X04XX*
X131572000Y-125476000D03*
X107696000Y-125476000D03*
G04 #@! TO.N,/0X044X*
X149352000Y-94996000D03*
X111506000Y-94996000D03*
G04 #@! TO.N,/D0*
X175768000Y-130810000D03*
X175768000Y-109728000D03*
X146812000Y-109728000D03*
X152908000Y-140970000D03*
X152908000Y-130810000D03*
G04 #@! TO.N,/D1*
X176530000Y-131572000D03*
X176530000Y-110490000D03*
X144272000Y-110490000D03*
X155448000Y-140970000D03*
X155448000Y-131572000D03*
G04 #@! TO.N,/STBA*
X131572000Y-93472000D03*
X116332000Y-93472000D03*
G04 #@! TO.N,/D2*
X177292000Y-132334000D03*
X177292000Y-111252000D03*
X141732000Y-111252000D03*
X157988000Y-140970000D03*
X157988000Y-132334000D03*
G04 #@! TO.N,/D3*
X178054000Y-133096000D03*
X178054000Y-112014000D03*
X139192000Y-112014000D03*
X160528000Y-140970000D03*
X160528000Y-133096000D03*
G04 #@! TO.N,/ACKA*
X136652000Y-94234000D03*
X118872000Y-94234000D03*
G04 #@! TO.N,/D4*
X178816000Y-133858000D03*
X178816000Y-112776000D03*
X136652000Y-112776000D03*
X163068000Y-140970000D03*
X163068000Y-133858000D03*
G04 #@! TO.N,/D5*
X179578000Y-134620000D03*
X179578000Y-113538000D03*
X134112000Y-113538000D03*
X165608000Y-140970000D03*
X165608000Y-134620000D03*
G04 #@! TO.N,/D6*
X180340000Y-135382000D03*
X180340000Y-114300000D03*
X131572000Y-114300000D03*
X168148000Y-135382000D03*
X168148014Y-140462000D03*
G04 #@! TO.N,/D7*
X181102000Y-136144000D03*
X181102000Y-115062000D03*
X129032000Y-115062000D03*
X170688000Y-140970000D03*
X170688000Y-136144000D03*
G04 #@! TD*
D19*
G04 #@! TO.N,/5+*
X126492000Y-106934000D02*
X127762000Y-106934000D01*
X127762000Y-73914000D02*
X90424000Y-73914000D01*
X173990000Y-127508000D02*
X170688000Y-127508000D01*
X144272000Y-127508000D02*
X147574000Y-127508000D01*
X121158000Y-127508000D02*
X117856000Y-127508000D01*
X121158000Y-124206000D02*
X105156000Y-124206000D01*
X121158000Y-124206000D02*
X131572000Y-124206000D01*
X173990000Y-124206000D02*
X182880000Y-124206000D01*
X157988000Y-124206000D02*
X173990000Y-124206000D01*
X147574000Y-124206000D02*
X157988000Y-124206000D01*
X131572000Y-124206000D02*
X147574000Y-124206000D01*
X173990000Y-139446000D02*
X169164000Y-139446000D01*
X101346000Y-124206000D02*
X105156000Y-124206000D01*
G04 #@! TO.N,/GND*
X146812000Y-74930000D02*
X87884000Y-74930000D01*
X173990000Y-122508000D02*
X173990000Y-122682000D01*
X121158000Y-122508000D02*
X121158000Y-122682000D01*
X121158000Y-122682000D02*
X100076000Y-122682000D01*
X147574000Y-122508000D02*
X147574000Y-122682000D01*
X147574000Y-122682000D02*
X126492000Y-122682000D01*
X173990000Y-122682000D02*
X172212000Y-122682000D01*
X152908000Y-122682000D02*
X151638000Y-122682000D01*
X126492000Y-122682000D02*
X121158000Y-122682000D01*
X172212000Y-122682000D02*
X152908000Y-122682000D01*
X182626000Y-125730000D02*
X182880000Y-125984000D01*
X172212000Y-125730000D02*
X182626000Y-125730000D01*
X193294000Y-138430000D02*
X172720000Y-138430000D01*
X146812000Y-100330000D02*
X122682000Y-100330000D01*
X151638000Y-122682000D02*
X147574000Y-122682000D01*
D20*
G04 #@! TO.N,/A0*
X97028000Y-146050000D02*
X97028000Y-140970000D01*
X97028000Y-91948000D02*
X141732000Y-91948000D01*
G04 #@! TO.N,/A1*
X99568000Y-141986000D02*
X97790000Y-140208000D01*
X99568000Y-146050000D02*
X99568000Y-141986000D01*
X97790000Y-92710000D02*
X144272000Y-92710000D01*
G04 #@! TO.N,/A4*
X107188000Y-146050000D02*
X107188000Y-140970000D01*
G04 #@! TO.N,/A5*
X109728000Y-146050000D02*
X109728000Y-140970000D01*
X109728000Y-130556000D02*
X116586000Y-130556000D01*
G04 #@! TO.N,/A6*
X112268000Y-146050000D02*
X112268000Y-140970000D01*
G04 #@! TO.N,/A7*
X114808000Y-146050000D02*
X114808000Y-140970000D01*
X111506000Y-132080000D02*
X114808000Y-132080000D01*
G04 #@! TO.N,/A8*
X117348000Y-146050000D02*
X117348000Y-140970000D01*
X117348000Y-131572000D02*
X143002000Y-131572000D01*
G04 #@! TO.N,/A9*
X119888000Y-146050000D02*
X119888000Y-140970000D01*
X119888000Y-132334000D02*
X140462000Y-132334000D01*
G04 #@! TO.N,/A10*
X122428000Y-146050000D02*
X122428000Y-140970000D01*
X122428000Y-133096000D02*
X137922000Y-133096000D01*
G04 #@! TO.N,/A11*
X124968000Y-146050000D02*
X124968000Y-140970000D01*
X124968000Y-133858000D02*
X135382000Y-133858000D01*
G04 #@! TO.N,/A12*
X127508000Y-146050000D02*
X127508000Y-140970000D01*
X169418000Y-137160000D02*
X127508000Y-137160000D01*
G04 #@! TO.N,/A13*
X130048000Y-146050000D02*
X130048000Y-140970000D01*
X166878000Y-136398000D02*
X130048000Y-136398000D01*
G04 #@! TO.N,/A14*
X132588000Y-146050000D02*
X132588000Y-140970000D01*
X164338000Y-135636000D02*
X132588000Y-135636000D01*
G04 #@! TO.N,/A15*
X135128000Y-146050000D02*
X135128000Y-140970000D01*
X161798000Y-134874000D02*
X135128000Y-134874000D01*
G04 #@! TO.N,/IORD*
X140208000Y-139446000D02*
X150622000Y-139446000D01*
G04 #@! TO.N,/IOWR*
X151892000Y-107696000D02*
X149860000Y-107696000D01*
X142748000Y-138684000D02*
X149860000Y-138684000D01*
G04 #@! TO.N,/RESET*
X149098000Y-137922000D02*
X171450000Y-137922000D01*
G04 #@! TO.N,/PA7*
X153162000Y-78486000D02*
X120904000Y-78486000D01*
G04 #@! TO.N,/PA6*
X155702000Y-79248000D02*
X118364000Y-79248000D01*
G04 #@! TO.N,/PA5*
X158242000Y-80010000D02*
X115824000Y-80010000D01*
G04 #@! TO.N,/PA4*
X160782000Y-80772000D02*
X113284000Y-80772000D01*
G04 #@! TO.N,/PA3*
X162052000Y-81534000D02*
X110744000Y-81534000D01*
G04 #@! TO.N,/PA2*
X159512000Y-82296000D02*
X108204000Y-82296000D01*
G04 #@! TO.N,/PA1*
X156972000Y-83058000D02*
X105664000Y-83058000D01*
G04 #@! TO.N,/PA0*
X154432000Y-83820000D02*
X103124000Y-83820000D01*
G04 #@! TO.N,/LCD_EN*
X118872000Y-84582000D02*
X100584000Y-84582000D01*
G04 #@! TO.N,/LCD_RW*
X116332000Y-85344000D02*
X98044000Y-85344000D01*
G04 #@! TO.N,/LCD_RS*
X113792000Y-86106000D02*
X95504000Y-86106000D01*
G04 #@! TO.N,/CONTRAST*
X187452000Y-115824000D02*
X92964000Y-115824000D01*
G04 #@! TO.N,/0X0XXX*
X134112000Y-125476000D02*
X168148000Y-125476000D01*
G04 #@! TO.N,/0X04XX*
X131572000Y-125476000D02*
X107696000Y-125476000D01*
G04 #@! TO.N,/0X044X*
X149352000Y-94996000D02*
X111506000Y-94996000D01*
G04 #@! TO.N,/D0*
X175768000Y-109728000D02*
X146812000Y-109728000D01*
X152908000Y-146050000D02*
X152908000Y-140970000D01*
X152908000Y-130810000D02*
X175768000Y-130810000D01*
G04 #@! TO.N,/D1*
X176530000Y-110490000D02*
X144272000Y-110490000D01*
X155448000Y-146050000D02*
X155448000Y-140970000D01*
X155448000Y-131572000D02*
X176530000Y-131572000D01*
G04 #@! TO.N,/STBA*
X131572000Y-93472000D02*
X116332000Y-93472000D01*
G04 #@! TO.N,/D2*
X177292000Y-111252000D02*
X141732000Y-111252000D01*
X157988000Y-146050000D02*
X157988000Y-140970000D01*
X157988000Y-132334000D02*
X177292000Y-132334000D01*
G04 #@! TO.N,/D3*
X178054000Y-112014000D02*
X139192000Y-112014000D01*
X160528000Y-146050000D02*
X160528000Y-140970000D01*
X160528000Y-133096000D02*
X178054000Y-133096000D01*
G04 #@! TO.N,/ACKA*
X136652000Y-94234000D02*
X118872000Y-94234000D01*
G04 #@! TO.N,/D4*
X178816000Y-112776000D02*
X136652000Y-112776000D01*
X163068000Y-146050000D02*
X163068000Y-140970000D01*
X163068000Y-133858000D02*
X178816000Y-133858000D01*
G04 #@! TO.N,/D5*
X179578000Y-113538000D02*
X134112000Y-113538000D01*
X165608000Y-146050000D02*
X165608000Y-140970000D01*
X165608000Y-134620000D02*
X179578000Y-134620000D01*
G04 #@! TO.N,/D6*
X180340000Y-114300000D02*
X131572000Y-114300000D01*
X168148000Y-135382000D02*
X180340000Y-135382000D01*
X168148000Y-146050000D02*
X168148000Y-140462014D01*
X168148000Y-140462014D02*
X168148014Y-140462000D01*
G04 #@! TO.N,/D7*
X181102000Y-115062000D02*
X129032000Y-115062000D01*
X170688000Y-146050000D02*
X170688000Y-140970000D01*
X170688000Y-136144000D02*
X181102000Y-136144000D01*
G04 #@! TD*
M02*
