G04 #@! TF.GenerationSoftware,KiCad,Pcbnew,(5.1.8)-1*
G04 #@! TF.CreationDate,2022-04-25T13:15:40-06:00*
G04 #@! TF.ProjectId,LCD 8255,4c434420-3832-4353-952e-6b696361645f,rev?*
G04 #@! TF.SameCoordinates,Original*
G04 #@! TF.FileFunction,Legend,Top*
G04 #@! TF.FilePolarity,Positive*
%FSLAX46Y46*%
G04 Gerber Fmt 4.6, Leading zero omitted, Abs format (unit mm)*
G04 Created by KiCad (PCBNEW (5.1.8)-1) date 2022-04-25 13:15:40*
%MOMM*%
%LPD*%
G01*
G04 APERTURE LIST*
%ADD10C,0.150000*%
%ADD11C,0.300000*%
%ADD12C,0.120000*%
G04 APERTURE END LIST*
D10*
X163885619Y-91615238D02*
X164885619Y-91615238D01*
X164885619Y-91996190D01*
X164838000Y-92091428D01*
X164790380Y-92139047D01*
X164695142Y-92186666D01*
X164552285Y-92186666D01*
X164457047Y-92139047D01*
X164409428Y-92091428D01*
X164361809Y-91996190D01*
X164361809Y-91615238D01*
X164885619Y-92805714D02*
X164885619Y-92996190D01*
X164838000Y-93091428D01*
X164742761Y-93186666D01*
X164552285Y-93234285D01*
X164218952Y-93234285D01*
X164028476Y-93186666D01*
X163933238Y-93091428D01*
X163885619Y-92996190D01*
X163885619Y-92805714D01*
X163933238Y-92710476D01*
X164028476Y-92615238D01*
X164218952Y-92567619D01*
X164552285Y-92567619D01*
X164742761Y-92615238D01*
X164838000Y-92710476D01*
X164885619Y-92805714D01*
X163885619Y-94234285D02*
X164361809Y-93900952D01*
X163885619Y-93662857D02*
X164885619Y-93662857D01*
X164885619Y-94043809D01*
X164838000Y-94139047D01*
X164790380Y-94186666D01*
X164695142Y-94234285D01*
X164552285Y-94234285D01*
X164457047Y-94186666D01*
X164409428Y-94139047D01*
X164361809Y-94043809D01*
X164361809Y-93662857D01*
X164885619Y-94520000D02*
X164885619Y-95091428D01*
X163885619Y-94805714D02*
X164885619Y-94805714D01*
X164885619Y-96377142D02*
X164885619Y-96472380D01*
X164838000Y-96567619D01*
X164790380Y-96615238D01*
X164695142Y-96662857D01*
X164504666Y-96710476D01*
X164266571Y-96710476D01*
X164076095Y-96662857D01*
X163980857Y-96615238D01*
X163933238Y-96567619D01*
X163885619Y-96472380D01*
X163885619Y-96377142D01*
X163933238Y-96281904D01*
X163980857Y-96234285D01*
X164076095Y-96186666D01*
X164266571Y-96139047D01*
X164504666Y-96139047D01*
X164695142Y-96186666D01*
X164790380Y-96234285D01*
X164838000Y-96281904D01*
X164885619Y-96377142D01*
X164885619Y-97043809D02*
X163885619Y-97710476D01*
X164885619Y-97710476D02*
X163885619Y-97043809D01*
X164885619Y-98281904D02*
X164885619Y-98377142D01*
X164838000Y-98472380D01*
X164790380Y-98520000D01*
X164695142Y-98567619D01*
X164504666Y-98615238D01*
X164266571Y-98615238D01*
X164076095Y-98567619D01*
X163980857Y-98520000D01*
X163933238Y-98472380D01*
X163885619Y-98377142D01*
X163885619Y-98281904D01*
X163933238Y-98186666D01*
X163980857Y-98139047D01*
X164076095Y-98091428D01*
X164266571Y-98043809D01*
X164504666Y-98043809D01*
X164695142Y-98091428D01*
X164790380Y-98139047D01*
X164838000Y-98186666D01*
X164885619Y-98281904D01*
X164552285Y-99472380D02*
X163885619Y-99472380D01*
X164933238Y-99234285D02*
X164218952Y-98996190D01*
X164218952Y-99615238D01*
X164552285Y-100424761D02*
X163885619Y-100424761D01*
X164933238Y-100186666D02*
X164218952Y-99948571D01*
X164218952Y-100567619D01*
X164885619Y-101139047D02*
X164885619Y-101234285D01*
X164838000Y-101329523D01*
X164790380Y-101377142D01*
X164695142Y-101424761D01*
X164504666Y-101472380D01*
X164266571Y-101472380D01*
X164076095Y-101424761D01*
X163980857Y-101377142D01*
X163933238Y-101329523D01*
X163885619Y-101234285D01*
X163885619Y-101139047D01*
X163933238Y-101043809D01*
X163980857Y-100996190D01*
X164076095Y-100948571D01*
X164266571Y-100900952D01*
X164504666Y-100900952D01*
X164695142Y-100948571D01*
X164790380Y-100996190D01*
X164838000Y-101043809D01*
X164885619Y-101139047D01*
D11*
X167938142Y-68457857D02*
X168438142Y-68457857D01*
X168652428Y-69243571D02*
X167938142Y-69243571D01*
X167938142Y-67743571D01*
X168652428Y-67743571D01*
X169295285Y-69243571D02*
X169295285Y-67743571D01*
X169795285Y-68815000D01*
X170295285Y-67743571D01*
X170295285Y-69243571D01*
X171009571Y-69243571D02*
X171009571Y-67743571D01*
X171509571Y-68815000D01*
X172009571Y-67743571D01*
X172009571Y-69243571D01*
X174723857Y-69100714D02*
X174652428Y-69172142D01*
X174438142Y-69243571D01*
X174295285Y-69243571D01*
X174081000Y-69172142D01*
X173938142Y-69029285D01*
X173866714Y-68886428D01*
X173795285Y-68600714D01*
X173795285Y-68386428D01*
X173866714Y-68100714D01*
X173938142Y-67957857D01*
X174081000Y-67815000D01*
X174295285Y-67743571D01*
X174438142Y-67743571D01*
X174652428Y-67815000D01*
X174723857Y-67886428D01*
X175652428Y-67743571D02*
X175938142Y-67743571D01*
X176081000Y-67815000D01*
X176223857Y-67957857D01*
X176295285Y-68243571D01*
X176295285Y-68743571D01*
X176223857Y-69029285D01*
X176081000Y-69172142D01*
X175938142Y-69243571D01*
X175652428Y-69243571D01*
X175509571Y-69172142D01*
X175366714Y-69029285D01*
X175295285Y-68743571D01*
X175295285Y-68243571D01*
X175366714Y-67957857D01*
X175509571Y-67815000D01*
X175652428Y-67743571D01*
X176938142Y-69243571D02*
X176938142Y-67743571D01*
X177438142Y-68815000D01*
X177938142Y-67743571D01*
X177938142Y-69243571D01*
X178652428Y-69243571D02*
X178652428Y-67743571D01*
X179223857Y-67743571D01*
X179366714Y-67815000D01*
X179438142Y-67886428D01*
X179509571Y-68029285D01*
X179509571Y-68243571D01*
X179438142Y-68386428D01*
X179366714Y-68457857D01*
X179223857Y-68529285D01*
X178652428Y-68529285D01*
X180152428Y-67743571D02*
X180152428Y-68957857D01*
X180223857Y-69100714D01*
X180295285Y-69172142D01*
X180438142Y-69243571D01*
X180723857Y-69243571D01*
X180866714Y-69172142D01*
X180938142Y-69100714D01*
X181009571Y-68957857D01*
X181009571Y-67743571D01*
X181509571Y-67743571D02*
X182366714Y-67743571D01*
X181938142Y-69243571D02*
X181938142Y-67743571D01*
X182866714Y-68457857D02*
X183366714Y-68457857D01*
X183581000Y-69243571D02*
X182866714Y-69243571D01*
X182866714Y-67743571D01*
X183581000Y-67743571D01*
X185081000Y-69243571D02*
X184581000Y-68529285D01*
X184223857Y-69243571D02*
X184223857Y-67743571D01*
X184795285Y-67743571D01*
X184938142Y-67815000D01*
X185009571Y-67886428D01*
X185081000Y-68029285D01*
X185081000Y-68243571D01*
X185009571Y-68386428D01*
X184938142Y-68457857D01*
X184795285Y-68529285D01*
X184223857Y-68529285D01*
X185652428Y-69172142D02*
X185866714Y-69243571D01*
X186223857Y-69243571D01*
X186366714Y-69172142D01*
X186438142Y-69100714D01*
X186509571Y-68957857D01*
X186509571Y-68815000D01*
X186438142Y-68672142D01*
X186366714Y-68600714D01*
X186223857Y-68529285D01*
X185938142Y-68457857D01*
X185795285Y-68386428D01*
X185723857Y-68315000D01*
X185652428Y-68172142D01*
X185652428Y-68029285D01*
X185723857Y-67886428D01*
X185795285Y-67815000D01*
X185938142Y-67743571D01*
X186295285Y-67743571D01*
X186509571Y-67815000D01*
X168152428Y-70936428D02*
X168009571Y-70865000D01*
X167938142Y-70793571D01*
X167866714Y-70650714D01*
X167866714Y-70579285D01*
X167938142Y-70436428D01*
X168009571Y-70365000D01*
X168152428Y-70293571D01*
X168438142Y-70293571D01*
X168581000Y-70365000D01*
X168652428Y-70436428D01*
X168723857Y-70579285D01*
X168723857Y-70650714D01*
X168652428Y-70793571D01*
X168581000Y-70865000D01*
X168438142Y-70936428D01*
X168152428Y-70936428D01*
X168009571Y-71007857D01*
X167938142Y-71079285D01*
X167866714Y-71222142D01*
X167866714Y-71507857D01*
X167938142Y-71650714D01*
X168009571Y-71722142D01*
X168152428Y-71793571D01*
X168438142Y-71793571D01*
X168581000Y-71722142D01*
X168652428Y-71650714D01*
X168723857Y-71507857D01*
X168723857Y-71222142D01*
X168652428Y-71079285D01*
X168581000Y-71007857D01*
X168438142Y-70936428D01*
X169295285Y-70436428D02*
X169366714Y-70365000D01*
X169509571Y-70293571D01*
X169866714Y-70293571D01*
X170009571Y-70365000D01*
X170081000Y-70436428D01*
X170152428Y-70579285D01*
X170152428Y-70722142D01*
X170081000Y-70936428D01*
X169223857Y-71793571D01*
X170152428Y-71793571D01*
X171509571Y-70293571D02*
X170795285Y-70293571D01*
X170723857Y-71007857D01*
X170795285Y-70936428D01*
X170938142Y-70865000D01*
X171295285Y-70865000D01*
X171438142Y-70936428D01*
X171509571Y-71007857D01*
X171581000Y-71150714D01*
X171581000Y-71507857D01*
X171509571Y-71650714D01*
X171438142Y-71722142D01*
X171295285Y-71793571D01*
X170938142Y-71793571D01*
X170795285Y-71722142D01*
X170723857Y-71650714D01*
X172938142Y-70293571D02*
X172223857Y-70293571D01*
X172152428Y-71007857D01*
X172223857Y-70936428D01*
X172366714Y-70865000D01*
X172723857Y-70865000D01*
X172866714Y-70936428D01*
X172938142Y-71007857D01*
X173009571Y-71150714D01*
X173009571Y-71507857D01*
X172938142Y-71650714D01*
X172866714Y-71722142D01*
X172723857Y-71793571D01*
X172366714Y-71793571D01*
X172223857Y-71722142D01*
X172152428Y-71650714D01*
X174795285Y-71222142D02*
X175938142Y-71222142D01*
X176652428Y-70793571D02*
X177795285Y-71222142D01*
X176652428Y-71650714D01*
X180366714Y-71793571D02*
X179652428Y-71793571D01*
X179652428Y-70293571D01*
X181723857Y-71650714D02*
X181652428Y-71722142D01*
X181438142Y-71793571D01*
X181295285Y-71793571D01*
X181081000Y-71722142D01*
X180938142Y-71579285D01*
X180866714Y-71436428D01*
X180795285Y-71150714D01*
X180795285Y-70936428D01*
X180866714Y-70650714D01*
X180938142Y-70507857D01*
X181081000Y-70365000D01*
X181295285Y-70293571D01*
X181438142Y-70293571D01*
X181652428Y-70365000D01*
X181723857Y-70436428D01*
X182366714Y-71793571D02*
X182366714Y-70293571D01*
X182723857Y-70293571D01*
X182938142Y-70365000D01*
X183081000Y-70507857D01*
X183152428Y-70650714D01*
X183223857Y-70936428D01*
X183223857Y-71150714D01*
X183152428Y-71436428D01*
X183081000Y-71579285D01*
X182938142Y-71722142D01*
X182723857Y-71793571D01*
X182366714Y-71793571D01*
X168795285Y-74200714D02*
X168723857Y-74272142D01*
X168509571Y-74343571D01*
X168366714Y-74343571D01*
X168152428Y-74272142D01*
X168009571Y-74129285D01*
X167938142Y-73986428D01*
X167866714Y-73700714D01*
X167866714Y-73486428D01*
X167938142Y-73200714D01*
X168009571Y-73057857D01*
X168152428Y-72915000D01*
X168366714Y-72843571D01*
X168509571Y-72843571D01*
X168723857Y-72915000D01*
X168795285Y-72986428D01*
X169652428Y-74343571D02*
X169509571Y-74272142D01*
X169438142Y-74200714D01*
X169366714Y-74057857D01*
X169366714Y-73629285D01*
X169438142Y-73486428D01*
X169509571Y-73415000D01*
X169652428Y-73343571D01*
X169866714Y-73343571D01*
X170009571Y-73415000D01*
X170081000Y-73486428D01*
X170152428Y-73629285D01*
X170152428Y-74057857D01*
X170081000Y-74200714D01*
X170009571Y-74272142D01*
X169866714Y-74343571D01*
X169652428Y-74343571D01*
X170795285Y-73343571D02*
X170795285Y-74843571D01*
X170795285Y-73415000D02*
X170938142Y-73343571D01*
X171223857Y-73343571D01*
X171366714Y-73415000D01*
X171438142Y-73486428D01*
X171509571Y-73629285D01*
X171509571Y-74057857D01*
X171438142Y-74200714D01*
X171366714Y-74272142D01*
X171223857Y-74343571D01*
X170938142Y-74343571D01*
X170795285Y-74272142D01*
X172009571Y-73343571D02*
X172366714Y-74343571D01*
X172723857Y-73343571D02*
X172366714Y-74343571D01*
X172223857Y-74700714D01*
X172152428Y-74772142D01*
X172009571Y-74843571D01*
X173295285Y-74343571D02*
X173295285Y-73343571D01*
X173295285Y-73629285D02*
X173366714Y-73486428D01*
X173438142Y-73415000D01*
X173581000Y-73343571D01*
X173723857Y-73343571D01*
X174223857Y-74343571D02*
X174223857Y-73343571D01*
X174223857Y-72843571D02*
X174152428Y-72915000D01*
X174223857Y-72986428D01*
X174295285Y-72915000D01*
X174223857Y-72843571D01*
X174223857Y-72986428D01*
X175581000Y-73343571D02*
X175581000Y-74557857D01*
X175509571Y-74700714D01*
X175438142Y-74772142D01*
X175295285Y-74843571D01*
X175081000Y-74843571D01*
X174938142Y-74772142D01*
X175581000Y-74272142D02*
X175438142Y-74343571D01*
X175152428Y-74343571D01*
X175009571Y-74272142D01*
X174938142Y-74200714D01*
X174866714Y-74057857D01*
X174866714Y-73629285D01*
X174938142Y-73486428D01*
X175009571Y-73415000D01*
X175152428Y-73343571D01*
X175438142Y-73343571D01*
X175581000Y-73415000D01*
X176295285Y-74343571D02*
X176295285Y-72843571D01*
X176938142Y-74343571D02*
X176938142Y-73557857D01*
X176866714Y-73415000D01*
X176723857Y-73343571D01*
X176509571Y-73343571D01*
X176366714Y-73415000D01*
X176295285Y-73486428D01*
X177438142Y-73343571D02*
X178009571Y-73343571D01*
X177652428Y-72843571D02*
X177652428Y-74129285D01*
X177723857Y-74272142D01*
X177866714Y-74343571D01*
X178009571Y-74343571D01*
X180081000Y-74915000D02*
X180009571Y-74843571D01*
X179866714Y-74629285D01*
X179795285Y-74486428D01*
X179723857Y-74272142D01*
X179652428Y-73915000D01*
X179652428Y-73629285D01*
X179723857Y-73272142D01*
X179795285Y-73057857D01*
X179866714Y-72915000D01*
X180009571Y-72700714D01*
X180081000Y-72629285D01*
X181509571Y-74200714D02*
X181438142Y-74272142D01*
X181223857Y-74343571D01*
X181081000Y-74343571D01*
X180866714Y-74272142D01*
X180723857Y-74129285D01*
X180652428Y-73986428D01*
X180581000Y-73700714D01*
X180581000Y-73486428D01*
X180652428Y-73200714D01*
X180723857Y-73057857D01*
X180866714Y-72915000D01*
X181081000Y-72843571D01*
X181223857Y-72843571D01*
X181438142Y-72915000D01*
X181509571Y-72986428D01*
X182009571Y-74915000D02*
X182081000Y-74843571D01*
X182223857Y-74629285D01*
X182295285Y-74486428D01*
X182366714Y-74272142D01*
X182438142Y-73915000D01*
X182438142Y-73629285D01*
X182366714Y-73272142D01*
X182295285Y-73057857D01*
X182223857Y-72915000D01*
X182081000Y-72700714D01*
X182009571Y-72629285D01*
X184223857Y-72986428D02*
X184295285Y-72915000D01*
X184438142Y-72843571D01*
X184795285Y-72843571D01*
X184938142Y-72915000D01*
X185009571Y-72986428D01*
X185081000Y-73129285D01*
X185081000Y-73272142D01*
X185009571Y-73486428D01*
X184152428Y-74343571D01*
X185081000Y-74343571D01*
X186009571Y-72843571D02*
X186152428Y-72843571D01*
X186295285Y-72915000D01*
X186366714Y-72986428D01*
X186438142Y-73129285D01*
X186509571Y-73415000D01*
X186509571Y-73772142D01*
X186438142Y-74057857D01*
X186366714Y-74200714D01*
X186295285Y-74272142D01*
X186152428Y-74343571D01*
X186009571Y-74343571D01*
X185866714Y-74272142D01*
X185795285Y-74200714D01*
X185723857Y-74057857D01*
X185652428Y-73772142D01*
X185652428Y-73415000D01*
X185723857Y-73129285D01*
X185795285Y-72986428D01*
X185866714Y-72915000D01*
X186009571Y-72843571D01*
X187081000Y-72986428D02*
X187152428Y-72915000D01*
X187295285Y-72843571D01*
X187652428Y-72843571D01*
X187795285Y-72915000D01*
X187866714Y-72986428D01*
X187938142Y-73129285D01*
X187938142Y-73272142D01*
X187866714Y-73486428D01*
X187009571Y-74343571D01*
X187938142Y-74343571D01*
X188509571Y-72986428D02*
X188581000Y-72915000D01*
X188723857Y-72843571D01*
X189081000Y-72843571D01*
X189223857Y-72915000D01*
X189295285Y-72986428D01*
X189366714Y-73129285D01*
X189366714Y-73272142D01*
X189295285Y-73486428D01*
X188438142Y-74343571D01*
X189366714Y-74343571D01*
X191152428Y-73557857D02*
X191652428Y-73557857D01*
X191866714Y-74343571D02*
X191152428Y-74343571D01*
X191152428Y-72843571D01*
X191866714Y-72843571D01*
X192509571Y-74343571D02*
X192509571Y-72843571D01*
X193009571Y-73915000D01*
X193509571Y-72843571D01*
X193509571Y-74343571D01*
X194223857Y-74343571D02*
X194223857Y-72843571D01*
X194723857Y-73915000D01*
X195223857Y-72843571D01*
X195223857Y-74343571D01*
X167795285Y-75893571D02*
X168081000Y-76893571D01*
X168366714Y-76179285D01*
X168652428Y-76893571D01*
X168938142Y-75893571D01*
X169366714Y-75893571D02*
X169652428Y-76893571D01*
X169938142Y-76179285D01*
X170223857Y-76893571D01*
X170509571Y-75893571D01*
X170938142Y-75893571D02*
X171223857Y-76893571D01*
X171509571Y-76179285D01*
X171795285Y-76893571D01*
X172081000Y-75893571D01*
X172652428Y-76750714D02*
X172723857Y-76822142D01*
X172652428Y-76893571D01*
X172581000Y-76822142D01*
X172652428Y-76750714D01*
X172652428Y-76893571D01*
X173366714Y-76893571D02*
X173366714Y-75393571D01*
X174009571Y-76893571D02*
X174009571Y-76107857D01*
X173938142Y-75965000D01*
X173795285Y-75893571D01*
X173581000Y-75893571D01*
X173438142Y-75965000D01*
X173366714Y-76036428D01*
X174938142Y-76893571D02*
X174795285Y-76822142D01*
X174723857Y-76750714D01*
X174652428Y-76607857D01*
X174652428Y-76179285D01*
X174723857Y-76036428D01*
X174795285Y-75965000D01*
X174938142Y-75893571D01*
X175152428Y-75893571D01*
X175295285Y-75965000D01*
X175366714Y-76036428D01*
X175438142Y-76179285D01*
X175438142Y-76607857D01*
X175366714Y-76750714D01*
X175295285Y-76822142D01*
X175152428Y-76893571D01*
X174938142Y-76893571D01*
X176081000Y-76893571D02*
X176081000Y-75893571D01*
X176081000Y-76036428D02*
X176152428Y-75965000D01*
X176295285Y-75893571D01*
X176509571Y-75893571D01*
X176652428Y-75965000D01*
X176723857Y-76107857D01*
X176723857Y-76893571D01*
X176723857Y-76107857D02*
X176795285Y-75965000D01*
X176938142Y-75893571D01*
X177152428Y-75893571D01*
X177295285Y-75965000D01*
X177366714Y-76107857D01*
X177366714Y-76893571D01*
X178652428Y-76822142D02*
X178509571Y-76893571D01*
X178223857Y-76893571D01*
X178081000Y-76822142D01*
X178009571Y-76679285D01*
X178009571Y-76107857D01*
X178081000Y-75965000D01*
X178223857Y-75893571D01*
X178509571Y-75893571D01*
X178652428Y-75965000D01*
X178723857Y-76107857D01*
X178723857Y-76250714D01*
X178009571Y-76393571D01*
X179366714Y-76893571D02*
X179366714Y-75393571D01*
X179366714Y-75965000D02*
X179509571Y-75893571D01*
X179795285Y-75893571D01*
X179938142Y-75965000D01*
X180009571Y-76036428D01*
X180081000Y-76179285D01*
X180081000Y-76607857D01*
X180009571Y-76750714D01*
X179938142Y-76822142D01*
X179795285Y-76893571D01*
X179509571Y-76893571D01*
X179366714Y-76822142D01*
X180723857Y-76893571D02*
X180723857Y-75893571D01*
X180723857Y-76179285D02*
X180795285Y-76036428D01*
X180866714Y-75965000D01*
X181009571Y-75893571D01*
X181152428Y-75893571D01*
X182223857Y-76822142D02*
X182081000Y-76893571D01*
X181795285Y-76893571D01*
X181652428Y-76822142D01*
X181581000Y-76679285D01*
X181581000Y-76107857D01*
X181652428Y-75965000D01*
X181795285Y-75893571D01*
X182081000Y-75893571D01*
X182223857Y-75965000D01*
X182295285Y-76107857D01*
X182295285Y-76250714D01*
X181581000Y-76393571D01*
X182795285Y-75893571D02*
X183081000Y-76893571D01*
X183366714Y-76179285D01*
X183652428Y-76893571D01*
X183938142Y-75893571D01*
X184723857Y-76036428D02*
X184581000Y-75965000D01*
X184509571Y-75893571D01*
X184438142Y-75750714D01*
X184438142Y-75679285D01*
X184509571Y-75536428D01*
X184581000Y-75465000D01*
X184723857Y-75393571D01*
X185009571Y-75393571D01*
X185152428Y-75465000D01*
X185223857Y-75536428D01*
X185295285Y-75679285D01*
X185295285Y-75750714D01*
X185223857Y-75893571D01*
X185152428Y-75965000D01*
X185009571Y-76036428D01*
X184723857Y-76036428D01*
X184581000Y-76107857D01*
X184509571Y-76179285D01*
X184438142Y-76322142D01*
X184438142Y-76607857D01*
X184509571Y-76750714D01*
X184581000Y-76822142D01*
X184723857Y-76893571D01*
X185009571Y-76893571D01*
X185152428Y-76822142D01*
X185223857Y-76750714D01*
X185295285Y-76607857D01*
X185295285Y-76322142D01*
X185223857Y-76179285D01*
X185152428Y-76107857D01*
X185009571Y-76036428D01*
X186223857Y-75393571D02*
X186366714Y-75393571D01*
X186509571Y-75465000D01*
X186581000Y-75536428D01*
X186652428Y-75679285D01*
X186723857Y-75965000D01*
X186723857Y-76322142D01*
X186652428Y-76607857D01*
X186581000Y-76750714D01*
X186509571Y-76822142D01*
X186366714Y-76893571D01*
X186223857Y-76893571D01*
X186081000Y-76822142D01*
X186009571Y-76750714D01*
X185938142Y-76607857D01*
X185866714Y-76322142D01*
X185866714Y-75965000D01*
X185938142Y-75679285D01*
X186009571Y-75536428D01*
X186081000Y-75465000D01*
X186223857Y-75393571D01*
X187581000Y-76036428D02*
X187438142Y-75965000D01*
X187366714Y-75893571D01*
X187295285Y-75750714D01*
X187295285Y-75679285D01*
X187366714Y-75536428D01*
X187438142Y-75465000D01*
X187581000Y-75393571D01*
X187866714Y-75393571D01*
X188009571Y-75465000D01*
X188081000Y-75536428D01*
X188152428Y-75679285D01*
X188152428Y-75750714D01*
X188081000Y-75893571D01*
X188009571Y-75965000D01*
X187866714Y-76036428D01*
X187581000Y-76036428D01*
X187438142Y-76107857D01*
X187366714Y-76179285D01*
X187295285Y-76322142D01*
X187295285Y-76607857D01*
X187366714Y-76750714D01*
X187438142Y-76822142D01*
X187581000Y-76893571D01*
X187866714Y-76893571D01*
X188009571Y-76822142D01*
X188081000Y-76750714D01*
X188152428Y-76607857D01*
X188152428Y-76322142D01*
X188081000Y-76179285D01*
X188009571Y-76107857D01*
X187866714Y-76036428D01*
X189009571Y-76036428D02*
X188866714Y-75965000D01*
X188795285Y-75893571D01*
X188723857Y-75750714D01*
X188723857Y-75679285D01*
X188795285Y-75536428D01*
X188866714Y-75465000D01*
X189009571Y-75393571D01*
X189295285Y-75393571D01*
X189438142Y-75465000D01*
X189509571Y-75536428D01*
X189581000Y-75679285D01*
X189581000Y-75750714D01*
X189509571Y-75893571D01*
X189438142Y-75965000D01*
X189295285Y-76036428D01*
X189009571Y-76036428D01*
X188866714Y-76107857D01*
X188795285Y-76179285D01*
X188723857Y-76322142D01*
X188723857Y-76607857D01*
X188795285Y-76750714D01*
X188866714Y-76822142D01*
X189009571Y-76893571D01*
X189295285Y-76893571D01*
X189438142Y-76822142D01*
X189509571Y-76750714D01*
X189581000Y-76607857D01*
X189581000Y-76322142D01*
X189509571Y-76179285D01*
X189438142Y-76107857D01*
X189295285Y-76036428D01*
X190223857Y-76750714D02*
X190295285Y-76822142D01*
X190223857Y-76893571D01*
X190152428Y-76822142D01*
X190223857Y-76750714D01*
X190223857Y-76893571D01*
X191581000Y-76822142D02*
X191438142Y-76893571D01*
X191152428Y-76893571D01*
X191009571Y-76822142D01*
X190938142Y-76750714D01*
X190866714Y-76607857D01*
X190866714Y-76179285D01*
X190938142Y-76036428D01*
X191009571Y-75965000D01*
X191152428Y-75893571D01*
X191438142Y-75893571D01*
X191581000Y-75965000D01*
X192438142Y-76893571D02*
X192295285Y-76822142D01*
X192223857Y-76750714D01*
X192152428Y-76607857D01*
X192152428Y-76179285D01*
X192223857Y-76036428D01*
X192295285Y-75965000D01*
X192438142Y-75893571D01*
X192652428Y-75893571D01*
X192795285Y-75965000D01*
X192866714Y-76036428D01*
X192938142Y-76179285D01*
X192938142Y-76607857D01*
X192866714Y-76750714D01*
X192795285Y-76822142D01*
X192652428Y-76893571D01*
X192438142Y-76893571D01*
X193581000Y-76893571D02*
X193581000Y-75893571D01*
X193581000Y-76036428D02*
X193652428Y-75965000D01*
X193795285Y-75893571D01*
X194009571Y-75893571D01*
X194152428Y-75965000D01*
X194223857Y-76107857D01*
X194223857Y-76893571D01*
X194223857Y-76107857D02*
X194295285Y-75965000D01*
X194438142Y-75893571D01*
X194652428Y-75893571D01*
X194795285Y-75965000D01*
X194866714Y-76107857D01*
X194866714Y-76893571D01*
D10*
X120165904Y-72842380D02*
X120165904Y-71842380D01*
X120404000Y-71842380D01*
X120546857Y-71890000D01*
X120642095Y-71985238D01*
X120689714Y-72080476D01*
X120737333Y-72270952D01*
X120737333Y-72413809D01*
X120689714Y-72604285D01*
X120642095Y-72699523D01*
X120546857Y-72794761D01*
X120404000Y-72842380D01*
X120165904Y-72842380D01*
X121070666Y-71842380D02*
X121737333Y-71842380D01*
X121308761Y-72842380D01*
X117625904Y-72842380D02*
X117625904Y-71842380D01*
X117864000Y-71842380D01*
X118006857Y-71890000D01*
X118102095Y-71985238D01*
X118149714Y-72080476D01*
X118197333Y-72270952D01*
X118197333Y-72413809D01*
X118149714Y-72604285D01*
X118102095Y-72699523D01*
X118006857Y-72794761D01*
X117864000Y-72842380D01*
X117625904Y-72842380D01*
X119054476Y-71842380D02*
X118864000Y-71842380D01*
X118768761Y-71890000D01*
X118721142Y-71937619D01*
X118625904Y-72080476D01*
X118578285Y-72270952D01*
X118578285Y-72651904D01*
X118625904Y-72747142D01*
X118673523Y-72794761D01*
X118768761Y-72842380D01*
X118959238Y-72842380D01*
X119054476Y-72794761D01*
X119102095Y-72747142D01*
X119149714Y-72651904D01*
X119149714Y-72413809D01*
X119102095Y-72318571D01*
X119054476Y-72270952D01*
X118959238Y-72223333D01*
X118768761Y-72223333D01*
X118673523Y-72270952D01*
X118625904Y-72318571D01*
X118578285Y-72413809D01*
X115085904Y-72842380D02*
X115085904Y-71842380D01*
X115324000Y-71842380D01*
X115466857Y-71890000D01*
X115562095Y-71985238D01*
X115609714Y-72080476D01*
X115657333Y-72270952D01*
X115657333Y-72413809D01*
X115609714Y-72604285D01*
X115562095Y-72699523D01*
X115466857Y-72794761D01*
X115324000Y-72842380D01*
X115085904Y-72842380D01*
X116562095Y-71842380D02*
X116085904Y-71842380D01*
X116038285Y-72318571D01*
X116085904Y-72270952D01*
X116181142Y-72223333D01*
X116419238Y-72223333D01*
X116514476Y-72270952D01*
X116562095Y-72318571D01*
X116609714Y-72413809D01*
X116609714Y-72651904D01*
X116562095Y-72747142D01*
X116514476Y-72794761D01*
X116419238Y-72842380D01*
X116181142Y-72842380D01*
X116085904Y-72794761D01*
X116038285Y-72747142D01*
X112545904Y-72842380D02*
X112545904Y-71842380D01*
X112784000Y-71842380D01*
X112926857Y-71890000D01*
X113022095Y-71985238D01*
X113069714Y-72080476D01*
X113117333Y-72270952D01*
X113117333Y-72413809D01*
X113069714Y-72604285D01*
X113022095Y-72699523D01*
X112926857Y-72794761D01*
X112784000Y-72842380D01*
X112545904Y-72842380D01*
X113974476Y-72175714D02*
X113974476Y-72842380D01*
X113736380Y-71794761D02*
X113498285Y-72509047D01*
X114117333Y-72509047D01*
X110005904Y-72842380D02*
X110005904Y-71842380D01*
X110244000Y-71842380D01*
X110386857Y-71890000D01*
X110482095Y-71985238D01*
X110529714Y-72080476D01*
X110577333Y-72270952D01*
X110577333Y-72413809D01*
X110529714Y-72604285D01*
X110482095Y-72699523D01*
X110386857Y-72794761D01*
X110244000Y-72842380D01*
X110005904Y-72842380D01*
X110910666Y-71842380D02*
X111529714Y-71842380D01*
X111196380Y-72223333D01*
X111339238Y-72223333D01*
X111434476Y-72270952D01*
X111482095Y-72318571D01*
X111529714Y-72413809D01*
X111529714Y-72651904D01*
X111482095Y-72747142D01*
X111434476Y-72794761D01*
X111339238Y-72842380D01*
X111053523Y-72842380D01*
X110958285Y-72794761D01*
X110910666Y-72747142D01*
X107465904Y-72842380D02*
X107465904Y-71842380D01*
X107704000Y-71842380D01*
X107846857Y-71890000D01*
X107942095Y-71985238D01*
X107989714Y-72080476D01*
X108037333Y-72270952D01*
X108037333Y-72413809D01*
X107989714Y-72604285D01*
X107942095Y-72699523D01*
X107846857Y-72794761D01*
X107704000Y-72842380D01*
X107465904Y-72842380D01*
X108418285Y-71937619D02*
X108465904Y-71890000D01*
X108561142Y-71842380D01*
X108799238Y-71842380D01*
X108894476Y-71890000D01*
X108942095Y-71937619D01*
X108989714Y-72032857D01*
X108989714Y-72128095D01*
X108942095Y-72270952D01*
X108370666Y-72842380D01*
X108989714Y-72842380D01*
X104925904Y-72842380D02*
X104925904Y-71842380D01*
X105164000Y-71842380D01*
X105306857Y-71890000D01*
X105402095Y-71985238D01*
X105449714Y-72080476D01*
X105497333Y-72270952D01*
X105497333Y-72413809D01*
X105449714Y-72604285D01*
X105402095Y-72699523D01*
X105306857Y-72794761D01*
X105164000Y-72842380D01*
X104925904Y-72842380D01*
X106449714Y-72842380D02*
X105878285Y-72842380D01*
X106164000Y-72842380D02*
X106164000Y-71842380D01*
X106068761Y-71985238D01*
X105973523Y-72080476D01*
X105878285Y-72128095D01*
X102385904Y-72842380D02*
X102385904Y-71842380D01*
X102624000Y-71842380D01*
X102766857Y-71890000D01*
X102862095Y-71985238D01*
X102909714Y-72080476D01*
X102957333Y-72270952D01*
X102957333Y-72413809D01*
X102909714Y-72604285D01*
X102862095Y-72699523D01*
X102766857Y-72794761D01*
X102624000Y-72842380D01*
X102385904Y-72842380D01*
X103576380Y-71842380D02*
X103671619Y-71842380D01*
X103766857Y-71890000D01*
X103814476Y-71937619D01*
X103862095Y-72032857D01*
X103909714Y-72223333D01*
X103909714Y-72461428D01*
X103862095Y-72651904D01*
X103814476Y-72747142D01*
X103766857Y-72794761D01*
X103671619Y-72842380D01*
X103576380Y-72842380D01*
X103481142Y-72794761D01*
X103433523Y-72747142D01*
X103385904Y-72651904D01*
X103338285Y-72461428D01*
X103338285Y-72223333D01*
X103385904Y-72032857D01*
X103433523Y-71937619D01*
X103481142Y-71890000D01*
X103576380Y-71842380D01*
X92178285Y-71842380D02*
X92511619Y-72842380D01*
X92844952Y-71842380D01*
X93178285Y-72318571D02*
X93511619Y-72318571D01*
X93654476Y-72842380D02*
X93178285Y-72842380D01*
X93178285Y-71842380D01*
X93654476Y-71842380D01*
X99845904Y-72318571D02*
X100179238Y-72318571D01*
X100322095Y-72842380D02*
X99845904Y-72842380D01*
X99845904Y-71842380D01*
X100322095Y-71842380D01*
X100750666Y-72842380D02*
X100750666Y-71842380D01*
X101322095Y-72842380D01*
X101322095Y-71842380D01*
X97445285Y-72842380D02*
X97191285Y-72366190D01*
X97009857Y-72842380D02*
X97009857Y-71842380D01*
X97300142Y-71842380D01*
X97372714Y-71890000D01*
X97409000Y-71937619D01*
X97445285Y-72032857D01*
X97445285Y-72175714D01*
X97409000Y-72270952D01*
X97372714Y-72318571D01*
X97300142Y-72366190D01*
X97009857Y-72366190D01*
X98316142Y-71794761D02*
X97663000Y-73080476D01*
X98497571Y-71842380D02*
X98679000Y-72842380D01*
X98824142Y-72128095D01*
X98969285Y-72842380D01*
X99150714Y-71842380D01*
X95337333Y-72842380D02*
X95004000Y-72366190D01*
X94765904Y-72842380D02*
X94765904Y-71842380D01*
X95146857Y-71842380D01*
X95242095Y-71890000D01*
X95289714Y-71937619D01*
X95337333Y-72032857D01*
X95337333Y-72175714D01*
X95289714Y-72270952D01*
X95242095Y-72318571D01*
X95146857Y-72366190D01*
X94765904Y-72366190D01*
X95718285Y-72794761D02*
X95861142Y-72842380D01*
X96099238Y-72842380D01*
X96194476Y-72794761D01*
X96242095Y-72747142D01*
X96289714Y-72651904D01*
X96289714Y-72556666D01*
X96242095Y-72461428D01*
X96194476Y-72413809D01*
X96099238Y-72366190D01*
X95908761Y-72318571D01*
X95813523Y-72270952D01*
X95765904Y-72223333D01*
X95718285Y-72128095D01*
X95718285Y-72032857D01*
X95765904Y-71937619D01*
X95813523Y-71890000D01*
X95908761Y-71842380D01*
X96146857Y-71842380D01*
X96289714Y-71890000D01*
X123063047Y-71842380D02*
X122586857Y-71842380D01*
X122539238Y-72318571D01*
X122586857Y-72270952D01*
X122682095Y-72223333D01*
X122920190Y-72223333D01*
X123015428Y-72270952D01*
X123063047Y-72318571D01*
X123110666Y-72413809D01*
X123110666Y-72651904D01*
X123063047Y-72747142D01*
X123015428Y-72794761D01*
X122920190Y-72842380D01*
X122682095Y-72842380D01*
X122586857Y-72794761D01*
X122539238Y-72747142D01*
X123539238Y-72461428D02*
X124301142Y-72461428D01*
X123920190Y-72842380D02*
X123920190Y-72080476D01*
X125403428Y-71890000D02*
X125330857Y-71842380D01*
X125222000Y-71842380D01*
X125113142Y-71890000D01*
X125040571Y-71985238D01*
X125004285Y-72080476D01*
X124968000Y-72270952D01*
X124968000Y-72413809D01*
X125004285Y-72604285D01*
X125040571Y-72699523D01*
X125113142Y-72794761D01*
X125222000Y-72842380D01*
X125294571Y-72842380D01*
X125403428Y-72794761D01*
X125439714Y-72747142D01*
X125439714Y-72413809D01*
X125294571Y-72413809D01*
X125766285Y-72842380D02*
X125766285Y-71842380D01*
X126201714Y-72842380D01*
X126201714Y-71842380D01*
X126564571Y-72842380D02*
X126564571Y-71842380D01*
X126746000Y-71842380D01*
X126854857Y-71890000D01*
X126927428Y-71985238D01*
X126963714Y-72080476D01*
X127000000Y-72270952D01*
X127000000Y-72413809D01*
X126963714Y-72604285D01*
X126927428Y-72699523D01*
X126854857Y-72794761D01*
X126746000Y-72842380D01*
X126564571Y-72842380D01*
X90043047Y-71842380D02*
X89566857Y-71842380D01*
X89519238Y-72318571D01*
X89566857Y-72270952D01*
X89662095Y-72223333D01*
X89900190Y-72223333D01*
X89995428Y-72270952D01*
X90043047Y-72318571D01*
X90090666Y-72413809D01*
X90090666Y-72651904D01*
X90043047Y-72747142D01*
X89995428Y-72794761D01*
X89900190Y-72842380D01*
X89662095Y-72842380D01*
X89566857Y-72794761D01*
X89519238Y-72747142D01*
X90519238Y-72461428D02*
X91281142Y-72461428D01*
X90900190Y-72842380D02*
X90900190Y-72080476D01*
X87303428Y-71890000D02*
X87230857Y-71842380D01*
X87122000Y-71842380D01*
X87013142Y-71890000D01*
X86940571Y-71985238D01*
X86904285Y-72080476D01*
X86868000Y-72270952D01*
X86868000Y-72413809D01*
X86904285Y-72604285D01*
X86940571Y-72699523D01*
X87013142Y-72794761D01*
X87122000Y-72842380D01*
X87194571Y-72842380D01*
X87303428Y-72794761D01*
X87339714Y-72747142D01*
X87339714Y-72413809D01*
X87194571Y-72413809D01*
X87666285Y-72842380D02*
X87666285Y-71842380D01*
X88101714Y-72842380D01*
X88101714Y-71842380D01*
X88464571Y-72842380D02*
X88464571Y-71842380D01*
X88646000Y-71842380D01*
X88754857Y-71890000D01*
X88827428Y-71985238D01*
X88863714Y-72080476D01*
X88900000Y-72270952D01*
X88900000Y-72413809D01*
X88863714Y-72604285D01*
X88827428Y-72699523D01*
X88754857Y-72794761D01*
X88646000Y-72842380D01*
X88464571Y-72842380D01*
X183745333Y-123896380D02*
X183745333Y-122896380D01*
X184126285Y-122896380D01*
X184221523Y-122944000D01*
X184269142Y-122991619D01*
X184316761Y-123086857D01*
X184316761Y-123229714D01*
X184269142Y-123324952D01*
X184221523Y-123372571D01*
X184126285Y-123420190D01*
X183745333Y-123420190D01*
X184935809Y-122896380D02*
X185126285Y-122896380D01*
X185221523Y-122944000D01*
X185316761Y-123039238D01*
X185364380Y-123229714D01*
X185364380Y-123563047D01*
X185316761Y-123753523D01*
X185221523Y-123848761D01*
X185126285Y-123896380D01*
X184935809Y-123896380D01*
X184840571Y-123848761D01*
X184745333Y-123753523D01*
X184697714Y-123563047D01*
X184697714Y-123229714D01*
X184745333Y-123039238D01*
X184840571Y-122944000D01*
X184935809Y-122896380D01*
X185650095Y-122896380D02*
X186221523Y-122896380D01*
X185935809Y-123896380D02*
X185935809Y-122896380D01*
X122309142Y-106386380D02*
X122404380Y-106386380D01*
X122499619Y-106434000D01*
X122547238Y-106481619D01*
X122594857Y-106576857D01*
X122642476Y-106767333D01*
X122642476Y-107005428D01*
X122594857Y-107195904D01*
X122547238Y-107291142D01*
X122499619Y-107338761D01*
X122404380Y-107386380D01*
X122309142Y-107386380D01*
X122213904Y-107338761D01*
X122166285Y-107291142D01*
X122118666Y-107195904D01*
X122071047Y-107005428D01*
X122071047Y-106767333D01*
X122118666Y-106576857D01*
X122166285Y-106481619D01*
X122213904Y-106434000D01*
X122309142Y-106386380D01*
X123071047Y-107291142D02*
X123118666Y-107338761D01*
X123071047Y-107386380D01*
X123023428Y-107338761D01*
X123071047Y-107291142D01*
X123071047Y-107386380D01*
X124071047Y-107386380D02*
X123499619Y-107386380D01*
X123785333Y-107386380D02*
X123785333Y-106386380D01*
X123690095Y-106529238D01*
X123594857Y-106624476D01*
X123499619Y-106672095D01*
X124928190Y-106719714D02*
X124928190Y-107386380D01*
X124499619Y-106719714D02*
X124499619Y-107243523D01*
X124547238Y-107338761D01*
X124642476Y-107386380D01*
X124785333Y-107386380D01*
X124880571Y-107338761D01*
X124928190Y-107291142D01*
X125737714Y-106862571D02*
X125404380Y-106862571D01*
X125404380Y-107386380D02*
X125404380Y-106386380D01*
X125880571Y-106386380D01*
X121705619Y-123325142D02*
X121705619Y-123420380D01*
X121658000Y-123515619D01*
X121610380Y-123563238D01*
X121515142Y-123610857D01*
X121324666Y-123658476D01*
X121086571Y-123658476D01*
X120896095Y-123610857D01*
X120800857Y-123563238D01*
X120753238Y-123515619D01*
X120705619Y-123420380D01*
X120705619Y-123325142D01*
X120753238Y-123229904D01*
X120800857Y-123182285D01*
X120896095Y-123134666D01*
X121086571Y-123087047D01*
X121324666Y-123087047D01*
X121515142Y-123134666D01*
X121610380Y-123182285D01*
X121658000Y-123229904D01*
X121705619Y-123325142D01*
X120800857Y-124087047D02*
X120753238Y-124134666D01*
X120705619Y-124087047D01*
X120753238Y-124039428D01*
X120800857Y-124087047D01*
X120705619Y-124087047D01*
X120705619Y-125087047D02*
X120705619Y-124515619D01*
X120705619Y-124801333D02*
X121705619Y-124801333D01*
X121562761Y-124706095D01*
X121467523Y-124610857D01*
X121419904Y-124515619D01*
X121372285Y-125944190D02*
X120705619Y-125944190D01*
X121372285Y-125515619D02*
X120848476Y-125515619D01*
X120753238Y-125563238D01*
X120705619Y-125658476D01*
X120705619Y-125801333D01*
X120753238Y-125896571D01*
X120800857Y-125944190D01*
X121229428Y-126753714D02*
X121229428Y-126420380D01*
X120705619Y-126420380D02*
X121705619Y-126420380D01*
X121705619Y-126896571D01*
X148121619Y-123325142D02*
X148121619Y-123420380D01*
X148074000Y-123515619D01*
X148026380Y-123563238D01*
X147931142Y-123610857D01*
X147740666Y-123658476D01*
X147502571Y-123658476D01*
X147312095Y-123610857D01*
X147216857Y-123563238D01*
X147169238Y-123515619D01*
X147121619Y-123420380D01*
X147121619Y-123325142D01*
X147169238Y-123229904D01*
X147216857Y-123182285D01*
X147312095Y-123134666D01*
X147502571Y-123087047D01*
X147740666Y-123087047D01*
X147931142Y-123134666D01*
X148026380Y-123182285D01*
X148074000Y-123229904D01*
X148121619Y-123325142D01*
X147216857Y-124087047D02*
X147169238Y-124134666D01*
X147121619Y-124087047D01*
X147169238Y-124039428D01*
X147216857Y-124087047D01*
X147121619Y-124087047D01*
X147121619Y-125087047D02*
X147121619Y-124515619D01*
X147121619Y-124801333D02*
X148121619Y-124801333D01*
X147978761Y-124706095D01*
X147883523Y-124610857D01*
X147835904Y-124515619D01*
X147788285Y-125944190D02*
X147121619Y-125944190D01*
X147788285Y-125515619D02*
X147264476Y-125515619D01*
X147169238Y-125563238D01*
X147121619Y-125658476D01*
X147121619Y-125801333D01*
X147169238Y-125896571D01*
X147216857Y-125944190D01*
X147645428Y-126753714D02*
X147645428Y-126420380D01*
X147121619Y-126420380D02*
X148121619Y-126420380D01*
X148121619Y-126896571D01*
X174537619Y-123325142D02*
X174537619Y-123420380D01*
X174490000Y-123515619D01*
X174442380Y-123563238D01*
X174347142Y-123610857D01*
X174156666Y-123658476D01*
X173918571Y-123658476D01*
X173728095Y-123610857D01*
X173632857Y-123563238D01*
X173585238Y-123515619D01*
X173537619Y-123420380D01*
X173537619Y-123325142D01*
X173585238Y-123229904D01*
X173632857Y-123182285D01*
X173728095Y-123134666D01*
X173918571Y-123087047D01*
X174156666Y-123087047D01*
X174347142Y-123134666D01*
X174442380Y-123182285D01*
X174490000Y-123229904D01*
X174537619Y-123325142D01*
X173632857Y-124087047D02*
X173585238Y-124134666D01*
X173537619Y-124087047D01*
X173585238Y-124039428D01*
X173632857Y-124087047D01*
X173537619Y-124087047D01*
X173537619Y-125087047D02*
X173537619Y-124515619D01*
X173537619Y-124801333D02*
X174537619Y-124801333D01*
X174394761Y-124706095D01*
X174299523Y-124610857D01*
X174251904Y-124515619D01*
X174204285Y-125944190D02*
X173537619Y-125944190D01*
X174204285Y-125515619D02*
X173680476Y-125515619D01*
X173585238Y-125563238D01*
X173537619Y-125658476D01*
X173537619Y-125801333D01*
X173585238Y-125896571D01*
X173632857Y-125944190D01*
X174061428Y-126753714D02*
X174061428Y-126420380D01*
X173537619Y-126420380D02*
X174537619Y-126420380D01*
X174537619Y-126896571D01*
X150915619Y-120578952D02*
X150915619Y-121245619D01*
X149915619Y-120817047D01*
X150582285Y-122055142D02*
X149915619Y-122055142D01*
X150963238Y-121817047D02*
X150248952Y-121578952D01*
X150248952Y-122198000D01*
X149915619Y-123055142D02*
X149915619Y-122578952D01*
X150915619Y-122578952D01*
X149963238Y-123340857D02*
X149915619Y-123483714D01*
X149915619Y-123721809D01*
X149963238Y-123817047D01*
X150010857Y-123864666D01*
X150106095Y-123912285D01*
X150201333Y-123912285D01*
X150296571Y-123864666D01*
X150344190Y-123817047D01*
X150391809Y-123721809D01*
X150439428Y-123531333D01*
X150487047Y-123436095D01*
X150534666Y-123388476D01*
X150629904Y-123340857D01*
X150725142Y-123340857D01*
X150820380Y-123388476D01*
X150868000Y-123436095D01*
X150915619Y-123531333D01*
X150915619Y-123769428D01*
X150868000Y-123912285D01*
X149915619Y-124864666D02*
X149915619Y-124293238D01*
X149915619Y-124578952D02*
X150915619Y-124578952D01*
X150772761Y-124483714D01*
X150677523Y-124388476D01*
X150629904Y-124293238D01*
X150915619Y-125198000D02*
X150915619Y-125817047D01*
X150534666Y-125483714D01*
X150534666Y-125626571D01*
X150487047Y-125721809D01*
X150439428Y-125769428D01*
X150344190Y-125817047D01*
X150106095Y-125817047D01*
X150010857Y-125769428D01*
X149963238Y-125721809D01*
X149915619Y-125626571D01*
X149915619Y-125340857D01*
X149963238Y-125245619D01*
X150010857Y-125198000D01*
X150487047Y-126388476D02*
X150534666Y-126293238D01*
X150582285Y-126245619D01*
X150677523Y-126198000D01*
X150725142Y-126198000D01*
X150820380Y-126245619D01*
X150868000Y-126293238D01*
X150915619Y-126388476D01*
X150915619Y-126578952D01*
X150868000Y-126674190D01*
X150820380Y-126721809D01*
X150725142Y-126769428D01*
X150677523Y-126769428D01*
X150582285Y-126721809D01*
X150534666Y-126674190D01*
X150487047Y-126578952D01*
X150487047Y-126388476D01*
X150439428Y-126293238D01*
X150391809Y-126245619D01*
X150296571Y-126198000D01*
X150106095Y-126198000D01*
X150010857Y-126245619D01*
X149963238Y-126293238D01*
X149915619Y-126388476D01*
X149915619Y-126578952D01*
X149963238Y-126674190D01*
X150010857Y-126721809D01*
X150106095Y-126769428D01*
X150296571Y-126769428D01*
X150391809Y-126721809D01*
X150439428Y-126674190D01*
X150487047Y-126578952D01*
X124499619Y-120578952D02*
X124499619Y-121245619D01*
X123499619Y-120817047D01*
X124166285Y-122055142D02*
X123499619Y-122055142D01*
X124547238Y-121817047D02*
X123832952Y-121578952D01*
X123832952Y-122198000D01*
X123499619Y-123055142D02*
X123499619Y-122578952D01*
X124499619Y-122578952D01*
X123547238Y-123340857D02*
X123499619Y-123483714D01*
X123499619Y-123721809D01*
X123547238Y-123817047D01*
X123594857Y-123864666D01*
X123690095Y-123912285D01*
X123785333Y-123912285D01*
X123880571Y-123864666D01*
X123928190Y-123817047D01*
X123975809Y-123721809D01*
X124023428Y-123531333D01*
X124071047Y-123436095D01*
X124118666Y-123388476D01*
X124213904Y-123340857D01*
X124309142Y-123340857D01*
X124404380Y-123388476D01*
X124452000Y-123436095D01*
X124499619Y-123531333D01*
X124499619Y-123769428D01*
X124452000Y-123912285D01*
X123499619Y-124864666D02*
X123499619Y-124293238D01*
X123499619Y-124578952D02*
X124499619Y-124578952D01*
X124356761Y-124483714D01*
X124261523Y-124388476D01*
X124213904Y-124293238D01*
X124499619Y-125198000D02*
X124499619Y-125817047D01*
X124118666Y-125483714D01*
X124118666Y-125626571D01*
X124071047Y-125721809D01*
X124023428Y-125769428D01*
X123928190Y-125817047D01*
X123690095Y-125817047D01*
X123594857Y-125769428D01*
X123547238Y-125721809D01*
X123499619Y-125626571D01*
X123499619Y-125340857D01*
X123547238Y-125245619D01*
X123594857Y-125198000D01*
X124071047Y-126388476D02*
X124118666Y-126293238D01*
X124166285Y-126245619D01*
X124261523Y-126198000D01*
X124309142Y-126198000D01*
X124404380Y-126245619D01*
X124452000Y-126293238D01*
X124499619Y-126388476D01*
X124499619Y-126578952D01*
X124452000Y-126674190D01*
X124404380Y-126721809D01*
X124309142Y-126769428D01*
X124261523Y-126769428D01*
X124166285Y-126721809D01*
X124118666Y-126674190D01*
X124071047Y-126578952D01*
X124071047Y-126388476D01*
X124023428Y-126293238D01*
X123975809Y-126245619D01*
X123880571Y-126198000D01*
X123690095Y-126198000D01*
X123594857Y-126245619D01*
X123547238Y-126293238D01*
X123499619Y-126388476D01*
X123499619Y-126578952D01*
X123547238Y-126674190D01*
X123594857Y-126721809D01*
X123690095Y-126769428D01*
X123880571Y-126769428D01*
X123975809Y-126721809D01*
X124023428Y-126674190D01*
X124071047Y-126578952D01*
X98083619Y-120578952D02*
X98083619Y-121245619D01*
X97083619Y-120817047D01*
X97750285Y-122055142D02*
X97083619Y-122055142D01*
X98131238Y-121817047D02*
X97416952Y-121578952D01*
X97416952Y-122198000D01*
X97083619Y-123055142D02*
X97083619Y-122578952D01*
X98083619Y-122578952D01*
X97131238Y-123340857D02*
X97083619Y-123483714D01*
X97083619Y-123721809D01*
X97131238Y-123817047D01*
X97178857Y-123864666D01*
X97274095Y-123912285D01*
X97369333Y-123912285D01*
X97464571Y-123864666D01*
X97512190Y-123817047D01*
X97559809Y-123721809D01*
X97607428Y-123531333D01*
X97655047Y-123436095D01*
X97702666Y-123388476D01*
X97797904Y-123340857D01*
X97893142Y-123340857D01*
X97988380Y-123388476D01*
X98036000Y-123436095D01*
X98083619Y-123531333D01*
X98083619Y-123769428D01*
X98036000Y-123912285D01*
X97083619Y-124864666D02*
X97083619Y-124293238D01*
X97083619Y-124578952D02*
X98083619Y-124578952D01*
X97940761Y-124483714D01*
X97845523Y-124388476D01*
X97797904Y-124293238D01*
X98083619Y-125198000D02*
X98083619Y-125817047D01*
X97702666Y-125483714D01*
X97702666Y-125626571D01*
X97655047Y-125721809D01*
X97607428Y-125769428D01*
X97512190Y-125817047D01*
X97274095Y-125817047D01*
X97178857Y-125769428D01*
X97131238Y-125721809D01*
X97083619Y-125626571D01*
X97083619Y-125340857D01*
X97131238Y-125245619D01*
X97178857Y-125198000D01*
X97655047Y-126388476D02*
X97702666Y-126293238D01*
X97750285Y-126245619D01*
X97845523Y-126198000D01*
X97893142Y-126198000D01*
X97988380Y-126245619D01*
X98036000Y-126293238D01*
X98083619Y-126388476D01*
X98083619Y-126578952D01*
X98036000Y-126674190D01*
X97988380Y-126721809D01*
X97893142Y-126769428D01*
X97845523Y-126769428D01*
X97750285Y-126721809D01*
X97702666Y-126674190D01*
X97655047Y-126578952D01*
X97655047Y-126388476D01*
X97607428Y-126293238D01*
X97559809Y-126245619D01*
X97464571Y-126198000D01*
X97274095Y-126198000D01*
X97178857Y-126245619D01*
X97131238Y-126293238D01*
X97083619Y-126388476D01*
X97083619Y-126578952D01*
X97131238Y-126674190D01*
X97178857Y-126721809D01*
X97274095Y-126769428D01*
X97464571Y-126769428D01*
X97559809Y-126721809D01*
X97607428Y-126674190D01*
X97655047Y-126578952D01*
X111371047Y-94996190D02*
X111418666Y-94900952D01*
X111466285Y-94853333D01*
X111561523Y-94805714D01*
X111609142Y-94805714D01*
X111704380Y-94853333D01*
X111752000Y-94900952D01*
X111799619Y-94996190D01*
X111799619Y-95186666D01*
X111752000Y-95281904D01*
X111704380Y-95329523D01*
X111609142Y-95377142D01*
X111561523Y-95377142D01*
X111466285Y-95329523D01*
X111418666Y-95281904D01*
X111371047Y-95186666D01*
X111371047Y-94996190D01*
X111323428Y-94900952D01*
X111275809Y-94853333D01*
X111180571Y-94805714D01*
X110990095Y-94805714D01*
X110894857Y-94853333D01*
X110847238Y-94900952D01*
X110799619Y-94996190D01*
X110799619Y-95186666D01*
X110847238Y-95281904D01*
X110894857Y-95329523D01*
X110990095Y-95377142D01*
X111180571Y-95377142D01*
X111275809Y-95329523D01*
X111323428Y-95281904D01*
X111371047Y-95186666D01*
X111704380Y-95758095D02*
X111752000Y-95805714D01*
X111799619Y-95900952D01*
X111799619Y-96139047D01*
X111752000Y-96234285D01*
X111704380Y-96281904D01*
X111609142Y-96329523D01*
X111513904Y-96329523D01*
X111371047Y-96281904D01*
X110799619Y-95710476D01*
X110799619Y-96329523D01*
X111799619Y-97234285D02*
X111799619Y-96758095D01*
X111323428Y-96710476D01*
X111371047Y-96758095D01*
X111418666Y-96853333D01*
X111418666Y-97091428D01*
X111371047Y-97186666D01*
X111323428Y-97234285D01*
X111228190Y-97281904D01*
X110990095Y-97281904D01*
X110894857Y-97234285D01*
X110847238Y-97186666D01*
X110799619Y-97091428D01*
X110799619Y-96853333D01*
X110847238Y-96758095D01*
X110894857Y-96710476D01*
X111799619Y-98186666D02*
X111799619Y-97710476D01*
X111323428Y-97662857D01*
X111371047Y-97710476D01*
X111418666Y-97805714D01*
X111418666Y-98043809D01*
X111371047Y-98139047D01*
X111323428Y-98186666D01*
X111228190Y-98234285D01*
X110990095Y-98234285D01*
X110894857Y-98186666D01*
X110847238Y-98139047D01*
X110799619Y-98043809D01*
X110799619Y-97805714D01*
X110847238Y-97710476D01*
X110894857Y-97662857D01*
D12*
G04 #@! TO.C,RV1*
X185436863Y-126754075D02*
G75*
G02*
X183895000Y-126398000I-56863J3270075D01*
G01*
X182466613Y-124969202D02*
G75*
G02*
X182466000Y-122000000I2913387J1485202D01*
G01*
X183896032Y-120570171D02*
G75*
G02*
X188472000Y-122420000I1483968J-2913829D01*
G01*
X188471846Y-124548608D02*
G75*
G02*
X185380000Y-126754000I-3091846J1064608D01*
G01*
G04 #@! TO.C,U4*
X163382000Y-95520000D02*
X163382000Y-90060000D01*
X163382000Y-90060000D02*
X112462000Y-90060000D01*
X112462000Y-90060000D02*
X112462000Y-102980000D01*
X112462000Y-102980000D02*
X163382000Y-102980000D01*
X163382000Y-102980000D02*
X163382000Y-97520000D01*
X163382000Y-97520000D02*
G75*
G02*
X163382000Y-95520000I0J1000000D01*
G01*
G04 #@! TO.C,U3*
X119186000Y-122698000D02*
X119186000Y-121048000D01*
X119186000Y-121048000D02*
X98746000Y-121048000D01*
X98746000Y-121048000D02*
X98746000Y-126348000D01*
X98746000Y-126348000D02*
X119186000Y-126348000D01*
X119186000Y-126348000D02*
X119186000Y-124698000D01*
X119186000Y-124698000D02*
G75*
G02*
X119186000Y-122698000I0J1000000D01*
G01*
G04 #@! TO.C,U2*
X145602000Y-122698000D02*
X145602000Y-121048000D01*
X145602000Y-121048000D02*
X125162000Y-121048000D01*
X125162000Y-121048000D02*
X125162000Y-126348000D01*
X125162000Y-126348000D02*
X145602000Y-126348000D01*
X145602000Y-126348000D02*
X145602000Y-124698000D01*
X145602000Y-124698000D02*
G75*
G02*
X145602000Y-122698000I0J1000000D01*
G01*
G04 #@! TO.C,U1*
X172018000Y-122698000D02*
X172018000Y-121048000D01*
X172018000Y-121048000D02*
X151578000Y-121048000D01*
X151578000Y-121048000D02*
X151578000Y-126348000D01*
X151578000Y-126348000D02*
X172018000Y-126348000D01*
X172018000Y-126348000D02*
X172018000Y-124698000D01*
X172018000Y-124698000D02*
G75*
G02*
X172018000Y-122698000I0J1000000D01*
G01*
G04 #@! TO.C,J2*
X127314000Y-70926000D02*
X127314000Y-68266000D01*
X89154000Y-70926000D02*
X127314000Y-70926000D01*
X89154000Y-68266000D02*
X127314000Y-68266000D01*
X89154000Y-70926000D02*
X89154000Y-68266000D01*
X87884000Y-70926000D02*
X86554000Y-70926000D01*
X86554000Y-70926000D02*
X86554000Y-69596000D01*
G04 #@! TO.C,C4*
X175060000Y-122738000D02*
X175060000Y-127278000D01*
X172920000Y-122738000D02*
X172920000Y-127278000D01*
X175060000Y-122738000D02*
X175045000Y-122738000D01*
X172935000Y-122738000D02*
X172920000Y-122738000D01*
X175060000Y-127278000D02*
X175045000Y-127278000D01*
X172935000Y-127278000D02*
X172920000Y-127278000D01*
G04 #@! TO.C,C3*
X148644000Y-122738000D02*
X148644000Y-127278000D01*
X146504000Y-122738000D02*
X146504000Y-127278000D01*
X148644000Y-122738000D02*
X148629000Y-122738000D01*
X146519000Y-122738000D02*
X146504000Y-122738000D01*
X148644000Y-127278000D02*
X148629000Y-127278000D01*
X146519000Y-127278000D02*
X146504000Y-127278000D01*
G04 #@! TO.C,C2*
X122228000Y-122738000D02*
X122228000Y-127278000D01*
X120088000Y-122738000D02*
X120088000Y-127278000D01*
X122228000Y-122738000D02*
X122213000Y-122738000D01*
X120103000Y-122738000D02*
X120088000Y-122738000D01*
X122228000Y-127278000D02*
X122213000Y-127278000D01*
X120103000Y-127278000D02*
X120088000Y-127278000D01*
G04 #@! TO.C,C1*
X121722000Y-105864000D02*
X126262000Y-105864000D01*
X121722000Y-108004000D02*
X126262000Y-108004000D01*
X121722000Y-105864000D02*
X121722000Y-105879000D01*
X121722000Y-107989000D02*
X121722000Y-108004000D01*
X126262000Y-105864000D02*
X126262000Y-105879000D01*
X126262000Y-107989000D02*
X126262000Y-108004000D01*
G04 #@! TD*
M02*
