M48
; DRILL file {KiCad (5.1.8)-1} date 04/25/22 13:15:43
; FORMAT={-:-/ absolute / inch / decimal}
; #@! TF.CreationDate,2022-04-25T13:15:43-06:00
; #@! TF.GenerationSoftware,Kicad,Pcbnew,(5.1.8)-1
; #@! TF.FileFunction,Plated,1,2,PTH
FMAT,2
INCH
T1C0.0157
T2C0.0315
T3C0.0354
T4C0.0394
T5C0.1200
%
G90
G05
T1
X3.46Y-2.95
X3.56Y-2.91
X3.66Y-4.56
X3.76Y-3.39
X3.82Y-3.62
X3.82Y-5.55
X3.85Y-3.65
X3.85Y-5.52
X3.86Y-3.36
X3.94Y-4.83
X3.96Y-3.33
X3.99Y-4.89
X4.06Y-3.3
X4.14Y-4.89
X4.16Y-3.27
X4.22Y-5.55
X4.24Y-4.94
X4.26Y-3.24
X4.32Y-5.14
X4.32Y-5.55
X4.36Y-3.21
X4.39Y-3.74
X4.39Y-5.2
X4.42Y-5.55
X4.46Y-3.18
X4.48Y-3.39
X4.52Y-5.2
X4.52Y-5.55
X4.56Y-3.15
X4.58Y-3.36
X4.58Y-3.68
X4.59Y-5.14
X4.62Y-5.18
X4.62Y-5.55
X4.66Y-3.12
X4.68Y-3.33
X4.68Y-3.71
X4.72Y-5.21
X4.72Y-5.55
X4.76Y-3.09
X4.77Y-4.89
X4.82Y-5.24
X4.82Y-5.55
X4.83Y-3.95
X4.83Y-4.83
X4.86Y-2.91
X4.92Y-5.27
X4.92Y-5.55
X4.96Y-2.95
X4.98Y-4.83
X5.02Y-5.4
X5.02Y-5.55
X5.03Y-2.91
X5.03Y-4.21
X5.03Y-4.89
X5.08Y-4.53
X5.12Y-5.37
X5.12Y-5.55
X5.18Y-3.68
X5.18Y-4.5
X5.18Y-4.89
X5.18Y-4.94
X5.22Y-5.34
X5.22Y-5.55
X5.28Y-4.47
X5.28Y-4.94
X5.32Y-5.31
X5.32Y-5.55
X5.33Y-5.27
X5.38Y-3.71
X5.38Y-4.44
X5.43Y-5.24
X5.48Y-4.41
X5.52Y-5.49
X5.53Y-5.21
X5.58Y-3.62
X5.58Y-4.38
X5.62Y-5.46
X5.63Y-5.18
X5.68Y-3.65
X5.68Y-4.35
X5.78Y-2.95
X5.78Y-3.95
X5.78Y-4.32
X5.81Y-4.89
X5.87Y-5.43
X5.88Y-3.74
X5.9Y-4.24
X5.9Y-5.46
X5.93Y-5.49
X5.97Y-4.83
X5.98Y-4.24
X6.02Y-4.83
X6.02Y-5.15
X6.02Y-5.55
X6.03Y-3.09
X6.08Y-3.3
X6.12Y-5.18
X6.12Y-5.55
X6.13Y-3.12
X6.18Y-3.27
X6.22Y-4.89
X6.22Y-5.21
X6.22Y-5.55
X6.23Y-3.15
X6.28Y-3.24
X6.32Y-4.83
X6.32Y-5.24
X6.32Y-5.55
X6.33Y-3.18
X6.37Y-5.31
X6.38Y-3.21
X6.42Y-5.27
X6.42Y-5.55
X6.47Y-5.34
X6.52Y-5.3
X6.52Y-5.55
X6.57Y-5.37
X6.62Y-4.94
X6.62Y-5.33
X6.62Y-5.53
X6.66Y-5.49
X6.67Y-5.4
X6.72Y-5.36
X6.72Y-5.55
X6.75Y-5.43
X6.78Y-4.83
X6.78Y-4.95
X6.8Y-5.45
X6.85Y-4.89
X6.85Y-5.49
X6.92Y-4.32
X6.92Y-5.15
X6.95Y-4.35
X6.95Y-5.18
X6.98Y-4.38
X6.98Y-5.21
X7.01Y-4.41
X7.01Y-5.24
X7.04Y-4.44
X7.04Y-5.27
X7.07Y-4.47
X7.07Y-5.3
X7.1Y-4.5
X7.1Y-5.33
X7.13Y-4.53
X7.13Y-5.36
X7.2Y-4.89
X7.38Y-4.56
T2
X6.85Y-4.8231
X6.85Y-5.02
X6.02Y-4.72
X6.02Y-5.02
X6.12Y-4.72
X6.12Y-5.02
X6.22Y-4.72
X6.22Y-5.02
X6.32Y-4.72
X6.32Y-5.02
X6.42Y-4.72
X6.42Y-5.02
X6.52Y-4.72
X6.52Y-5.02
X6.62Y-4.72
X6.62Y-5.02
X6.72Y-4.72
X6.72Y-5.02
X3.94Y-4.72
X3.94Y-5.02
X4.04Y-4.72
X4.04Y-5.02
X4.14Y-4.72
X4.14Y-5.02
X4.24Y-4.72
X4.24Y-5.02
X4.34Y-4.72
X4.34Y-5.02
X4.44Y-4.72
X4.44Y-5.02
X4.54Y-4.72
X4.54Y-5.02
X4.64Y-4.72
X4.64Y-5.02
X4.98Y-4.72
X4.98Y-5.02
X5.08Y-4.72
X5.08Y-5.02
X5.18Y-4.72
X5.18Y-5.02
X5.28Y-4.72
X5.28Y-5.02
X5.38Y-4.72
X5.38Y-5.02
X5.48Y-4.72
X5.48Y-5.02
X5.58Y-4.72
X5.58Y-5.02
X5.68Y-4.72
X5.68Y-5.02
X4.48Y-3.5
X4.48Y-4.1
X4.58Y-3.5
X4.58Y-4.1
X4.68Y-3.5
X4.68Y-4.1
X4.78Y-3.5
X4.78Y-4.1
X4.88Y-3.5
X4.88Y-4.1
X4.98Y-3.5
X4.98Y-4.1
X5.08Y-3.5
X5.08Y-4.1
X5.18Y-3.5
X5.18Y-4.1
X5.28Y-3.5
X5.28Y-4.1
X5.38Y-3.5
X5.38Y-4.1
X5.48Y-3.5
X5.48Y-4.1
X5.58Y-3.5
X5.58Y-4.1
X5.68Y-3.5
X5.68Y-4.1
X5.78Y-3.5
X5.78Y-4.1
X5.88Y-3.5
X5.88Y-4.1
X5.98Y-3.5
X5.98Y-4.1
X6.08Y-3.5
X6.08Y-4.1
X6.18Y-3.5
X6.18Y-4.1
X6.28Y-3.5
X6.28Y-4.1
X6.38Y-3.5
X6.38Y-4.1
X4.7831Y-4.21
X4.98Y-4.21
X4.77Y-4.8231
X4.77Y-5.02
X5.81Y-4.8231
X5.81Y-5.02
T3
X7.2Y-4.7631
X7.2Y-4.96
X7.3969Y-4.8616
T4
X3.46Y-2.74
X3.56Y-2.74
X3.66Y-2.74
X3.76Y-2.74
X3.86Y-2.74
X3.96Y-2.74
X4.06Y-2.74
X4.16Y-2.74
X4.26Y-2.74
X4.36Y-2.74
X4.46Y-2.74
X4.56Y-2.74
X4.66Y-2.74
X4.76Y-2.74
X4.86Y-2.74
X4.96Y-2.74
T5
X7.61Y-5.45
X7.61Y-3.2
T0
M30
