M48
; DRILL file {KiCad (5.1.8)-1} date 07/22/22 12:19:50
; FORMAT={-:-/ absolute / inch / decimal}
; #@! TF.CreationDate,2022-07-22T12:19:50-06:00
; #@! TF.GenerationSoftware,Kicad,Pcbnew,(5.1.8)-1
; #@! TF.FileFunction,Plated,1,2,PTH
FMAT,2
INCH
T1C0.0157
T2C0.0315
T3C0.0394
T4C0.1200
%
G90
G05
T1
X2.2297Y-4.209
X2.2597Y-2.439
X2.2597Y-4.409
X2.2797Y-4.869
X2.2797Y-4.919
X2.4797Y-4.729
X2.4797Y-4.919
X2.5197Y-2.379
X2.5297Y-4.759
X2.5597Y-2.409
X2.5597Y-4.489
X2.6397Y-3.589
X2.6397Y-4.919
X2.6897Y-4.669
X2.7397Y-3.489
X2.7397Y-4.919
X2.7897Y-4.699
X2.8597Y-2.609
X2.8597Y-3.289
X2.8597Y-4.459
X2.9397Y-4.759
X2.9397Y-4.919
X2.9897Y-4.759
X3.0397Y-2.5691
X3.0397Y-2.809
X3.0397Y-4.409
X3.0697Y-2.599
X3.0697Y-2.909
X3.0697Y-3.459
X3.0997Y-2.629
X3.0997Y-3.009
X3.0997Y-4.159
X3.0997Y-4.759
X3.1297Y-4.729
X3.1297Y-4.399
X3.1597Y-4.359
X3.1597Y-4.459
X3.1897Y-4.569
X3.1897Y-4.739
X3.2397Y-2.659
X3.2397Y-3.109
X3.2797Y-2.529
X3.3097Y-4.129
X3.3397Y-4.189
X3.3397Y-4.919
X3.3597Y-4.129
X3.3897Y-4.739
X3.4097Y-3.759
X3.4397Y-4.089
X3.4397Y-4.919
X3.5097Y-3.629
X3.5397Y-3.989
X3.5397Y-4.919
X3.6097Y-4.499
X3.6397Y-3.889
X3.6397Y-4.919
X3.7097Y-4.129
X3.7397Y-3.789
X3.7397Y-4.919
X3.8397Y-3.689
X3.8397Y-4.919
X3.8597Y-2.569
X3.8597Y-3.209
X3.9397Y-3.589
X3.9397Y-4.919
X3.9597Y-2.599
X3.9597Y-3.109
X3.9897Y-4.729
X4.0397Y-3.489
X4.0397Y-4.919
X4.0597Y-2.629
X4.0597Y-3.009
X4.0897Y-4.759
X4.1097Y-3.359
X4.1397Y-4.919
X4.1597Y-2.659
X4.1597Y-2.919
X4.1897Y-3.659
X4.1897Y-4.789
X4.2097Y-2.679
X4.2297Y-3.259
X4.2397Y-4.919
X4.2697Y-4.539
X4.2897Y-4.819
X4.3097Y-3.309
X4.3097Y-4.499
X4.3397Y-4.919
X4.3497Y-3.159
X4.3797Y-3.209
X4.3797Y-4.599
X4.3897Y-4.839
X4.4097Y-3.109
X4.4097Y-4.569
X4.4397Y-3.059
X4.4397Y-4.919
X4.4697Y-3.009
X4.4697Y-4.539
X4.5097Y-2.919
X4.5097Y-4.509
X4.5397Y-2.959
X4.5397Y-4.919
X4.5797Y-2.599
X4.5797Y-4.629
X4.6097Y-3.559
X4.6397Y-2.879
X4.6397Y-4.919
X4.6697Y-3.019
X4.6697Y-3.459
X4.6797Y-2.649
X4.7097Y-2.739
X4.7297Y-2.679
X4.7397Y-4.919
X4.7597Y-2.739
X4.7597Y-3.729
X4.7697Y-2.879
X4.7797Y-2.679
X4.8097Y-2.709
X4.8397Y-4.919
X4.8597Y-2.649
X4.8597Y-3.459
X4.9097Y-2.679
X4.9097Y-3.429
X4.9397Y-4.599
X4.9397Y-4.919
X4.9497Y-3.409
X4.9497Y-3.929
X4.9597Y-2.879
X4.9897Y-4.599
X5.0397Y-4.569
X5.0397Y-4.919
X5.0597Y-2.649
X5.0597Y-4.399
X5.1397Y-3.559
X5.1397Y-4.539
X5.1397Y-4.919
X5.1597Y-2.679
X5.1597Y-2.739
X5.1597Y-3.179
X5.1897Y-3.459
X5.2297Y-3.859
X5.2397Y-4.509
X5.2397Y-4.919
X5.2597Y-3.049
X5.2797Y-4.549
X5.2897Y-3.509
X5.2897Y-4.059
X5.2897Y-4.599
X5.3897Y-2.729
X5.3897Y-4.629
X5.4197Y-4.549
X5.4197Y-4.919
X5.4297Y-4.399
X5.4597Y-4.589
X5.4897Y-4.309
X5.4997Y-2.409
X5.5297Y-4.919
X5.5797Y-2.599
X5.5897Y-2.379
X5.6297Y-4.189
X5.6297Y-4.919
X5.6597Y-3.329
X5.6597Y-4.699
X5.6997Y-4.159
X5.6997Y-4.229
X5.7297Y-4.089
X5.7297Y-4.919
X5.7397Y-2.409
X5.7597Y-2.729
X5.7697Y-3.529
X5.7697Y-4.259
X5.7897Y-3.099
X5.7897Y-3.459
X5.7997Y-4.029
X5.7997Y-4.729
X5.8297Y-3.989
X5.8297Y-4.919
X5.8497Y-3.289
X5.8497Y-3.659
X5.8597Y-2.599
X5.8597Y-3.929
X5.8597Y-4.759
X5.8997Y-3.829
X5.8997Y-4.789
X5.9097Y-3.019
X5.9097Y-3.409
X5.9097Y-3.759
X5.9297Y-3.889
X5.9297Y-4.919
X5.9597Y-3.739
X5.9597Y-4.819
X5.9997Y-3.629
X5.9997Y-4.839
X6.0097Y-3.049
X6.0297Y-3.789
X6.0297Y-4.919
X6.0597Y-2.599
X6.0597Y-3.139
X6.0597Y-4.129
X6.0897Y-3.689
X6.1297Y-4.919
X6.1597Y-2.599
X6.1597Y-2.699
X6.1797Y-4.739
X6.2297Y-3.559
X6.2297Y-4.919
X6.2597Y-2.729
X6.3597Y-2.599
X6.3597Y-4.809
X6.4497Y-3.199
X6.4497Y-4.509
X6.4497Y-4.739
X6.4897Y-4.259
X6.4897Y-4.409
X6.5097Y-3.409
X6.5097Y-4.009
X6.5397Y-3.249
X6.5397Y-3.909
X6.5697Y-3.459
X6.5697Y-3.689
X6.5982Y-3.5875
X6.5997Y-3.359
X6.6297Y-2.699
X6.6297Y-2.859
X6.6597Y-4.229
X6.6597Y-4.859
X6.6897Y-4.339
X6.6897Y-4.889
X6.7497Y-4.809
X6.7597Y-2.599
X6.7897Y-4.109
X6.7897Y-4.309
X6.7897Y-4.409
X6.7997Y-2.669
X6.7997Y-2.979
X6.8397Y-3.829
X6.8397Y-4.669
X6.8797Y-2.729
X6.9597Y-3.199
X7.0897Y-3.199
T2
X5.6597Y-2.409
X6.0597Y-2.409
X6.6897Y-2.739
X7.0897Y-2.739
X6.6897Y-2.979
X7.0897Y-2.979
X3.3597Y-2.509
X3.3597Y-2.809
X3.4597Y-2.509
X3.4597Y-2.809
X3.5597Y-2.509
X3.5597Y-2.809
X3.6597Y-2.509
X3.6597Y-2.809
X3.7597Y-2.509
X3.7597Y-2.809
X3.8597Y-2.509
X3.8597Y-2.809
X3.9597Y-2.509
X3.9597Y-2.809
X4.0597Y-2.509
X4.0597Y-2.809
X4.1597Y-2.509
X4.1597Y-2.809
X4.2597Y-2.509
X4.2597Y-2.809
X5.5597Y-2.509
X5.5597Y-2.809
X5.6597Y-2.509
X5.6597Y-2.809
X5.7597Y-2.509
X5.7597Y-2.809
X5.8597Y-2.509
X5.8597Y-2.809
X5.9597Y-2.509
X5.9597Y-2.809
X6.0597Y-2.509
X6.0597Y-2.809
X6.1597Y-2.509
X6.1597Y-2.809
X6.2597Y-2.509
X6.2597Y-2.809
X6.3597Y-2.509
X6.3597Y-2.809
X4.5597Y-2.509
X4.5597Y-2.809
X4.6597Y-2.509
X4.6597Y-2.809
X4.7597Y-2.509
X4.7597Y-2.809
X4.8597Y-2.509
X4.8597Y-2.809
X4.9597Y-2.509
X4.9597Y-2.809
X5.0597Y-2.509
X5.0597Y-2.809
X5.1597Y-2.509
X5.1597Y-2.809
X5.2597Y-2.509
X5.2597Y-2.809
X4.2897Y-4.4121
X4.2897Y-4.609
X6.6897Y-3.099
X7.0897Y-3.099
X6.7628Y-3.379
X6.9597Y-3.379
X6.3597Y-3.509
X6.3597Y-3.609
X6.3597Y-3.709
X6.3597Y-3.809
X6.3597Y-3.909
X6.3597Y-4.009
X6.3597Y-4.109
X6.3597Y-4.209
X6.3597Y-4.309
X6.3597Y-4.409
X6.3597Y-4.509
X6.3597Y-4.609
X6.9597Y-3.509
X6.9597Y-3.609
X6.9597Y-3.709
X6.9597Y-3.809
X6.9597Y-3.909
X6.9597Y-4.009
X6.9597Y-4.109
X6.9597Y-4.209
X6.9597Y-4.309
X6.9597Y-4.409
X6.9597Y-4.509
X6.9597Y-4.609
X6.6897Y-2.489
X6.8826Y-2.489
X5.1628Y-3.279
X5.3597Y-3.279
X5.5597Y-3.309
X5.5597Y-3.409
X5.5597Y-3.509
X5.5597Y-3.609
X5.5597Y-3.709
X5.5597Y-3.809
X5.5597Y-3.909
X5.5597Y-4.009
X5.5597Y-4.109
X5.5597Y-4.209
X5.5597Y-4.309
X5.5597Y-4.409
X5.5597Y-4.509
X5.5597Y-4.609
X6.1597Y-3.309
X6.1597Y-3.409
X6.1597Y-3.509
X6.1597Y-3.609
X6.1597Y-3.709
X6.1597Y-3.809
X6.1597Y-3.909
X6.1597Y-4.009
X6.1597Y-4.109
X6.1597Y-4.209
X6.1597Y-4.309
X6.1597Y-4.409
X6.1597Y-4.509
X6.1597Y-4.609
X3.2597Y-4.309
X3.2597Y-4.609
X3.3597Y-4.309
X3.3597Y-4.609
X3.4597Y-4.309
X3.4597Y-4.609
X3.5597Y-4.309
X3.5597Y-4.609
X3.6597Y-4.309
X3.6597Y-4.609
X3.7597Y-4.309
X3.7597Y-4.609
X3.8597Y-4.309
X3.8597Y-4.609
X3.9597Y-4.309
X3.9597Y-4.609
X4.0597Y-4.309
X4.0597Y-4.609
X4.1597Y-4.309
X4.1597Y-4.609
X6.4897Y-2.6121
X6.4897Y-2.809
X4.3897Y-2.6121
X4.3897Y-2.809
X3.1797Y-2.489
X3.1797Y-2.6859
X6.6897Y-2.859
X7.0897Y-2.859
X5.3897Y-2.6121
X5.3897Y-2.809
X5.9628Y-3.179
X6.1597Y-3.179
X5.0597Y-3.409
X5.0597Y-3.509
X5.0597Y-3.609
X5.0597Y-3.709
X5.0597Y-3.809
X5.0597Y-3.909
X5.0597Y-4.009
X5.0597Y-4.109
X5.0597Y-4.209
X5.0597Y-4.309
X5.3597Y-3.409
X5.3597Y-3.509
X5.3597Y-3.609
X5.3597Y-3.709
X5.3597Y-3.809
X5.3597Y-3.909
X5.3597Y-4.009
X5.3597Y-4.109
X5.3597Y-4.209
X5.3597Y-4.309
T3
X2.3597Y-2.609
X2.3597Y-2.709
X2.3597Y-2.809
X2.3597Y-2.909
X2.3597Y-3.009
X2.3597Y-3.109
X2.3597Y-3.209
X2.3597Y-3.309
X2.3597Y-3.409
X2.3597Y-3.509
X2.3597Y-3.609
X2.3597Y-3.709
X2.3597Y-3.809
X2.3597Y-3.909
X2.3597Y-4.009
X2.3597Y-4.109
X2.3597Y-4.209
X2.3597Y-4.309
X2.3597Y-4.409
X2.3597Y-4.509
X2.9597Y-2.609
X2.9597Y-2.709
X2.9597Y-2.809
X2.9597Y-2.909
X2.9597Y-3.009
X2.9597Y-3.109
X2.9597Y-3.209
X2.9597Y-3.309
X2.9597Y-3.409
X2.9597Y-3.509
X2.9597Y-3.609
X2.9597Y-3.709
X2.9597Y-3.809
X2.9597Y-3.909
X2.9597Y-4.009
X2.9597Y-4.109
X2.9597Y-4.209
X2.9597Y-4.309
X2.9597Y-4.409
X2.9597Y-4.509
T4
X7.1497Y-4.809
X7.1497Y-2.559
T0
M30
