G04 #@! TF.GenerationSoftware,KiCad,Pcbnew,(5.1.8)-1*
G04 #@! TF.CreationDate,2021-11-26T20:48:40-07:00*
G04 #@! TF.ProjectId,V40,5634302e-6b69-4636-9164-5f7063625858,rev?*
G04 #@! TF.SameCoordinates,Original*
G04 #@! TF.FileFunction,Soldermask,Bot*
G04 #@! TF.FilePolarity,Negative*
%FSLAX46Y46*%
G04 Gerber Fmt 4.6, Leading zero omitted, Abs format (unit mm)*
G04 Created by KiCad (PCBNEW (5.1.8)-1) date 2021-11-26 20:48:40*
%MOMM*%
%LPD*%
G01*
G04 APERTURE LIST*
%ADD10O,1.600000X1.600000*%
%ADD11C,1.600000*%
%ADD12C,1.500000*%
%ADD13R,1.780000X7.620000*%
%ADD14R,1.600000X1.600000*%
%ADD15C,1.422400*%
%ADD16R,1.422400X1.422400*%
%ADD17C,3.556000*%
G04 APERTURE END LIST*
D10*
G04 #@! TO.C,R1*
X170426380Y-92176600D03*
D11*
X160266380Y-92176600D03*
G04 #@! TD*
D12*
G04 #@! TO.C,Y1*
X124780380Y-95732600D03*
X119880380Y-95732600D03*
G04 #@! TD*
D10*
G04 #@! TO.C,R2*
X170426380Y-89128600D03*
D11*
X160266380Y-89128600D03*
G04 #@! TD*
D13*
G04 #@! TO.C,J1*
X57396380Y-129768600D03*
X59936380Y-129768600D03*
X62476380Y-129768600D03*
X65016380Y-129768600D03*
X67556380Y-129768600D03*
X70096380Y-129768600D03*
X72636380Y-129768600D03*
X75176380Y-129768600D03*
G04 #@! TD*
D10*
G04 #@! TO.C,U4*
X165346380Y-114528600D03*
X142486380Y-106908600D03*
X162806380Y-114528600D03*
X145026380Y-106908600D03*
X160266380Y-114528600D03*
X147566380Y-106908600D03*
X157726380Y-114528600D03*
X150106380Y-106908600D03*
X155186380Y-114528600D03*
X152646380Y-106908600D03*
X152646380Y-114528600D03*
X155186380Y-106908600D03*
X150106380Y-114528600D03*
X157726380Y-106908600D03*
X147566380Y-114528600D03*
X160266380Y-106908600D03*
X145026380Y-114528600D03*
X162806380Y-106908600D03*
X142486380Y-114528600D03*
D14*
X165346380Y-106908600D03*
G04 #@! TD*
D10*
G04 #@! TO.C,U3*
X134866380Y-114528600D03*
X112006380Y-106908600D03*
X132326380Y-114528600D03*
X114546380Y-106908600D03*
X129786380Y-114528600D03*
X117086380Y-106908600D03*
X127246380Y-114528600D03*
X119626380Y-106908600D03*
X124706380Y-114528600D03*
X122166380Y-106908600D03*
X122166380Y-114528600D03*
X124706380Y-106908600D03*
X119626380Y-114528600D03*
X127246380Y-106908600D03*
X117086380Y-114528600D03*
X129786380Y-106908600D03*
X114546380Y-114528600D03*
X132326380Y-106908600D03*
X112006380Y-114528600D03*
D14*
X134866380Y-106908600D03*
G04 #@! TD*
D10*
G04 #@! TO.C,U2*
X104386380Y-114528600D03*
X81526380Y-106908600D03*
X101846380Y-114528600D03*
X84066380Y-106908600D03*
X99306380Y-114528600D03*
X86606380Y-106908600D03*
X96766380Y-114528600D03*
X89146380Y-106908600D03*
X94226380Y-114528600D03*
X91686380Y-106908600D03*
X91686380Y-114528600D03*
X94226380Y-106908600D03*
X89146380Y-114528600D03*
X96766380Y-106908600D03*
X86606380Y-114528600D03*
X99306380Y-106908600D03*
X84066380Y-114528600D03*
X101846380Y-106908600D03*
X81526380Y-114528600D03*
D14*
X104386380Y-106908600D03*
G04 #@! TD*
D15*
G04 #@! TO.C,U1*
X134866380Y-89128600D03*
X132326380Y-89128600D03*
X129786380Y-89128600D03*
X127246380Y-89128600D03*
X124706380Y-89128600D03*
X122166380Y-89128600D03*
X119626380Y-89128600D03*
X117086380Y-89128600D03*
X137406380Y-86588600D03*
X132326380Y-86588600D03*
X129786380Y-86588600D03*
X127246380Y-86588600D03*
X124706380Y-86588600D03*
X122166380Y-86588600D03*
X119626380Y-86588600D03*
X117086380Y-86588600D03*
X114546380Y-86588600D03*
X112006380Y-86588600D03*
X112006380Y-84048600D03*
X112006380Y-81508600D03*
X112006380Y-78968600D03*
X112006380Y-76428600D03*
X112006380Y-73888600D03*
X112006380Y-71348600D03*
X112006380Y-68808600D03*
X112006380Y-66268600D03*
X114546380Y-89128600D03*
X114546380Y-84048600D03*
X114546380Y-81508600D03*
X114546380Y-78968600D03*
X114546380Y-76428600D03*
X114546380Y-73888600D03*
X114546380Y-71348600D03*
X114546380Y-68808600D03*
X114546380Y-66268600D03*
X114546380Y-63728600D03*
X117086380Y-63728600D03*
X119626380Y-63728600D03*
X122166380Y-63728600D03*
X124706380Y-63728600D03*
X127246380Y-63728600D03*
X129786380Y-63728600D03*
X132326380Y-63728600D03*
X134866380Y-63728600D03*
X117086380Y-66268600D03*
X119626380Y-66268600D03*
X122166380Y-66268600D03*
X124706380Y-66268600D03*
X127246380Y-66268600D03*
X129786380Y-66268600D03*
X132326380Y-66268600D03*
X134866380Y-66268600D03*
X137406380Y-84048600D03*
X137406380Y-81508600D03*
X137406380Y-78968600D03*
X137406380Y-66268600D03*
X137406380Y-68808600D03*
X137406380Y-71348600D03*
X137406380Y-73888600D03*
D16*
X137406380Y-76428600D03*
D15*
X134866380Y-86588600D03*
X134866380Y-84048600D03*
X134866380Y-81508600D03*
X134866380Y-78968600D03*
X134866380Y-68808600D03*
X134866380Y-71348600D03*
X134866380Y-73888600D03*
X134866380Y-76428600D03*
G04 #@! TD*
D11*
G04 #@! TO.C,C4*
X168648380Y-114528600D03*
X168648380Y-109528600D03*
G04 #@! TD*
G04 #@! TO.C,C3*
X138168380Y-114528600D03*
X138168380Y-109528600D03*
G04 #@! TD*
G04 #@! TO.C,C2*
X107688380Y-114528600D03*
X107688380Y-109528600D03*
G04 #@! TD*
G04 #@! TO.C,C1*
X142232380Y-76428600D03*
X142232380Y-81428600D03*
G04 #@! TD*
D13*
G04 #@! TO.C,J9*
X85336380Y-129768600D03*
X87876380Y-129768600D03*
X90416380Y-129768600D03*
X92956380Y-129768600D03*
X95496380Y-129768600D03*
X98036380Y-129768600D03*
X100576380Y-129768600D03*
X103116380Y-129768600D03*
X105656380Y-129768600D03*
X108196380Y-129768600D03*
X110736380Y-129768600D03*
X113276380Y-129768600D03*
X115816380Y-129768600D03*
X118356380Y-129768600D03*
X120896380Y-129768600D03*
X123436380Y-129768600D03*
X125976380Y-129768600D03*
X128516380Y-129768600D03*
X131056380Y-129768600D03*
X133596380Y-129768600D03*
X136136380Y-129768600D03*
X138676380Y-129768600D03*
X141216380Y-129768600D03*
X143756380Y-129768600D03*
X146296380Y-129768600D03*
X148836380Y-129768600D03*
X151376380Y-129768600D03*
X153916380Y-129768600D03*
X156456380Y-129768600D03*
X158996380Y-129768600D03*
X161536380Y-129768600D03*
G04 #@! TD*
D17*
G04 #@! TO.C,R*
X181602380Y-122148600D03*
G04 #@! TD*
G04 #@! TO.C,R*
X181602380Y-64998600D03*
G04 #@! TD*
M02*
