M48
; DRILL file {KiCad (5.1.8)-1} date 09/02/21 18:18:30
; FORMAT={-:-/ absolute / inch / decimal}
; #@! TF.CreationDate,2021-09-02T18:18:30-06:00
; #@! TF.GenerationSoftware,Kicad,Pcbnew,(5.1.8)-1
; #@! TF.FileFunction,Plated,1,2,PTH
FMAT,2
INCH
T1C0.0157
T2C0.0315
T3C0.1200
%
G90
G05
T1
X2.2597Y-3.139
X2.3097Y-3.459
X2.3097Y-4.909
X2.4097Y-3.559
X2.4097Y-4.909
X2.5097Y-3.509
X2.5097Y-4.909
X2.7097Y-2.809
X2.7097Y-4.399
X2.7097Y-4.909
X2.8097Y-2.909
X2.8097Y-4.909
X2.9597Y-3.109
X3.0097Y-3.079
X3.0097Y-4.909
X3.2097Y-4.319
X3.2097Y-4.589
X3.3097Y-2.509
X3.3097Y-3.919
X3.3097Y-4.909
X3.3597Y-4.319
X3.4097Y-2.539
X3.4097Y-3.949
X3.4097Y-4.909
X3.5097Y-2.569
X3.5097Y-3.979
X3.5097Y-4.909
X3.5597Y-4.439
X3.6097Y-2.659
X3.6097Y-4.009
X3.6097Y-4.909
X3.6597Y-3.889
X3.6597Y-4.589
X3.7097Y-2.459
X3.7097Y-4.039
X3.7097Y-4.909
X3.8097Y-2.759
X3.8097Y-4.069
X3.8097Y-4.909
X3.8597Y-3.209
X3.9097Y-2.429
X3.9097Y-4.099
X3.9397Y-4.909
X3.9597Y-3.259
X4.0097Y-2.399
X4.0097Y-4.129
X4.0397Y-4.909
X4.0597Y-3.309
X4.1097Y-4.399
X4.1597Y-2.859
X4.1597Y-4.909
X4.1897Y-2.959
X4.2097Y-4.909
X4.2397Y-4.439
X4.2597Y-3.359
X4.3097Y-3.029
X4.3097Y-4.909
X4.3397Y-2.809
X4.3397Y-2.909
X4.3397Y-3.079
X4.3597Y-2.569
X4.3597Y-3.409
X4.4097Y-4.319
X4.4097Y-4.589
X4.4297Y-4.909
X4.5297Y-4.909
X4.5797Y-3.259
X4.5797Y-3.329
X4.5797Y-4.589
X4.5897Y-2.829
X4.5897Y-2.909
X4.5897Y-3.099
X4.6297Y-4.909
X4.6297Y-3.299
X4.6597Y-2.729
X4.7197Y-3.709
X4.7297Y-4.909
X4.7597Y-2.789
X4.8097Y-2.429
X4.8097Y-2.759
X4.8097Y-3.889
X4.8297Y-4.909
X4.8597Y-2.399
X4.8597Y-2.759
X4.9097Y-2.439
X4.9097Y-3.599
X4.9097Y-3.839
X4.9097Y-4.909
X4.9597Y-2.959
X4.9597Y-3.649
X4.9597Y-3.709
X5.0097Y-2.859
X5.0097Y-3.679
X5.0097Y-3.769
X5.0097Y-3.829
X5.0097Y-4.909
X5.0597Y-3.259
X5.0597Y-3.709
X5.0897Y-3.769
X5.1097Y-3.059
X5.1097Y-3.859
X5.1097Y-4.909
X5.1197Y-3.739
X5.1597Y-2.729
X5.1897Y-3.329
X5.2097Y-3.889
X5.2097Y-4.909
X5.2197Y-2.759
X5.2297Y-3.129
X5.2297Y-3.329
X5.2497Y-2.789
X5.3097Y-4.399
X5.3897Y-4.909
X5.4097Y-3.709
X5.4397Y-4.439
X5.4997Y-3.109
X5.5397Y-2.439
X5.5397Y-3.199
X5.5397Y-4.319
X5.5997Y-3.109
X5.5997Y-3.509
X5.5997Y-3.599
X5.6097Y-4.319
X5.6097Y-4.909
X5.7097Y-3.919
X5.7097Y-4.909
X5.7197Y-2.609
X5.7197Y-3.799
X5.7497Y-2.659
X5.7497Y-3.829
X5.7797Y-2.709
X5.7797Y-3.859
X5.8097Y-2.759
X5.8097Y-3.889
X5.8097Y-3.949
X5.8097Y-4.909
X5.8597Y-2.809
X5.8597Y-4.589
X5.9097Y-3.979
X5.9097Y-4.909
X6.0097Y-4.009
X6.0097Y-4.909
X6.0597Y-3.359
X6.1097Y-4.039
X6.1097Y-4.909
X6.1597Y-4.439
X6.2097Y-4.069
X6.2097Y-4.909
X6.3097Y-3.739
X6.3097Y-4.099
X6.3097Y-4.909
X6.3597Y-3.739
X6.3597Y-4.319
X6.3597Y-4.809
X6.4097Y-4.129
X6.5097Y-3.769
X6.6397Y-4.439
X6.7097Y-3.259
X6.7097Y-4.439
T2
X5.4397Y-4.3121
X5.4397Y-4.509
X4.7197Y-3.769
X4.9126Y-3.769
X5.6097Y-4.209
X5.6097Y-4.509
X5.7097Y-4.209
X5.7097Y-4.509
X5.8097Y-4.209
X5.8097Y-4.509
X5.9097Y-4.209
X5.9097Y-4.509
X6.0097Y-4.209
X6.0097Y-4.509
X6.1097Y-4.209
X6.1097Y-4.509
X6.2097Y-4.209
X6.2097Y-4.509
X6.3097Y-4.209
X6.3097Y-4.509
X6.4097Y-4.209
X6.4097Y-4.509
X6.5097Y-4.209
X6.5097Y-4.509
X6.6397Y-4.3121
X6.6397Y-4.509
X6.3097Y-3.629
X6.7097Y-3.629
X4.2397Y-4.3121
X4.2397Y-4.509
X4.4097Y-2.609
X4.4097Y-2.709
X4.4097Y-2.809
X4.4097Y-2.909
X4.4097Y-3.009
X4.4097Y-3.109
X4.4097Y-3.209
X4.4097Y-3.309
X4.4097Y-3.409
X4.5097Y-2.509
X4.5097Y-2.609
X4.5097Y-2.709
X4.5097Y-2.809
X4.5097Y-2.909
X4.5097Y-3.009
X4.5097Y-3.109
X4.5097Y-3.209
X4.5097Y-3.309
X4.5097Y-3.409
X4.5097Y-3.509
X4.6097Y-2.509
X4.6097Y-2.609
X4.6097Y-3.409
X4.6097Y-3.509
X4.7097Y-2.509
X4.7097Y-2.609
X4.7097Y-3.409
X4.7097Y-3.509
X4.8097Y-2.509
X4.8097Y-2.609
X4.8097Y-3.409
X4.8097Y-3.509
X4.9097Y-2.509
X4.9097Y-2.609
X4.9097Y-3.409
X4.9097Y-3.509
X5.0097Y-2.509
X5.0097Y-2.609
X5.0097Y-3.409
X5.0097Y-3.509
X5.1097Y-2.509
X5.1097Y-2.609
X5.1097Y-3.409
X5.1097Y-3.509
X5.2097Y-2.509
X5.2097Y-2.609
X5.2097Y-3.409
X5.2097Y-3.509
X5.3097Y-2.509
X5.3097Y-2.609
X5.3097Y-2.709
X5.3097Y-2.809
X5.3097Y-2.909
X5.3097Y-3.009
X5.3097Y-3.109
X5.3097Y-3.209
X5.3097Y-3.309
X5.3097Y-3.409
X5.3097Y-3.509
X5.4097Y-2.609
X5.4097Y-2.709
X5.4097Y-2.809
X5.4097Y-2.909
X5.4097Y-3.009
X5.4097Y-3.109
X5.4097Y-3.209
X5.4097Y-3.309
X5.4097Y-3.409
X3.2097Y-4.209
X3.2097Y-4.509
X3.3097Y-4.209
X3.3097Y-4.509
X3.4097Y-4.209
X3.4097Y-4.509
X3.5097Y-4.209
X3.5097Y-4.509
X3.6097Y-4.209
X3.6097Y-4.509
X3.7097Y-4.209
X3.7097Y-4.509
X3.8097Y-4.209
X3.8097Y-4.509
X3.9097Y-4.209
X3.9097Y-4.509
X4.0097Y-4.209
X4.0097Y-4.509
X4.1097Y-4.209
X4.1097Y-4.509
X6.3097Y-3.509
X6.7097Y-3.509
X5.5997Y-3.009
X5.5997Y-3.2059
X4.4097Y-4.209
X4.4097Y-4.509
X4.5097Y-4.209
X4.5097Y-4.509
X4.6097Y-4.209
X4.6097Y-4.509
X4.7097Y-4.209
X4.7097Y-4.509
X4.8097Y-4.209
X4.8097Y-4.509
X4.9097Y-4.209
X4.9097Y-4.509
X5.0097Y-4.209
X5.0097Y-4.509
X5.1097Y-4.209
X5.1097Y-4.509
X5.2097Y-4.209
X5.2097Y-4.509
X5.3097Y-4.209
X5.3097Y-4.509
T3
X7.1497Y-4.809
X7.1497Y-2.559
T0
M30
