G04 #@! TF.GenerationSoftware,KiCad,Pcbnew,(5.1.8)-1*
G04 #@! TF.CreationDate,2023-02-17T13:20:17-07:00*
G04 #@! TF.ProjectId,V40,5634302e-6b69-4636-9164-5f7063625858,rev?*
G04 #@! TF.SameCoordinates,Original*
G04 #@! TF.FileFunction,Legend,Top*
G04 #@! TF.FilePolarity,Positive*
%FSLAX46Y46*%
G04 Gerber Fmt 4.6, Leading zero omitted, Abs format (unit mm)*
G04 Created by KiCad (PCBNEW (5.1.8)-1) date 2023-02-17 13:20:17*
%MOMM*%
%LPD*%
G01*
G04 APERTURE LIST*
%ADD10C,0.150000*%
%ADD11C,0.120000*%
G04 APERTURE END LIST*
D10*
X55445975Y-60674171D02*
X55779308Y-60674171D01*
X55922165Y-61197980D02*
X55445975Y-61197980D01*
X55445975Y-60197980D01*
X55922165Y-60197980D01*
X56350737Y-61197980D02*
X56350737Y-60197980D01*
X56684070Y-60912266D01*
X57017403Y-60197980D01*
X57017403Y-61197980D01*
X57493594Y-61197980D02*
X57493594Y-60197980D01*
X57826927Y-60912266D01*
X58160260Y-60197980D01*
X58160260Y-61197980D01*
X59969784Y-61102742D02*
X59922165Y-61150361D01*
X59779308Y-61197980D01*
X59684070Y-61197980D01*
X59541213Y-61150361D01*
X59445975Y-61055123D01*
X59398356Y-60959885D01*
X59350737Y-60769409D01*
X59350737Y-60626552D01*
X59398356Y-60436076D01*
X59445975Y-60340838D01*
X59541213Y-60245600D01*
X59684070Y-60197980D01*
X59779308Y-60197980D01*
X59922165Y-60245600D01*
X59969784Y-60293219D01*
X60588832Y-60197980D02*
X60779308Y-60197980D01*
X60874546Y-60245600D01*
X60969784Y-60340838D01*
X61017403Y-60531314D01*
X61017403Y-60864647D01*
X60969784Y-61055123D01*
X60874546Y-61150361D01*
X60779308Y-61197980D01*
X60588832Y-61197980D01*
X60493594Y-61150361D01*
X60398356Y-61055123D01*
X60350737Y-60864647D01*
X60350737Y-60531314D01*
X60398356Y-60340838D01*
X60493594Y-60245600D01*
X60588832Y-60197980D01*
X61445975Y-61197980D02*
X61445975Y-60197980D01*
X61779308Y-60912266D01*
X62112641Y-60197980D01*
X62112641Y-61197980D01*
X62588832Y-61197980D02*
X62588832Y-60197980D01*
X62969784Y-60197980D01*
X63065022Y-60245600D01*
X63112641Y-60293219D01*
X63160260Y-60388457D01*
X63160260Y-60531314D01*
X63112641Y-60626552D01*
X63065022Y-60674171D01*
X62969784Y-60721790D01*
X62588832Y-60721790D01*
X63588832Y-60197980D02*
X63588832Y-61007504D01*
X63636451Y-61102742D01*
X63684070Y-61150361D01*
X63779308Y-61197980D01*
X63969784Y-61197980D01*
X64065022Y-61150361D01*
X64112641Y-61102742D01*
X64160260Y-61007504D01*
X64160260Y-60197980D01*
X64493594Y-60197980D02*
X65065022Y-60197980D01*
X64779308Y-61197980D02*
X64779308Y-60197980D01*
X65398356Y-60674171D02*
X65731689Y-60674171D01*
X65874546Y-61197980D02*
X65398356Y-61197980D01*
X65398356Y-60197980D01*
X65874546Y-60197980D01*
X66874546Y-61197980D02*
X66541213Y-60721790D01*
X66303118Y-61197980D02*
X66303118Y-60197980D01*
X66684070Y-60197980D01*
X66779308Y-60245600D01*
X66826927Y-60293219D01*
X66874546Y-60388457D01*
X66874546Y-60531314D01*
X66826927Y-60626552D01*
X66779308Y-60674171D01*
X66684070Y-60721790D01*
X66303118Y-60721790D01*
X67255499Y-61150361D02*
X67398356Y-61197980D01*
X67636451Y-61197980D01*
X67731689Y-61150361D01*
X67779308Y-61102742D01*
X67826927Y-61007504D01*
X67826927Y-60912266D01*
X67779308Y-60817028D01*
X67731689Y-60769409D01*
X67636451Y-60721790D01*
X67445975Y-60674171D01*
X67350737Y-60626552D01*
X67303118Y-60578933D01*
X67255499Y-60483695D01*
X67255499Y-60388457D01*
X67303118Y-60293219D01*
X67350737Y-60245600D01*
X67445975Y-60197980D01*
X67684070Y-60197980D01*
X67826927Y-60245600D01*
X55303118Y-61847980D02*
X55636451Y-62847980D01*
X55969784Y-61847980D01*
X56731689Y-62181314D02*
X56731689Y-62847980D01*
X56493594Y-61800361D02*
X56255499Y-62514647D01*
X56874546Y-62514647D01*
X57445975Y-61847980D02*
X57541213Y-61847980D01*
X57636451Y-61895600D01*
X57684070Y-61943219D01*
X57731689Y-62038457D01*
X57779308Y-62228933D01*
X57779308Y-62467028D01*
X57731689Y-62657504D01*
X57684070Y-62752742D01*
X57636451Y-62800361D01*
X57541213Y-62847980D01*
X57445975Y-62847980D01*
X57350737Y-62800361D01*
X57303118Y-62752742D01*
X57255499Y-62657504D01*
X57207880Y-62467028D01*
X57207880Y-62228933D01*
X57255499Y-62038457D01*
X57303118Y-61943219D01*
X57350737Y-61895600D01*
X57445975Y-61847980D01*
X59255499Y-63228933D02*
X59207880Y-63181314D01*
X59112641Y-63038457D01*
X59065022Y-62943219D01*
X59017403Y-62800361D01*
X58969784Y-62562266D01*
X58969784Y-62371790D01*
X59017403Y-62133695D01*
X59065022Y-61990838D01*
X59112641Y-61895600D01*
X59207880Y-61752742D01*
X59255499Y-61705123D01*
X59541213Y-61847980D02*
X60207880Y-61847980D01*
X59779308Y-62847980D01*
X60779308Y-61847980D02*
X60874546Y-61847980D01*
X60969784Y-61895600D01*
X61017403Y-61943219D01*
X61065022Y-62038457D01*
X61112641Y-62228933D01*
X61112641Y-62467028D01*
X61065022Y-62657504D01*
X61017403Y-62752742D01*
X60969784Y-62800361D01*
X60874546Y-62847980D01*
X60779308Y-62847980D01*
X60684070Y-62800361D01*
X60636451Y-62752742D01*
X60588832Y-62657504D01*
X60541213Y-62467028D01*
X60541213Y-62228933D01*
X60588832Y-62038457D01*
X60636451Y-61943219D01*
X60684070Y-61895600D01*
X60779308Y-61847980D01*
X61493594Y-61943219D02*
X61541213Y-61895600D01*
X61636451Y-61847980D01*
X61874546Y-61847980D01*
X61969784Y-61895600D01*
X62017403Y-61943219D01*
X62065022Y-62038457D01*
X62065022Y-62133695D01*
X62017403Y-62276552D01*
X61445975Y-62847980D01*
X62065022Y-62847980D01*
X62684070Y-61847980D02*
X62779308Y-61847980D01*
X62874546Y-61895600D01*
X62922165Y-61943219D01*
X62969784Y-62038457D01*
X63017403Y-62228933D01*
X63017403Y-62467028D01*
X62969784Y-62657504D01*
X62922165Y-62752742D01*
X62874546Y-62800361D01*
X62779308Y-62847980D01*
X62684070Y-62847980D01*
X62588832Y-62800361D01*
X62541213Y-62752742D01*
X62493594Y-62657504D01*
X62445975Y-62467028D01*
X62445975Y-62228933D01*
X62493594Y-62038457D01*
X62541213Y-61943219D01*
X62588832Y-61895600D01*
X62684070Y-61847980D01*
X63588832Y-62276552D02*
X63493594Y-62228933D01*
X63445975Y-62181314D01*
X63398356Y-62086076D01*
X63398356Y-62038457D01*
X63445975Y-61943219D01*
X63493594Y-61895600D01*
X63588832Y-61847980D01*
X63779308Y-61847980D01*
X63874546Y-61895600D01*
X63922165Y-61943219D01*
X63969784Y-62038457D01*
X63969784Y-62086076D01*
X63922165Y-62181314D01*
X63874546Y-62228933D01*
X63779308Y-62276552D01*
X63588832Y-62276552D01*
X63493594Y-62324171D01*
X63445975Y-62371790D01*
X63398356Y-62467028D01*
X63398356Y-62657504D01*
X63445975Y-62752742D01*
X63493594Y-62800361D01*
X63588832Y-62847980D01*
X63779308Y-62847980D01*
X63874546Y-62800361D01*
X63922165Y-62752742D01*
X63969784Y-62657504D01*
X63969784Y-62467028D01*
X63922165Y-62371790D01*
X63874546Y-62324171D01*
X63779308Y-62276552D01*
X64303118Y-63228933D02*
X64350737Y-63181314D01*
X64445975Y-63038457D01*
X64493594Y-62943219D01*
X64541213Y-62800361D01*
X64588832Y-62562266D01*
X64588832Y-62371790D01*
X64541213Y-62133695D01*
X64493594Y-61990838D01*
X64445975Y-61895600D01*
X64350737Y-61752742D01*
X64303118Y-61705123D01*
X65826927Y-62847980D02*
X65826927Y-61847980D01*
X66207880Y-61847980D01*
X66303118Y-61895600D01*
X66350737Y-61943219D01*
X66398356Y-62038457D01*
X66398356Y-62181314D01*
X66350737Y-62276552D01*
X66303118Y-62324171D01*
X66207880Y-62371790D01*
X65826927Y-62371790D01*
X67398356Y-62847980D02*
X67065022Y-62371790D01*
X66826927Y-62847980D02*
X66826927Y-61847980D01*
X67207880Y-61847980D01*
X67303118Y-61895600D01*
X67350737Y-61943219D01*
X67398356Y-62038457D01*
X67398356Y-62181314D01*
X67350737Y-62276552D01*
X67303118Y-62324171D01*
X67207880Y-62371790D01*
X66826927Y-62371790D01*
X68017403Y-61847980D02*
X68207880Y-61847980D01*
X68303118Y-61895600D01*
X68398356Y-61990838D01*
X68445975Y-62181314D01*
X68445975Y-62514647D01*
X68398356Y-62705123D01*
X68303118Y-62800361D01*
X68207880Y-62847980D01*
X68017403Y-62847980D01*
X67922165Y-62800361D01*
X67826927Y-62705123D01*
X67779308Y-62514647D01*
X67779308Y-62181314D01*
X67826927Y-61990838D01*
X67922165Y-61895600D01*
X68017403Y-61847980D01*
X69445975Y-62752742D02*
X69398356Y-62800361D01*
X69255499Y-62847980D01*
X69160260Y-62847980D01*
X69017403Y-62800361D01*
X68922165Y-62705123D01*
X68874546Y-62609885D01*
X68826927Y-62419409D01*
X68826927Y-62276552D01*
X68874546Y-62086076D01*
X68922165Y-61990838D01*
X69017403Y-61895600D01*
X69160260Y-61847980D01*
X69255499Y-61847980D01*
X69398356Y-61895600D01*
X69445975Y-61943219D01*
X69874546Y-62324171D02*
X70207880Y-62324171D01*
X70350737Y-62847980D02*
X69874546Y-62847980D01*
X69874546Y-61847980D01*
X70350737Y-61847980D01*
X70731689Y-62800361D02*
X70874546Y-62847980D01*
X71112641Y-62847980D01*
X71207880Y-62800361D01*
X71255499Y-62752742D01*
X71303118Y-62657504D01*
X71303118Y-62562266D01*
X71255499Y-62467028D01*
X71207880Y-62419409D01*
X71112641Y-62371790D01*
X70922165Y-62324171D01*
X70826927Y-62276552D01*
X70779308Y-62228933D01*
X70731689Y-62133695D01*
X70731689Y-62038457D01*
X70779308Y-61943219D01*
X70826927Y-61895600D01*
X70922165Y-61847980D01*
X71160260Y-61847980D01*
X71303118Y-61895600D01*
X71684070Y-62800361D02*
X71826927Y-62847980D01*
X72065022Y-62847980D01*
X72160260Y-62800361D01*
X72207880Y-62752742D01*
X72255499Y-62657504D01*
X72255499Y-62562266D01*
X72207880Y-62467028D01*
X72160260Y-62419409D01*
X72065022Y-62371790D01*
X71874546Y-62324171D01*
X71779308Y-62276552D01*
X71731689Y-62228933D01*
X71684070Y-62133695D01*
X71684070Y-62038457D01*
X71731689Y-61943219D01*
X71779308Y-61895600D01*
X71874546Y-61847980D01*
X72112641Y-61847980D01*
X72255499Y-61895600D01*
X72874546Y-61847980D02*
X73065022Y-61847980D01*
X73160260Y-61895600D01*
X73255499Y-61990838D01*
X73303118Y-62181314D01*
X73303118Y-62514647D01*
X73255499Y-62705123D01*
X73160260Y-62800361D01*
X73065022Y-62847980D01*
X72874546Y-62847980D01*
X72779308Y-62800361D01*
X72684070Y-62705123D01*
X72636451Y-62514647D01*
X72636451Y-62181314D01*
X72684070Y-61990838D01*
X72779308Y-61895600D01*
X72874546Y-61847980D01*
X74303118Y-62847980D02*
X73969784Y-62371790D01*
X73731689Y-62847980D02*
X73731689Y-61847980D01*
X74112641Y-61847980D01*
X74207880Y-61895600D01*
X74255499Y-61943219D01*
X74303118Y-62038457D01*
X74303118Y-62181314D01*
X74255499Y-62276552D01*
X74207880Y-62324171D01*
X74112641Y-62371790D01*
X73731689Y-62371790D01*
X74779308Y-62800361D02*
X74779308Y-62847980D01*
X74731689Y-62943219D01*
X74684070Y-62990838D01*
X75969784Y-62847980D02*
X75969784Y-61847980D01*
X76541213Y-62847980D01*
X76541213Y-61847980D01*
X77207880Y-61847980D02*
X77398356Y-61847980D01*
X77493594Y-61895600D01*
X77588832Y-61990838D01*
X77636451Y-62181314D01*
X77636451Y-62514647D01*
X77588832Y-62705123D01*
X77493594Y-62800361D01*
X77398356Y-62847980D01*
X77207880Y-62847980D01*
X77112641Y-62800361D01*
X77017403Y-62705123D01*
X76969784Y-62514647D01*
X76969784Y-62181314D01*
X77017403Y-61990838D01*
X77112641Y-61895600D01*
X77207880Y-61847980D01*
X78826927Y-62847980D02*
X78826927Y-61847980D01*
X79065022Y-61847980D01*
X79207880Y-61895600D01*
X79303118Y-61990838D01*
X79350737Y-62086076D01*
X79398356Y-62276552D01*
X79398356Y-62419409D01*
X79350737Y-62609885D01*
X79303118Y-62705123D01*
X79207880Y-62800361D01*
X79065022Y-62847980D01*
X78826927Y-62847980D01*
X79826927Y-62847980D02*
X79826927Y-61847980D01*
X80160260Y-62562266D01*
X80493594Y-61847980D01*
X80493594Y-62847980D01*
X80922165Y-62562266D02*
X81398356Y-62562266D01*
X80826927Y-62847980D02*
X81160260Y-61847980D01*
X81493594Y-62847980D01*
X56017403Y-64402742D02*
X55969784Y-64450361D01*
X55826927Y-64497980D01*
X55731689Y-64497980D01*
X55588832Y-64450361D01*
X55493594Y-64355123D01*
X55445975Y-64259885D01*
X55398356Y-64069409D01*
X55398356Y-63926552D01*
X55445975Y-63736076D01*
X55493594Y-63640838D01*
X55588832Y-63545600D01*
X55731689Y-63497980D01*
X55826927Y-63497980D01*
X55969784Y-63545600D01*
X56017403Y-63593219D01*
X56588832Y-64497980D02*
X56493594Y-64450361D01*
X56445975Y-64402742D01*
X56398356Y-64307504D01*
X56398356Y-64021790D01*
X56445975Y-63926552D01*
X56493594Y-63878933D01*
X56588832Y-63831314D01*
X56731689Y-63831314D01*
X56826927Y-63878933D01*
X56874546Y-63926552D01*
X56922165Y-64021790D01*
X56922165Y-64307504D01*
X56874546Y-64402742D01*
X56826927Y-64450361D01*
X56731689Y-64497980D01*
X56588832Y-64497980D01*
X57350737Y-63831314D02*
X57350737Y-64831314D01*
X57350737Y-63878933D02*
X57445975Y-63831314D01*
X57636451Y-63831314D01*
X57731689Y-63878933D01*
X57779308Y-63926552D01*
X57826927Y-64021790D01*
X57826927Y-64307504D01*
X57779308Y-64402742D01*
X57731689Y-64450361D01*
X57636451Y-64497980D01*
X57445975Y-64497980D01*
X57350737Y-64450361D01*
X58160260Y-63831314D02*
X58398356Y-64497980D01*
X58636451Y-63831314D02*
X58398356Y-64497980D01*
X58303118Y-64736076D01*
X58255499Y-64783695D01*
X58160260Y-64831314D01*
X59017403Y-64497980D02*
X59017403Y-63831314D01*
X59017403Y-64021790D02*
X59065022Y-63926552D01*
X59112641Y-63878933D01*
X59207880Y-63831314D01*
X59303118Y-63831314D01*
X59636451Y-64497980D02*
X59636451Y-63831314D01*
X59636451Y-63497980D02*
X59588832Y-63545600D01*
X59636451Y-63593219D01*
X59684070Y-63545600D01*
X59636451Y-63497980D01*
X59636451Y-63593219D01*
X60541213Y-63831314D02*
X60541213Y-64640838D01*
X60493594Y-64736076D01*
X60445975Y-64783695D01*
X60350737Y-64831314D01*
X60207880Y-64831314D01*
X60112641Y-64783695D01*
X60541213Y-64450361D02*
X60445975Y-64497980D01*
X60255499Y-64497980D01*
X60160260Y-64450361D01*
X60112641Y-64402742D01*
X60065022Y-64307504D01*
X60065022Y-64021790D01*
X60112641Y-63926552D01*
X60160260Y-63878933D01*
X60255499Y-63831314D01*
X60445975Y-63831314D01*
X60541213Y-63878933D01*
X61017403Y-64497980D02*
X61017403Y-63497980D01*
X61445975Y-64497980D02*
X61445975Y-63974171D01*
X61398356Y-63878933D01*
X61303118Y-63831314D01*
X61160260Y-63831314D01*
X61065022Y-63878933D01*
X61017403Y-63926552D01*
X61779308Y-63831314D02*
X62160260Y-63831314D01*
X61922165Y-63497980D02*
X61922165Y-64355123D01*
X61969784Y-64450361D01*
X62065022Y-64497980D01*
X62160260Y-64497980D01*
X63541213Y-64878933D02*
X63493594Y-64831314D01*
X63398356Y-64688457D01*
X63350737Y-64593219D01*
X63303118Y-64450361D01*
X63255499Y-64212266D01*
X63255499Y-64021790D01*
X63303118Y-63783695D01*
X63350737Y-63640838D01*
X63398356Y-63545600D01*
X63493594Y-63402742D01*
X63541213Y-63355123D01*
X64493594Y-64402742D02*
X64445975Y-64450361D01*
X64303118Y-64497980D01*
X64207880Y-64497980D01*
X64065022Y-64450361D01*
X63969784Y-64355123D01*
X63922165Y-64259885D01*
X63874546Y-64069409D01*
X63874546Y-63926552D01*
X63922165Y-63736076D01*
X63969784Y-63640838D01*
X64065022Y-63545600D01*
X64207880Y-63497980D01*
X64303118Y-63497980D01*
X64445975Y-63545600D01*
X64493594Y-63593219D01*
X64826927Y-64878933D02*
X64874546Y-64831314D01*
X64969784Y-64688457D01*
X65017403Y-64593219D01*
X65065022Y-64450361D01*
X65112641Y-64212266D01*
X65112641Y-64021790D01*
X65065022Y-63783695D01*
X65017403Y-63640838D01*
X64969784Y-63545600D01*
X64874546Y-63402742D01*
X64826927Y-63355123D01*
X66303118Y-63593219D02*
X66350737Y-63545600D01*
X66445975Y-63497980D01*
X66684070Y-63497980D01*
X66779308Y-63545600D01*
X66826927Y-63593219D01*
X66874546Y-63688457D01*
X66874546Y-63783695D01*
X66826927Y-63926552D01*
X66255499Y-64497980D01*
X66874546Y-64497980D01*
X67493594Y-63497980D02*
X67588832Y-63497980D01*
X67684070Y-63545600D01*
X67731689Y-63593219D01*
X67779308Y-63688457D01*
X67826927Y-63878933D01*
X67826927Y-64117028D01*
X67779308Y-64307504D01*
X67731689Y-64402742D01*
X67684070Y-64450361D01*
X67588832Y-64497980D01*
X67493594Y-64497980D01*
X67398356Y-64450361D01*
X67350737Y-64402742D01*
X67303118Y-64307504D01*
X67255499Y-64117028D01*
X67255499Y-63878933D01*
X67303118Y-63688457D01*
X67350737Y-63593219D01*
X67398356Y-63545600D01*
X67493594Y-63497980D01*
X68207880Y-63593219D02*
X68255499Y-63545600D01*
X68350737Y-63497980D01*
X68588832Y-63497980D01*
X68684070Y-63545600D01*
X68731689Y-63593219D01*
X68779308Y-63688457D01*
X68779308Y-63783695D01*
X68731689Y-63926552D01*
X68160260Y-64497980D01*
X68779308Y-64497980D01*
X69112641Y-63497980D02*
X69731689Y-63497980D01*
X69398356Y-63878933D01*
X69541213Y-63878933D01*
X69636451Y-63926552D01*
X69684070Y-63974171D01*
X69731689Y-64069409D01*
X69731689Y-64307504D01*
X69684070Y-64402742D01*
X69636451Y-64450361D01*
X69541213Y-64497980D01*
X69255499Y-64497980D01*
X69160260Y-64450361D01*
X69112641Y-64402742D01*
X70922165Y-63974171D02*
X71255499Y-63974171D01*
X71398356Y-64497980D02*
X70922165Y-64497980D01*
X70922165Y-63497980D01*
X71398356Y-63497980D01*
X71826927Y-64497980D02*
X71826927Y-63497980D01*
X72160260Y-64212266D01*
X72493594Y-63497980D01*
X72493594Y-64497980D01*
X72969784Y-64497980D02*
X72969784Y-63497980D01*
X73303118Y-64212266D01*
X73636451Y-63497980D01*
X73636451Y-64497980D01*
X55350737Y-65481314D02*
X55541213Y-66147980D01*
X55731689Y-65671790D01*
X55922165Y-66147980D01*
X56112641Y-65481314D01*
X56398356Y-65481314D02*
X56588832Y-66147980D01*
X56779308Y-65671790D01*
X56969784Y-66147980D01*
X57160260Y-65481314D01*
X57445975Y-65481314D02*
X57636451Y-66147980D01*
X57826927Y-65671790D01*
X58017403Y-66147980D01*
X58207880Y-65481314D01*
X58588832Y-66052742D02*
X58636451Y-66100361D01*
X58588832Y-66147980D01*
X58541213Y-66100361D01*
X58588832Y-66052742D01*
X58588832Y-66147980D01*
X59065022Y-66147980D02*
X59065022Y-65147980D01*
X59493594Y-66147980D02*
X59493594Y-65624171D01*
X59445975Y-65528933D01*
X59350737Y-65481314D01*
X59207880Y-65481314D01*
X59112641Y-65528933D01*
X59065022Y-65576552D01*
X60112641Y-66147980D02*
X60017403Y-66100361D01*
X59969784Y-66052742D01*
X59922165Y-65957504D01*
X59922165Y-65671790D01*
X59969784Y-65576552D01*
X60017403Y-65528933D01*
X60112641Y-65481314D01*
X60255499Y-65481314D01*
X60350737Y-65528933D01*
X60398356Y-65576552D01*
X60445975Y-65671790D01*
X60445975Y-65957504D01*
X60398356Y-66052742D01*
X60350737Y-66100361D01*
X60255499Y-66147980D01*
X60112641Y-66147980D01*
X60874546Y-66147980D02*
X60874546Y-65481314D01*
X60874546Y-65576552D02*
X60922165Y-65528933D01*
X61017403Y-65481314D01*
X61160260Y-65481314D01*
X61255499Y-65528933D01*
X61303118Y-65624171D01*
X61303118Y-66147980D01*
X61303118Y-65624171D02*
X61350737Y-65528933D01*
X61445975Y-65481314D01*
X61588832Y-65481314D01*
X61684070Y-65528933D01*
X61731689Y-65624171D01*
X61731689Y-66147980D01*
X62588832Y-66100361D02*
X62493594Y-66147980D01*
X62303118Y-66147980D01*
X62207880Y-66100361D01*
X62160260Y-66005123D01*
X62160260Y-65624171D01*
X62207880Y-65528933D01*
X62303118Y-65481314D01*
X62493594Y-65481314D01*
X62588832Y-65528933D01*
X62636451Y-65624171D01*
X62636451Y-65719409D01*
X62160260Y-65814647D01*
X63065022Y-66147980D02*
X63065022Y-65147980D01*
X63065022Y-65528933D02*
X63160260Y-65481314D01*
X63350737Y-65481314D01*
X63445975Y-65528933D01*
X63493594Y-65576552D01*
X63541213Y-65671790D01*
X63541213Y-65957504D01*
X63493594Y-66052742D01*
X63445975Y-66100361D01*
X63350737Y-66147980D01*
X63160260Y-66147980D01*
X63065022Y-66100361D01*
X63969784Y-66147980D02*
X63969784Y-65481314D01*
X63969784Y-65671790D02*
X64017403Y-65576552D01*
X64065022Y-65528933D01*
X64160260Y-65481314D01*
X64255499Y-65481314D01*
X64969784Y-66100361D02*
X64874546Y-66147980D01*
X64684070Y-66147980D01*
X64588832Y-66100361D01*
X64541213Y-66005123D01*
X64541213Y-65624171D01*
X64588832Y-65528933D01*
X64684070Y-65481314D01*
X64874546Y-65481314D01*
X64969784Y-65528933D01*
X65017403Y-65624171D01*
X65017403Y-65719409D01*
X64541213Y-65814647D01*
X65350737Y-65481314D02*
X65541213Y-66147980D01*
X65731689Y-65671790D01*
X65922165Y-66147980D01*
X66112641Y-65481314D01*
X66636451Y-65576552D02*
X66541213Y-65528933D01*
X66493594Y-65481314D01*
X66445975Y-65386076D01*
X66445975Y-65338457D01*
X66493594Y-65243219D01*
X66541213Y-65195600D01*
X66636451Y-65147980D01*
X66826927Y-65147980D01*
X66922165Y-65195600D01*
X66969784Y-65243219D01*
X67017403Y-65338457D01*
X67017403Y-65386076D01*
X66969784Y-65481314D01*
X66922165Y-65528933D01*
X66826927Y-65576552D01*
X66636451Y-65576552D01*
X66541213Y-65624171D01*
X66493594Y-65671790D01*
X66445975Y-65767028D01*
X66445975Y-65957504D01*
X66493594Y-66052742D01*
X66541213Y-66100361D01*
X66636451Y-66147980D01*
X66826927Y-66147980D01*
X66922165Y-66100361D01*
X66969784Y-66052742D01*
X67017403Y-65957504D01*
X67017403Y-65767028D01*
X66969784Y-65671790D01*
X66922165Y-65624171D01*
X66826927Y-65576552D01*
X67636451Y-65147980D02*
X67731689Y-65147980D01*
X67826927Y-65195600D01*
X67874546Y-65243219D01*
X67922165Y-65338457D01*
X67969784Y-65528933D01*
X67969784Y-65767028D01*
X67922165Y-65957504D01*
X67874546Y-66052742D01*
X67826927Y-66100361D01*
X67731689Y-66147980D01*
X67636451Y-66147980D01*
X67541213Y-66100361D01*
X67493594Y-66052742D01*
X67445975Y-65957504D01*
X67398356Y-65767028D01*
X67398356Y-65528933D01*
X67445975Y-65338457D01*
X67493594Y-65243219D01*
X67541213Y-65195600D01*
X67636451Y-65147980D01*
X68541213Y-65576552D02*
X68445975Y-65528933D01*
X68398356Y-65481314D01*
X68350737Y-65386076D01*
X68350737Y-65338457D01*
X68398356Y-65243219D01*
X68445975Y-65195600D01*
X68541213Y-65147980D01*
X68731689Y-65147980D01*
X68826927Y-65195600D01*
X68874546Y-65243219D01*
X68922165Y-65338457D01*
X68922165Y-65386076D01*
X68874546Y-65481314D01*
X68826927Y-65528933D01*
X68731689Y-65576552D01*
X68541213Y-65576552D01*
X68445975Y-65624171D01*
X68398356Y-65671790D01*
X68350737Y-65767028D01*
X68350737Y-65957504D01*
X68398356Y-66052742D01*
X68445975Y-66100361D01*
X68541213Y-66147980D01*
X68731689Y-66147980D01*
X68826927Y-66100361D01*
X68874546Y-66052742D01*
X68922165Y-65957504D01*
X68922165Y-65767028D01*
X68874546Y-65671790D01*
X68826927Y-65624171D01*
X68731689Y-65576552D01*
X69493594Y-65576552D02*
X69398356Y-65528933D01*
X69350737Y-65481314D01*
X69303118Y-65386076D01*
X69303118Y-65338457D01*
X69350737Y-65243219D01*
X69398356Y-65195600D01*
X69493594Y-65147980D01*
X69684070Y-65147980D01*
X69779308Y-65195600D01*
X69826927Y-65243219D01*
X69874546Y-65338457D01*
X69874546Y-65386076D01*
X69826927Y-65481314D01*
X69779308Y-65528933D01*
X69684070Y-65576552D01*
X69493594Y-65576552D01*
X69398356Y-65624171D01*
X69350737Y-65671790D01*
X69303118Y-65767028D01*
X69303118Y-65957504D01*
X69350737Y-66052742D01*
X69398356Y-66100361D01*
X69493594Y-66147980D01*
X69684070Y-66147980D01*
X69779308Y-66100361D01*
X69826927Y-66052742D01*
X69874546Y-65957504D01*
X69874546Y-65767028D01*
X69826927Y-65671790D01*
X69779308Y-65624171D01*
X69684070Y-65576552D01*
X70303118Y-66052742D02*
X70350737Y-66100361D01*
X70303118Y-66147980D01*
X70255499Y-66100361D01*
X70303118Y-66052742D01*
X70303118Y-66147980D01*
X71207880Y-66100361D02*
X71112641Y-66147980D01*
X70922165Y-66147980D01*
X70826927Y-66100361D01*
X70779308Y-66052742D01*
X70731689Y-65957504D01*
X70731689Y-65671790D01*
X70779308Y-65576552D01*
X70826927Y-65528933D01*
X70922165Y-65481314D01*
X71112641Y-65481314D01*
X71207880Y-65528933D01*
X71779308Y-66147980D02*
X71684070Y-66100361D01*
X71636451Y-66052742D01*
X71588832Y-65957504D01*
X71588832Y-65671790D01*
X71636451Y-65576552D01*
X71684070Y-65528933D01*
X71779308Y-65481314D01*
X71922165Y-65481314D01*
X72017403Y-65528933D01*
X72065022Y-65576552D01*
X72112641Y-65671790D01*
X72112641Y-65957504D01*
X72065022Y-66052742D01*
X72017403Y-66100361D01*
X71922165Y-66147980D01*
X71779308Y-66147980D01*
X72541213Y-66147980D02*
X72541213Y-65481314D01*
X72541213Y-65576552D02*
X72588832Y-65528933D01*
X72684070Y-65481314D01*
X72826927Y-65481314D01*
X72922165Y-65528933D01*
X72969784Y-65624171D01*
X72969784Y-66147980D01*
X72969784Y-65624171D02*
X73017403Y-65528933D01*
X73112641Y-65481314D01*
X73255499Y-65481314D01*
X73350737Y-65528933D01*
X73398356Y-65624171D01*
X73398356Y-66147980D01*
D11*
G04 #@! TO.C,R1*
X162076380Y-90806600D02*
X162076380Y-93546600D01*
X162076380Y-93546600D02*
X168616380Y-93546600D01*
X168616380Y-93546600D02*
X168616380Y-90806600D01*
X168616380Y-90806600D02*
X162076380Y-90806600D01*
X161306380Y-92176600D02*
X162076380Y-92176600D01*
X169386380Y-92176600D02*
X168616380Y-92176600D01*
G04 #@! TO.C,Y1*
X119205380Y-93207600D02*
X125455380Y-93207600D01*
X119205380Y-98257600D02*
X125455380Y-98257600D01*
X125455380Y-98257600D02*
G75*
G03*
X125455380Y-93207600I0J2525000D01*
G01*
X119205380Y-98257600D02*
G75*
G02*
X119205380Y-93207600I0J2525000D01*
G01*
G04 #@! TO.C,R2*
X162076380Y-87758600D02*
X162076380Y-90498600D01*
X162076380Y-90498600D02*
X168616380Y-90498600D01*
X168616380Y-90498600D02*
X168616380Y-87758600D01*
X168616380Y-87758600D02*
X162076380Y-87758600D01*
X161306380Y-89128600D02*
X162076380Y-89128600D01*
X169386380Y-89128600D02*
X168616380Y-89128600D01*
G04 #@! TO.C,U4*
X166676380Y-109718600D02*
X166676380Y-108068600D01*
X166676380Y-108068600D02*
X141156380Y-108068600D01*
X141156380Y-108068600D02*
X141156380Y-113368600D01*
X141156380Y-113368600D02*
X166676380Y-113368600D01*
X166676380Y-113368600D02*
X166676380Y-111718600D01*
X166676380Y-111718600D02*
G75*
G02*
X166676380Y-109718600I0J1000000D01*
G01*
G04 #@! TO.C,U3*
X136196380Y-109718600D02*
X136196380Y-108068600D01*
X136196380Y-108068600D02*
X110676380Y-108068600D01*
X110676380Y-108068600D02*
X110676380Y-113368600D01*
X110676380Y-113368600D02*
X136196380Y-113368600D01*
X136196380Y-113368600D02*
X136196380Y-111718600D01*
X136196380Y-111718600D02*
G75*
G02*
X136196380Y-109718600I0J1000000D01*
G01*
G04 #@! TO.C,U2*
X105716380Y-109718600D02*
X105716380Y-108068600D01*
X105716380Y-108068600D02*
X80196380Y-108068600D01*
X80196380Y-108068600D02*
X80196380Y-113368600D01*
X80196380Y-113368600D02*
X105716380Y-113368600D01*
X105716380Y-113368600D02*
X105716380Y-111718600D01*
X105716380Y-111718600D02*
G75*
G02*
X105716380Y-109718600I0J1000000D01*
G01*
G04 #@! TO.C,U1*
X140331380Y-75428600D02*
X140331380Y-61803600D01*
X140331380Y-61803600D02*
X139331380Y-60803600D01*
X139331380Y-60803600D02*
X109081380Y-60803600D01*
X109081380Y-60803600D02*
X109081380Y-92053600D01*
X109081380Y-92053600D02*
X140331380Y-92053600D01*
X140331380Y-92053600D02*
X140331380Y-77428600D01*
G04 #@! TO.C,C4*
X169718380Y-109758600D02*
X169718380Y-114298600D01*
X167578380Y-109758600D02*
X167578380Y-114298600D01*
X169718380Y-109758600D02*
X169703380Y-109758600D01*
X167593380Y-109758600D02*
X167578380Y-109758600D01*
X169718380Y-114298600D02*
X169703380Y-114298600D01*
X167593380Y-114298600D02*
X167578380Y-114298600D01*
G04 #@! TO.C,C3*
X139238380Y-109758600D02*
X139238380Y-114298600D01*
X137098380Y-109758600D02*
X137098380Y-114298600D01*
X139238380Y-109758600D02*
X139223380Y-109758600D01*
X137113380Y-109758600D02*
X137098380Y-109758600D01*
X139238380Y-114298600D02*
X139223380Y-114298600D01*
X137113380Y-114298600D02*
X137098380Y-114298600D01*
G04 #@! TO.C,C2*
X108758380Y-109758600D02*
X108758380Y-114298600D01*
X106618380Y-109758600D02*
X106618380Y-114298600D01*
X108758380Y-109758600D02*
X108743380Y-109758600D01*
X106633380Y-109758600D02*
X106618380Y-109758600D01*
X108758380Y-114298600D02*
X108743380Y-114298600D01*
X106633380Y-114298600D02*
X106618380Y-114298600D01*
G04 #@! TO.C,C1*
X141162380Y-81198600D02*
X141162380Y-76658600D01*
X143302380Y-81198600D02*
X143302380Y-76658600D01*
X141162380Y-81198600D02*
X141177380Y-81198600D01*
X143287380Y-81198600D02*
X143302380Y-81198600D01*
X141162380Y-76658600D02*
X141177380Y-76658600D01*
X143287380Y-76658600D02*
X143302380Y-76658600D01*
G04 #@! TO.C,R1*
D10*
X162703522Y-92374980D02*
X162132094Y-92374980D01*
X162417808Y-92374980D02*
X162417808Y-91374980D01*
X162322570Y-91517838D01*
X162227332Y-91613076D01*
X162132094Y-91660695D01*
X163322570Y-91374980D02*
X163417808Y-91374980D01*
X163513046Y-91422600D01*
X163560665Y-91470219D01*
X163608284Y-91565457D01*
X163655903Y-91755933D01*
X163655903Y-91994028D01*
X163608284Y-92184504D01*
X163560665Y-92279742D01*
X163513046Y-92327361D01*
X163417808Y-92374980D01*
X163322570Y-92374980D01*
X163227332Y-92327361D01*
X163179713Y-92279742D01*
X163132094Y-92184504D01*
X163084475Y-91994028D01*
X163084475Y-91755933D01*
X163132094Y-91565457D01*
X163179713Y-91470219D01*
X163227332Y-91422600D01*
X163322570Y-91374980D01*
X164084475Y-92374980D02*
X164084475Y-91374980D01*
X164655903Y-92374980D02*
X164227332Y-91803552D01*
X164655903Y-91374980D02*
X164084475Y-91946409D01*
X165989237Y-92374980D02*
X165893999Y-92327361D01*
X165846380Y-92279742D01*
X165798760Y-92184504D01*
X165798760Y-91898790D01*
X165846380Y-91803552D01*
X165893999Y-91755933D01*
X165989237Y-91708314D01*
X166132094Y-91708314D01*
X166227332Y-91755933D01*
X166274951Y-91803552D01*
X166322570Y-91898790D01*
X166322570Y-92184504D01*
X166274951Y-92279742D01*
X166227332Y-92327361D01*
X166132094Y-92374980D01*
X165989237Y-92374980D01*
X166751141Y-92374980D02*
X166751141Y-91374980D01*
X167179713Y-92374980D02*
X167179713Y-91851171D01*
X167132094Y-91755933D01*
X167036856Y-91708314D01*
X166893999Y-91708314D01*
X166798760Y-91755933D01*
X166751141Y-91803552D01*
X167655903Y-92374980D02*
X167655903Y-91708314D01*
X167655903Y-91803552D02*
X167703522Y-91755933D01*
X167798760Y-91708314D01*
X167941618Y-91708314D01*
X168036856Y-91755933D01*
X168084475Y-91851171D01*
X168084475Y-92374980D01*
X168084475Y-91851171D02*
X168132094Y-91755933D01*
X168227332Y-91708314D01*
X168370189Y-91708314D01*
X168465427Y-91755933D01*
X168513046Y-91851171D01*
X168513046Y-92374980D01*
G04 #@! TO.C,Y1*
X120544665Y-99614742D02*
X120497046Y-99662361D01*
X120354189Y-99709980D01*
X120258951Y-99709980D01*
X120116094Y-99662361D01*
X120020856Y-99567123D01*
X119973237Y-99471885D01*
X119925618Y-99281409D01*
X119925618Y-99138552D01*
X119973237Y-98948076D01*
X120020856Y-98852838D01*
X120116094Y-98757600D01*
X120258951Y-98709980D01*
X120354189Y-98709980D01*
X120497046Y-98757600D01*
X120544665Y-98805219D01*
X120973237Y-99709980D02*
X120973237Y-99043314D01*
X120973237Y-99233790D02*
X121020856Y-99138552D01*
X121068475Y-99090933D01*
X121163713Y-99043314D01*
X121258951Y-99043314D01*
X121497046Y-99043314D02*
X121735141Y-99709980D01*
X121973237Y-99043314D02*
X121735141Y-99709980D01*
X121639903Y-99948076D01*
X121592284Y-99995695D01*
X121497046Y-100043314D01*
X122306570Y-99662361D02*
X122401808Y-99709980D01*
X122592284Y-99709980D01*
X122687522Y-99662361D01*
X122735141Y-99567123D01*
X122735141Y-99519504D01*
X122687522Y-99424266D01*
X122592284Y-99376647D01*
X122449427Y-99376647D01*
X122354189Y-99329028D01*
X122306570Y-99233790D01*
X122306570Y-99186171D01*
X122354189Y-99090933D01*
X122449427Y-99043314D01*
X122592284Y-99043314D01*
X122687522Y-99090933D01*
X123020856Y-99043314D02*
X123401808Y-99043314D01*
X123163713Y-98709980D02*
X123163713Y-99567123D01*
X123211332Y-99662361D01*
X123306570Y-99709980D01*
X123401808Y-99709980D01*
X124163713Y-99709980D02*
X124163713Y-99186171D01*
X124116094Y-99090933D01*
X124020856Y-99043314D01*
X123830380Y-99043314D01*
X123735141Y-99090933D01*
X124163713Y-99662361D02*
X124068475Y-99709980D01*
X123830380Y-99709980D01*
X123735141Y-99662361D01*
X123687522Y-99567123D01*
X123687522Y-99471885D01*
X123735141Y-99376647D01*
X123830380Y-99329028D01*
X124068475Y-99329028D01*
X124163713Y-99281409D01*
X124782760Y-99709980D02*
X124687522Y-99662361D01*
X124639903Y-99567123D01*
X124639903Y-98709980D01*
G04 #@! TO.C,R2*
X162703522Y-89580980D02*
X162132094Y-89580980D01*
X162417808Y-89580980D02*
X162417808Y-88580980D01*
X162322570Y-88723838D01*
X162227332Y-88819076D01*
X162132094Y-88866695D01*
X163322570Y-88580980D02*
X163417808Y-88580980D01*
X163513046Y-88628600D01*
X163560665Y-88676219D01*
X163608284Y-88771457D01*
X163655903Y-88961933D01*
X163655903Y-89200028D01*
X163608284Y-89390504D01*
X163560665Y-89485742D01*
X163513046Y-89533361D01*
X163417808Y-89580980D01*
X163322570Y-89580980D01*
X163227332Y-89533361D01*
X163179713Y-89485742D01*
X163132094Y-89390504D01*
X163084475Y-89200028D01*
X163084475Y-88961933D01*
X163132094Y-88771457D01*
X163179713Y-88676219D01*
X163227332Y-88628600D01*
X163322570Y-88580980D01*
X164084475Y-89580980D02*
X164084475Y-88580980D01*
X164655903Y-89580980D02*
X164227332Y-89009552D01*
X164655903Y-88580980D02*
X164084475Y-89152409D01*
X165989237Y-89580980D02*
X165893999Y-89533361D01*
X165846380Y-89485742D01*
X165798760Y-89390504D01*
X165798760Y-89104790D01*
X165846380Y-89009552D01*
X165893999Y-88961933D01*
X165989237Y-88914314D01*
X166132094Y-88914314D01*
X166227332Y-88961933D01*
X166274951Y-89009552D01*
X166322570Y-89104790D01*
X166322570Y-89390504D01*
X166274951Y-89485742D01*
X166227332Y-89533361D01*
X166132094Y-89580980D01*
X165989237Y-89580980D01*
X166751141Y-89580980D02*
X166751141Y-88580980D01*
X167179713Y-89580980D02*
X167179713Y-89057171D01*
X167132094Y-88961933D01*
X167036856Y-88914314D01*
X166893999Y-88914314D01*
X166798760Y-88961933D01*
X166751141Y-89009552D01*
X167655903Y-89580980D02*
X167655903Y-88914314D01*
X167655903Y-89009552D02*
X167703522Y-88961933D01*
X167798760Y-88914314D01*
X167941618Y-88914314D01*
X168036856Y-88961933D01*
X168084475Y-89057171D01*
X168084475Y-89580980D01*
X168084475Y-89057171D02*
X168132094Y-88961933D01*
X168227332Y-88914314D01*
X168370189Y-88914314D01*
X168465427Y-88961933D01*
X168513046Y-89057171D01*
X168513046Y-89580980D01*
G04 #@! TO.C,U4*
X140703999Y-107599552D02*
X140703999Y-108266219D01*
X139703999Y-107837647D01*
X140370665Y-109075742D02*
X139703999Y-109075742D01*
X140751618Y-108837647D02*
X140037332Y-108599552D01*
X140037332Y-109218600D01*
X139703999Y-110075742D02*
X139703999Y-109599552D01*
X140703999Y-109599552D01*
X139751618Y-110361457D02*
X139703999Y-110504314D01*
X139703999Y-110742409D01*
X139751618Y-110837647D01*
X139799237Y-110885266D01*
X139894475Y-110932885D01*
X139989713Y-110932885D01*
X140084951Y-110885266D01*
X140132570Y-110837647D01*
X140180189Y-110742409D01*
X140227808Y-110551933D01*
X140275427Y-110456695D01*
X140323046Y-110409076D01*
X140418284Y-110361457D01*
X140513522Y-110361457D01*
X140608760Y-110409076D01*
X140656380Y-110456695D01*
X140703999Y-110551933D01*
X140703999Y-110790028D01*
X140656380Y-110932885D01*
X140608760Y-111313838D02*
X140656380Y-111361457D01*
X140703999Y-111456695D01*
X140703999Y-111694790D01*
X140656380Y-111790028D01*
X140608760Y-111837647D01*
X140513522Y-111885266D01*
X140418284Y-111885266D01*
X140275427Y-111837647D01*
X139703999Y-111266219D01*
X139703999Y-111885266D01*
X140370665Y-112742409D02*
X139703999Y-112742409D01*
X140751618Y-112504314D02*
X140037332Y-112266219D01*
X140037332Y-112885266D01*
X140703999Y-113742409D02*
X140703999Y-113266219D01*
X140227808Y-113218600D01*
X140275427Y-113266219D01*
X140323046Y-113361457D01*
X140323046Y-113599552D01*
X140275427Y-113694790D01*
X140227808Y-113742409D01*
X140132570Y-113790028D01*
X139894475Y-113790028D01*
X139799237Y-113742409D01*
X139751618Y-113694790D01*
X139703999Y-113599552D01*
X139703999Y-113361457D01*
X139751618Y-113266219D01*
X139799237Y-113218600D01*
G04 #@! TO.C,U3*
X110223999Y-107599552D02*
X110223999Y-108266219D01*
X109223999Y-107837647D01*
X109890665Y-109075742D02*
X109223999Y-109075742D01*
X110271618Y-108837647D02*
X109557332Y-108599552D01*
X109557332Y-109218600D01*
X109223999Y-110075742D02*
X109223999Y-109599552D01*
X110223999Y-109599552D01*
X109271618Y-110361457D02*
X109223999Y-110504314D01*
X109223999Y-110742409D01*
X109271618Y-110837647D01*
X109319237Y-110885266D01*
X109414475Y-110932885D01*
X109509713Y-110932885D01*
X109604951Y-110885266D01*
X109652570Y-110837647D01*
X109700189Y-110742409D01*
X109747808Y-110551933D01*
X109795427Y-110456695D01*
X109843046Y-110409076D01*
X109938284Y-110361457D01*
X110033522Y-110361457D01*
X110128760Y-110409076D01*
X110176380Y-110456695D01*
X110223999Y-110551933D01*
X110223999Y-110790028D01*
X110176380Y-110932885D01*
X110223999Y-111837647D02*
X110223999Y-111361457D01*
X109747808Y-111313838D01*
X109795427Y-111361457D01*
X109843046Y-111456695D01*
X109843046Y-111694790D01*
X109795427Y-111790028D01*
X109747808Y-111837647D01*
X109652570Y-111885266D01*
X109414475Y-111885266D01*
X109319237Y-111837647D01*
X109271618Y-111790028D01*
X109223999Y-111694790D01*
X109223999Y-111456695D01*
X109271618Y-111361457D01*
X109319237Y-111313838D01*
X110223999Y-112218600D02*
X110223999Y-112885266D01*
X109223999Y-112456695D01*
X110223999Y-113170980D02*
X110223999Y-113790028D01*
X109843046Y-113456695D01*
X109843046Y-113599552D01*
X109795427Y-113694790D01*
X109747808Y-113742409D01*
X109652570Y-113790028D01*
X109414475Y-113790028D01*
X109319237Y-113742409D01*
X109271618Y-113694790D01*
X109223999Y-113599552D01*
X109223999Y-113313838D01*
X109271618Y-113218600D01*
X109319237Y-113170980D01*
G04 #@! TO.C,U2*
X79743999Y-107599552D02*
X79743999Y-108266219D01*
X78743999Y-107837647D01*
X79410665Y-109075742D02*
X78743999Y-109075742D01*
X79791618Y-108837647D02*
X79077332Y-108599552D01*
X79077332Y-109218600D01*
X78743999Y-110075742D02*
X78743999Y-109599552D01*
X79743999Y-109599552D01*
X78791618Y-110361457D02*
X78743999Y-110504314D01*
X78743999Y-110742409D01*
X78791618Y-110837647D01*
X78839237Y-110885266D01*
X78934475Y-110932885D01*
X79029713Y-110932885D01*
X79124951Y-110885266D01*
X79172570Y-110837647D01*
X79220189Y-110742409D01*
X79267808Y-110551933D01*
X79315427Y-110456695D01*
X79363046Y-110409076D01*
X79458284Y-110361457D01*
X79553522Y-110361457D01*
X79648760Y-110409076D01*
X79696380Y-110456695D01*
X79743999Y-110551933D01*
X79743999Y-110790028D01*
X79696380Y-110932885D01*
X79743999Y-111837647D02*
X79743999Y-111361457D01*
X79267808Y-111313838D01*
X79315427Y-111361457D01*
X79363046Y-111456695D01*
X79363046Y-111694790D01*
X79315427Y-111790028D01*
X79267808Y-111837647D01*
X79172570Y-111885266D01*
X78934475Y-111885266D01*
X78839237Y-111837647D01*
X78791618Y-111790028D01*
X78743999Y-111694790D01*
X78743999Y-111456695D01*
X78791618Y-111361457D01*
X78839237Y-111313838D01*
X79743999Y-112218600D02*
X79743999Y-112885266D01*
X78743999Y-112456695D01*
X79743999Y-113170980D02*
X79743999Y-113790028D01*
X79363046Y-113456695D01*
X79363046Y-113599552D01*
X79315427Y-113694790D01*
X79267808Y-113742409D01*
X79172570Y-113790028D01*
X78934475Y-113790028D01*
X78839237Y-113742409D01*
X78791618Y-113694790D01*
X78743999Y-113599552D01*
X78743999Y-113313838D01*
X78791618Y-113218600D01*
X78839237Y-113170980D01*
G04 #@! TO.C,U1*
X108728999Y-74190504D02*
X108728999Y-74857171D01*
X107728999Y-74428600D01*
X108728999Y-75428600D02*
X108728999Y-75523838D01*
X108681380Y-75619076D01*
X108633760Y-75666695D01*
X108538522Y-75714314D01*
X108348046Y-75761933D01*
X108109951Y-75761933D01*
X107919475Y-75714314D01*
X107824237Y-75666695D01*
X107776618Y-75619076D01*
X107728999Y-75523838D01*
X107728999Y-75428600D01*
X107776618Y-75333361D01*
X107824237Y-75285742D01*
X107919475Y-75238123D01*
X108109951Y-75190504D01*
X108348046Y-75190504D01*
X108538522Y-75238123D01*
X108633760Y-75285742D01*
X108681380Y-75333361D01*
X108728999Y-75428600D01*
X108633760Y-76142885D02*
X108681380Y-76190504D01*
X108728999Y-76285742D01*
X108728999Y-76523838D01*
X108681380Y-76619076D01*
X108633760Y-76666695D01*
X108538522Y-76714314D01*
X108443284Y-76714314D01*
X108300427Y-76666695D01*
X107728999Y-76095266D01*
X107728999Y-76714314D01*
X108728999Y-77333361D02*
X108728999Y-77428600D01*
X108681380Y-77523838D01*
X108633760Y-77571457D01*
X108538522Y-77619076D01*
X108348046Y-77666695D01*
X108109951Y-77666695D01*
X107919475Y-77619076D01*
X107824237Y-77571457D01*
X107776618Y-77523838D01*
X107728999Y-77428600D01*
X107728999Y-77333361D01*
X107776618Y-77238123D01*
X107824237Y-77190504D01*
X107919475Y-77142885D01*
X108109951Y-77095266D01*
X108348046Y-77095266D01*
X108538522Y-77142885D01*
X108633760Y-77190504D01*
X108681380Y-77238123D01*
X108728999Y-77333361D01*
X108300427Y-78238123D02*
X108348046Y-78142885D01*
X108395665Y-78095266D01*
X108490903Y-78047647D01*
X108538522Y-78047647D01*
X108633760Y-78095266D01*
X108681380Y-78142885D01*
X108728999Y-78238123D01*
X108728999Y-78428600D01*
X108681380Y-78523838D01*
X108633760Y-78571457D01*
X108538522Y-78619076D01*
X108490903Y-78619076D01*
X108395665Y-78571457D01*
X108348046Y-78523838D01*
X108300427Y-78428600D01*
X108300427Y-78238123D01*
X108252808Y-78142885D01*
X108205189Y-78095266D01*
X108109951Y-78047647D01*
X107919475Y-78047647D01*
X107824237Y-78095266D01*
X107776618Y-78142885D01*
X107728999Y-78238123D01*
X107728999Y-78428600D01*
X107776618Y-78523838D01*
X107824237Y-78571457D01*
X107919475Y-78619076D01*
X108109951Y-78619076D01*
X108205189Y-78571457D01*
X108252808Y-78523838D01*
X108300427Y-78428600D01*
G04 #@! TO.C,C4*
X171227999Y-110599742D02*
X171227999Y-110694980D01*
X171180380Y-110790219D01*
X171132760Y-110837838D01*
X171037522Y-110885457D01*
X170847046Y-110933076D01*
X170608951Y-110933076D01*
X170418475Y-110885457D01*
X170323237Y-110837838D01*
X170275618Y-110790219D01*
X170227999Y-110694980D01*
X170227999Y-110599742D01*
X170275618Y-110504504D01*
X170323237Y-110456885D01*
X170418475Y-110409266D01*
X170608951Y-110361647D01*
X170847046Y-110361647D01*
X171037522Y-110409266D01*
X171132760Y-110456885D01*
X171180380Y-110504504D01*
X171227999Y-110599742D01*
X170323237Y-111361647D02*
X170275618Y-111409266D01*
X170227999Y-111361647D01*
X170275618Y-111314028D01*
X170323237Y-111361647D01*
X170227999Y-111361647D01*
X170227999Y-112361647D02*
X170227999Y-111790219D01*
X170227999Y-112075933D02*
X171227999Y-112075933D01*
X171085141Y-111980695D01*
X170989903Y-111885457D01*
X170942284Y-111790219D01*
X170894665Y-113218790D02*
X170227999Y-113218790D01*
X170894665Y-112790219D02*
X170370856Y-112790219D01*
X170275618Y-112837838D01*
X170227999Y-112933076D01*
X170227999Y-113075933D01*
X170275618Y-113171171D01*
X170323237Y-113218790D01*
X170751808Y-114028314D02*
X170751808Y-113694980D01*
X170227999Y-113694980D02*
X171227999Y-113694980D01*
X171227999Y-114171171D01*
G04 #@! TO.C,C3*
X138715999Y-110345742D02*
X138715999Y-110440980D01*
X138668380Y-110536219D01*
X138620760Y-110583838D01*
X138525522Y-110631457D01*
X138335046Y-110679076D01*
X138096951Y-110679076D01*
X137906475Y-110631457D01*
X137811237Y-110583838D01*
X137763618Y-110536219D01*
X137715999Y-110440980D01*
X137715999Y-110345742D01*
X137763618Y-110250504D01*
X137811237Y-110202885D01*
X137906475Y-110155266D01*
X138096951Y-110107647D01*
X138335046Y-110107647D01*
X138525522Y-110155266D01*
X138620760Y-110202885D01*
X138668380Y-110250504D01*
X138715999Y-110345742D01*
X137811237Y-111107647D02*
X137763618Y-111155266D01*
X137715999Y-111107647D01*
X137763618Y-111060028D01*
X137811237Y-111107647D01*
X137715999Y-111107647D01*
X137715999Y-112107647D02*
X137715999Y-111536219D01*
X137715999Y-111821933D02*
X138715999Y-111821933D01*
X138573141Y-111726695D01*
X138477903Y-111631457D01*
X138430284Y-111536219D01*
X138382665Y-112964790D02*
X137715999Y-112964790D01*
X138382665Y-112536219D02*
X137858856Y-112536219D01*
X137763618Y-112583838D01*
X137715999Y-112679076D01*
X137715999Y-112821933D01*
X137763618Y-112917171D01*
X137811237Y-112964790D01*
X138239808Y-113774314D02*
X138239808Y-113440980D01*
X137715999Y-113440980D02*
X138715999Y-113440980D01*
X138715999Y-113917171D01*
G04 #@! TO.C,C2*
X108269019Y-110335582D02*
X108269019Y-110430820D01*
X108221400Y-110526059D01*
X108173780Y-110573678D01*
X108078542Y-110621297D01*
X107888066Y-110668916D01*
X107649971Y-110668916D01*
X107459495Y-110621297D01*
X107364257Y-110573678D01*
X107316638Y-110526059D01*
X107269019Y-110430820D01*
X107269019Y-110335582D01*
X107316638Y-110240344D01*
X107364257Y-110192725D01*
X107459495Y-110145106D01*
X107649971Y-110097487D01*
X107888066Y-110097487D01*
X108078542Y-110145106D01*
X108173780Y-110192725D01*
X108221400Y-110240344D01*
X108269019Y-110335582D01*
X107364257Y-111097487D02*
X107316638Y-111145106D01*
X107269019Y-111097487D01*
X107316638Y-111049868D01*
X107364257Y-111097487D01*
X107269019Y-111097487D01*
X107269019Y-112097487D02*
X107269019Y-111526059D01*
X107269019Y-111811773D02*
X108269019Y-111811773D01*
X108126161Y-111716535D01*
X108030923Y-111621297D01*
X107983304Y-111526059D01*
X107935685Y-112954630D02*
X107269019Y-112954630D01*
X107935685Y-112526059D02*
X107411876Y-112526059D01*
X107316638Y-112573678D01*
X107269019Y-112668916D01*
X107269019Y-112811773D01*
X107316638Y-112907011D01*
X107364257Y-112954630D01*
X107792828Y-113764154D02*
X107792828Y-113430820D01*
X107269019Y-113430820D02*
X108269019Y-113430820D01*
X108269019Y-113907011D01*
G04 #@! TO.C,C1*
X144811999Y-77325742D02*
X144811999Y-77420980D01*
X144764380Y-77516219D01*
X144716760Y-77563838D01*
X144621522Y-77611457D01*
X144431046Y-77659076D01*
X144192951Y-77659076D01*
X144002475Y-77611457D01*
X143907237Y-77563838D01*
X143859618Y-77516219D01*
X143811999Y-77420980D01*
X143811999Y-77325742D01*
X143859618Y-77230504D01*
X143907237Y-77182885D01*
X144002475Y-77135266D01*
X144192951Y-77087647D01*
X144431046Y-77087647D01*
X144621522Y-77135266D01*
X144716760Y-77182885D01*
X144764380Y-77230504D01*
X144811999Y-77325742D01*
X143907237Y-78087647D02*
X143859618Y-78135266D01*
X143811999Y-78087647D01*
X143859618Y-78040028D01*
X143907237Y-78087647D01*
X143811999Y-78087647D01*
X143811999Y-79087647D02*
X143811999Y-78516219D01*
X143811999Y-78801933D02*
X144811999Y-78801933D01*
X144669141Y-78706695D01*
X144573903Y-78611457D01*
X144526284Y-78516219D01*
X144478665Y-79944790D02*
X143811999Y-79944790D01*
X144478665Y-79516219D02*
X143954856Y-79516219D01*
X143859618Y-79563838D01*
X143811999Y-79659076D01*
X143811999Y-79801933D01*
X143859618Y-79897171D01*
X143907237Y-79944790D01*
X144335808Y-80754314D02*
X144335808Y-80420980D01*
X143811999Y-80420980D02*
X144811999Y-80420980D01*
X144811999Y-80897171D01*
G04 #@! TO.C,*
G04 #@! TD*
M02*
