%TF.GenerationSoftware,KiCad,Pcbnew,(5.1.8)-1*%
%TF.CreationDate,2020-12-26T11:11:33-07:00*%
%TF.ProjectId,ISA_BB,4953415f-4242-42e6-9b69-6361645f7063,rev?*%
%TF.SameCoordinates,Original*%
%TF.FileFunction,Legend,Bot*%
%TF.FilePolarity,Positive*%
%FSLAX46Y46*%
G04 Gerber Fmt 4.6, Leading zero omitted, Abs format (unit mm)*
G04 Created by KiCad (PCBNEW (5.1.8)-1) date 2020-12-26 11:11:33*
%MOMM*%
%LPD*%
G01*
G04 APERTURE LIST*
%ADD10C,0.101600*%
%ADD11C,0.120000*%
G04 APERTURE END LIST*
D10*
X166867114Y-60384992D02*
X166867114Y-60554325D01*
X167133209Y-60626897D02*
X167133209Y-60384992D01*
X166625209Y-60384992D01*
X166625209Y-60626897D01*
X167133209Y-60844611D02*
X166625209Y-60844611D01*
X166988066Y-61013944D01*
X166625209Y-61183278D01*
X167133209Y-61183278D01*
X167133209Y-61425182D02*
X166625209Y-61425182D01*
X166988066Y-61594516D01*
X166625209Y-61763849D01*
X167133209Y-61763849D01*
X167084828Y-62683087D02*
X167109019Y-62658897D01*
X167133209Y-62586325D01*
X167133209Y-62537944D01*
X167109019Y-62465373D01*
X167060638Y-62416992D01*
X167012257Y-62392801D01*
X166915495Y-62368611D01*
X166842923Y-62368611D01*
X166746161Y-62392801D01*
X166697780Y-62416992D01*
X166649400Y-62465373D01*
X166625209Y-62537944D01*
X166625209Y-62586325D01*
X166649400Y-62658897D01*
X166673590Y-62683087D01*
X166625209Y-62997563D02*
X166625209Y-63094325D01*
X166649400Y-63142706D01*
X166697780Y-63191087D01*
X166794542Y-63215278D01*
X166963876Y-63215278D01*
X167060638Y-63191087D01*
X167109019Y-63142706D01*
X167133209Y-63094325D01*
X167133209Y-62997563D01*
X167109019Y-62949182D01*
X167060638Y-62900801D01*
X166963876Y-62876611D01*
X166794542Y-62876611D01*
X166697780Y-62900801D01*
X166649400Y-62949182D01*
X166625209Y-62997563D01*
X167133209Y-63432992D02*
X166625209Y-63432992D01*
X166988066Y-63602325D01*
X166625209Y-63771659D01*
X167133209Y-63771659D01*
X167133209Y-64013563D02*
X166625209Y-64013563D01*
X166625209Y-64207087D01*
X166649400Y-64255468D01*
X166673590Y-64279659D01*
X166721971Y-64303849D01*
X166794542Y-64303849D01*
X166842923Y-64279659D01*
X166867114Y-64255468D01*
X166891304Y-64207087D01*
X166891304Y-64013563D01*
X166625209Y-64521563D02*
X167036447Y-64521563D01*
X167084828Y-64545754D01*
X167109019Y-64569944D01*
X167133209Y-64618325D01*
X167133209Y-64715087D01*
X167109019Y-64763468D01*
X167084828Y-64787659D01*
X167036447Y-64811849D01*
X166625209Y-64811849D01*
X166625209Y-64981182D02*
X166625209Y-65271468D01*
X167133209Y-65126325D02*
X166625209Y-65126325D01*
X166867114Y-65440801D02*
X166867114Y-65610135D01*
X167133209Y-65682706D02*
X167133209Y-65440801D01*
X166625209Y-65440801D01*
X166625209Y-65682706D01*
X167133209Y-66190706D02*
X166891304Y-66021373D01*
X167133209Y-65900420D02*
X166625209Y-65900420D01*
X166625209Y-66093944D01*
X166649400Y-66142325D01*
X166673590Y-66166516D01*
X166721971Y-66190706D01*
X166794542Y-66190706D01*
X166842923Y-66166516D01*
X166867114Y-66142325D01*
X166891304Y-66093944D01*
X166891304Y-65900420D01*
X167109019Y-66384230D02*
X167133209Y-66456801D01*
X167133209Y-66577754D01*
X167109019Y-66626135D01*
X167084828Y-66650325D01*
X167036447Y-66674516D01*
X166988066Y-66674516D01*
X166939685Y-66650325D01*
X166915495Y-66626135D01*
X166891304Y-66577754D01*
X166867114Y-66480992D01*
X166842923Y-66432611D01*
X166818733Y-66408420D01*
X166770352Y-66384230D01*
X166721971Y-66384230D01*
X166673590Y-66408420D01*
X166649400Y-66432611D01*
X166625209Y-66480992D01*
X166625209Y-66601944D01*
X166649400Y-66674516D01*
X166673590Y-67255087D02*
X166649400Y-67279278D01*
X166625209Y-67327659D01*
X166625209Y-67448611D01*
X166649400Y-67496992D01*
X166673590Y-67521182D01*
X166721971Y-67545373D01*
X166770352Y-67545373D01*
X166842923Y-67521182D01*
X167133209Y-67230897D01*
X167133209Y-67545373D01*
X166625209Y-67859849D02*
X166625209Y-67908230D01*
X166649400Y-67956611D01*
X166673590Y-67980801D01*
X166721971Y-68004992D01*
X166818733Y-68029182D01*
X166939685Y-68029182D01*
X167036447Y-68004992D01*
X167084828Y-67980801D01*
X167109019Y-67956611D01*
X167133209Y-67908230D01*
X167133209Y-67859849D01*
X167109019Y-67811468D01*
X167084828Y-67787278D01*
X167036447Y-67763087D01*
X166939685Y-67738897D01*
X166818733Y-67738897D01*
X166721971Y-67763087D01*
X166673590Y-67787278D01*
X166649400Y-67811468D01*
X166625209Y-67859849D01*
X166673590Y-68222706D02*
X166649400Y-68246897D01*
X166625209Y-68295278D01*
X166625209Y-68416230D01*
X166649400Y-68464611D01*
X166673590Y-68488801D01*
X166721971Y-68512992D01*
X166770352Y-68512992D01*
X166842923Y-68488801D01*
X167133209Y-68198516D01*
X167133209Y-68512992D01*
X166625209Y-68827468D02*
X166625209Y-68875849D01*
X166649400Y-68924230D01*
X166673590Y-68948420D01*
X166721971Y-68972611D01*
X166818733Y-68996801D01*
X166939685Y-68996801D01*
X167036447Y-68972611D01*
X167084828Y-68948420D01*
X167109019Y-68924230D01*
X167133209Y-68875849D01*
X167133209Y-68827468D01*
X167109019Y-68779087D01*
X167084828Y-68754897D01*
X167036447Y-68730706D01*
X166939685Y-68706516D01*
X166818733Y-68706516D01*
X166721971Y-68730706D01*
X166673590Y-68754897D01*
X166649400Y-68779087D01*
X166625209Y-68827468D01*
X167996809Y-60384992D02*
X167488809Y-60384992D01*
X167972619Y-60602706D02*
X167996809Y-60675278D01*
X167996809Y-60796230D01*
X167972619Y-60844611D01*
X167948428Y-60868801D01*
X167900047Y-60892992D01*
X167851666Y-60892992D01*
X167803285Y-60868801D01*
X167779095Y-60844611D01*
X167754904Y-60796230D01*
X167730714Y-60699468D01*
X167706523Y-60651087D01*
X167682333Y-60626897D01*
X167633952Y-60602706D01*
X167585571Y-60602706D01*
X167537190Y-60626897D01*
X167513000Y-60651087D01*
X167488809Y-60699468D01*
X167488809Y-60820420D01*
X167513000Y-60892992D01*
X167851666Y-61086516D02*
X167851666Y-61328420D01*
X167996809Y-61038135D02*
X167488809Y-61207468D01*
X167996809Y-61376801D01*
X167658142Y-62320230D02*
X167803285Y-61933182D01*
X167948428Y-62320230D01*
X167803285Y-62562135D02*
X167803285Y-62949182D01*
X167658142Y-63191087D02*
X167803285Y-63578135D01*
X167948428Y-63191087D01*
X167730714Y-64376420D02*
X167754904Y-64448992D01*
X167779095Y-64473182D01*
X167827476Y-64497373D01*
X167900047Y-64497373D01*
X167948428Y-64473182D01*
X167972619Y-64448992D01*
X167996809Y-64400611D01*
X167996809Y-64207087D01*
X167488809Y-64207087D01*
X167488809Y-64376420D01*
X167513000Y-64424801D01*
X167537190Y-64448992D01*
X167585571Y-64473182D01*
X167633952Y-64473182D01*
X167682333Y-64448992D01*
X167706523Y-64424801D01*
X167730714Y-64376420D01*
X167730714Y-64207087D01*
X167996809Y-65005373D02*
X167754904Y-64836040D01*
X167996809Y-64715087D02*
X167488809Y-64715087D01*
X167488809Y-64908611D01*
X167513000Y-64956992D01*
X167537190Y-64981182D01*
X167585571Y-65005373D01*
X167658142Y-65005373D01*
X167706523Y-64981182D01*
X167730714Y-64956992D01*
X167754904Y-64908611D01*
X167754904Y-64715087D01*
X167730714Y-65223087D02*
X167730714Y-65392420D01*
X167996809Y-65464992D02*
X167996809Y-65223087D01*
X167488809Y-65223087D01*
X167488809Y-65464992D01*
X167851666Y-65658516D02*
X167851666Y-65900420D01*
X167996809Y-65610135D02*
X167488809Y-65779468D01*
X167996809Y-65948801D01*
X167996809Y-66118135D02*
X167488809Y-66118135D01*
X167488809Y-66239087D01*
X167513000Y-66311659D01*
X167561380Y-66360040D01*
X167609761Y-66384230D01*
X167706523Y-66408420D01*
X167779095Y-66408420D01*
X167875857Y-66384230D01*
X167924238Y-66360040D01*
X167972619Y-66311659D01*
X167996809Y-66239087D01*
X167996809Y-66118135D01*
X167730714Y-66795468D02*
X167754904Y-66868040D01*
X167779095Y-66892230D01*
X167827476Y-66916420D01*
X167900047Y-66916420D01*
X167948428Y-66892230D01*
X167972619Y-66868040D01*
X167996809Y-66819659D01*
X167996809Y-66626135D01*
X167488809Y-66626135D01*
X167488809Y-66795468D01*
X167513000Y-66843849D01*
X167537190Y-66868040D01*
X167585571Y-66892230D01*
X167633952Y-66892230D01*
X167682333Y-66868040D01*
X167706523Y-66843849D01*
X167730714Y-66795468D01*
X167730714Y-66626135D01*
X167488809Y-67230897D02*
X167488809Y-67327659D01*
X167513000Y-67376040D01*
X167561380Y-67424420D01*
X167658142Y-67448611D01*
X167827476Y-67448611D01*
X167924238Y-67424420D01*
X167972619Y-67376040D01*
X167996809Y-67327659D01*
X167996809Y-67230897D01*
X167972619Y-67182516D01*
X167924238Y-67134135D01*
X167827476Y-67109944D01*
X167658142Y-67109944D01*
X167561380Y-67134135D01*
X167513000Y-67182516D01*
X167488809Y-67230897D01*
X167851666Y-67642135D02*
X167851666Y-67884040D01*
X167996809Y-67593754D02*
X167488809Y-67763087D01*
X167996809Y-67932420D01*
X167996809Y-68392040D02*
X167754904Y-68222706D01*
X167996809Y-68101754D02*
X167488809Y-68101754D01*
X167488809Y-68295278D01*
X167513000Y-68343659D01*
X167537190Y-68367849D01*
X167585571Y-68392040D01*
X167658142Y-68392040D01*
X167706523Y-68367849D01*
X167730714Y-68343659D01*
X167754904Y-68295278D01*
X167754904Y-68101754D01*
X167996809Y-68609754D02*
X167488809Y-68609754D01*
X167488809Y-68730706D01*
X167513000Y-68803278D01*
X167561380Y-68851659D01*
X167609761Y-68875849D01*
X167706523Y-68900040D01*
X167779095Y-68900040D01*
X167875857Y-68875849D01*
X167924238Y-68851659D01*
X167972619Y-68803278D01*
X167996809Y-68730706D01*
X167996809Y-68609754D01*
X168521742Y-60336611D02*
X168860409Y-60433373D01*
X168618504Y-60530135D01*
X168860409Y-60626897D01*
X168521742Y-60723659D01*
X168521742Y-60868801D02*
X168860409Y-60965563D01*
X168618504Y-61062325D01*
X168860409Y-61159087D01*
X168521742Y-61255849D01*
X168521742Y-61400992D02*
X168860409Y-61497754D01*
X168618504Y-61594516D01*
X168860409Y-61691278D01*
X168521742Y-61788040D01*
X168812028Y-61981563D02*
X168836219Y-62005754D01*
X168860409Y-61981563D01*
X168836219Y-61957373D01*
X168812028Y-61981563D01*
X168860409Y-61981563D01*
X168860409Y-62223468D02*
X168352409Y-62223468D01*
X168860409Y-62441182D02*
X168594314Y-62441182D01*
X168545933Y-62416992D01*
X168521742Y-62368611D01*
X168521742Y-62296040D01*
X168545933Y-62247659D01*
X168570123Y-62223468D01*
X168860409Y-62755659D02*
X168836219Y-62707278D01*
X168812028Y-62683087D01*
X168763647Y-62658897D01*
X168618504Y-62658897D01*
X168570123Y-62683087D01*
X168545933Y-62707278D01*
X168521742Y-62755659D01*
X168521742Y-62828230D01*
X168545933Y-62876611D01*
X168570123Y-62900801D01*
X168618504Y-62924992D01*
X168763647Y-62924992D01*
X168812028Y-62900801D01*
X168836219Y-62876611D01*
X168860409Y-62828230D01*
X168860409Y-62755659D01*
X168860409Y-63142706D02*
X168521742Y-63142706D01*
X168570123Y-63142706D02*
X168545933Y-63166897D01*
X168521742Y-63215278D01*
X168521742Y-63287849D01*
X168545933Y-63336230D01*
X168594314Y-63360420D01*
X168860409Y-63360420D01*
X168594314Y-63360420D02*
X168545933Y-63384611D01*
X168521742Y-63432992D01*
X168521742Y-63505563D01*
X168545933Y-63553944D01*
X168594314Y-63578135D01*
X168860409Y-63578135D01*
X168836219Y-64013563D02*
X168860409Y-63965182D01*
X168860409Y-63868420D01*
X168836219Y-63820040D01*
X168787838Y-63795849D01*
X168594314Y-63795849D01*
X168545933Y-63820040D01*
X168521742Y-63868420D01*
X168521742Y-63965182D01*
X168545933Y-64013563D01*
X168594314Y-64037754D01*
X168642695Y-64037754D01*
X168691076Y-63795849D01*
X168860409Y-64255468D02*
X168352409Y-64255468D01*
X168545933Y-64255468D02*
X168521742Y-64303849D01*
X168521742Y-64400611D01*
X168545933Y-64448992D01*
X168570123Y-64473182D01*
X168618504Y-64497373D01*
X168763647Y-64497373D01*
X168812028Y-64473182D01*
X168836219Y-64448992D01*
X168860409Y-64400611D01*
X168860409Y-64303849D01*
X168836219Y-64255468D01*
X168860409Y-64715087D02*
X168521742Y-64715087D01*
X168618504Y-64715087D02*
X168570123Y-64739278D01*
X168545933Y-64763468D01*
X168521742Y-64811849D01*
X168521742Y-64860230D01*
X168836219Y-65223087D02*
X168860409Y-65174706D01*
X168860409Y-65077944D01*
X168836219Y-65029563D01*
X168787838Y-65005373D01*
X168594314Y-65005373D01*
X168545933Y-65029563D01*
X168521742Y-65077944D01*
X168521742Y-65174706D01*
X168545933Y-65223087D01*
X168594314Y-65247278D01*
X168642695Y-65247278D01*
X168691076Y-65005373D01*
X168521742Y-65416611D02*
X168860409Y-65513373D01*
X168618504Y-65610135D01*
X168860409Y-65706897D01*
X168521742Y-65803659D01*
X168570123Y-66069754D02*
X168545933Y-66021373D01*
X168521742Y-65997182D01*
X168473361Y-65972992D01*
X168449171Y-65972992D01*
X168400790Y-65997182D01*
X168376600Y-66021373D01*
X168352409Y-66069754D01*
X168352409Y-66166516D01*
X168376600Y-66214897D01*
X168400790Y-66239087D01*
X168449171Y-66263278D01*
X168473361Y-66263278D01*
X168521742Y-66239087D01*
X168545933Y-66214897D01*
X168570123Y-66166516D01*
X168570123Y-66069754D01*
X168594314Y-66021373D01*
X168618504Y-65997182D01*
X168666885Y-65972992D01*
X168763647Y-65972992D01*
X168812028Y-65997182D01*
X168836219Y-66021373D01*
X168860409Y-66069754D01*
X168860409Y-66166516D01*
X168836219Y-66214897D01*
X168812028Y-66239087D01*
X168763647Y-66263278D01*
X168666885Y-66263278D01*
X168618504Y-66239087D01*
X168594314Y-66214897D01*
X168570123Y-66166516D01*
X168352409Y-66577754D02*
X168352409Y-66626135D01*
X168376600Y-66674516D01*
X168400790Y-66698706D01*
X168449171Y-66722897D01*
X168545933Y-66747087D01*
X168666885Y-66747087D01*
X168763647Y-66722897D01*
X168812028Y-66698706D01*
X168836219Y-66674516D01*
X168860409Y-66626135D01*
X168860409Y-66577754D01*
X168836219Y-66529373D01*
X168812028Y-66505182D01*
X168763647Y-66480992D01*
X168666885Y-66456801D01*
X168545933Y-66456801D01*
X168449171Y-66480992D01*
X168400790Y-66505182D01*
X168376600Y-66529373D01*
X168352409Y-66577754D01*
X168570123Y-67037373D02*
X168545933Y-66988992D01*
X168521742Y-66964801D01*
X168473361Y-66940611D01*
X168449171Y-66940611D01*
X168400790Y-66964801D01*
X168376600Y-66988992D01*
X168352409Y-67037373D01*
X168352409Y-67134135D01*
X168376600Y-67182516D01*
X168400790Y-67206706D01*
X168449171Y-67230897D01*
X168473361Y-67230897D01*
X168521742Y-67206706D01*
X168545933Y-67182516D01*
X168570123Y-67134135D01*
X168570123Y-67037373D01*
X168594314Y-66988992D01*
X168618504Y-66964801D01*
X168666885Y-66940611D01*
X168763647Y-66940611D01*
X168812028Y-66964801D01*
X168836219Y-66988992D01*
X168860409Y-67037373D01*
X168860409Y-67134135D01*
X168836219Y-67182516D01*
X168812028Y-67206706D01*
X168763647Y-67230897D01*
X168666885Y-67230897D01*
X168618504Y-67206706D01*
X168594314Y-67182516D01*
X168570123Y-67134135D01*
X168570123Y-67521182D02*
X168545933Y-67472801D01*
X168521742Y-67448611D01*
X168473361Y-67424420D01*
X168449171Y-67424420D01*
X168400790Y-67448611D01*
X168376600Y-67472801D01*
X168352409Y-67521182D01*
X168352409Y-67617944D01*
X168376600Y-67666325D01*
X168400790Y-67690516D01*
X168449171Y-67714706D01*
X168473361Y-67714706D01*
X168521742Y-67690516D01*
X168545933Y-67666325D01*
X168570123Y-67617944D01*
X168570123Y-67521182D01*
X168594314Y-67472801D01*
X168618504Y-67448611D01*
X168666885Y-67424420D01*
X168763647Y-67424420D01*
X168812028Y-67448611D01*
X168836219Y-67472801D01*
X168860409Y-67521182D01*
X168860409Y-67617944D01*
X168836219Y-67666325D01*
X168812028Y-67690516D01*
X168763647Y-67714706D01*
X168666885Y-67714706D01*
X168618504Y-67690516D01*
X168594314Y-67666325D01*
X168570123Y-67617944D01*
X168812028Y-67932420D02*
X168836219Y-67956611D01*
X168860409Y-67932420D01*
X168836219Y-67908230D01*
X168812028Y-67932420D01*
X168860409Y-67932420D01*
X168836219Y-68392040D02*
X168860409Y-68343659D01*
X168860409Y-68246897D01*
X168836219Y-68198516D01*
X168812028Y-68174325D01*
X168763647Y-68150135D01*
X168618504Y-68150135D01*
X168570123Y-68174325D01*
X168545933Y-68198516D01*
X168521742Y-68246897D01*
X168521742Y-68343659D01*
X168545933Y-68392040D01*
X168860409Y-68682325D02*
X168836219Y-68633944D01*
X168812028Y-68609754D01*
X168763647Y-68585563D01*
X168618504Y-68585563D01*
X168570123Y-68609754D01*
X168545933Y-68633944D01*
X168521742Y-68682325D01*
X168521742Y-68754897D01*
X168545933Y-68803278D01*
X168570123Y-68827468D01*
X168618504Y-68851659D01*
X168763647Y-68851659D01*
X168812028Y-68827468D01*
X168836219Y-68803278D01*
X168860409Y-68754897D01*
X168860409Y-68682325D01*
X168860409Y-69069373D02*
X168521742Y-69069373D01*
X168570123Y-69069373D02*
X168545933Y-69093563D01*
X168521742Y-69141944D01*
X168521742Y-69214516D01*
X168545933Y-69262897D01*
X168594314Y-69287087D01*
X168860409Y-69287087D01*
X168594314Y-69287087D02*
X168545933Y-69311278D01*
X168521742Y-69359659D01*
X168521742Y-69432230D01*
X168545933Y-69480611D01*
X168594314Y-69504801D01*
X168860409Y-69504801D01*
D11*
%TO.C,J1*%
X161350000Y-59630000D02*
X160020000Y-59630000D01*
X161350000Y-60960000D02*
X161350000Y-59630000D01*
X161350000Y-62230000D02*
X158690000Y-62230000D01*
X158690000Y-62230000D02*
X158690000Y-138490000D01*
X161350000Y-62230000D02*
X161350000Y-138490000D01*
X161350000Y-138490000D02*
X158690000Y-138490000D01*
%TO.C,J3*%
X176590000Y-138490000D02*
X173930000Y-138490000D01*
X176590000Y-62230000D02*
X176590000Y-138490000D01*
X173930000Y-62230000D02*
X173930000Y-138490000D01*
X176590000Y-62230000D02*
X173930000Y-62230000D01*
X176590000Y-60960000D02*
X176590000Y-59630000D01*
X176590000Y-59630000D02*
X175260000Y-59630000D01*
%TD*%
M02*
