G04 #@! TF.GenerationSoftware,KiCad,Pcbnew,(5.1.8)-1*
G04 #@! TF.CreationDate,2022-11-03T13:18:07-06:00*
G04 #@! TF.ProjectId,Breadboard Adapter,42726561-6462-46f6-9172-642041646170,rev?*
G04 #@! TF.SameCoordinates,Original*
G04 #@! TF.FileFunction,Legend,Bot*
G04 #@! TF.FilePolarity,Positive*
%FSLAX46Y46*%
G04 Gerber Fmt 4.6, Leading zero omitted, Abs format (unit mm)*
G04 Created by KiCad (PCBNEW (5.1.8)-1) date 2022-11-03 13:18:07*
%MOMM*%
%LPD*%
G01*
G04 APERTURE LIST*
%ADD10C,0.120000*%
G04 APERTURE END LIST*
D10*
G04 #@! TO.C,J6*
X113090000Y-123130000D02*
X111760000Y-123130000D01*
X113090000Y-124460000D02*
X113090000Y-123130000D01*
X113090000Y-125730000D02*
X110430000Y-125730000D01*
X110430000Y-125730000D02*
X110430000Y-143570000D01*
X113090000Y-125730000D02*
X113090000Y-143570000D01*
X113090000Y-143570000D02*
X110430000Y-143570000D01*
G04 #@! TO.C,J5*
X95310000Y-123130000D02*
X93980000Y-123130000D01*
X95310000Y-124460000D02*
X95310000Y-123130000D01*
X95310000Y-125730000D02*
X92650000Y-125730000D01*
X92650000Y-125730000D02*
X92650000Y-143570000D01*
X95310000Y-125730000D02*
X95310000Y-143570000D01*
X95310000Y-143570000D02*
X92650000Y-143570000D01*
G04 #@! TO.C,J4*
X113090000Y-36770000D02*
X111760000Y-36770000D01*
X113090000Y-38100000D02*
X113090000Y-36770000D01*
X113090000Y-39370000D02*
X110430000Y-39370000D01*
X110430000Y-39370000D02*
X110430000Y-115630000D01*
X113090000Y-39370000D02*
X113090000Y-115630000D01*
X113090000Y-115630000D02*
X110430000Y-115630000D01*
G04 #@! TO.C,J3*
X95310000Y-36770000D02*
X93980000Y-36770000D01*
X95310000Y-38100000D02*
X95310000Y-36770000D01*
X95310000Y-39370000D02*
X92650000Y-39370000D01*
X92650000Y-39370000D02*
X92650000Y-115630000D01*
X95310000Y-39370000D02*
X95310000Y-115630000D01*
X95310000Y-115630000D02*
X92650000Y-115630000D01*
G04 #@! TD*
M02*
