G04 #@! TF.GenerationSoftware,KiCad,Pcbnew,(5.1.8)-1*
G04 #@! TF.CreationDate,2022-11-03T13:18:07-06:00*
G04 #@! TF.ProjectId,Breadboard Adapter,42726561-6462-46f6-9172-642041646170,rev?*
G04 #@! TF.SameCoordinates,Original*
G04 #@! TF.FileFunction,Legend,Top*
G04 #@! TF.FilePolarity,Positive*
%FSLAX46Y46*%
G04 Gerber Fmt 4.6, Leading zero omitted, Abs format (unit mm)*
G04 Created by KiCad (PCBNEW (5.1.8)-1) date 2022-11-03 13:18:07*
%MOMM*%
%LPD*%
G01*
G04 APERTURE LIST*
%ADD10C,0.150000*%
%ADD11C,0.101600*%
%ADD12C,0.076200*%
%ADD13C,0.120000*%
G04 APERTURE END LIST*
D10*
X108718428Y-13797595D02*
X108718428Y-14130928D01*
X108194619Y-14273785D02*
X108194619Y-13797595D01*
X109194619Y-13797595D01*
X109194619Y-14273785D01*
X108194619Y-14702357D02*
X109194619Y-14702357D01*
X108480333Y-15035690D01*
X109194619Y-15369023D01*
X108194619Y-15369023D01*
X108194619Y-15845214D02*
X109194619Y-15845214D01*
X108480333Y-16178547D01*
X109194619Y-16511880D01*
X108194619Y-16511880D01*
X108289857Y-18321404D02*
X108242238Y-18273785D01*
X108194619Y-18130928D01*
X108194619Y-18035690D01*
X108242238Y-17892833D01*
X108337476Y-17797595D01*
X108432714Y-17749976D01*
X108623190Y-17702357D01*
X108766047Y-17702357D01*
X108956523Y-17749976D01*
X109051761Y-17797595D01*
X109147000Y-17892833D01*
X109194619Y-18035690D01*
X109194619Y-18130928D01*
X109147000Y-18273785D01*
X109099380Y-18321404D01*
X109194619Y-18940452D02*
X109194619Y-19130928D01*
X109147000Y-19226166D01*
X109051761Y-19321404D01*
X108861285Y-19369023D01*
X108527952Y-19369023D01*
X108337476Y-19321404D01*
X108242238Y-19226166D01*
X108194619Y-19130928D01*
X108194619Y-18940452D01*
X108242238Y-18845214D01*
X108337476Y-18749976D01*
X108527952Y-18702357D01*
X108861285Y-18702357D01*
X109051761Y-18749976D01*
X109147000Y-18845214D01*
X109194619Y-18940452D01*
X108194619Y-19797595D02*
X109194619Y-19797595D01*
X108480333Y-20130928D01*
X109194619Y-20464261D01*
X108194619Y-20464261D01*
X108194619Y-20940452D02*
X109194619Y-20940452D01*
X109194619Y-21321404D01*
X109147000Y-21416642D01*
X109099380Y-21464261D01*
X109004142Y-21511880D01*
X108861285Y-21511880D01*
X108766047Y-21464261D01*
X108718428Y-21416642D01*
X108670809Y-21321404D01*
X108670809Y-20940452D01*
X109194619Y-21940452D02*
X108385095Y-21940452D01*
X108289857Y-21988071D01*
X108242238Y-22035690D01*
X108194619Y-22130928D01*
X108194619Y-22321404D01*
X108242238Y-22416642D01*
X108289857Y-22464261D01*
X108385095Y-22511880D01*
X109194619Y-22511880D01*
X109194619Y-22845214D02*
X109194619Y-23416642D01*
X108194619Y-23130928D02*
X109194619Y-23130928D01*
X108718428Y-23749976D02*
X108718428Y-24083309D01*
X108194619Y-24226166D02*
X108194619Y-23749976D01*
X109194619Y-23749976D01*
X109194619Y-24226166D01*
X108194619Y-25226166D02*
X108670809Y-24892833D01*
X108194619Y-24654738D02*
X109194619Y-24654738D01*
X109194619Y-25035690D01*
X109147000Y-25130928D01*
X109099380Y-25178547D01*
X109004142Y-25226166D01*
X108861285Y-25226166D01*
X108766047Y-25178547D01*
X108718428Y-25130928D01*
X108670809Y-25035690D01*
X108670809Y-24654738D01*
X108242238Y-25607119D02*
X108194619Y-25749976D01*
X108194619Y-25988071D01*
X108242238Y-26083309D01*
X108289857Y-26130928D01*
X108385095Y-26178547D01*
X108480333Y-26178547D01*
X108575571Y-26130928D01*
X108623190Y-26083309D01*
X108670809Y-25988071D01*
X108718428Y-25797595D01*
X108766047Y-25702357D01*
X108813666Y-25654738D01*
X108908904Y-25607119D01*
X109004142Y-25607119D01*
X109099380Y-25654738D01*
X109147000Y-25702357D01*
X109194619Y-25797595D01*
X109194619Y-26035690D01*
X109147000Y-26178547D01*
X107068428Y-14130928D02*
X107020809Y-14273785D01*
X106973190Y-14321404D01*
X106877952Y-14369023D01*
X106735095Y-14369023D01*
X106639857Y-14321404D01*
X106592238Y-14273785D01*
X106544619Y-14178547D01*
X106544619Y-13797595D01*
X107544619Y-13797595D01*
X107544619Y-14130928D01*
X107497000Y-14226166D01*
X107449380Y-14273785D01*
X107354142Y-14321404D01*
X107258904Y-14321404D01*
X107163666Y-14273785D01*
X107116047Y-14226166D01*
X107068428Y-14130928D01*
X107068428Y-13797595D01*
X106544619Y-15369023D02*
X107020809Y-15035690D01*
X106544619Y-14797595D02*
X107544619Y-14797595D01*
X107544619Y-15178547D01*
X107497000Y-15273785D01*
X107449380Y-15321404D01*
X107354142Y-15369023D01*
X107211285Y-15369023D01*
X107116047Y-15321404D01*
X107068428Y-15273785D01*
X107020809Y-15178547D01*
X107020809Y-14797595D01*
X107068428Y-15797595D02*
X107068428Y-16130928D01*
X106544619Y-16273785D02*
X106544619Y-15797595D01*
X107544619Y-15797595D01*
X107544619Y-16273785D01*
X106830333Y-16654738D02*
X106830333Y-17130928D01*
X106544619Y-16559500D02*
X107544619Y-16892833D01*
X106544619Y-17226166D01*
X106544619Y-17559500D02*
X107544619Y-17559500D01*
X107544619Y-17797595D01*
X107497000Y-17940452D01*
X107401761Y-18035690D01*
X107306523Y-18083309D01*
X107116047Y-18130928D01*
X106973190Y-18130928D01*
X106782714Y-18083309D01*
X106687476Y-18035690D01*
X106592238Y-17940452D01*
X106544619Y-17797595D01*
X106544619Y-17559500D01*
X107068428Y-18892833D02*
X107020809Y-19035690D01*
X106973190Y-19083309D01*
X106877952Y-19130928D01*
X106735095Y-19130928D01*
X106639857Y-19083309D01*
X106592238Y-19035690D01*
X106544619Y-18940452D01*
X106544619Y-18559500D01*
X107544619Y-18559500D01*
X107544619Y-18892833D01*
X107497000Y-18988071D01*
X107449380Y-19035690D01*
X107354142Y-19083309D01*
X107258904Y-19083309D01*
X107163666Y-19035690D01*
X107116047Y-18988071D01*
X107068428Y-18892833D01*
X107068428Y-18559500D01*
X107544619Y-19749976D02*
X107544619Y-19940452D01*
X107497000Y-20035690D01*
X107401761Y-20130928D01*
X107211285Y-20178547D01*
X106877952Y-20178547D01*
X106687476Y-20130928D01*
X106592238Y-20035690D01*
X106544619Y-19940452D01*
X106544619Y-19749976D01*
X106592238Y-19654738D01*
X106687476Y-19559500D01*
X106877952Y-19511880D01*
X107211285Y-19511880D01*
X107401761Y-19559500D01*
X107497000Y-19654738D01*
X107544619Y-19749976D01*
X106830333Y-20559500D02*
X106830333Y-21035690D01*
X106544619Y-20464261D02*
X107544619Y-20797595D01*
X106544619Y-21130928D01*
X106544619Y-22035690D02*
X107020809Y-21702357D01*
X106544619Y-21464261D02*
X107544619Y-21464261D01*
X107544619Y-21845214D01*
X107497000Y-21940452D01*
X107449380Y-21988071D01*
X107354142Y-22035690D01*
X107211285Y-22035690D01*
X107116047Y-21988071D01*
X107068428Y-21940452D01*
X107020809Y-21845214D01*
X107020809Y-21464261D01*
X106544619Y-22464261D02*
X107544619Y-22464261D01*
X107544619Y-22702357D01*
X107497000Y-22845214D01*
X107401761Y-22940452D01*
X107306523Y-22988071D01*
X107116047Y-23035690D01*
X106973190Y-23035690D01*
X106782714Y-22988071D01*
X106687476Y-22940452D01*
X106592238Y-22845214D01*
X106544619Y-22702357D01*
X106544619Y-22464261D01*
X106830333Y-24178547D02*
X106830333Y-24654738D01*
X106544619Y-24083309D02*
X107544619Y-24416642D01*
X106544619Y-24749976D01*
X106544619Y-25083309D02*
X107544619Y-25083309D01*
X107544619Y-25321404D01*
X107497000Y-25464261D01*
X107401761Y-25559500D01*
X107306523Y-25607119D01*
X107116047Y-25654738D01*
X106973190Y-25654738D01*
X106782714Y-25607119D01*
X106687476Y-25559500D01*
X106592238Y-25464261D01*
X106544619Y-25321404D01*
X106544619Y-25083309D01*
X106830333Y-26035690D02*
X106830333Y-26511880D01*
X106544619Y-25940452D02*
X107544619Y-26273785D01*
X106544619Y-26607119D01*
X106544619Y-26940452D02*
X107544619Y-26940452D01*
X107544619Y-27321404D01*
X107497000Y-27416642D01*
X107449380Y-27464261D01*
X107354142Y-27511880D01*
X107211285Y-27511880D01*
X107116047Y-27464261D01*
X107068428Y-27416642D01*
X107020809Y-27321404D01*
X107020809Y-26940452D01*
X107544619Y-27797595D02*
X107544619Y-28369023D01*
X106544619Y-28083309D02*
X107544619Y-28083309D01*
X107068428Y-28702357D02*
X107068428Y-29035690D01*
X106544619Y-29178547D02*
X106544619Y-28702357D01*
X107544619Y-28702357D01*
X107544619Y-29178547D01*
X106544619Y-30178547D02*
X107020809Y-29845214D01*
X106544619Y-29607119D02*
X107544619Y-29607119D01*
X107544619Y-29988071D01*
X107497000Y-30083309D01*
X107449380Y-30130928D01*
X107354142Y-30178547D01*
X107211285Y-30178547D01*
X107116047Y-30130928D01*
X107068428Y-30083309D01*
X107020809Y-29988071D01*
X107020809Y-29607119D01*
X104989857Y-14369023D02*
X104942238Y-14321404D01*
X104894619Y-14178547D01*
X104894619Y-14083309D01*
X104942238Y-13940452D01*
X105037476Y-13845214D01*
X105132714Y-13797595D01*
X105323190Y-13749976D01*
X105466047Y-13749976D01*
X105656523Y-13797595D01*
X105751761Y-13845214D01*
X105847000Y-13940452D01*
X105894619Y-14083309D01*
X105894619Y-14178547D01*
X105847000Y-14321404D01*
X105799380Y-14369023D01*
X104894619Y-14940452D02*
X104942238Y-14845214D01*
X104989857Y-14797595D01*
X105085095Y-14749976D01*
X105370809Y-14749976D01*
X105466047Y-14797595D01*
X105513666Y-14845214D01*
X105561285Y-14940452D01*
X105561285Y-15083309D01*
X105513666Y-15178547D01*
X105466047Y-15226166D01*
X105370809Y-15273785D01*
X105085095Y-15273785D01*
X104989857Y-15226166D01*
X104942238Y-15178547D01*
X104894619Y-15083309D01*
X104894619Y-14940452D01*
X105561285Y-15702357D02*
X104561285Y-15702357D01*
X105513666Y-15702357D02*
X105561285Y-15797595D01*
X105561285Y-15988071D01*
X105513666Y-16083309D01*
X105466047Y-16130928D01*
X105370809Y-16178547D01*
X105085095Y-16178547D01*
X104989857Y-16130928D01*
X104942238Y-16083309D01*
X104894619Y-15988071D01*
X104894619Y-15797595D01*
X104942238Y-15702357D01*
X105561285Y-16511880D02*
X104894619Y-16749976D01*
X105561285Y-16988071D02*
X104894619Y-16749976D01*
X104656523Y-16654738D01*
X104608904Y-16607119D01*
X104561285Y-16511880D01*
X104894619Y-17369023D02*
X105561285Y-17369023D01*
X105370809Y-17369023D02*
X105466047Y-17416642D01*
X105513666Y-17464261D01*
X105561285Y-17559500D01*
X105561285Y-17654738D01*
X104894619Y-17988071D02*
X105561285Y-17988071D01*
X105894619Y-17988071D02*
X105847000Y-17940452D01*
X105799380Y-17988071D01*
X105847000Y-18035690D01*
X105894619Y-17988071D01*
X105799380Y-17988071D01*
X105561285Y-18892833D02*
X104751761Y-18892833D01*
X104656523Y-18845214D01*
X104608904Y-18797595D01*
X104561285Y-18702357D01*
X104561285Y-18559500D01*
X104608904Y-18464261D01*
X104942238Y-18892833D02*
X104894619Y-18797595D01*
X104894619Y-18607119D01*
X104942238Y-18511880D01*
X104989857Y-18464261D01*
X105085095Y-18416642D01*
X105370809Y-18416642D01*
X105466047Y-18464261D01*
X105513666Y-18511880D01*
X105561285Y-18607119D01*
X105561285Y-18797595D01*
X105513666Y-18892833D01*
X104894619Y-19369023D02*
X105894619Y-19369023D01*
X104894619Y-19797595D02*
X105418428Y-19797595D01*
X105513666Y-19749976D01*
X105561285Y-19654738D01*
X105561285Y-19511880D01*
X105513666Y-19416642D01*
X105466047Y-19369023D01*
X105561285Y-20130928D02*
X105561285Y-20511880D01*
X105894619Y-20273785D02*
X105037476Y-20273785D01*
X104942238Y-20321404D01*
X104894619Y-20416642D01*
X104894619Y-20511880D01*
X104513666Y-21892833D02*
X104561285Y-21845214D01*
X104704142Y-21749976D01*
X104799380Y-21702357D01*
X104942238Y-21654738D01*
X105180333Y-21607119D01*
X105370809Y-21607119D01*
X105608904Y-21654738D01*
X105751761Y-21702357D01*
X105847000Y-21749976D01*
X105989857Y-21845214D01*
X106037476Y-21892833D01*
X104989857Y-22845214D02*
X104942238Y-22797595D01*
X104894619Y-22654738D01*
X104894619Y-22559500D01*
X104942238Y-22416642D01*
X105037476Y-22321404D01*
X105132714Y-22273785D01*
X105323190Y-22226166D01*
X105466047Y-22226166D01*
X105656523Y-22273785D01*
X105751761Y-22321404D01*
X105847000Y-22416642D01*
X105894619Y-22559500D01*
X105894619Y-22654738D01*
X105847000Y-22797595D01*
X105799380Y-22845214D01*
X104513666Y-23178547D02*
X104561285Y-23226166D01*
X104704142Y-23321404D01*
X104799380Y-23369023D01*
X104942238Y-23416642D01*
X105180333Y-23464261D01*
X105370809Y-23464261D01*
X105608904Y-23416642D01*
X105751761Y-23369023D01*
X105847000Y-23321404D01*
X105989857Y-23226166D01*
X106037476Y-23178547D01*
X105799380Y-24654738D02*
X105847000Y-24702357D01*
X105894619Y-24797595D01*
X105894619Y-25035690D01*
X105847000Y-25130928D01*
X105799380Y-25178547D01*
X105704142Y-25226166D01*
X105608904Y-25226166D01*
X105466047Y-25178547D01*
X104894619Y-24607119D01*
X104894619Y-25226166D01*
X105894619Y-25845214D02*
X105894619Y-25940452D01*
X105847000Y-26035690D01*
X105799380Y-26083309D01*
X105704142Y-26130928D01*
X105513666Y-26178547D01*
X105275571Y-26178547D01*
X105085095Y-26130928D01*
X104989857Y-26083309D01*
X104942238Y-26035690D01*
X104894619Y-25940452D01*
X104894619Y-25845214D01*
X104942238Y-25749976D01*
X104989857Y-25702357D01*
X105085095Y-25654738D01*
X105275571Y-25607119D01*
X105513666Y-25607119D01*
X105704142Y-25654738D01*
X105799380Y-25702357D01*
X105847000Y-25749976D01*
X105894619Y-25845214D01*
X105799380Y-26559500D02*
X105847000Y-26607119D01*
X105894619Y-26702357D01*
X105894619Y-26940452D01*
X105847000Y-27035690D01*
X105799380Y-27083309D01*
X105704142Y-27130928D01*
X105608904Y-27130928D01*
X105466047Y-27083309D01*
X104894619Y-26511880D01*
X104894619Y-27130928D01*
X105799380Y-27511880D02*
X105847000Y-27559500D01*
X105894619Y-27654738D01*
X105894619Y-27892833D01*
X105847000Y-27988071D01*
X105799380Y-28035690D01*
X105704142Y-28083309D01*
X105608904Y-28083309D01*
X105466047Y-28035690D01*
X104894619Y-27464261D01*
X104894619Y-28083309D01*
X105418428Y-29273785D02*
X105418428Y-29607119D01*
X104894619Y-29749976D02*
X104894619Y-29273785D01*
X105894619Y-29273785D01*
X105894619Y-29749976D01*
X104894619Y-30178547D02*
X105894619Y-30178547D01*
X105180333Y-30511880D01*
X105894619Y-30845214D01*
X104894619Y-30845214D01*
X104894619Y-31321404D02*
X105894619Y-31321404D01*
X105180333Y-31654738D01*
X105894619Y-31988071D01*
X104894619Y-31988071D01*
X103911285Y-13702357D02*
X103244619Y-13892833D01*
X103720809Y-14083309D01*
X103244619Y-14273785D01*
X103911285Y-14464261D01*
X103911285Y-14749976D02*
X103244619Y-14940452D01*
X103720809Y-15130928D01*
X103244619Y-15321404D01*
X103911285Y-15511880D01*
X103911285Y-15797595D02*
X103244619Y-15988071D01*
X103720809Y-16178547D01*
X103244619Y-16369023D01*
X103911285Y-16559500D01*
X103339857Y-16940452D02*
X103292238Y-16988071D01*
X103244619Y-16940452D01*
X103292238Y-16892833D01*
X103339857Y-16940452D01*
X103244619Y-16940452D01*
X103244619Y-17416642D02*
X104244619Y-17416642D01*
X103244619Y-17845214D02*
X103768428Y-17845214D01*
X103863666Y-17797595D01*
X103911285Y-17702357D01*
X103911285Y-17559500D01*
X103863666Y-17464261D01*
X103816047Y-17416642D01*
X103244619Y-18464261D02*
X103292238Y-18369023D01*
X103339857Y-18321404D01*
X103435095Y-18273785D01*
X103720809Y-18273785D01*
X103816047Y-18321404D01*
X103863666Y-18369023D01*
X103911285Y-18464261D01*
X103911285Y-18607119D01*
X103863666Y-18702357D01*
X103816047Y-18749976D01*
X103720809Y-18797595D01*
X103435095Y-18797595D01*
X103339857Y-18749976D01*
X103292238Y-18702357D01*
X103244619Y-18607119D01*
X103244619Y-18464261D01*
X103244619Y-19226166D02*
X103911285Y-19226166D01*
X103816047Y-19226166D02*
X103863666Y-19273785D01*
X103911285Y-19369023D01*
X103911285Y-19511880D01*
X103863666Y-19607119D01*
X103768428Y-19654738D01*
X103244619Y-19654738D01*
X103768428Y-19654738D02*
X103863666Y-19702357D01*
X103911285Y-19797595D01*
X103911285Y-19940452D01*
X103863666Y-20035690D01*
X103768428Y-20083309D01*
X103244619Y-20083309D01*
X103292238Y-20940452D02*
X103244619Y-20845214D01*
X103244619Y-20654738D01*
X103292238Y-20559500D01*
X103387476Y-20511880D01*
X103768428Y-20511880D01*
X103863666Y-20559500D01*
X103911285Y-20654738D01*
X103911285Y-20845214D01*
X103863666Y-20940452D01*
X103768428Y-20988071D01*
X103673190Y-20988071D01*
X103577952Y-20511880D01*
X103244619Y-21416642D02*
X104244619Y-21416642D01*
X103863666Y-21416642D02*
X103911285Y-21511880D01*
X103911285Y-21702357D01*
X103863666Y-21797595D01*
X103816047Y-21845214D01*
X103720809Y-21892833D01*
X103435095Y-21892833D01*
X103339857Y-21845214D01*
X103292238Y-21797595D01*
X103244619Y-21702357D01*
X103244619Y-21511880D01*
X103292238Y-21416642D01*
X103244619Y-22321404D02*
X103911285Y-22321404D01*
X103720809Y-22321404D02*
X103816047Y-22369023D01*
X103863666Y-22416642D01*
X103911285Y-22511880D01*
X103911285Y-22607119D01*
X103292238Y-23321404D02*
X103244619Y-23226166D01*
X103244619Y-23035690D01*
X103292238Y-22940452D01*
X103387476Y-22892833D01*
X103768428Y-22892833D01*
X103863666Y-22940452D01*
X103911285Y-23035690D01*
X103911285Y-23226166D01*
X103863666Y-23321404D01*
X103768428Y-23369023D01*
X103673190Y-23369023D01*
X103577952Y-22892833D01*
X103911285Y-23702357D02*
X103244619Y-23892833D01*
X103720809Y-24083309D01*
X103244619Y-24273785D01*
X103911285Y-24464261D01*
X103816047Y-24988071D02*
X103863666Y-24892833D01*
X103911285Y-24845214D01*
X104006523Y-24797595D01*
X104054142Y-24797595D01*
X104149380Y-24845214D01*
X104197000Y-24892833D01*
X104244619Y-24988071D01*
X104244619Y-25178547D01*
X104197000Y-25273785D01*
X104149380Y-25321404D01*
X104054142Y-25369023D01*
X104006523Y-25369023D01*
X103911285Y-25321404D01*
X103863666Y-25273785D01*
X103816047Y-25178547D01*
X103816047Y-24988071D01*
X103768428Y-24892833D01*
X103720809Y-24845214D01*
X103625571Y-24797595D01*
X103435095Y-24797595D01*
X103339857Y-24845214D01*
X103292238Y-24892833D01*
X103244619Y-24988071D01*
X103244619Y-25178547D01*
X103292238Y-25273785D01*
X103339857Y-25321404D01*
X103435095Y-25369023D01*
X103625571Y-25369023D01*
X103720809Y-25321404D01*
X103768428Y-25273785D01*
X103816047Y-25178547D01*
X104244619Y-25988071D02*
X104244619Y-26083309D01*
X104197000Y-26178547D01*
X104149380Y-26226166D01*
X104054142Y-26273785D01*
X103863666Y-26321404D01*
X103625571Y-26321404D01*
X103435095Y-26273785D01*
X103339857Y-26226166D01*
X103292238Y-26178547D01*
X103244619Y-26083309D01*
X103244619Y-25988071D01*
X103292238Y-25892833D01*
X103339857Y-25845214D01*
X103435095Y-25797595D01*
X103625571Y-25749976D01*
X103863666Y-25749976D01*
X104054142Y-25797595D01*
X104149380Y-25845214D01*
X104197000Y-25892833D01*
X104244619Y-25988071D01*
X103816047Y-26892833D02*
X103863666Y-26797595D01*
X103911285Y-26749976D01*
X104006523Y-26702357D01*
X104054142Y-26702357D01*
X104149380Y-26749976D01*
X104197000Y-26797595D01*
X104244619Y-26892833D01*
X104244619Y-27083309D01*
X104197000Y-27178547D01*
X104149380Y-27226166D01*
X104054142Y-27273785D01*
X104006523Y-27273785D01*
X103911285Y-27226166D01*
X103863666Y-27178547D01*
X103816047Y-27083309D01*
X103816047Y-26892833D01*
X103768428Y-26797595D01*
X103720809Y-26749976D01*
X103625571Y-26702357D01*
X103435095Y-26702357D01*
X103339857Y-26749976D01*
X103292238Y-26797595D01*
X103244619Y-26892833D01*
X103244619Y-27083309D01*
X103292238Y-27178547D01*
X103339857Y-27226166D01*
X103435095Y-27273785D01*
X103625571Y-27273785D01*
X103720809Y-27226166D01*
X103768428Y-27178547D01*
X103816047Y-27083309D01*
X103816047Y-27845214D02*
X103863666Y-27749976D01*
X103911285Y-27702357D01*
X104006523Y-27654738D01*
X104054142Y-27654738D01*
X104149380Y-27702357D01*
X104197000Y-27749976D01*
X104244619Y-27845214D01*
X104244619Y-28035690D01*
X104197000Y-28130928D01*
X104149380Y-28178547D01*
X104054142Y-28226166D01*
X104006523Y-28226166D01*
X103911285Y-28178547D01*
X103863666Y-28130928D01*
X103816047Y-28035690D01*
X103816047Y-27845214D01*
X103768428Y-27749976D01*
X103720809Y-27702357D01*
X103625571Y-27654738D01*
X103435095Y-27654738D01*
X103339857Y-27702357D01*
X103292238Y-27749976D01*
X103244619Y-27845214D01*
X103244619Y-28035690D01*
X103292238Y-28130928D01*
X103339857Y-28178547D01*
X103435095Y-28226166D01*
X103625571Y-28226166D01*
X103720809Y-28178547D01*
X103768428Y-28130928D01*
X103816047Y-28035690D01*
X103339857Y-28654738D02*
X103292238Y-28702357D01*
X103244619Y-28654738D01*
X103292238Y-28607119D01*
X103339857Y-28654738D01*
X103244619Y-28654738D01*
X103292238Y-29559500D02*
X103244619Y-29464261D01*
X103244619Y-29273785D01*
X103292238Y-29178547D01*
X103339857Y-29130928D01*
X103435095Y-29083309D01*
X103720809Y-29083309D01*
X103816047Y-29130928D01*
X103863666Y-29178547D01*
X103911285Y-29273785D01*
X103911285Y-29464261D01*
X103863666Y-29559500D01*
X103244619Y-30130928D02*
X103292238Y-30035690D01*
X103339857Y-29988071D01*
X103435095Y-29940452D01*
X103720809Y-29940452D01*
X103816047Y-29988071D01*
X103863666Y-30035690D01*
X103911285Y-30130928D01*
X103911285Y-30273785D01*
X103863666Y-30369023D01*
X103816047Y-30416642D01*
X103720809Y-30464261D01*
X103435095Y-30464261D01*
X103339857Y-30416642D01*
X103292238Y-30369023D01*
X103244619Y-30273785D01*
X103244619Y-30130928D01*
X103244619Y-30892833D02*
X103911285Y-30892833D01*
X103816047Y-30892833D02*
X103863666Y-30940452D01*
X103911285Y-31035690D01*
X103911285Y-31178547D01*
X103863666Y-31273785D01*
X103768428Y-31321404D01*
X103244619Y-31321404D01*
X103768428Y-31321404D02*
X103863666Y-31369023D01*
X103911285Y-31464261D01*
X103911285Y-31607119D01*
X103863666Y-31702357D01*
X103768428Y-31749976D01*
X103244619Y-31749976D01*
D11*
X96447428Y-142584714D02*
X96447428Y-141822714D01*
X96882857Y-142584714D01*
X96882857Y-141822714D01*
X97245714Y-142584714D02*
X97245714Y-141822714D01*
X97499714Y-142367000D01*
X97753714Y-141822714D01*
X97753714Y-142584714D01*
X98116571Y-142584714D02*
X98116571Y-141822714D01*
X96683285Y-140044714D02*
X96683285Y-139282714D01*
X97118714Y-140044714D01*
X97118714Y-139282714D01*
X97917000Y-139972142D02*
X97880714Y-140008428D01*
X97771857Y-140044714D01*
X97699285Y-140044714D01*
X97590428Y-140008428D01*
X97517857Y-139935857D01*
X97481571Y-139863285D01*
X97445285Y-139718142D01*
X97445285Y-139609285D01*
X97481571Y-139464142D01*
X97517857Y-139391571D01*
X97590428Y-139319000D01*
X97699285Y-139282714D01*
X97771857Y-139282714D01*
X97880714Y-139319000D01*
X97917000Y-139355285D01*
X96429285Y-137432142D02*
X96393000Y-137468428D01*
X96284142Y-137504714D01*
X96211571Y-137504714D01*
X96102714Y-137468428D01*
X96030142Y-137395857D01*
X95993857Y-137323285D01*
X95957571Y-137178142D01*
X95957571Y-137069285D01*
X95993857Y-136924142D01*
X96030142Y-136851571D01*
X96102714Y-136779000D01*
X96211571Y-136742714D01*
X96284142Y-136742714D01*
X96393000Y-136779000D01*
X96429285Y-136815285D01*
X96719571Y-137468428D02*
X96828428Y-137504714D01*
X97009857Y-137504714D01*
X97082428Y-137468428D01*
X97118714Y-137432142D01*
X97155000Y-137359571D01*
X97155000Y-137287000D01*
X97118714Y-137214428D01*
X97082428Y-137178142D01*
X97009857Y-137141857D01*
X96864714Y-137105571D01*
X96792142Y-137069285D01*
X96755857Y-137033000D01*
X96719571Y-136960428D01*
X96719571Y-136887857D01*
X96755857Y-136815285D01*
X96792142Y-136779000D01*
X96864714Y-136742714D01*
X97046142Y-136742714D01*
X97155000Y-136779000D01*
X97590428Y-137069285D02*
X97517857Y-137033000D01*
X97481571Y-136996714D01*
X97445285Y-136924142D01*
X97445285Y-136887857D01*
X97481571Y-136815285D01*
X97517857Y-136779000D01*
X97590428Y-136742714D01*
X97735571Y-136742714D01*
X97808142Y-136779000D01*
X97844428Y-136815285D01*
X97880714Y-136887857D01*
X97880714Y-136924142D01*
X97844428Y-136996714D01*
X97808142Y-137033000D01*
X97735571Y-137069285D01*
X97590428Y-137069285D01*
X97517857Y-137105571D01*
X97481571Y-137141857D01*
X97445285Y-137214428D01*
X97445285Y-137359571D01*
X97481571Y-137432142D01*
X97517857Y-137468428D01*
X97590428Y-137504714D01*
X97735571Y-137504714D01*
X97808142Y-137468428D01*
X97844428Y-137432142D01*
X97880714Y-137359571D01*
X97880714Y-137214428D01*
X97844428Y-137141857D01*
X97808142Y-137105571D01*
X97735571Y-137069285D01*
X98352428Y-136742714D02*
X98425000Y-136742714D01*
X98497571Y-136779000D01*
X98533857Y-136815285D01*
X98570142Y-136887857D01*
X98606428Y-137033000D01*
X98606428Y-137214428D01*
X98570142Y-137359571D01*
X98533857Y-137432142D01*
X98497571Y-137468428D01*
X98425000Y-137504714D01*
X98352428Y-137504714D01*
X98279857Y-137468428D01*
X98243571Y-137432142D01*
X98207285Y-137359571D01*
X98171000Y-137214428D01*
X98171000Y-137033000D01*
X98207285Y-136887857D01*
X98243571Y-136815285D01*
X98279857Y-136779000D01*
X98352428Y-136742714D01*
X96429285Y-134892142D02*
X96393000Y-134928428D01*
X96284142Y-134964714D01*
X96211571Y-134964714D01*
X96102714Y-134928428D01*
X96030142Y-134855857D01*
X95993857Y-134783285D01*
X95957571Y-134638142D01*
X95957571Y-134529285D01*
X95993857Y-134384142D01*
X96030142Y-134311571D01*
X96102714Y-134239000D01*
X96211571Y-134202714D01*
X96284142Y-134202714D01*
X96393000Y-134239000D01*
X96429285Y-134275285D01*
X96719571Y-134928428D02*
X96828428Y-134964714D01*
X97009857Y-134964714D01*
X97082428Y-134928428D01*
X97118714Y-134892142D01*
X97155000Y-134819571D01*
X97155000Y-134747000D01*
X97118714Y-134674428D01*
X97082428Y-134638142D01*
X97009857Y-134601857D01*
X96864714Y-134565571D01*
X96792142Y-134529285D01*
X96755857Y-134493000D01*
X96719571Y-134420428D01*
X96719571Y-134347857D01*
X96755857Y-134275285D01*
X96792142Y-134239000D01*
X96864714Y-134202714D01*
X97046142Y-134202714D01*
X97155000Y-134239000D01*
X97808142Y-134202714D02*
X97663000Y-134202714D01*
X97590428Y-134239000D01*
X97554142Y-134275285D01*
X97481571Y-134384142D01*
X97445285Y-134529285D01*
X97445285Y-134819571D01*
X97481571Y-134892142D01*
X97517857Y-134928428D01*
X97590428Y-134964714D01*
X97735571Y-134964714D01*
X97808142Y-134928428D01*
X97844428Y-134892142D01*
X97880714Y-134819571D01*
X97880714Y-134638142D01*
X97844428Y-134565571D01*
X97808142Y-134529285D01*
X97735571Y-134493000D01*
X97590428Y-134493000D01*
X97517857Y-134529285D01*
X97481571Y-134565571D01*
X97445285Y-134638142D01*
X98352428Y-134202714D02*
X98425000Y-134202714D01*
X98497571Y-134239000D01*
X98533857Y-134275285D01*
X98570142Y-134347857D01*
X98606428Y-134493000D01*
X98606428Y-134674428D01*
X98570142Y-134819571D01*
X98533857Y-134892142D01*
X98497571Y-134928428D01*
X98425000Y-134964714D01*
X98352428Y-134964714D01*
X98279857Y-134928428D01*
X98243571Y-134892142D01*
X98207285Y-134819571D01*
X98171000Y-134674428D01*
X98171000Y-134493000D01*
X98207285Y-134347857D01*
X98243571Y-134275285D01*
X98279857Y-134239000D01*
X98352428Y-134202714D01*
X96429285Y-132352142D02*
X96393000Y-132388428D01*
X96284142Y-132424714D01*
X96211571Y-132424714D01*
X96102714Y-132388428D01*
X96030142Y-132315857D01*
X95993857Y-132243285D01*
X95957571Y-132098142D01*
X95957571Y-131989285D01*
X95993857Y-131844142D01*
X96030142Y-131771571D01*
X96102714Y-131699000D01*
X96211571Y-131662714D01*
X96284142Y-131662714D01*
X96393000Y-131699000D01*
X96429285Y-131735285D01*
X96719571Y-132388428D02*
X96828428Y-132424714D01*
X97009857Y-132424714D01*
X97082428Y-132388428D01*
X97118714Y-132352142D01*
X97155000Y-132279571D01*
X97155000Y-132207000D01*
X97118714Y-132134428D01*
X97082428Y-132098142D01*
X97009857Y-132061857D01*
X96864714Y-132025571D01*
X96792142Y-131989285D01*
X96755857Y-131953000D01*
X96719571Y-131880428D01*
X96719571Y-131807857D01*
X96755857Y-131735285D01*
X96792142Y-131699000D01*
X96864714Y-131662714D01*
X97046142Y-131662714D01*
X97155000Y-131699000D01*
X97808142Y-131916714D02*
X97808142Y-132424714D01*
X97626714Y-131626428D02*
X97445285Y-132170714D01*
X97917000Y-132170714D01*
X98352428Y-131662714D02*
X98425000Y-131662714D01*
X98497571Y-131699000D01*
X98533857Y-131735285D01*
X98570142Y-131807857D01*
X98606428Y-131953000D01*
X98606428Y-132134428D01*
X98570142Y-132279571D01*
X98533857Y-132352142D01*
X98497571Y-132388428D01*
X98425000Y-132424714D01*
X98352428Y-132424714D01*
X98279857Y-132388428D01*
X98243571Y-132352142D01*
X98207285Y-132279571D01*
X98171000Y-132134428D01*
X98171000Y-131953000D01*
X98207285Y-131807857D01*
X98243571Y-131735285D01*
X98279857Y-131699000D01*
X98352428Y-131662714D01*
X96429285Y-129812142D02*
X96393000Y-129848428D01*
X96284142Y-129884714D01*
X96211571Y-129884714D01*
X96102714Y-129848428D01*
X96030142Y-129775857D01*
X95993857Y-129703285D01*
X95957571Y-129558142D01*
X95957571Y-129449285D01*
X95993857Y-129304142D01*
X96030142Y-129231571D01*
X96102714Y-129159000D01*
X96211571Y-129122714D01*
X96284142Y-129122714D01*
X96393000Y-129159000D01*
X96429285Y-129195285D01*
X96719571Y-129848428D02*
X96828428Y-129884714D01*
X97009857Y-129884714D01*
X97082428Y-129848428D01*
X97118714Y-129812142D01*
X97155000Y-129739571D01*
X97155000Y-129667000D01*
X97118714Y-129594428D01*
X97082428Y-129558142D01*
X97009857Y-129521857D01*
X96864714Y-129485571D01*
X96792142Y-129449285D01*
X96755857Y-129413000D01*
X96719571Y-129340428D01*
X96719571Y-129267857D01*
X96755857Y-129195285D01*
X96792142Y-129159000D01*
X96864714Y-129122714D01*
X97046142Y-129122714D01*
X97155000Y-129159000D01*
X97445285Y-129195285D02*
X97481571Y-129159000D01*
X97554142Y-129122714D01*
X97735571Y-129122714D01*
X97808142Y-129159000D01*
X97844428Y-129195285D01*
X97880714Y-129267857D01*
X97880714Y-129340428D01*
X97844428Y-129449285D01*
X97409000Y-129884714D01*
X97880714Y-129884714D01*
X98352428Y-129122714D02*
X98425000Y-129122714D01*
X98497571Y-129159000D01*
X98533857Y-129195285D01*
X98570142Y-129267857D01*
X98606428Y-129413000D01*
X98606428Y-129594428D01*
X98570142Y-129739571D01*
X98533857Y-129812142D01*
X98497571Y-129848428D01*
X98425000Y-129884714D01*
X98352428Y-129884714D01*
X98279857Y-129848428D01*
X98243571Y-129812142D01*
X98207285Y-129739571D01*
X98171000Y-129594428D01*
X98171000Y-129413000D01*
X98207285Y-129267857D01*
X98243571Y-129195285D01*
X98279857Y-129159000D01*
X98352428Y-129122714D01*
X96429285Y-127272142D02*
X96393000Y-127308428D01*
X96284142Y-127344714D01*
X96211571Y-127344714D01*
X96102714Y-127308428D01*
X96030142Y-127235857D01*
X95993857Y-127163285D01*
X95957571Y-127018142D01*
X95957571Y-126909285D01*
X95993857Y-126764142D01*
X96030142Y-126691571D01*
X96102714Y-126619000D01*
X96211571Y-126582714D01*
X96284142Y-126582714D01*
X96393000Y-126619000D01*
X96429285Y-126655285D01*
X96719571Y-127308428D02*
X96828428Y-127344714D01*
X97009857Y-127344714D01*
X97082428Y-127308428D01*
X97118714Y-127272142D01*
X97155000Y-127199571D01*
X97155000Y-127127000D01*
X97118714Y-127054428D01*
X97082428Y-127018142D01*
X97009857Y-126981857D01*
X96864714Y-126945571D01*
X96792142Y-126909285D01*
X96755857Y-126873000D01*
X96719571Y-126800428D01*
X96719571Y-126727857D01*
X96755857Y-126655285D01*
X96792142Y-126619000D01*
X96864714Y-126582714D01*
X97046142Y-126582714D01*
X97155000Y-126619000D01*
X97626714Y-126582714D02*
X97699285Y-126582714D01*
X97771857Y-126619000D01*
X97808142Y-126655285D01*
X97844428Y-126727857D01*
X97880714Y-126873000D01*
X97880714Y-127054428D01*
X97844428Y-127199571D01*
X97808142Y-127272142D01*
X97771857Y-127308428D01*
X97699285Y-127344714D01*
X97626714Y-127344714D01*
X97554142Y-127308428D01*
X97517857Y-127272142D01*
X97481571Y-127199571D01*
X97445285Y-127054428D01*
X97445285Y-126873000D01*
X97481571Y-126727857D01*
X97517857Y-126655285D01*
X97554142Y-126619000D01*
X97626714Y-126582714D01*
X98352428Y-126582714D02*
X98425000Y-126582714D01*
X98497571Y-126619000D01*
X98533857Y-126655285D01*
X98570142Y-126727857D01*
X98606428Y-126873000D01*
X98606428Y-127054428D01*
X98570142Y-127199571D01*
X98533857Y-127272142D01*
X98497571Y-127308428D01*
X98425000Y-127344714D01*
X98352428Y-127344714D01*
X98279857Y-127308428D01*
X98243571Y-127272142D01*
X98207285Y-127199571D01*
X98171000Y-127054428D01*
X98171000Y-126873000D01*
X98207285Y-126727857D01*
X98243571Y-126655285D01*
X98279857Y-126619000D01*
X98352428Y-126582714D01*
X96139000Y-124804714D02*
X96139000Y-124042714D01*
X96937285Y-124804714D02*
X96683285Y-124441857D01*
X96501857Y-124804714D02*
X96501857Y-124042714D01*
X96792142Y-124042714D01*
X96864714Y-124079000D01*
X96901000Y-124115285D01*
X96937285Y-124187857D01*
X96937285Y-124296714D01*
X96901000Y-124369285D01*
X96864714Y-124405571D01*
X96792142Y-124441857D01*
X96501857Y-124441857D01*
X97771857Y-124877285D02*
X97699285Y-124841000D01*
X97626714Y-124768428D01*
X97517857Y-124659571D01*
X97445285Y-124623285D01*
X97372714Y-124623285D01*
X97409000Y-124804714D02*
X97336428Y-124768428D01*
X97263857Y-124695857D01*
X97227571Y-124550714D01*
X97227571Y-124296714D01*
X97263857Y-124151571D01*
X97336428Y-124079000D01*
X97409000Y-124042714D01*
X97554142Y-124042714D01*
X97626714Y-124079000D01*
X97699285Y-124151571D01*
X97735571Y-124296714D01*
X97735571Y-124550714D01*
X97699285Y-124695857D01*
X97626714Y-124768428D01*
X97554142Y-124804714D01*
X97409000Y-124804714D01*
X98461285Y-124804714D02*
X98025857Y-124804714D01*
X98243571Y-124804714D02*
X98243571Y-124042714D01*
X98171000Y-124151571D01*
X98098428Y-124224142D01*
X98025857Y-124260428D01*
X106534857Y-142548428D02*
X106643714Y-142584714D01*
X106825142Y-142584714D01*
X106897714Y-142548428D01*
X106934000Y-142512142D01*
X106970285Y-142439571D01*
X106970285Y-142367000D01*
X106934000Y-142294428D01*
X106897714Y-142258142D01*
X106825142Y-142221857D01*
X106680000Y-142185571D01*
X106607428Y-142149285D01*
X106571142Y-142113000D01*
X106534857Y-142040428D01*
X106534857Y-141967857D01*
X106571142Y-141895285D01*
X106607428Y-141859000D01*
X106680000Y-141822714D01*
X106861428Y-141822714D01*
X106970285Y-141859000D01*
X107296857Y-142584714D02*
X107296857Y-141822714D01*
X107587142Y-141822714D01*
X107659714Y-141859000D01*
X107696000Y-141895285D01*
X107732285Y-141967857D01*
X107732285Y-142076714D01*
X107696000Y-142149285D01*
X107659714Y-142185571D01*
X107587142Y-142221857D01*
X107296857Y-142221857D01*
X108058857Y-142584714D02*
X108058857Y-141822714D01*
X108494285Y-142584714D02*
X108167714Y-142149285D01*
X108494285Y-141822714D02*
X108058857Y-142258142D01*
X108820857Y-142294428D02*
X109401428Y-142294428D01*
X109764285Y-142076714D02*
X110344857Y-142294428D01*
X109764285Y-142512142D01*
X106698142Y-140008428D02*
X106807000Y-140044714D01*
X106988428Y-140044714D01*
X107061000Y-140008428D01*
X107097285Y-139972142D01*
X107133571Y-139899571D01*
X107133571Y-139827000D01*
X107097285Y-139754428D01*
X107061000Y-139718142D01*
X106988428Y-139681857D01*
X106843285Y-139645571D01*
X106770714Y-139609285D01*
X106734428Y-139573000D01*
X106698142Y-139500428D01*
X106698142Y-139427857D01*
X106734428Y-139355285D01*
X106770714Y-139319000D01*
X106843285Y-139282714D01*
X107024714Y-139282714D01*
X107133571Y-139319000D01*
X107460142Y-140044714D02*
X107460142Y-139282714D01*
X107750428Y-139282714D01*
X107823000Y-139319000D01*
X107859285Y-139355285D01*
X107895571Y-139427857D01*
X107895571Y-139536714D01*
X107859285Y-139609285D01*
X107823000Y-139645571D01*
X107750428Y-139681857D01*
X107460142Y-139681857D01*
X108222142Y-140044714D02*
X108222142Y-139282714D01*
X108657571Y-140044714D02*
X108331000Y-139609285D01*
X108657571Y-139282714D02*
X108222142Y-139718142D01*
X109383285Y-139319000D02*
X109310714Y-139282714D01*
X109201857Y-139282714D01*
X109093000Y-139319000D01*
X109020428Y-139391571D01*
X108984142Y-139464142D01*
X108947857Y-139609285D01*
X108947857Y-139718142D01*
X108984142Y-139863285D01*
X109020428Y-139935857D01*
X109093000Y-140008428D01*
X109201857Y-140044714D01*
X109274428Y-140044714D01*
X109383285Y-140008428D01*
X109419571Y-139972142D01*
X109419571Y-139718142D01*
X109274428Y-139718142D01*
X109891285Y-139282714D02*
X110036428Y-139282714D01*
X110109000Y-139319000D01*
X110181571Y-139391571D01*
X110217857Y-139536714D01*
X110217857Y-139790714D01*
X110181571Y-139935857D01*
X110109000Y-140008428D01*
X110036428Y-140044714D01*
X109891285Y-140044714D01*
X109818714Y-140008428D01*
X109746142Y-139935857D01*
X109709857Y-139790714D01*
X109709857Y-139536714D01*
X109746142Y-139391571D01*
X109818714Y-139319000D01*
X109891285Y-139282714D01*
X107097285Y-137504714D02*
X107097285Y-136742714D01*
X107097285Y-137105571D02*
X107532714Y-137105571D01*
X107532714Y-137504714D02*
X107532714Y-136742714D01*
X107895571Y-137504714D02*
X107895571Y-136742714D01*
X108185857Y-136742714D01*
X108258428Y-136779000D01*
X108294714Y-136815285D01*
X108331000Y-136887857D01*
X108331000Y-136996714D01*
X108294714Y-137069285D01*
X108258428Y-137105571D01*
X108185857Y-137141857D01*
X107895571Y-137141857D01*
X109093000Y-137432142D02*
X109056714Y-137468428D01*
X108947857Y-137504714D01*
X108875285Y-137504714D01*
X108766428Y-137468428D01*
X108693857Y-137395857D01*
X108657571Y-137323285D01*
X108621285Y-137178142D01*
X108621285Y-137069285D01*
X108657571Y-136924142D01*
X108693857Y-136851571D01*
X108766428Y-136779000D01*
X108875285Y-136742714D01*
X108947857Y-136742714D01*
X109056714Y-136779000D01*
X109093000Y-136815285D01*
X109419571Y-137504714D02*
X109419571Y-136742714D01*
X109855000Y-137504714D02*
X109528428Y-137069285D01*
X109855000Y-136742714D02*
X109419571Y-137178142D01*
X107115428Y-134964714D02*
X107115428Y-134202714D01*
X107296857Y-134202714D01*
X107405714Y-134239000D01*
X107478285Y-134311571D01*
X107514571Y-134384142D01*
X107550857Y-134529285D01*
X107550857Y-134638142D01*
X107514571Y-134783285D01*
X107478285Y-134855857D01*
X107405714Y-134928428D01*
X107296857Y-134964714D01*
X107115428Y-134964714D01*
X108312857Y-134964714D02*
X108058857Y-134601857D01*
X107877428Y-134964714D02*
X107877428Y-134202714D01*
X108167714Y-134202714D01*
X108240285Y-134239000D01*
X108276571Y-134275285D01*
X108312857Y-134347857D01*
X108312857Y-134456714D01*
X108276571Y-134529285D01*
X108240285Y-134565571D01*
X108167714Y-134601857D01*
X107877428Y-134601857D01*
X109147428Y-135037285D02*
X109074857Y-135001000D01*
X109002285Y-134928428D01*
X108893428Y-134819571D01*
X108820857Y-134783285D01*
X108748285Y-134783285D01*
X108784571Y-134964714D02*
X108712000Y-134928428D01*
X108639428Y-134855857D01*
X108603142Y-134710714D01*
X108603142Y-134456714D01*
X108639428Y-134311571D01*
X108712000Y-134239000D01*
X108784571Y-134202714D01*
X108929714Y-134202714D01*
X109002285Y-134239000D01*
X109074857Y-134311571D01*
X109111142Y-134456714D01*
X109111142Y-134710714D01*
X109074857Y-134855857D01*
X109002285Y-134928428D01*
X108929714Y-134964714D01*
X108784571Y-134964714D01*
X109582857Y-134202714D02*
X109655428Y-134202714D01*
X109728000Y-134239000D01*
X109764285Y-134275285D01*
X109800571Y-134347857D01*
X109836857Y-134493000D01*
X109836857Y-134674428D01*
X109800571Y-134819571D01*
X109764285Y-134892142D01*
X109728000Y-134928428D01*
X109655428Y-134964714D01*
X109582857Y-134964714D01*
X109510285Y-134928428D01*
X109474000Y-134892142D01*
X109437714Y-134819571D01*
X109401428Y-134674428D01*
X109401428Y-134493000D01*
X109437714Y-134347857D01*
X109474000Y-134275285D01*
X109510285Y-134239000D01*
X109582857Y-134202714D01*
X106825142Y-132424714D02*
X106825142Y-131662714D01*
X106825142Y-132025571D02*
X107260571Y-132025571D01*
X107260571Y-132424714D02*
X107260571Y-131662714D01*
X107768571Y-131662714D02*
X107913714Y-131662714D01*
X107986285Y-131699000D01*
X108058857Y-131771571D01*
X108095142Y-131916714D01*
X108095142Y-132170714D01*
X108058857Y-132315857D01*
X107986285Y-132388428D01*
X107913714Y-132424714D01*
X107768571Y-132424714D01*
X107696000Y-132388428D01*
X107623428Y-132315857D01*
X107587142Y-132170714D01*
X107587142Y-131916714D01*
X107623428Y-131771571D01*
X107696000Y-131699000D01*
X107768571Y-131662714D01*
X108784571Y-132424714D02*
X108421714Y-132424714D01*
X108421714Y-131662714D01*
X109038571Y-132424714D02*
X109038571Y-131662714D01*
X109220000Y-131662714D01*
X109328857Y-131699000D01*
X109401428Y-131771571D01*
X109437714Y-131844142D01*
X109474000Y-131989285D01*
X109474000Y-132098142D01*
X109437714Y-132243285D01*
X109401428Y-132315857D01*
X109328857Y-132388428D01*
X109220000Y-132424714D01*
X109038571Y-132424714D01*
X109764285Y-132207000D02*
X110127142Y-132207000D01*
X109691714Y-132424714D02*
X109945714Y-131662714D01*
X110199714Y-132424714D01*
X107151714Y-129884714D02*
X107151714Y-129122714D01*
X107151714Y-129485571D02*
X107587142Y-129485571D01*
X107587142Y-129884714D02*
X107587142Y-129122714D01*
X108095142Y-129122714D02*
X108240285Y-129122714D01*
X108312857Y-129159000D01*
X108385428Y-129231571D01*
X108421714Y-129376714D01*
X108421714Y-129630714D01*
X108385428Y-129775857D01*
X108312857Y-129848428D01*
X108240285Y-129884714D01*
X108095142Y-129884714D01*
X108022571Y-129848428D01*
X107950000Y-129775857D01*
X107913714Y-129630714D01*
X107913714Y-129376714D01*
X107950000Y-129231571D01*
X108022571Y-129159000D01*
X108095142Y-129122714D01*
X109111142Y-129884714D02*
X108748285Y-129884714D01*
X108748285Y-129122714D01*
X109365142Y-129884714D02*
X109365142Y-129122714D01*
X109546571Y-129122714D01*
X109655428Y-129159000D01*
X109728000Y-129231571D01*
X109764285Y-129304142D01*
X109800571Y-129449285D01*
X109800571Y-129558142D01*
X109764285Y-129703285D01*
X109728000Y-129775857D01*
X109655428Y-129848428D01*
X109546571Y-129884714D01*
X109365142Y-129884714D01*
X107315000Y-127344714D02*
X107061000Y-126981857D01*
X106879571Y-127344714D02*
X106879571Y-126582714D01*
X107169857Y-126582714D01*
X107242428Y-126619000D01*
X107278714Y-126655285D01*
X107315000Y-126727857D01*
X107315000Y-126836714D01*
X107278714Y-126909285D01*
X107242428Y-126945571D01*
X107169857Y-126981857D01*
X106879571Y-126981857D01*
X107641571Y-126945571D02*
X107895571Y-126945571D01*
X108004428Y-127344714D02*
X107641571Y-127344714D01*
X107641571Y-126582714D01*
X108004428Y-126582714D01*
X108294714Y-127127000D02*
X108657571Y-127127000D01*
X108222142Y-127344714D02*
X108476142Y-126582714D01*
X108730142Y-127344714D01*
X108984142Y-127344714D02*
X108984142Y-126582714D01*
X109165571Y-126582714D01*
X109274428Y-126619000D01*
X109347000Y-126691571D01*
X109383285Y-126764142D01*
X109419571Y-126909285D01*
X109419571Y-127018142D01*
X109383285Y-127163285D01*
X109347000Y-127235857D01*
X109274428Y-127308428D01*
X109165571Y-127344714D01*
X108984142Y-127344714D01*
X109891285Y-126981857D02*
X109891285Y-127344714D01*
X109637285Y-126582714D02*
X109891285Y-126981857D01*
X110145285Y-126582714D01*
X107351285Y-124804714D02*
X107097285Y-124441857D01*
X106915857Y-124804714D02*
X106915857Y-124042714D01*
X107206142Y-124042714D01*
X107278714Y-124079000D01*
X107315000Y-124115285D01*
X107351285Y-124187857D01*
X107351285Y-124296714D01*
X107315000Y-124369285D01*
X107278714Y-124405571D01*
X107206142Y-124441857D01*
X106915857Y-124441857D01*
X107677857Y-124405571D02*
X107931857Y-124405571D01*
X108040714Y-124804714D02*
X107677857Y-124804714D01*
X107677857Y-124042714D01*
X108040714Y-124042714D01*
X108331000Y-124768428D02*
X108439857Y-124804714D01*
X108621285Y-124804714D01*
X108693857Y-124768428D01*
X108730142Y-124732142D01*
X108766428Y-124659571D01*
X108766428Y-124587000D01*
X108730142Y-124514428D01*
X108693857Y-124478142D01*
X108621285Y-124441857D01*
X108476142Y-124405571D01*
X108403571Y-124369285D01*
X108367285Y-124333000D01*
X108331000Y-124260428D01*
X108331000Y-124187857D01*
X108367285Y-124115285D01*
X108403571Y-124079000D01*
X108476142Y-124042714D01*
X108657571Y-124042714D01*
X108766428Y-124079000D01*
X109093000Y-124405571D02*
X109347000Y-124405571D01*
X109455857Y-124804714D02*
X109093000Y-124804714D01*
X109093000Y-124042714D01*
X109455857Y-124042714D01*
X109673571Y-124042714D02*
X110109000Y-124042714D01*
X109891285Y-124804714D02*
X109891285Y-124042714D01*
X96683285Y-56224714D02*
X96683285Y-55462714D01*
X97118714Y-56224714D01*
X97118714Y-55462714D01*
X97917000Y-56152142D02*
X97880714Y-56188428D01*
X97771857Y-56224714D01*
X97699285Y-56224714D01*
X97590428Y-56188428D01*
X97517857Y-56115857D01*
X97481571Y-56043285D01*
X97445285Y-55898142D01*
X97445285Y-55789285D01*
X97481571Y-55644142D01*
X97517857Y-55571571D01*
X97590428Y-55499000D01*
X97699285Y-55462714D01*
X97771857Y-55462714D01*
X97880714Y-55499000D01*
X97917000Y-55535285D01*
X96792142Y-53684714D02*
X96356714Y-53684714D01*
X96574428Y-53684714D02*
X96574428Y-52922714D01*
X96501857Y-53031571D01*
X96429285Y-53104142D01*
X96356714Y-53140428D01*
X97082428Y-52995285D02*
X97118714Y-52959000D01*
X97191285Y-52922714D01*
X97372714Y-52922714D01*
X97445285Y-52959000D01*
X97481571Y-52995285D01*
X97517857Y-53067857D01*
X97517857Y-53140428D01*
X97481571Y-53249285D01*
X97046142Y-53684714D01*
X97517857Y-53684714D01*
X97844428Y-53394428D02*
X98425000Y-53394428D01*
X96284142Y-51144714D02*
X96284142Y-50382714D01*
X96465571Y-50382714D01*
X96574428Y-50419000D01*
X96647000Y-50491571D01*
X96683285Y-50564142D01*
X96719571Y-50709285D01*
X96719571Y-50818142D01*
X96683285Y-50963285D01*
X96647000Y-51035857D01*
X96574428Y-51108428D01*
X96465571Y-51144714D01*
X96284142Y-51144714D01*
X97046142Y-51144714D02*
X97046142Y-50382714D01*
X97300142Y-50927000D01*
X97554142Y-50382714D01*
X97554142Y-51144714D01*
X97880714Y-50455285D02*
X97917000Y-50419000D01*
X97989571Y-50382714D01*
X98171000Y-50382714D01*
X98243571Y-50419000D01*
X98279857Y-50455285D01*
X98316142Y-50527857D01*
X98316142Y-50600428D01*
X98279857Y-50709285D01*
X97844428Y-51144714D01*
X98316142Y-51144714D01*
X96991714Y-47842714D02*
X96628857Y-47842714D01*
X96592571Y-48205571D01*
X96628857Y-48169285D01*
X96701428Y-48133000D01*
X96882857Y-48133000D01*
X96955428Y-48169285D01*
X96991714Y-48205571D01*
X97028000Y-48278142D01*
X97028000Y-48459571D01*
X96991714Y-48532142D01*
X96955428Y-48568428D01*
X96882857Y-48604714D01*
X96701428Y-48604714D01*
X96628857Y-48568428D01*
X96592571Y-48532142D01*
X97354571Y-48314428D02*
X97935142Y-48314428D01*
X96538142Y-46064714D02*
X96538142Y-45302714D01*
X97336428Y-46064714D02*
X97082428Y-45701857D01*
X96901000Y-46064714D02*
X96901000Y-45302714D01*
X97191285Y-45302714D01*
X97263857Y-45339000D01*
X97300142Y-45375285D01*
X97336428Y-45447857D01*
X97336428Y-45556714D01*
X97300142Y-45629285D01*
X97263857Y-45665571D01*
X97191285Y-45701857D01*
X96901000Y-45701857D01*
X97626714Y-45375285D02*
X97663000Y-45339000D01*
X97735571Y-45302714D01*
X97917000Y-45302714D01*
X97989571Y-45339000D01*
X98025857Y-45375285D01*
X98062142Y-45447857D01*
X98062142Y-45520428D01*
X98025857Y-45629285D01*
X97590428Y-46064714D01*
X98062142Y-46064714D01*
X96991714Y-42762714D02*
X96628857Y-42762714D01*
X96592571Y-43125571D01*
X96628857Y-43089285D01*
X96701428Y-43053000D01*
X96882857Y-43053000D01*
X96955428Y-43089285D01*
X96991714Y-43125571D01*
X97028000Y-43198142D01*
X97028000Y-43379571D01*
X96991714Y-43452142D01*
X96955428Y-43488428D01*
X96882857Y-43524714D01*
X96701428Y-43524714D01*
X96628857Y-43488428D01*
X96592571Y-43452142D01*
X97354571Y-43234428D02*
X97935142Y-43234428D01*
X97644857Y-43524714D02*
X97644857Y-42944142D01*
X96864714Y-40984714D02*
X96610714Y-40621857D01*
X96429285Y-40984714D02*
X96429285Y-40222714D01*
X96719571Y-40222714D01*
X96792142Y-40259000D01*
X96828428Y-40295285D01*
X96864714Y-40367857D01*
X96864714Y-40476714D01*
X96828428Y-40549285D01*
X96792142Y-40585571D01*
X96719571Y-40621857D01*
X96429285Y-40621857D01*
X97155000Y-40948428D02*
X97263857Y-40984714D01*
X97445285Y-40984714D01*
X97517857Y-40948428D01*
X97554142Y-40912142D01*
X97590428Y-40839571D01*
X97590428Y-40767000D01*
X97554142Y-40694428D01*
X97517857Y-40658142D01*
X97445285Y-40621857D01*
X97300142Y-40585571D01*
X97227571Y-40549285D01*
X97191285Y-40513000D01*
X97155000Y-40440428D01*
X97155000Y-40367857D01*
X97191285Y-40295285D01*
X97227571Y-40259000D01*
X97300142Y-40222714D01*
X97481571Y-40222714D01*
X97590428Y-40259000D01*
X97808142Y-40222714D02*
X98243571Y-40222714D01*
X98025857Y-40984714D02*
X98025857Y-40222714D01*
X96701428Y-37719000D02*
X96628857Y-37682714D01*
X96520000Y-37682714D01*
X96411142Y-37719000D01*
X96338571Y-37791571D01*
X96302285Y-37864142D01*
X96266000Y-38009285D01*
X96266000Y-38118142D01*
X96302285Y-38263285D01*
X96338571Y-38335857D01*
X96411142Y-38408428D01*
X96520000Y-38444714D01*
X96592571Y-38444714D01*
X96701428Y-38408428D01*
X96737714Y-38372142D01*
X96737714Y-38118142D01*
X96592571Y-38118142D01*
X97064285Y-38444714D02*
X97064285Y-37682714D01*
X97499714Y-38444714D01*
X97499714Y-37682714D01*
X97862571Y-38444714D02*
X97862571Y-37682714D01*
X98044000Y-37682714D01*
X98152857Y-37719000D01*
X98225428Y-37791571D01*
X98261714Y-37864142D01*
X98298000Y-38009285D01*
X98298000Y-38118142D01*
X98261714Y-38263285D01*
X98225428Y-38335857D01*
X98152857Y-38408428D01*
X98044000Y-38444714D01*
X97862571Y-38444714D01*
X96701428Y-60579000D02*
X96628857Y-60542714D01*
X96520000Y-60542714D01*
X96411142Y-60579000D01*
X96338571Y-60651571D01*
X96302285Y-60724142D01*
X96266000Y-60869285D01*
X96266000Y-60978142D01*
X96302285Y-61123285D01*
X96338571Y-61195857D01*
X96411142Y-61268428D01*
X96520000Y-61304714D01*
X96592571Y-61304714D01*
X96701428Y-61268428D01*
X96737714Y-61232142D01*
X96737714Y-60978142D01*
X96592571Y-60978142D01*
X97064285Y-61304714D02*
X97064285Y-60542714D01*
X97499714Y-61304714D01*
X97499714Y-60542714D01*
X97862571Y-61304714D02*
X97862571Y-60542714D01*
X98044000Y-60542714D01*
X98152857Y-60579000D01*
X98225428Y-60651571D01*
X98261714Y-60724142D01*
X98298000Y-60869285D01*
X98298000Y-60978142D01*
X98261714Y-61123285D01*
X98225428Y-61195857D01*
X98152857Y-61268428D01*
X98044000Y-61304714D01*
X97862571Y-61304714D01*
D12*
X107901619Y-38281428D02*
X107877428Y-38305619D01*
X107804857Y-38329809D01*
X107756476Y-38329809D01*
X107683904Y-38305619D01*
X107635523Y-38257238D01*
X107611333Y-38208857D01*
X107587142Y-38112095D01*
X107587142Y-38039523D01*
X107611333Y-37942761D01*
X107635523Y-37894380D01*
X107683904Y-37846000D01*
X107756476Y-37821809D01*
X107804857Y-37821809D01*
X107877428Y-37846000D01*
X107901619Y-37870190D01*
X108119333Y-38329809D02*
X108119333Y-37821809D01*
X108119333Y-38063714D02*
X108409619Y-38063714D01*
X108409619Y-38329809D02*
X108409619Y-37821809D01*
X109328857Y-38281428D02*
X109304666Y-38305619D01*
X109232095Y-38329809D01*
X109183714Y-38329809D01*
X109111142Y-38305619D01*
X109062761Y-38257238D01*
X109038571Y-38208857D01*
X109014380Y-38112095D01*
X109014380Y-38039523D01*
X109038571Y-37942761D01*
X109062761Y-37894380D01*
X109111142Y-37846000D01*
X109183714Y-37821809D01*
X109232095Y-37821809D01*
X109304666Y-37846000D01*
X109328857Y-37870190D01*
X109546571Y-38329809D02*
X109546571Y-37821809D01*
X109836857Y-38329809D02*
X109619142Y-38039523D01*
X109836857Y-37821809D02*
X109546571Y-38112095D01*
D11*
X96792142Y-58764714D02*
X96356714Y-58764714D01*
X96574428Y-58764714D02*
X96574428Y-58002714D01*
X96501857Y-58111571D01*
X96429285Y-58184142D01*
X96356714Y-58220428D01*
X97082428Y-58075285D02*
X97118714Y-58039000D01*
X97191285Y-58002714D01*
X97372714Y-58002714D01*
X97445285Y-58039000D01*
X97481571Y-58075285D01*
X97517857Y-58147857D01*
X97517857Y-58220428D01*
X97481571Y-58329285D01*
X97046142Y-58764714D01*
X97517857Y-58764714D01*
X97844428Y-58474428D02*
X98425000Y-58474428D01*
X98134714Y-58764714D02*
X98134714Y-58184142D01*
X107913714Y-109347000D02*
X108276571Y-109347000D01*
X107841142Y-109564714D02*
X108095142Y-108802714D01*
X108349142Y-109564714D01*
X108566857Y-108875285D02*
X108603142Y-108839000D01*
X108675714Y-108802714D01*
X108857142Y-108802714D01*
X108929714Y-108839000D01*
X108966000Y-108875285D01*
X109002285Y-108947857D01*
X109002285Y-109020428D01*
X108966000Y-109129285D01*
X108530571Y-109564714D01*
X109002285Y-109564714D01*
X96538142Y-89244714D02*
X96538142Y-88482714D01*
X97336428Y-89244714D02*
X97082428Y-88881857D01*
X96901000Y-89244714D02*
X96901000Y-88482714D01*
X97191285Y-88482714D01*
X97263857Y-88519000D01*
X97300142Y-88555285D01*
X97336428Y-88627857D01*
X97336428Y-88736714D01*
X97300142Y-88809285D01*
X97263857Y-88845571D01*
X97191285Y-88881857D01*
X96901000Y-88881857D01*
X97590428Y-88482714D02*
X98098428Y-88482714D01*
X97771857Y-89244714D01*
X96465571Y-111342714D02*
X96610714Y-111342714D01*
X96683285Y-111379000D01*
X96755857Y-111451571D01*
X96792142Y-111596714D01*
X96792142Y-111850714D01*
X96755857Y-111995857D01*
X96683285Y-112068428D01*
X96610714Y-112104714D01*
X96465571Y-112104714D01*
X96393000Y-112068428D01*
X96320428Y-111995857D01*
X96284142Y-111850714D01*
X96284142Y-111596714D01*
X96320428Y-111451571D01*
X96393000Y-111379000D01*
X96465571Y-111342714D01*
X97082428Y-112068428D02*
X97191285Y-112104714D01*
X97372714Y-112104714D01*
X97445285Y-112068428D01*
X97481571Y-112032142D01*
X97517857Y-111959571D01*
X97517857Y-111887000D01*
X97481571Y-111814428D01*
X97445285Y-111778142D01*
X97372714Y-111741857D01*
X97227571Y-111705571D01*
X97155000Y-111669285D01*
X97118714Y-111633000D01*
X97082428Y-111560428D01*
X97082428Y-111487857D01*
X97118714Y-111415285D01*
X97155000Y-111379000D01*
X97227571Y-111342714D01*
X97409000Y-111342714D01*
X97517857Y-111379000D01*
X98279857Y-112032142D02*
X98243571Y-112068428D01*
X98134714Y-112104714D01*
X98062142Y-112104714D01*
X97953285Y-112068428D01*
X97880714Y-111995857D01*
X97844428Y-111923285D01*
X97808142Y-111778142D01*
X97808142Y-111669285D01*
X97844428Y-111524142D01*
X97880714Y-111451571D01*
X97953285Y-111379000D01*
X98062142Y-111342714D01*
X98134714Y-111342714D01*
X98243571Y-111379000D01*
X98279857Y-111415285D01*
X96538142Y-94324714D02*
X96538142Y-93562714D01*
X97336428Y-94324714D02*
X97082428Y-93961857D01*
X96901000Y-94324714D02*
X96901000Y-93562714D01*
X97191285Y-93562714D01*
X97263857Y-93599000D01*
X97300142Y-93635285D01*
X97336428Y-93707857D01*
X97336428Y-93816714D01*
X97300142Y-93889285D01*
X97263857Y-93925571D01*
X97191285Y-93961857D01*
X96901000Y-93961857D01*
X98025857Y-93562714D02*
X97663000Y-93562714D01*
X97626714Y-93925571D01*
X97663000Y-93889285D01*
X97735571Y-93853000D01*
X97917000Y-93853000D01*
X97989571Y-93889285D01*
X98025857Y-93925571D01*
X98062142Y-93998142D01*
X98062142Y-94179571D01*
X98025857Y-94252142D01*
X97989571Y-94288428D01*
X97917000Y-94324714D01*
X97735571Y-94324714D01*
X97663000Y-94288428D01*
X97626714Y-94252142D01*
X107913714Y-91567000D02*
X108276571Y-91567000D01*
X107841142Y-91784714D02*
X108095142Y-91022714D01*
X108349142Y-91784714D01*
X108639428Y-91784714D02*
X108784571Y-91784714D01*
X108857142Y-91748428D01*
X108893428Y-91712142D01*
X108966000Y-91603285D01*
X109002285Y-91458142D01*
X109002285Y-91167857D01*
X108966000Y-91095285D01*
X108929714Y-91059000D01*
X108857142Y-91022714D01*
X108712000Y-91022714D01*
X108639428Y-91059000D01*
X108603142Y-91095285D01*
X108566857Y-91167857D01*
X108566857Y-91349285D01*
X108603142Y-91421857D01*
X108639428Y-91458142D01*
X108712000Y-91494428D01*
X108857142Y-91494428D01*
X108929714Y-91458142D01*
X108966000Y-91421857D01*
X109002285Y-91349285D01*
X107804857Y-73787000D02*
X108167714Y-73787000D01*
X107732285Y-74004714D02*
X107986285Y-73242714D01*
X108240285Y-74004714D01*
X108893428Y-74004714D02*
X108458000Y-74004714D01*
X108675714Y-74004714D02*
X108675714Y-73242714D01*
X108603142Y-73351571D01*
X108530571Y-73424142D01*
X108458000Y-73460428D01*
X109546571Y-73242714D02*
X109401428Y-73242714D01*
X109328857Y-73279000D01*
X109292571Y-73315285D01*
X109220000Y-73424142D01*
X109183714Y-73569285D01*
X109183714Y-73859571D01*
X109220000Y-73932142D01*
X109256285Y-73968428D01*
X109328857Y-74004714D01*
X109474000Y-74004714D01*
X109546571Y-73968428D01*
X109582857Y-73932142D01*
X109619142Y-73859571D01*
X109619142Y-73678142D01*
X109582857Y-73605571D01*
X109546571Y-73569285D01*
X109474000Y-73533000D01*
X109328857Y-73533000D01*
X109256285Y-73569285D01*
X109220000Y-73605571D01*
X109183714Y-73678142D01*
X107804857Y-78867000D02*
X108167714Y-78867000D01*
X107732285Y-79084714D02*
X107986285Y-78322714D01*
X108240285Y-79084714D01*
X108893428Y-79084714D02*
X108458000Y-79084714D01*
X108675714Y-79084714D02*
X108675714Y-78322714D01*
X108603142Y-78431571D01*
X108530571Y-78504142D01*
X108458000Y-78540428D01*
X109546571Y-78576714D02*
X109546571Y-79084714D01*
X109365142Y-78286428D02*
X109183714Y-78830714D01*
X109655428Y-78830714D01*
X107913714Y-94107000D02*
X108276571Y-94107000D01*
X107841142Y-94324714D02*
X108095142Y-93562714D01*
X108349142Y-94324714D01*
X108712000Y-93889285D02*
X108639428Y-93853000D01*
X108603142Y-93816714D01*
X108566857Y-93744142D01*
X108566857Y-93707857D01*
X108603142Y-93635285D01*
X108639428Y-93599000D01*
X108712000Y-93562714D01*
X108857142Y-93562714D01*
X108929714Y-93599000D01*
X108966000Y-93635285D01*
X109002285Y-93707857D01*
X109002285Y-93744142D01*
X108966000Y-93816714D01*
X108929714Y-93853000D01*
X108857142Y-93889285D01*
X108712000Y-93889285D01*
X108639428Y-93925571D01*
X108603142Y-93961857D01*
X108566857Y-94034428D01*
X108566857Y-94179571D01*
X108603142Y-94252142D01*
X108639428Y-94288428D01*
X108712000Y-94324714D01*
X108857142Y-94324714D01*
X108929714Y-94288428D01*
X108966000Y-94252142D01*
X109002285Y-94179571D01*
X109002285Y-94034428D01*
X108966000Y-93961857D01*
X108929714Y-93925571D01*
X108857142Y-93889285D01*
X96447428Y-106807000D02*
X96810285Y-106807000D01*
X96374857Y-107024714D02*
X96628857Y-106262714D01*
X96882857Y-107024714D01*
X97499714Y-107024714D02*
X97136857Y-107024714D01*
X97136857Y-106262714D01*
X97753714Y-106625571D02*
X98007714Y-106625571D01*
X98116571Y-107024714D02*
X97753714Y-107024714D01*
X97753714Y-106262714D01*
X98116571Y-106262714D01*
X107804857Y-66167000D02*
X108167714Y-66167000D01*
X107732285Y-66384714D02*
X107986285Y-65622714D01*
X108240285Y-66384714D01*
X108893428Y-66384714D02*
X108458000Y-66384714D01*
X108675714Y-66384714D02*
X108675714Y-65622714D01*
X108603142Y-65731571D01*
X108530571Y-65804142D01*
X108458000Y-65840428D01*
X109256285Y-66384714D02*
X109401428Y-66384714D01*
X109474000Y-66348428D01*
X109510285Y-66312142D01*
X109582857Y-66203285D01*
X109619142Y-66058142D01*
X109619142Y-65767857D01*
X109582857Y-65695285D01*
X109546571Y-65659000D01*
X109474000Y-65622714D01*
X109328857Y-65622714D01*
X109256285Y-65659000D01*
X109220000Y-65695285D01*
X109183714Y-65767857D01*
X109183714Y-65949285D01*
X109220000Y-66021857D01*
X109256285Y-66058142D01*
X109328857Y-66094428D01*
X109474000Y-66094428D01*
X109546571Y-66058142D01*
X109582857Y-66021857D01*
X109619142Y-65949285D01*
X107804857Y-81407000D02*
X108167714Y-81407000D01*
X107732285Y-81624714D02*
X107986285Y-80862714D01*
X108240285Y-81624714D01*
X108893428Y-81624714D02*
X108458000Y-81624714D01*
X108675714Y-81624714D02*
X108675714Y-80862714D01*
X108603142Y-80971571D01*
X108530571Y-81044142D01*
X108458000Y-81080428D01*
X109147428Y-80862714D02*
X109619142Y-80862714D01*
X109365142Y-81153000D01*
X109474000Y-81153000D01*
X109546571Y-81189285D01*
X109582857Y-81225571D01*
X109619142Y-81298142D01*
X109619142Y-81479571D01*
X109582857Y-81552142D01*
X109546571Y-81588428D01*
X109474000Y-81624714D01*
X109256285Y-81624714D01*
X109183714Y-81588428D01*
X109147428Y-81552142D01*
X96538142Y-96864714D02*
X96538142Y-96102714D01*
X97336428Y-96864714D02*
X97082428Y-96501857D01*
X96901000Y-96864714D02*
X96901000Y-96102714D01*
X97191285Y-96102714D01*
X97263857Y-96139000D01*
X97300142Y-96175285D01*
X97336428Y-96247857D01*
X97336428Y-96356714D01*
X97300142Y-96429285D01*
X97263857Y-96465571D01*
X97191285Y-96501857D01*
X96901000Y-96501857D01*
X97989571Y-96356714D02*
X97989571Y-96864714D01*
X97808142Y-96066428D02*
X97626714Y-96610714D01*
X98098428Y-96610714D01*
X96266000Y-66384714D02*
X96266000Y-65622714D01*
X96520000Y-66167000D01*
X96774000Y-65622714D01*
X96774000Y-66384714D01*
X97572285Y-66384714D02*
X97318285Y-66021857D01*
X97136857Y-66384714D02*
X97136857Y-65622714D01*
X97427142Y-65622714D01*
X97499714Y-65659000D01*
X97536000Y-65695285D01*
X97572285Y-65767857D01*
X97572285Y-65876714D01*
X97536000Y-65949285D01*
X97499714Y-65985571D01*
X97427142Y-66021857D01*
X97136857Y-66021857D01*
X97898857Y-66384714D02*
X97898857Y-65622714D01*
X98080285Y-65622714D01*
X98189142Y-65659000D01*
X98261714Y-65731571D01*
X98298000Y-65804142D01*
X98334285Y-65949285D01*
X98334285Y-66058142D01*
X98298000Y-66203285D01*
X98261714Y-66275857D01*
X98189142Y-66348428D01*
X98080285Y-66384714D01*
X97898857Y-66384714D01*
X96284142Y-81624714D02*
X96284142Y-80862714D01*
X96465571Y-80862714D01*
X96574428Y-80899000D01*
X96647000Y-80971571D01*
X96683285Y-81044142D01*
X96719571Y-81189285D01*
X96719571Y-81298142D01*
X96683285Y-81443285D01*
X96647000Y-81515857D01*
X96574428Y-81588428D01*
X96465571Y-81624714D01*
X96284142Y-81624714D01*
X97046142Y-81624714D02*
X97046142Y-80862714D01*
X97300142Y-81407000D01*
X97554142Y-80862714D01*
X97554142Y-81624714D01*
X98316142Y-81624714D02*
X97880714Y-81624714D01*
X98098428Y-81624714D02*
X98098428Y-80862714D01*
X98025857Y-80971571D01*
X97953285Y-81044142D01*
X97880714Y-81080428D01*
X107913714Y-114427000D02*
X108276571Y-114427000D01*
X107841142Y-114644714D02*
X108095142Y-113882714D01*
X108349142Y-114644714D01*
X108748285Y-113882714D02*
X108820857Y-113882714D01*
X108893428Y-113919000D01*
X108929714Y-113955285D01*
X108966000Y-114027857D01*
X109002285Y-114173000D01*
X109002285Y-114354428D01*
X108966000Y-114499571D01*
X108929714Y-114572142D01*
X108893428Y-114608428D01*
X108820857Y-114644714D01*
X108748285Y-114644714D01*
X108675714Y-114608428D01*
X108639428Y-114572142D01*
X108603142Y-114499571D01*
X108566857Y-114354428D01*
X108566857Y-114173000D01*
X108603142Y-114027857D01*
X108639428Y-113955285D01*
X108675714Y-113919000D01*
X108748285Y-113882714D01*
X107895571Y-56224714D02*
X107895571Y-55462714D01*
X108077000Y-55462714D01*
X108185857Y-55499000D01*
X108258428Y-55571571D01*
X108294714Y-55644142D01*
X108331000Y-55789285D01*
X108331000Y-55898142D01*
X108294714Y-56043285D01*
X108258428Y-56115857D01*
X108185857Y-56188428D01*
X108077000Y-56224714D01*
X107895571Y-56224714D01*
X109056714Y-56224714D02*
X108621285Y-56224714D01*
X108839000Y-56224714D02*
X108839000Y-55462714D01*
X108766428Y-55571571D01*
X108693857Y-55644142D01*
X108621285Y-55680428D01*
X107913714Y-111887000D02*
X108276571Y-111887000D01*
X107841142Y-112104714D02*
X108095142Y-111342714D01*
X108349142Y-112104714D01*
X109002285Y-112104714D02*
X108566857Y-112104714D01*
X108784571Y-112104714D02*
X108784571Y-111342714D01*
X108712000Y-111451571D01*
X108639428Y-111524142D01*
X108566857Y-111560428D01*
X96683285Y-103722714D02*
X97118714Y-103722714D01*
X96901000Y-104484714D02*
X96901000Y-103722714D01*
X97808142Y-104412142D02*
X97771857Y-104448428D01*
X97663000Y-104484714D01*
X97590428Y-104484714D01*
X97481571Y-104448428D01*
X97409000Y-104375857D01*
X97372714Y-104303285D01*
X97336428Y-104158142D01*
X97336428Y-104049285D01*
X97372714Y-103904142D01*
X97409000Y-103831571D01*
X97481571Y-103759000D01*
X97590428Y-103722714D01*
X97663000Y-103722714D01*
X97771857Y-103759000D01*
X97808142Y-103795285D01*
X107895571Y-40984714D02*
X107895571Y-40222714D01*
X108077000Y-40222714D01*
X108185857Y-40259000D01*
X108258428Y-40331571D01*
X108294714Y-40404142D01*
X108331000Y-40549285D01*
X108331000Y-40658142D01*
X108294714Y-40803285D01*
X108258428Y-40875857D01*
X108185857Y-40948428D01*
X108077000Y-40984714D01*
X107895571Y-40984714D01*
X108585000Y-40222714D02*
X109093000Y-40222714D01*
X108766428Y-40984714D01*
X107913714Y-99187000D02*
X108276571Y-99187000D01*
X107841142Y-99404714D02*
X108095142Y-98642714D01*
X108349142Y-99404714D01*
X108929714Y-98642714D02*
X108784571Y-98642714D01*
X108712000Y-98679000D01*
X108675714Y-98715285D01*
X108603142Y-98824142D01*
X108566857Y-98969285D01*
X108566857Y-99259571D01*
X108603142Y-99332142D01*
X108639428Y-99368428D01*
X108712000Y-99404714D01*
X108857142Y-99404714D01*
X108929714Y-99368428D01*
X108966000Y-99332142D01*
X109002285Y-99259571D01*
X109002285Y-99078142D01*
X108966000Y-99005571D01*
X108929714Y-98969285D01*
X108857142Y-98933000D01*
X108712000Y-98933000D01*
X108639428Y-98969285D01*
X108603142Y-99005571D01*
X108566857Y-99078142D01*
X96501857Y-71464714D02*
X96501857Y-70702714D01*
X97009857Y-70702714D02*
X97155000Y-70702714D01*
X97227571Y-70739000D01*
X97300142Y-70811571D01*
X97336428Y-70956714D01*
X97336428Y-71210714D01*
X97300142Y-71355857D01*
X97227571Y-71428428D01*
X97155000Y-71464714D01*
X97009857Y-71464714D01*
X96937285Y-71428428D01*
X96864714Y-71355857D01*
X96828428Y-71210714D01*
X96828428Y-70956714D01*
X96864714Y-70811571D01*
X96937285Y-70739000D01*
X97009857Y-70702714D01*
X98098428Y-71464714D02*
X97844428Y-71101857D01*
X97663000Y-71464714D02*
X97663000Y-70702714D01*
X97953285Y-70702714D01*
X98025857Y-70739000D01*
X98062142Y-70775285D01*
X98098428Y-70847857D01*
X98098428Y-70956714D01*
X98062142Y-71029285D01*
X98025857Y-71065571D01*
X97953285Y-71101857D01*
X97663000Y-71101857D01*
X96338571Y-101944714D02*
X96338571Y-101182714D01*
X96520000Y-101182714D01*
X96628857Y-101219000D01*
X96701428Y-101291571D01*
X96737714Y-101364142D01*
X96774000Y-101509285D01*
X96774000Y-101618142D01*
X96737714Y-101763285D01*
X96701428Y-101835857D01*
X96628857Y-101908428D01*
X96520000Y-101944714D01*
X96338571Y-101944714D01*
X97100571Y-101944714D02*
X97100571Y-101182714D01*
X97536000Y-101944714D02*
X97209428Y-101509285D01*
X97536000Y-101182714D02*
X97100571Y-101618142D01*
X97826285Y-101255285D02*
X97862571Y-101219000D01*
X97935142Y-101182714D01*
X98116571Y-101182714D01*
X98189142Y-101219000D01*
X98225428Y-101255285D01*
X98261714Y-101327857D01*
X98261714Y-101400428D01*
X98225428Y-101509285D01*
X97790000Y-101944714D01*
X98261714Y-101944714D01*
X107913714Y-104267000D02*
X108276571Y-104267000D01*
X107841142Y-104484714D02*
X108095142Y-103722714D01*
X108349142Y-104484714D01*
X108929714Y-103976714D02*
X108929714Y-104484714D01*
X108748285Y-103686428D02*
X108566857Y-104230714D01*
X109038571Y-104230714D01*
X107895571Y-43524714D02*
X107895571Y-42762714D01*
X108077000Y-42762714D01*
X108185857Y-42799000D01*
X108258428Y-42871571D01*
X108294714Y-42944142D01*
X108331000Y-43089285D01*
X108331000Y-43198142D01*
X108294714Y-43343285D01*
X108258428Y-43415857D01*
X108185857Y-43488428D01*
X108077000Y-43524714D01*
X107895571Y-43524714D01*
X108984142Y-42762714D02*
X108839000Y-42762714D01*
X108766428Y-42799000D01*
X108730142Y-42835285D01*
X108657571Y-42944142D01*
X108621285Y-43089285D01*
X108621285Y-43379571D01*
X108657571Y-43452142D01*
X108693857Y-43488428D01*
X108766428Y-43524714D01*
X108911571Y-43524714D01*
X108984142Y-43488428D01*
X109020428Y-43452142D01*
X109056714Y-43379571D01*
X109056714Y-43198142D01*
X109020428Y-43125571D01*
X108984142Y-43089285D01*
X108911571Y-43053000D01*
X108766428Y-43053000D01*
X108693857Y-43089285D01*
X108657571Y-43125571D01*
X108621285Y-43198142D01*
X107895571Y-46064714D02*
X107895571Y-45302714D01*
X108077000Y-45302714D01*
X108185857Y-45339000D01*
X108258428Y-45411571D01*
X108294714Y-45484142D01*
X108331000Y-45629285D01*
X108331000Y-45738142D01*
X108294714Y-45883285D01*
X108258428Y-45955857D01*
X108185857Y-46028428D01*
X108077000Y-46064714D01*
X107895571Y-46064714D01*
X109020428Y-45302714D02*
X108657571Y-45302714D01*
X108621285Y-45665571D01*
X108657571Y-45629285D01*
X108730142Y-45593000D01*
X108911571Y-45593000D01*
X108984142Y-45629285D01*
X109020428Y-45665571D01*
X109056714Y-45738142D01*
X109056714Y-45919571D01*
X109020428Y-45992142D01*
X108984142Y-46028428D01*
X108911571Y-46064714D01*
X108730142Y-46064714D01*
X108657571Y-46028428D01*
X108621285Y-45992142D01*
X107804857Y-71247000D02*
X108167714Y-71247000D01*
X107732285Y-71464714D02*
X107986285Y-70702714D01*
X108240285Y-71464714D01*
X108893428Y-71464714D02*
X108458000Y-71464714D01*
X108675714Y-71464714D02*
X108675714Y-70702714D01*
X108603142Y-70811571D01*
X108530571Y-70884142D01*
X108458000Y-70920428D01*
X109147428Y-70702714D02*
X109655428Y-70702714D01*
X109328857Y-71464714D01*
X107895571Y-53684714D02*
X107895571Y-52922714D01*
X108077000Y-52922714D01*
X108185857Y-52959000D01*
X108258428Y-53031571D01*
X108294714Y-53104142D01*
X108331000Y-53249285D01*
X108331000Y-53358142D01*
X108294714Y-53503285D01*
X108258428Y-53575857D01*
X108185857Y-53648428D01*
X108077000Y-53684714D01*
X107895571Y-53684714D01*
X108621285Y-52995285D02*
X108657571Y-52959000D01*
X108730142Y-52922714D01*
X108911571Y-52922714D01*
X108984142Y-52959000D01*
X109020428Y-52995285D01*
X109056714Y-53067857D01*
X109056714Y-53140428D01*
X109020428Y-53249285D01*
X108585000Y-53684714D01*
X109056714Y-53684714D01*
X96338571Y-74004714D02*
X96338571Y-73242714D01*
X96520000Y-73242714D01*
X96628857Y-73279000D01*
X96701428Y-73351571D01*
X96737714Y-73424142D01*
X96774000Y-73569285D01*
X96774000Y-73678142D01*
X96737714Y-73823285D01*
X96701428Y-73895857D01*
X96628857Y-73968428D01*
X96520000Y-74004714D01*
X96338571Y-74004714D01*
X97100571Y-74004714D02*
X97100571Y-73242714D01*
X97536000Y-74004714D02*
X97209428Y-73569285D01*
X97536000Y-73242714D02*
X97100571Y-73678142D01*
X97790000Y-73242714D02*
X98261714Y-73242714D01*
X98007714Y-73533000D01*
X98116571Y-73533000D01*
X98189142Y-73569285D01*
X98225428Y-73605571D01*
X98261714Y-73678142D01*
X98261714Y-73859571D01*
X98225428Y-73932142D01*
X98189142Y-73968428D01*
X98116571Y-74004714D01*
X97898857Y-74004714D01*
X97826285Y-73968428D01*
X97790000Y-73932142D01*
X96538142Y-99404714D02*
X96538142Y-98642714D01*
X97336428Y-99404714D02*
X97082428Y-99041857D01*
X96901000Y-99404714D02*
X96901000Y-98642714D01*
X97191285Y-98642714D01*
X97263857Y-98679000D01*
X97300142Y-98715285D01*
X97336428Y-98787857D01*
X97336428Y-98896714D01*
X97300142Y-98969285D01*
X97263857Y-99005571D01*
X97191285Y-99041857D01*
X96901000Y-99041857D01*
X97590428Y-98642714D02*
X98062142Y-98642714D01*
X97808142Y-98933000D01*
X97917000Y-98933000D01*
X97989571Y-98969285D01*
X98025857Y-99005571D01*
X98062142Y-99078142D01*
X98062142Y-99259571D01*
X98025857Y-99332142D01*
X97989571Y-99368428D01*
X97917000Y-99404714D01*
X97699285Y-99404714D01*
X97626714Y-99368428D01*
X97590428Y-99332142D01*
X107913714Y-101727000D02*
X108276571Y-101727000D01*
X107841142Y-101944714D02*
X108095142Y-101182714D01*
X108349142Y-101944714D01*
X108966000Y-101182714D02*
X108603142Y-101182714D01*
X108566857Y-101545571D01*
X108603142Y-101509285D01*
X108675714Y-101473000D01*
X108857142Y-101473000D01*
X108929714Y-101509285D01*
X108966000Y-101545571D01*
X109002285Y-101618142D01*
X109002285Y-101799571D01*
X108966000Y-101872142D01*
X108929714Y-101908428D01*
X108857142Y-101944714D01*
X108675714Y-101944714D01*
X108603142Y-101908428D01*
X108566857Y-101872142D01*
X96538142Y-91784714D02*
X96538142Y-91022714D01*
X97336428Y-91784714D02*
X97082428Y-91421857D01*
X96901000Y-91784714D02*
X96901000Y-91022714D01*
X97191285Y-91022714D01*
X97263857Y-91059000D01*
X97300142Y-91095285D01*
X97336428Y-91167857D01*
X97336428Y-91276714D01*
X97300142Y-91349285D01*
X97263857Y-91385571D01*
X97191285Y-91421857D01*
X96901000Y-91421857D01*
X97989571Y-91022714D02*
X97844428Y-91022714D01*
X97771857Y-91059000D01*
X97735571Y-91095285D01*
X97663000Y-91204142D01*
X97626714Y-91349285D01*
X97626714Y-91639571D01*
X97663000Y-91712142D01*
X97699285Y-91748428D01*
X97771857Y-91784714D01*
X97917000Y-91784714D01*
X97989571Y-91748428D01*
X98025857Y-91712142D01*
X98062142Y-91639571D01*
X98062142Y-91458142D01*
X98025857Y-91385571D01*
X97989571Y-91349285D01*
X97917000Y-91313000D01*
X97771857Y-91313000D01*
X97699285Y-91349285D01*
X97663000Y-91385571D01*
X97626714Y-91458142D01*
X96447428Y-68924714D02*
X96447428Y-68162714D01*
X96955428Y-68162714D02*
X97100571Y-68162714D01*
X97173142Y-68199000D01*
X97245714Y-68271571D01*
X97282000Y-68416714D01*
X97282000Y-68670714D01*
X97245714Y-68815857D01*
X97173142Y-68888428D01*
X97100571Y-68924714D01*
X96955428Y-68924714D01*
X96882857Y-68888428D01*
X96810285Y-68815857D01*
X96774000Y-68670714D01*
X96774000Y-68416714D01*
X96810285Y-68271571D01*
X96882857Y-68199000D01*
X96955428Y-68162714D01*
X97536000Y-68162714D02*
X97717428Y-68924714D01*
X97862571Y-68380428D01*
X98007714Y-68924714D01*
X98189142Y-68162714D01*
D12*
X96653047Y-83630709D02*
X96653047Y-83122709D01*
X96774000Y-83122709D01*
X96846571Y-83146900D01*
X96894952Y-83195280D01*
X96919142Y-83243661D01*
X96943333Y-83340423D01*
X96943333Y-83412995D01*
X96919142Y-83509757D01*
X96894952Y-83558138D01*
X96846571Y-83606519D01*
X96774000Y-83630709D01*
X96653047Y-83630709D01*
X97161047Y-83630709D02*
X97161047Y-83122709D01*
X97451333Y-83630709D02*
X97233619Y-83340423D01*
X97451333Y-83122709D02*
X97161047Y-83412995D01*
X97765809Y-83122709D02*
X97814190Y-83122709D01*
X97862571Y-83146900D01*
X97886761Y-83171090D01*
X97910952Y-83219471D01*
X97935142Y-83316233D01*
X97935142Y-83437185D01*
X97910952Y-83533947D01*
X97886761Y-83582328D01*
X97862571Y-83606519D01*
X97814190Y-83630709D01*
X97765809Y-83630709D01*
X97717428Y-83606519D01*
X97693238Y-83582328D01*
X97669047Y-83533947D01*
X97644857Y-83437185D01*
X97644857Y-83316233D01*
X97669047Y-83219471D01*
X97693238Y-83171090D01*
X97717428Y-83146900D01*
X97765809Y-83122709D01*
X96955428Y-84468909D02*
X96786095Y-84227004D01*
X96665142Y-84468909D02*
X96665142Y-83960909D01*
X96858666Y-83960909D01*
X96907047Y-83985100D01*
X96931238Y-84009290D01*
X96955428Y-84057671D01*
X96955428Y-84130242D01*
X96931238Y-84178623D01*
X96907047Y-84202814D01*
X96858666Y-84227004D01*
X96665142Y-84227004D01*
X97342476Y-84202814D02*
X97173142Y-84202814D01*
X97173142Y-84468909D02*
X97173142Y-83960909D01*
X97415047Y-83960909D01*
X97608571Y-84468909D02*
X97608571Y-83960909D01*
X97608571Y-84202814D02*
X97898857Y-84202814D01*
X97898857Y-84468909D02*
X97898857Y-83960909D01*
D11*
X107804857Y-83947000D02*
X108167714Y-83947000D01*
X107732285Y-84164714D02*
X107986285Y-83402714D01*
X108240285Y-84164714D01*
X108893428Y-84164714D02*
X108458000Y-84164714D01*
X108675714Y-84164714D02*
X108675714Y-83402714D01*
X108603142Y-83511571D01*
X108530571Y-83584142D01*
X108458000Y-83620428D01*
X109183714Y-83475285D02*
X109220000Y-83439000D01*
X109292571Y-83402714D01*
X109474000Y-83402714D01*
X109546571Y-83439000D01*
X109582857Y-83475285D01*
X109619142Y-83547857D01*
X109619142Y-83620428D01*
X109582857Y-83729285D01*
X109147428Y-84164714D01*
X109619142Y-84164714D01*
X96828428Y-86632142D02*
X96792142Y-86668428D01*
X96683285Y-86704714D01*
X96610714Y-86704714D01*
X96501857Y-86668428D01*
X96429285Y-86595857D01*
X96393000Y-86523285D01*
X96356714Y-86378142D01*
X96356714Y-86269285D01*
X96393000Y-86124142D01*
X96429285Y-86051571D01*
X96501857Y-85979000D01*
X96610714Y-85942714D01*
X96683285Y-85942714D01*
X96792142Y-85979000D01*
X96828428Y-86015285D01*
X97517857Y-86704714D02*
X97155000Y-86704714D01*
X97155000Y-85942714D01*
X97771857Y-86704714D02*
X97771857Y-85942714D01*
X98207285Y-86704714D02*
X97880714Y-86269285D01*
X98207285Y-85942714D02*
X97771857Y-86378142D01*
X107786714Y-63627000D02*
X108149571Y-63627000D01*
X107714142Y-63844714D02*
X107968142Y-63082714D01*
X108222142Y-63844714D01*
X108476142Y-63445571D02*
X108730142Y-63445571D01*
X108839000Y-63844714D02*
X108476142Y-63844714D01*
X108476142Y-63082714D01*
X108839000Y-63082714D01*
X109165571Y-63844714D02*
X109165571Y-63082714D01*
X109601000Y-63844714D01*
X109601000Y-63082714D01*
X96284142Y-76544714D02*
X96284142Y-75782714D01*
X96465571Y-75782714D01*
X96574428Y-75819000D01*
X96647000Y-75891571D01*
X96683285Y-75964142D01*
X96719571Y-76109285D01*
X96719571Y-76218142D01*
X96683285Y-76363285D01*
X96647000Y-76435857D01*
X96574428Y-76508428D01*
X96465571Y-76544714D01*
X96284142Y-76544714D01*
X97046142Y-76544714D02*
X97046142Y-75782714D01*
X97300142Y-76327000D01*
X97554142Y-75782714D01*
X97554142Y-76544714D01*
X97844428Y-75782714D02*
X98316142Y-75782714D01*
X98062142Y-76073000D01*
X98171000Y-76073000D01*
X98243571Y-76109285D01*
X98279857Y-76145571D01*
X98316142Y-76218142D01*
X98316142Y-76399571D01*
X98279857Y-76472142D01*
X98243571Y-76508428D01*
X98171000Y-76544714D01*
X97953285Y-76544714D01*
X97880714Y-76508428D01*
X97844428Y-76472142D01*
X96701428Y-113919000D02*
X96628857Y-113882714D01*
X96520000Y-113882714D01*
X96411142Y-113919000D01*
X96338571Y-113991571D01*
X96302285Y-114064142D01*
X96266000Y-114209285D01*
X96266000Y-114318142D01*
X96302285Y-114463285D01*
X96338571Y-114535857D01*
X96411142Y-114608428D01*
X96520000Y-114644714D01*
X96592571Y-114644714D01*
X96701428Y-114608428D01*
X96737714Y-114572142D01*
X96737714Y-114318142D01*
X96592571Y-114318142D01*
X97064285Y-114644714D02*
X97064285Y-113882714D01*
X97499714Y-114644714D01*
X97499714Y-113882714D01*
X97862571Y-114644714D02*
X97862571Y-113882714D01*
X98044000Y-113882714D01*
X98152857Y-113919000D01*
X98225428Y-113991571D01*
X98261714Y-114064142D01*
X98298000Y-114209285D01*
X98298000Y-114318142D01*
X98261714Y-114463285D01*
X98225428Y-114535857D01*
X98152857Y-114608428D01*
X98044000Y-114644714D01*
X97862571Y-114644714D01*
X107804857Y-86487000D02*
X108167714Y-86487000D01*
X107732285Y-86704714D02*
X107986285Y-85942714D01*
X108240285Y-86704714D01*
X108893428Y-86704714D02*
X108458000Y-86704714D01*
X108675714Y-86704714D02*
X108675714Y-85942714D01*
X108603142Y-86051571D01*
X108530571Y-86124142D01*
X108458000Y-86160428D01*
X109619142Y-86704714D02*
X109183714Y-86704714D01*
X109401428Y-86704714D02*
X109401428Y-85942714D01*
X109328857Y-86051571D01*
X109256285Y-86124142D01*
X109183714Y-86160428D01*
X107895571Y-48604714D02*
X107895571Y-47842714D01*
X108077000Y-47842714D01*
X108185857Y-47879000D01*
X108258428Y-47951571D01*
X108294714Y-48024142D01*
X108331000Y-48169285D01*
X108331000Y-48278142D01*
X108294714Y-48423285D01*
X108258428Y-48495857D01*
X108185857Y-48568428D01*
X108077000Y-48604714D01*
X107895571Y-48604714D01*
X108984142Y-48096714D02*
X108984142Y-48604714D01*
X108802714Y-47806428D02*
X108621285Y-48350714D01*
X109093000Y-48350714D01*
X107895571Y-51144714D02*
X107895571Y-50382714D01*
X108077000Y-50382714D01*
X108185857Y-50419000D01*
X108258428Y-50491571D01*
X108294714Y-50564142D01*
X108331000Y-50709285D01*
X108331000Y-50818142D01*
X108294714Y-50963285D01*
X108258428Y-51035857D01*
X108185857Y-51108428D01*
X108077000Y-51144714D01*
X107895571Y-51144714D01*
X108585000Y-50382714D02*
X109056714Y-50382714D01*
X108802714Y-50673000D01*
X108911571Y-50673000D01*
X108984142Y-50709285D01*
X109020428Y-50745571D01*
X109056714Y-50818142D01*
X109056714Y-50999571D01*
X109020428Y-51072142D01*
X108984142Y-51108428D01*
X108911571Y-51144714D01*
X108693857Y-51144714D01*
X108621285Y-51108428D01*
X108585000Y-51072142D01*
X107895571Y-58764714D02*
X107895571Y-58002714D01*
X108077000Y-58002714D01*
X108185857Y-58039000D01*
X108258428Y-58111571D01*
X108294714Y-58184142D01*
X108331000Y-58329285D01*
X108331000Y-58438142D01*
X108294714Y-58583285D01*
X108258428Y-58655857D01*
X108185857Y-58728428D01*
X108077000Y-58764714D01*
X107895571Y-58764714D01*
X108802714Y-58002714D02*
X108875285Y-58002714D01*
X108947857Y-58039000D01*
X108984142Y-58075285D01*
X109020428Y-58147857D01*
X109056714Y-58293000D01*
X109056714Y-58474428D01*
X109020428Y-58619571D01*
X108984142Y-58692142D01*
X108947857Y-58728428D01*
X108875285Y-58764714D01*
X108802714Y-58764714D01*
X108730142Y-58728428D01*
X108693857Y-58692142D01*
X108657571Y-58619571D01*
X108621285Y-58474428D01*
X108621285Y-58293000D01*
X108657571Y-58147857D01*
X108693857Y-58075285D01*
X108730142Y-58039000D01*
X108802714Y-58002714D01*
X108113285Y-61304714D02*
X107859285Y-60941857D01*
X107677857Y-61304714D02*
X107677857Y-60542714D01*
X107968142Y-60542714D01*
X108040714Y-60579000D01*
X108077000Y-60615285D01*
X108113285Y-60687857D01*
X108113285Y-60796714D01*
X108077000Y-60869285D01*
X108040714Y-60905571D01*
X107968142Y-60941857D01*
X107677857Y-60941857D01*
X108439857Y-61304714D02*
X108439857Y-60542714D01*
X108621285Y-60542714D01*
X108730142Y-60579000D01*
X108802714Y-60651571D01*
X108839000Y-60724142D01*
X108875285Y-60869285D01*
X108875285Y-60978142D01*
X108839000Y-61123285D01*
X108802714Y-61195857D01*
X108730142Y-61268428D01*
X108621285Y-61304714D01*
X108439857Y-61304714D01*
X109347000Y-60941857D02*
X109347000Y-61304714D01*
X109093000Y-60542714D02*
X109347000Y-60941857D01*
X109601000Y-60542714D01*
X107804857Y-68707000D02*
X108167714Y-68707000D01*
X107732285Y-68924714D02*
X107986285Y-68162714D01*
X108240285Y-68924714D01*
X108893428Y-68924714D02*
X108458000Y-68924714D01*
X108675714Y-68924714D02*
X108675714Y-68162714D01*
X108603142Y-68271571D01*
X108530571Y-68344142D01*
X108458000Y-68380428D01*
X109328857Y-68489285D02*
X109256285Y-68453000D01*
X109220000Y-68416714D01*
X109183714Y-68344142D01*
X109183714Y-68307857D01*
X109220000Y-68235285D01*
X109256285Y-68199000D01*
X109328857Y-68162714D01*
X109474000Y-68162714D01*
X109546571Y-68199000D01*
X109582857Y-68235285D01*
X109619142Y-68307857D01*
X109619142Y-68344142D01*
X109582857Y-68416714D01*
X109546571Y-68453000D01*
X109474000Y-68489285D01*
X109328857Y-68489285D01*
X109256285Y-68525571D01*
X109220000Y-68561857D01*
X109183714Y-68634428D01*
X109183714Y-68779571D01*
X109220000Y-68852142D01*
X109256285Y-68888428D01*
X109328857Y-68924714D01*
X109474000Y-68924714D01*
X109546571Y-68888428D01*
X109582857Y-68852142D01*
X109619142Y-68779571D01*
X109619142Y-68634428D01*
X109582857Y-68561857D01*
X109546571Y-68525571D01*
X109474000Y-68489285D01*
X107804857Y-76327000D02*
X108167714Y-76327000D01*
X107732285Y-76544714D02*
X107986285Y-75782714D01*
X108240285Y-76544714D01*
X108893428Y-76544714D02*
X108458000Y-76544714D01*
X108675714Y-76544714D02*
X108675714Y-75782714D01*
X108603142Y-75891571D01*
X108530571Y-75964142D01*
X108458000Y-76000428D01*
X109582857Y-75782714D02*
X109220000Y-75782714D01*
X109183714Y-76145571D01*
X109220000Y-76109285D01*
X109292571Y-76073000D01*
X109474000Y-76073000D01*
X109546571Y-76109285D01*
X109582857Y-76145571D01*
X109619142Y-76218142D01*
X109619142Y-76399571D01*
X109582857Y-76472142D01*
X109546571Y-76508428D01*
X109474000Y-76544714D01*
X109292571Y-76544714D01*
X109220000Y-76508428D01*
X109183714Y-76472142D01*
X107913714Y-96647000D02*
X108276571Y-96647000D01*
X107841142Y-96864714D02*
X108095142Y-96102714D01*
X108349142Y-96864714D01*
X108530571Y-96102714D02*
X109038571Y-96102714D01*
X108712000Y-96864714D01*
X96991714Y-108802714D02*
X96628857Y-108802714D01*
X96592571Y-109165571D01*
X96628857Y-109129285D01*
X96701428Y-109093000D01*
X96882857Y-109093000D01*
X96955428Y-109129285D01*
X96991714Y-109165571D01*
X97028000Y-109238142D01*
X97028000Y-109419571D01*
X96991714Y-109492142D01*
X96955428Y-109528428D01*
X96882857Y-109564714D01*
X96701428Y-109564714D01*
X96628857Y-109528428D01*
X96592571Y-109492142D01*
X97354571Y-109274428D02*
X97935142Y-109274428D01*
X97644857Y-109564714D02*
X97644857Y-108984142D01*
X96211571Y-63844714D02*
X96211571Y-63082714D01*
X96465571Y-63627000D01*
X96719571Y-63082714D01*
X96719571Y-63844714D01*
X97009857Y-63082714D02*
X97191285Y-63844714D01*
X97336428Y-63300428D01*
X97481571Y-63844714D01*
X97663000Y-63082714D01*
X98388714Y-63844714D02*
X98134714Y-63481857D01*
X97953285Y-63844714D02*
X97953285Y-63082714D01*
X98243571Y-63082714D01*
X98316142Y-63119000D01*
X98352428Y-63155285D01*
X98388714Y-63227857D01*
X98388714Y-63336714D01*
X98352428Y-63409285D01*
X98316142Y-63445571D01*
X98243571Y-63481857D01*
X97953285Y-63481857D01*
X107804857Y-89027000D02*
X108167714Y-89027000D01*
X107732285Y-89244714D02*
X107986285Y-88482714D01*
X108240285Y-89244714D01*
X108893428Y-89244714D02*
X108458000Y-89244714D01*
X108675714Y-89244714D02*
X108675714Y-88482714D01*
X108603142Y-88591571D01*
X108530571Y-88664142D01*
X108458000Y-88700428D01*
X109365142Y-88482714D02*
X109437714Y-88482714D01*
X109510285Y-88519000D01*
X109546571Y-88555285D01*
X109582857Y-88627857D01*
X109619142Y-88773000D01*
X109619142Y-88954428D01*
X109582857Y-89099571D01*
X109546571Y-89172142D01*
X109510285Y-89208428D01*
X109437714Y-89244714D01*
X109365142Y-89244714D01*
X109292571Y-89208428D01*
X109256285Y-89172142D01*
X109220000Y-89099571D01*
X109183714Y-88954428D01*
X109183714Y-88773000D01*
X109220000Y-88627857D01*
X109256285Y-88555285D01*
X109292571Y-88519000D01*
X109365142Y-88482714D01*
X96338571Y-79084714D02*
X96338571Y-78322714D01*
X96520000Y-78322714D01*
X96628857Y-78359000D01*
X96701428Y-78431571D01*
X96737714Y-78504142D01*
X96774000Y-78649285D01*
X96774000Y-78758142D01*
X96737714Y-78903285D01*
X96701428Y-78975857D01*
X96628857Y-79048428D01*
X96520000Y-79084714D01*
X96338571Y-79084714D01*
X97100571Y-79084714D02*
X97100571Y-78322714D01*
X97536000Y-79084714D02*
X97209428Y-78649285D01*
X97536000Y-78322714D02*
X97100571Y-78758142D01*
X98261714Y-79084714D02*
X97826285Y-79084714D01*
X98044000Y-79084714D02*
X98044000Y-78322714D01*
X97971428Y-78431571D01*
X97898857Y-78504142D01*
X97826285Y-78540428D01*
X107913714Y-106807000D02*
X108276571Y-106807000D01*
X107841142Y-107024714D02*
X108095142Y-106262714D01*
X108349142Y-107024714D01*
X108530571Y-106262714D02*
X109002285Y-106262714D01*
X108748285Y-106553000D01*
X108857142Y-106553000D01*
X108929714Y-106589285D01*
X108966000Y-106625571D01*
X109002285Y-106698142D01*
X109002285Y-106879571D01*
X108966000Y-106952142D01*
X108929714Y-106988428D01*
X108857142Y-107024714D01*
X108639428Y-107024714D01*
X108566857Y-106988428D01*
X108530571Y-106952142D01*
D13*
G04 #@! TO.C,SW1*
X101346000Y-33194000D02*
X101346000Y-24558000D01*
X92710000Y-33194000D02*
X92710000Y-24558000D01*
X101346000Y-33194000D02*
X92710000Y-33194000D01*
X92710000Y-24558000D02*
X101346000Y-24558000D01*
G04 #@! TO.C,RN2*
X97282000Y-145412000D02*
X97282000Y-148212000D01*
X105072000Y-145412000D02*
X94572000Y-145412000D01*
X105072000Y-148212000D02*
X105072000Y-145412000D01*
X94572000Y-148212000D02*
X105072000Y-148212000D01*
X94572000Y-145412000D02*
X94572000Y-148212000D01*
G04 #@! TO.C,RN1*
X113160000Y-15748000D02*
X110360000Y-15748000D01*
X113160000Y-36238000D02*
X113160000Y-13038000D01*
X110360000Y-36238000D02*
X113160000Y-36238000D01*
X110360000Y-13038000D02*
X110360000Y-36238000D01*
X113160000Y-13038000D02*
X110360000Y-13038000D01*
G04 #@! TO.C,J9*
X99060000Y-115570000D02*
X106680000Y-115570000D01*
X106680000Y-115570000D02*
X106680000Y-36830000D01*
X106680000Y-36830000D02*
X99060000Y-36830000D01*
X99060000Y-36830000D02*
X99060000Y-115570000D01*
G04 #@! TO.C,J2*
X98946000Y-13112000D02*
X98046000Y-13112000D01*
X98946000Y-22302000D02*
X98046000Y-22302000D01*
X95346000Y-13112000D02*
X92616000Y-13112000D01*
X95346000Y-22302000D02*
X92616000Y-22302000D01*
X102026000Y-13232000D02*
X102026000Y-22182000D01*
X92616000Y-13112000D02*
X92616000Y-22302000D01*
G04 #@! TO.C,J1*
X106680000Y-143510000D02*
X106680000Y-123190000D01*
X99060000Y-143510000D02*
X99060000Y-123190000D01*
X106680000Y-123190000D02*
X99060000Y-123190000D01*
X99060000Y-143510000D02*
X106680000Y-143510000D01*
G04 #@! TO.C,C1*
X106376199Y-145417000D02*
X106376199Y-145817000D01*
X106176199Y-145617000D02*
X106576199Y-145617000D01*
X110527000Y-146442000D02*
X110527000Y-147182000D01*
X110487000Y-146275000D02*
X110487000Y-147349000D01*
X110447000Y-146148000D02*
X110447000Y-147476000D01*
X110407000Y-146044000D02*
X110407000Y-147580000D01*
X110367000Y-145953000D02*
X110367000Y-147671000D01*
X110327000Y-145872000D02*
X110327000Y-147752000D01*
X110287000Y-145799000D02*
X110287000Y-147825000D01*
X110247000Y-145732000D02*
X110247000Y-147892000D01*
X110207000Y-145670000D02*
X110207000Y-147954000D01*
X110167000Y-145612000D02*
X110167000Y-148012000D01*
X110127000Y-145558000D02*
X110127000Y-148066000D01*
X110087000Y-145508000D02*
X110087000Y-148116000D01*
X110047000Y-145461000D02*
X110047000Y-148163000D01*
X110007000Y-147652000D02*
X110007000Y-148208000D01*
X110007000Y-145416000D02*
X110007000Y-145972000D01*
X109967000Y-147652000D02*
X109967000Y-148250000D01*
X109967000Y-145374000D02*
X109967000Y-145972000D01*
X109927000Y-147652000D02*
X109927000Y-148290000D01*
X109927000Y-145334000D02*
X109927000Y-145972000D01*
X109887000Y-147652000D02*
X109887000Y-148328000D01*
X109887000Y-145296000D02*
X109887000Y-145972000D01*
X109847000Y-147652000D02*
X109847000Y-148364000D01*
X109847000Y-145260000D02*
X109847000Y-145972000D01*
X109807000Y-147652000D02*
X109807000Y-148399000D01*
X109807000Y-145225000D02*
X109807000Y-145972000D01*
X109767000Y-147652000D02*
X109767000Y-148431000D01*
X109767000Y-145193000D02*
X109767000Y-145972000D01*
X109727000Y-147652000D02*
X109727000Y-148462000D01*
X109727000Y-145162000D02*
X109727000Y-145972000D01*
X109687000Y-147652000D02*
X109687000Y-148492000D01*
X109687000Y-145132000D02*
X109687000Y-145972000D01*
X109647000Y-147652000D02*
X109647000Y-148520000D01*
X109647000Y-145104000D02*
X109647000Y-145972000D01*
X109607000Y-147652000D02*
X109607000Y-148547000D01*
X109607000Y-145077000D02*
X109607000Y-145972000D01*
X109567000Y-147652000D02*
X109567000Y-148572000D01*
X109567000Y-145052000D02*
X109567000Y-145972000D01*
X109527000Y-147652000D02*
X109527000Y-148597000D01*
X109527000Y-145027000D02*
X109527000Y-145972000D01*
X109487000Y-147652000D02*
X109487000Y-148620000D01*
X109487000Y-145004000D02*
X109487000Y-145972000D01*
X109447000Y-147652000D02*
X109447000Y-148642000D01*
X109447000Y-144982000D02*
X109447000Y-145972000D01*
X109407000Y-147652000D02*
X109407000Y-148663000D01*
X109407000Y-144961000D02*
X109407000Y-145972000D01*
X109367000Y-147652000D02*
X109367000Y-148682000D01*
X109367000Y-144942000D02*
X109367000Y-145972000D01*
X109327000Y-147652000D02*
X109327000Y-148701000D01*
X109327000Y-144923000D02*
X109327000Y-145972000D01*
X109287000Y-147652000D02*
X109287000Y-148719000D01*
X109287000Y-144905000D02*
X109287000Y-145972000D01*
X109247000Y-147652000D02*
X109247000Y-148736000D01*
X109247000Y-144888000D02*
X109247000Y-145972000D01*
X109207000Y-147652000D02*
X109207000Y-148752000D01*
X109207000Y-144872000D02*
X109207000Y-145972000D01*
X109167000Y-147652000D02*
X109167000Y-148766000D01*
X109167000Y-144858000D02*
X109167000Y-145972000D01*
X109126000Y-147652000D02*
X109126000Y-148780000D01*
X109126000Y-144844000D02*
X109126000Y-145972000D01*
X109086000Y-147652000D02*
X109086000Y-148794000D01*
X109086000Y-144830000D02*
X109086000Y-145972000D01*
X109046000Y-147652000D02*
X109046000Y-148806000D01*
X109046000Y-144818000D02*
X109046000Y-145972000D01*
X109006000Y-147652000D02*
X109006000Y-148817000D01*
X109006000Y-144807000D02*
X109006000Y-145972000D01*
X108966000Y-147652000D02*
X108966000Y-148828000D01*
X108966000Y-144796000D02*
X108966000Y-145972000D01*
X108926000Y-147652000D02*
X108926000Y-148837000D01*
X108926000Y-144787000D02*
X108926000Y-145972000D01*
X108886000Y-147652000D02*
X108886000Y-148846000D01*
X108886000Y-144778000D02*
X108886000Y-145972000D01*
X108846000Y-147652000D02*
X108846000Y-148854000D01*
X108846000Y-144770000D02*
X108846000Y-145972000D01*
X108806000Y-147652000D02*
X108806000Y-148862000D01*
X108806000Y-144762000D02*
X108806000Y-145972000D01*
X108766000Y-147652000D02*
X108766000Y-148868000D01*
X108766000Y-144756000D02*
X108766000Y-145972000D01*
X108726000Y-147652000D02*
X108726000Y-148874000D01*
X108726000Y-144750000D02*
X108726000Y-145972000D01*
X108686000Y-147652000D02*
X108686000Y-148879000D01*
X108686000Y-144745000D02*
X108686000Y-145972000D01*
X108646000Y-147652000D02*
X108646000Y-148883000D01*
X108646000Y-144741000D02*
X108646000Y-145972000D01*
X108606000Y-147652000D02*
X108606000Y-148886000D01*
X108606000Y-144738000D02*
X108606000Y-145972000D01*
X108566000Y-147652000D02*
X108566000Y-148889000D01*
X108566000Y-144735000D02*
X108566000Y-145972000D01*
X108526000Y-144733000D02*
X108526000Y-145972000D01*
X108526000Y-147652000D02*
X108526000Y-148891000D01*
X108486000Y-144732000D02*
X108486000Y-145972000D01*
X108486000Y-147652000D02*
X108486000Y-148892000D01*
X108446000Y-144732000D02*
X108446000Y-145972000D01*
X108446000Y-147652000D02*
X108446000Y-148892000D01*
X110566000Y-146812000D02*
G75*
G03*
X110566000Y-146812000I-2120000J0D01*
G01*
G04 #@! TO.C,SW1*
D10*
X96228000Y-29118857D02*
X96313714Y-29147428D01*
X96456571Y-29147428D01*
X96513714Y-29118857D01*
X96542285Y-29090285D01*
X96570857Y-29033142D01*
X96570857Y-28976000D01*
X96542285Y-28918857D01*
X96513714Y-28890285D01*
X96456571Y-28861714D01*
X96342285Y-28833142D01*
X96285142Y-28804571D01*
X96256571Y-28776000D01*
X96228000Y-28718857D01*
X96228000Y-28661714D01*
X96256571Y-28604571D01*
X96285142Y-28576000D01*
X96342285Y-28547428D01*
X96485142Y-28547428D01*
X96570857Y-28576000D01*
X96770857Y-28547428D02*
X96913714Y-29147428D01*
X97028000Y-28718857D01*
X97142285Y-29147428D01*
X97285142Y-28547428D01*
X97828000Y-29147428D02*
X97485142Y-29147428D01*
X97656571Y-29147428D02*
X97656571Y-28547428D01*
X97599428Y-28633142D01*
X97542285Y-28690285D01*
X97485142Y-28718857D01*
G04 #@! TO.C,RN2*
X97433142Y-149664380D02*
X96861714Y-149664380D01*
X97147428Y-149664380D02*
X97147428Y-148664380D01*
X97052190Y-148807238D01*
X96956952Y-148902476D01*
X96861714Y-148950095D01*
X98052190Y-148664380D02*
X98147428Y-148664380D01*
X98242666Y-148712000D01*
X98290285Y-148759619D01*
X98337904Y-148854857D01*
X98385523Y-149045333D01*
X98385523Y-149283428D01*
X98337904Y-149473904D01*
X98290285Y-149569142D01*
X98242666Y-149616761D01*
X98147428Y-149664380D01*
X98052190Y-149664380D01*
X97956952Y-149616761D01*
X97909333Y-149569142D01*
X97861714Y-149473904D01*
X97814095Y-149283428D01*
X97814095Y-149045333D01*
X97861714Y-148854857D01*
X97909333Y-148759619D01*
X97956952Y-148712000D01*
X98052190Y-148664380D01*
X98814095Y-149664380D02*
X98814095Y-148664380D01*
X99385523Y-149664380D02*
X98956952Y-149092952D01*
X99385523Y-148664380D02*
X98814095Y-149235809D01*
X100718857Y-149664380D02*
X100623619Y-149616761D01*
X100576000Y-149569142D01*
X100528380Y-149473904D01*
X100528380Y-149188190D01*
X100576000Y-149092952D01*
X100623619Y-149045333D01*
X100718857Y-148997714D01*
X100861714Y-148997714D01*
X100956952Y-149045333D01*
X101004571Y-149092952D01*
X101052190Y-149188190D01*
X101052190Y-149473904D01*
X101004571Y-149569142D01*
X100956952Y-149616761D01*
X100861714Y-149664380D01*
X100718857Y-149664380D01*
X101480761Y-149664380D02*
X101480761Y-148664380D01*
X101909333Y-149664380D02*
X101909333Y-149140571D01*
X101861714Y-149045333D01*
X101766476Y-148997714D01*
X101623619Y-148997714D01*
X101528380Y-149045333D01*
X101480761Y-149092952D01*
X102385523Y-149664380D02*
X102385523Y-148997714D01*
X102385523Y-149092952D02*
X102433142Y-149045333D01*
X102528380Y-148997714D01*
X102671238Y-148997714D01*
X102766476Y-149045333D01*
X102814095Y-149140571D01*
X102814095Y-149664380D01*
X102814095Y-149140571D02*
X102861714Y-149045333D01*
X102956952Y-148997714D01*
X103099809Y-148997714D01*
X103195047Y-149045333D01*
X103242666Y-149140571D01*
X103242666Y-149664380D01*
G04 #@! TO.C,RN1*
X109021619Y-29869142D02*
X109021619Y-29297714D01*
X109021619Y-29583428D02*
X110021619Y-29583428D01*
X109878761Y-29488190D01*
X109783523Y-29392952D01*
X109735904Y-29297714D01*
X110021619Y-30488190D02*
X110021619Y-30583428D01*
X109974000Y-30678666D01*
X109926380Y-30726285D01*
X109831142Y-30773904D01*
X109640666Y-30821523D01*
X109402571Y-30821523D01*
X109212095Y-30773904D01*
X109116857Y-30726285D01*
X109069238Y-30678666D01*
X109021619Y-30583428D01*
X109021619Y-30488190D01*
X109069238Y-30392952D01*
X109116857Y-30345333D01*
X109212095Y-30297714D01*
X109402571Y-30250095D01*
X109640666Y-30250095D01*
X109831142Y-30297714D01*
X109926380Y-30345333D01*
X109974000Y-30392952D01*
X110021619Y-30488190D01*
X109021619Y-31250095D02*
X110021619Y-31250095D01*
X109021619Y-31821523D02*
X109593047Y-31392952D01*
X110021619Y-31821523D02*
X109450190Y-31250095D01*
X109021619Y-33154857D02*
X109069238Y-33059619D01*
X109116857Y-33012000D01*
X109212095Y-32964380D01*
X109497809Y-32964380D01*
X109593047Y-33012000D01*
X109640666Y-33059619D01*
X109688285Y-33154857D01*
X109688285Y-33297714D01*
X109640666Y-33392952D01*
X109593047Y-33440571D01*
X109497809Y-33488190D01*
X109212095Y-33488190D01*
X109116857Y-33440571D01*
X109069238Y-33392952D01*
X109021619Y-33297714D01*
X109021619Y-33154857D01*
X109021619Y-33916761D02*
X110021619Y-33916761D01*
X109021619Y-34345333D02*
X109545428Y-34345333D01*
X109640666Y-34297714D01*
X109688285Y-34202476D01*
X109688285Y-34059619D01*
X109640666Y-33964380D01*
X109593047Y-33916761D01*
X109021619Y-34821523D02*
X109688285Y-34821523D01*
X109593047Y-34821523D02*
X109640666Y-34869142D01*
X109688285Y-34964380D01*
X109688285Y-35107238D01*
X109640666Y-35202476D01*
X109545428Y-35250095D01*
X109021619Y-35250095D01*
X109545428Y-35250095D02*
X109640666Y-35297714D01*
X109688285Y-35392952D01*
X109688285Y-35535809D01*
X109640666Y-35631047D01*
X109545428Y-35678666D01*
X109021619Y-35678666D01*
G04 #@! TO.C,C1*
X109593238Y-148883714D02*
X109593238Y-149550380D01*
X109355142Y-148502761D02*
X109117047Y-149217047D01*
X109736095Y-149217047D01*
X110117047Y-149455142D02*
X110164666Y-149502761D01*
X110117047Y-149550380D01*
X110069428Y-149502761D01*
X110117047Y-149455142D01*
X110117047Y-149550380D01*
X110498000Y-148550380D02*
X111164666Y-148550380D01*
X110736095Y-149550380D01*
X111974190Y-148883714D02*
X111974190Y-149550380D01*
X111545619Y-148883714D02*
X111545619Y-149407523D01*
X111593238Y-149502761D01*
X111688476Y-149550380D01*
X111831333Y-149550380D01*
X111926571Y-149502761D01*
X111974190Y-149455142D01*
X112783714Y-149026571D02*
X112450380Y-149026571D01*
X112450380Y-149550380D02*
X112450380Y-148550380D01*
X112926571Y-148550380D01*
G04 #@! TD*
M02*
