M48
; DRILL file {KiCad (5.1.8)-1} date 11/03/22 13:18:09
; FORMAT={-:-/ absolute / inch / decimal}
; #@! TF.CreationDate,2022-11-03T13:18:09-06:00
; #@! TF.GenerationSoftware,Kicad,Pcbnew,(5.1.8)-1
; #@! TF.FileFunction,Plated,1,2,PTH
FMAT,2
INCH
T1C0.0157
T2C0.0236
T3C0.0300
T4C0.0315
T5C0.0394
%
G90
G05
T1
X3.79Y-1.5
X3.79Y-2.4
X3.79Y-4.5
X3.79Y-5.69
X3.83Y-1.14
X3.83Y-1.7
X3.83Y-4.3
X3.88Y-0.61
X3.88Y-0.78
X3.88Y-1.04
X3.88Y-5.6
X4.02Y-2.5
X4.04Y-0.58
X4.04Y-0.82
X4.04Y-2.6
X4.06Y-2.7
X4.08Y-2.8
X4.08Y-5.1
X4.1Y-0.87
X4.1Y-0.97
X4.13Y-1.07
X4.16Y-1.17
X4.24Y-5.69
X4.26Y-1.27
X4.26Y-2.4
X4.29Y-1.37
X4.29Y-4.9
X4.3Y-0.57
X4.3Y-1.12
X3.9369Y-0.58
X3.9369Y-0.6135
X3.9369Y-0.6469
X3.9369Y-0.6804
X3.9369Y-0.7139
X3.9369Y-0.7473
X3.9369Y-0.7808
X3.9369Y-0.8143
X3.99Y-0.58
X3.99Y-0.6135
X3.99Y-0.6469
X3.99Y-0.6804
X3.99Y-0.7139
X3.99Y-0.7473
X3.99Y-0.7808
X3.99Y-0.8143
T2
X4.24Y-5.78
X4.2991Y-5.78
T3
X3.95Y-4.9
X3.95Y-5.0
X3.95Y-5.1
X3.95Y-5.2
X3.95Y-5.3
X3.95Y-5.4
X3.95Y-5.5
X3.95Y-5.6
X4.15Y-4.9
X4.15Y-5.0
X4.15Y-5.1
X4.15Y-5.2
X4.15Y-5.3
X4.15Y-5.4
X4.15Y-5.5
X4.15Y-5.6
X3.95Y-1.5
X3.95Y-1.6
X3.95Y-1.7
X3.95Y-1.8
X3.95Y-1.9
X3.95Y-2.0
X3.95Y-2.1
X3.95Y-2.2
X3.95Y-2.3
X3.95Y-2.4
X3.95Y-2.5
X3.95Y-2.6
X3.95Y-2.7
X3.95Y-2.8
X3.95Y-2.9
X3.95Y-3.0
X3.95Y-3.1
X3.95Y-3.2
X3.95Y-3.3
X3.95Y-3.4
X3.95Y-3.5
X3.95Y-3.6
X3.95Y-3.7
X3.95Y-3.8
X3.95Y-3.9
X3.95Y-4.0
X3.95Y-4.1
X3.95Y-4.2
X3.95Y-4.3
X3.95Y-4.4
X3.95Y-4.5
X4.15Y-1.5
X4.15Y-1.6
X4.15Y-1.7
X4.15Y-1.8
X4.15Y-1.9
X4.15Y-2.0
X4.15Y-2.1
X4.15Y-2.2
X4.15Y-2.3
X4.15Y-2.4
X4.15Y-2.5
X4.15Y-2.6
X4.15Y-2.7
X4.15Y-2.8
X4.15Y-2.9
X4.15Y-3.0
X4.15Y-3.1
X4.15Y-3.2
X4.15Y-3.3
X4.15Y-3.4
X4.15Y-3.5
X4.15Y-3.6
X4.15Y-3.7
X4.15Y-3.8
X4.15Y-3.9
X4.15Y-4.0
X4.15Y-4.1
X4.15Y-4.2
X4.15Y-4.3
X4.15Y-4.4
X4.15Y-4.5
X3.7038Y-1.04
X3.7038Y-1.1384
X3.7038Y-1.2369
X3.94Y-1.04
X3.94Y-1.1384
X3.94Y-1.2369
T4
X3.78Y-5.78
X3.88Y-5.78
X3.98Y-5.78
X4.08Y-5.78
X4.4Y-0.57
X4.4Y-0.67
X4.4Y-0.77
X4.4Y-0.87
X4.4Y-0.97
X4.4Y-1.07
X4.4Y-1.17
X4.4Y-1.27
X4.4Y-1.37
T5
X4.4Y-1.5
X4.4Y-1.6
X4.4Y-1.7
X4.4Y-1.8
X4.4Y-1.9
X4.4Y-2.0
X4.4Y-2.1
X4.4Y-2.2
X4.4Y-2.3
X4.4Y-2.4
X4.4Y-2.5
X4.4Y-2.6
X4.4Y-2.7
X4.4Y-2.8
X4.4Y-2.9
X4.4Y-3.0
X4.4Y-3.1
X4.4Y-3.2
X4.4Y-3.3
X4.4Y-3.4
X4.4Y-3.5
X4.4Y-3.6
X4.4Y-3.7
X4.4Y-3.8
X4.4Y-3.9
X4.4Y-4.0
X4.4Y-4.1
X4.4Y-4.2
X4.4Y-4.3
X4.4Y-4.4
X4.4Y-4.5
X3.7Y-1.5
X3.7Y-1.6
X3.7Y-1.7
X3.7Y-1.8
X3.7Y-1.9
X3.7Y-2.0
X3.7Y-2.1
X3.7Y-2.2
X3.7Y-2.3
X3.7Y-2.4
X3.7Y-2.5
X3.7Y-2.6
X3.7Y-2.7
X3.7Y-2.8
X3.7Y-2.9
X3.7Y-3.0
X3.7Y-3.1
X3.7Y-3.2
X3.7Y-3.3
X3.7Y-3.4
X3.7Y-3.5
X3.7Y-3.6
X3.7Y-3.7
X3.7Y-3.8
X3.7Y-3.9
X3.7Y-4.0
X3.7Y-4.1
X3.7Y-4.2
X3.7Y-4.3
X3.7Y-4.4
X3.7Y-4.5
X4.4Y-4.9
X4.4Y-5.0
X4.4Y-5.1
X4.4Y-5.2
X4.4Y-5.3
X4.4Y-5.4
X4.4Y-5.5
X4.4Y-5.6
X3.7Y-4.9
X3.7Y-5.0
X3.7Y-5.1
X3.7Y-5.2
X3.7Y-5.3
X3.7Y-5.4
X3.7Y-5.5
X3.7Y-5.6
T2
G00X3.8341Y-0.5269
M15
G01X3.8026Y-0.5269
M16
G05
G00X3.8341Y-0.8674
M15
G01X3.8026Y-0.8674
M16
G05
G00X3.9809Y-0.5269
M15
G01X3.9219Y-0.5269
M16
G05
G00X3.9809Y-0.8674
M15
G01X3.9219Y-0.8674
M16
G05
T0
M30
