G04 #@! TF.GenerationSoftware,KiCad,Pcbnew,(5.1.8)-1*
G04 #@! TF.CreationDate,2022-11-03T13:18:07-06:00*
G04 #@! TF.ProjectId,Breadboard Adapter,42726561-6462-46f6-9172-642041646170,rev?*
G04 #@! TF.SameCoordinates,Original*
G04 #@! TF.FileFunction,Soldermask,Top*
G04 #@! TF.FilePolarity,Negative*
%FSLAX46Y46*%
G04 Gerber Fmt 4.6, Leading zero omitted, Abs format (unit mm)*
G04 Created by KiCad (PCBNEW (5.1.8)-1) date 2022-11-03 13:18:07*
%MOMM*%
%LPD*%
G01*
G04 APERTURE LIST*
%ADD10O,1.700000X1.700000*%
%ADD11R,1.700000X1.700000*%
%ADD12C,1.524000*%
%ADD13O,1.600000X1.600000*%
%ADD14R,1.600000X1.600000*%
%ADD15R,1.524000X1.524000*%
%ADD16O,1.700000X0.900000*%
%ADD17O,2.400000X0.900000*%
%ADD18C,0.700000*%
%ADD19C,1.200000*%
%ADD20R,1.200000X1.200000*%
G04 APERTURE END LIST*
D10*
G04 #@! TO.C,J6*
X111760000Y-142240000D03*
X111760000Y-139700000D03*
X111760000Y-137160000D03*
X111760000Y-134620000D03*
X111760000Y-132080000D03*
X111760000Y-129540000D03*
X111760000Y-127000000D03*
D11*
X111760000Y-124460000D03*
G04 #@! TD*
D10*
G04 #@! TO.C,J5*
X93980000Y-142240000D03*
X93980000Y-139700000D03*
X93980000Y-137160000D03*
X93980000Y-134620000D03*
X93980000Y-132080000D03*
X93980000Y-129540000D03*
X93980000Y-127000000D03*
D11*
X93980000Y-124460000D03*
G04 #@! TD*
D10*
G04 #@! TO.C,J4*
X111760000Y-114300000D03*
X111760000Y-111760000D03*
X111760000Y-109220000D03*
X111760000Y-106680000D03*
X111760000Y-104140000D03*
X111760000Y-101600000D03*
X111760000Y-99060000D03*
X111760000Y-96520000D03*
X111760000Y-93980000D03*
X111760000Y-91440000D03*
X111760000Y-88900000D03*
X111760000Y-86360000D03*
X111760000Y-83820000D03*
X111760000Y-81280000D03*
X111760000Y-78740000D03*
X111760000Y-76200000D03*
X111760000Y-73660000D03*
X111760000Y-71120000D03*
X111760000Y-68580000D03*
X111760000Y-66040000D03*
X111760000Y-63500000D03*
X111760000Y-60960000D03*
X111760000Y-58420000D03*
X111760000Y-55880000D03*
X111760000Y-53340000D03*
X111760000Y-50800000D03*
X111760000Y-48260000D03*
X111760000Y-45720000D03*
X111760000Y-43180000D03*
X111760000Y-40640000D03*
D11*
X111760000Y-38100000D03*
G04 #@! TD*
D10*
G04 #@! TO.C,J3*
X93980000Y-114300000D03*
X93980000Y-111760000D03*
X93980000Y-109220000D03*
X93980000Y-106680000D03*
X93980000Y-104140000D03*
X93980000Y-101600000D03*
X93980000Y-99060000D03*
X93980000Y-96520000D03*
X93980000Y-93980000D03*
X93980000Y-91440000D03*
X93980000Y-88900000D03*
X93980000Y-86360000D03*
X93980000Y-83820000D03*
X93980000Y-81280000D03*
X93980000Y-78740000D03*
X93980000Y-76200000D03*
X93980000Y-73660000D03*
X93980000Y-71120000D03*
X93980000Y-68580000D03*
X93980000Y-66040000D03*
X93980000Y-63500000D03*
X93980000Y-60960000D03*
X93980000Y-58420000D03*
X93980000Y-55880000D03*
X93980000Y-53340000D03*
X93980000Y-50800000D03*
X93980000Y-48260000D03*
X93980000Y-45720000D03*
X93980000Y-43180000D03*
X93980000Y-40640000D03*
D11*
X93980000Y-38100000D03*
G04 #@! TD*
D12*
G04 #@! TO.C,SW1*
X94076000Y-31416000D03*
X94076000Y-28916000D03*
X94076000Y-26416000D03*
X100076000Y-26416000D03*
X100076000Y-28916000D03*
X100076000Y-31416000D03*
G04 #@! TD*
D13*
G04 #@! TO.C,RN2*
X103632000Y-146812000D03*
X101092000Y-146812000D03*
X98552000Y-146812000D03*
D14*
X96012000Y-146812000D03*
G04 #@! TD*
D13*
G04 #@! TO.C,RN1*
X111760000Y-34798000D03*
X111760000Y-32258000D03*
X111760000Y-29718000D03*
X111760000Y-27178000D03*
X111760000Y-24638000D03*
X111760000Y-22098000D03*
X111760000Y-19558000D03*
X111760000Y-17018000D03*
D14*
X111760000Y-14478000D03*
G04 #@! TD*
D12*
G04 #@! TO.C,J9*
X105410000Y-114300000D03*
X105410000Y-111760000D03*
X105410000Y-109220000D03*
X105410000Y-106680000D03*
X105410000Y-104140000D03*
X105410000Y-101600000D03*
X105410000Y-99060000D03*
X105410000Y-96520000D03*
X105410000Y-93980000D03*
X105410000Y-91440000D03*
X105410000Y-88900000D03*
X105410000Y-86360000D03*
X105410000Y-83820000D03*
X105410000Y-81280000D03*
X105410000Y-78740000D03*
X105410000Y-76200000D03*
X105410000Y-73660000D03*
X105410000Y-71120000D03*
X105410000Y-68580000D03*
X105410000Y-66040000D03*
X105410000Y-63500000D03*
X105410000Y-60960000D03*
X105410000Y-58420000D03*
X105410000Y-55880000D03*
X105410000Y-53340000D03*
X105410000Y-50800000D03*
X105410000Y-48260000D03*
X105410000Y-45720000D03*
X105410000Y-43180000D03*
X105410000Y-40640000D03*
X105410000Y-38100000D03*
X100330000Y-114300000D03*
X100330000Y-111760000D03*
X100330000Y-109220000D03*
X100330000Y-106680000D03*
X100330000Y-104140000D03*
X100330000Y-101600000D03*
X100330000Y-99060000D03*
X100330000Y-96520000D03*
X100330000Y-93980000D03*
X100330000Y-91440000D03*
X100330000Y-88900000D03*
X100330000Y-86360000D03*
X100330000Y-83820000D03*
X100330000Y-81280000D03*
X100330000Y-78740000D03*
X100330000Y-76200000D03*
X100330000Y-73660000D03*
X100330000Y-71120000D03*
X100330000Y-68580000D03*
X100330000Y-66040000D03*
X100330000Y-63500000D03*
X100330000Y-60960000D03*
X100330000Y-58420000D03*
X100330000Y-55880000D03*
X100330000Y-53340000D03*
X100330000Y-50800000D03*
X100330000Y-48260000D03*
X100330000Y-45720000D03*
X100330000Y-43180000D03*
X100330000Y-40640000D03*
D15*
X100330000Y-38100000D03*
G04 #@! TD*
D16*
G04 #@! TO.C,J2*
X96986000Y-22032000D03*
X96986000Y-13382000D03*
D17*
X100366000Y-22032000D03*
X100366000Y-13382000D03*
D18*
X99996000Y-18132000D03*
X99996000Y-20682000D03*
X99996000Y-19832000D03*
X99996000Y-18982000D03*
X99996000Y-14732000D03*
X99996000Y-16432000D03*
X99996000Y-17282000D03*
X99996000Y-15582000D03*
X101346000Y-20682000D03*
X101346000Y-19832000D03*
X101346000Y-18982000D03*
X101346000Y-18132000D03*
X101346000Y-17282000D03*
X101346000Y-16432000D03*
X101346000Y-15582000D03*
X101346000Y-14732000D03*
G04 #@! TD*
D12*
G04 #@! TO.C,J1*
X105410000Y-124460000D03*
X105410000Y-127000000D03*
D15*
X100330000Y-124460000D03*
D12*
X100330000Y-127000000D03*
X100330000Y-129540000D03*
X100330000Y-132080000D03*
X100330000Y-134620000D03*
X100330000Y-137160000D03*
X100330000Y-139700000D03*
X100330000Y-142240000D03*
X105410000Y-142240000D03*
X105410000Y-139700000D03*
X105410000Y-137160000D03*
X105410000Y-134620000D03*
X105410000Y-132080000D03*
X105410000Y-129540000D03*
G04 #@! TD*
D19*
G04 #@! TO.C,C1*
X109196000Y-146812000D03*
D20*
X107696000Y-146812000D03*
G04 #@! TD*
M02*
