G04 #@! TF.GenerationSoftware,KiCad,Pcbnew,(5.1.8)-1*
G04 #@! TF.CreationDate,2022-07-22T12:23:09-06:00*
G04 #@! TF.ProjectId,CH376S Module,43483337-3653-4204-9d6f-64756c652e6b,rev?*
G04 #@! TF.SameCoordinates,Original*
G04 #@! TF.FileFunction,Soldermask,Bot*
G04 #@! TF.FilePolarity,Negative*
%FSLAX46Y46*%
G04 Gerber Fmt 4.6, Leading zero omitted, Abs format (unit mm)*
G04 Created by KiCad (PCBNEW (5.1.8)-1) date 2022-07-22 12:23:09*
%MOMM*%
%LPD*%
G01*
G04 APERTURE LIST*
%ADD10O,2.000000X1.905000*%
%ADD11R,2.000000X1.905000*%
%ADD12O,4.318000X4.318000*%
%ADD13C,1.600000*%
%ADD14C,1.524000*%
%ADD15R,1.524000X1.524000*%
%ADD16C,3.500000*%
%ADD17C,1.500000*%
%ADD18O,1.600000X1.600000*%
%ADD19O,1.700000X1.700000*%
%ADD20R,1.700000X1.700000*%
%ADD21C,1.800000*%
%ADD22R,1.800000X1.800000*%
G04 APERTURE END LIST*
D10*
G04 #@! TO.C,U2*
X143764000Y-87122000D03*
X143764000Y-89662000D03*
D11*
X143764000Y-92202000D03*
D12*
X127104000Y-89662000D03*
G04 #@! TD*
D13*
G04 #@! TO.C,C5*
X147828000Y-104982000D03*
X147828000Y-109982000D03*
G04 #@! TD*
G04 #@! TO.C,C4*
X168068000Y-109982000D03*
X163068000Y-109982000D03*
G04 #@! TD*
G04 #@! TO.C,C2*
X147828000Y-99822000D03*
X142828000Y-99822000D03*
G04 #@! TD*
G04 #@! TO.C,C1*
X155956000Y-85598000D03*
X160956000Y-85598000D03*
G04 #@! TD*
D14*
G04 #@! TO.C,USB1*
X137668000Y-107838000D03*
X137668000Y-105338000D03*
X137668000Y-103338000D03*
D15*
X137668000Y-100838000D03*
D16*
X134958000Y-97768000D03*
X134958000Y-110908000D03*
G04 #@! TD*
D17*
G04 #@! TO.C,Y2*
X153596000Y-109982000D03*
X158496000Y-109982000D03*
G04 #@! TD*
D18*
G04 #@! TO.C,R2*
X164846000Y-100330000D03*
D13*
X164846000Y-90170000D03*
G04 #@! TD*
D19*
G04 #@! TO.C,P1*
X170688000Y-88138000D03*
X173228000Y-88138000D03*
X170688000Y-90678000D03*
X173228000Y-90678000D03*
X170688000Y-93218000D03*
X173228000Y-93218000D03*
X170688000Y-95758000D03*
X173228000Y-95758000D03*
X170688000Y-98298000D03*
X173228000Y-98298000D03*
X170688000Y-100838000D03*
X173228000Y-100838000D03*
X170688000Y-103378000D03*
X173228000Y-103378000D03*
X170688000Y-105918000D03*
D20*
X173228000Y-105918000D03*
G04 #@! TD*
D21*
G04 #@! TO.C,D1*
X166116000Y-86614000D03*
D22*
X163576000Y-86614000D03*
G04 #@! TD*
D13*
G04 #@! TO.C,C7*
X147828000Y-97282000D03*
X142828000Y-97282000D03*
G04 #@! TD*
G04 #@! TO.C,C6*
X147828000Y-93646000D03*
X147828000Y-88646000D03*
G04 #@! TD*
M02*
