M48
; DRILL file {KiCad (5.1.8)-1} date 06/13/22 13:31:44
; FORMAT={-:-/ absolute / inch / decimal}
; #@! TF.CreationDate,2022-06-13T13:31:44-06:00
; #@! TF.GenerationSoftware,Kicad,Pcbnew,(5.1.8)-1
; #@! TF.FileFunction,Plated,1,2,PTH
FMAT,2
INCH
T1C0.0157
T2C0.0315
T3C0.0354
T4C0.0362
T5C0.0394
T6C0.0433
T7C0.0906
T8C0.1378
%
G90
G05
T1
X5.76Y-3.37
X5.76Y-3.46
X5.76Y-4.0
X5.76Y-4.23
X5.82Y-4.27
X5.88Y-3.96
X5.88Y-4.04
X6.04Y-3.71
X6.04Y-4.16
X6.09Y-3.51
X6.13Y-3.66
X6.14Y-3.48
X6.17Y-3.81
X6.18Y-3.76
X6.22Y-3.95
X6.23Y-4.11
X6.24Y-3.51
X6.26Y-3.76
X6.4Y-3.56
X6.56Y-3.68
X6.63Y-4.23
X6.63Y-4.27
T2
X5.82Y-4.1331
X5.82Y-4.33
X6.49Y-3.55
X6.49Y-3.95
X6.0471Y-4.33
X6.24Y-4.33
X6.14Y-3.37
X6.3369Y-3.37
X5.82Y-3.49
X5.82Y-3.6869
X5.82Y-3.37
X6.0169Y-3.37
X5.6231Y-3.93
X5.82Y-3.93
X5.6231Y-3.83
X5.82Y-3.83
X6.42Y-4.33
X6.6169Y-4.33
T3
X6.44Y-3.41
X6.54Y-3.41
T4
X5.42Y-3.97
X5.42Y-4.0684
X5.42Y-4.1472
X5.42Y-4.2456
T5
X6.72Y-3.47
X6.72Y-3.57
X6.72Y-3.67
X6.72Y-3.77
X6.72Y-3.87
X6.72Y-3.97
X6.72Y-4.07
X6.72Y-4.17
X6.82Y-3.47
X6.82Y-3.57
X6.82Y-3.67
X6.82Y-3.77
X6.82Y-3.87
X6.82Y-3.97
X6.82Y-4.07
X6.82Y-4.17
T6
X5.66Y-3.43
X5.66Y-3.53
X5.66Y-3.63
T7
X5.3133Y-3.8491
X5.3133Y-4.3665
T8
X5.0041Y-3.53
T0
M30
