G04 #@! TF.GenerationSoftware,KiCad,Pcbnew,(5.1.8)-1*
G04 #@! TF.CreationDate,2022-01-27T18:09:43-07:00*
G04 #@! TF.ProjectId,512k,3531326b-2e6b-4696-9361-645f70636258,rev?*
G04 #@! TF.SameCoordinates,Original*
G04 #@! TF.FileFunction,Soldermask,Top*
G04 #@! TF.FilePolarity,Negative*
%FSLAX46Y46*%
G04 Gerber Fmt 4.6, Leading zero omitted, Abs format (unit mm)*
G04 Created by KiCad (PCBNEW (5.1.8)-1) date 2022-01-27 18:09:43*
%MOMM*%
%LPD*%
G01*
G04 APERTURE LIST*
%ADD10C,3.556000*%
%ADD11O,1.600000X1.600000*%
%ADD12R,1.600000X1.600000*%
%ADD13C,1.600000*%
%ADD14O,2.000000X1.440000*%
%ADD15R,2.000000X1.440000*%
%ADD16R,1.780000X7.620000*%
G04 APERTURE END LIST*
D10*
G04 #@! TO.C,R*
X181602380Y-122148600D03*
G04 #@! TD*
G04 #@! TO.C,R*
X181602380Y-64998600D03*
G04 #@! TD*
D11*
G04 #@! TO.C,U5*
X179316380Y-99288600D03*
X171696380Y-117068600D03*
X179316380Y-101828600D03*
X171696380Y-114528600D03*
X179316380Y-104368600D03*
X171696380Y-111988600D03*
X179316380Y-106908600D03*
X171696380Y-109448600D03*
X179316380Y-109448600D03*
X171696380Y-106908600D03*
X179316380Y-111988600D03*
X171696380Y-104368600D03*
X179316380Y-114528600D03*
X171696380Y-101828600D03*
X179316380Y-117068600D03*
D12*
X171696380Y-99288600D03*
G04 #@! TD*
D11*
G04 #@! TO.C,U4*
X179316380Y-73888600D03*
X171696380Y-91668600D03*
X179316380Y-76428600D03*
X171696380Y-89128600D03*
X179316380Y-78968600D03*
X171696380Y-86588600D03*
X179316380Y-81508600D03*
X171696380Y-84048600D03*
X179316380Y-84048600D03*
X171696380Y-81508600D03*
X179316380Y-86588600D03*
X171696380Y-78968600D03*
X179316380Y-89128600D03*
X171696380Y-76428600D03*
X179316380Y-91668600D03*
D12*
X171696380Y-73888600D03*
G04 #@! TD*
D13*
G04 #@! TO.C,C5*
X179316380Y-95986600D03*
X174316380Y-95986600D03*
G04 #@! TD*
G04 #@! TO.C,C4*
X179316380Y-70586600D03*
X174316380Y-70586600D03*
G04 #@! TD*
G04 #@! TO.C,C3*
X161536380Y-75666600D03*
X156536380Y-75666600D03*
G04 #@! TD*
G04 #@! TO.C,C2*
X136136380Y-80746600D03*
X131136380Y-80746600D03*
G04 #@! TD*
D14*
G04 #@! TO.C,U2*
X105656380Y-111988600D03*
X90416380Y-111988600D03*
X105656380Y-109448600D03*
X90416380Y-109448600D03*
X105656380Y-106908600D03*
X90416380Y-106908600D03*
X105656380Y-104368600D03*
X90416380Y-104368600D03*
X105656380Y-101828600D03*
X90416380Y-101828600D03*
X105656380Y-99288600D03*
X90416380Y-99288600D03*
X105656380Y-96748600D03*
X90416380Y-96748600D03*
X105656380Y-94208600D03*
X90416380Y-94208600D03*
X105656380Y-91668600D03*
X90416380Y-91668600D03*
X105656380Y-89128600D03*
X90416380Y-89128600D03*
X105656380Y-86588600D03*
X90416380Y-86588600D03*
X105656380Y-84048600D03*
X90416380Y-84048600D03*
X105656380Y-81508600D03*
X90416380Y-81508600D03*
X105656380Y-78968600D03*
D15*
X90416380Y-78968600D03*
G04 #@! TD*
D11*
G04 #@! TO.C,U1*
X136136380Y-84048600D03*
X120896380Y-117068600D03*
X136136380Y-86588600D03*
X120896380Y-114528600D03*
X136136380Y-89128600D03*
X120896380Y-111988600D03*
X136136380Y-91668600D03*
X120896380Y-109448600D03*
X136136380Y-94208600D03*
X120896380Y-106908600D03*
X136136380Y-96748600D03*
X120896380Y-104368600D03*
X136136380Y-99288600D03*
X120896380Y-101828600D03*
X136136380Y-101828600D03*
X120896380Y-99288600D03*
X136136380Y-104368600D03*
X120896380Y-96748600D03*
X136136380Y-106908600D03*
X120896380Y-94208600D03*
X136136380Y-109448600D03*
X120896380Y-91668600D03*
X136136380Y-111988600D03*
X120896380Y-89128600D03*
X136136380Y-114528600D03*
X120896380Y-86588600D03*
X136136380Y-117068600D03*
D12*
X120896380Y-84048600D03*
G04 #@! TD*
D16*
G04 #@! TO.C,J9*
X85336380Y-129768600D03*
X87876380Y-129768600D03*
X90416380Y-129768600D03*
X92956380Y-129768600D03*
X95496380Y-129768600D03*
X98036380Y-129768600D03*
X100576380Y-129768600D03*
X103116380Y-129768600D03*
X105656380Y-129768600D03*
X108196380Y-129768600D03*
X110736380Y-129768600D03*
X113276380Y-129768600D03*
X115816380Y-129768600D03*
X118356380Y-129768600D03*
X120896380Y-129768600D03*
X123436380Y-129768600D03*
X125976380Y-129768600D03*
X128516380Y-129768600D03*
X131056380Y-129768600D03*
X133596380Y-129768600D03*
X136136380Y-129768600D03*
X138676380Y-129768600D03*
X141216380Y-129768600D03*
X143756380Y-129768600D03*
X146296380Y-129768600D03*
X148836380Y-129768600D03*
X151376380Y-129768600D03*
X153916380Y-129768600D03*
X156456380Y-129768600D03*
X158996380Y-129768600D03*
X161536380Y-129768600D03*
G04 #@! TD*
D13*
G04 #@! TO.C,C1*
X111244380Y-79048600D03*
X111244380Y-84048600D03*
G04 #@! TD*
D11*
G04 #@! TO.C,U3*
X161536380Y-78968600D03*
X146296380Y-117068600D03*
X161536380Y-81508600D03*
X146296380Y-114528600D03*
X161536380Y-84048600D03*
X146296380Y-111988600D03*
X161536380Y-86588600D03*
X146296380Y-109448600D03*
X161536380Y-89128600D03*
X146296380Y-106908600D03*
X161536380Y-91668600D03*
X146296380Y-104368600D03*
X161536380Y-94208600D03*
X146296380Y-101828600D03*
X161536380Y-96748600D03*
X146296380Y-99288600D03*
X161536380Y-99288600D03*
X146296380Y-96748600D03*
X161536380Y-101828600D03*
X146296380Y-94208600D03*
X161536380Y-104368600D03*
X146296380Y-91668600D03*
X161536380Y-106908600D03*
X146296380Y-89128600D03*
X161536380Y-109448600D03*
X146296380Y-86588600D03*
X161536380Y-111988600D03*
X146296380Y-84048600D03*
X161536380Y-114528600D03*
X146296380Y-81508600D03*
X161536380Y-117068600D03*
D12*
X146296380Y-78968600D03*
G04 #@! TD*
M02*
