G04 #@! TF.GenerationSoftware,KiCad,Pcbnew,(5.1.8)-1*
G04 #@! TF.CreationDate,2022-11-03T13:55:50-06:00*
G04 #@! TF.ProjectId,Breadboard Adapter,42726561-6462-46f6-9172-642041646170,rev?*
G04 #@! TF.SameCoordinates,Original*
G04 #@! TF.FileFunction,Copper,L1,Top*
G04 #@! TF.FilePolarity,Positive*
%FSLAX46Y46*%
G04 Gerber Fmt 4.6, Leading zero omitted, Abs format (unit mm)*
G04 Created by KiCad (PCBNEW (5.1.8)-1) date 2022-11-03 13:55:50*
%MOMM*%
%LPD*%
G01*
G04 APERTURE LIST*
G04 #@! TA.AperFunction,ComponentPad*
%ADD10O,1.700000X1.700000*%
G04 #@! TD*
G04 #@! TA.AperFunction,ComponentPad*
%ADD11R,1.700000X1.700000*%
G04 #@! TD*
G04 #@! TA.AperFunction,ComponentPad*
%ADD12C,1.524000*%
G04 #@! TD*
G04 #@! TA.AperFunction,ComponentPad*
%ADD13O,1.600000X1.600000*%
G04 #@! TD*
G04 #@! TA.AperFunction,ComponentPad*
%ADD14R,1.600000X1.600000*%
G04 #@! TD*
G04 #@! TA.AperFunction,ComponentPad*
%ADD15R,1.524000X1.524000*%
G04 #@! TD*
G04 #@! TA.AperFunction,ComponentPad*
%ADD16O,1.700000X0.900000*%
G04 #@! TD*
G04 #@! TA.AperFunction,ComponentPad*
%ADD17O,2.400000X0.900000*%
G04 #@! TD*
G04 #@! TA.AperFunction,ComponentPad*
%ADD18C,0.700000*%
G04 #@! TD*
G04 #@! TA.AperFunction,ComponentPad*
%ADD19C,1.200000*%
G04 #@! TD*
G04 #@! TA.AperFunction,ComponentPad*
%ADD20R,1.200000X1.200000*%
G04 #@! TD*
G04 #@! TA.AperFunction,ViaPad*
%ADD21C,0.800000*%
G04 #@! TD*
G04 #@! TA.AperFunction,Conductor*
%ADD22C,0.250000*%
G04 #@! TD*
G04 #@! TA.AperFunction,Conductor*
%ADD23C,0.330200*%
G04 #@! TD*
G04 APERTURE END LIST*
D10*
G04 #@! TO.P,J6,8*
G04 #@! TO.N,/SPK_OUT*
X111760000Y-142240000D03*
G04 #@! TO.P,J6,7*
G04 #@! TO.N,/SPK_GO*
X111760000Y-139700000D03*
G04 #@! TO.P,J6,6*
G04 #@! TO.N,/HF_PCLK*
X111760000Y-137160000D03*
G04 #@! TO.P,J6,5*
G04 #@! TO.N,/DRQ0*
X111760000Y-134620000D03*
G04 #@! TO.P,J6,4*
G04 #@! TO.N,/HOLDA*
X111760000Y-132080000D03*
G04 #@! TO.P,J6,3*
G04 #@! TO.N,/HOLD*
X111760000Y-129540000D03*
G04 #@! TO.P,J6,2*
G04 #@! TO.N,/READY*
X111760000Y-127000000D03*
D11*
G04 #@! TO.P,J6,1*
G04 #@! TO.N,/RESET*
X111760000Y-124460000D03*
G04 #@! TD*
D10*
G04 #@! TO.P,J5,8*
G04 #@! TO.N,/NMI*
X93980000Y-142240000D03*
G04 #@! TO.P,J5,7*
G04 #@! TO.N,/PIN7*
X93980000Y-139700000D03*
G04 #@! TO.P,J5,6*
G04 #@! TO.N,/IO_008X*
X93980000Y-137160000D03*
G04 #@! TO.P,J5,5*
G04 #@! TO.N,/IO_006X*
X93980000Y-134620000D03*
G04 #@! TO.P,J5,4*
G04 #@! TO.N,/IO_004X*
X93980000Y-132080000D03*
G04 #@! TO.P,J5,3*
G04 #@! TO.N,/IO_002X*
X93980000Y-129540000D03*
G04 #@! TO.P,J5,2*
G04 #@! TO.N,/IO_000X*
X93980000Y-127000000D03*
D11*
G04 #@! TO.P,J5,1*
G04 #@! TO.N,/IRQ1*
X93980000Y-124460000D03*
G04 #@! TD*
D10*
G04 #@! TO.P,J4,31*
G04 #@! TO.N,/A0*
X111760000Y-114300000D03*
G04 #@! TO.P,J4,30*
G04 #@! TO.N,/A1*
X111760000Y-111760000D03*
G04 #@! TO.P,J4,29*
G04 #@! TO.N,/A2*
X111760000Y-109220000D03*
G04 #@! TO.P,J4,28*
G04 #@! TO.N,/A3*
X111760000Y-106680000D03*
G04 #@! TO.P,J4,27*
G04 #@! TO.N,/A4*
X111760000Y-104140000D03*
G04 #@! TO.P,J4,26*
G04 #@! TO.N,/A5*
X111760000Y-101600000D03*
G04 #@! TO.P,J4,25*
G04 #@! TO.N,/A6*
X111760000Y-99060000D03*
G04 #@! TO.P,J4,24*
G04 #@! TO.N,/A7*
X111760000Y-96520000D03*
G04 #@! TO.P,J4,23*
G04 #@! TO.N,/A8*
X111760000Y-93980000D03*
G04 #@! TO.P,J4,22*
G04 #@! TO.N,/A9*
X111760000Y-91440000D03*
G04 #@! TO.P,J4,21*
G04 #@! TO.N,/A10*
X111760000Y-88900000D03*
G04 #@! TO.P,J4,20*
G04 #@! TO.N,/A11*
X111760000Y-86360000D03*
G04 #@! TO.P,J4,19*
G04 #@! TO.N,/A12*
X111760000Y-83820000D03*
G04 #@! TO.P,J4,18*
G04 #@! TO.N,/A13*
X111760000Y-81280000D03*
G04 #@! TO.P,J4,17*
G04 #@! TO.N,/A14*
X111760000Y-78740000D03*
G04 #@! TO.P,J4,16*
G04 #@! TO.N,/A15*
X111760000Y-76200000D03*
G04 #@! TO.P,J4,15*
G04 #@! TO.N,/A16*
X111760000Y-73660000D03*
G04 #@! TO.P,J4,14*
G04 #@! TO.N,/A17*
X111760000Y-71120000D03*
G04 #@! TO.P,J4,13*
G04 #@! TO.N,/A18*
X111760000Y-68580000D03*
G04 #@! TO.P,J4,12*
G04 #@! TO.N,/A19*
X111760000Y-66040000D03*
G04 #@! TO.P,J4,11*
G04 #@! TO.N,/AEN*
X111760000Y-63500000D03*
G04 #@! TO.P,J4,10*
G04 #@! TO.N,/RDY1*
X111760000Y-60960000D03*
G04 #@! TO.P,J4,9*
G04 #@! TO.N,/D0*
X111760000Y-58420000D03*
G04 #@! TO.P,J4,8*
G04 #@! TO.N,/D1*
X111760000Y-55880000D03*
G04 #@! TO.P,J4,7*
G04 #@! TO.N,/D2*
X111760000Y-53340000D03*
G04 #@! TO.P,J4,6*
G04 #@! TO.N,/D3*
X111760000Y-50800000D03*
G04 #@! TO.P,J4,5*
G04 #@! TO.N,/D4*
X111760000Y-48260000D03*
G04 #@! TO.P,J4,4*
G04 #@! TO.N,/D5*
X111760000Y-45720000D03*
G04 #@! TO.P,J4,3*
G04 #@! TO.N,/D6*
X111760000Y-43180000D03*
G04 #@! TO.P,J4,2*
G04 #@! TO.N,/D7*
X111760000Y-40640000D03*
D11*
G04 #@! TO.P,J4,1*
G04 #@! TO.N,/CH_CK*
X111760000Y-38100000D03*
G04 #@! TD*
D10*
G04 #@! TO.P,J3,31*
G04 #@! TO.N,/GND*
X93980000Y-114300000D03*
G04 #@! TO.P,J3,30*
G04 #@! TO.N,/OSC88*
X93980000Y-111760000D03*
G04 #@! TO.P,J3,29*
G04 #@! TO.N,/5+*
X93980000Y-109220000D03*
G04 #@! TO.P,J3,28*
G04 #@! TO.N,/ALE*
X93980000Y-106680000D03*
G04 #@! TO.P,J3,27*
G04 #@! TO.N,/TC*
X93980000Y-104140000D03*
G04 #@! TO.P,J3,26*
G04 #@! TO.N,/DACK2*
X93980000Y-101600000D03*
G04 #@! TO.P,J3,25*
G04 #@! TO.N,/IRQ3*
X93980000Y-99060000D03*
G04 #@! TO.P,J3,24*
G04 #@! TO.N,/IRQ4*
X93980000Y-96520000D03*
G04 #@! TO.P,J3,23*
G04 #@! TO.N,/IRQ5*
X93980000Y-93980000D03*
G04 #@! TO.P,J3,22*
G04 #@! TO.N,/IRQ6*
X93980000Y-91440000D03*
G04 #@! TO.P,J3,21*
G04 #@! TO.N,/IRQ7*
X93980000Y-88900000D03*
G04 #@! TO.P,J3,20*
G04 #@! TO.N,/CLK88*
X93980000Y-86360000D03*
G04 #@! TO.P,J3,19*
G04 #@! TO.N,/REFRQ*
X93980000Y-83820000D03*
G04 #@! TO.P,J3,18*
G04 #@! TO.N,/DRQ1*
X93980000Y-81280000D03*
G04 #@! TO.P,J3,17*
G04 #@! TO.N,/DACK1*
X93980000Y-78740000D03*
G04 #@! TO.P,J3,16*
G04 #@! TO.N,/DRQ3*
X93980000Y-76200000D03*
G04 #@! TO.P,J3,15*
G04 #@! TO.N,/DACK3*
X93980000Y-73660000D03*
G04 #@! TO.P,J3,14*
G04 #@! TO.N,/IORD*
X93980000Y-71120000D03*
G04 #@! TO.P,J3,13*
G04 #@! TO.N,/IOWR*
X93980000Y-68580000D03*
G04 #@! TO.P,J3,12*
G04 #@! TO.N,/MRD*
X93980000Y-66040000D03*
G04 #@! TO.P,J3,11*
G04 #@! TO.N,/MWR*
X93980000Y-63500000D03*
G04 #@! TO.P,J3,10*
G04 #@! TO.N,/GND*
X93980000Y-60960000D03*
G04 #@! TO.P,J3,9*
G04 #@! TO.N,/12+*
X93980000Y-58420000D03*
G04 #@! TO.P,J3,8*
G04 #@! TO.N,/NC*
X93980000Y-55880000D03*
G04 #@! TO.P,J3,7*
G04 #@! TO.N,/12-*
X93980000Y-53340000D03*
G04 #@! TO.P,J3,6*
G04 #@! TO.N,/DRQ2*
X93980000Y-50800000D03*
G04 #@! TO.P,J3,5*
G04 #@! TO.N,/5-*
X93980000Y-48260000D03*
G04 #@! TO.P,J3,4*
G04 #@! TO.N,/IRQ2*
X93980000Y-45720000D03*
G04 #@! TO.P,J3,3*
G04 #@! TO.N,/5+*
X93980000Y-43180000D03*
G04 #@! TO.P,J3,2*
G04 #@! TO.N,/RESOUT*
X93980000Y-40640000D03*
D11*
G04 #@! TO.P,J3,1*
G04 #@! TO.N,/GND*
X93980000Y-38100000D03*
G04 #@! TD*
D12*
G04 #@! TO.P,SW1,6*
G04 #@! TO.N,Net-(SW1-Pad6)*
X94076000Y-31416000D03*
G04 #@! TO.P,SW1,5*
G04 #@! TO.N,Net-(SW1-Pad5)*
X94076000Y-28916000D03*
G04 #@! TO.P,SW1,4*
G04 #@! TO.N,Net-(SW1-Pad4)*
X94076000Y-26416000D03*
G04 #@! TO.P,SW1,3*
G04 #@! TO.N,/POWER_SUPPLY*
X100076000Y-26416000D03*
G04 #@! TO.P,SW1,2*
G04 #@! TO.N,/5+*
X100076000Y-28916000D03*
G04 #@! TO.P,SW1,1*
G04 #@! TO.N,Net-(SW1-Pad1)*
X100076000Y-31416000D03*
G04 #@! TD*
D13*
G04 #@! TO.P,RN2,4*
G04 #@! TO.N,/HOLD*
X103632000Y-146812000D03*
G04 #@! TO.P,RN2,3*
G04 #@! TO.N,Net-(RN2-Pad3)*
X101092000Y-146812000D03*
G04 #@! TO.P,RN2,2*
G04 #@! TO.N,/NMI*
X98552000Y-146812000D03*
D14*
G04 #@! TO.P,RN2,1*
G04 #@! TO.N,/GND*
X96012000Y-146812000D03*
G04 #@! TD*
D13*
G04 #@! TO.P,RN1,9*
G04 #@! TO.N,/RESET*
X111760000Y-34798000D03*
G04 #@! TO.P,RN1,8*
G04 #@! TO.N,/RDY1*
X111760000Y-32258000D03*
G04 #@! TO.P,RN1,7*
G04 #@! TO.N,/IORD*
X111760000Y-29718000D03*
G04 #@! TO.P,RN1,6*
G04 #@! TO.N,/IOWR*
X111760000Y-27178000D03*
G04 #@! TO.P,RN1,5*
G04 #@! TO.N,/MRD*
X111760000Y-24638000D03*
G04 #@! TO.P,RN1,4*
G04 #@! TO.N,/MWR*
X111760000Y-22098000D03*
G04 #@! TO.P,RN1,3*
G04 #@! TO.N,Net-(RN1-Pad3)*
X111760000Y-19558000D03*
G04 #@! TO.P,RN1,2*
G04 #@! TO.N,Net-(RN1-Pad2)*
X111760000Y-17018000D03*
D14*
G04 #@! TO.P,RN1,1*
G04 #@! TO.N,/5+*
X111760000Y-14478000D03*
G04 #@! TD*
D12*
G04 #@! TO.P,J9,62*
G04 #@! TO.N,/A0*
X105410000Y-114300000D03*
G04 #@! TO.P,J9,61*
G04 #@! TO.N,/A1*
X105410000Y-111760000D03*
G04 #@! TO.P,J9,60*
G04 #@! TO.N,/A2*
X105410000Y-109220000D03*
G04 #@! TO.P,J9,59*
G04 #@! TO.N,/A3*
X105410000Y-106680000D03*
G04 #@! TO.P,J9,58*
G04 #@! TO.N,/A4*
X105410000Y-104140000D03*
G04 #@! TO.P,J9,57*
G04 #@! TO.N,/A5*
X105410000Y-101600000D03*
G04 #@! TO.P,J9,56*
G04 #@! TO.N,/A6*
X105410000Y-99060000D03*
G04 #@! TO.P,J9,55*
G04 #@! TO.N,/A7*
X105410000Y-96520000D03*
G04 #@! TO.P,J9,54*
G04 #@! TO.N,/A8*
X105410000Y-93980000D03*
G04 #@! TO.P,J9,53*
G04 #@! TO.N,/A9*
X105410000Y-91440000D03*
G04 #@! TO.P,J9,52*
G04 #@! TO.N,/A10*
X105410000Y-88900000D03*
G04 #@! TO.P,J9,51*
G04 #@! TO.N,/A11*
X105410000Y-86360000D03*
G04 #@! TO.P,J9,50*
G04 #@! TO.N,/A12*
X105410000Y-83820000D03*
G04 #@! TO.P,J9,49*
G04 #@! TO.N,/A13*
X105410000Y-81280000D03*
G04 #@! TO.P,J9,48*
G04 #@! TO.N,/A14*
X105410000Y-78740000D03*
G04 #@! TO.P,J9,47*
G04 #@! TO.N,/A15*
X105410000Y-76200000D03*
G04 #@! TO.P,J9,46*
G04 #@! TO.N,/A16*
X105410000Y-73660000D03*
G04 #@! TO.P,J9,45*
G04 #@! TO.N,/A17*
X105410000Y-71120000D03*
G04 #@! TO.P,J9,44*
G04 #@! TO.N,/A18*
X105410000Y-68580000D03*
G04 #@! TO.P,J9,43*
G04 #@! TO.N,/A19*
X105410000Y-66040000D03*
G04 #@! TO.P,J9,42*
G04 #@! TO.N,/AEN*
X105410000Y-63500000D03*
G04 #@! TO.P,J9,41*
G04 #@! TO.N,/RDY1*
X105410000Y-60960000D03*
G04 #@! TO.P,J9,40*
G04 #@! TO.N,/D0*
X105410000Y-58420000D03*
G04 #@! TO.P,J9,39*
G04 #@! TO.N,/D1*
X105410000Y-55880000D03*
G04 #@! TO.P,J9,38*
G04 #@! TO.N,/D2*
X105410000Y-53340000D03*
G04 #@! TO.P,J9,37*
G04 #@! TO.N,/D3*
X105410000Y-50800000D03*
G04 #@! TO.P,J9,36*
G04 #@! TO.N,/D4*
X105410000Y-48260000D03*
G04 #@! TO.P,J9,35*
G04 #@! TO.N,/D5*
X105410000Y-45720000D03*
G04 #@! TO.P,J9,34*
G04 #@! TO.N,/D6*
X105410000Y-43180000D03*
G04 #@! TO.P,J9,33*
G04 #@! TO.N,/D7*
X105410000Y-40640000D03*
G04 #@! TO.P,J9,32*
G04 #@! TO.N,/CH_CK*
X105410000Y-38100000D03*
G04 #@! TO.P,J9,31*
G04 #@! TO.N,/GND*
X100330000Y-114300000D03*
G04 #@! TO.P,J9,30*
G04 #@! TO.N,/OSC88*
X100330000Y-111760000D03*
G04 #@! TO.P,J9,29*
G04 #@! TO.N,/5+*
X100330000Y-109220000D03*
G04 #@! TO.P,J9,28*
G04 #@! TO.N,/ALE*
X100330000Y-106680000D03*
G04 #@! TO.P,J9,27*
G04 #@! TO.N,/TC*
X100330000Y-104140000D03*
G04 #@! TO.P,J9,26*
G04 #@! TO.N,/DACK2*
X100330000Y-101600000D03*
G04 #@! TO.P,J9,25*
G04 #@! TO.N,/IRQ3*
X100330000Y-99060000D03*
G04 #@! TO.P,J9,24*
G04 #@! TO.N,/IRQ4*
X100330000Y-96520000D03*
G04 #@! TO.P,J9,23*
G04 #@! TO.N,/IRQ5*
X100330000Y-93980000D03*
G04 #@! TO.P,J9,22*
G04 #@! TO.N,/IRQ6*
X100330000Y-91440000D03*
G04 #@! TO.P,J9,21*
G04 #@! TO.N,/IRQ7*
X100330000Y-88900000D03*
G04 #@! TO.P,J9,20*
G04 #@! TO.N,/CLK88*
X100330000Y-86360000D03*
G04 #@! TO.P,J9,19*
G04 #@! TO.N,/REFRQ*
X100330000Y-83820000D03*
G04 #@! TO.P,J9,18*
G04 #@! TO.N,/DRQ1*
X100330000Y-81280000D03*
G04 #@! TO.P,J9,17*
G04 #@! TO.N,/DACK1*
X100330000Y-78740000D03*
G04 #@! TO.P,J9,16*
G04 #@! TO.N,/DRQ3*
X100330000Y-76200000D03*
G04 #@! TO.P,J9,15*
G04 #@! TO.N,/DACK3*
X100330000Y-73660000D03*
G04 #@! TO.P,J9,14*
G04 #@! TO.N,/IORD*
X100330000Y-71120000D03*
G04 #@! TO.P,J9,13*
G04 #@! TO.N,/IOWR*
X100330000Y-68580000D03*
G04 #@! TO.P,J9,12*
G04 #@! TO.N,/MRD*
X100330000Y-66040000D03*
G04 #@! TO.P,J9,11*
G04 #@! TO.N,/MWR*
X100330000Y-63500000D03*
G04 #@! TO.P,J9,10*
G04 #@! TO.N,/GND*
X100330000Y-60960000D03*
G04 #@! TO.P,J9,9*
G04 #@! TO.N,/12+*
X100330000Y-58420000D03*
G04 #@! TO.P,J9,8*
G04 #@! TO.N,/NC*
X100330000Y-55880000D03*
G04 #@! TO.P,J9,7*
G04 #@! TO.N,/12-*
X100330000Y-53340000D03*
G04 #@! TO.P,J9,6*
G04 #@! TO.N,/DRQ2*
X100330000Y-50800000D03*
G04 #@! TO.P,J9,5*
G04 #@! TO.N,/5-*
X100330000Y-48260000D03*
G04 #@! TO.P,J9,4*
G04 #@! TO.N,/IRQ2*
X100330000Y-45720000D03*
G04 #@! TO.P,J9,3*
G04 #@! TO.N,/5+*
X100330000Y-43180000D03*
G04 #@! TO.P,J9,2*
G04 #@! TO.N,/RESOUT*
X100330000Y-40640000D03*
D15*
G04 #@! TO.P,J9,1*
G04 #@! TO.N,/GND*
X100330000Y-38100000D03*
G04 #@! TD*
D16*
G04 #@! TO.P,J2,S1*
G04 #@! TO.N,Net-(J2-PadS1)*
X96986000Y-22032000D03*
X96986000Y-13382000D03*
D17*
X100366000Y-22032000D03*
X100366000Y-13382000D03*
D18*
G04 #@! TO.P,J2,B6*
G04 #@! TO.N,Net-(J2-PadB6)*
X99996000Y-18132000D03*
G04 #@! TO.P,J2,B1*
G04 #@! TO.N,/GND*
X99996000Y-20682000D03*
G04 #@! TO.P,J2,B4*
G04 #@! TO.N,/POWER_SUPPLY*
X99996000Y-19832000D03*
G04 #@! TO.P,J2,B5*
G04 #@! TO.N,Net-(J2-PadB5)*
X99996000Y-18982000D03*
G04 #@! TO.P,J2,B12*
G04 #@! TO.N,/GND*
X99996000Y-14732000D03*
G04 #@! TO.P,J2,B8*
G04 #@! TO.N,Net-(J2-PadB8)*
X99996000Y-16432000D03*
G04 #@! TO.P,J2,B7*
G04 #@! TO.N,Net-(J2-PadB7)*
X99996000Y-17282000D03*
G04 #@! TO.P,J2,B9*
G04 #@! TO.N,/POWER_SUPPLY*
X99996000Y-15582000D03*
G04 #@! TO.P,J2,A12*
G04 #@! TO.N,/GND*
X101346000Y-20682000D03*
G04 #@! TO.P,J2,A9*
G04 #@! TO.N,/POWER_SUPPLY*
X101346000Y-19832000D03*
G04 #@! TO.P,J2,A8*
G04 #@! TO.N,Net-(J2-PadA8)*
X101346000Y-18982000D03*
G04 #@! TO.P,J2,A7*
G04 #@! TO.N,Net-(J2-PadA7)*
X101346000Y-18132000D03*
G04 #@! TO.P,J2,A6*
G04 #@! TO.N,Net-(J2-PadA6)*
X101346000Y-17282000D03*
G04 #@! TO.P,J2,A5*
G04 #@! TO.N,Net-(J2-PadA5)*
X101346000Y-16432000D03*
G04 #@! TO.P,J2,A4*
G04 #@! TO.N,/POWER_SUPPLY*
X101346000Y-15582000D03*
G04 #@! TO.P,J2,A1*
G04 #@! TO.N,/GND*
X101346000Y-14732000D03*
G04 #@! TD*
D12*
G04 #@! TO.P,J1,16*
G04 #@! TO.N,/RESET*
X105410000Y-124460000D03*
G04 #@! TO.P,J1,15*
G04 #@! TO.N,/READY*
X105410000Y-127000000D03*
D15*
G04 #@! TO.P,J1,1*
G04 #@! TO.N,/IRQ1*
X100330000Y-124460000D03*
D12*
G04 #@! TO.P,J1,2*
G04 #@! TO.N,/IO_000X*
X100330000Y-127000000D03*
G04 #@! TO.P,J1,3*
G04 #@! TO.N,/IO_002X*
X100330000Y-129540000D03*
G04 #@! TO.P,J1,4*
G04 #@! TO.N,/IO_004X*
X100330000Y-132080000D03*
G04 #@! TO.P,J1,5*
G04 #@! TO.N,/IO_006X*
X100330000Y-134620000D03*
G04 #@! TO.P,J1,6*
G04 #@! TO.N,/IO_008X*
X100330000Y-137160000D03*
G04 #@! TO.P,J1,7*
G04 #@! TO.N,/PIN7*
X100330000Y-139700000D03*
G04 #@! TO.P,J1,8*
G04 #@! TO.N,/NMI*
X100330000Y-142240000D03*
G04 #@! TO.P,J1,9*
G04 #@! TO.N,/SPK_OUT*
X105410000Y-142240000D03*
G04 #@! TO.P,J1,10*
G04 #@! TO.N,/SPK_GO*
X105410000Y-139700000D03*
G04 #@! TO.P,J1,11*
G04 #@! TO.N,/HF_PCLK*
X105410000Y-137160000D03*
G04 #@! TO.P,J1,12*
G04 #@! TO.N,/DRQ0*
X105410000Y-134620000D03*
G04 #@! TO.P,J1,13*
G04 #@! TO.N,/HOLDA*
X105410000Y-132080000D03*
G04 #@! TO.P,J1,14*
G04 #@! TO.N,/HOLD*
X105410000Y-129540000D03*
G04 #@! TD*
D19*
G04 #@! TO.P,C1,2*
G04 #@! TO.N,/GND*
X107696000Y-146812000D03*
D20*
G04 #@! TO.P,C1,1*
G04 #@! TO.N,/RESET*
X109196000Y-146812000D03*
G04 #@! TD*
D21*
G04 #@! TO.N,/RESET*
X108966000Y-34798000D03*
X108966000Y-124460000D03*
G04 #@! TO.N,/GND*
X102616000Y-14732000D03*
X102616000Y-20828000D03*
X96266000Y-38100000D03*
X96266000Y-114300000D03*
X96266000Y-60960000D03*
X96266000Y-144526000D03*
X107696000Y-144526000D03*
G04 #@! TO.N,/NMI*
X98552000Y-142240000D03*
G04 #@! TO.N,/HOLD*
X103632000Y-129540000D03*
G04 #@! TO.N,/POWER_SUPPLY*
X98552000Y-26416000D03*
X98552000Y-19812000D03*
X98552000Y-15494000D03*
G04 #@! TO.N,/RDY1*
X108204000Y-60960000D03*
X108204000Y-32258000D03*
G04 #@! TO.N,/5+*
X97282000Y-43180000D03*
X97282000Y-28956000D03*
X97282000Y-109220000D03*
X109220000Y-28448000D03*
X109220000Y-14478000D03*
G04 #@! TO.N,/IORD*
X103632000Y-71120000D03*
X105664000Y-29718000D03*
G04 #@! TO.N,/IOWR*
X103124000Y-68580000D03*
X104902000Y-27178000D03*
G04 #@! TO.N,/MRD*
X102616000Y-66040000D03*
X104140000Y-24638000D03*
G04 #@! TO.N,/MWR*
X102108000Y-63500000D03*
X104140000Y-22098000D03*
G04 #@! TD*
D22*
G04 #@! TO.N,/RESET*
X105410000Y-124460000D02*
X111760000Y-124460000D01*
X111760000Y-34798000D02*
X108966000Y-34798000D01*
D23*
G04 #@! TO.N,/GND*
X93980000Y-38100000D02*
X96266000Y-38100000D01*
X100330000Y-60960000D02*
X93980000Y-60960000D01*
X93980000Y-114300000D02*
X100330000Y-114300000D01*
X102616000Y-14732000D02*
X101346000Y-14732000D01*
X101346000Y-14732000D02*
X99996000Y-14732000D01*
X101492000Y-20828000D02*
X101346000Y-20682000D01*
X102616000Y-20828000D02*
X101492000Y-20828000D01*
X101346000Y-20682000D02*
X99996000Y-20682000D01*
X99996000Y-20682000D02*
X99968000Y-20682000D01*
X96266000Y-38100000D02*
X100330000Y-38100000D01*
X96266000Y-144526000D02*
X107696000Y-144526000D01*
X107696000Y-144526000D02*
X107696000Y-144526000D01*
D22*
G04 #@! TO.N,/READY*
X111760000Y-127000000D02*
X105410000Y-127000000D01*
G04 #@! TO.N,/IRQ1*
X93980000Y-124460000D02*
X100330000Y-124460000D01*
G04 #@! TO.N,/IO_000X*
X100330000Y-127000000D02*
X93980000Y-127000000D01*
G04 #@! TO.N,/IO_002X*
X93980000Y-129540000D02*
X100330000Y-129540000D01*
G04 #@! TO.N,/IO_004X*
X100330000Y-132080000D02*
X93980000Y-132080000D01*
G04 #@! TO.N,/IO_006X*
X93980000Y-134620000D02*
X100330000Y-134620000D01*
G04 #@! TO.N,/IO_008X*
X100330000Y-137160000D02*
X93980000Y-137160000D01*
G04 #@! TO.N,/NMI*
X100330000Y-142240000D02*
X93980000Y-142240000D01*
G04 #@! TO.N,/SPK_OUT*
X111760000Y-142240000D02*
X105410000Y-142240000D01*
G04 #@! TO.N,/SPK_GO*
X105410000Y-139700000D02*
X111760000Y-139700000D01*
G04 #@! TO.N,/HF_PCLK*
X111760000Y-137160000D02*
X105410000Y-137160000D01*
G04 #@! TO.N,/DRQ0*
X105410000Y-134620000D02*
X111760000Y-134620000D01*
G04 #@! TO.N,/HOLDA*
X111760000Y-132080000D02*
X105410000Y-132080000D01*
G04 #@! TO.N,/HOLD*
X105410000Y-129540000D02*
X111760000Y-129540000D01*
X105410000Y-129540000D02*
X104140000Y-129540000D01*
X104140000Y-129540000D02*
X103632000Y-129540000D01*
G04 #@! TO.N,Net-(J2-PadS1)*
X100366000Y-22032000D02*
X96986000Y-22032000D01*
X96986000Y-13382000D02*
X100366000Y-13382000D01*
D23*
G04 #@! TO.N,/POWER_SUPPLY*
X99996000Y-19832000D02*
X101346000Y-19832000D01*
X99996000Y-15582000D02*
X101346000Y-15582000D01*
X98552000Y-15748000D02*
X98552000Y-15748000D01*
X98552000Y-26416000D02*
X100076000Y-26416000D01*
X99996000Y-19832000D02*
X98572000Y-19832000D01*
X99908000Y-15494000D02*
X98552000Y-15494000D01*
X99996000Y-15582000D02*
X99908000Y-15494000D01*
D22*
G04 #@! TO.N,/A0*
X105410000Y-114300000D02*
X111760000Y-114300000D01*
G04 #@! TO.N,/A1*
X111760000Y-111760000D02*
X105410000Y-111760000D01*
G04 #@! TO.N,/A2*
X105410000Y-109220000D02*
X111760000Y-109220000D01*
G04 #@! TO.N,/A3*
X111760000Y-106680000D02*
X105410000Y-106680000D01*
G04 #@! TO.N,/A4*
X105410000Y-104140000D02*
X111760000Y-104140000D01*
G04 #@! TO.N,/A5*
X111760000Y-101600000D02*
X105410000Y-101600000D01*
G04 #@! TO.N,/A6*
X105410000Y-99060000D02*
X111760000Y-99060000D01*
G04 #@! TO.N,/A7*
X111760000Y-96520000D02*
X105410000Y-96520000D01*
G04 #@! TO.N,/A8*
X105410000Y-93980000D02*
X111760000Y-93980000D01*
G04 #@! TO.N,/A9*
X111760000Y-91440000D02*
X105410000Y-91440000D01*
G04 #@! TO.N,/A10*
X105410000Y-88900000D02*
X111760000Y-88900000D01*
G04 #@! TO.N,/A11*
X111760000Y-86360000D02*
X105410000Y-86360000D01*
G04 #@! TO.N,/A12*
X105410000Y-83820000D02*
X111760000Y-83820000D01*
G04 #@! TO.N,/A13*
X111760000Y-81280000D02*
X105410000Y-81280000D01*
G04 #@! TO.N,/A14*
X105410000Y-78740000D02*
X111760000Y-78740000D01*
G04 #@! TO.N,/A15*
X111760000Y-76200000D02*
X105410000Y-76200000D01*
G04 #@! TO.N,/A16*
X105410000Y-73660000D02*
X111760000Y-73660000D01*
G04 #@! TO.N,/A17*
X111760000Y-71120000D02*
X105410000Y-71120000D01*
G04 #@! TO.N,/A18*
X105410000Y-68580000D02*
X111760000Y-68580000D01*
G04 #@! TO.N,/A19*
X111760000Y-66040000D02*
X105410000Y-66040000D01*
G04 #@! TO.N,/AEN*
X105410000Y-63500000D02*
X111760000Y-63500000D01*
G04 #@! TO.N,/RDY1*
X111760000Y-60960000D02*
X105410000Y-60960000D01*
X108966000Y-32258000D02*
X108966000Y-32258000D01*
X111760000Y-32258000D02*
X108204000Y-32258000D01*
G04 #@! TO.N,/D0*
X105410000Y-58420000D02*
X111760000Y-58420000D01*
G04 #@! TO.N,/D1*
X111760000Y-55880000D02*
X105410000Y-55880000D01*
G04 #@! TO.N,/D2*
X105410000Y-53340000D02*
X111760000Y-53340000D01*
G04 #@! TO.N,/D3*
X111760000Y-50800000D02*
X105410000Y-50800000D01*
G04 #@! TO.N,/D4*
X105410000Y-48260000D02*
X111760000Y-48260000D01*
G04 #@! TO.N,/D5*
X111760000Y-45720000D02*
X105410000Y-45720000D01*
G04 #@! TO.N,/D6*
X105410000Y-43180000D02*
X111760000Y-43180000D01*
G04 #@! TO.N,/D7*
X111760000Y-40640000D02*
X105410000Y-40640000D01*
G04 #@! TO.N,/CH_CK*
X105410000Y-38100000D02*
X111760000Y-38100000D01*
G04 #@! TO.N,/OSC88*
X100330000Y-111760000D02*
X93980000Y-111760000D01*
D23*
G04 #@! TO.N,/5+*
X93980000Y-43180000D02*
X97282000Y-43180000D01*
X93980000Y-109220000D02*
X100330000Y-109220000D01*
X97282000Y-43180000D02*
X100330000Y-43180000D01*
X100036000Y-28956000D02*
X100076000Y-28916000D01*
X97282000Y-28956000D02*
X100036000Y-28956000D01*
X100076000Y-28916000D02*
X103672000Y-28916000D01*
X103672000Y-28916000D02*
X104140000Y-28448000D01*
X104140000Y-28448000D02*
X109220000Y-28448000D01*
X109220000Y-28448000D02*
X109220000Y-28448000D01*
X111760000Y-14478000D02*
X109220000Y-14478000D01*
D22*
G04 #@! TO.N,/ALE*
X100330000Y-106680000D02*
X93980000Y-106680000D01*
G04 #@! TO.N,/TC*
X93980000Y-104140000D02*
X100330000Y-104140000D01*
G04 #@! TO.N,/DACK2*
X100330000Y-101600000D02*
X93980000Y-101600000D01*
G04 #@! TO.N,/IRQ3*
X93980000Y-99060000D02*
X100330000Y-99060000D01*
G04 #@! TO.N,/IRQ4*
X100330000Y-96520000D02*
X93980000Y-96520000D01*
G04 #@! TO.N,/IRQ5*
X93980000Y-93980000D02*
X100330000Y-93980000D01*
G04 #@! TO.N,/IRQ6*
X100330000Y-91440000D02*
X93980000Y-91440000D01*
G04 #@! TO.N,/IRQ7*
X93980000Y-88900000D02*
X100330000Y-88900000D01*
G04 #@! TO.N,/CLK88*
X100330000Y-86360000D02*
X93980000Y-86360000D01*
G04 #@! TO.N,/REFRQ*
X93980000Y-83820000D02*
X100330000Y-83820000D01*
G04 #@! TO.N,/DRQ1*
X100330000Y-81280000D02*
X93980000Y-81280000D01*
G04 #@! TO.N,/DACK1*
X93980000Y-78740000D02*
X100330000Y-78740000D01*
G04 #@! TO.N,/DRQ3*
X100330000Y-76200000D02*
X93980000Y-76200000D01*
G04 #@! TO.N,/DACK3*
X93980000Y-73660000D02*
X100330000Y-73660000D01*
G04 #@! TO.N,/IORD*
X100330000Y-71120000D02*
X93980000Y-71120000D01*
X100330000Y-71120000D02*
X103632000Y-71120000D01*
X111760000Y-29718000D02*
X105664000Y-29718000D01*
G04 #@! TO.N,/IOWR*
X93980000Y-68580000D02*
X100330000Y-68580000D01*
X100330000Y-68580000D02*
X103124000Y-68580000D01*
X111760000Y-27178000D02*
X104902000Y-27178000D01*
G04 #@! TO.N,/MRD*
X100330000Y-66040000D02*
X93980000Y-66040000D01*
X100330000Y-66040000D02*
X102616000Y-66040000D01*
X102616000Y-66040000D02*
X102616000Y-66040000D01*
X111760000Y-24638000D02*
X104140000Y-24638000D01*
G04 #@! TO.N,/MWR*
X93980000Y-63500000D02*
X100330000Y-63500000D01*
X101854000Y-63500000D02*
X101854000Y-63500000D01*
X100330000Y-63500000D02*
X102108000Y-63500000D01*
X104140000Y-22098000D02*
X111760000Y-22098000D01*
D23*
G04 #@! TO.N,/12+*
X93980000Y-58420000D02*
X100330000Y-58420000D01*
D22*
G04 #@! TO.N,/NC*
X100330000Y-55880000D02*
X93980000Y-55880000D01*
D23*
G04 #@! TO.N,/12-*
X93980000Y-53340000D02*
X100330000Y-53340000D01*
D22*
G04 #@! TO.N,/DRQ2*
X100330000Y-50800000D02*
X93980000Y-50800000D01*
G04 #@! TO.N,/5-*
X93980000Y-48260000D02*
X100330000Y-48260000D01*
G04 #@! TO.N,/IRQ2*
X100330000Y-45720000D02*
X93980000Y-45720000D01*
G04 #@! TO.N,/RESOUT*
X100330000Y-40640000D02*
X93980000Y-40640000D01*
G04 #@! TO.N,/PIN7*
X93980000Y-139700000D02*
X100330000Y-139700000D01*
G04 #@! TD*
M02*
