G04 #@! TF.GenerationSoftware,KiCad,Pcbnew,(5.1.8)-1*
G04 #@! TF.CreationDate,2021-11-26T20:47:01-07:00*
G04 #@! TF.ProjectId,80188,38303138-382e-46b6-9963-61645f706362,rev?*
G04 #@! TF.SameCoordinates,Original*
G04 #@! TF.FileFunction,Copper,L2,Bot*
G04 #@! TF.FilePolarity,Positive*
%FSLAX46Y46*%
G04 Gerber Fmt 4.6, Leading zero omitted, Abs format (unit mm)*
G04 Created by KiCad (PCBNEW (5.1.8)-1) date 2021-11-26 20:47:01*
%MOMM*%
%LPD*%
G01*
G04 APERTURE LIST*
G04 #@! TA.AperFunction,ComponentPad*
%ADD10O,1.600000X1.600000*%
G04 #@! TD*
G04 #@! TA.AperFunction,ComponentPad*
%ADD11C,1.600000*%
G04 #@! TD*
G04 #@! TA.AperFunction,ComponentPad*
%ADD12C,1.500000*%
G04 #@! TD*
G04 #@! TA.AperFunction,ComponentPad*
%ADD13C,1.422400*%
G04 #@! TD*
G04 #@! TA.AperFunction,ComponentPad*
%ADD14R,1.422400X1.422400*%
G04 #@! TD*
G04 #@! TA.AperFunction,ComponentPad*
%ADD15R,1.600000X1.600000*%
G04 #@! TD*
G04 #@! TA.AperFunction,ConnectorPad*
%ADD16R,1.780000X7.620000*%
G04 #@! TD*
G04 #@! TA.AperFunction,ComponentPad*
%ADD17C,3.556000*%
G04 #@! TD*
G04 #@! TA.AperFunction,ViaPad*
%ADD18C,0.800000*%
G04 #@! TD*
G04 #@! TA.AperFunction,Conductor*
%ADD19C,0.330200*%
G04 #@! TD*
G04 #@! TA.AperFunction,Conductor*
%ADD20C,0.250000*%
G04 #@! TD*
G04 APERTURE END LIST*
D10*
G04 #@! TO.P,R2,2*
G04 #@! TO.N,/5+*
X156456380Y-73888600D03*
D11*
G04 #@! TO.P,R2,1*
G04 #@! TO.N,/INTA*
X146296380Y-73888600D03*
G04 #@! TD*
D12*
G04 #@! TO.P,Y1,2*
G04 #@! TO.N,/X1*
X69154380Y-62966600D03*
G04 #@! TO.P,Y1,1*
G04 #@! TO.N,/X2*
X64254380Y-62966600D03*
G04 #@! TD*
D13*
G04 #@! TO.P,80188,51*
G04 #@! TO.N,/HOLDA*
X76446380Y-76428600D03*
G04 #@! TO.P,80188,49*
G04 #@! TO.N,/GND*
X76446380Y-78968600D03*
G04 #@! TO.P,80188,47*
X76446380Y-81508600D03*
G04 #@! TO.P,80188,45*
G04 #@! TO.N,/INTR*
X76446380Y-84048600D03*
G04 #@! TO.P,80188,43*
G04 #@! TO.N,/5+*
X76446380Y-86588600D03*
G04 #@! TO.P,80188,41*
G04 #@! TO.N,N/C*
X76446380Y-89128600D03*
G04 #@! TO.P,80188,39*
G04 #@! TO.N,/DEN*
X76446380Y-91668600D03*
G04 #@! TO.P,80188,37*
G04 #@! TO.N,N/C*
X76446380Y-94208600D03*
G04 #@! TO.P,80188,52*
X73906380Y-73888600D03*
G04 #@! TO.P,80188,50*
G04 #@! TO.N,/HOLD*
X73906380Y-78968600D03*
G04 #@! TO.P,80188,48*
G04 #@! TO.N,N/C*
X73906380Y-81508600D03*
G04 #@! TO.P,80188,46*
G04 #@! TO.N,/NMI*
X73906380Y-84048600D03*
G04 #@! TO.P,80188,44*
G04 #@! TO.N,/5+*
X73906380Y-86588600D03*
G04 #@! TO.P,80188,42*
G04 #@! TO.N,/INTA*
X73906380Y-89128600D03*
G04 #@! TO.P,80188,40*
G04 #@! TO.N,/DTR*
X73906380Y-91668600D03*
G04 #@! TO.P,80188,38*
G04 #@! TO.N,N/C*
X73906380Y-94208600D03*
G04 #@! TO.P,80188,36*
X73906380Y-96748600D03*
G04 #@! TO.P,80188,34*
X73906380Y-99288600D03*
G04 #@! TO.P,80188,32*
X71366380Y-99288600D03*
G04 #@! TO.P,80188,30*
X68826380Y-99288600D03*
G04 #@! TO.P,80188,28*
X66286380Y-99288600D03*
G04 #@! TO.P,80188,26*
G04 #@! TO.N,/GND*
X63746380Y-99288600D03*
G04 #@! TO.P,80188,24*
G04 #@! TO.N,/RESET*
X61206380Y-99288600D03*
G04 #@! TO.P,80188,22*
G04 #@! TO.N,N/C*
X58666380Y-99288600D03*
G04 #@! TO.P,80188,20*
X56126380Y-99288600D03*
G04 #@! TO.P,80188,18*
X53586380Y-99288600D03*
G04 #@! TO.P,80188,35*
X76446380Y-96748600D03*
G04 #@! TO.P,80188,33*
X71366380Y-96748600D03*
G04 #@! TO.P,80188,31*
X68826380Y-96748600D03*
G04 #@! TO.P,80188,29*
X66286380Y-96748600D03*
G04 #@! TO.P,80188,27*
X63746380Y-96748600D03*
G04 #@! TO.P,80188,25*
X61206380Y-96748600D03*
G04 #@! TO.P,80188,23*
X58666380Y-96748600D03*
G04 #@! TO.P,80188,21*
X56126380Y-96748600D03*
G04 #@! TO.P,80188,19*
X53586380Y-96748600D03*
G04 #@! TO.P,80188,17*
G04 #@! TO.N,/AD0*
X51046380Y-96748600D03*
G04 #@! TO.P,80188,15*
G04 #@! TO.N,/AD1*
X51046380Y-94208600D03*
G04 #@! TO.P,80188,13*
G04 #@! TO.N,/AD2*
X51046380Y-91668600D03*
G04 #@! TO.P,80188,11*
G04 #@! TO.N,/AD3*
X51046380Y-89128600D03*
G04 #@! TO.P,80188,9*
G04 #@! TO.N,/5+*
X51046380Y-86588600D03*
G04 #@! TO.P,80188,7*
G04 #@! TO.N,/A12*
X51046380Y-84048600D03*
G04 #@! TO.P,80188,5*
G04 #@! TO.N,/A13*
X51046380Y-81508600D03*
G04 #@! TO.P,80188,3*
G04 #@! TO.N,/A14*
X51046380Y-78968600D03*
G04 #@! TO.P,80188,1*
G04 #@! TO.N,/A15*
X51046380Y-76428600D03*
G04 #@! TO.P,80188,16*
G04 #@! TO.N,/A8*
X53586380Y-94208600D03*
G04 #@! TO.P,80188,14*
G04 #@! TO.N,/A9*
X53586380Y-91668600D03*
G04 #@! TO.P,80188,12*
G04 #@! TO.N,/A10*
X53586380Y-89128600D03*
G04 #@! TO.P,80188,10*
G04 #@! TO.N,/A11*
X53586380Y-86588600D03*
G04 #@! TO.P,80188,8*
G04 #@! TO.N,/AD4*
X53586380Y-84048600D03*
G04 #@! TO.P,80188,6*
G04 #@! TO.N,/AD5*
X53586380Y-81508600D03*
G04 #@! TO.P,80188,4*
G04 #@! TO.N,/AD6*
X53586380Y-78968600D03*
G04 #@! TO.P,80188,2*
G04 #@! TO.N,/AD7*
X53586380Y-76428600D03*
G04 #@! TO.P,80188,54*
G04 #@! TO.N,/S2*
X71366380Y-73888600D03*
G04 #@! TO.P,80188,56*
G04 #@! TO.N,N/C*
X68826380Y-73888600D03*
G04 #@! TO.P,80188,58*
G04 #@! TO.N,/X2*
X66286380Y-73888600D03*
G04 #@! TO.P,80188,68*
G04 #@! TO.N,/A16_*
X53586380Y-73888600D03*
G04 #@! TO.P,80188,66*
G04 #@! TO.N,/A18_*
X56126380Y-73888600D03*
G04 #@! TO.P,80188,64*
G04 #@! TO.N,N/C*
X58666380Y-73888600D03*
G04 #@! TO.P,80188,62*
G04 #@! TO.N,/RD*
X61206380Y-73888600D03*
D14*
G04 #@! TO.P,80188,60*
G04 #@! TO.N,/GND*
X63746380Y-73888600D03*
D13*
G04 #@! TO.P,80188,53*
G04 #@! TO.N,N/C*
X73906380Y-76428600D03*
G04 #@! TO.P,80188,55*
G04 #@! TO.N,/RDY1*
X71366380Y-76428600D03*
G04 #@! TO.P,80188,57*
G04 #@! TO.N,N/C*
X68826380Y-76428600D03*
G04 #@! TO.P,80188,59*
G04 #@! TO.N,/X1*
X66286380Y-76428600D03*
G04 #@! TO.P,80188,67*
G04 #@! TO.N,/A17_*
X56126380Y-76428600D03*
G04 #@! TO.P,80188,65*
G04 #@! TO.N,/A19_*
X58666380Y-76428600D03*
G04 #@! TO.P,80188,63*
G04 #@! TO.N,/WR*
X61206380Y-76428600D03*
G04 #@! TO.P,80188,61*
G04 #@! TO.N,/ALE*
X63746380Y-76428600D03*
G04 #@! TD*
D10*
G04 #@! TO.P,U8,16*
G04 #@! TO.N,/5+*
X133596380Y-71348600D03*
G04 #@! TO.P,U8,8*
G04 #@! TO.N,/GND*
X115816380Y-63728600D03*
G04 #@! TO.P,U8,15*
G04 #@! TO.N,/HOLDA*
X131056380Y-71348600D03*
G04 #@! TO.P,U8,7*
G04 #@! TO.N,/MRD*
X118356380Y-63728600D03*
G04 #@! TO.P,U8,14*
G04 #@! TO.N,/PU1*
X128516380Y-71348600D03*
G04 #@! TO.P,U8,6*
G04 #@! TO.N,/RD*
X120896380Y-63728600D03*
G04 #@! TO.P,U8,13*
G04 #@! TO.N,/WR*
X125976380Y-71348600D03*
G04 #@! TO.P,U8,5*
G04 #@! TO.N,/PU1*
X123436380Y-63728600D03*
G04 #@! TO.P,U8,12*
G04 #@! TO.N,/MWR*
X123436380Y-71348600D03*
G04 #@! TO.P,U8,4*
G04 #@! TO.N,/IORD*
X125976380Y-63728600D03*
G04 #@! TO.P,U8,11*
G04 #@! TO.N,/WR*
X120896380Y-71348600D03*
G04 #@! TO.P,U8,3*
G04 #@! TO.N,/PU1*
X128516380Y-63728600D03*
G04 #@! TO.P,U8,10*
X118356380Y-71348600D03*
G04 #@! TO.P,U8,2*
G04 #@! TO.N,/RD*
X131056380Y-63728600D03*
G04 #@! TO.P,U8,9*
G04 #@! TO.N,/IOWR*
X115816380Y-71348600D03*
D15*
G04 #@! TO.P,U8,1*
G04 #@! TO.N,/IO_M*
X133596380Y-63728600D03*
G04 #@! TD*
D10*
G04 #@! TO.P,U7,24*
G04 #@! TO.N,/5+*
X176776380Y-89128600D03*
G04 #@! TO.P,U7,12*
G04 #@! TO.N,/GND*
X161536380Y-117068600D03*
G04 #@! TO.P,U7,23*
G04 #@! TO.N,/IOWR*
X176776380Y-91668600D03*
G04 #@! TO.P,U7,11*
G04 #@! TO.N,/5+*
X161536380Y-114528600D03*
G04 #@! TO.P,U7,22*
G04 #@! TO.N,/IORD*
X176776380Y-94208600D03*
G04 #@! TO.P,U7,10*
G04 #@! TO.N,/IRQ0*
X161536380Y-111988600D03*
G04 #@! TO.P,U7,21*
G04 #@! TO.N,/IO_004X*
X176776380Y-96748600D03*
G04 #@! TO.P,U7,9*
G04 #@! TO.N,/HF_PCLK*
X161536380Y-109448600D03*
G04 #@! TO.P,U7,20*
G04 #@! TO.N,/A1*
X176776380Y-99288600D03*
G04 #@! TO.P,U7,8*
G04 #@! TO.N,/D0*
X161536380Y-106908600D03*
G04 #@! TO.P,U7,19*
G04 #@! TO.N,/A0*
X176776380Y-101828600D03*
G04 #@! TO.P,U7,7*
G04 #@! TO.N,/D1*
X161536380Y-104368600D03*
G04 #@! TO.P,U7,18*
G04 #@! TO.N,/HF_PCLK*
X176776380Y-104368600D03*
G04 #@! TO.P,U7,6*
G04 #@! TO.N,/D2*
X161536380Y-101828600D03*
G04 #@! TO.P,U7,17*
G04 #@! TO.N,/SPK_OUT*
X176776380Y-106908600D03*
G04 #@! TO.P,U7,5*
G04 #@! TO.N,/D3*
X161536380Y-99288600D03*
G04 #@! TO.P,U7,16*
G04 #@! TO.N,/SPK_GO*
X176776380Y-109448600D03*
G04 #@! TO.P,U7,4*
G04 #@! TO.N,/D4*
X161536380Y-96748600D03*
G04 #@! TO.P,U7,15*
G04 #@! TO.N,/HF_PCLK*
X176776380Y-111988600D03*
G04 #@! TO.P,U7,3*
G04 #@! TO.N,/D5*
X161536380Y-94208600D03*
G04 #@! TO.P,U7,14*
G04 #@! TO.N,/5+*
X176776380Y-114528600D03*
G04 #@! TO.P,U7,2*
G04 #@! TO.N,/D6*
X161536380Y-91668600D03*
G04 #@! TO.P,U7,13*
G04 #@! TO.N,Net-(U7-Pad13)*
X176776380Y-117068600D03*
D15*
G04 #@! TO.P,U7,1*
G04 #@! TO.N,/D7*
X161536380Y-89128600D03*
G04 #@! TD*
D10*
G04 #@! TO.P,U6,28*
G04 #@! TO.N,/5+*
X156456380Y-84048600D03*
G04 #@! TO.P,U6,14*
G04 #@! TO.N,/GND*
X141216380Y-117068600D03*
G04 #@! TO.P,U6,27*
G04 #@! TO.N,/A0*
X156456380Y-86588600D03*
G04 #@! TO.P,U6,13*
G04 #@! TO.N,Net-(U6-Pad13)*
X141216380Y-114528600D03*
G04 #@! TO.P,U6,26*
G04 #@! TO.N,/INTA*
X156456380Y-89128600D03*
G04 #@! TO.P,U6,12*
G04 #@! TO.N,Net-(U6-Pad12)*
X141216380Y-111988600D03*
G04 #@! TO.P,U6,25*
G04 #@! TO.N,/IRQ7*
X156456380Y-91668600D03*
G04 #@! TO.P,U6,11*
G04 #@! TO.N,/D0*
X141216380Y-109448600D03*
G04 #@! TO.P,U6,24*
G04 #@! TO.N,/IRQ6*
X156456380Y-94208600D03*
G04 #@! TO.P,U6,10*
G04 #@! TO.N,/D1*
X141216380Y-106908600D03*
G04 #@! TO.P,U6,23*
G04 #@! TO.N,/IRQ5*
X156456380Y-96748600D03*
G04 #@! TO.P,U6,9*
G04 #@! TO.N,/D2*
X141216380Y-104368600D03*
G04 #@! TO.P,U6,22*
G04 #@! TO.N,/IRQ4*
X156456380Y-99288600D03*
G04 #@! TO.P,U6,8*
G04 #@! TO.N,/D3*
X141216380Y-101828600D03*
G04 #@! TO.P,U6,21*
G04 #@! TO.N,/IRQ3*
X156456380Y-101828600D03*
G04 #@! TO.P,U6,7*
G04 #@! TO.N,/D4*
X141216380Y-99288600D03*
G04 #@! TO.P,U6,20*
G04 #@! TO.N,/IRQ2*
X156456380Y-104368600D03*
G04 #@! TO.P,U6,6*
G04 #@! TO.N,/D5*
X141216380Y-96748600D03*
G04 #@! TO.P,U6,19*
G04 #@! TO.N,/IRQ1*
X156456380Y-106908600D03*
G04 #@! TO.P,U6,5*
G04 #@! TO.N,/D6*
X141216380Y-94208600D03*
G04 #@! TO.P,U6,18*
G04 #@! TO.N,/IRQ0*
X156456380Y-109448600D03*
G04 #@! TO.P,U6,4*
G04 #@! TO.N,/D7*
X141216380Y-91668600D03*
G04 #@! TO.P,U6,17*
G04 #@! TO.N,/INTR*
X156456380Y-111988600D03*
G04 #@! TO.P,U6,3*
G04 #@! TO.N,/IORD*
X141216380Y-89128600D03*
G04 #@! TO.P,U6,16*
G04 #@! TO.N,/5+*
X156456380Y-114528600D03*
G04 #@! TO.P,U6,2*
G04 #@! TO.N,/IOWR*
X141216380Y-86588600D03*
G04 #@! TO.P,U6,15*
G04 #@! TO.N,Net-(U6-Pad15)*
X156456380Y-117068600D03*
D15*
G04 #@! TO.P,U6,1*
G04 #@! TO.N,/IO_002X*
X141216380Y-84048600D03*
G04 #@! TD*
D10*
G04 #@! TO.P,R5,2*
G04 #@! TO.N,/5+*
X156456380Y-67792600D03*
D11*
G04 #@! TO.P,R5,1*
G04 #@! TO.N,/PU1*
X146296380Y-67792600D03*
G04 #@! TD*
D10*
G04 #@! TO.P,R1,2*
G04 #@! TO.N,/5+*
X156456380Y-70840600D03*
D11*
G04 #@! TO.P,R1,1*
G04 #@! TO.N,/DEN*
X146296380Y-70840600D03*
G04 #@! TD*
G04 #@! TO.P,C8,2*
G04 #@! TO.N,/5+*
X136898380Y-71348600D03*
G04 #@! TO.P,C8,1*
G04 #@! TO.N,/GND*
X136898380Y-66348600D03*
G04 #@! TD*
G04 #@! TO.P,C7,2*
G04 #@! TO.N,/5+*
X156456380Y-80746600D03*
G04 #@! TO.P,C7,1*
G04 #@! TO.N,/GND*
X151456380Y-80746600D03*
G04 #@! TD*
G04 #@! TO.P,C6,2*
G04 #@! TO.N,/5+*
X176776380Y-85826600D03*
G04 #@! TO.P,C6,1*
G04 #@! TO.N,/GND*
X171776380Y-85826600D03*
G04 #@! TD*
G04 #@! TO.P,C5,2*
G04 #@! TO.N,/5+*
X81272380Y-86508600D03*
G04 #@! TO.P,C5,1*
G04 #@! TO.N,/GND*
X81272380Y-81508600D03*
G04 #@! TD*
D16*
G04 #@! TO.P,J1,8*
G04 #@! TO.N,/NMI*
X57396380Y-129768600D03*
G04 #@! TO.P,J1,7*
G04 #@! TO.N,Net-(J1-Pad7)*
X59936380Y-129768600D03*
G04 #@! TO.P,J1,6*
G04 #@! TO.N,/IO_008X*
X62476380Y-129768600D03*
G04 #@! TO.P,J1,5*
G04 #@! TO.N,/IO_006X*
X65016380Y-129768600D03*
G04 #@! TO.P,J1,4*
G04 #@! TO.N,/IO_004X*
X67556380Y-129768600D03*
G04 #@! TO.P,J1,3*
G04 #@! TO.N,/IO_002X*
X70096380Y-129768600D03*
G04 #@! TO.P,J1,2*
G04 #@! TO.N,/IO_000X*
X72636380Y-129768600D03*
G04 #@! TO.P,J1,1*
G04 #@! TO.N,/IRQ1*
X75176380Y-129768600D03*
G04 #@! TD*
D10*
G04 #@! TO.P,U4,20*
G04 #@! TO.N,/5+*
X136136380Y-86588600D03*
G04 #@! TO.P,U4,10*
G04 #@! TO.N,/GND*
X128516380Y-109448600D03*
G04 #@! TO.P,U4,19*
G04 #@! TO.N,/DEN*
X136136380Y-89128600D03*
G04 #@! TO.P,U4,9*
G04 #@! TO.N,/AD0*
X128516380Y-106908600D03*
G04 #@! TO.P,U4,18*
G04 #@! TO.N,/D7*
X136136380Y-91668600D03*
G04 #@! TO.P,U4,8*
G04 #@! TO.N,/AD1*
X128516380Y-104368600D03*
G04 #@! TO.P,U4,17*
G04 #@! TO.N,/D6*
X136136380Y-94208600D03*
G04 #@! TO.P,U4,7*
G04 #@! TO.N,/AD2*
X128516380Y-101828600D03*
G04 #@! TO.P,U4,16*
G04 #@! TO.N,/D5*
X136136380Y-96748600D03*
G04 #@! TO.P,U4,6*
G04 #@! TO.N,/AD3*
X128516380Y-99288600D03*
G04 #@! TO.P,U4,15*
G04 #@! TO.N,/D4*
X136136380Y-99288600D03*
G04 #@! TO.P,U4,5*
G04 #@! TO.N,/AD4*
X128516380Y-96748600D03*
G04 #@! TO.P,U4,14*
G04 #@! TO.N,/D3*
X136136380Y-101828600D03*
G04 #@! TO.P,U4,4*
G04 #@! TO.N,/AD5*
X128516380Y-94208600D03*
G04 #@! TO.P,U4,13*
G04 #@! TO.N,/D2*
X136136380Y-104368600D03*
G04 #@! TO.P,U4,3*
G04 #@! TO.N,/AD6*
X128516380Y-91668600D03*
G04 #@! TO.P,U4,12*
G04 #@! TO.N,/D1*
X136136380Y-106908600D03*
G04 #@! TO.P,U4,2*
G04 #@! TO.N,/AD7*
X128516380Y-89128600D03*
G04 #@! TO.P,U4,11*
G04 #@! TO.N,/D0*
X136136380Y-109448600D03*
D15*
G04 #@! TO.P,U4,1*
G04 #@! TO.N,/DTR*
X128516380Y-86588600D03*
G04 #@! TD*
D10*
G04 #@! TO.P,U3,20*
G04 #@! TO.N,/5+*
X108196380Y-71348600D03*
G04 #@! TO.P,U3,10*
G04 #@! TO.N,/GND*
X85336380Y-63728600D03*
G04 #@! TO.P,U3,19*
G04 #@! TO.N,/A19*
X105656380Y-71348600D03*
G04 #@! TO.P,U3,9*
G04 #@! TO.N,/S2*
X87876380Y-63728600D03*
G04 #@! TO.P,U3,18*
G04 #@! TO.N,/A18*
X103116380Y-71348600D03*
G04 #@! TO.P,U3,8*
G04 #@! TO.N,Net-(U3-Pad8)*
X90416380Y-63728600D03*
G04 #@! TO.P,U3,17*
G04 #@! TO.N,/A17*
X100576380Y-71348600D03*
G04 #@! TO.P,U3,7*
G04 #@! TO.N,Net-(U3-Pad7)*
X92956380Y-63728600D03*
G04 #@! TO.P,U3,16*
G04 #@! TO.N,/A16*
X98036380Y-71348600D03*
G04 #@! TO.P,U3,6*
G04 #@! TO.N,Net-(U3-Pad6)*
X95496380Y-63728600D03*
G04 #@! TO.P,U3,15*
G04 #@! TO.N,Net-(U3-Pad15)*
X95496380Y-71348600D03*
G04 #@! TO.P,U3,5*
G04 #@! TO.N,/A16_*
X98036380Y-63728600D03*
G04 #@! TO.P,U3,14*
G04 #@! TO.N,Net-(U3-Pad14)*
X92956380Y-71348600D03*
G04 #@! TO.P,U3,4*
G04 #@! TO.N,/A17_*
X100576380Y-63728600D03*
G04 #@! TO.P,U3,13*
G04 #@! TO.N,Net-(U3-Pad13)*
X90416380Y-71348600D03*
G04 #@! TO.P,U3,3*
G04 #@! TO.N,/A18_*
X103116380Y-63728600D03*
G04 #@! TO.P,U3,12*
G04 #@! TO.N,/IO_M*
X87876380Y-71348600D03*
G04 #@! TO.P,U3,2*
G04 #@! TO.N,/A19_*
X105656380Y-63728600D03*
G04 #@! TO.P,U3,11*
G04 #@! TO.N,/ALE*
X85336380Y-71348600D03*
D15*
G04 #@! TO.P,U3,1*
G04 #@! TO.N,/HOLDA*
X108196380Y-63728600D03*
G04 #@! TD*
D10*
G04 #@! TO.P,U2,20*
G04 #@! TO.N,/5+*
X105656380Y-117068600D03*
G04 #@! TO.P,U2,10*
G04 #@! TO.N,/GND*
X82796380Y-109448600D03*
G04 #@! TO.P,U2,19*
G04 #@! TO.N,/A7*
X103116380Y-117068600D03*
G04 #@! TO.P,U2,9*
G04 #@! TO.N,/AD0*
X85336380Y-109448600D03*
G04 #@! TO.P,U2,18*
G04 #@! TO.N,/A6*
X100576380Y-117068600D03*
G04 #@! TO.P,U2,8*
G04 #@! TO.N,/AD1*
X87876380Y-109448600D03*
G04 #@! TO.P,U2,17*
G04 #@! TO.N,/A5*
X98036380Y-117068600D03*
G04 #@! TO.P,U2,7*
G04 #@! TO.N,/AD2*
X90416380Y-109448600D03*
G04 #@! TO.P,U2,16*
G04 #@! TO.N,/A4*
X95496380Y-117068600D03*
G04 #@! TO.P,U2,6*
G04 #@! TO.N,/AD3*
X92956380Y-109448600D03*
G04 #@! TO.P,U2,15*
G04 #@! TO.N,/A3*
X92956380Y-117068600D03*
G04 #@! TO.P,U2,5*
G04 #@! TO.N,/AD4*
X95496380Y-109448600D03*
G04 #@! TO.P,U2,14*
G04 #@! TO.N,/A2*
X90416380Y-117068600D03*
G04 #@! TO.P,U2,4*
G04 #@! TO.N,/AD5*
X98036380Y-109448600D03*
G04 #@! TO.P,U2,13*
G04 #@! TO.N,/A1*
X87876380Y-117068600D03*
G04 #@! TO.P,U2,3*
G04 #@! TO.N,/AD6*
X100576380Y-109448600D03*
G04 #@! TO.P,U2,12*
G04 #@! TO.N,/A0*
X85336380Y-117068600D03*
G04 #@! TO.P,U2,2*
G04 #@! TO.N,/AD7*
X103116380Y-109448600D03*
G04 #@! TO.P,U2,11*
G04 #@! TO.N,/ALE*
X82796380Y-117068600D03*
D15*
G04 #@! TO.P,U2,1*
G04 #@! TO.N,/HOLDA*
X105656380Y-109448600D03*
G04 #@! TD*
D11*
G04 #@! TO.P,C4,2*
G04 #@! TO.N,/5+*
X136136380Y-83286600D03*
G04 #@! TO.P,C4,1*
G04 #@! TO.N,/GND*
X131136380Y-83286600D03*
G04 #@! TD*
G04 #@! TO.P,C3,2*
G04 #@! TO.N,/5+*
X111498380Y-71348600D03*
G04 #@! TO.P,C3,1*
G04 #@! TO.N,/GND*
X111498380Y-66348600D03*
G04 #@! TD*
G04 #@! TO.P,C2,2*
G04 #@! TO.N,/5+*
X108958380Y-117068600D03*
G04 #@! TO.P,C2,1*
G04 #@! TO.N,/GND*
X108958380Y-112068600D03*
G04 #@! TD*
D16*
G04 #@! TO.P,J9,31*
G04 #@! TO.N,/GND*
X85336380Y-129768600D03*
G04 #@! TO.P,J9,30*
G04 #@! TO.N,/OSC88*
X87876380Y-129768600D03*
G04 #@! TO.P,J9,29*
G04 #@! TO.N,/5+*
X90416380Y-129768600D03*
G04 #@! TO.P,J9,28*
G04 #@! TO.N,/ALE*
X92956380Y-129768600D03*
G04 #@! TO.P,J9,27*
G04 #@! TO.N,/TC*
X95496380Y-129768600D03*
G04 #@! TO.P,J9,26*
G04 #@! TO.N,/DACK2*
X98036380Y-129768600D03*
G04 #@! TO.P,J9,25*
G04 #@! TO.N,/IRQ3*
X100576380Y-129768600D03*
G04 #@! TO.P,J9,24*
G04 #@! TO.N,/IRQ4*
X103116380Y-129768600D03*
G04 #@! TO.P,J9,23*
G04 #@! TO.N,/IRQ5*
X105656380Y-129768600D03*
G04 #@! TO.P,J9,22*
G04 #@! TO.N,/IRQ6*
X108196380Y-129768600D03*
G04 #@! TO.P,J9,21*
G04 #@! TO.N,/IRQ7*
X110736380Y-129768600D03*
G04 #@! TO.P,J9,20*
G04 #@! TO.N,/CLK88*
X113276380Y-129768600D03*
G04 #@! TO.P,J9,19*
G04 #@! TO.N,/REFRQ*
X115816380Y-129768600D03*
G04 #@! TO.P,J9,18*
G04 #@! TO.N,/DRQ1*
X118356380Y-129768600D03*
G04 #@! TO.P,J9,17*
G04 #@! TO.N,/DACK1*
X120896380Y-129768600D03*
G04 #@! TO.P,J9,16*
G04 #@! TO.N,/DRQ3*
X123436380Y-129768600D03*
G04 #@! TO.P,J9,15*
G04 #@! TO.N,/DACK3*
X125976380Y-129768600D03*
G04 #@! TO.P,J9,14*
G04 #@! TO.N,/IORD*
X128516380Y-129768600D03*
G04 #@! TO.P,J9,13*
G04 #@! TO.N,/IOWR*
X131056380Y-129768600D03*
G04 #@! TO.P,J9,12*
G04 #@! TO.N,/MRD*
X133596380Y-129768600D03*
G04 #@! TO.P,J9,11*
G04 #@! TO.N,/MWR*
X136136380Y-129768600D03*
G04 #@! TO.P,J9,10*
G04 #@! TO.N,/GND*
X138676380Y-129768600D03*
G04 #@! TO.P,J9,9*
G04 #@! TO.N,/12+*
X141216380Y-129768600D03*
G04 #@! TO.P,J9,8*
G04 #@! TO.N,/NC*
X143756380Y-129768600D03*
G04 #@! TO.P,J9,7*
G04 #@! TO.N,/12-*
X146296380Y-129768600D03*
G04 #@! TO.P,J9,6*
G04 #@! TO.N,/DRQ2*
X148836380Y-129768600D03*
G04 #@! TO.P,J9,5*
G04 #@! TO.N,/5-*
X151376380Y-129768600D03*
G04 #@! TO.P,J9,4*
G04 #@! TO.N,/IRQ2*
X153916380Y-129768600D03*
G04 #@! TO.P,J9,3*
G04 #@! TO.N,/5+*
X156456380Y-129768600D03*
G04 #@! TO.P,J9,2*
G04 #@! TO.N,/RESOUT*
X158996380Y-129768600D03*
G04 #@! TO.P,J9,1*
G04 #@! TO.N,/GND*
X161536380Y-129768600D03*
G04 #@! TD*
D17*
G04 #@! TO.P,R,1*
G04 #@! TO.N,/GND*
X181602380Y-122148600D03*
G04 #@! TD*
G04 #@! TO.P,R,1*
G04 #@! TO.N,/GND*
X181602380Y-64998600D03*
G04 #@! TD*
D18*
G04 #@! TO.N,/5+*
X55618380Y-86588600D03*
X156964380Y-120370600D03*
X163822380Y-120370600D03*
X163822380Y-114528600D03*
X176776380Y-81254600D03*
X109466380Y-84048600D03*
X109466380Y-114274596D03*
X163822380Y-81254600D03*
X91686384Y-114274596D03*
X91686384Y-86588604D03*
X109466380Y-86080600D03*
G04 #@! TO.N,/GND*
X161536380Y-122148600D03*
X108450380Y-115290600D03*
X82288380Y-115290600D03*
X153916380Y-66014600D03*
X116324380Y-66014600D03*
X128516380Y-111734600D03*
X137914380Y-111734600D03*
X171696380Y-66014600D03*
X171442380Y-122148600D03*
X86606380Y-115290600D03*
X153916380Y-79730600D03*
X131056380Y-80746600D03*
X138676380Y-116560600D03*
X83304380Y-64236600D03*
X82796380Y-100812600D03*
X63746380Y-100812600D03*
X83304380Y-81508600D03*
X63746380Y-72110600D03*
X83304380Y-72110600D03*
G04 #@! TO.N,/IRQ2*
X153916380Y-104876600D03*
G04 #@! TO.N,/IRQ7*
X152392380Y-92176600D03*
X111498380Y-122910600D03*
X152392380Y-122910600D03*
G04 #@! TO.N,/IRQ6*
X108958380Y-122402600D03*
X151376380Y-94970600D03*
X151376380Y-122402600D03*
G04 #@! TO.N,/IRQ5*
X106418380Y-121640600D03*
X149852380Y-121640600D03*
X149852380Y-97256600D03*
G04 #@! TO.N,/IRQ4*
X103878380Y-120878600D03*
X148836380Y-120878600D03*
X148836380Y-99796600D03*
G04 #@! TO.N,/IRQ3*
X101338380Y-120116600D03*
X147312380Y-120116600D03*
X147312380Y-102336600D03*
G04 #@! TO.N,/ALE*
X94226380Y-101066600D03*
X85336398Y-101066600D03*
X84066380Y-101066600D03*
X85336380Y-69570600D03*
X62476380Y-69570600D03*
G04 #@! TO.N,/D7*
X158234380Y-124942600D03*
X158234380Y-90398600D03*
G04 #@! TO.N,/D6*
X155694380Y-124942600D03*
X154678380Y-93700600D03*
G04 #@! TO.N,/D5*
X153154380Y-124942600D03*
X153154380Y-96240600D03*
G04 #@! TO.N,/D4*
X150614380Y-124942600D03*
X150614380Y-98780600D03*
G04 #@! TO.N,/D3*
X148074380Y-124942600D03*
X148074380Y-101320600D03*
G04 #@! TO.N,/D2*
X145534380Y-124942600D03*
X145534380Y-103860600D03*
G04 #@! TO.N,/D1*
X142994380Y-124942600D03*
X142994380Y-106400600D03*
G04 #@! TO.N,/D0*
X140454380Y-124942600D03*
X139438380Y-109448600D03*
G04 #@! TO.N,/RDY1*
X137660380Y-124942600D03*
X137660380Y-117830600D03*
X135120380Y-117830600D03*
X134104380Y-76936600D03*
X78732380Y-76936600D03*
X78732380Y-75158600D03*
G04 #@! TO.N,/A19*
X133088380Y-124942600D03*
X105656366Y-75412600D03*
X114546380Y-115544600D03*
X133088380Y-115544610D03*
X114546380Y-75412600D03*
G04 #@! TO.N,/A18*
X130548380Y-124942600D03*
X113530380Y-116306602D03*
X130548380Y-116306592D03*
X103116380Y-76174600D03*
X113530380Y-76174600D03*
G04 #@! TO.N,/A17*
X128008380Y-124942600D03*
X128008380Y-117068592D03*
X112006380Y-117068600D03*
X112006380Y-78460600D03*
X100576380Y-78460600D03*
G04 #@! TO.N,/A16*
X125468380Y-124942600D03*
X98036388Y-81508600D03*
X111244380Y-81508600D03*
X111244380Y-117830600D03*
X125468380Y-117830600D03*
G04 #@! TO.N,/A15*
X123182380Y-124942600D03*
X54856380Y-77698600D03*
X123182380Y-77698600D03*
G04 #@! TO.N,/A14*
X120388380Y-124942600D03*
X54856380Y-80238600D03*
X120388380Y-80238600D03*
G04 #@! TO.N,/A13*
X117848380Y-124942600D03*
X54856380Y-82778600D03*
X117848380Y-82778600D03*
G04 #@! TO.N,/A12*
X115308380Y-124942600D03*
X54856380Y-85318600D03*
X115308380Y-85064600D03*
G04 #@! TO.N,/A11*
X112768380Y-124942600D03*
X112768380Y-87858600D03*
G04 #@! TO.N,/A10*
X110228380Y-124942600D03*
X110482380Y-90398600D03*
G04 #@! TO.N,/A9*
X107688380Y-124942600D03*
X107180380Y-93192600D03*
G04 #@! TO.N,/A8*
X105148380Y-124942600D03*
X104386380Y-95732600D03*
G04 #@! TO.N,/A7*
X102608380Y-124942600D03*
G04 #@! TO.N,/A6*
X100068380Y-124942600D03*
G04 #@! TO.N,/A5*
X97528380Y-124942600D03*
G04 #@! TO.N,/A4*
X94988380Y-124942600D03*
G04 #@! TO.N,/A3*
X92448380Y-124942600D03*
G04 #@! TO.N,/A2*
X89908380Y-124942600D03*
G04 #@! TO.N,/A1*
X87368380Y-124942600D03*
X148582380Y-92938600D03*
X148582380Y-83540600D03*
X166108380Y-82524600D03*
X166108380Y-99288600D03*
X89146380Y-92430600D03*
G04 #@! TO.N,/A0*
X84828380Y-124942600D03*
X150106380Y-86588600D03*
X150106380Y-95478600D03*
X165346380Y-86588600D03*
X165346380Y-101828600D03*
X86606380Y-94970600D03*
G04 #@! TO.N,/MWR*
X136898380Y-114020600D03*
X123944380Y-114020600D03*
G04 #@! TO.N,/MRD*
X134358380Y-114782600D03*
X117086380Y-114782600D03*
G04 #@! TO.N,/IOWR*
X167632380Y-85318590D03*
X167595381Y-91123601D03*
X131818380Y-87858600D03*
X116070380Y-87858600D03*
G04 #@! TO.N,/IORD*
X166870380Y-87858600D03*
X166870380Y-93700600D03*
X129278380Y-117830600D03*
X126484380Y-117830600D03*
X127246380Y-77698600D03*
X125468380Y-77698600D03*
X138930380Y-77698600D03*
X138930380Y-89636600D03*
G04 #@! TO.N,/AD0*
X85336380Y-107924600D03*
X50284380Y-107924600D03*
G04 #@! TO.N,/AD2*
X48760380Y-91668600D03*
X48760380Y-106400600D03*
X90416380Y-106400600D03*
X90416380Y-101828600D03*
G04 #@! TO.N,/AD4*
X95496380Y-104876600D03*
X47236380Y-104876600D03*
X47236374Y-85318600D03*
X95496380Y-96748600D03*
G04 #@! TO.N,/AD6*
X100576380Y-103352600D03*
X45712380Y-103352600D03*
X45712380Y-80238600D03*
X100576380Y-91668600D03*
G04 #@! TO.N,/AD1*
X49522380Y-94208600D03*
X49522380Y-107162600D03*
X87876380Y-107162600D03*
X99306380Y-104114600D03*
X99306380Y-107162600D03*
G04 #@! TO.N,/AD3*
X47998380Y-89128600D03*
X47998380Y-105638600D03*
X92956380Y-105638600D03*
X92956380Y-99288600D03*
G04 #@! TO.N,/AD5*
X98036380Y-104114600D03*
X46474380Y-104114600D03*
X46474380Y-82778600D03*
X98036380Y-94208600D03*
G04 #@! TO.N,/AD7*
X103116380Y-102590600D03*
X44950380Y-102590600D03*
X44950380Y-77698600D03*
X103116380Y-89128600D03*
G04 #@! TO.N,/A16_*
X98036380Y-66522600D03*
X53586380Y-66522600D03*
G04 #@! TO.N,/A18_*
X103116380Y-68046600D03*
X56126380Y-68046600D03*
G04 #@! TO.N,/A17_*
X100576380Y-67284600D03*
X54856380Y-67284600D03*
G04 #@! TO.N,/A19_*
X105656380Y-68808600D03*
X57396380Y-68808600D03*
G04 #@! TO.N,/SPK_OUT*
X57904380Y-124942600D03*
X57904368Y-123672600D03*
X169156380Y-123418600D03*
X169156380Y-107416600D03*
G04 #@! TO.N,/SPK_GO*
X169918380Y-124180600D03*
X169918380Y-110210600D03*
G04 #@! TO.N,/HF_PCLK*
X172458380Y-109448600D03*
X172458380Y-104368600D03*
X172458380Y-111988600D03*
X62984380Y-124942600D03*
X79494380Y-111734600D03*
X79494372Y-120116600D03*
X62984380Y-120116600D03*
G04 #@! TO.N,/HOLDA*
X106926380Y-69570600D03*
X131056380Y-69570600D03*
X71874380Y-78714600D03*
X67556380Y-78714600D03*
X106926380Y-79476600D03*
X87876380Y-79476600D03*
X87876380Y-76174600D03*
X67556380Y-124942600D03*
G04 #@! TO.N,/HOLD*
X69588380Y-124942600D03*
X70096380Y-79476600D03*
G04 #@! TO.N,/RESET*
X74668380Y-124942600D03*
X74668380Y-101828600D03*
X61206380Y-101828600D03*
G04 #@! TO.N,/NMI*
X57396380Y-84048600D03*
G04 #@! TO.N,/IO_004X*
X68318380Y-118592600D03*
X173728380Y-118592600D03*
X173728380Y-97256600D03*
G04 #@! TO.N,/IO_002X*
X143756380Y-119354600D03*
X143756380Y-84556600D03*
X70858380Y-119354600D03*
G04 #@! TO.N,/IRQ1*
X75938380Y-120878600D03*
X144772380Y-107416600D03*
X80256388Y-120878600D03*
X80256388Y-113258608D03*
X144772372Y-113258608D03*
G04 #@! TO.N,/DEN*
X144518380Y-87858600D03*
X144518380Y-70840600D03*
G04 #@! TO.N,/X1*
X67556380Y-62966600D03*
G04 #@! TO.N,/DTR*
X78732380Y-91668600D03*
X99560380Y-91668600D03*
X99560380Y-87096600D03*
G04 #@! TO.N,/X2*
X66286380Y-62966600D03*
G04 #@! TO.N,/PU1*
X123436380Y-67284600D03*
X128516380Y-67284600D03*
X118356380Y-67284600D03*
G04 #@! TO.N,/INTR*
X107942380Y-84048600D03*
X107942380Y-105638600D03*
X146550380Y-105638600D03*
X146550380Y-111988600D03*
G04 #@! TO.N,/RD*
X131056380Y-68046600D03*
X124706380Y-68046600D03*
X121404380Y-68046600D03*
X124706380Y-73888600D03*
X61206380Y-70332600D03*
X82034380Y-70332600D03*
X82034380Y-73888600D03*
G04 #@! TO.N,/WR*
X120896380Y-73126600D03*
X125976380Y-73126600D03*
X59936380Y-71094600D03*
X81272380Y-71094600D03*
X81272380Y-73126600D03*
G04 #@! TO.N,/IO_M*
X87876380Y-74650600D03*
X132326380Y-74650600D03*
G04 #@! TO.N,/INTA*
X72636380Y-98018600D03*
X131056380Y-98018600D03*
X131056380Y-90398600D03*
X146296380Y-90398600D03*
G04 #@! TO.N,/IRQ0*
X164838380Y-111988600D03*
X164838374Y-108178600D03*
G04 #@! TO.N,/S2*
X87876380Y-65760600D03*
X71366380Y-65760600D03*
G04 #@! TD*
D19*
G04 #@! TO.N,/5+*
X51046380Y-86588600D02*
X52316380Y-87858600D01*
X52316380Y-87858600D02*
X54348380Y-87858600D01*
X54348380Y-87858600D02*
X55618380Y-86588600D01*
X55618380Y-86588600D02*
X55618380Y-86588600D01*
X156456380Y-129768600D02*
X156456380Y-126466600D01*
X156456380Y-126466600D02*
X156964380Y-125958600D01*
X156964380Y-125958600D02*
X156964380Y-120370600D01*
X163822380Y-120370600D02*
X163822380Y-114528600D01*
X156456380Y-84048600D02*
X156456380Y-80746600D01*
X176776380Y-89128600D02*
X176776380Y-85826600D01*
X176776380Y-85826600D02*
X176776380Y-81254600D01*
X136390380Y-71856600D02*
X136898380Y-71348600D01*
X136390380Y-83032600D02*
X136390380Y-71856600D01*
X136136380Y-83286600D02*
X136390380Y-83032600D01*
X109466380Y-73380600D02*
X111498380Y-71348600D01*
X109466380Y-84048600D02*
X109466380Y-73380600D01*
X109466380Y-114274600D02*
X109466380Y-116560600D01*
X109466380Y-116560600D02*
X108958380Y-117068600D01*
X163822380Y-114528600D02*
X163822380Y-81254600D01*
X136136380Y-83286600D02*
X136136380Y-86588600D01*
X91178380Y-129006600D02*
X90416380Y-129768600D01*
X91178380Y-123164600D02*
X91178380Y-129006600D01*
X91686384Y-122656596D02*
X91178380Y-123164600D01*
X91686384Y-114274596D02*
X91686384Y-122656596D01*
X156456380Y-70840600D02*
X156456380Y-67792600D01*
X91686384Y-114274596D02*
X91686384Y-86588604D01*
X109466380Y-84048600D02*
X109466380Y-86080600D01*
X156456380Y-80746600D02*
X156456380Y-73888600D01*
X156456380Y-73888600D02*
X156456380Y-70840600D01*
G04 #@! TO.N,/GND*
X161536380Y-129768600D02*
X161536380Y-122148600D01*
X108450380Y-112576600D02*
X108958380Y-112068600D01*
X108450380Y-115290600D02*
X108450380Y-112576600D01*
X82288380Y-109956600D02*
X82796380Y-109448600D01*
X82288380Y-115290600D02*
X82288380Y-109956600D01*
X116324380Y-64236600D02*
X115816380Y-63728600D01*
X116324380Y-66014600D02*
X116324380Y-64236600D01*
X153916380Y-66014600D02*
X153916380Y-79730600D01*
X128516380Y-111734600D02*
X128516380Y-109448600D01*
X138422380Y-67872600D02*
X136898380Y-66348600D01*
X137914380Y-75412600D02*
X138422380Y-74904600D01*
X138422380Y-74904600D02*
X138422380Y-67872600D01*
X137914380Y-111734600D02*
X137914380Y-75412600D01*
X161536380Y-117068600D02*
X161536380Y-122148600D01*
X171696380Y-85746600D02*
X171696380Y-66014600D01*
X171776380Y-85826600D02*
X171696380Y-85746600D01*
X171776380Y-85826600D02*
X171776380Y-86000600D01*
X171776380Y-86000600D02*
X171442380Y-86334600D01*
X171442380Y-86334600D02*
X171442380Y-122148600D01*
X85336380Y-129768600D02*
X85336380Y-126720600D01*
X85336380Y-126720600D02*
X86098380Y-125958600D01*
X86098380Y-125958600D02*
X86098380Y-119100600D01*
X86098380Y-119100600D02*
X86606380Y-118592600D01*
X86606380Y-118592600D02*
X86606380Y-115290600D01*
X131056380Y-83206600D02*
X131136380Y-83286600D01*
X131056380Y-80746600D02*
X131056380Y-83206600D01*
X138676380Y-129768600D02*
X138676380Y-116560600D01*
X138676380Y-112496600D02*
X138676380Y-116560600D01*
X137914380Y-111734600D02*
X138676380Y-112496600D01*
X82796380Y-97510600D02*
X83304380Y-97002600D01*
X83304380Y-97002600D02*
X83304380Y-81508600D01*
X82796380Y-109448600D02*
X82796380Y-100812600D01*
X82796380Y-100812600D02*
X82796380Y-97510600D01*
X63746380Y-99288600D02*
X63746380Y-100812600D01*
X83304380Y-81508600D02*
X83304380Y-64236600D01*
X76446380Y-81508600D02*
X76446380Y-78968600D01*
X63746380Y-73888600D02*
X63746380Y-72110600D01*
D20*
G04 #@! TO.N,/IRQ2*
X153916380Y-129768600D02*
X153916380Y-104876600D01*
G04 #@! TO.N,/IRQ7*
X110736380Y-129768600D02*
X110736380Y-125708600D01*
X110736380Y-125708600D02*
X111498380Y-124946600D01*
X111498380Y-124946600D02*
X111498380Y-122910600D01*
X152392380Y-92176600D02*
X152392380Y-122910600D01*
G04 #@! TO.N,/IRQ6*
X108958380Y-125958600D02*
X108958380Y-122402600D01*
X108196380Y-126720600D02*
X108958380Y-125958600D01*
X108196380Y-129768600D02*
X108196380Y-126720600D01*
X151376380Y-94970600D02*
X151376380Y-122402600D01*
G04 #@! TO.N,/IRQ5*
X106418380Y-125958600D02*
X106418380Y-121640600D01*
X105656380Y-126720600D02*
X106418380Y-125958600D01*
X105656380Y-129768600D02*
X105656380Y-126720600D01*
X149852380Y-121640600D02*
X149852380Y-97256600D01*
G04 #@! TO.N,/IRQ4*
X103878380Y-125958600D02*
X103878380Y-120878600D01*
X103116380Y-126720600D02*
X103878380Y-125958600D01*
X103116380Y-129768600D02*
X103116380Y-126720600D01*
X148836380Y-120878600D02*
X148836380Y-99796600D01*
G04 #@! TO.N,/IRQ3*
X101338380Y-125958600D02*
X101338380Y-120116600D01*
X100576380Y-126720600D02*
X101338380Y-125958600D01*
X100576380Y-129768600D02*
X100576380Y-126720600D01*
X147312380Y-120116600D02*
X147312380Y-102336600D01*
G04 #@! TO.N,/ALE*
X94226380Y-128498600D02*
X94226380Y-101066600D01*
X92956380Y-129768600D02*
X94226380Y-128498600D01*
X85336380Y-101066582D02*
X85336398Y-101066600D01*
X85336380Y-71348600D02*
X85336380Y-101066582D01*
X82796380Y-117068600D02*
X84066380Y-115798600D01*
X84066380Y-115798600D02*
X84066380Y-101066600D01*
X85336380Y-71348600D02*
X85336380Y-69570600D01*
X62476380Y-75158600D02*
X63746380Y-76428600D01*
X62476380Y-69570600D02*
X62476380Y-75158600D01*
G04 #@! TO.N,/D7*
X158234380Y-124942600D02*
X158234380Y-90398600D01*
G04 #@! TO.N,/D6*
X155694380Y-124942600D02*
X154678380Y-123926600D01*
X154678380Y-123926600D02*
X154678380Y-93700600D01*
G04 #@! TO.N,/D5*
X153154380Y-124942600D02*
X153154380Y-96240600D01*
G04 #@! TO.N,/D4*
X150614380Y-124942600D02*
X150614380Y-98780600D01*
G04 #@! TO.N,/D3*
X148074380Y-124942600D02*
X148074380Y-101320600D01*
G04 #@! TO.N,/D2*
X145534380Y-124942600D02*
X145534380Y-103860600D01*
G04 #@! TO.N,/D1*
X142994380Y-124942600D02*
X142994380Y-106400600D01*
G04 #@! TO.N,/D0*
X139438380Y-118338600D02*
X139438380Y-109448600D01*
X140454380Y-119354600D02*
X139438380Y-118338600D01*
X140454380Y-124942600D02*
X140454380Y-119354600D01*
G04 #@! TO.N,/RDY1*
X137660380Y-124942600D02*
X137660380Y-117830600D01*
X134104380Y-111734600D02*
X134104380Y-76936600D01*
X135120380Y-112750600D02*
X134104380Y-111734600D01*
X135120380Y-117830600D02*
X135120380Y-112750600D01*
X78732380Y-75158600D02*
X78732380Y-76936600D01*
G04 #@! TO.N,/A19*
X105656380Y-71348600D02*
X105656380Y-75412586D01*
X105656380Y-75412586D02*
X105656366Y-75412600D01*
X133088380Y-124942600D02*
X133088380Y-115544610D01*
X114546380Y-75412600D02*
X114546380Y-115544600D01*
G04 #@! TO.N,/A18*
X130548380Y-124942600D02*
X130548380Y-116306592D01*
X103116380Y-71348600D02*
X103116380Y-76174600D01*
X113530380Y-116306602D02*
X113530380Y-76174600D01*
G04 #@! TO.N,/A17*
X128008380Y-124942600D02*
X128008380Y-117068592D01*
X112006380Y-117068600D02*
X112006380Y-78460600D01*
X100576380Y-71348600D02*
X100576380Y-78460600D01*
G04 #@! TO.N,/A16*
X98036380Y-71348600D02*
X98036380Y-81508592D01*
X98036380Y-81508592D02*
X98036388Y-81508600D01*
X125468380Y-124942600D02*
X125468380Y-117830600D01*
X111244380Y-81508600D02*
X111244380Y-117830600D01*
G04 #@! TO.N,/A15*
X51046380Y-76428600D02*
X52316380Y-77698600D01*
X52316380Y-77698600D02*
X54856380Y-77698600D01*
X123182380Y-124942600D02*
X123182380Y-77698600D01*
G04 #@! TO.N,/A14*
X51046380Y-78968600D02*
X52316380Y-80238600D01*
X52316380Y-80238600D02*
X54856380Y-80238600D01*
X120388380Y-80238600D02*
X120388380Y-124942600D01*
G04 #@! TO.N,/A13*
X51046380Y-81508600D02*
X52316380Y-82778600D01*
X52316380Y-82778600D02*
X54856380Y-82778600D01*
X117848380Y-124942600D02*
X117848380Y-82778600D01*
G04 #@! TO.N,/A12*
X52316380Y-85318600D02*
X54856380Y-85318600D01*
X51046380Y-84048600D02*
X52316380Y-85318600D01*
X115308380Y-124942600D02*
X115308380Y-85064600D01*
G04 #@! TO.N,/A11*
X112768380Y-87858600D02*
X112768380Y-124942600D01*
G04 #@! TO.N,/A10*
X110228380Y-124942600D02*
X110228380Y-118338600D01*
X110228380Y-118338600D02*
X110482380Y-118084600D01*
X110482380Y-118084600D02*
X110482380Y-90398600D01*
G04 #@! TO.N,/A9*
X107688380Y-119354600D02*
X107688380Y-124942600D01*
X107180380Y-118846600D02*
X107688380Y-119354600D01*
X107180380Y-93192600D02*
X107180380Y-118846600D01*
G04 #@! TO.N,/A8*
X105148380Y-124942600D02*
X105148380Y-119354600D01*
X105148380Y-119354600D02*
X104386380Y-118592600D01*
X104386380Y-118592600D02*
X104386380Y-95732600D01*
G04 #@! TO.N,/A7*
X102608380Y-117576600D02*
X102608380Y-124942600D01*
X103116380Y-117068600D02*
X102608380Y-117576600D01*
G04 #@! TO.N,/A6*
X100576380Y-117068600D02*
X100068380Y-117576600D01*
X100068380Y-117576600D02*
X100068380Y-124942600D01*
G04 #@! TO.N,/A5*
X98036380Y-117068600D02*
X97528380Y-117576600D01*
X97528380Y-117576600D02*
X97528380Y-124942600D01*
G04 #@! TO.N,/A4*
X94988380Y-117576600D02*
X94988380Y-124942600D01*
X95496380Y-117068600D02*
X94988380Y-117576600D01*
G04 #@! TO.N,/A3*
X92448380Y-117576600D02*
X92448380Y-124942600D01*
X92956380Y-117068600D02*
X92448380Y-117576600D01*
G04 #@! TO.N,/A2*
X90416380Y-117068600D02*
X89908380Y-117576600D01*
X89908380Y-117576600D02*
X89908380Y-124942600D01*
G04 #@! TO.N,/A1*
X87368380Y-117576600D02*
X87368380Y-124942600D01*
X87876380Y-117068600D02*
X87368380Y-117576600D01*
X148582380Y-92938600D02*
X148582380Y-83540600D01*
X166108380Y-82524600D02*
X166108380Y-99288600D01*
X87876380Y-117068600D02*
X89146380Y-115798600D01*
X89146380Y-115798600D02*
X89146380Y-92430600D01*
G04 #@! TO.N,/A0*
X85336380Y-117068600D02*
X84828380Y-117576600D01*
X84828380Y-117576600D02*
X84828380Y-124942600D01*
X150106380Y-86588600D02*
X150106380Y-95478600D01*
X165346380Y-86588600D02*
X165346380Y-101828600D01*
X85336380Y-117068600D02*
X85336380Y-111988600D01*
X85336380Y-111988600D02*
X86606380Y-110718600D01*
X86606380Y-110718600D02*
X86606380Y-94970600D01*
G04 #@! TO.N,/MWR*
X136136380Y-129768600D02*
X136136380Y-125704600D01*
X136136380Y-125704600D02*
X136898380Y-124942600D01*
X136898380Y-124942600D02*
X136898380Y-114020600D01*
X123436380Y-71348600D02*
X123690380Y-71602600D01*
X123690380Y-71602600D02*
X123944380Y-71856600D01*
X123944380Y-71856600D02*
X123944380Y-114020600D01*
G04 #@! TO.N,/MRD*
X133596380Y-129768600D02*
X134358382Y-129006598D01*
X133596380Y-129768600D02*
X133596380Y-126466600D01*
X133596380Y-129768600D02*
X133596380Y-125958600D01*
X133596380Y-125958600D02*
X133596380Y-125704600D01*
X133596380Y-125704600D02*
X134358380Y-124942600D01*
X134358380Y-124942600D02*
X134358380Y-114782600D01*
X118356380Y-63728600D02*
X118356380Y-65506600D01*
X118356380Y-65506600D02*
X117086380Y-66776600D01*
X117086380Y-66776600D02*
X117086380Y-114782600D01*
G04 #@! TO.N,/IOWR*
X131056380Y-129768600D02*
X131056380Y-126720600D01*
X167595381Y-85355589D02*
X167632380Y-85318590D01*
X167595381Y-91123601D02*
X167595381Y-85355589D01*
X131056380Y-129768600D02*
X131056380Y-125704600D01*
X131056380Y-125704600D02*
X131818380Y-124942600D01*
X131818380Y-124942600D02*
X131818380Y-87858600D01*
X115816380Y-71602600D02*
X116070380Y-71856600D01*
X116070380Y-71856600D02*
X116070380Y-87858600D01*
X115816380Y-71348600D02*
X115816380Y-71602600D01*
G04 #@! TO.N,/IORD*
X166870380Y-87858600D02*
X166870380Y-93700600D01*
X129278380Y-124942600D02*
X129278380Y-117830600D01*
X128516380Y-125704600D02*
X129278380Y-124942600D01*
X128516380Y-129768600D02*
X128516380Y-125704600D01*
X127246380Y-64998600D02*
X125976380Y-63728600D01*
X126484380Y-117322600D02*
X125468380Y-116306600D01*
X126484380Y-117830600D02*
X126484380Y-117322600D01*
X127246380Y-77698600D02*
X127246380Y-64998600D01*
X125468380Y-116306600D02*
X125468380Y-77698600D01*
X138930380Y-77698600D02*
X138930380Y-89636600D01*
G04 #@! TO.N,/AD0*
X85336380Y-109448600D02*
X85336380Y-107924600D01*
X50284380Y-97510600D02*
X50284380Y-107924600D01*
X51046380Y-96748600D02*
X50284380Y-97510600D01*
G04 #@! TO.N,/AD2*
X48760380Y-91668600D02*
X48760380Y-106400600D01*
X90416380Y-109448600D02*
X90416380Y-106400600D01*
X90416380Y-101828600D02*
X90416380Y-106400600D01*
G04 #@! TO.N,/AD4*
X95496380Y-109448600D02*
X95496380Y-104876600D01*
X47236380Y-104876600D02*
X47236380Y-85318600D01*
X95496380Y-96748600D02*
X95496380Y-104876600D01*
G04 #@! TO.N,/AD6*
X45712380Y-103352600D02*
X45712380Y-80238600D01*
X100576380Y-91668600D02*
X100576380Y-103860600D01*
X100576380Y-103860600D02*
X100576380Y-103352600D01*
X100576380Y-109448600D02*
X100576380Y-103860600D01*
G04 #@! TO.N,/AD1*
X49522380Y-94208600D02*
X49522380Y-107162600D01*
X87876380Y-109448600D02*
X87876380Y-107162600D01*
X99306380Y-104114600D02*
X99306380Y-107162600D01*
G04 #@! TO.N,/AD3*
X47998380Y-89128600D02*
X47998380Y-105638600D01*
X92956380Y-109448600D02*
X92956380Y-105638600D01*
X92956380Y-99288600D02*
X92956380Y-105638600D01*
G04 #@! TO.N,/AD5*
X46474380Y-104114600D02*
X46474380Y-82778600D01*
X98036380Y-94208600D02*
X98036380Y-104622600D01*
X98036380Y-104622600D02*
X98036380Y-104114600D01*
X98036380Y-109448600D02*
X98036380Y-104622600D01*
G04 #@! TO.N,/AD7*
X103116380Y-109448600D02*
X103116380Y-102590600D01*
X44950380Y-102590600D02*
X44950380Y-77698600D01*
X103116380Y-89128600D02*
X103116380Y-102590600D01*
G04 #@! TO.N,/A16_*
X98036380Y-63728600D02*
X98036380Y-66522600D01*
X53586380Y-66522600D02*
X53586380Y-73888600D01*
G04 #@! TO.N,/A18_*
X103116380Y-63728600D02*
X103116380Y-68046600D01*
X56126380Y-68046600D02*
X56126380Y-73888600D01*
G04 #@! TO.N,/A17_*
X100576380Y-63728600D02*
X100576380Y-67284600D01*
X54856380Y-75158600D02*
X56126380Y-76428600D01*
X54856380Y-67284600D02*
X54856380Y-75158600D01*
G04 #@! TO.N,/A19_*
X105656380Y-63728600D02*
X105656380Y-68808600D01*
X57396380Y-75158600D02*
X58666380Y-76428600D01*
X57396380Y-68808600D02*
X57396380Y-75158600D01*
G04 #@! TO.N,/SPK_OUT*
X57904380Y-124942600D02*
X57904380Y-123672612D01*
X57904380Y-123672612D02*
X57904368Y-123672600D01*
X169156380Y-107416600D02*
X169156380Y-123418600D01*
G04 #@! TO.N,/SPK_GO*
X169918380Y-124180600D02*
X169918380Y-110210600D01*
G04 #@! TO.N,/HF_PCLK*
X172458380Y-109448600D02*
X172458380Y-111988600D01*
X172458380Y-109448600D02*
X172458380Y-104368600D01*
X79494380Y-111734600D02*
X79494380Y-120370592D01*
X62984380Y-124942600D02*
X62984380Y-120116600D01*
G04 #@! TO.N,/HOLDA*
X108196380Y-63728600D02*
X106926380Y-64998600D01*
X106926380Y-64998600D02*
X106926380Y-79476600D01*
X106926380Y-81254600D02*
X106418380Y-81762600D01*
X106418380Y-81762600D02*
X106418380Y-108686600D01*
X105656380Y-109448600D02*
X106418380Y-108686600D01*
X131056380Y-71348600D02*
X131056380Y-69570600D01*
X72890380Y-77698600D02*
X71874380Y-78714600D01*
X75176380Y-77698600D02*
X72890380Y-77698600D01*
X76446380Y-76428600D02*
X75176380Y-77698600D01*
X106926380Y-79476600D02*
X106926380Y-81254600D01*
X87876380Y-79476600D02*
X87876380Y-76174600D01*
X67556380Y-78714600D02*
X67556380Y-124942600D01*
G04 #@! TO.N,/HOLD*
X70096380Y-101320600D02*
X70096380Y-79476600D01*
X69588380Y-101828600D02*
X70096380Y-101320600D01*
X69588380Y-124942600D02*
X69588380Y-101828600D01*
G04 #@! TO.N,/RESET*
X74668380Y-124942600D02*
X74668380Y-101828600D01*
X61206380Y-99288600D02*
X61206380Y-101828600D01*
G04 #@! TO.N,/NMI*
X57396380Y-129768600D02*
X57396380Y-126212600D01*
X57396380Y-126212600D02*
X56888380Y-125704600D01*
X56888380Y-125704600D02*
X56888380Y-101828600D01*
X56888380Y-101828600D02*
X57396380Y-101320600D01*
X57396380Y-101320600D02*
X57396380Y-84048600D01*
G04 #@! TO.N,/IO_004X*
X67556380Y-129768600D02*
X67556380Y-126720600D01*
X67556380Y-126720600D02*
X68318380Y-125958600D01*
X68318380Y-125958600D02*
X68318380Y-118592600D01*
X173728380Y-118592600D02*
X173728380Y-97256600D01*
G04 #@! TO.N,/IO_002X*
X143756380Y-119354600D02*
X143756380Y-84556600D01*
X70858380Y-129006600D02*
X70858380Y-119354600D01*
X70096380Y-129768600D02*
X70858380Y-129006600D01*
G04 #@! TO.N,/IRQ1*
X75176380Y-129768600D02*
X75176380Y-126974600D01*
X75176380Y-126974600D02*
X75938380Y-126212600D01*
X75938380Y-126212600D02*
X75938380Y-120878600D01*
X80256388Y-120878600D02*
X80256388Y-113258608D01*
X144772380Y-113258600D02*
X144772372Y-113258608D01*
X144772380Y-107416600D02*
X144772380Y-113258600D01*
G04 #@! TO.N,/DEN*
X144518380Y-87858600D02*
X144518380Y-70840600D01*
X144518380Y-70840600D02*
X144518380Y-70840600D01*
G04 #@! TO.N,/X1*
X67556380Y-75158600D02*
X66286380Y-76428600D01*
X67556380Y-62966600D02*
X67556380Y-75158600D01*
G04 #@! TO.N,/DTR*
X77462380Y-92938600D02*
X78732380Y-91668600D01*
X75176380Y-92938600D02*
X77462380Y-92938600D01*
X73906380Y-91668600D02*
X75176380Y-92938600D01*
X99560380Y-91668600D02*
X99560380Y-87096600D01*
G04 #@! TO.N,/X2*
X66286380Y-62966600D02*
X66286380Y-73888600D01*
G04 #@! TO.N,/PU1*
X128516380Y-71348600D02*
X128516380Y-67284600D01*
X123436380Y-63728600D02*
X123436380Y-67284600D01*
X128516380Y-63728600D02*
X128516380Y-67284600D01*
X118356380Y-71348600D02*
X118356380Y-67284600D01*
G04 #@! TO.N,/INTR*
X107942380Y-84048600D02*
X107942380Y-105638600D01*
X146550380Y-105638600D02*
X146550380Y-111988600D01*
G04 #@! TO.N,/RD*
X131056380Y-63728600D02*
X131056380Y-68046600D01*
X121404380Y-64236600D02*
X121404380Y-68046600D01*
X120896380Y-63728600D02*
X121404380Y-64236600D01*
X124706380Y-68046600D02*
X124706380Y-73888600D01*
X61206380Y-73888600D02*
X61206380Y-70332600D01*
X82034380Y-70332600D02*
X82034380Y-73888600D01*
G04 #@! TO.N,/WR*
X120896380Y-71348600D02*
X120896380Y-73126600D01*
X125976380Y-73126600D02*
X125976380Y-71348600D01*
X59936380Y-75158600D02*
X59936380Y-71094600D01*
X61206380Y-76428600D02*
X59936380Y-75158600D01*
X81272380Y-71094600D02*
X81272380Y-73126600D01*
G04 #@! TO.N,/IO_M*
X87876380Y-71348600D02*
X87876380Y-74650600D01*
X132326380Y-64998600D02*
X133596380Y-63728600D01*
X132326380Y-74650600D02*
X132326380Y-64998600D01*
G04 #@! TO.N,/INTA*
X72636380Y-89890600D02*
X73398380Y-89128600D01*
X73398380Y-89128600D02*
X73906380Y-89128600D01*
X72636380Y-98018600D02*
X72636380Y-89890600D01*
X131056380Y-98018600D02*
X131056380Y-90398600D01*
X146296380Y-73888600D02*
X146296380Y-90398600D01*
X146296380Y-90398600D02*
X146296380Y-90398600D01*
G04 #@! TO.N,/IRQ0*
X164838380Y-111988600D02*
X164838380Y-108178606D01*
X164838380Y-108178606D02*
X164838374Y-108178600D01*
G04 #@! TO.N,/S2*
X87876380Y-63728600D02*
X87876380Y-65760600D01*
X71366380Y-65760600D02*
X71366380Y-73888600D01*
G04 #@! TD*
M02*
