M48
; DRILL file {KiCad (5.1.8)-1} date 11/26/21 20:47:05
; FORMAT={-:-/ absolute / inch / decimal}
; #@! TF.CreationDate,2021-11-26T20:47:05-07:00
; #@! TF.GenerationSoftware,Kicad,Pcbnew,(5.1.8)-1
; #@! TF.FileFunction,Plated,1,2,PTH
FMAT,2
INCH
T1C0.0157
T2C0.0315
T3C0.1200
%
G90
G05
T1
X1.7697Y-3.059
X1.7697Y-4.039
X1.7997Y-3.159
X1.7997Y-4.069
X1.8297Y-3.259
X1.8297Y-4.099
X1.8597Y-3.359
X1.8597Y-4.129
X1.8897Y-3.509
X1.8897Y-4.159
X1.9197Y-3.609
X1.9197Y-4.189
X1.9497Y-3.709
X1.9497Y-4.219
X1.9797Y-4.249
X2.1097Y-2.619
X2.1597Y-2.649
X2.1597Y-3.059
X2.1597Y-3.159
X2.1597Y-3.259
X2.1597Y-3.359
X2.1897Y-3.409
X2.2097Y-2.679
X2.2597Y-2.709
X2.2597Y-3.309
X2.2797Y-4.869
X2.2797Y-4.919
X2.3597Y-2.799
X2.4097Y-2.769
X2.4097Y-4.009
X2.4597Y-2.739
X2.4797Y-4.729
X2.4797Y-4.919
X2.5097Y-2.839
X2.5097Y-3.969
X2.6097Y-2.479
X2.6597Y-2.479
X2.6597Y-3.099
X2.6597Y-4.919
X2.6897Y-4.669
X2.7397Y-4.919
X2.7597Y-3.129
X2.7897Y-4.699
X2.8097Y-2.589
X2.8297Y-3.099
X2.8597Y-3.859
X2.9397Y-4.009
X2.9397Y-4.919
X2.9897Y-4.759
X3.0997Y-2.959
X3.0997Y-3.029
X3.0997Y-3.609
X3.1297Y-4.729
X3.1297Y-4.399
X3.1597Y-4.459
X3.1597Y-4.759
X3.1997Y-2.799
X3.1997Y-2.879
X3.2297Y-2.769
X3.2297Y-2.909
X3.2397Y-4.539
X3.2597Y-3.969
X3.2797Y-2.529
X3.2797Y-2.839
X3.2797Y-3.209
X3.3097Y-3.979
X3.3397Y-4.919
X3.3597Y-2.739
X3.3597Y-4.249
X3.3597Y-3.979
X3.4097Y-3.739
X3.4097Y-4.539
X3.4397Y-4.919
X3.4597Y-2.589
X3.4597Y-2.939
X3.4597Y-2.999
X3.4597Y-3.129
X3.4597Y-4.219
X3.5097Y-3.639
X3.5397Y-4.919
X3.5597Y-4.009
X3.5597Y-4.189
X3.6097Y-3.409
X3.6097Y-4.499
X3.6397Y-4.919
X3.6597Y-3.909
X3.6597Y-4.159
X3.7097Y-3.979
X3.7397Y-4.919
X3.7597Y-3.809
X3.7597Y-4.129
X3.8397Y-4.919
X3.8597Y-2.619
X3.8597Y-3.709
X3.8597Y-4.099
X3.8597Y-3.209
X3.9097Y-4.099
X3.9097Y-4.219
X3.9197Y-3.429
X3.9197Y-3.609
X3.9397Y-4.919
X3.9597Y-2.649
X3.9597Y-3.089
X3.9597Y-3.609
X3.9597Y-4.069
X3.9897Y-4.729
X4.0397Y-4.919
X4.0597Y-2.679
X4.0597Y-2.999
X4.0597Y-3.509
X4.0597Y-4.039
X4.0897Y-4.759
X4.1097Y-3.769
X4.1397Y-4.919
X4.1597Y-2.969
X4.1597Y-2.709
X4.1897Y-4.789
X4.2097Y-2.739
X4.2097Y-3.129
X4.2197Y-3.669
X4.2397Y-4.919
X4.2497Y-3.309
X4.2497Y-4.159
X4.2697Y-4.539
X4.2897Y-4.819
X4.3097Y-3.309
X4.3097Y-3.389
X4.3097Y-4.499
X4.3397Y-4.919
X4.3497Y-3.559
X4.3797Y-3.209
X4.3797Y-4.639
X4.3897Y-4.839
X4.4097Y-3.089
X4.4097Y-4.609
X4.4397Y-3.459
X4.4397Y-4.919
X4.4697Y-2.999
X4.4697Y-4.579
X4.5097Y-2.969
X4.5097Y-4.549
X4.5397Y-3.349
X4.5397Y-4.919
X4.5697Y-3.459
X4.5797Y-2.599
X4.6097Y-4.519
X4.6397Y-3.259
X4.6397Y-4.919
X4.6597Y-2.649
X4.7397Y-3.159
X4.7397Y-4.919
X4.7597Y-2.879
X4.7797Y-2.679
X4.8497Y-3.059
X4.8497Y-4.919
X4.8597Y-2.649
X4.8797Y-4.489
X4.9097Y-2.679
X4.9097Y-2.909
X4.9397Y-3.059
X4.9397Y-4.639
X4.9397Y-4.919
X4.9597Y-2.879
X4.9797Y-4.639
X5.0097Y-3.059
X5.0397Y-4.609
X5.0397Y-4.919
X5.0597Y-2.649
X5.0597Y-4.399
X5.0897Y-4.639
X5.1397Y-4.579
X5.1397Y-4.919
X5.1597Y-2.679
X5.1597Y-2.739
X5.1597Y-3.179
X5.1597Y-3.559
X5.1597Y-3.859
X5.1897Y-3.459
X5.2097Y-2.939
X5.2397Y-4.549
X5.2397Y-4.919
X5.2797Y-3.029
X5.2897Y-4.519
X5.3197Y-4.639
X5.3897Y-4.489
X5.4197Y-4.639
X5.4197Y-4.919
X5.4297Y-4.399
X5.4597Y-4.589
X5.4697Y-3.059
X5.4697Y-3.529
X5.4897Y-4.309
X5.5297Y-4.919
X5.6297Y-4.189
X5.6297Y-4.919
X5.6597Y-3.329
X5.6597Y-4.699
X5.6897Y-2.789
X5.6897Y-3.459
X5.6997Y-4.459
X5.6997Y-4.229
X5.7297Y-4.089
X5.7297Y-4.919
X5.7597Y-3.559
X5.7697Y-4.159
X5.7697Y-4.409
X5.7997Y-4.029
X5.7997Y-4.729
X5.8297Y-3.989
X5.8297Y-4.919
X5.8497Y-3.289
X5.8497Y-3.659
X5.8597Y-3.929
X5.8597Y-4.759
X5.8997Y-3.829
X5.8997Y-4.789
X5.9097Y-3.409
X5.9097Y-3.759
X5.9297Y-3.889
X5.9297Y-4.919
X5.9597Y-3.739
X5.9597Y-4.819
X5.9997Y-3.629
X5.9997Y-4.839
X6.0297Y-3.789
X6.0297Y-4.919
X6.0597Y-2.599
X6.0597Y-3.139
X6.0597Y-4.129
X6.0897Y-3.689
X6.1297Y-4.919
X6.1797Y-4.739
X6.2297Y-3.559
X6.2297Y-4.919
X6.3597Y-4.809
X6.4497Y-3.199
X6.4497Y-4.509
X6.4497Y-4.739
X6.4897Y-4.259
X6.4897Y-4.409
X6.5097Y-3.409
X6.5097Y-4.009
X6.5397Y-3.249
X6.5397Y-3.909
X6.5697Y-3.459
X6.5697Y-3.689
X6.5982Y-3.5875
X6.5997Y-3.359
X6.6597Y-4.229
X6.6597Y-4.859
X6.6897Y-4.339
X6.6897Y-4.889
X6.7497Y-4.809
X6.7597Y-2.599
X6.7897Y-4.109
X6.7897Y-4.309
X6.7897Y-4.409
X6.8397Y-3.829
X6.8397Y-4.669
X6.9597Y-3.199
T2
X4.2897Y-4.4121
X4.2897Y-4.609
X5.9628Y-3.179
X6.1597Y-3.179
X5.3897Y-2.6121
X5.3897Y-2.809
X5.1628Y-3.279
X5.3597Y-3.279
X5.7597Y-2.789
X6.1597Y-2.789
X3.3597Y-2.509
X3.3597Y-2.809
X3.4597Y-2.509
X3.4597Y-2.809
X3.5597Y-2.509
X3.5597Y-2.809
X3.6597Y-2.509
X3.6597Y-2.809
X3.7597Y-2.509
X3.7597Y-2.809
X3.8597Y-2.509
X3.8597Y-2.809
X3.9597Y-2.509
X3.9597Y-2.809
X4.0597Y-2.509
X4.0597Y-2.809
X4.1597Y-2.509
X4.1597Y-2.809
X4.2597Y-2.509
X4.2597Y-2.809
X6.3597Y-3.509
X6.3597Y-3.609
X6.3597Y-3.709
X6.3597Y-3.809
X6.3597Y-3.909
X6.3597Y-4.009
X6.3597Y-4.109
X6.3597Y-4.209
X6.3597Y-4.309
X6.3597Y-4.409
X6.3597Y-4.509
X6.3597Y-4.609
X6.9597Y-3.509
X6.9597Y-3.609
X6.9597Y-3.709
X6.9597Y-3.809
X6.9597Y-3.909
X6.9597Y-4.009
X6.9597Y-4.109
X6.9597Y-4.209
X6.9597Y-4.309
X6.9597Y-4.409
X6.9597Y-4.509
X6.9597Y-4.609
X6.7628Y-3.379
X6.9597Y-3.379
X4.5597Y-2.509
X4.5597Y-2.809
X4.6597Y-2.509
X4.6597Y-2.809
X4.7597Y-2.509
X4.7597Y-2.809
X4.8597Y-2.509
X4.8597Y-2.809
X4.9597Y-2.509
X4.9597Y-2.809
X5.0597Y-2.509
X5.0597Y-2.809
X5.1597Y-2.509
X5.1597Y-2.809
X5.2597Y-2.509
X5.2597Y-2.809
X3.1997Y-3.209
X3.1997Y-3.4059
X5.7597Y-2.669
X6.1597Y-2.669
X2.0097Y-3.009
X2.0097Y-3.109
X2.0097Y-3.209
X2.0097Y-3.309
X2.0097Y-3.409
X2.0097Y-3.509
X2.0097Y-3.609
X2.0097Y-3.709
X2.0097Y-3.809
X2.1097Y-2.909
X2.1097Y-3.009
X2.1097Y-3.109
X2.1097Y-3.209
X2.1097Y-3.309
X2.1097Y-3.409
X2.1097Y-3.509
X2.1097Y-3.609
X2.1097Y-3.709
X2.1097Y-3.809
X2.1097Y-3.909
X2.2097Y-2.909
X2.2097Y-3.009
X2.2097Y-3.809
X2.2097Y-3.909
X2.3097Y-2.909
X2.3097Y-3.009
X2.3097Y-3.809
X2.3097Y-3.909
X2.4097Y-2.909
X2.4097Y-3.009
X2.4097Y-3.809
X2.4097Y-3.909
X2.5097Y-2.909
X2.5097Y-3.009
X2.5097Y-3.809
X2.5097Y-3.909
X2.6097Y-2.909
X2.6097Y-3.009
X2.6097Y-3.809
X2.6097Y-3.909
X2.7097Y-2.909
X2.7097Y-3.009
X2.7097Y-3.809
X2.7097Y-3.909
X2.8097Y-2.909
X2.8097Y-3.009
X2.8097Y-3.809
X2.8097Y-3.909
X2.9097Y-2.909
X2.9097Y-3.009
X2.9097Y-3.109
X2.9097Y-3.209
X2.9097Y-3.309
X2.9097Y-3.409
X2.9097Y-3.509
X2.9097Y-3.609
X2.9097Y-3.709
X2.9097Y-3.809
X2.9097Y-3.909
X3.0097Y-3.009
X3.0097Y-3.109
X3.0097Y-3.209
X3.0097Y-3.309
X3.0097Y-3.409
X3.0097Y-3.509
X3.0097Y-3.609
X3.0097Y-3.709
X3.0097Y-3.809
X4.3897Y-2.6121
X4.3897Y-2.809
X5.5597Y-3.309
X5.5597Y-3.409
X5.5597Y-3.509
X5.5597Y-3.609
X5.5597Y-3.709
X5.5597Y-3.809
X5.5597Y-3.909
X5.5597Y-4.009
X5.5597Y-4.109
X5.5597Y-4.209
X5.5597Y-4.309
X5.5597Y-4.409
X5.5597Y-4.509
X5.5597Y-4.609
X6.1597Y-3.309
X6.1597Y-3.409
X6.1597Y-3.509
X6.1597Y-3.609
X6.1597Y-3.709
X6.1597Y-3.809
X6.1597Y-3.909
X6.1597Y-4.009
X6.1597Y-4.109
X6.1597Y-4.209
X6.1597Y-4.309
X6.1597Y-4.409
X6.1597Y-4.509
X6.1597Y-4.609
X3.2597Y-4.309
X3.2597Y-4.609
X3.3597Y-4.309
X3.3597Y-4.609
X3.4597Y-4.309
X3.4597Y-4.609
X3.5597Y-4.309
X3.5597Y-4.609
X3.6597Y-4.309
X3.6597Y-4.609
X3.7597Y-4.309
X3.7597Y-4.609
X3.8597Y-4.309
X3.8597Y-4.609
X3.9597Y-4.309
X3.9597Y-4.609
X4.0597Y-4.309
X4.0597Y-4.609
X4.1597Y-4.309
X4.1597Y-4.609
X5.7597Y-2.909
X6.1597Y-2.909
X5.0597Y-3.409
X5.0597Y-3.509
X5.0597Y-3.609
X5.0597Y-3.709
X5.0597Y-3.809
X5.0597Y-3.909
X5.0597Y-4.009
X5.0597Y-4.109
X5.0597Y-4.209
X5.0597Y-4.309
X5.3597Y-3.409
X5.3597Y-3.509
X5.3597Y-3.609
X5.3597Y-3.709
X5.3597Y-3.809
X5.3597Y-3.909
X5.3597Y-4.009
X5.3597Y-4.109
X5.3597Y-4.209
X5.3597Y-4.309
X2.5297Y-2.479
X2.7226Y-2.479
T3
X7.1497Y-2.559
X7.1497Y-4.809
T0
M30
