G04 #@! TF.GenerationSoftware,KiCad,Pcbnew,(5.1.8)-1*
G04 #@! TF.CreationDate,2021-09-16T13:44:59-06:00*
G04 #@! TF.ProjectId,Multi,4d756c74-692e-46b6-9963-61645f706362,rev?*
G04 #@! TF.SameCoordinates,Original*
G04 #@! TF.FileFunction,Soldermask,Top*
G04 #@! TF.FilePolarity,Negative*
%FSLAX46Y46*%
G04 Gerber Fmt 4.6, Leading zero omitted, Abs format (unit mm)*
G04 Created by KiCad (PCBNEW (5.1.8)-1) date 2021-09-16 13:44:59*
%MOMM*%
%LPD*%
G01*
G04 APERTURE LIST*
%ADD10C,4.826000*%
%ADD11O,1.600000X1.600000*%
%ADD12R,1.600000X1.600000*%
%ADD13O,1.700000X1.700000*%
%ADD14R,1.700000X1.700000*%
%ADD15C,1.600000*%
%ADD16C,1.524000*%
%ADD17R,1.524000X1.524000*%
%ADD18C,2.000000*%
%ADD19C,1.800000*%
%ADD20R,1.800000X1.800000*%
%ADD21C,2.590800*%
%ADD22C,2.794000*%
%ADD23C,3.302000*%
%ADD24C,3.962400*%
%ADD25C,1.500000*%
%ADD26R,1.422400X1.422400*%
%ADD27C,1.422400*%
G04 APERTURE END LIST*
D10*
G04 #@! TO.C,REF\u002A\u002A*
X97536000Y-183642000D03*
G04 #@! TD*
D11*
G04 #@! TO.C,RN1*
X37338000Y-32004000D03*
X34798000Y-32004000D03*
X32258000Y-32004000D03*
D12*
X29718000Y-32004000D03*
G04 #@! TD*
D13*
G04 #@! TO.C,J5*
X106680000Y-133604000D03*
D14*
X106680000Y-131064000D03*
G04 #@! TD*
D11*
G04 #@! TO.C,R15*
X116840000Y-139446000D03*
D15*
X106680000Y-139446000D03*
G04 #@! TD*
D11*
G04 #@! TO.C,R13*
X115824000Y-101346000D03*
D15*
X105664000Y-101346000D03*
G04 #@! TD*
D11*
G04 #@! TO.C,R12*
X115824000Y-98298000D03*
D15*
X105664000Y-98298000D03*
G04 #@! TD*
D11*
G04 #@! TO.C,R11*
X116840000Y-145542000D03*
D15*
X106680000Y-145542000D03*
G04 #@! TD*
D11*
G04 #@! TO.C,R10*
X116840000Y-142494000D03*
D15*
X106680000Y-142494000D03*
G04 #@! TD*
D11*
G04 #@! TO.C,RN2*
X82296000Y-32004000D03*
X79756000Y-32004000D03*
X77216000Y-32004000D03*
X74676000Y-32004000D03*
X72136000Y-32004000D03*
X69596000Y-32004000D03*
X67056000Y-32004000D03*
X64516000Y-32004000D03*
D12*
X61976000Y-32004000D03*
G04 #@! TD*
D16*
G04 #@! TO.C,R*
X120396000Y-113284000D03*
G04 #@! TD*
G04 #@! TO.C,R*
X120396000Y-122174000D03*
G04 #@! TD*
G04 #@! TO.C,R*
X120396000Y-144780000D03*
G04 #@! TD*
G04 #@! TO.C,R*
X120396000Y-124460000D03*
G04 #@! TD*
D11*
G04 #@! TO.C,R9*
X119380000Y-36040000D03*
D15*
X109220000Y-36040000D03*
G04 #@! TD*
D11*
G04 #@! TO.C,R8*
X119380000Y-33020000D03*
D15*
X109220000Y-33020000D03*
G04 #@! TD*
D11*
G04 #@! TO.C,R7*
X106680000Y-151638000D03*
D15*
X116840000Y-151638000D03*
G04 #@! TD*
D11*
G04 #@! TO.C,R6*
X45212000Y-135636000D03*
D15*
X45212000Y-145796000D03*
G04 #@! TD*
D16*
G04 #@! TO.C,R*
X75692000Y-123952000D03*
G04 #@! TD*
G04 #@! TO.C,R*
X77470000Y-122428000D03*
G04 #@! TD*
D15*
G04 #@! TO.C,C10*
X120142000Y-79422000D03*
X120142000Y-74422000D03*
G04 #@! TD*
G04 #@! TO.C,C9*
X120650000Y-38862000D03*
X115650000Y-38862000D03*
G04 #@! TD*
D11*
G04 #@! TO.C,R4*
X42672000Y-177038000D03*
D15*
X42672000Y-166878000D03*
G04 #@! TD*
D11*
G04 #@! TO.C,R2*
X45720000Y-177038000D03*
D15*
X45720000Y-166878000D03*
G04 #@! TD*
D11*
G04 #@! TO.C,R18*
X26162000Y-165608000D03*
D15*
X26162000Y-155448000D03*
G04 #@! TD*
D11*
G04 #@! TO.C,R17*
X62992000Y-170942000D03*
D15*
X62992000Y-160782000D03*
G04 #@! TD*
D11*
G04 #@! TO.C,R14*
X23114000Y-165608000D03*
D15*
X23114000Y-155448000D03*
G04 #@! TD*
D11*
G04 #@! TO.C,R5*
X116840000Y-148590000D03*
D15*
X106680000Y-148590000D03*
G04 #@! TD*
D11*
G04 #@! TO.C,R3*
X66040000Y-170942000D03*
D15*
X66040000Y-160782000D03*
G04 #@! TD*
D11*
G04 #@! TO.C,U3*
X84582000Y-167640000D03*
D15*
X84582000Y-177800000D03*
G04 #@! TD*
D13*
G04 #@! TO.C,J6*
X115824000Y-174752000D03*
D14*
X115824000Y-172212000D03*
G04 #@! TD*
D13*
G04 #@! TO.C,J3*
X117856000Y-186182000D03*
X115316000Y-186182000D03*
X112776000Y-186182000D03*
D14*
X110236000Y-186182000D03*
G04 #@! TD*
D15*
G04 #@! TO.C,C1*
X101346000Y-73660000D03*
X96346000Y-73660000D03*
G04 #@! TD*
D11*
G04 #@! TO.C,U117*
X78486000Y-158242000D03*
X70866000Y-176022000D03*
X78486000Y-160782000D03*
X70866000Y-173482000D03*
X78486000Y-163322000D03*
X70866000Y-170942000D03*
X78486000Y-165862000D03*
X70866000Y-168402000D03*
X78486000Y-168402000D03*
X70866000Y-165862000D03*
X78486000Y-170942000D03*
X70866000Y-163322000D03*
X78486000Y-173482000D03*
X70866000Y-160782000D03*
X78486000Y-176022000D03*
D12*
X70866000Y-158242000D03*
G04 #@! TD*
D16*
G04 #@! TO.C,J10*
X87376000Y-130302000D03*
X87376000Y-132842000D03*
D17*
X82296000Y-130302000D03*
D16*
X82296000Y-132842000D03*
X82296000Y-135382000D03*
X82296000Y-137922000D03*
X82296000Y-140462000D03*
X82296000Y-143002000D03*
X82296000Y-145542000D03*
X82296000Y-148082000D03*
X87376000Y-148082000D03*
X87376000Y-145542000D03*
X87376000Y-143002000D03*
X87376000Y-140462000D03*
X87376000Y-137922000D03*
X87376000Y-135382000D03*
G04 #@! TD*
D18*
G04 #@! TO.C,SW1*
X128674000Y-159258000D03*
X128674000Y-163758000D03*
X122174000Y-159258000D03*
X122174000Y-163758000D03*
G04 #@! TD*
D11*
G04 #@! TO.C,R1*
X105664000Y-106172000D03*
D15*
X115824000Y-106172000D03*
G04 #@! TD*
D19*
G04 #@! TO.C,D1*
X113284000Y-112014000D03*
D20*
X113284000Y-109474000D03*
G04 #@! TD*
D15*
G04 #@! TO.C,C7*
X101346000Y-40640000D03*
X96346000Y-40640000D03*
G04 #@! TD*
D16*
G04 #@! TO.C,8x8mm1*
X128174000Y-169752000D03*
X128174000Y-172252000D03*
X128174000Y-174752000D03*
X122174000Y-174752000D03*
X122174000Y-172252000D03*
X122174000Y-169752000D03*
G04 #@! TD*
D21*
G04 #@! TO.C,ATXPOWER1*
X129676000Y-146902000D03*
X129676000Y-151102000D03*
X129676000Y-142702000D03*
X129676000Y-104902000D03*
X129676000Y-109102000D03*
X129676000Y-113302000D03*
X129676000Y-117502000D03*
X129676000Y-130102000D03*
X129676000Y-121702000D03*
X129676000Y-125902000D03*
X129676000Y-138502000D03*
X129676000Y-134302000D03*
X125476000Y-151102000D03*
X125476000Y-146902000D03*
X125476000Y-142702000D03*
X125476000Y-138502000D03*
X125476000Y-134302000D03*
X125476000Y-130102000D03*
X125476000Y-125902000D03*
X125476000Y-121702000D03*
X125476000Y-117502000D03*
X125476000Y-113302000D03*
X125476000Y-109102000D03*
X125476000Y-104902000D03*
G04 #@! TD*
D15*
G04 #@! TO.C,C29*
X38608000Y-115570000D03*
X38608000Y-120570000D03*
G04 #@! TD*
G04 #@! TO.C,C28*
X58928000Y-115570000D03*
X58928000Y-120570000D03*
G04 #@! TD*
G04 #@! TO.C,C27*
X29464000Y-115570000D03*
X29464000Y-120570000D03*
G04 #@! TD*
G04 #@! TO.C,C26*
X79248000Y-115570000D03*
X79248000Y-120570000D03*
G04 #@! TD*
G04 #@! TO.C,C25*
X38608000Y-49704000D03*
X38608000Y-44704000D03*
G04 #@! TD*
G04 #@! TO.C,C24*
X29464000Y-49704000D03*
X29464000Y-44704000D03*
G04 #@! TD*
G04 #@! TO.C,C23*
X79248000Y-49704000D03*
X79248000Y-44704000D03*
G04 #@! TD*
G04 #@! TO.C,C22*
X58928000Y-49704000D03*
X58928000Y-44704000D03*
G04 #@! TD*
D22*
G04 #@! TO.C,J2*
X115265200Y-24180800D03*
X128778000Y-24180800D03*
D23*
X122021600Y-23368000D03*
D16*
X125425200Y-29667200D03*
X118618000Y-29667200D03*
X123317000Y-27178000D03*
X120726200Y-27178000D03*
X125425200Y-27178000D03*
X118618000Y-27178000D03*
G04 #@! TD*
D12*
G04 #@! TO.C,U17*
X91186000Y-158242000D03*
D11*
X98806000Y-176022000D03*
X91186000Y-160782000D03*
X98806000Y-173482000D03*
X91186000Y-163322000D03*
X98806000Y-170942000D03*
X91186000Y-165862000D03*
X98806000Y-168402000D03*
X91186000Y-168402000D03*
X98806000Y-165862000D03*
X91186000Y-170942000D03*
X98806000Y-163322000D03*
X91186000Y-173482000D03*
X98806000Y-160782000D03*
X91186000Y-176022000D03*
X98806000Y-158242000D03*
G04 #@! TD*
D16*
G04 #@! TO.C,R*
X43434000Y-40386000D03*
G04 #@! TD*
G04 #@! TO.C,R*
X44958000Y-37846000D03*
G04 #@! TD*
G04 #@! TO.C,R*
X24638000Y-37846000D03*
G04 #@! TD*
G04 #@! TO.C,R*
X23114000Y-40386000D03*
G04 #@! TD*
D24*
G04 #@! TO.C,REF\u002A\u002A*
X51816000Y-183642000D03*
G04 #@! TD*
D10*
G04 #@! TO.C,REF\u002A\u002A*
X97536000Y-28702000D03*
G04 #@! TD*
D24*
G04 #@! TO.C,REF\u002A\u002A*
X51816000Y-28702000D03*
G04 #@! TD*
D16*
G04 #@! TO.C,R*
X84074000Y-40386000D03*
G04 #@! TD*
G04 #@! TO.C,R*
X85598000Y-37846000D03*
G04 #@! TD*
G04 #@! TO.C,R*
X63754000Y-40386000D03*
G04 #@! TD*
G04 #@! TO.C,R*
X65278000Y-37846000D03*
G04 #@! TD*
D13*
G04 #@! TO.C,J4*
X124206000Y-74422000D03*
X126746000Y-74422000D03*
X124206000Y-76962000D03*
X126746000Y-76962000D03*
X124206000Y-79502000D03*
X126746000Y-79502000D03*
X124206000Y-82042000D03*
X126746000Y-82042000D03*
X124206000Y-84582000D03*
X126746000Y-84582000D03*
X124206000Y-87122000D03*
X126746000Y-87122000D03*
X124206000Y-89662000D03*
X126746000Y-89662000D03*
X124206000Y-92202000D03*
D14*
X126746000Y-92202000D03*
G04 #@! TD*
D11*
G04 #@! TO.C,U9*
X37846000Y-130302000D03*
X30226000Y-148082000D03*
X37846000Y-132842000D03*
X30226000Y-145542000D03*
X37846000Y-135382000D03*
X30226000Y-143002000D03*
X37846000Y-137922000D03*
X30226000Y-140462000D03*
X37846000Y-140462000D03*
X30226000Y-137922000D03*
X37846000Y-143002000D03*
X30226000Y-135382000D03*
X37846000Y-145542000D03*
X30226000Y-132842000D03*
X37846000Y-148082000D03*
D12*
X30226000Y-130302000D03*
G04 #@! TD*
G04 #@! TO.C,U11*
X30226000Y-155702000D03*
D11*
X37846000Y-176022000D03*
X30226000Y-158242000D03*
X37846000Y-173482000D03*
X30226000Y-160782000D03*
X37846000Y-170942000D03*
X30226000Y-163322000D03*
X37846000Y-168402000D03*
X30226000Y-165862000D03*
X37846000Y-165862000D03*
X30226000Y-168402000D03*
X37846000Y-163322000D03*
X30226000Y-170942000D03*
X37846000Y-160782000D03*
X30226000Y-173482000D03*
X37846000Y-158242000D03*
X30226000Y-176022000D03*
X37846000Y-155702000D03*
G04 #@! TD*
D12*
G04 #@! TO.C,U12*
X50546000Y-130302000D03*
D11*
X58166000Y-148082000D03*
X50546000Y-132842000D03*
X58166000Y-145542000D03*
X50546000Y-135382000D03*
X58166000Y-143002000D03*
X50546000Y-137922000D03*
X58166000Y-140462000D03*
X50546000Y-140462000D03*
X58166000Y-137922000D03*
X50546000Y-143002000D03*
X58166000Y-135382000D03*
X50546000Y-145542000D03*
X58166000Y-132842000D03*
X50546000Y-148082000D03*
X58166000Y-130302000D03*
G04 #@! TD*
D12*
G04 #@! TO.C,U13*
X70866000Y-130302000D03*
D11*
X78486000Y-148082000D03*
X70866000Y-132842000D03*
X78486000Y-145542000D03*
X70866000Y-135382000D03*
X78486000Y-143002000D03*
X70866000Y-137922000D03*
X78486000Y-140462000D03*
X70866000Y-140462000D03*
X78486000Y-137922000D03*
X70866000Y-143002000D03*
X78486000Y-135382000D03*
X70866000Y-145542000D03*
X78486000Y-132842000D03*
X70866000Y-148082000D03*
X78486000Y-130302000D03*
G04 #@! TD*
D12*
G04 #@! TO.C,U14*
X50546000Y-158242000D03*
D11*
X58166000Y-173482000D03*
X50546000Y-160782000D03*
X58166000Y-170942000D03*
X50546000Y-163322000D03*
X58166000Y-168402000D03*
X50546000Y-165862000D03*
X58166000Y-165862000D03*
X50546000Y-168402000D03*
X58166000Y-163322000D03*
X50546000Y-170942000D03*
X58166000Y-160782000D03*
X50546000Y-173482000D03*
X58166000Y-158242000D03*
G04 #@! TD*
D12*
G04 #@! TO.C,U15*
X93726000Y-43942000D03*
D11*
X101346000Y-66802000D03*
X93726000Y-46482000D03*
X101346000Y-64262000D03*
X93726000Y-49022000D03*
X101346000Y-61722000D03*
X93726000Y-51562000D03*
X101346000Y-59182000D03*
X93726000Y-54102000D03*
X101346000Y-56642000D03*
X93726000Y-56642000D03*
X101346000Y-54102000D03*
X93726000Y-59182000D03*
X101346000Y-51562000D03*
X93726000Y-61722000D03*
X101346000Y-49022000D03*
X93726000Y-64262000D03*
X101346000Y-46482000D03*
X93726000Y-66802000D03*
X101346000Y-43942000D03*
G04 #@! TD*
D12*
G04 #@! TO.C,U16*
X91186000Y-130302000D03*
D11*
X98806000Y-145542000D03*
X91186000Y-132842000D03*
X98806000Y-143002000D03*
X91186000Y-135382000D03*
X98806000Y-140462000D03*
X91186000Y-137922000D03*
X98806000Y-137922000D03*
X91186000Y-140462000D03*
X98806000Y-135382000D03*
X91186000Y-143002000D03*
X98806000Y-132842000D03*
X91186000Y-145542000D03*
X98806000Y-130302000D03*
G04 #@! TD*
D25*
G04 #@! TO.C,Y2*
X44196000Y-161544000D03*
X44196000Y-156644000D03*
G04 #@! TD*
D16*
G04 #@! TO.C,J1*
X26416000Y-120142000D03*
X26416000Y-117602000D03*
X26416000Y-115062000D03*
X26416000Y-112522000D03*
X26416000Y-109982000D03*
X26416000Y-107442000D03*
X26416000Y-104902000D03*
X26416000Y-102362000D03*
X26416000Y-99822000D03*
X26416000Y-97282000D03*
X26416000Y-94742000D03*
X26416000Y-92202000D03*
X26416000Y-89662000D03*
X26416000Y-87122000D03*
X26416000Y-84582000D03*
X26416000Y-82042000D03*
X26416000Y-79502000D03*
X26416000Y-76962000D03*
X26416000Y-74422000D03*
X26416000Y-71882000D03*
X26416000Y-69342000D03*
X26416000Y-66802000D03*
X26416000Y-64262000D03*
X26416000Y-61722000D03*
X26416000Y-59182000D03*
X26416000Y-56642000D03*
X26416000Y-54102000D03*
X26416000Y-51562000D03*
X26416000Y-49022000D03*
X26416000Y-46482000D03*
X26416000Y-43942000D03*
X21336000Y-120142000D03*
X21336000Y-117602000D03*
X21336000Y-115062000D03*
X21336000Y-112522000D03*
X21336000Y-109982000D03*
X21336000Y-107442000D03*
X21336000Y-104902000D03*
X21336000Y-102362000D03*
X21336000Y-99822000D03*
X21336000Y-97282000D03*
X21336000Y-94742000D03*
X21336000Y-92202000D03*
X21336000Y-89662000D03*
X21336000Y-87122000D03*
X21336000Y-84582000D03*
X21336000Y-82042000D03*
X21336000Y-79502000D03*
X21336000Y-76962000D03*
X21336000Y-74422000D03*
X21336000Y-71882000D03*
X21336000Y-69342000D03*
X21336000Y-66802000D03*
X21336000Y-64262000D03*
X21336000Y-61722000D03*
X21336000Y-59182000D03*
X21336000Y-56642000D03*
X21336000Y-54102000D03*
X21336000Y-51562000D03*
X21336000Y-49022000D03*
X21336000Y-46482000D03*
D17*
X21336000Y-43942000D03*
G04 #@! TD*
G04 #@! TO.C,J7*
X41656000Y-43942000D03*
D16*
X41656000Y-46482000D03*
X41656000Y-49022000D03*
X41656000Y-51562000D03*
X41656000Y-54102000D03*
X41656000Y-56642000D03*
X41656000Y-59182000D03*
X41656000Y-61722000D03*
X41656000Y-64262000D03*
X41656000Y-66802000D03*
X41656000Y-69342000D03*
X41656000Y-71882000D03*
X41656000Y-74422000D03*
X41656000Y-76962000D03*
X41656000Y-79502000D03*
X41656000Y-82042000D03*
X41656000Y-84582000D03*
X41656000Y-87122000D03*
X41656000Y-89662000D03*
X41656000Y-92202000D03*
X41656000Y-94742000D03*
X41656000Y-97282000D03*
X41656000Y-99822000D03*
X41656000Y-102362000D03*
X41656000Y-104902000D03*
X41656000Y-107442000D03*
X41656000Y-109982000D03*
X41656000Y-112522000D03*
X41656000Y-115062000D03*
X41656000Y-117602000D03*
X41656000Y-120142000D03*
X46736000Y-43942000D03*
X46736000Y-46482000D03*
X46736000Y-49022000D03*
X46736000Y-51562000D03*
X46736000Y-54102000D03*
X46736000Y-56642000D03*
X46736000Y-59182000D03*
X46736000Y-61722000D03*
X46736000Y-64262000D03*
X46736000Y-66802000D03*
X46736000Y-69342000D03*
X46736000Y-71882000D03*
X46736000Y-74422000D03*
X46736000Y-76962000D03*
X46736000Y-79502000D03*
X46736000Y-82042000D03*
X46736000Y-84582000D03*
X46736000Y-87122000D03*
X46736000Y-89662000D03*
X46736000Y-92202000D03*
X46736000Y-94742000D03*
X46736000Y-97282000D03*
X46736000Y-99822000D03*
X46736000Y-102362000D03*
X46736000Y-104902000D03*
X46736000Y-107442000D03*
X46736000Y-109982000D03*
X46736000Y-112522000D03*
X46736000Y-115062000D03*
X46736000Y-117602000D03*
X46736000Y-120142000D03*
G04 #@! TD*
G04 #@! TO.C,J8*
X67056000Y-120142000D03*
X67056000Y-117602000D03*
X67056000Y-115062000D03*
X67056000Y-112522000D03*
X67056000Y-109982000D03*
X67056000Y-107442000D03*
X67056000Y-104902000D03*
X67056000Y-102362000D03*
X67056000Y-99822000D03*
X67056000Y-97282000D03*
X67056000Y-94742000D03*
X67056000Y-92202000D03*
X67056000Y-89662000D03*
X67056000Y-87122000D03*
X67056000Y-84582000D03*
X67056000Y-82042000D03*
X67056000Y-79502000D03*
X67056000Y-76962000D03*
X67056000Y-74422000D03*
X67056000Y-71882000D03*
X67056000Y-69342000D03*
X67056000Y-66802000D03*
X67056000Y-64262000D03*
X67056000Y-61722000D03*
X67056000Y-59182000D03*
X67056000Y-56642000D03*
X67056000Y-54102000D03*
X67056000Y-51562000D03*
X67056000Y-49022000D03*
X67056000Y-46482000D03*
X67056000Y-43942000D03*
X61976000Y-120142000D03*
X61976000Y-117602000D03*
X61976000Y-115062000D03*
X61976000Y-112522000D03*
X61976000Y-109982000D03*
X61976000Y-107442000D03*
X61976000Y-104902000D03*
X61976000Y-102362000D03*
X61976000Y-99822000D03*
X61976000Y-97282000D03*
X61976000Y-94742000D03*
X61976000Y-92202000D03*
X61976000Y-89662000D03*
X61976000Y-87122000D03*
X61976000Y-84582000D03*
X61976000Y-82042000D03*
X61976000Y-79502000D03*
X61976000Y-76962000D03*
X61976000Y-74422000D03*
X61976000Y-71882000D03*
X61976000Y-69342000D03*
X61976000Y-66802000D03*
X61976000Y-64262000D03*
X61976000Y-61722000D03*
X61976000Y-59182000D03*
X61976000Y-56642000D03*
X61976000Y-54102000D03*
X61976000Y-51562000D03*
X61976000Y-49022000D03*
X61976000Y-46482000D03*
D17*
X61976000Y-43942000D03*
G04 #@! TD*
G04 #@! TO.C,J9*
X82296000Y-43942000D03*
D16*
X82296000Y-46482000D03*
X82296000Y-49022000D03*
X82296000Y-51562000D03*
X82296000Y-54102000D03*
X82296000Y-56642000D03*
X82296000Y-59182000D03*
X82296000Y-61722000D03*
X82296000Y-64262000D03*
X82296000Y-66802000D03*
X82296000Y-69342000D03*
X82296000Y-71882000D03*
X82296000Y-74422000D03*
X82296000Y-76962000D03*
X82296000Y-79502000D03*
X82296000Y-82042000D03*
X82296000Y-84582000D03*
X82296000Y-87122000D03*
X82296000Y-89662000D03*
X82296000Y-92202000D03*
X82296000Y-94742000D03*
X82296000Y-97282000D03*
X82296000Y-99822000D03*
X82296000Y-102362000D03*
X82296000Y-104902000D03*
X82296000Y-107442000D03*
X82296000Y-109982000D03*
X82296000Y-112522000D03*
X82296000Y-115062000D03*
X82296000Y-117602000D03*
X82296000Y-120142000D03*
X87376000Y-43942000D03*
X87376000Y-46482000D03*
X87376000Y-49022000D03*
X87376000Y-51562000D03*
X87376000Y-54102000D03*
X87376000Y-56642000D03*
X87376000Y-59182000D03*
X87376000Y-61722000D03*
X87376000Y-64262000D03*
X87376000Y-66802000D03*
X87376000Y-69342000D03*
X87376000Y-71882000D03*
X87376000Y-74422000D03*
X87376000Y-76962000D03*
X87376000Y-79502000D03*
X87376000Y-82042000D03*
X87376000Y-84582000D03*
X87376000Y-87122000D03*
X87376000Y-89662000D03*
X87376000Y-92202000D03*
X87376000Y-94742000D03*
X87376000Y-97282000D03*
X87376000Y-99822000D03*
X87376000Y-102362000D03*
X87376000Y-104902000D03*
X87376000Y-107442000D03*
X87376000Y-109982000D03*
X87376000Y-112522000D03*
X87376000Y-115062000D03*
X87376000Y-117602000D03*
X87376000Y-120142000D03*
G04 #@! TD*
D26*
G04 #@! TO.C,U19*
X120650000Y-46482000D03*
D27*
X118110000Y-46482000D03*
X115570000Y-46482000D03*
X123190000Y-46482000D03*
X125730000Y-46482000D03*
X118110000Y-43942000D03*
X115570000Y-43942000D03*
X113030000Y-43942000D03*
X120650000Y-43942000D03*
X123190000Y-43942000D03*
X113030000Y-46482000D03*
X113030000Y-49022000D03*
X113030000Y-51562000D03*
X113030000Y-54102000D03*
X113030000Y-56642000D03*
X110490000Y-46482000D03*
X110490000Y-49022000D03*
X110490000Y-51562000D03*
X110490000Y-54102000D03*
X110490000Y-56642000D03*
X110490000Y-59182000D03*
X113030000Y-59182000D03*
X115570000Y-59182000D03*
X118110000Y-59182000D03*
X120650000Y-59182000D03*
X123190000Y-59182000D03*
X128270000Y-59182000D03*
X113030000Y-61722000D03*
X115570000Y-61722000D03*
X118110000Y-61722000D03*
X120650000Y-61722000D03*
X123190000Y-61722000D03*
X125730000Y-61722000D03*
X125730000Y-59182000D03*
X125730000Y-56642000D03*
X125730000Y-54102000D03*
X125730000Y-51562000D03*
X125730000Y-49022000D03*
X125730000Y-43942000D03*
X128270000Y-56642000D03*
X128270000Y-54102000D03*
X128270000Y-51562000D03*
X128270000Y-49022000D03*
X128270000Y-46482000D03*
G04 #@! TD*
D12*
G04 #@! TO.C,U20*
X93726000Y-76962000D03*
D11*
X101346000Y-92202000D03*
X93726000Y-79502000D03*
X101346000Y-89662000D03*
X93726000Y-82042000D03*
X101346000Y-87122000D03*
X93726000Y-84582000D03*
X101346000Y-84582000D03*
X93726000Y-87122000D03*
X101346000Y-82042000D03*
X93726000Y-89662000D03*
X101346000Y-79502000D03*
X93726000Y-92202000D03*
X101346000Y-76962000D03*
G04 #@! TD*
D15*
G04 #@! TO.C,C1*
X37846000Y-127000000D03*
X32846000Y-127000000D03*
G04 #@! TD*
G04 #@! TO.C,C2*
X53166000Y-127000000D03*
X58166000Y-127000000D03*
G04 #@! TD*
G04 #@! TO.C,C3*
X98806000Y-154940000D03*
X93806000Y-154940000D03*
G04 #@! TD*
G04 #@! TO.C,C4*
X53166000Y-154940000D03*
X58166000Y-154940000D03*
G04 #@! TD*
G04 #@! TO.C,C5*
X93806000Y-127000000D03*
X98806000Y-127000000D03*
G04 #@! TD*
G04 #@! TO.C,C6*
X78486000Y-154940000D03*
X73486000Y-154940000D03*
G04 #@! TD*
G04 #@! TO.C,C8*
X73486000Y-127000000D03*
X78486000Y-127000000D03*
G04 #@! TD*
G04 #@! TO.C,C12*
X37846000Y-152400000D03*
X32846000Y-152400000D03*
G04 #@! TD*
M02*
