G04 #@! TF.GenerationSoftware,KiCad,Pcbnew,(5.1.8)-1*
G04 #@! TF.CreationDate,2021-09-16T13:44:59-06:00*
G04 #@! TF.ProjectId,Multi,4d756c74-692e-46b6-9963-61645f706362,rev?*
G04 #@! TF.SameCoordinates,Original*
G04 #@! TF.FileFunction,Legend,Top*
G04 #@! TF.FilePolarity,Positive*
%FSLAX46Y46*%
G04 Gerber Fmt 4.6, Leading zero omitted, Abs format (unit mm)*
G04 Created by KiCad (PCBNEW (5.1.8)-1) date 2021-09-16 13:44:59*
%MOMM*%
%LPD*%
G01*
G04 APERTURE LIST*
%ADD10C,0.127000*%
%ADD11C,0.150000*%
%ADD12C,0.300000*%
%ADD13C,0.120000*%
G04 APERTURE END LIST*
D10*
X102819502Y-46711809D02*
X102819502Y-46203809D01*
X102940454Y-46203809D01*
X103013026Y-46228000D01*
X103061407Y-46276380D01*
X103085597Y-46324761D01*
X103109788Y-46421523D01*
X103109788Y-46494095D01*
X103085597Y-46590857D01*
X103061407Y-46639238D01*
X103013026Y-46687619D01*
X102940454Y-46711809D01*
X102819502Y-46711809D01*
X103279121Y-46203809D02*
X103617788Y-46203809D01*
X103400073Y-46711809D01*
X102819502Y-49251809D02*
X102819502Y-48743809D01*
X102940454Y-48743809D01*
X103013026Y-48768000D01*
X103061407Y-48816380D01*
X103085597Y-48864761D01*
X103109788Y-48961523D01*
X103109788Y-49034095D01*
X103085597Y-49130857D01*
X103061407Y-49179238D01*
X103013026Y-49227619D01*
X102940454Y-49251809D01*
X102819502Y-49251809D01*
X103545216Y-48743809D02*
X103448454Y-48743809D01*
X103400073Y-48768000D01*
X103375883Y-48792190D01*
X103327502Y-48864761D01*
X103303311Y-48961523D01*
X103303311Y-49155047D01*
X103327502Y-49203428D01*
X103351692Y-49227619D01*
X103400073Y-49251809D01*
X103496835Y-49251809D01*
X103545216Y-49227619D01*
X103569407Y-49203428D01*
X103593597Y-49155047D01*
X103593597Y-49034095D01*
X103569407Y-48985714D01*
X103545216Y-48961523D01*
X103496835Y-48937333D01*
X103400073Y-48937333D01*
X103351692Y-48961523D01*
X103327502Y-48985714D01*
X103303311Y-49034095D01*
X102819502Y-54331809D02*
X102819502Y-53823809D01*
X102940454Y-53823809D01*
X103013026Y-53848000D01*
X103061407Y-53896380D01*
X103085597Y-53944761D01*
X103109788Y-54041523D01*
X103109788Y-54114095D01*
X103085597Y-54210857D01*
X103061407Y-54259238D01*
X103013026Y-54307619D01*
X102940454Y-54331809D01*
X102819502Y-54331809D01*
X103545216Y-53993142D02*
X103545216Y-54331809D01*
X103424264Y-53799619D02*
X103303311Y-54162476D01*
X103617788Y-54162476D01*
X102819502Y-56871809D02*
X102819502Y-56363809D01*
X102940454Y-56363809D01*
X103013026Y-56388000D01*
X103061407Y-56436380D01*
X103085597Y-56484761D01*
X103109788Y-56581523D01*
X103109788Y-56654095D01*
X103085597Y-56750857D01*
X103061407Y-56799238D01*
X103013026Y-56847619D01*
X102940454Y-56871809D01*
X102819502Y-56871809D01*
X103279121Y-56363809D02*
X103593597Y-56363809D01*
X103424264Y-56557333D01*
X103496835Y-56557333D01*
X103545216Y-56581523D01*
X103569407Y-56605714D01*
X103593597Y-56654095D01*
X103593597Y-56775047D01*
X103569407Y-56823428D01*
X103545216Y-56847619D01*
X103496835Y-56871809D01*
X103351692Y-56871809D01*
X103303311Y-56847619D01*
X103279121Y-56823428D01*
X102819502Y-59411809D02*
X102819502Y-58903809D01*
X102940454Y-58903809D01*
X103013026Y-58928000D01*
X103061407Y-58976380D01*
X103085597Y-59024761D01*
X103109788Y-59121523D01*
X103109788Y-59194095D01*
X103085597Y-59290857D01*
X103061407Y-59339238D01*
X103013026Y-59387619D01*
X102940454Y-59411809D01*
X102819502Y-59411809D01*
X103303311Y-58952190D02*
X103327502Y-58928000D01*
X103375883Y-58903809D01*
X103496835Y-58903809D01*
X103545216Y-58928000D01*
X103569407Y-58952190D01*
X103593597Y-59000571D01*
X103593597Y-59048952D01*
X103569407Y-59121523D01*
X103279121Y-59411809D01*
X103593597Y-59411809D01*
X102795311Y-61927619D02*
X102867883Y-61951809D01*
X102988835Y-61951809D01*
X103037216Y-61927619D01*
X103061407Y-61903428D01*
X103085597Y-61855047D01*
X103085597Y-61806666D01*
X103061407Y-61758285D01*
X103037216Y-61734095D01*
X102988835Y-61709904D01*
X102892073Y-61685714D01*
X102843692Y-61661523D01*
X102819502Y-61637333D01*
X102795311Y-61588952D01*
X102795311Y-61540571D01*
X102819502Y-61492190D01*
X102843692Y-61468000D01*
X102892073Y-61443809D01*
X103013026Y-61443809D01*
X103085597Y-61468000D01*
X103303311Y-61951809D02*
X103303311Y-61443809D01*
X103496835Y-61443809D01*
X103545216Y-61468000D01*
X103569407Y-61492190D01*
X103593597Y-61540571D01*
X103593597Y-61613142D01*
X103569407Y-61661523D01*
X103545216Y-61685714D01*
X103496835Y-61709904D01*
X103303311Y-61709904D01*
X103811311Y-61951809D02*
X103811311Y-61443809D01*
X104101597Y-61951809D02*
X103883883Y-61661523D01*
X104101597Y-61443809D02*
X103811311Y-61734095D01*
X104706359Y-61685714D02*
X104875692Y-61685714D01*
X104948264Y-61951809D02*
X104706359Y-61951809D01*
X104706359Y-61443809D01*
X104948264Y-61443809D01*
X105165978Y-61951809D02*
X105165978Y-61443809D01*
X105456264Y-61951809D01*
X105456264Y-61443809D01*
X102795311Y-64721619D02*
X102867883Y-64745809D01*
X102988835Y-64745809D01*
X103037216Y-64721619D01*
X103061407Y-64697428D01*
X103085597Y-64649047D01*
X103085597Y-64600666D01*
X103061407Y-64552285D01*
X103037216Y-64528095D01*
X102988835Y-64503904D01*
X102892073Y-64479714D01*
X102843692Y-64455523D01*
X102819502Y-64431333D01*
X102795311Y-64382952D01*
X102795311Y-64334571D01*
X102819502Y-64286190D01*
X102843692Y-64262000D01*
X102892073Y-64237809D01*
X103013026Y-64237809D01*
X103085597Y-64262000D01*
X103303311Y-64745809D02*
X103303311Y-64237809D01*
X103496835Y-64237809D01*
X103545216Y-64262000D01*
X103569407Y-64286190D01*
X103593597Y-64334571D01*
X103593597Y-64407142D01*
X103569407Y-64455523D01*
X103545216Y-64479714D01*
X103496835Y-64503904D01*
X103303311Y-64503904D01*
X103811311Y-64745809D02*
X103811311Y-64237809D01*
X104101597Y-64745809D02*
X103883883Y-64455523D01*
X104101597Y-64237809D02*
X103811311Y-64528095D01*
X104972454Y-64262000D02*
X104924073Y-64237809D01*
X104851502Y-64237809D01*
X104778930Y-64262000D01*
X104730550Y-64310380D01*
X104706359Y-64358761D01*
X104682169Y-64455523D01*
X104682169Y-64528095D01*
X104706359Y-64624857D01*
X104730550Y-64673238D01*
X104778930Y-64721619D01*
X104851502Y-64745809D01*
X104899883Y-64745809D01*
X104972454Y-64721619D01*
X104996645Y-64697428D01*
X104996645Y-64528095D01*
X104899883Y-64528095D01*
X105311121Y-64237809D02*
X105407883Y-64237809D01*
X105456264Y-64262000D01*
X105504645Y-64310380D01*
X105528835Y-64407142D01*
X105528835Y-64576476D01*
X105504645Y-64673238D01*
X105456264Y-64721619D01*
X105407883Y-64745809D01*
X105311121Y-64745809D01*
X105262740Y-64721619D01*
X105214359Y-64673238D01*
X105190169Y-64576476D01*
X105190169Y-64407142D01*
X105214359Y-64310380D01*
X105262740Y-64262000D01*
X105311121Y-64237809D01*
X103109788Y-51298928D02*
X103085597Y-51323119D01*
X103013026Y-51347309D01*
X102964645Y-51347309D01*
X102892073Y-51323119D01*
X102843692Y-51274738D01*
X102819502Y-51226357D01*
X102795311Y-51129595D01*
X102795311Y-51057023D01*
X102819502Y-50960261D01*
X102843692Y-50911880D01*
X102892073Y-50863500D01*
X102964645Y-50839309D01*
X103013026Y-50839309D01*
X103085597Y-50863500D01*
X103109788Y-50887690D01*
X103327502Y-51347309D02*
X103327502Y-50839309D01*
X103327502Y-51081214D02*
X103617788Y-51081214D01*
X103617788Y-51347309D02*
X103617788Y-50839309D01*
X103738740Y-51395690D02*
X104125788Y-51395690D01*
X104537026Y-51298928D02*
X104512835Y-51323119D01*
X104440264Y-51347309D01*
X104391883Y-51347309D01*
X104319311Y-51323119D01*
X104270930Y-51274738D01*
X104246740Y-51226357D01*
X104222550Y-51129595D01*
X104222550Y-51057023D01*
X104246740Y-50960261D01*
X104270930Y-50911880D01*
X104319311Y-50863500D01*
X104391883Y-50839309D01*
X104440264Y-50839309D01*
X104512835Y-50863500D01*
X104537026Y-50887690D01*
X104754740Y-51347309D02*
X104754740Y-50839309D01*
X105045026Y-51347309D02*
X104827311Y-51057023D01*
X105045026Y-50839309D02*
X104754740Y-51129595D01*
X105649788Y-51081214D02*
X105819121Y-51081214D01*
X105891692Y-51347309D02*
X105649788Y-51347309D01*
X105649788Y-50839309D01*
X105891692Y-50839309D01*
X106109407Y-51347309D02*
X106109407Y-50839309D01*
X106399692Y-51347309D01*
X106399692Y-50839309D01*
X102819502Y-52236309D02*
X102819502Y-51728309D01*
X103109788Y-52236309D01*
X103109788Y-51728309D01*
X103351692Y-52236309D02*
X103351692Y-51728309D01*
X103521026Y-52091166D01*
X103690359Y-51728309D01*
X103690359Y-52236309D01*
X103932264Y-52236309D02*
X103932264Y-51728309D01*
X104561216Y-51970214D02*
X104730550Y-51970214D01*
X104803121Y-52236309D02*
X104561216Y-52236309D01*
X104561216Y-51728309D01*
X104803121Y-51728309D01*
X105020835Y-52236309D02*
X105020835Y-51728309D01*
X105311121Y-52236309D01*
X105311121Y-51728309D01*
D11*
X117729047Y-188174380D02*
X117252857Y-188174380D01*
X117205238Y-188650571D01*
X117252857Y-188602952D01*
X117348095Y-188555333D01*
X117586190Y-188555333D01*
X117681428Y-188602952D01*
X117729047Y-188650571D01*
X117776666Y-188745809D01*
X117776666Y-188983904D01*
X117729047Y-189079142D01*
X117681428Y-189126761D01*
X117586190Y-189174380D01*
X117348095Y-189174380D01*
X117252857Y-189126761D01*
X117205238Y-189079142D01*
X118205238Y-188793428D02*
X118967142Y-188793428D01*
X118586190Y-189174380D02*
X118586190Y-188412476D01*
X114300095Y-188222000D02*
X114204857Y-188174380D01*
X114062000Y-188174380D01*
X113919142Y-188222000D01*
X113823904Y-188317238D01*
X113776285Y-188412476D01*
X113728666Y-188602952D01*
X113728666Y-188745809D01*
X113776285Y-188936285D01*
X113823904Y-189031523D01*
X113919142Y-189126761D01*
X114062000Y-189174380D01*
X114157238Y-189174380D01*
X114300095Y-189126761D01*
X114347714Y-189079142D01*
X114347714Y-188745809D01*
X114157238Y-188745809D01*
X114776285Y-189174380D02*
X114776285Y-188174380D01*
X115347714Y-189174380D01*
X115347714Y-188174380D01*
X115823904Y-189174380D02*
X115823904Y-188174380D01*
X116062000Y-188174380D01*
X116204857Y-188222000D01*
X116300095Y-188317238D01*
X116347714Y-188412476D01*
X116395333Y-188602952D01*
X116395333Y-188745809D01*
X116347714Y-188936285D01*
X116300095Y-189031523D01*
X116204857Y-189126761D01*
X116062000Y-189174380D01*
X115823904Y-189174380D01*
X108950285Y-189126761D02*
X109093142Y-189174380D01*
X109331238Y-189174380D01*
X109426476Y-189126761D01*
X109474095Y-189079142D01*
X109521714Y-188983904D01*
X109521714Y-188888666D01*
X109474095Y-188793428D01*
X109426476Y-188745809D01*
X109331238Y-188698190D01*
X109140761Y-188650571D01*
X109045523Y-188602952D01*
X108997904Y-188555333D01*
X108950285Y-188460095D01*
X108950285Y-188364857D01*
X108997904Y-188269619D01*
X109045523Y-188222000D01*
X109140761Y-188174380D01*
X109378857Y-188174380D01*
X109521714Y-188222000D01*
X109950285Y-189174380D02*
X109950285Y-188174380D01*
X110331238Y-188174380D01*
X110426476Y-188222000D01*
X110474095Y-188269619D01*
X110521714Y-188364857D01*
X110521714Y-188507714D01*
X110474095Y-188602952D01*
X110426476Y-188650571D01*
X110331238Y-188698190D01*
X109950285Y-188698190D01*
X110950285Y-189174380D02*
X110950285Y-188174380D01*
X111521714Y-189174380D02*
X111093142Y-188602952D01*
X111521714Y-188174380D02*
X110950285Y-188745809D01*
X122626380Y-121016000D02*
X122674000Y-121063619D01*
X122721619Y-121158857D01*
X122721619Y-121396952D01*
X122674000Y-121492190D01*
X122626380Y-121539809D01*
X122531142Y-121587428D01*
X122435904Y-121587428D01*
X122293047Y-121539809D01*
X121721619Y-120968380D01*
X121721619Y-121587428D01*
X122388285Y-122444571D02*
X121721619Y-122444571D01*
X122769238Y-122206476D02*
X122054952Y-121968380D01*
X122054952Y-122587428D01*
X121721619Y-123730285D02*
X122721619Y-123730285D01*
X122721619Y-124111238D01*
X122674000Y-124206476D01*
X122626380Y-124254095D01*
X122531142Y-124301714D01*
X122388285Y-124301714D01*
X122293047Y-124254095D01*
X122245428Y-124206476D01*
X122197809Y-124111238D01*
X122197809Y-123730285D01*
X121721619Y-124730285D02*
X122721619Y-124730285D01*
X121721619Y-125206476D02*
X122721619Y-125206476D01*
X121721619Y-125777904D01*
X122721619Y-125777904D01*
X122007333Y-126968380D02*
X122007333Y-127444571D01*
X121721619Y-126873142D02*
X122721619Y-127206476D01*
X121721619Y-127539809D01*
X122721619Y-127730285D02*
X122721619Y-128301714D01*
X121721619Y-128016000D02*
X122721619Y-128016000D01*
X122721619Y-128539809D02*
X121721619Y-129206476D01*
X122721619Y-129206476D02*
X121721619Y-128539809D01*
X121721619Y-130349333D02*
X122721619Y-130349333D01*
X122721619Y-130730285D01*
X122674000Y-130825523D01*
X122626380Y-130873142D01*
X122531142Y-130920761D01*
X122388285Y-130920761D01*
X122293047Y-130873142D01*
X122245428Y-130825523D01*
X122197809Y-130730285D01*
X122197809Y-130349333D01*
X122721619Y-131539809D02*
X122721619Y-131730285D01*
X122674000Y-131825523D01*
X122578761Y-131920761D01*
X122388285Y-131968380D01*
X122054952Y-131968380D01*
X121864476Y-131920761D01*
X121769238Y-131825523D01*
X121721619Y-131730285D01*
X121721619Y-131539809D01*
X121769238Y-131444571D01*
X121864476Y-131349333D01*
X122054952Y-131301714D01*
X122388285Y-131301714D01*
X122578761Y-131349333D01*
X122674000Y-131444571D01*
X122721619Y-131539809D01*
X122721619Y-132301714D02*
X121721619Y-132539809D01*
X122435904Y-132730285D01*
X121721619Y-132920761D01*
X122721619Y-133158857D01*
X122245428Y-133539809D02*
X122245428Y-133873142D01*
X121721619Y-134016000D02*
X121721619Y-133539809D01*
X122721619Y-133539809D01*
X122721619Y-134016000D01*
X121721619Y-135016000D02*
X122197809Y-134682666D01*
X121721619Y-134444571D02*
X122721619Y-134444571D01*
X122721619Y-134825523D01*
X122674000Y-134920761D01*
X122626380Y-134968380D01*
X122531142Y-135016000D01*
X122388285Y-135016000D01*
X122293047Y-134968380D01*
X122245428Y-134920761D01*
X122197809Y-134825523D01*
X122197809Y-134444571D01*
X122674000Y-73684190D02*
X122721619Y-73623714D01*
X122721619Y-73533000D01*
X122674000Y-73442285D01*
X122578761Y-73381809D01*
X122483523Y-73351571D01*
X122293047Y-73321333D01*
X122150190Y-73321333D01*
X121959714Y-73351571D01*
X121864476Y-73381809D01*
X121769238Y-73442285D01*
X121721619Y-73533000D01*
X121721619Y-73593476D01*
X121769238Y-73684190D01*
X121816857Y-73714428D01*
X122150190Y-73714428D01*
X122150190Y-73593476D01*
X121721619Y-73986571D02*
X122721619Y-73986571D01*
X121721619Y-74349428D01*
X122721619Y-74349428D01*
X121721619Y-74651809D02*
X122721619Y-74651809D01*
X122721619Y-74803000D01*
X122674000Y-74893714D01*
X122578761Y-74954190D01*
X122483523Y-74984428D01*
X122293047Y-75014666D01*
X122150190Y-75014666D01*
X121959714Y-74984428D01*
X121864476Y-74954190D01*
X121769238Y-74893714D01*
X121721619Y-74803000D01*
X121721619Y-74651809D01*
X122674000Y-76224190D02*
X122721619Y-76163714D01*
X122721619Y-76073000D01*
X122674000Y-75982285D01*
X122578761Y-75921809D01*
X122483523Y-75891571D01*
X122293047Y-75861333D01*
X122150190Y-75861333D01*
X121959714Y-75891571D01*
X121864476Y-75921809D01*
X121769238Y-75982285D01*
X121721619Y-76073000D01*
X121721619Y-76133476D01*
X121769238Y-76224190D01*
X121816857Y-76254428D01*
X122150190Y-76254428D01*
X122150190Y-76133476D01*
X121721619Y-76526571D02*
X122721619Y-76526571D01*
X121721619Y-76889428D01*
X122721619Y-76889428D01*
X121721619Y-77191809D02*
X122721619Y-77191809D01*
X122721619Y-77343000D01*
X122674000Y-77433714D01*
X122578761Y-77494190D01*
X122483523Y-77524428D01*
X122293047Y-77554666D01*
X122150190Y-77554666D01*
X121959714Y-77524428D01*
X121864476Y-77494190D01*
X121769238Y-77433714D01*
X121721619Y-77343000D01*
X121721619Y-77191809D01*
X121721619Y-81168119D02*
X122721619Y-81168119D01*
X121721619Y-81833357D02*
X122197809Y-81621690D01*
X121721619Y-81470500D02*
X122721619Y-81470500D01*
X122721619Y-81712404D01*
X122674000Y-81772880D01*
X122626380Y-81803119D01*
X122531142Y-81833357D01*
X122388285Y-81833357D01*
X122293047Y-81803119D01*
X122245428Y-81772880D01*
X122197809Y-81712404D01*
X122197809Y-81470500D01*
X122721619Y-82377642D02*
X122721619Y-82256690D01*
X122674000Y-82196214D01*
X122626380Y-82165976D01*
X122483523Y-82105500D01*
X122293047Y-82075261D01*
X121912095Y-82075261D01*
X121816857Y-82105500D01*
X121769238Y-82135738D01*
X121721619Y-82196214D01*
X121721619Y-82317166D01*
X121769238Y-82377642D01*
X121816857Y-82407880D01*
X121912095Y-82438119D01*
X122150190Y-82438119D01*
X122245428Y-82407880D01*
X122293047Y-82377642D01*
X122340666Y-82317166D01*
X122340666Y-82196214D01*
X122293047Y-82135738D01*
X122245428Y-82105500D01*
X122150190Y-82075261D01*
X128325619Y-83843904D02*
X129325619Y-83843904D01*
X129325619Y-84082000D01*
X129278000Y-84224857D01*
X129182761Y-84320095D01*
X129087523Y-84367714D01*
X128897047Y-84415333D01*
X128754190Y-84415333D01*
X128563714Y-84367714D01*
X128468476Y-84320095D01*
X128373238Y-84224857D01*
X128325619Y-84082000D01*
X128325619Y-83843904D01*
X128992285Y-85272476D02*
X128325619Y-85272476D01*
X129373238Y-85034380D02*
X128658952Y-84796285D01*
X128658952Y-85415333D01*
X128325619Y-81303904D02*
X129325619Y-81303904D01*
X129325619Y-81542000D01*
X129278000Y-81684857D01*
X129182761Y-81780095D01*
X129087523Y-81827714D01*
X128897047Y-81875333D01*
X128754190Y-81875333D01*
X128563714Y-81827714D01*
X128468476Y-81780095D01*
X128373238Y-81684857D01*
X128325619Y-81542000D01*
X128325619Y-81303904D01*
X129325619Y-82208666D02*
X129325619Y-82827714D01*
X128944666Y-82494380D01*
X128944666Y-82637238D01*
X128897047Y-82732476D01*
X128849428Y-82780095D01*
X128754190Y-82827714D01*
X128516095Y-82827714D01*
X128420857Y-82780095D01*
X128373238Y-82732476D01*
X128325619Y-82637238D01*
X128325619Y-82351523D01*
X128373238Y-82256285D01*
X128420857Y-82208666D01*
X122721619Y-91019428D02*
X121721619Y-91257523D01*
X122435904Y-91448000D01*
X121721619Y-91638476D01*
X122721619Y-91876571D01*
X121721619Y-92828952D02*
X122197809Y-92495619D01*
X121721619Y-92257523D02*
X122721619Y-92257523D01*
X122721619Y-92638476D01*
X122674000Y-92733714D01*
X122626380Y-92781333D01*
X122531142Y-92828952D01*
X122388285Y-92828952D01*
X122293047Y-92781333D01*
X122245428Y-92733714D01*
X122197809Y-92638476D01*
X122197809Y-92257523D01*
X128325619Y-88923904D02*
X129325619Y-88923904D01*
X129325619Y-89162000D01*
X129278000Y-89304857D01*
X129182761Y-89400095D01*
X129087523Y-89447714D01*
X128897047Y-89495333D01*
X128754190Y-89495333D01*
X128563714Y-89447714D01*
X128468476Y-89400095D01*
X128373238Y-89304857D01*
X128325619Y-89162000D01*
X128325619Y-88923904D01*
X129325619Y-90352476D02*
X129325619Y-90162000D01*
X129278000Y-90066761D01*
X129230380Y-90019142D01*
X129087523Y-89923904D01*
X128897047Y-89876285D01*
X128516095Y-89876285D01*
X128420857Y-89923904D01*
X128373238Y-89971523D01*
X128325619Y-90066761D01*
X128325619Y-90257238D01*
X128373238Y-90352476D01*
X128420857Y-90400095D01*
X128516095Y-90447714D01*
X128754190Y-90447714D01*
X128849428Y-90400095D01*
X128897047Y-90352476D01*
X128944666Y-90257238D01*
X128944666Y-90066761D01*
X128897047Y-89971523D01*
X128849428Y-89923904D01*
X128754190Y-89876285D01*
X128325619Y-76223904D02*
X129325619Y-76223904D01*
X129325619Y-76462000D01*
X129278000Y-76604857D01*
X129182761Y-76700095D01*
X129087523Y-76747714D01*
X128897047Y-76795333D01*
X128754190Y-76795333D01*
X128563714Y-76747714D01*
X128468476Y-76700095D01*
X128373238Y-76604857D01*
X128325619Y-76462000D01*
X128325619Y-76223904D01*
X128325619Y-77747714D02*
X128325619Y-77176285D01*
X128325619Y-77462000D02*
X129325619Y-77462000D01*
X129182761Y-77366761D01*
X129087523Y-77271523D01*
X129039904Y-77176285D01*
X128325619Y-86383904D02*
X129325619Y-86383904D01*
X129325619Y-86622000D01*
X129278000Y-86764857D01*
X129182761Y-86860095D01*
X129087523Y-86907714D01*
X128897047Y-86955333D01*
X128754190Y-86955333D01*
X128563714Y-86907714D01*
X128468476Y-86860095D01*
X128373238Y-86764857D01*
X128325619Y-86622000D01*
X128325619Y-86383904D01*
X129325619Y-87860095D02*
X129325619Y-87383904D01*
X128849428Y-87336285D01*
X128897047Y-87383904D01*
X128944666Y-87479142D01*
X128944666Y-87717238D01*
X128897047Y-87812476D01*
X128849428Y-87860095D01*
X128754190Y-87907714D01*
X128516095Y-87907714D01*
X128420857Y-87860095D01*
X128373238Y-87812476D01*
X128325619Y-87717238D01*
X128325619Y-87479142D01*
X128373238Y-87383904D01*
X128420857Y-87336285D01*
X128325619Y-78763904D02*
X129325619Y-78763904D01*
X129325619Y-79002000D01*
X129278000Y-79144857D01*
X129182761Y-79240095D01*
X129087523Y-79287714D01*
X128897047Y-79335333D01*
X128754190Y-79335333D01*
X128563714Y-79287714D01*
X128468476Y-79240095D01*
X128373238Y-79144857D01*
X128325619Y-79002000D01*
X128325619Y-78763904D01*
X129230380Y-79716285D02*
X129278000Y-79763904D01*
X129325619Y-79859142D01*
X129325619Y-80097238D01*
X129278000Y-80192476D01*
X129230380Y-80240095D01*
X129135142Y-80287714D01*
X129039904Y-80287714D01*
X128897047Y-80240095D01*
X128325619Y-79668666D01*
X128325619Y-80287714D01*
X128325619Y-91463904D02*
X129325619Y-91463904D01*
X129325619Y-91702000D01*
X129278000Y-91844857D01*
X129182761Y-91940095D01*
X129087523Y-91987714D01*
X128897047Y-92035333D01*
X128754190Y-92035333D01*
X128563714Y-91987714D01*
X128468476Y-91940095D01*
X128373238Y-91844857D01*
X128325619Y-91702000D01*
X128325619Y-91463904D01*
X129325619Y-92368666D02*
X129325619Y-93035333D01*
X128325619Y-92606761D01*
X121721619Y-89217523D02*
X122197809Y-88884190D01*
X121721619Y-88646095D02*
X122721619Y-88646095D01*
X122721619Y-89027047D01*
X122674000Y-89122285D01*
X122626380Y-89169904D01*
X122531142Y-89217523D01*
X122388285Y-89217523D01*
X122293047Y-89169904D01*
X122245428Y-89122285D01*
X122197809Y-89027047D01*
X122197809Y-88646095D01*
X121721619Y-89646095D02*
X122721619Y-89646095D01*
X122721619Y-89884190D01*
X122674000Y-90027047D01*
X122578761Y-90122285D01*
X122483523Y-90169904D01*
X122293047Y-90217523D01*
X122150190Y-90217523D01*
X121959714Y-90169904D01*
X121864476Y-90122285D01*
X121769238Y-90027047D01*
X121721619Y-89884190D01*
X121721619Y-89646095D01*
X122721619Y-79006095D02*
X122721619Y-78703714D01*
X122245428Y-78673476D01*
X122293047Y-78703714D01*
X122340666Y-78764190D01*
X122340666Y-78915380D01*
X122293047Y-78975857D01*
X122245428Y-79006095D01*
X122150190Y-79036333D01*
X121912095Y-79036333D01*
X121816857Y-79006095D01*
X121769238Y-78975857D01*
X121721619Y-78915380D01*
X121721619Y-78764190D01*
X121769238Y-78703714D01*
X121816857Y-78673476D01*
X122102571Y-79308476D02*
X122102571Y-79792285D01*
X121721619Y-79550380D02*
X122483523Y-79550380D01*
X128325619Y-73683904D02*
X129325619Y-73683904D01*
X129325619Y-73922000D01*
X129278000Y-74064857D01*
X129182761Y-74160095D01*
X129087523Y-74207714D01*
X128897047Y-74255333D01*
X128754190Y-74255333D01*
X128563714Y-74207714D01*
X128468476Y-74160095D01*
X128373238Y-74064857D01*
X128325619Y-73922000D01*
X128325619Y-73683904D01*
X129325619Y-74874380D02*
X129325619Y-74969619D01*
X129278000Y-75064857D01*
X129230380Y-75112476D01*
X129135142Y-75160095D01*
X128944666Y-75207714D01*
X128706571Y-75207714D01*
X128516095Y-75160095D01*
X128420857Y-75112476D01*
X128373238Y-75064857D01*
X128325619Y-74969619D01*
X128325619Y-74874380D01*
X128373238Y-74779142D01*
X128420857Y-74731523D01*
X128516095Y-74683904D01*
X128706571Y-74636285D01*
X128944666Y-74636285D01*
X129135142Y-74683904D01*
X129230380Y-74731523D01*
X129278000Y-74779142D01*
X129325619Y-74874380D01*
X122007333Y-83613714D02*
X122007333Y-84089904D01*
X121721619Y-83518476D02*
X122721619Y-83851809D01*
X121721619Y-84185142D01*
X122626380Y-84470857D02*
X122674000Y-84518476D01*
X122721619Y-84613714D01*
X122721619Y-84851809D01*
X122674000Y-84947047D01*
X122626380Y-84994666D01*
X122531142Y-85042285D01*
X122435904Y-85042285D01*
X122293047Y-84994666D01*
X121721619Y-84423238D01*
X121721619Y-85042285D01*
X121816857Y-86701333D02*
X121769238Y-86653714D01*
X121721619Y-86510857D01*
X121721619Y-86415619D01*
X121769238Y-86272761D01*
X121864476Y-86177523D01*
X121959714Y-86129904D01*
X122150190Y-86082285D01*
X122293047Y-86082285D01*
X122483523Y-86129904D01*
X122578761Y-86177523D01*
X122674000Y-86272761D01*
X122721619Y-86415619D01*
X122721619Y-86510857D01*
X122674000Y-86653714D01*
X122626380Y-86701333D01*
X121769238Y-87082285D02*
X121721619Y-87225142D01*
X121721619Y-87463238D01*
X121769238Y-87558476D01*
X121816857Y-87606095D01*
X121912095Y-87653714D01*
X122007333Y-87653714D01*
X122102571Y-87606095D01*
X122150190Y-87558476D01*
X122197809Y-87463238D01*
X122245428Y-87272761D01*
X122293047Y-87177523D01*
X122340666Y-87129904D01*
X122435904Y-87082285D01*
X122531142Y-87082285D01*
X122626380Y-87129904D01*
X122674000Y-87177523D01*
X122721619Y-87272761D01*
X122721619Y-87510857D01*
X122674000Y-87653714D01*
D12*
X21126142Y-20197857D02*
X21626142Y-20197857D01*
X21840428Y-20983571D02*
X21126142Y-20983571D01*
X21126142Y-19483571D01*
X21840428Y-19483571D01*
X22483285Y-20983571D02*
X22483285Y-19483571D01*
X22983285Y-20555000D01*
X23483285Y-19483571D01*
X23483285Y-20983571D01*
X24197571Y-20983571D02*
X24197571Y-19483571D01*
X24697571Y-20555000D01*
X25197571Y-19483571D01*
X25197571Y-20983571D01*
X27911857Y-20840714D02*
X27840428Y-20912142D01*
X27626142Y-20983571D01*
X27483285Y-20983571D01*
X27269000Y-20912142D01*
X27126142Y-20769285D01*
X27054714Y-20626428D01*
X26983285Y-20340714D01*
X26983285Y-20126428D01*
X27054714Y-19840714D01*
X27126142Y-19697857D01*
X27269000Y-19555000D01*
X27483285Y-19483571D01*
X27626142Y-19483571D01*
X27840428Y-19555000D01*
X27911857Y-19626428D01*
X28840428Y-19483571D02*
X29126142Y-19483571D01*
X29269000Y-19555000D01*
X29411857Y-19697857D01*
X29483285Y-19983571D01*
X29483285Y-20483571D01*
X29411857Y-20769285D01*
X29269000Y-20912142D01*
X29126142Y-20983571D01*
X28840428Y-20983571D01*
X28697571Y-20912142D01*
X28554714Y-20769285D01*
X28483285Y-20483571D01*
X28483285Y-19983571D01*
X28554714Y-19697857D01*
X28697571Y-19555000D01*
X28840428Y-19483571D01*
X30126142Y-20983571D02*
X30126142Y-19483571D01*
X30626142Y-20555000D01*
X31126142Y-19483571D01*
X31126142Y-20983571D01*
X31840428Y-20983571D02*
X31840428Y-19483571D01*
X32411857Y-19483571D01*
X32554714Y-19555000D01*
X32626142Y-19626428D01*
X32697571Y-19769285D01*
X32697571Y-19983571D01*
X32626142Y-20126428D01*
X32554714Y-20197857D01*
X32411857Y-20269285D01*
X31840428Y-20269285D01*
X33340428Y-19483571D02*
X33340428Y-20697857D01*
X33411857Y-20840714D01*
X33483285Y-20912142D01*
X33626142Y-20983571D01*
X33911857Y-20983571D01*
X34054714Y-20912142D01*
X34126142Y-20840714D01*
X34197571Y-20697857D01*
X34197571Y-19483571D01*
X34697571Y-19483571D02*
X35554714Y-19483571D01*
X35126142Y-20983571D02*
X35126142Y-19483571D01*
X36054714Y-20197857D02*
X36554714Y-20197857D01*
X36769000Y-20983571D02*
X36054714Y-20983571D01*
X36054714Y-19483571D01*
X36769000Y-19483571D01*
X38269000Y-20983571D02*
X37769000Y-20269285D01*
X37411857Y-20983571D02*
X37411857Y-19483571D01*
X37983285Y-19483571D01*
X38126142Y-19555000D01*
X38197571Y-19626428D01*
X38269000Y-19769285D01*
X38269000Y-19983571D01*
X38197571Y-20126428D01*
X38126142Y-20197857D01*
X37983285Y-20269285D01*
X37411857Y-20269285D01*
X38840428Y-20912142D02*
X39054714Y-20983571D01*
X39411857Y-20983571D01*
X39554714Y-20912142D01*
X39626142Y-20840714D01*
X39697571Y-20697857D01*
X39697571Y-20555000D01*
X39626142Y-20412142D01*
X39554714Y-20340714D01*
X39411857Y-20269285D01*
X39126142Y-20197857D01*
X38983285Y-20126428D01*
X38911857Y-20055000D01*
X38840428Y-19912142D01*
X38840428Y-19769285D01*
X38911857Y-19626428D01*
X38983285Y-19555000D01*
X39126142Y-19483571D01*
X39483285Y-19483571D01*
X39697571Y-19555000D01*
X21340428Y-22676428D02*
X21197571Y-22605000D01*
X21126142Y-22533571D01*
X21054714Y-22390714D01*
X21054714Y-22319285D01*
X21126142Y-22176428D01*
X21197571Y-22105000D01*
X21340428Y-22033571D01*
X21626142Y-22033571D01*
X21769000Y-22105000D01*
X21840428Y-22176428D01*
X21911857Y-22319285D01*
X21911857Y-22390714D01*
X21840428Y-22533571D01*
X21769000Y-22605000D01*
X21626142Y-22676428D01*
X21340428Y-22676428D01*
X21197571Y-22747857D01*
X21126142Y-22819285D01*
X21054714Y-22962142D01*
X21054714Y-23247857D01*
X21126142Y-23390714D01*
X21197571Y-23462142D01*
X21340428Y-23533571D01*
X21626142Y-23533571D01*
X21769000Y-23462142D01*
X21840428Y-23390714D01*
X21911857Y-23247857D01*
X21911857Y-22962142D01*
X21840428Y-22819285D01*
X21769000Y-22747857D01*
X21626142Y-22676428D01*
X22554714Y-22962142D02*
X23697571Y-22962142D01*
X24911857Y-22747857D02*
X25126142Y-22819285D01*
X25197571Y-22890714D01*
X25269000Y-23033571D01*
X25269000Y-23247857D01*
X25197571Y-23390714D01*
X25126142Y-23462142D01*
X24983285Y-23533571D01*
X24411857Y-23533571D01*
X24411857Y-22033571D01*
X24911857Y-22033571D01*
X25054714Y-22105000D01*
X25126142Y-22176428D01*
X25197571Y-22319285D01*
X25197571Y-22462142D01*
X25126142Y-22605000D01*
X25054714Y-22676428D01*
X24911857Y-22747857D01*
X24411857Y-22747857D01*
X25911857Y-23533571D02*
X25911857Y-22033571D01*
X26411857Y-22033571D02*
X27269000Y-22033571D01*
X26840428Y-23533571D02*
X26840428Y-22033571D01*
X28911857Y-23533571D02*
X28911857Y-22033571D01*
X29411857Y-23105000D01*
X29911857Y-22033571D01*
X29911857Y-23533571D01*
X30554714Y-23105000D02*
X31269000Y-23105000D01*
X30411857Y-23533571D02*
X30911857Y-22033571D01*
X31411857Y-23533571D01*
X31911857Y-23533571D02*
X31911857Y-22033571D01*
X32626142Y-23533571D02*
X32626142Y-22033571D01*
X33483285Y-23533571D01*
X33483285Y-22033571D01*
X35840428Y-22747857D02*
X36054714Y-22819285D01*
X36126142Y-22890714D01*
X36197571Y-23033571D01*
X36197571Y-23247857D01*
X36126142Y-23390714D01*
X36054714Y-23462142D01*
X35911857Y-23533571D01*
X35340428Y-23533571D01*
X35340428Y-22033571D01*
X35840428Y-22033571D01*
X35983285Y-22105000D01*
X36054714Y-22176428D01*
X36126142Y-22319285D01*
X36126142Y-22462142D01*
X36054714Y-22605000D01*
X35983285Y-22676428D01*
X35840428Y-22747857D01*
X35340428Y-22747857D01*
X37126142Y-22033571D02*
X37411857Y-22033571D01*
X37554714Y-22105000D01*
X37697571Y-22247857D01*
X37769000Y-22533571D01*
X37769000Y-23033571D01*
X37697571Y-23319285D01*
X37554714Y-23462142D01*
X37411857Y-23533571D01*
X37126142Y-23533571D01*
X36983285Y-23462142D01*
X36840428Y-23319285D01*
X36769000Y-23033571D01*
X36769000Y-22533571D01*
X36840428Y-22247857D01*
X36983285Y-22105000D01*
X37126142Y-22033571D01*
X38340428Y-23105000D02*
X39054714Y-23105000D01*
X38197571Y-23533571D02*
X38697571Y-22033571D01*
X39197571Y-23533571D01*
X40554714Y-23533571D02*
X40054714Y-22819285D01*
X39697571Y-23533571D02*
X39697571Y-22033571D01*
X40269000Y-22033571D01*
X40411857Y-22105000D01*
X40483285Y-22176428D01*
X40554714Y-22319285D01*
X40554714Y-22533571D01*
X40483285Y-22676428D01*
X40411857Y-22747857D01*
X40269000Y-22819285D01*
X39697571Y-22819285D01*
X41197571Y-23533571D02*
X41197571Y-22033571D01*
X41554714Y-22033571D01*
X41769000Y-22105000D01*
X41911857Y-22247857D01*
X41983285Y-22390714D01*
X42054714Y-22676428D01*
X42054714Y-22890714D01*
X41983285Y-23176428D01*
X41911857Y-23319285D01*
X41769000Y-23462142D01*
X41554714Y-23533571D01*
X41197571Y-23533571D01*
X21983285Y-25940714D02*
X21911857Y-26012142D01*
X21697571Y-26083571D01*
X21554714Y-26083571D01*
X21340428Y-26012142D01*
X21197571Y-25869285D01*
X21126142Y-25726428D01*
X21054714Y-25440714D01*
X21054714Y-25226428D01*
X21126142Y-24940714D01*
X21197571Y-24797857D01*
X21340428Y-24655000D01*
X21554714Y-24583571D01*
X21697571Y-24583571D01*
X21911857Y-24655000D01*
X21983285Y-24726428D01*
X22840428Y-26083571D02*
X22697571Y-26012142D01*
X22626142Y-25940714D01*
X22554714Y-25797857D01*
X22554714Y-25369285D01*
X22626142Y-25226428D01*
X22697571Y-25155000D01*
X22840428Y-25083571D01*
X23054714Y-25083571D01*
X23197571Y-25155000D01*
X23269000Y-25226428D01*
X23340428Y-25369285D01*
X23340428Y-25797857D01*
X23269000Y-25940714D01*
X23197571Y-26012142D01*
X23054714Y-26083571D01*
X22840428Y-26083571D01*
X23983285Y-25083571D02*
X23983285Y-26583571D01*
X23983285Y-25155000D02*
X24126142Y-25083571D01*
X24411857Y-25083571D01*
X24554714Y-25155000D01*
X24626142Y-25226428D01*
X24697571Y-25369285D01*
X24697571Y-25797857D01*
X24626142Y-25940714D01*
X24554714Y-26012142D01*
X24411857Y-26083571D01*
X24126142Y-26083571D01*
X23983285Y-26012142D01*
X25197571Y-25083571D02*
X25554714Y-26083571D01*
X25911857Y-25083571D02*
X25554714Y-26083571D01*
X25411857Y-26440714D01*
X25340428Y-26512142D01*
X25197571Y-26583571D01*
X26483285Y-26083571D02*
X26483285Y-25083571D01*
X26483285Y-25369285D02*
X26554714Y-25226428D01*
X26626142Y-25155000D01*
X26769000Y-25083571D01*
X26911857Y-25083571D01*
X27411857Y-26083571D02*
X27411857Y-25083571D01*
X27411857Y-24583571D02*
X27340428Y-24655000D01*
X27411857Y-24726428D01*
X27483285Y-24655000D01*
X27411857Y-24583571D01*
X27411857Y-24726428D01*
X28769000Y-25083571D02*
X28769000Y-26297857D01*
X28697571Y-26440714D01*
X28626142Y-26512142D01*
X28483285Y-26583571D01*
X28269000Y-26583571D01*
X28126142Y-26512142D01*
X28769000Y-26012142D02*
X28626142Y-26083571D01*
X28340428Y-26083571D01*
X28197571Y-26012142D01*
X28126142Y-25940714D01*
X28054714Y-25797857D01*
X28054714Y-25369285D01*
X28126142Y-25226428D01*
X28197571Y-25155000D01*
X28340428Y-25083571D01*
X28626142Y-25083571D01*
X28769000Y-25155000D01*
X29483285Y-26083571D02*
X29483285Y-24583571D01*
X30126142Y-26083571D02*
X30126142Y-25297857D01*
X30054714Y-25155000D01*
X29911857Y-25083571D01*
X29697571Y-25083571D01*
X29554714Y-25155000D01*
X29483285Y-25226428D01*
X30626142Y-25083571D02*
X31197571Y-25083571D01*
X30840428Y-24583571D02*
X30840428Y-25869285D01*
X30911857Y-26012142D01*
X31054714Y-26083571D01*
X31197571Y-26083571D01*
X33269000Y-26655000D02*
X33197571Y-26583571D01*
X33054714Y-26369285D01*
X32983285Y-26226428D01*
X32911857Y-26012142D01*
X32840428Y-25655000D01*
X32840428Y-25369285D01*
X32911857Y-25012142D01*
X32983285Y-24797857D01*
X33054714Y-24655000D01*
X33197571Y-24440714D01*
X33269000Y-24369285D01*
X34697571Y-25940714D02*
X34626142Y-26012142D01*
X34411857Y-26083571D01*
X34269000Y-26083571D01*
X34054714Y-26012142D01*
X33911857Y-25869285D01*
X33840428Y-25726428D01*
X33769000Y-25440714D01*
X33769000Y-25226428D01*
X33840428Y-24940714D01*
X33911857Y-24797857D01*
X34054714Y-24655000D01*
X34269000Y-24583571D01*
X34411857Y-24583571D01*
X34626142Y-24655000D01*
X34697571Y-24726428D01*
X35197571Y-26655000D02*
X35269000Y-26583571D01*
X35411857Y-26369285D01*
X35483285Y-26226428D01*
X35554714Y-26012142D01*
X35626142Y-25655000D01*
X35626142Y-25369285D01*
X35554714Y-25012142D01*
X35483285Y-24797857D01*
X35411857Y-24655000D01*
X35269000Y-24440714D01*
X35197571Y-24369285D01*
X37411857Y-24726428D02*
X37483285Y-24655000D01*
X37626142Y-24583571D01*
X37983285Y-24583571D01*
X38126142Y-24655000D01*
X38197571Y-24726428D01*
X38269000Y-24869285D01*
X38269000Y-25012142D01*
X38197571Y-25226428D01*
X37340428Y-26083571D01*
X38269000Y-26083571D01*
X39197571Y-24583571D02*
X39340428Y-24583571D01*
X39483285Y-24655000D01*
X39554714Y-24726428D01*
X39626142Y-24869285D01*
X39697571Y-25155000D01*
X39697571Y-25512142D01*
X39626142Y-25797857D01*
X39554714Y-25940714D01*
X39483285Y-26012142D01*
X39340428Y-26083571D01*
X39197571Y-26083571D01*
X39054714Y-26012142D01*
X38983285Y-25940714D01*
X38911857Y-25797857D01*
X38840428Y-25512142D01*
X38840428Y-25155000D01*
X38911857Y-24869285D01*
X38983285Y-24726428D01*
X39054714Y-24655000D01*
X39197571Y-24583571D01*
X40269000Y-24726428D02*
X40340428Y-24655000D01*
X40483285Y-24583571D01*
X40840428Y-24583571D01*
X40983285Y-24655000D01*
X41054714Y-24726428D01*
X41126142Y-24869285D01*
X41126142Y-25012142D01*
X41054714Y-25226428D01*
X40197571Y-26083571D01*
X41126142Y-26083571D01*
X42554714Y-26083571D02*
X41697571Y-26083571D01*
X42126142Y-26083571D02*
X42126142Y-24583571D01*
X41983285Y-24797857D01*
X41840428Y-24940714D01*
X41697571Y-25012142D01*
X44340428Y-25297857D02*
X44840428Y-25297857D01*
X45054714Y-26083571D02*
X44340428Y-26083571D01*
X44340428Y-24583571D01*
X45054714Y-24583571D01*
X45697571Y-26083571D02*
X45697571Y-24583571D01*
X46197571Y-25655000D01*
X46697571Y-24583571D01*
X46697571Y-26083571D01*
X47411857Y-26083571D02*
X47411857Y-24583571D01*
X47911857Y-25655000D01*
X48411857Y-24583571D01*
X48411857Y-26083571D01*
X20983285Y-27633571D02*
X21269000Y-28633571D01*
X21554714Y-27919285D01*
X21840428Y-28633571D01*
X22126142Y-27633571D01*
X22554714Y-27633571D02*
X22840428Y-28633571D01*
X23126142Y-27919285D01*
X23411857Y-28633571D01*
X23697571Y-27633571D01*
X24126142Y-27633571D02*
X24411857Y-28633571D01*
X24697571Y-27919285D01*
X24983285Y-28633571D01*
X25269000Y-27633571D01*
X25840428Y-28490714D02*
X25911857Y-28562142D01*
X25840428Y-28633571D01*
X25769000Y-28562142D01*
X25840428Y-28490714D01*
X25840428Y-28633571D01*
X26554714Y-28633571D02*
X26554714Y-27133571D01*
X27197571Y-28633571D02*
X27197571Y-27847857D01*
X27126142Y-27705000D01*
X26983285Y-27633571D01*
X26769000Y-27633571D01*
X26626142Y-27705000D01*
X26554714Y-27776428D01*
X28126142Y-28633571D02*
X27983285Y-28562142D01*
X27911857Y-28490714D01*
X27840428Y-28347857D01*
X27840428Y-27919285D01*
X27911857Y-27776428D01*
X27983285Y-27705000D01*
X28126142Y-27633571D01*
X28340428Y-27633571D01*
X28483285Y-27705000D01*
X28554714Y-27776428D01*
X28626142Y-27919285D01*
X28626142Y-28347857D01*
X28554714Y-28490714D01*
X28483285Y-28562142D01*
X28340428Y-28633571D01*
X28126142Y-28633571D01*
X29269000Y-28633571D02*
X29269000Y-27633571D01*
X29269000Y-27776428D02*
X29340428Y-27705000D01*
X29483285Y-27633571D01*
X29697571Y-27633571D01*
X29840428Y-27705000D01*
X29911857Y-27847857D01*
X29911857Y-28633571D01*
X29911857Y-27847857D02*
X29983285Y-27705000D01*
X30126142Y-27633571D01*
X30340428Y-27633571D01*
X30483285Y-27705000D01*
X30554714Y-27847857D01*
X30554714Y-28633571D01*
X31840428Y-28562142D02*
X31697571Y-28633571D01*
X31411857Y-28633571D01*
X31269000Y-28562142D01*
X31197571Y-28419285D01*
X31197571Y-27847857D01*
X31269000Y-27705000D01*
X31411857Y-27633571D01*
X31697571Y-27633571D01*
X31840428Y-27705000D01*
X31911857Y-27847857D01*
X31911857Y-27990714D01*
X31197571Y-28133571D01*
X32554714Y-28633571D02*
X32554714Y-27133571D01*
X32554714Y-27705000D02*
X32697571Y-27633571D01*
X32983285Y-27633571D01*
X33126142Y-27705000D01*
X33197571Y-27776428D01*
X33269000Y-27919285D01*
X33269000Y-28347857D01*
X33197571Y-28490714D01*
X33126142Y-28562142D01*
X32983285Y-28633571D01*
X32697571Y-28633571D01*
X32554714Y-28562142D01*
X33911857Y-28633571D02*
X33911857Y-27633571D01*
X33911857Y-27919285D02*
X33983285Y-27776428D01*
X34054714Y-27705000D01*
X34197571Y-27633571D01*
X34340428Y-27633571D01*
X35411857Y-28562142D02*
X35269000Y-28633571D01*
X34983285Y-28633571D01*
X34840428Y-28562142D01*
X34769000Y-28419285D01*
X34769000Y-27847857D01*
X34840428Y-27705000D01*
X34983285Y-27633571D01*
X35269000Y-27633571D01*
X35411857Y-27705000D01*
X35483285Y-27847857D01*
X35483285Y-27990714D01*
X34769000Y-28133571D01*
X35983285Y-27633571D02*
X36269000Y-28633571D01*
X36554714Y-27919285D01*
X36840428Y-28633571D01*
X37126142Y-27633571D01*
X37911857Y-27776428D02*
X37769000Y-27705000D01*
X37697571Y-27633571D01*
X37626142Y-27490714D01*
X37626142Y-27419285D01*
X37697571Y-27276428D01*
X37769000Y-27205000D01*
X37911857Y-27133571D01*
X38197571Y-27133571D01*
X38340428Y-27205000D01*
X38411857Y-27276428D01*
X38483285Y-27419285D01*
X38483285Y-27490714D01*
X38411857Y-27633571D01*
X38340428Y-27705000D01*
X38197571Y-27776428D01*
X37911857Y-27776428D01*
X37769000Y-27847857D01*
X37697571Y-27919285D01*
X37626142Y-28062142D01*
X37626142Y-28347857D01*
X37697571Y-28490714D01*
X37769000Y-28562142D01*
X37911857Y-28633571D01*
X38197571Y-28633571D01*
X38340428Y-28562142D01*
X38411857Y-28490714D01*
X38483285Y-28347857D01*
X38483285Y-28062142D01*
X38411857Y-27919285D01*
X38340428Y-27847857D01*
X38197571Y-27776428D01*
X39411857Y-27133571D02*
X39554714Y-27133571D01*
X39697571Y-27205000D01*
X39769000Y-27276428D01*
X39840428Y-27419285D01*
X39911857Y-27705000D01*
X39911857Y-28062142D01*
X39840428Y-28347857D01*
X39769000Y-28490714D01*
X39697571Y-28562142D01*
X39554714Y-28633571D01*
X39411857Y-28633571D01*
X39269000Y-28562142D01*
X39197571Y-28490714D01*
X39126142Y-28347857D01*
X39054714Y-28062142D01*
X39054714Y-27705000D01*
X39126142Y-27419285D01*
X39197571Y-27276428D01*
X39269000Y-27205000D01*
X39411857Y-27133571D01*
X40769000Y-27776428D02*
X40626142Y-27705000D01*
X40554714Y-27633571D01*
X40483285Y-27490714D01*
X40483285Y-27419285D01*
X40554714Y-27276428D01*
X40626142Y-27205000D01*
X40769000Y-27133571D01*
X41054714Y-27133571D01*
X41197571Y-27205000D01*
X41269000Y-27276428D01*
X41340428Y-27419285D01*
X41340428Y-27490714D01*
X41269000Y-27633571D01*
X41197571Y-27705000D01*
X41054714Y-27776428D01*
X40769000Y-27776428D01*
X40626142Y-27847857D01*
X40554714Y-27919285D01*
X40483285Y-28062142D01*
X40483285Y-28347857D01*
X40554714Y-28490714D01*
X40626142Y-28562142D01*
X40769000Y-28633571D01*
X41054714Y-28633571D01*
X41197571Y-28562142D01*
X41269000Y-28490714D01*
X41340428Y-28347857D01*
X41340428Y-28062142D01*
X41269000Y-27919285D01*
X41197571Y-27847857D01*
X41054714Y-27776428D01*
X42197571Y-27776428D02*
X42054714Y-27705000D01*
X41983285Y-27633571D01*
X41911857Y-27490714D01*
X41911857Y-27419285D01*
X41983285Y-27276428D01*
X42054714Y-27205000D01*
X42197571Y-27133571D01*
X42483285Y-27133571D01*
X42626142Y-27205000D01*
X42697571Y-27276428D01*
X42769000Y-27419285D01*
X42769000Y-27490714D01*
X42697571Y-27633571D01*
X42626142Y-27705000D01*
X42483285Y-27776428D01*
X42197571Y-27776428D01*
X42054714Y-27847857D01*
X41983285Y-27919285D01*
X41911857Y-28062142D01*
X41911857Y-28347857D01*
X41983285Y-28490714D01*
X42054714Y-28562142D01*
X42197571Y-28633571D01*
X42483285Y-28633571D01*
X42626142Y-28562142D01*
X42697571Y-28490714D01*
X42769000Y-28347857D01*
X42769000Y-28062142D01*
X42697571Y-27919285D01*
X42626142Y-27847857D01*
X42483285Y-27776428D01*
X43411857Y-28490714D02*
X43483285Y-28562142D01*
X43411857Y-28633571D01*
X43340428Y-28562142D01*
X43411857Y-28490714D01*
X43411857Y-28633571D01*
X44769000Y-28562142D02*
X44626142Y-28633571D01*
X44340428Y-28633571D01*
X44197571Y-28562142D01*
X44126142Y-28490714D01*
X44054714Y-28347857D01*
X44054714Y-27919285D01*
X44126142Y-27776428D01*
X44197571Y-27705000D01*
X44340428Y-27633571D01*
X44626142Y-27633571D01*
X44769000Y-27705000D01*
X45626142Y-28633571D02*
X45483285Y-28562142D01*
X45411857Y-28490714D01*
X45340428Y-28347857D01*
X45340428Y-27919285D01*
X45411857Y-27776428D01*
X45483285Y-27705000D01*
X45626142Y-27633571D01*
X45840428Y-27633571D01*
X45983285Y-27705000D01*
X46054714Y-27776428D01*
X46126142Y-27919285D01*
X46126142Y-28347857D01*
X46054714Y-28490714D01*
X45983285Y-28562142D01*
X45840428Y-28633571D01*
X45626142Y-28633571D01*
X46769000Y-28633571D02*
X46769000Y-27633571D01*
X46769000Y-27776428D02*
X46840428Y-27705000D01*
X46983285Y-27633571D01*
X47197571Y-27633571D01*
X47340428Y-27705000D01*
X47411857Y-27847857D01*
X47411857Y-28633571D01*
X47411857Y-27847857D02*
X47483285Y-27705000D01*
X47626142Y-27633571D01*
X47840428Y-27633571D01*
X47983285Y-27705000D01*
X48054714Y-27847857D01*
X48054714Y-28633571D01*
D13*
G04 #@! TO.C,RN1*
X30988000Y-30604000D02*
X30988000Y-33404000D01*
X38778000Y-30604000D02*
X28278000Y-30604000D01*
X38778000Y-33404000D02*
X38778000Y-30604000D01*
X28278000Y-33404000D02*
X38778000Y-33404000D01*
X28278000Y-30604000D02*
X28278000Y-33404000D01*
G04 #@! TO.C,J5*
X105350000Y-134934000D02*
X108010000Y-134934000D01*
X105350000Y-132334000D02*
X105350000Y-134934000D01*
X108010000Y-132334000D02*
X108010000Y-134934000D01*
X105350000Y-132334000D02*
X108010000Y-132334000D01*
X105350000Y-131064000D02*
X105350000Y-129734000D01*
X105350000Y-129734000D02*
X106680000Y-129734000D01*
G04 #@! TO.C,R15*
X115800000Y-139446000D02*
X115030000Y-139446000D01*
X107720000Y-139446000D02*
X108490000Y-139446000D01*
X115030000Y-138076000D02*
X108490000Y-138076000D01*
X115030000Y-140816000D02*
X115030000Y-138076000D01*
X108490000Y-140816000D02*
X115030000Y-140816000D01*
X108490000Y-138076000D02*
X108490000Y-140816000D01*
G04 #@! TO.C,R13*
X107474000Y-99976000D02*
X107474000Y-102716000D01*
X107474000Y-102716000D02*
X114014000Y-102716000D01*
X114014000Y-102716000D02*
X114014000Y-99976000D01*
X114014000Y-99976000D02*
X107474000Y-99976000D01*
X106704000Y-101346000D02*
X107474000Y-101346000D01*
X114784000Y-101346000D02*
X114014000Y-101346000D01*
G04 #@! TO.C,R12*
X107474000Y-96928000D02*
X107474000Y-99668000D01*
X107474000Y-99668000D02*
X114014000Y-99668000D01*
X114014000Y-99668000D02*
X114014000Y-96928000D01*
X114014000Y-96928000D02*
X107474000Y-96928000D01*
X106704000Y-98298000D02*
X107474000Y-98298000D01*
X114784000Y-98298000D02*
X114014000Y-98298000D01*
G04 #@! TO.C,R11*
X108490000Y-144172000D02*
X108490000Y-146912000D01*
X108490000Y-146912000D02*
X115030000Y-146912000D01*
X115030000Y-146912000D02*
X115030000Y-144172000D01*
X115030000Y-144172000D02*
X108490000Y-144172000D01*
X107720000Y-145542000D02*
X108490000Y-145542000D01*
X115800000Y-145542000D02*
X115030000Y-145542000D01*
G04 #@! TO.C,R10*
X108490000Y-141124000D02*
X108490000Y-143864000D01*
X108490000Y-143864000D02*
X115030000Y-143864000D01*
X115030000Y-143864000D02*
X115030000Y-141124000D01*
X115030000Y-141124000D02*
X108490000Y-141124000D01*
X107720000Y-142494000D02*
X108490000Y-142494000D01*
X115800000Y-142494000D02*
X115030000Y-142494000D01*
G04 #@! TO.C,RN2*
X63246000Y-30604000D02*
X63246000Y-33404000D01*
X83736000Y-30604000D02*
X60536000Y-30604000D01*
X83736000Y-33404000D02*
X83736000Y-30604000D01*
X60536000Y-33404000D02*
X83736000Y-33404000D01*
X60536000Y-30604000D02*
X60536000Y-33404000D01*
G04 #@! TO.C,R9*
X111030000Y-34670000D02*
X111030000Y-37410000D01*
X111030000Y-37410000D02*
X117570000Y-37410000D01*
X117570000Y-37410000D02*
X117570000Y-34670000D01*
X117570000Y-34670000D02*
X111030000Y-34670000D01*
X110260000Y-36040000D02*
X111030000Y-36040000D01*
X118340000Y-36040000D02*
X117570000Y-36040000D01*
G04 #@! TO.C,R8*
X111030000Y-31650000D02*
X111030000Y-34390000D01*
X111030000Y-34390000D02*
X117570000Y-34390000D01*
X117570000Y-34390000D02*
X117570000Y-31650000D01*
X117570000Y-31650000D02*
X111030000Y-31650000D01*
X110260000Y-33020000D02*
X111030000Y-33020000D01*
X118340000Y-33020000D02*
X117570000Y-33020000D01*
G04 #@! TO.C,R7*
X115030000Y-153008000D02*
X115030000Y-150268000D01*
X115030000Y-150268000D02*
X108490000Y-150268000D01*
X108490000Y-150268000D02*
X108490000Y-153008000D01*
X108490000Y-153008000D02*
X115030000Y-153008000D01*
X115800000Y-151638000D02*
X115030000Y-151638000D01*
X107720000Y-151638000D02*
X108490000Y-151638000D01*
G04 #@! TO.C,R6*
X43842000Y-143986000D02*
X46582000Y-143986000D01*
X46582000Y-143986000D02*
X46582000Y-137446000D01*
X46582000Y-137446000D02*
X43842000Y-137446000D01*
X43842000Y-137446000D02*
X43842000Y-143986000D01*
X45212000Y-144756000D02*
X45212000Y-143986000D01*
X45212000Y-136676000D02*
X45212000Y-137446000D01*
G04 #@! TO.C,C10*
X119087000Y-79192000D02*
X119072000Y-79192000D01*
X121212000Y-79192000D02*
X121197000Y-79192000D01*
X119087000Y-74652000D02*
X119072000Y-74652000D01*
X121212000Y-74652000D02*
X121197000Y-74652000D01*
X119072000Y-74652000D02*
X119072000Y-79192000D01*
X121212000Y-74652000D02*
X121212000Y-79192000D01*
G04 #@! TO.C,C9*
X115880000Y-37792000D02*
X120420000Y-37792000D01*
X115880000Y-39932000D02*
X120420000Y-39932000D01*
X115880000Y-37792000D02*
X115880000Y-37807000D01*
X115880000Y-39917000D02*
X115880000Y-39932000D01*
X120420000Y-37792000D02*
X120420000Y-37807000D01*
X120420000Y-39917000D02*
X120420000Y-39932000D01*
G04 #@! TO.C,R4*
X44042000Y-168688000D02*
X41302000Y-168688000D01*
X41302000Y-168688000D02*
X41302000Y-175228000D01*
X41302000Y-175228000D02*
X44042000Y-175228000D01*
X44042000Y-175228000D02*
X44042000Y-168688000D01*
X42672000Y-167918000D02*
X42672000Y-168688000D01*
X42672000Y-175998000D02*
X42672000Y-175228000D01*
G04 #@! TO.C,R2*
X47090000Y-168688000D02*
X44350000Y-168688000D01*
X44350000Y-168688000D02*
X44350000Y-175228000D01*
X44350000Y-175228000D02*
X47090000Y-175228000D01*
X47090000Y-175228000D02*
X47090000Y-168688000D01*
X45720000Y-167918000D02*
X45720000Y-168688000D01*
X45720000Y-175998000D02*
X45720000Y-175228000D01*
G04 #@! TO.C,R18*
X27532000Y-157258000D02*
X24792000Y-157258000D01*
X24792000Y-157258000D02*
X24792000Y-163798000D01*
X24792000Y-163798000D02*
X27532000Y-163798000D01*
X27532000Y-163798000D02*
X27532000Y-157258000D01*
X26162000Y-156488000D02*
X26162000Y-157258000D01*
X26162000Y-164568000D02*
X26162000Y-163798000D01*
G04 #@! TO.C,R17*
X64362000Y-162592000D02*
X61622000Y-162592000D01*
X61622000Y-162592000D02*
X61622000Y-169132000D01*
X61622000Y-169132000D02*
X64362000Y-169132000D01*
X64362000Y-169132000D02*
X64362000Y-162592000D01*
X62992000Y-161822000D02*
X62992000Y-162592000D01*
X62992000Y-169902000D02*
X62992000Y-169132000D01*
G04 #@! TO.C,R14*
X24484000Y-157258000D02*
X21744000Y-157258000D01*
X21744000Y-157258000D02*
X21744000Y-163798000D01*
X21744000Y-163798000D02*
X24484000Y-163798000D01*
X24484000Y-163798000D02*
X24484000Y-157258000D01*
X23114000Y-156488000D02*
X23114000Y-157258000D01*
X23114000Y-164568000D02*
X23114000Y-163798000D01*
G04 #@! TO.C,R5*
X108490000Y-147220000D02*
X108490000Y-149960000D01*
X108490000Y-149960000D02*
X115030000Y-149960000D01*
X115030000Y-149960000D02*
X115030000Y-147220000D01*
X115030000Y-147220000D02*
X108490000Y-147220000D01*
X107720000Y-148590000D02*
X108490000Y-148590000D01*
X115800000Y-148590000D02*
X115030000Y-148590000D01*
G04 #@! TO.C,R3*
X67410000Y-162592000D02*
X64670000Y-162592000D01*
X64670000Y-162592000D02*
X64670000Y-169132000D01*
X64670000Y-169132000D02*
X67410000Y-169132000D01*
X67410000Y-169132000D02*
X67410000Y-162592000D01*
X66040000Y-161822000D02*
X66040000Y-162592000D01*
X66040000Y-169902000D02*
X66040000Y-169132000D01*
G04 #@! TO.C,U3*
X84582000Y-168680000D02*
X84582000Y-169450000D01*
X84582000Y-176760000D02*
X84582000Y-175990000D01*
X83212000Y-169450000D02*
X83212000Y-175990000D01*
X85952000Y-169450000D02*
X83212000Y-169450000D01*
X85952000Y-175990000D02*
X85952000Y-169450000D01*
X83212000Y-175990000D02*
X85952000Y-175990000D01*
G04 #@! TO.C,J6*
X114494000Y-170882000D02*
X115824000Y-170882000D01*
X114494000Y-172212000D02*
X114494000Y-170882000D01*
X114494000Y-173482000D02*
X117154000Y-173482000D01*
X117154000Y-173482000D02*
X117154000Y-176082000D01*
X114494000Y-173482000D02*
X114494000Y-176082000D01*
X114494000Y-176082000D02*
X117154000Y-176082000D01*
G04 #@! TO.C,J3*
X108906000Y-187512000D02*
X108906000Y-186182000D01*
X110236000Y-187512000D02*
X108906000Y-187512000D01*
X111506000Y-187512000D02*
X111506000Y-184852000D01*
X111506000Y-184852000D02*
X119186000Y-184852000D01*
X111506000Y-187512000D02*
X119186000Y-187512000D01*
X119186000Y-187512000D02*
X119186000Y-184852000D01*
G04 #@! TO.C,C1*
X101116000Y-74715000D02*
X101116000Y-74730000D01*
X101116000Y-72590000D02*
X101116000Y-72605000D01*
X96576000Y-74715000D02*
X96576000Y-74730000D01*
X96576000Y-72590000D02*
X96576000Y-72605000D01*
X96576000Y-74730000D02*
X101116000Y-74730000D01*
X96576000Y-72590000D02*
X101116000Y-72590000D01*
G04 #@! TO.C,U117*
X77326000Y-156912000D02*
X75676000Y-156912000D01*
X77326000Y-177352000D02*
X77326000Y-156912000D01*
X72026000Y-177352000D02*
X77326000Y-177352000D01*
X72026000Y-156912000D02*
X72026000Y-177352000D01*
X73676000Y-156912000D02*
X72026000Y-156912000D01*
X75676000Y-156912000D02*
G75*
G02*
X73676000Y-156912000I-1000000J0D01*
G01*
G04 #@! TO.C,J10*
X88646000Y-149352000D02*
X88646000Y-129032000D01*
X81026000Y-149352000D02*
X81026000Y-129032000D01*
X88646000Y-129032000D02*
X81026000Y-129032000D01*
X81026000Y-149352000D02*
X88646000Y-149352000D01*
G04 #@! TO.C,SW1*
X128924000Y-162258000D02*
X128924000Y-160758000D01*
X127674000Y-158258000D02*
X123174000Y-158258000D01*
X121924000Y-160758000D02*
X121924000Y-162258000D01*
X123174000Y-164758000D02*
X127674000Y-164758000D01*
G04 #@! TO.C,R1*
X106704000Y-106172000D02*
X107474000Y-106172000D01*
X114784000Y-106172000D02*
X114014000Y-106172000D01*
X107474000Y-107542000D02*
X114014000Y-107542000D01*
X107474000Y-104802000D02*
X107474000Y-107542000D01*
X114014000Y-104802000D02*
X107474000Y-104802000D01*
X114014000Y-107542000D02*
X114014000Y-104802000D01*
G04 #@! TO.C,D1*
X112204000Y-109184000D02*
X112048000Y-109184000D01*
X114520000Y-109184000D02*
X114364000Y-109184000D01*
X112204163Y-111785130D02*
G75*
G02*
X112204000Y-109703039I1079837J1041130D01*
G01*
X114363837Y-111785130D02*
G75*
G03*
X114364000Y-109703039I-1079837J1041130D01*
G01*
X112205392Y-112416335D02*
G75*
G02*
X112048484Y-109184000I1078608J1672335D01*
G01*
X114362608Y-112416335D02*
G75*
G03*
X114519516Y-109184000I-1078608J1672335D01*
G01*
G04 #@! TO.C,C7*
X101116000Y-41695000D02*
X101116000Y-41710000D01*
X101116000Y-39570000D02*
X101116000Y-39585000D01*
X96576000Y-41695000D02*
X96576000Y-41710000D01*
X96576000Y-39570000D02*
X96576000Y-39585000D01*
X96576000Y-41710000D02*
X101116000Y-41710000D01*
X96576000Y-39570000D02*
X101116000Y-39570000D01*
G04 #@! TO.C,8x8mm1*
X129540000Y-176610000D02*
X120904000Y-176610000D01*
X120904000Y-167974000D02*
X129540000Y-167974000D01*
X129540000Y-167974000D02*
X129540000Y-176610000D01*
X120904000Y-167974000D02*
X120904000Y-176610000D01*
G04 #@! TO.C,ATXPOWER1*
X125222000Y-111252000D02*
X119380000Y-111252000D01*
X123476000Y-153152000D02*
X131726000Y-153152000D01*
X123476000Y-152902000D02*
X123476000Y-153152000D01*
X123476000Y-102902000D02*
X123476000Y-152902000D01*
X131726000Y-152902000D02*
X131726000Y-153152000D01*
X131726000Y-102902000D02*
X131726000Y-152902000D01*
X123476000Y-102902000D02*
X131726000Y-102902000D01*
G04 #@! TO.C,C29*
X37538000Y-120340000D02*
X37538000Y-115800000D01*
X39678000Y-120340000D02*
X39678000Y-115800000D01*
X37538000Y-120340000D02*
X37553000Y-120340000D01*
X39663000Y-120340000D02*
X39678000Y-120340000D01*
X37538000Y-115800000D02*
X37553000Y-115800000D01*
X39663000Y-115800000D02*
X39678000Y-115800000D01*
G04 #@! TO.C,C28*
X57858000Y-120340000D02*
X57858000Y-115800000D01*
X59998000Y-120340000D02*
X59998000Y-115800000D01*
X57858000Y-120340000D02*
X57873000Y-120340000D01*
X59983000Y-120340000D02*
X59998000Y-120340000D01*
X57858000Y-115800000D02*
X57873000Y-115800000D01*
X59983000Y-115800000D02*
X59998000Y-115800000D01*
G04 #@! TO.C,C27*
X28394000Y-120340000D02*
X28394000Y-115800000D01*
X30534000Y-120340000D02*
X30534000Y-115800000D01*
X28394000Y-120340000D02*
X28409000Y-120340000D01*
X30519000Y-120340000D02*
X30534000Y-120340000D01*
X28394000Y-115800000D02*
X28409000Y-115800000D01*
X30519000Y-115800000D02*
X30534000Y-115800000D01*
G04 #@! TO.C,C26*
X78178000Y-120340000D02*
X78178000Y-115800000D01*
X80318000Y-120340000D02*
X80318000Y-115800000D01*
X78178000Y-120340000D02*
X78193000Y-120340000D01*
X80303000Y-120340000D02*
X80318000Y-120340000D01*
X78178000Y-115800000D02*
X78193000Y-115800000D01*
X80303000Y-115800000D02*
X80318000Y-115800000D01*
G04 #@! TO.C,C25*
X39678000Y-44934000D02*
X39678000Y-49474000D01*
X37538000Y-44934000D02*
X37538000Y-49474000D01*
X39678000Y-44934000D02*
X39663000Y-44934000D01*
X37553000Y-44934000D02*
X37538000Y-44934000D01*
X39678000Y-49474000D02*
X39663000Y-49474000D01*
X37553000Y-49474000D02*
X37538000Y-49474000D01*
G04 #@! TO.C,C24*
X30534000Y-44934000D02*
X30534000Y-49474000D01*
X28394000Y-44934000D02*
X28394000Y-49474000D01*
X30534000Y-44934000D02*
X30519000Y-44934000D01*
X28409000Y-44934000D02*
X28394000Y-44934000D01*
X30534000Y-49474000D02*
X30519000Y-49474000D01*
X28409000Y-49474000D02*
X28394000Y-49474000D01*
G04 #@! TO.C,C23*
X80318000Y-44934000D02*
X80318000Y-49474000D01*
X78178000Y-44934000D02*
X78178000Y-49474000D01*
X80318000Y-44934000D02*
X80303000Y-44934000D01*
X78193000Y-44934000D02*
X78178000Y-44934000D01*
X80318000Y-49474000D02*
X80303000Y-49474000D01*
X78193000Y-49474000D02*
X78178000Y-49474000D01*
G04 #@! TO.C,C22*
X59998000Y-44934000D02*
X59998000Y-49474000D01*
X57858000Y-44934000D02*
X57858000Y-49474000D01*
X59998000Y-44934000D02*
X59983000Y-44934000D01*
X57873000Y-44934000D02*
X57858000Y-44934000D01*
X59998000Y-49474000D02*
X59983000Y-49474000D01*
X57873000Y-49474000D02*
X57858000Y-49474000D01*
G04 #@! TO.C,J2*
X115265200Y-18669000D02*
X122021600Y-18669000D01*
X122021600Y-18669000D02*
X128778000Y-18669000D01*
X115265200Y-18669000D02*
X115265200Y-31470600D01*
X128778000Y-18669000D02*
X128778000Y-31470600D01*
X115265200Y-31470600D02*
X128778000Y-31470600D01*
G04 #@! TO.C,U17*
X97646000Y-156912000D02*
X95996000Y-156912000D01*
X97646000Y-177352000D02*
X97646000Y-156912000D01*
X92346000Y-177352000D02*
X97646000Y-177352000D01*
X92346000Y-156912000D02*
X92346000Y-177352000D01*
X93996000Y-156912000D02*
X92346000Y-156912000D01*
X95996000Y-156912000D02*
G75*
G02*
X93996000Y-156912000I-1000000J0D01*
G01*
G04 #@! TO.C,J4*
X128076000Y-73092000D02*
X122876000Y-73092000D01*
X128076000Y-90932000D02*
X128076000Y-73092000D01*
X122876000Y-93532000D02*
X122876000Y-73092000D01*
X128076000Y-90932000D02*
X125476000Y-90932000D01*
X125476000Y-90932000D02*
X125476000Y-93532000D01*
X125476000Y-93532000D02*
X122876000Y-93532000D01*
X128076000Y-92202000D02*
X128076000Y-93532000D01*
X128076000Y-93532000D02*
X126746000Y-93532000D01*
G04 #@! TO.C,U9*
X33036000Y-128972000D02*
X31386000Y-128972000D01*
X31386000Y-128972000D02*
X31386000Y-149412000D01*
X31386000Y-149412000D02*
X36686000Y-149412000D01*
X36686000Y-149412000D02*
X36686000Y-128972000D01*
X36686000Y-128972000D02*
X35036000Y-128972000D01*
X35036000Y-128972000D02*
G75*
G02*
X33036000Y-128972000I-1000000J0D01*
G01*
G04 #@! TO.C,U11*
X36686000Y-154372000D02*
X35036000Y-154372000D01*
X36686000Y-177352000D02*
X36686000Y-154372000D01*
X31386000Y-177352000D02*
X36686000Y-177352000D01*
X31386000Y-154372000D02*
X31386000Y-177352000D01*
X33036000Y-154372000D02*
X31386000Y-154372000D01*
X35036000Y-154372000D02*
G75*
G02*
X33036000Y-154372000I-1000000J0D01*
G01*
G04 #@! TO.C,U12*
X57006000Y-128972000D02*
X55356000Y-128972000D01*
X57006000Y-149412000D02*
X57006000Y-128972000D01*
X51706000Y-149412000D02*
X57006000Y-149412000D01*
X51706000Y-128972000D02*
X51706000Y-149412000D01*
X53356000Y-128972000D02*
X51706000Y-128972000D01*
X55356000Y-128972000D02*
G75*
G02*
X53356000Y-128972000I-1000000J0D01*
G01*
G04 #@! TO.C,U13*
X77326000Y-128972000D02*
X75676000Y-128972000D01*
X77326000Y-149412000D02*
X77326000Y-128972000D01*
X72026000Y-149412000D02*
X77326000Y-149412000D01*
X72026000Y-128972000D02*
X72026000Y-149412000D01*
X73676000Y-128972000D02*
X72026000Y-128972000D01*
X75676000Y-128972000D02*
G75*
G02*
X73676000Y-128972000I-1000000J0D01*
G01*
G04 #@! TO.C,U14*
X57006000Y-156912000D02*
X55356000Y-156912000D01*
X57006000Y-174812000D02*
X57006000Y-156912000D01*
X51706000Y-174812000D02*
X57006000Y-174812000D01*
X51706000Y-156912000D02*
X51706000Y-174812000D01*
X53356000Y-156912000D02*
X51706000Y-156912000D01*
X55356000Y-156912000D02*
G75*
G02*
X53356000Y-156912000I-1000000J0D01*
G01*
G04 #@! TO.C,U15*
X100186000Y-42612000D02*
X98536000Y-42612000D01*
X100186000Y-68132000D02*
X100186000Y-42612000D01*
X94886000Y-68132000D02*
X100186000Y-68132000D01*
X94886000Y-42612000D02*
X94886000Y-68132000D01*
X96536000Y-42612000D02*
X94886000Y-42612000D01*
X98536000Y-42612000D02*
G75*
G02*
X96536000Y-42612000I-1000000J0D01*
G01*
G04 #@! TO.C,U16*
X97646000Y-128972000D02*
X95996000Y-128972000D01*
X97646000Y-146872000D02*
X97646000Y-128972000D01*
X92346000Y-146872000D02*
X97646000Y-146872000D01*
X92346000Y-128972000D02*
X92346000Y-146872000D01*
X93996000Y-128972000D02*
X92346000Y-128972000D01*
X95996000Y-128972000D02*
G75*
G02*
X93996000Y-128972000I-1000000J0D01*
G01*
G04 #@! TO.C,Y2*
X46721000Y-162219000D02*
X46721000Y-155969000D01*
X41671000Y-162219000D02*
X41671000Y-155969000D01*
X46721000Y-162219000D02*
G75*
G02*
X41671000Y-162219000I-2525000J0D01*
G01*
X46721000Y-155969000D02*
G75*
G03*
X41671000Y-155969000I-2525000J0D01*
G01*
G04 #@! TO.C,J1*
X20066000Y-42672000D02*
X20066000Y-121412000D01*
X27686000Y-42672000D02*
X20066000Y-42672000D01*
X27686000Y-121412000D02*
X27686000Y-42672000D01*
X20066000Y-121412000D02*
X27686000Y-121412000D01*
G04 #@! TO.C,J7*
X40386000Y-121412000D02*
X48006000Y-121412000D01*
X48006000Y-121412000D02*
X48006000Y-42672000D01*
X48006000Y-42672000D02*
X40386000Y-42672000D01*
X40386000Y-42672000D02*
X40386000Y-121412000D01*
G04 #@! TO.C,J8*
X60706000Y-42672000D02*
X60706000Y-121412000D01*
X68326000Y-42672000D02*
X60706000Y-42672000D01*
X68326000Y-121412000D02*
X68326000Y-42672000D01*
X60706000Y-121412000D02*
X68326000Y-121412000D01*
G04 #@! TO.C,J9*
X81026000Y-121412000D02*
X88646000Y-121412000D01*
X88646000Y-121412000D02*
X88646000Y-42672000D01*
X88646000Y-42672000D02*
X81026000Y-42672000D01*
X81026000Y-42672000D02*
X81026000Y-121412000D01*
G04 #@! TO.C,U19*
X131230000Y-40982000D02*
X120380000Y-40982000D01*
X131230000Y-64682000D02*
X131230000Y-40982000D01*
X107530000Y-64682000D02*
X131230000Y-64682000D01*
X107530000Y-41982000D02*
X107530000Y-64682000D01*
X108530000Y-40982000D02*
X107530000Y-41982000D01*
X118380000Y-40982000D02*
X108530000Y-40982000D01*
G04 #@! TO.C,U20*
X96536000Y-75632000D02*
X94886000Y-75632000D01*
X94886000Y-75632000D02*
X94886000Y-93532000D01*
X94886000Y-93532000D02*
X100186000Y-93532000D01*
X100186000Y-93532000D02*
X100186000Y-75632000D01*
X100186000Y-75632000D02*
X98536000Y-75632000D01*
X98536000Y-75632000D02*
G75*
G02*
X96536000Y-75632000I-1000000J0D01*
G01*
G04 #@! TO.C,C1*
X37616000Y-128055000D02*
X37616000Y-128070000D01*
X37616000Y-125930000D02*
X37616000Y-125945000D01*
X33076000Y-128055000D02*
X33076000Y-128070000D01*
X33076000Y-125930000D02*
X33076000Y-125945000D01*
X33076000Y-128070000D02*
X37616000Y-128070000D01*
X33076000Y-125930000D02*
X37616000Y-125930000D01*
G04 #@! TO.C,C2*
X53396000Y-125930000D02*
X57936000Y-125930000D01*
X53396000Y-128070000D02*
X57936000Y-128070000D01*
X53396000Y-125930000D02*
X53396000Y-125945000D01*
X53396000Y-128055000D02*
X53396000Y-128070000D01*
X57936000Y-125930000D02*
X57936000Y-125945000D01*
X57936000Y-128055000D02*
X57936000Y-128070000D01*
G04 #@! TO.C,C3*
X98576000Y-155995000D02*
X98576000Y-156010000D01*
X98576000Y-153870000D02*
X98576000Y-153885000D01*
X94036000Y-155995000D02*
X94036000Y-156010000D01*
X94036000Y-153870000D02*
X94036000Y-153885000D01*
X94036000Y-156010000D02*
X98576000Y-156010000D01*
X94036000Y-153870000D02*
X98576000Y-153870000D01*
G04 #@! TO.C,C4*
X53396000Y-153870000D02*
X57936000Y-153870000D01*
X53396000Y-156010000D02*
X57936000Y-156010000D01*
X53396000Y-153870000D02*
X53396000Y-153885000D01*
X53396000Y-155995000D02*
X53396000Y-156010000D01*
X57936000Y-153870000D02*
X57936000Y-153885000D01*
X57936000Y-155995000D02*
X57936000Y-156010000D01*
G04 #@! TO.C,C5*
X94036000Y-125930000D02*
X98576000Y-125930000D01*
X94036000Y-128070000D02*
X98576000Y-128070000D01*
X94036000Y-125930000D02*
X94036000Y-125945000D01*
X94036000Y-128055000D02*
X94036000Y-128070000D01*
X98576000Y-125930000D02*
X98576000Y-125945000D01*
X98576000Y-128055000D02*
X98576000Y-128070000D01*
G04 #@! TO.C,C6*
X78256000Y-155995000D02*
X78256000Y-156010000D01*
X78256000Y-153870000D02*
X78256000Y-153885000D01*
X73716000Y-155995000D02*
X73716000Y-156010000D01*
X73716000Y-153870000D02*
X73716000Y-153885000D01*
X73716000Y-156010000D02*
X78256000Y-156010000D01*
X73716000Y-153870000D02*
X78256000Y-153870000D01*
G04 #@! TO.C,C8*
X73716000Y-125930000D02*
X78256000Y-125930000D01*
X73716000Y-128070000D02*
X78256000Y-128070000D01*
X73716000Y-125930000D02*
X73716000Y-125945000D01*
X73716000Y-128055000D02*
X73716000Y-128070000D01*
X78256000Y-125930000D02*
X78256000Y-125945000D01*
X78256000Y-128055000D02*
X78256000Y-128070000D01*
G04 #@! TO.C,C12*
X37616000Y-153455000D02*
X37616000Y-153470000D01*
X37616000Y-151330000D02*
X37616000Y-151345000D01*
X33076000Y-153455000D02*
X33076000Y-153470000D01*
X33076000Y-151330000D02*
X33076000Y-151345000D01*
X33076000Y-153470000D02*
X37616000Y-153470000D01*
X33076000Y-151330000D02*
X37616000Y-151330000D01*
G04 #@! TO.C,*
D11*
X93583619Y-71064380D02*
X93583619Y-70064380D01*
X93964571Y-70064380D01*
X94059809Y-70112000D01*
X94107428Y-70159619D01*
X94155047Y-70254857D01*
X94155047Y-70397714D01*
X94107428Y-70492952D01*
X94059809Y-70540571D01*
X93964571Y-70588190D01*
X93583619Y-70588190D01*
X94774095Y-70064380D02*
X94964571Y-70064380D01*
X95059809Y-70112000D01*
X95155047Y-70207238D01*
X95202666Y-70397714D01*
X95202666Y-70731047D01*
X95155047Y-70921523D01*
X95059809Y-71016761D01*
X94964571Y-71064380D01*
X94774095Y-71064380D01*
X94678857Y-71016761D01*
X94583619Y-70921523D01*
X94536000Y-70731047D01*
X94536000Y-70397714D01*
X94583619Y-70207238D01*
X94678857Y-70112000D01*
X94774095Y-70064380D01*
X96202666Y-71064380D02*
X95869333Y-70588190D01*
X95631238Y-71064380D02*
X95631238Y-70064380D01*
X96012190Y-70064380D01*
X96107428Y-70112000D01*
X96155047Y-70159619D01*
X96202666Y-70254857D01*
X96202666Y-70397714D01*
X96155047Y-70492952D01*
X96107428Y-70540571D01*
X96012190Y-70588190D01*
X95631238Y-70588190D01*
X96488380Y-70064380D02*
X97059809Y-70064380D01*
X96774095Y-71064380D02*
X96774095Y-70064380D01*
X98345523Y-70064380D02*
X98440761Y-70064380D01*
X98536000Y-70112000D01*
X98583619Y-70159619D01*
X98631238Y-70254857D01*
X98678857Y-70445333D01*
X98678857Y-70683428D01*
X98631238Y-70873904D01*
X98583619Y-70969142D01*
X98536000Y-71016761D01*
X98440761Y-71064380D01*
X98345523Y-71064380D01*
X98250285Y-71016761D01*
X98202666Y-70969142D01*
X98155047Y-70873904D01*
X98107428Y-70683428D01*
X98107428Y-70445333D01*
X98155047Y-70254857D01*
X98202666Y-70159619D01*
X98250285Y-70112000D01*
X98345523Y-70064380D01*
X99012190Y-70064380D02*
X99678857Y-71064380D01*
X99678857Y-70064380D02*
X99012190Y-71064380D01*
X100488380Y-70064380D02*
X100297904Y-70064380D01*
X100202666Y-70112000D01*
X100155047Y-70159619D01*
X100059809Y-70302476D01*
X100012190Y-70492952D01*
X100012190Y-70873904D01*
X100059809Y-70969142D01*
X100107428Y-71016761D01*
X100202666Y-71064380D01*
X100393142Y-71064380D01*
X100488380Y-71016761D01*
X100536000Y-70969142D01*
X100583619Y-70873904D01*
X100583619Y-70635809D01*
X100536000Y-70540571D01*
X100488380Y-70492952D01*
X100393142Y-70445333D01*
X100202666Y-70445333D01*
X100107428Y-70492952D01*
X100059809Y-70540571D01*
X100012190Y-70635809D01*
X101536000Y-71064380D02*
X100964571Y-71064380D01*
X101250285Y-71064380D02*
X101250285Y-70064380D01*
X101155047Y-70207238D01*
X101059809Y-70302476D01*
X100964571Y-70350095D01*
X115427619Y-67508380D02*
X115427619Y-66508380D01*
X115808571Y-66508380D01*
X115903809Y-66556000D01*
X115951428Y-66603619D01*
X115999047Y-66698857D01*
X115999047Y-66841714D01*
X115951428Y-66936952D01*
X115903809Y-66984571D01*
X115808571Y-67032190D01*
X115427619Y-67032190D01*
X116618095Y-66508380D02*
X116808571Y-66508380D01*
X116903809Y-66556000D01*
X116999047Y-66651238D01*
X117046666Y-66841714D01*
X117046666Y-67175047D01*
X116999047Y-67365523D01*
X116903809Y-67460761D01*
X116808571Y-67508380D01*
X116618095Y-67508380D01*
X116522857Y-67460761D01*
X116427619Y-67365523D01*
X116380000Y-67175047D01*
X116380000Y-66841714D01*
X116427619Y-66651238D01*
X116522857Y-66556000D01*
X116618095Y-66508380D01*
X118046666Y-67508380D02*
X117713333Y-67032190D01*
X117475238Y-67508380D02*
X117475238Y-66508380D01*
X117856190Y-66508380D01*
X117951428Y-66556000D01*
X117999047Y-66603619D01*
X118046666Y-66698857D01*
X118046666Y-66841714D01*
X117999047Y-66936952D01*
X117951428Y-66984571D01*
X117856190Y-67032190D01*
X117475238Y-67032190D01*
X118332380Y-66508380D02*
X118903809Y-66508380D01*
X118618095Y-67508380D02*
X118618095Y-66508380D01*
X120189523Y-66508380D02*
X120284761Y-66508380D01*
X120380000Y-66556000D01*
X120427619Y-66603619D01*
X120475238Y-66698857D01*
X120522857Y-66889333D01*
X120522857Y-67127428D01*
X120475238Y-67317904D01*
X120427619Y-67413142D01*
X120380000Y-67460761D01*
X120284761Y-67508380D01*
X120189523Y-67508380D01*
X120094285Y-67460761D01*
X120046666Y-67413142D01*
X119999047Y-67317904D01*
X119951428Y-67127428D01*
X119951428Y-66889333D01*
X119999047Y-66698857D01*
X120046666Y-66603619D01*
X120094285Y-66556000D01*
X120189523Y-66508380D01*
X120856190Y-66508380D02*
X121522857Y-67508380D01*
X121522857Y-66508380D02*
X120856190Y-67508380D01*
X122332380Y-66508380D02*
X122141904Y-66508380D01*
X122046666Y-66556000D01*
X121999047Y-66603619D01*
X121903809Y-66746476D01*
X121856190Y-66936952D01*
X121856190Y-67317904D01*
X121903809Y-67413142D01*
X121951428Y-67460761D01*
X122046666Y-67508380D01*
X122237142Y-67508380D01*
X122332380Y-67460761D01*
X122380000Y-67413142D01*
X122427619Y-67317904D01*
X122427619Y-67079809D01*
X122380000Y-66984571D01*
X122332380Y-66936952D01*
X122237142Y-66889333D01*
X122046666Y-66889333D01*
X121951428Y-66936952D01*
X121903809Y-66984571D01*
X121856190Y-67079809D01*
X123046666Y-66508380D02*
X123141904Y-66508380D01*
X123237142Y-66556000D01*
X123284761Y-66603619D01*
X123332380Y-66698857D01*
X123380000Y-66889333D01*
X123380000Y-67127428D01*
X123332380Y-67317904D01*
X123284761Y-67413142D01*
X123237142Y-67460761D01*
X123141904Y-67508380D01*
X123046666Y-67508380D01*
X122951428Y-67460761D01*
X122903809Y-67413142D01*
X122856190Y-67317904D01*
X122808571Y-67127428D01*
X122808571Y-66889333D01*
X122856190Y-66698857D01*
X122903809Y-66603619D01*
X122951428Y-66556000D01*
X123046666Y-66508380D01*
G04 #@! TO.C,RN1*
X32250380Y-34856380D02*
X31678952Y-34856380D01*
X31964666Y-34856380D02*
X31964666Y-33856380D01*
X31869428Y-33999238D01*
X31774190Y-34094476D01*
X31678952Y-34142095D01*
X32869428Y-33856380D02*
X32964666Y-33856380D01*
X33059904Y-33904000D01*
X33107523Y-33951619D01*
X33155142Y-34046857D01*
X33202761Y-34237333D01*
X33202761Y-34475428D01*
X33155142Y-34665904D01*
X33107523Y-34761142D01*
X33059904Y-34808761D01*
X32964666Y-34856380D01*
X32869428Y-34856380D01*
X32774190Y-34808761D01*
X32726571Y-34761142D01*
X32678952Y-34665904D01*
X32631333Y-34475428D01*
X32631333Y-34237333D01*
X32678952Y-34046857D01*
X32726571Y-33951619D01*
X32774190Y-33904000D01*
X32869428Y-33856380D01*
X33631333Y-34856380D02*
X33631333Y-33856380D01*
X33726571Y-34475428D02*
X34012285Y-34856380D01*
X34012285Y-34189714D02*
X33631333Y-34570666D01*
X35345619Y-34856380D02*
X35250380Y-34808761D01*
X35202761Y-34761142D01*
X35155142Y-34665904D01*
X35155142Y-34380190D01*
X35202761Y-34284952D01*
X35250380Y-34237333D01*
X35345619Y-34189714D01*
X35488476Y-34189714D01*
X35583714Y-34237333D01*
X35631333Y-34284952D01*
X35678952Y-34380190D01*
X35678952Y-34665904D01*
X35631333Y-34761142D01*
X35583714Y-34808761D01*
X35488476Y-34856380D01*
X35345619Y-34856380D01*
X36107523Y-34856380D02*
X36107523Y-33856380D01*
X36536095Y-34856380D02*
X36536095Y-34332571D01*
X36488476Y-34237333D01*
X36393238Y-34189714D01*
X36250380Y-34189714D01*
X36155142Y-34237333D01*
X36107523Y-34284952D01*
X37012285Y-34856380D02*
X37012285Y-34189714D01*
X37012285Y-34284952D02*
X37059904Y-34237333D01*
X37155142Y-34189714D01*
X37298000Y-34189714D01*
X37393238Y-34237333D01*
X37440857Y-34332571D01*
X37440857Y-34856380D01*
X37440857Y-34332571D02*
X37488476Y-34237333D01*
X37583714Y-34189714D01*
X37726571Y-34189714D01*
X37821809Y-34237333D01*
X37869428Y-34332571D01*
X37869428Y-34856380D01*
G04 #@! TO.C,J5*
X103822857Y-136386380D02*
X103822857Y-135386380D01*
X104870476Y-136386380D02*
X104537142Y-135910190D01*
X104299047Y-136386380D02*
X104299047Y-135386380D01*
X104680000Y-135386380D01*
X104775238Y-135434000D01*
X104822857Y-135481619D01*
X104870476Y-135576857D01*
X104870476Y-135719714D01*
X104822857Y-135814952D01*
X104775238Y-135862571D01*
X104680000Y-135910190D01*
X104299047Y-135910190D01*
X105965714Y-136481619D02*
X105870476Y-136434000D01*
X105775238Y-136338761D01*
X105632380Y-136195904D01*
X105537142Y-136148285D01*
X105441904Y-136148285D01*
X105489523Y-136386380D02*
X105394285Y-136338761D01*
X105299047Y-136243523D01*
X105251428Y-136053047D01*
X105251428Y-135719714D01*
X105299047Y-135529238D01*
X105394285Y-135434000D01*
X105489523Y-135386380D01*
X105680000Y-135386380D01*
X105775238Y-135434000D01*
X105870476Y-135529238D01*
X105918095Y-135719714D01*
X105918095Y-136053047D01*
X105870476Y-136243523D01*
X105775238Y-136338761D01*
X105680000Y-136386380D01*
X105489523Y-136386380D01*
X106775238Y-135386380D02*
X106584761Y-135386380D01*
X106489523Y-135434000D01*
X106441904Y-135481619D01*
X106346666Y-135624476D01*
X106299047Y-135814952D01*
X106299047Y-136195904D01*
X106346666Y-136291142D01*
X106394285Y-136338761D01*
X106489523Y-136386380D01*
X106680000Y-136386380D01*
X106775238Y-136338761D01*
X106822857Y-136291142D01*
X106870476Y-136195904D01*
X106870476Y-135957809D01*
X106822857Y-135862571D01*
X106775238Y-135814952D01*
X106680000Y-135767333D01*
X106489523Y-135767333D01*
X106394285Y-135814952D01*
X106346666Y-135862571D01*
X106299047Y-135957809D01*
X108060952Y-135862571D02*
X108394285Y-135862571D01*
X108537142Y-136386380D02*
X108060952Y-136386380D01*
X108060952Y-135386380D01*
X108537142Y-135386380D01*
X108965714Y-136386380D02*
X108965714Y-135386380D01*
X109537142Y-136386380D01*
X109537142Y-135386380D01*
G04 #@! TO.C,R15*
X109212380Y-139898380D02*
X108640952Y-139898380D01*
X108926666Y-139898380D02*
X108926666Y-138898380D01*
X108831428Y-139041238D01*
X108736190Y-139136476D01*
X108640952Y-139184095D01*
X109831428Y-138898380D02*
X109926666Y-138898380D01*
X110021904Y-138946000D01*
X110069523Y-138993619D01*
X110117142Y-139088857D01*
X110164761Y-139279333D01*
X110164761Y-139517428D01*
X110117142Y-139707904D01*
X110069523Y-139803142D01*
X110021904Y-139850761D01*
X109926666Y-139898380D01*
X109831428Y-139898380D01*
X109736190Y-139850761D01*
X109688571Y-139803142D01*
X109640952Y-139707904D01*
X109593333Y-139517428D01*
X109593333Y-139279333D01*
X109640952Y-139088857D01*
X109688571Y-138993619D01*
X109736190Y-138946000D01*
X109831428Y-138898380D01*
X110593333Y-139898380D02*
X110593333Y-138898380D01*
X110688571Y-139517428D02*
X110974285Y-139898380D01*
X110974285Y-139231714D02*
X110593333Y-139612666D01*
X112307619Y-139898380D02*
X112212380Y-139850761D01*
X112164761Y-139803142D01*
X112117142Y-139707904D01*
X112117142Y-139422190D01*
X112164761Y-139326952D01*
X112212380Y-139279333D01*
X112307619Y-139231714D01*
X112450476Y-139231714D01*
X112545714Y-139279333D01*
X112593333Y-139326952D01*
X112640952Y-139422190D01*
X112640952Y-139707904D01*
X112593333Y-139803142D01*
X112545714Y-139850761D01*
X112450476Y-139898380D01*
X112307619Y-139898380D01*
X113069523Y-139898380D02*
X113069523Y-138898380D01*
X113498095Y-139898380D02*
X113498095Y-139374571D01*
X113450476Y-139279333D01*
X113355238Y-139231714D01*
X113212380Y-139231714D01*
X113117142Y-139279333D01*
X113069523Y-139326952D01*
X113974285Y-139898380D02*
X113974285Y-139231714D01*
X113974285Y-139326952D02*
X114021904Y-139279333D01*
X114117142Y-139231714D01*
X114260000Y-139231714D01*
X114355238Y-139279333D01*
X114402857Y-139374571D01*
X114402857Y-139898380D01*
X114402857Y-139374571D02*
X114450476Y-139279333D01*
X114545714Y-139231714D01*
X114688571Y-139231714D01*
X114783809Y-139279333D01*
X114831428Y-139374571D01*
X114831428Y-139898380D01*
G04 #@! TO.C,R13*
X108196380Y-101798380D02*
X107624952Y-101798380D01*
X107910666Y-101798380D02*
X107910666Y-100798380D01*
X107815428Y-100941238D01*
X107720190Y-101036476D01*
X107624952Y-101084095D01*
X108815428Y-100798380D02*
X108910666Y-100798380D01*
X109005904Y-100846000D01*
X109053523Y-100893619D01*
X109101142Y-100988857D01*
X109148761Y-101179333D01*
X109148761Y-101417428D01*
X109101142Y-101607904D01*
X109053523Y-101703142D01*
X109005904Y-101750761D01*
X108910666Y-101798380D01*
X108815428Y-101798380D01*
X108720190Y-101750761D01*
X108672571Y-101703142D01*
X108624952Y-101607904D01*
X108577333Y-101417428D01*
X108577333Y-101179333D01*
X108624952Y-100988857D01*
X108672571Y-100893619D01*
X108720190Y-100846000D01*
X108815428Y-100798380D01*
X109577333Y-101798380D02*
X109577333Y-100798380D01*
X109672571Y-101417428D02*
X109958285Y-101798380D01*
X109958285Y-101131714D02*
X109577333Y-101512666D01*
X111291619Y-101798380D02*
X111196380Y-101750761D01*
X111148761Y-101703142D01*
X111101142Y-101607904D01*
X111101142Y-101322190D01*
X111148761Y-101226952D01*
X111196380Y-101179333D01*
X111291619Y-101131714D01*
X111434476Y-101131714D01*
X111529714Y-101179333D01*
X111577333Y-101226952D01*
X111624952Y-101322190D01*
X111624952Y-101607904D01*
X111577333Y-101703142D01*
X111529714Y-101750761D01*
X111434476Y-101798380D01*
X111291619Y-101798380D01*
X112053523Y-101798380D02*
X112053523Y-100798380D01*
X112482095Y-101798380D02*
X112482095Y-101274571D01*
X112434476Y-101179333D01*
X112339238Y-101131714D01*
X112196380Y-101131714D01*
X112101142Y-101179333D01*
X112053523Y-101226952D01*
X112958285Y-101798380D02*
X112958285Y-101131714D01*
X112958285Y-101226952D02*
X113005904Y-101179333D01*
X113101142Y-101131714D01*
X113244000Y-101131714D01*
X113339238Y-101179333D01*
X113386857Y-101274571D01*
X113386857Y-101798380D01*
X113386857Y-101274571D02*
X113434476Y-101179333D01*
X113529714Y-101131714D01*
X113672571Y-101131714D01*
X113767809Y-101179333D01*
X113815428Y-101274571D01*
X113815428Y-101798380D01*
G04 #@! TO.C,R12*
X108196380Y-98750380D02*
X107624952Y-98750380D01*
X107910666Y-98750380D02*
X107910666Y-97750380D01*
X107815428Y-97893238D01*
X107720190Y-97988476D01*
X107624952Y-98036095D01*
X108815428Y-97750380D02*
X108910666Y-97750380D01*
X109005904Y-97798000D01*
X109053523Y-97845619D01*
X109101142Y-97940857D01*
X109148761Y-98131333D01*
X109148761Y-98369428D01*
X109101142Y-98559904D01*
X109053523Y-98655142D01*
X109005904Y-98702761D01*
X108910666Y-98750380D01*
X108815428Y-98750380D01*
X108720190Y-98702761D01*
X108672571Y-98655142D01*
X108624952Y-98559904D01*
X108577333Y-98369428D01*
X108577333Y-98131333D01*
X108624952Y-97940857D01*
X108672571Y-97845619D01*
X108720190Y-97798000D01*
X108815428Y-97750380D01*
X109577333Y-98750380D02*
X109577333Y-97750380D01*
X109672571Y-98369428D02*
X109958285Y-98750380D01*
X109958285Y-98083714D02*
X109577333Y-98464666D01*
X111291619Y-98750380D02*
X111196380Y-98702761D01*
X111148761Y-98655142D01*
X111101142Y-98559904D01*
X111101142Y-98274190D01*
X111148761Y-98178952D01*
X111196380Y-98131333D01*
X111291619Y-98083714D01*
X111434476Y-98083714D01*
X111529714Y-98131333D01*
X111577333Y-98178952D01*
X111624952Y-98274190D01*
X111624952Y-98559904D01*
X111577333Y-98655142D01*
X111529714Y-98702761D01*
X111434476Y-98750380D01*
X111291619Y-98750380D01*
X112053523Y-98750380D02*
X112053523Y-97750380D01*
X112482095Y-98750380D02*
X112482095Y-98226571D01*
X112434476Y-98131333D01*
X112339238Y-98083714D01*
X112196380Y-98083714D01*
X112101142Y-98131333D01*
X112053523Y-98178952D01*
X112958285Y-98750380D02*
X112958285Y-98083714D01*
X112958285Y-98178952D02*
X113005904Y-98131333D01*
X113101142Y-98083714D01*
X113244000Y-98083714D01*
X113339238Y-98131333D01*
X113386857Y-98226571D01*
X113386857Y-98750380D01*
X113386857Y-98226571D02*
X113434476Y-98131333D01*
X113529714Y-98083714D01*
X113672571Y-98083714D01*
X113767809Y-98131333D01*
X113815428Y-98226571D01*
X113815428Y-98750380D01*
G04 #@! TO.C,R11*
X109212380Y-145994380D02*
X108640952Y-145994380D01*
X108926666Y-145994380D02*
X108926666Y-144994380D01*
X108831428Y-145137238D01*
X108736190Y-145232476D01*
X108640952Y-145280095D01*
X109831428Y-144994380D02*
X109926666Y-144994380D01*
X110021904Y-145042000D01*
X110069523Y-145089619D01*
X110117142Y-145184857D01*
X110164761Y-145375333D01*
X110164761Y-145613428D01*
X110117142Y-145803904D01*
X110069523Y-145899142D01*
X110021904Y-145946761D01*
X109926666Y-145994380D01*
X109831428Y-145994380D01*
X109736190Y-145946761D01*
X109688571Y-145899142D01*
X109640952Y-145803904D01*
X109593333Y-145613428D01*
X109593333Y-145375333D01*
X109640952Y-145184857D01*
X109688571Y-145089619D01*
X109736190Y-145042000D01*
X109831428Y-144994380D01*
X110593333Y-145994380D02*
X110593333Y-144994380D01*
X110688571Y-145613428D02*
X110974285Y-145994380D01*
X110974285Y-145327714D02*
X110593333Y-145708666D01*
X112307619Y-145994380D02*
X112212380Y-145946761D01*
X112164761Y-145899142D01*
X112117142Y-145803904D01*
X112117142Y-145518190D01*
X112164761Y-145422952D01*
X112212380Y-145375333D01*
X112307619Y-145327714D01*
X112450476Y-145327714D01*
X112545714Y-145375333D01*
X112593333Y-145422952D01*
X112640952Y-145518190D01*
X112640952Y-145803904D01*
X112593333Y-145899142D01*
X112545714Y-145946761D01*
X112450476Y-145994380D01*
X112307619Y-145994380D01*
X113069523Y-145994380D02*
X113069523Y-144994380D01*
X113498095Y-145994380D02*
X113498095Y-145470571D01*
X113450476Y-145375333D01*
X113355238Y-145327714D01*
X113212380Y-145327714D01*
X113117142Y-145375333D01*
X113069523Y-145422952D01*
X113974285Y-145994380D02*
X113974285Y-145327714D01*
X113974285Y-145422952D02*
X114021904Y-145375333D01*
X114117142Y-145327714D01*
X114260000Y-145327714D01*
X114355238Y-145375333D01*
X114402857Y-145470571D01*
X114402857Y-145994380D01*
X114402857Y-145470571D02*
X114450476Y-145375333D01*
X114545714Y-145327714D01*
X114688571Y-145327714D01*
X114783809Y-145375333D01*
X114831428Y-145470571D01*
X114831428Y-145994380D01*
G04 #@! TO.C,R10*
X109212380Y-142946380D02*
X108640952Y-142946380D01*
X108926666Y-142946380D02*
X108926666Y-141946380D01*
X108831428Y-142089238D01*
X108736190Y-142184476D01*
X108640952Y-142232095D01*
X109831428Y-141946380D02*
X109926666Y-141946380D01*
X110021904Y-141994000D01*
X110069523Y-142041619D01*
X110117142Y-142136857D01*
X110164761Y-142327333D01*
X110164761Y-142565428D01*
X110117142Y-142755904D01*
X110069523Y-142851142D01*
X110021904Y-142898761D01*
X109926666Y-142946380D01*
X109831428Y-142946380D01*
X109736190Y-142898761D01*
X109688571Y-142851142D01*
X109640952Y-142755904D01*
X109593333Y-142565428D01*
X109593333Y-142327333D01*
X109640952Y-142136857D01*
X109688571Y-142041619D01*
X109736190Y-141994000D01*
X109831428Y-141946380D01*
X110593333Y-142946380D02*
X110593333Y-141946380D01*
X110688571Y-142565428D02*
X110974285Y-142946380D01*
X110974285Y-142279714D02*
X110593333Y-142660666D01*
X112307619Y-142946380D02*
X112212380Y-142898761D01*
X112164761Y-142851142D01*
X112117142Y-142755904D01*
X112117142Y-142470190D01*
X112164761Y-142374952D01*
X112212380Y-142327333D01*
X112307619Y-142279714D01*
X112450476Y-142279714D01*
X112545714Y-142327333D01*
X112593333Y-142374952D01*
X112640952Y-142470190D01*
X112640952Y-142755904D01*
X112593333Y-142851142D01*
X112545714Y-142898761D01*
X112450476Y-142946380D01*
X112307619Y-142946380D01*
X113069523Y-142946380D02*
X113069523Y-141946380D01*
X113498095Y-142946380D02*
X113498095Y-142422571D01*
X113450476Y-142327333D01*
X113355238Y-142279714D01*
X113212380Y-142279714D01*
X113117142Y-142327333D01*
X113069523Y-142374952D01*
X113974285Y-142946380D02*
X113974285Y-142279714D01*
X113974285Y-142374952D02*
X114021904Y-142327333D01*
X114117142Y-142279714D01*
X114260000Y-142279714D01*
X114355238Y-142327333D01*
X114402857Y-142422571D01*
X114402857Y-142946380D01*
X114402857Y-142422571D02*
X114450476Y-142327333D01*
X114545714Y-142279714D01*
X114688571Y-142279714D01*
X114783809Y-142327333D01*
X114831428Y-142422571D01*
X114831428Y-142946380D01*
G04 #@! TO.C,RN2*
X70763142Y-34856380D02*
X70191714Y-34856380D01*
X70477428Y-34856380D02*
X70477428Y-33856380D01*
X70382190Y-33999238D01*
X70286952Y-34094476D01*
X70191714Y-34142095D01*
X71382190Y-33856380D02*
X71477428Y-33856380D01*
X71572666Y-33904000D01*
X71620285Y-33951619D01*
X71667904Y-34046857D01*
X71715523Y-34237333D01*
X71715523Y-34475428D01*
X71667904Y-34665904D01*
X71620285Y-34761142D01*
X71572666Y-34808761D01*
X71477428Y-34856380D01*
X71382190Y-34856380D01*
X71286952Y-34808761D01*
X71239333Y-34761142D01*
X71191714Y-34665904D01*
X71144095Y-34475428D01*
X71144095Y-34237333D01*
X71191714Y-34046857D01*
X71239333Y-33951619D01*
X71286952Y-33904000D01*
X71382190Y-33856380D01*
X72144095Y-34856380D02*
X72144095Y-33856380D01*
X72715523Y-34856380D02*
X72286952Y-34284952D01*
X72715523Y-33856380D02*
X72144095Y-34427809D01*
X74048857Y-34856380D02*
X73953619Y-34808761D01*
X73906000Y-34761142D01*
X73858380Y-34665904D01*
X73858380Y-34380190D01*
X73906000Y-34284952D01*
X73953619Y-34237333D01*
X74048857Y-34189714D01*
X74191714Y-34189714D01*
X74286952Y-34237333D01*
X74334571Y-34284952D01*
X74382190Y-34380190D01*
X74382190Y-34665904D01*
X74334571Y-34761142D01*
X74286952Y-34808761D01*
X74191714Y-34856380D01*
X74048857Y-34856380D01*
X74810761Y-34856380D02*
X74810761Y-33856380D01*
X75239333Y-34856380D02*
X75239333Y-34332571D01*
X75191714Y-34237333D01*
X75096476Y-34189714D01*
X74953619Y-34189714D01*
X74858380Y-34237333D01*
X74810761Y-34284952D01*
X75715523Y-34856380D02*
X75715523Y-34189714D01*
X75715523Y-34284952D02*
X75763142Y-34237333D01*
X75858380Y-34189714D01*
X76001238Y-34189714D01*
X76096476Y-34237333D01*
X76144095Y-34332571D01*
X76144095Y-34856380D01*
X76144095Y-34332571D02*
X76191714Y-34237333D01*
X76286952Y-34189714D01*
X76429809Y-34189714D01*
X76525047Y-34237333D01*
X76572666Y-34332571D01*
X76572666Y-34856380D01*
G04 #@! TO.C,R9*
X111752380Y-36520380D02*
X111180952Y-36520380D01*
X111466666Y-36520380D02*
X111466666Y-35520380D01*
X111371428Y-35663238D01*
X111276190Y-35758476D01*
X111180952Y-35806095D01*
X112371428Y-35520380D02*
X112466666Y-35520380D01*
X112561904Y-35568000D01*
X112609523Y-35615619D01*
X112657142Y-35710857D01*
X112704761Y-35901333D01*
X112704761Y-36139428D01*
X112657142Y-36329904D01*
X112609523Y-36425142D01*
X112561904Y-36472761D01*
X112466666Y-36520380D01*
X112371428Y-36520380D01*
X112276190Y-36472761D01*
X112228571Y-36425142D01*
X112180952Y-36329904D01*
X112133333Y-36139428D01*
X112133333Y-35901333D01*
X112180952Y-35710857D01*
X112228571Y-35615619D01*
X112276190Y-35568000D01*
X112371428Y-35520380D01*
X113133333Y-36520380D02*
X113133333Y-35520380D01*
X113228571Y-36139428D02*
X113514285Y-36520380D01*
X113514285Y-35853714D02*
X113133333Y-36234666D01*
X114847619Y-36520380D02*
X114752380Y-36472761D01*
X114704761Y-36425142D01*
X114657142Y-36329904D01*
X114657142Y-36044190D01*
X114704761Y-35948952D01*
X114752380Y-35901333D01*
X114847619Y-35853714D01*
X114990476Y-35853714D01*
X115085714Y-35901333D01*
X115133333Y-35948952D01*
X115180952Y-36044190D01*
X115180952Y-36329904D01*
X115133333Y-36425142D01*
X115085714Y-36472761D01*
X114990476Y-36520380D01*
X114847619Y-36520380D01*
X115609523Y-36520380D02*
X115609523Y-35520380D01*
X116038095Y-36520380D02*
X116038095Y-35996571D01*
X115990476Y-35901333D01*
X115895238Y-35853714D01*
X115752380Y-35853714D01*
X115657142Y-35901333D01*
X115609523Y-35948952D01*
X116514285Y-36520380D02*
X116514285Y-35853714D01*
X116514285Y-35948952D02*
X116561904Y-35901333D01*
X116657142Y-35853714D01*
X116800000Y-35853714D01*
X116895238Y-35901333D01*
X116942857Y-35996571D01*
X116942857Y-36520380D01*
X116942857Y-35996571D02*
X116990476Y-35901333D01*
X117085714Y-35853714D01*
X117228571Y-35853714D01*
X117323809Y-35901333D01*
X117371428Y-35996571D01*
X117371428Y-36520380D01*
G04 #@! TO.C,R8*
X111752380Y-33472380D02*
X111180952Y-33472380D01*
X111466666Y-33472380D02*
X111466666Y-32472380D01*
X111371428Y-32615238D01*
X111276190Y-32710476D01*
X111180952Y-32758095D01*
X112371428Y-32472380D02*
X112466666Y-32472380D01*
X112561904Y-32520000D01*
X112609523Y-32567619D01*
X112657142Y-32662857D01*
X112704761Y-32853333D01*
X112704761Y-33091428D01*
X112657142Y-33281904D01*
X112609523Y-33377142D01*
X112561904Y-33424761D01*
X112466666Y-33472380D01*
X112371428Y-33472380D01*
X112276190Y-33424761D01*
X112228571Y-33377142D01*
X112180952Y-33281904D01*
X112133333Y-33091428D01*
X112133333Y-32853333D01*
X112180952Y-32662857D01*
X112228571Y-32567619D01*
X112276190Y-32520000D01*
X112371428Y-32472380D01*
X113133333Y-33472380D02*
X113133333Y-32472380D01*
X113228571Y-33091428D02*
X113514285Y-33472380D01*
X113514285Y-32805714D02*
X113133333Y-33186666D01*
X114847619Y-33472380D02*
X114752380Y-33424761D01*
X114704761Y-33377142D01*
X114657142Y-33281904D01*
X114657142Y-32996190D01*
X114704761Y-32900952D01*
X114752380Y-32853333D01*
X114847619Y-32805714D01*
X114990476Y-32805714D01*
X115085714Y-32853333D01*
X115133333Y-32900952D01*
X115180952Y-32996190D01*
X115180952Y-33281904D01*
X115133333Y-33377142D01*
X115085714Y-33424761D01*
X114990476Y-33472380D01*
X114847619Y-33472380D01*
X115609523Y-33472380D02*
X115609523Y-32472380D01*
X116038095Y-33472380D02*
X116038095Y-32948571D01*
X115990476Y-32853333D01*
X115895238Y-32805714D01*
X115752380Y-32805714D01*
X115657142Y-32853333D01*
X115609523Y-32900952D01*
X116514285Y-33472380D02*
X116514285Y-32805714D01*
X116514285Y-32900952D02*
X116561904Y-32853333D01*
X116657142Y-32805714D01*
X116800000Y-32805714D01*
X116895238Y-32853333D01*
X116942857Y-32948571D01*
X116942857Y-33472380D01*
X116942857Y-32948571D02*
X116990476Y-32853333D01*
X117085714Y-32805714D01*
X117228571Y-32805714D01*
X117323809Y-32853333D01*
X117371428Y-32948571D01*
X117371428Y-33472380D01*
G04 #@! TO.C,R7*
X109212380Y-152090380D02*
X108640952Y-152090380D01*
X108926666Y-152090380D02*
X108926666Y-151090380D01*
X108831428Y-151233238D01*
X108736190Y-151328476D01*
X108640952Y-151376095D01*
X109831428Y-151090380D02*
X109926666Y-151090380D01*
X110021904Y-151138000D01*
X110069523Y-151185619D01*
X110117142Y-151280857D01*
X110164761Y-151471333D01*
X110164761Y-151709428D01*
X110117142Y-151899904D01*
X110069523Y-151995142D01*
X110021904Y-152042761D01*
X109926666Y-152090380D01*
X109831428Y-152090380D01*
X109736190Y-152042761D01*
X109688571Y-151995142D01*
X109640952Y-151899904D01*
X109593333Y-151709428D01*
X109593333Y-151471333D01*
X109640952Y-151280857D01*
X109688571Y-151185619D01*
X109736190Y-151138000D01*
X109831428Y-151090380D01*
X110593333Y-152090380D02*
X110593333Y-151090380D01*
X110688571Y-151709428D02*
X110974285Y-152090380D01*
X110974285Y-151423714D02*
X110593333Y-151804666D01*
X112307619Y-152090380D02*
X112212380Y-152042761D01*
X112164761Y-151995142D01*
X112117142Y-151899904D01*
X112117142Y-151614190D01*
X112164761Y-151518952D01*
X112212380Y-151471333D01*
X112307619Y-151423714D01*
X112450476Y-151423714D01*
X112545714Y-151471333D01*
X112593333Y-151518952D01*
X112640952Y-151614190D01*
X112640952Y-151899904D01*
X112593333Y-151995142D01*
X112545714Y-152042761D01*
X112450476Y-152090380D01*
X112307619Y-152090380D01*
X113069523Y-152090380D02*
X113069523Y-151090380D01*
X113498095Y-152090380D02*
X113498095Y-151566571D01*
X113450476Y-151471333D01*
X113355238Y-151423714D01*
X113212380Y-151423714D01*
X113117142Y-151471333D01*
X113069523Y-151518952D01*
X113974285Y-152090380D02*
X113974285Y-151423714D01*
X113974285Y-151518952D02*
X114021904Y-151471333D01*
X114117142Y-151423714D01*
X114260000Y-151423714D01*
X114355238Y-151471333D01*
X114402857Y-151566571D01*
X114402857Y-152090380D01*
X114402857Y-151566571D02*
X114450476Y-151471333D01*
X114545714Y-151423714D01*
X114688571Y-151423714D01*
X114783809Y-151471333D01*
X114831428Y-151566571D01*
X114831428Y-152090380D01*
G04 #@! TO.C,R6*
X44759619Y-138168380D02*
X44759619Y-137596952D01*
X44759619Y-137882666D02*
X45759619Y-137882666D01*
X45616761Y-137787428D01*
X45521523Y-137692190D01*
X45473904Y-137596952D01*
X45759619Y-138787428D02*
X45759619Y-138882666D01*
X45712000Y-138977904D01*
X45664380Y-139025523D01*
X45569142Y-139073142D01*
X45378666Y-139120761D01*
X45140571Y-139120761D01*
X44950095Y-139073142D01*
X44854857Y-139025523D01*
X44807238Y-138977904D01*
X44759619Y-138882666D01*
X44759619Y-138787428D01*
X44807238Y-138692190D01*
X44854857Y-138644571D01*
X44950095Y-138596952D01*
X45140571Y-138549333D01*
X45378666Y-138549333D01*
X45569142Y-138596952D01*
X45664380Y-138644571D01*
X45712000Y-138692190D01*
X45759619Y-138787428D01*
X44759619Y-139549333D02*
X45759619Y-139549333D01*
X45140571Y-139644571D02*
X44759619Y-139930285D01*
X45426285Y-139930285D02*
X45045333Y-139549333D01*
X44759619Y-141263619D02*
X44807238Y-141168380D01*
X44854857Y-141120761D01*
X44950095Y-141073142D01*
X45235809Y-141073142D01*
X45331047Y-141120761D01*
X45378666Y-141168380D01*
X45426285Y-141263619D01*
X45426285Y-141406476D01*
X45378666Y-141501714D01*
X45331047Y-141549333D01*
X45235809Y-141596952D01*
X44950095Y-141596952D01*
X44854857Y-141549333D01*
X44807238Y-141501714D01*
X44759619Y-141406476D01*
X44759619Y-141263619D01*
X44759619Y-142025523D02*
X45759619Y-142025523D01*
X44759619Y-142454095D02*
X45283428Y-142454095D01*
X45378666Y-142406476D01*
X45426285Y-142311238D01*
X45426285Y-142168380D01*
X45378666Y-142073142D01*
X45331047Y-142025523D01*
X44759619Y-142930285D02*
X45426285Y-142930285D01*
X45331047Y-142930285D02*
X45378666Y-142977904D01*
X45426285Y-143073142D01*
X45426285Y-143216000D01*
X45378666Y-143311238D01*
X45283428Y-143358857D01*
X44759619Y-143358857D01*
X45283428Y-143358857D02*
X45378666Y-143406476D01*
X45426285Y-143501714D01*
X45426285Y-143644571D01*
X45378666Y-143739809D01*
X45283428Y-143787428D01*
X44759619Y-143787428D01*
G04 #@! TO.C,C10*
X118489619Y-75279142D02*
X118489619Y-75374380D01*
X118442000Y-75469619D01*
X118394380Y-75517238D01*
X118299142Y-75564857D01*
X118108666Y-75612476D01*
X117870571Y-75612476D01*
X117680095Y-75564857D01*
X117584857Y-75517238D01*
X117537238Y-75469619D01*
X117489619Y-75374380D01*
X117489619Y-75279142D01*
X117537238Y-75183904D01*
X117584857Y-75136285D01*
X117680095Y-75088666D01*
X117870571Y-75041047D01*
X118108666Y-75041047D01*
X118299142Y-75088666D01*
X118394380Y-75136285D01*
X118442000Y-75183904D01*
X118489619Y-75279142D01*
X117584857Y-76041047D02*
X117537238Y-76088666D01*
X117489619Y-76041047D01*
X117537238Y-75993428D01*
X117584857Y-76041047D01*
X117489619Y-76041047D01*
X117489619Y-77041047D02*
X117489619Y-76469619D01*
X117489619Y-76755333D02*
X118489619Y-76755333D01*
X118346761Y-76660095D01*
X118251523Y-76564857D01*
X118203904Y-76469619D01*
X118156285Y-77898190D02*
X117489619Y-77898190D01*
X118156285Y-77469619D02*
X117632476Y-77469619D01*
X117537238Y-77517238D01*
X117489619Y-77612476D01*
X117489619Y-77755333D01*
X117537238Y-77850571D01*
X117584857Y-77898190D01*
X118013428Y-78707714D02*
X118013428Y-78374380D01*
X117489619Y-78374380D02*
X118489619Y-78374380D01*
X118489619Y-78850571D01*
G04 #@! TO.C,C9*
X116467142Y-38314380D02*
X116562380Y-38314380D01*
X116657619Y-38362000D01*
X116705238Y-38409619D01*
X116752857Y-38504857D01*
X116800476Y-38695333D01*
X116800476Y-38933428D01*
X116752857Y-39123904D01*
X116705238Y-39219142D01*
X116657619Y-39266761D01*
X116562380Y-39314380D01*
X116467142Y-39314380D01*
X116371904Y-39266761D01*
X116324285Y-39219142D01*
X116276666Y-39123904D01*
X116229047Y-38933428D01*
X116229047Y-38695333D01*
X116276666Y-38504857D01*
X116324285Y-38409619D01*
X116371904Y-38362000D01*
X116467142Y-38314380D01*
X117229047Y-39219142D02*
X117276666Y-39266761D01*
X117229047Y-39314380D01*
X117181428Y-39266761D01*
X117229047Y-39219142D01*
X117229047Y-39314380D01*
X118229047Y-39314380D02*
X117657619Y-39314380D01*
X117943333Y-39314380D02*
X117943333Y-38314380D01*
X117848095Y-38457238D01*
X117752857Y-38552476D01*
X117657619Y-38600095D01*
X119086190Y-38647714D02*
X119086190Y-39314380D01*
X118657619Y-38647714D02*
X118657619Y-39171523D01*
X118705238Y-39266761D01*
X118800476Y-39314380D01*
X118943333Y-39314380D01*
X119038571Y-39266761D01*
X119086190Y-39219142D01*
X119895714Y-38790571D02*
X119562380Y-38790571D01*
X119562380Y-39314380D02*
X119562380Y-38314380D01*
X120038571Y-38314380D01*
G04 #@! TO.C,R4*
X43219619Y-169291333D02*
X43219619Y-168815142D01*
X42743428Y-168767523D01*
X42791047Y-168815142D01*
X42838666Y-168910380D01*
X42838666Y-169148476D01*
X42791047Y-169243714D01*
X42743428Y-169291333D01*
X42648190Y-169338952D01*
X42410095Y-169338952D01*
X42314857Y-169291333D01*
X42267238Y-169243714D01*
X42219619Y-169148476D01*
X42219619Y-168910380D01*
X42267238Y-168815142D01*
X42314857Y-168767523D01*
X42219619Y-170291333D02*
X42219619Y-169719904D01*
X42219619Y-170005619D02*
X43219619Y-170005619D01*
X43076761Y-169910380D01*
X42981523Y-169815142D01*
X42933904Y-169719904D01*
X43219619Y-170910380D02*
X43219619Y-171005619D01*
X43172000Y-171100857D01*
X43124380Y-171148476D01*
X43029142Y-171196095D01*
X42838666Y-171243714D01*
X42600571Y-171243714D01*
X42410095Y-171196095D01*
X42314857Y-171148476D01*
X42267238Y-171100857D01*
X42219619Y-171005619D01*
X42219619Y-170910380D01*
X42267238Y-170815142D01*
X42314857Y-170767523D01*
X42410095Y-170719904D01*
X42600571Y-170672285D01*
X42838666Y-170672285D01*
X43029142Y-170719904D01*
X43124380Y-170767523D01*
X43172000Y-170815142D01*
X43219619Y-170910380D01*
X42219619Y-172577047D02*
X42267238Y-172481809D01*
X42314857Y-172434190D01*
X42410095Y-172386571D01*
X42695809Y-172386571D01*
X42791047Y-172434190D01*
X42838666Y-172481809D01*
X42886285Y-172577047D01*
X42886285Y-172719904D01*
X42838666Y-172815142D01*
X42791047Y-172862761D01*
X42695809Y-172910380D01*
X42410095Y-172910380D01*
X42314857Y-172862761D01*
X42267238Y-172815142D01*
X42219619Y-172719904D01*
X42219619Y-172577047D01*
X42219619Y-173338952D02*
X43219619Y-173338952D01*
X42219619Y-173767523D02*
X42743428Y-173767523D01*
X42838666Y-173719904D01*
X42886285Y-173624666D01*
X42886285Y-173481809D01*
X42838666Y-173386571D01*
X42791047Y-173338952D01*
X42219619Y-174243714D02*
X42886285Y-174243714D01*
X42791047Y-174243714D02*
X42838666Y-174291333D01*
X42886285Y-174386571D01*
X42886285Y-174529428D01*
X42838666Y-174624666D01*
X42743428Y-174672285D01*
X42219619Y-174672285D01*
X42743428Y-174672285D02*
X42838666Y-174719904D01*
X42886285Y-174815142D01*
X42886285Y-174958000D01*
X42838666Y-175053238D01*
X42743428Y-175100857D01*
X42219619Y-175100857D01*
G04 #@! TO.C,R2*
X46267619Y-169291333D02*
X46267619Y-168815142D01*
X45791428Y-168767523D01*
X45839047Y-168815142D01*
X45886666Y-168910380D01*
X45886666Y-169148476D01*
X45839047Y-169243714D01*
X45791428Y-169291333D01*
X45696190Y-169338952D01*
X45458095Y-169338952D01*
X45362857Y-169291333D01*
X45315238Y-169243714D01*
X45267619Y-169148476D01*
X45267619Y-168910380D01*
X45315238Y-168815142D01*
X45362857Y-168767523D01*
X45267619Y-170291333D02*
X45267619Y-169719904D01*
X45267619Y-170005619D02*
X46267619Y-170005619D01*
X46124761Y-169910380D01*
X46029523Y-169815142D01*
X45981904Y-169719904D01*
X46267619Y-170910380D02*
X46267619Y-171005619D01*
X46220000Y-171100857D01*
X46172380Y-171148476D01*
X46077142Y-171196095D01*
X45886666Y-171243714D01*
X45648571Y-171243714D01*
X45458095Y-171196095D01*
X45362857Y-171148476D01*
X45315238Y-171100857D01*
X45267619Y-171005619D01*
X45267619Y-170910380D01*
X45315238Y-170815142D01*
X45362857Y-170767523D01*
X45458095Y-170719904D01*
X45648571Y-170672285D01*
X45886666Y-170672285D01*
X46077142Y-170719904D01*
X46172380Y-170767523D01*
X46220000Y-170815142D01*
X46267619Y-170910380D01*
X45267619Y-172577047D02*
X45315238Y-172481809D01*
X45362857Y-172434190D01*
X45458095Y-172386571D01*
X45743809Y-172386571D01*
X45839047Y-172434190D01*
X45886666Y-172481809D01*
X45934285Y-172577047D01*
X45934285Y-172719904D01*
X45886666Y-172815142D01*
X45839047Y-172862761D01*
X45743809Y-172910380D01*
X45458095Y-172910380D01*
X45362857Y-172862761D01*
X45315238Y-172815142D01*
X45267619Y-172719904D01*
X45267619Y-172577047D01*
X45267619Y-173338952D02*
X46267619Y-173338952D01*
X45267619Y-173767523D02*
X45791428Y-173767523D01*
X45886666Y-173719904D01*
X45934285Y-173624666D01*
X45934285Y-173481809D01*
X45886666Y-173386571D01*
X45839047Y-173338952D01*
X45267619Y-174243714D02*
X45934285Y-174243714D01*
X45839047Y-174243714D02*
X45886666Y-174291333D01*
X45934285Y-174386571D01*
X45934285Y-174529428D01*
X45886666Y-174624666D01*
X45791428Y-174672285D01*
X45267619Y-174672285D01*
X45791428Y-174672285D02*
X45886666Y-174719904D01*
X45934285Y-174815142D01*
X45934285Y-174958000D01*
X45886666Y-175053238D01*
X45791428Y-175100857D01*
X45267619Y-175100857D01*
G04 #@! TO.C,R18*
X26614380Y-157813714D02*
X26662000Y-157861333D01*
X26709619Y-157956571D01*
X26709619Y-158194666D01*
X26662000Y-158289904D01*
X26614380Y-158337523D01*
X26519142Y-158385142D01*
X26423904Y-158385142D01*
X26281047Y-158337523D01*
X25709619Y-157766095D01*
X25709619Y-158385142D01*
X26709619Y-158718476D02*
X26709619Y-159385142D01*
X25709619Y-158956571D01*
X25709619Y-160670857D02*
X25757238Y-160575619D01*
X25804857Y-160528000D01*
X25900095Y-160480380D01*
X26185809Y-160480380D01*
X26281047Y-160528000D01*
X26328666Y-160575619D01*
X26376285Y-160670857D01*
X26376285Y-160813714D01*
X26328666Y-160908952D01*
X26281047Y-160956571D01*
X26185809Y-161004190D01*
X25900095Y-161004190D01*
X25804857Y-160956571D01*
X25757238Y-160908952D01*
X25709619Y-160813714D01*
X25709619Y-160670857D01*
X25709619Y-161432761D02*
X26709619Y-161432761D01*
X25709619Y-161861333D02*
X26233428Y-161861333D01*
X26328666Y-161813714D01*
X26376285Y-161718476D01*
X26376285Y-161575619D01*
X26328666Y-161480380D01*
X26281047Y-161432761D01*
X25709619Y-162337523D02*
X26376285Y-162337523D01*
X26281047Y-162337523D02*
X26328666Y-162385142D01*
X26376285Y-162480380D01*
X26376285Y-162623238D01*
X26328666Y-162718476D01*
X26233428Y-162766095D01*
X25709619Y-162766095D01*
X26233428Y-162766095D02*
X26328666Y-162813714D01*
X26376285Y-162908952D01*
X26376285Y-163051809D01*
X26328666Y-163147047D01*
X26233428Y-163194666D01*
X25709619Y-163194666D01*
G04 #@! TO.C,R17*
X63444380Y-163147714D02*
X63492000Y-163195333D01*
X63539619Y-163290571D01*
X63539619Y-163528666D01*
X63492000Y-163623904D01*
X63444380Y-163671523D01*
X63349142Y-163719142D01*
X63253904Y-163719142D01*
X63111047Y-163671523D01*
X62539619Y-163100095D01*
X62539619Y-163719142D01*
X63539619Y-164052476D02*
X63539619Y-164719142D01*
X62539619Y-164290571D01*
X62539619Y-166004857D02*
X62587238Y-165909619D01*
X62634857Y-165862000D01*
X62730095Y-165814380D01*
X63015809Y-165814380D01*
X63111047Y-165862000D01*
X63158666Y-165909619D01*
X63206285Y-166004857D01*
X63206285Y-166147714D01*
X63158666Y-166242952D01*
X63111047Y-166290571D01*
X63015809Y-166338190D01*
X62730095Y-166338190D01*
X62634857Y-166290571D01*
X62587238Y-166242952D01*
X62539619Y-166147714D01*
X62539619Y-166004857D01*
X62539619Y-166766761D02*
X63539619Y-166766761D01*
X62539619Y-167195333D02*
X63063428Y-167195333D01*
X63158666Y-167147714D01*
X63206285Y-167052476D01*
X63206285Y-166909619D01*
X63158666Y-166814380D01*
X63111047Y-166766761D01*
X62539619Y-167671523D02*
X63206285Y-167671523D01*
X63111047Y-167671523D02*
X63158666Y-167719142D01*
X63206285Y-167814380D01*
X63206285Y-167957238D01*
X63158666Y-168052476D01*
X63063428Y-168100095D01*
X62539619Y-168100095D01*
X63063428Y-168100095D02*
X63158666Y-168147714D01*
X63206285Y-168242952D01*
X63206285Y-168385809D01*
X63158666Y-168481047D01*
X63063428Y-168528666D01*
X62539619Y-168528666D01*
G04 #@! TO.C,R14*
X23566380Y-157813714D02*
X23614000Y-157861333D01*
X23661619Y-157956571D01*
X23661619Y-158194666D01*
X23614000Y-158289904D01*
X23566380Y-158337523D01*
X23471142Y-158385142D01*
X23375904Y-158385142D01*
X23233047Y-158337523D01*
X22661619Y-157766095D01*
X22661619Y-158385142D01*
X23661619Y-158718476D02*
X23661619Y-159385142D01*
X22661619Y-158956571D01*
X22661619Y-160670857D02*
X22709238Y-160575619D01*
X22756857Y-160528000D01*
X22852095Y-160480380D01*
X23137809Y-160480380D01*
X23233047Y-160528000D01*
X23280666Y-160575619D01*
X23328285Y-160670857D01*
X23328285Y-160813714D01*
X23280666Y-160908952D01*
X23233047Y-160956571D01*
X23137809Y-161004190D01*
X22852095Y-161004190D01*
X22756857Y-160956571D01*
X22709238Y-160908952D01*
X22661619Y-160813714D01*
X22661619Y-160670857D01*
X22661619Y-161432761D02*
X23661619Y-161432761D01*
X22661619Y-161861333D02*
X23185428Y-161861333D01*
X23280666Y-161813714D01*
X23328285Y-161718476D01*
X23328285Y-161575619D01*
X23280666Y-161480380D01*
X23233047Y-161432761D01*
X22661619Y-162337523D02*
X23328285Y-162337523D01*
X23233047Y-162337523D02*
X23280666Y-162385142D01*
X23328285Y-162480380D01*
X23328285Y-162623238D01*
X23280666Y-162718476D01*
X23185428Y-162766095D01*
X22661619Y-162766095D01*
X23185428Y-162766095D02*
X23280666Y-162813714D01*
X23328285Y-162908952D01*
X23328285Y-163051809D01*
X23280666Y-163147047D01*
X23185428Y-163194666D01*
X22661619Y-163194666D01*
G04 #@! TO.C,R5*
X109212380Y-149042380D02*
X108640952Y-149042380D01*
X108926666Y-149042380D02*
X108926666Y-148042380D01*
X108831428Y-148185238D01*
X108736190Y-148280476D01*
X108640952Y-148328095D01*
X109831428Y-148042380D02*
X109926666Y-148042380D01*
X110021904Y-148090000D01*
X110069523Y-148137619D01*
X110117142Y-148232857D01*
X110164761Y-148423333D01*
X110164761Y-148661428D01*
X110117142Y-148851904D01*
X110069523Y-148947142D01*
X110021904Y-148994761D01*
X109926666Y-149042380D01*
X109831428Y-149042380D01*
X109736190Y-148994761D01*
X109688571Y-148947142D01*
X109640952Y-148851904D01*
X109593333Y-148661428D01*
X109593333Y-148423333D01*
X109640952Y-148232857D01*
X109688571Y-148137619D01*
X109736190Y-148090000D01*
X109831428Y-148042380D01*
X110593333Y-149042380D02*
X110593333Y-148042380D01*
X110688571Y-148661428D02*
X110974285Y-149042380D01*
X110974285Y-148375714D02*
X110593333Y-148756666D01*
X112307619Y-149042380D02*
X112212380Y-148994761D01*
X112164761Y-148947142D01*
X112117142Y-148851904D01*
X112117142Y-148566190D01*
X112164761Y-148470952D01*
X112212380Y-148423333D01*
X112307619Y-148375714D01*
X112450476Y-148375714D01*
X112545714Y-148423333D01*
X112593333Y-148470952D01*
X112640952Y-148566190D01*
X112640952Y-148851904D01*
X112593333Y-148947142D01*
X112545714Y-148994761D01*
X112450476Y-149042380D01*
X112307619Y-149042380D01*
X113069523Y-149042380D02*
X113069523Y-148042380D01*
X113498095Y-149042380D02*
X113498095Y-148518571D01*
X113450476Y-148423333D01*
X113355238Y-148375714D01*
X113212380Y-148375714D01*
X113117142Y-148423333D01*
X113069523Y-148470952D01*
X113974285Y-149042380D02*
X113974285Y-148375714D01*
X113974285Y-148470952D02*
X114021904Y-148423333D01*
X114117142Y-148375714D01*
X114260000Y-148375714D01*
X114355238Y-148423333D01*
X114402857Y-148518571D01*
X114402857Y-149042380D01*
X114402857Y-148518571D02*
X114450476Y-148423333D01*
X114545714Y-148375714D01*
X114688571Y-148375714D01*
X114783809Y-148423333D01*
X114831428Y-148518571D01*
X114831428Y-149042380D01*
G04 #@! TO.C,R3*
X66492380Y-163147714D02*
X66540000Y-163195333D01*
X66587619Y-163290571D01*
X66587619Y-163528666D01*
X66540000Y-163623904D01*
X66492380Y-163671523D01*
X66397142Y-163719142D01*
X66301904Y-163719142D01*
X66159047Y-163671523D01*
X65587619Y-163100095D01*
X65587619Y-163719142D01*
X66587619Y-164052476D02*
X66587619Y-164719142D01*
X65587619Y-164290571D01*
X65587619Y-166004857D02*
X65635238Y-165909619D01*
X65682857Y-165862000D01*
X65778095Y-165814380D01*
X66063809Y-165814380D01*
X66159047Y-165862000D01*
X66206666Y-165909619D01*
X66254285Y-166004857D01*
X66254285Y-166147714D01*
X66206666Y-166242952D01*
X66159047Y-166290571D01*
X66063809Y-166338190D01*
X65778095Y-166338190D01*
X65682857Y-166290571D01*
X65635238Y-166242952D01*
X65587619Y-166147714D01*
X65587619Y-166004857D01*
X65587619Y-166766761D02*
X66587619Y-166766761D01*
X65587619Y-167195333D02*
X66111428Y-167195333D01*
X66206666Y-167147714D01*
X66254285Y-167052476D01*
X66254285Y-166909619D01*
X66206666Y-166814380D01*
X66159047Y-166766761D01*
X65587619Y-167671523D02*
X66254285Y-167671523D01*
X66159047Y-167671523D02*
X66206666Y-167719142D01*
X66254285Y-167814380D01*
X66254285Y-167957238D01*
X66206666Y-168052476D01*
X66111428Y-168100095D01*
X65587619Y-168100095D01*
X66111428Y-168100095D02*
X66206666Y-168147714D01*
X66254285Y-168242952D01*
X66254285Y-168385809D01*
X66206666Y-168481047D01*
X66111428Y-168528666D01*
X65587619Y-168528666D01*
G04 #@! TO.C,U3*
X85129619Y-170212095D02*
X85129619Y-170831142D01*
X84748666Y-170497809D01*
X84748666Y-170640666D01*
X84701047Y-170735904D01*
X84653428Y-170783523D01*
X84558190Y-170831142D01*
X84320095Y-170831142D01*
X84224857Y-170783523D01*
X84177238Y-170735904D01*
X84129619Y-170640666D01*
X84129619Y-170354952D01*
X84177238Y-170259714D01*
X84224857Y-170212095D01*
X85129619Y-171164476D02*
X85129619Y-171783523D01*
X84748666Y-171450190D01*
X84748666Y-171593047D01*
X84701047Y-171688285D01*
X84653428Y-171735904D01*
X84558190Y-171783523D01*
X84320095Y-171783523D01*
X84224857Y-171735904D01*
X84177238Y-171688285D01*
X84129619Y-171593047D01*
X84129619Y-171307333D01*
X84177238Y-171212095D01*
X84224857Y-171164476D01*
X84129619Y-173116857D02*
X84177238Y-173021619D01*
X84224857Y-172974000D01*
X84320095Y-172926380D01*
X84605809Y-172926380D01*
X84701047Y-172974000D01*
X84748666Y-173021619D01*
X84796285Y-173116857D01*
X84796285Y-173259714D01*
X84748666Y-173354952D01*
X84701047Y-173402571D01*
X84605809Y-173450190D01*
X84320095Y-173450190D01*
X84224857Y-173402571D01*
X84177238Y-173354952D01*
X84129619Y-173259714D01*
X84129619Y-173116857D01*
X84129619Y-173878761D02*
X85129619Y-173878761D01*
X84129619Y-174307333D02*
X84653428Y-174307333D01*
X84748666Y-174259714D01*
X84796285Y-174164476D01*
X84796285Y-174021619D01*
X84748666Y-173926380D01*
X84701047Y-173878761D01*
X84129619Y-174783523D02*
X84796285Y-174783523D01*
X84701047Y-174783523D02*
X84748666Y-174831142D01*
X84796285Y-174926380D01*
X84796285Y-175069238D01*
X84748666Y-175164476D01*
X84653428Y-175212095D01*
X84129619Y-175212095D01*
X84653428Y-175212095D02*
X84748666Y-175259714D01*
X84796285Y-175354952D01*
X84796285Y-175497809D01*
X84748666Y-175593047D01*
X84653428Y-175640666D01*
X84129619Y-175640666D01*
G04 #@! TO.C,J6*
X113062095Y-177534380D02*
X113062095Y-176534380D01*
X113443047Y-176534380D01*
X113538285Y-176582000D01*
X113585904Y-176629619D01*
X113633523Y-176724857D01*
X113633523Y-176867714D01*
X113585904Y-176962952D01*
X113538285Y-177010571D01*
X113443047Y-177058190D01*
X113062095Y-177058190D01*
X113966857Y-176534380D02*
X114204952Y-177534380D01*
X114395428Y-176820095D01*
X114585904Y-177534380D01*
X114824000Y-176534380D01*
X115776380Y-177534380D02*
X115443047Y-177058190D01*
X115204952Y-177534380D02*
X115204952Y-176534380D01*
X115585904Y-176534380D01*
X115681142Y-176582000D01*
X115728761Y-176629619D01*
X115776380Y-176724857D01*
X115776380Y-176867714D01*
X115728761Y-176962952D01*
X115681142Y-177010571D01*
X115585904Y-177058190D01*
X115204952Y-177058190D01*
X117157333Y-176534380D02*
X117347809Y-176534380D01*
X117443047Y-176582000D01*
X117538285Y-176677238D01*
X117585904Y-176867714D01*
X117585904Y-177201047D01*
X117538285Y-177391523D01*
X117443047Y-177486761D01*
X117347809Y-177534380D01*
X117157333Y-177534380D01*
X117062095Y-177486761D01*
X116966857Y-177391523D01*
X116919238Y-177201047D01*
X116919238Y-176867714D01*
X116966857Y-176677238D01*
X117062095Y-176582000D01*
X117157333Y-176534380D01*
X118014476Y-177534380D02*
X118014476Y-176534380D01*
X118585904Y-177534380D01*
X118585904Y-176534380D01*
G04 #@! TO.C,J3*
X113014285Y-184046761D02*
X113157142Y-184094380D01*
X113395238Y-184094380D01*
X113490476Y-184046761D01*
X113538095Y-183999142D01*
X113585714Y-183903904D01*
X113585714Y-183808666D01*
X113538095Y-183713428D01*
X113490476Y-183665809D01*
X113395238Y-183618190D01*
X113204761Y-183570571D01*
X113109523Y-183522952D01*
X113061904Y-183475333D01*
X113014285Y-183380095D01*
X113014285Y-183284857D01*
X113061904Y-183189619D01*
X113109523Y-183142000D01*
X113204761Y-183094380D01*
X113442857Y-183094380D01*
X113585714Y-183142000D01*
X114014285Y-184094380D02*
X114014285Y-183094380D01*
X114395238Y-183094380D01*
X114490476Y-183142000D01*
X114538095Y-183189619D01*
X114585714Y-183284857D01*
X114585714Y-183427714D01*
X114538095Y-183522952D01*
X114490476Y-183570571D01*
X114395238Y-183618190D01*
X114014285Y-183618190D01*
X115014285Y-184094380D02*
X115014285Y-183094380D01*
X115585714Y-184094380D02*
X115157142Y-183522952D01*
X115585714Y-183094380D02*
X115014285Y-183665809D01*
G04 #@! TO.C,C1*
X97163142Y-73112380D02*
X97258380Y-73112380D01*
X97353619Y-73160000D01*
X97401238Y-73207619D01*
X97448857Y-73302857D01*
X97496476Y-73493333D01*
X97496476Y-73731428D01*
X97448857Y-73921904D01*
X97401238Y-74017142D01*
X97353619Y-74064761D01*
X97258380Y-74112380D01*
X97163142Y-74112380D01*
X97067904Y-74064761D01*
X97020285Y-74017142D01*
X96972666Y-73921904D01*
X96925047Y-73731428D01*
X96925047Y-73493333D01*
X96972666Y-73302857D01*
X97020285Y-73207619D01*
X97067904Y-73160000D01*
X97163142Y-73112380D01*
X97925047Y-74017142D02*
X97972666Y-74064761D01*
X97925047Y-74112380D01*
X97877428Y-74064761D01*
X97925047Y-74017142D01*
X97925047Y-74112380D01*
X98925047Y-74112380D02*
X98353619Y-74112380D01*
X98639333Y-74112380D02*
X98639333Y-73112380D01*
X98544095Y-73255238D01*
X98448857Y-73350476D01*
X98353619Y-73398095D01*
X99782190Y-73445714D02*
X99782190Y-74112380D01*
X99353619Y-73445714D02*
X99353619Y-73969523D01*
X99401238Y-74064761D01*
X99496476Y-74112380D01*
X99639333Y-74112380D01*
X99734571Y-74064761D01*
X99782190Y-74017142D01*
X100591714Y-73588571D02*
X100258380Y-73588571D01*
X100258380Y-74112380D02*
X100258380Y-73112380D01*
X100734571Y-73112380D01*
G04 #@! TO.C,U117*
X71556952Y-177804380D02*
X72223619Y-177804380D01*
X71795047Y-178804380D01*
X73033142Y-178137714D02*
X73033142Y-178804380D01*
X72795047Y-177756761D02*
X72556952Y-178471047D01*
X73176000Y-178471047D01*
X74033142Y-178804380D02*
X73556952Y-178804380D01*
X73556952Y-177804380D01*
X74318857Y-178756761D02*
X74461714Y-178804380D01*
X74699809Y-178804380D01*
X74795047Y-178756761D01*
X74842666Y-178709142D01*
X74890285Y-178613904D01*
X74890285Y-178518666D01*
X74842666Y-178423428D01*
X74795047Y-178375809D01*
X74699809Y-178328190D01*
X74509333Y-178280571D01*
X74414095Y-178232952D01*
X74366476Y-178185333D01*
X74318857Y-178090095D01*
X74318857Y-177994857D01*
X74366476Y-177899619D01*
X74414095Y-177852000D01*
X74509333Y-177804380D01*
X74747428Y-177804380D01*
X74890285Y-177852000D01*
X75842666Y-178804380D02*
X75271238Y-178804380D01*
X75556952Y-178804380D02*
X75556952Y-177804380D01*
X75461714Y-177947238D01*
X75366476Y-178042476D01*
X75271238Y-178090095D01*
X76176000Y-177804380D02*
X76795047Y-177804380D01*
X76461714Y-178185333D01*
X76604571Y-178185333D01*
X76699809Y-178232952D01*
X76747428Y-178280571D01*
X76795047Y-178375809D01*
X76795047Y-178613904D01*
X76747428Y-178709142D01*
X76699809Y-178756761D01*
X76604571Y-178804380D01*
X76318857Y-178804380D01*
X76223619Y-178756761D01*
X76176000Y-178709142D01*
X77271238Y-178804380D02*
X77461714Y-178804380D01*
X77556952Y-178756761D01*
X77604571Y-178709142D01*
X77699809Y-178566285D01*
X77747428Y-178375809D01*
X77747428Y-177994857D01*
X77699809Y-177899619D01*
X77652190Y-177852000D01*
X77556952Y-177804380D01*
X77366476Y-177804380D01*
X77271238Y-177852000D01*
X77223619Y-177899619D01*
X77176000Y-177994857D01*
X77176000Y-178232952D01*
X77223619Y-178328190D01*
X77271238Y-178375809D01*
X77366476Y-178423428D01*
X77556952Y-178423428D01*
X77652190Y-178375809D01*
X77699809Y-178328190D01*
X77747428Y-178232952D01*
G04 #@! TO.C,SW1*
X124471619Y-166410380D02*
X124138285Y-165934190D01*
X123900190Y-166410380D02*
X123900190Y-165410380D01*
X124281142Y-165410380D01*
X124376380Y-165458000D01*
X124424000Y-165505619D01*
X124471619Y-165600857D01*
X124471619Y-165743714D01*
X124424000Y-165838952D01*
X124376380Y-165886571D01*
X124281142Y-165934190D01*
X123900190Y-165934190D01*
X124900190Y-165886571D02*
X125233523Y-165886571D01*
X125376380Y-166410380D02*
X124900190Y-166410380D01*
X124900190Y-165410380D01*
X125376380Y-165410380D01*
X125757333Y-166362761D02*
X125900190Y-166410380D01*
X126138285Y-166410380D01*
X126233523Y-166362761D01*
X126281142Y-166315142D01*
X126328761Y-166219904D01*
X126328761Y-166124666D01*
X126281142Y-166029428D01*
X126233523Y-165981809D01*
X126138285Y-165934190D01*
X125947809Y-165886571D01*
X125852571Y-165838952D01*
X125804952Y-165791333D01*
X125757333Y-165696095D01*
X125757333Y-165600857D01*
X125804952Y-165505619D01*
X125852571Y-165458000D01*
X125947809Y-165410380D01*
X126185904Y-165410380D01*
X126328761Y-165458000D01*
X126757333Y-165886571D02*
X127090666Y-165886571D01*
X127233523Y-166410380D02*
X126757333Y-166410380D01*
X126757333Y-165410380D01*
X127233523Y-165410380D01*
X127519238Y-165410380D02*
X128090666Y-165410380D01*
X127804952Y-166410380D02*
X127804952Y-165410380D01*
G04 #@! TO.C,R1*
X108077333Y-105624380D02*
X107601142Y-105624380D01*
X107553523Y-106100571D01*
X107601142Y-106052952D01*
X107696380Y-106005333D01*
X107934476Y-106005333D01*
X108029714Y-106052952D01*
X108077333Y-106100571D01*
X108124952Y-106195809D01*
X108124952Y-106433904D01*
X108077333Y-106529142D01*
X108029714Y-106576761D01*
X107934476Y-106624380D01*
X107696380Y-106624380D01*
X107601142Y-106576761D01*
X107553523Y-106529142D01*
X109077333Y-106624380D02*
X108505904Y-106624380D01*
X108791619Y-106624380D02*
X108791619Y-105624380D01*
X108696380Y-105767238D01*
X108601142Y-105862476D01*
X108505904Y-105910095D01*
X109696380Y-105624380D02*
X109791619Y-105624380D01*
X109886857Y-105672000D01*
X109934476Y-105719619D01*
X109982095Y-105814857D01*
X110029714Y-106005333D01*
X110029714Y-106243428D01*
X109982095Y-106433904D01*
X109934476Y-106529142D01*
X109886857Y-106576761D01*
X109791619Y-106624380D01*
X109696380Y-106624380D01*
X109601142Y-106576761D01*
X109553523Y-106529142D01*
X109505904Y-106433904D01*
X109458285Y-106243428D01*
X109458285Y-106005333D01*
X109505904Y-105814857D01*
X109553523Y-105719619D01*
X109601142Y-105672000D01*
X109696380Y-105624380D01*
X111363047Y-106624380D02*
X111267809Y-106576761D01*
X111220190Y-106529142D01*
X111172571Y-106433904D01*
X111172571Y-106148190D01*
X111220190Y-106052952D01*
X111267809Y-106005333D01*
X111363047Y-105957714D01*
X111505904Y-105957714D01*
X111601142Y-106005333D01*
X111648761Y-106052952D01*
X111696380Y-106148190D01*
X111696380Y-106433904D01*
X111648761Y-106529142D01*
X111601142Y-106576761D01*
X111505904Y-106624380D01*
X111363047Y-106624380D01*
X112124952Y-106624380D02*
X112124952Y-105624380D01*
X112553523Y-106624380D02*
X112553523Y-106100571D01*
X112505904Y-106005333D01*
X112410666Y-105957714D01*
X112267809Y-105957714D01*
X112172571Y-106005333D01*
X112124952Y-106052952D01*
X113029714Y-106624380D02*
X113029714Y-105957714D01*
X113029714Y-106052952D02*
X113077333Y-106005333D01*
X113172571Y-105957714D01*
X113315428Y-105957714D01*
X113410666Y-106005333D01*
X113458285Y-106100571D01*
X113458285Y-106624380D01*
X113458285Y-106100571D02*
X113505904Y-106005333D01*
X113601142Y-105957714D01*
X113744000Y-105957714D01*
X113839238Y-106005333D01*
X113886857Y-106100571D01*
X113886857Y-106624380D01*
G04 #@! TO.C,D1*
X110974476Y-114498380D02*
X110974476Y-113498380D01*
X111355428Y-113498380D01*
X111450666Y-113546000D01*
X111498285Y-113593619D01*
X111545904Y-113688857D01*
X111545904Y-113831714D01*
X111498285Y-113926952D01*
X111450666Y-113974571D01*
X111355428Y-114022190D01*
X110974476Y-114022190D01*
X112164952Y-113498380D02*
X112355428Y-113498380D01*
X112450666Y-113546000D01*
X112545904Y-113641238D01*
X112593523Y-113831714D01*
X112593523Y-114165047D01*
X112545904Y-114355523D01*
X112450666Y-114450761D01*
X112355428Y-114498380D01*
X112164952Y-114498380D01*
X112069714Y-114450761D01*
X111974476Y-114355523D01*
X111926857Y-114165047D01*
X111926857Y-113831714D01*
X111974476Y-113641238D01*
X112069714Y-113546000D01*
X112164952Y-113498380D01*
X112926857Y-113498380D02*
X113164952Y-114498380D01*
X113355428Y-113784095D01*
X113545904Y-114498380D01*
X113784000Y-113498380D01*
X114164952Y-113974571D02*
X114498285Y-113974571D01*
X114641142Y-114498380D02*
X114164952Y-114498380D01*
X114164952Y-113498380D01*
X114641142Y-113498380D01*
X115641142Y-114498380D02*
X115307809Y-114022190D01*
X115069714Y-114498380D02*
X115069714Y-113498380D01*
X115450666Y-113498380D01*
X115545904Y-113546000D01*
X115593523Y-113593619D01*
X115641142Y-113688857D01*
X115641142Y-113831714D01*
X115593523Y-113926952D01*
X115545904Y-113974571D01*
X115450666Y-114022190D01*
X115069714Y-114022190D01*
G04 #@! TO.C,C7*
X97163142Y-38060380D02*
X97258380Y-38060380D01*
X97353619Y-38108000D01*
X97401238Y-38155619D01*
X97448857Y-38250857D01*
X97496476Y-38441333D01*
X97496476Y-38679428D01*
X97448857Y-38869904D01*
X97401238Y-38965142D01*
X97353619Y-39012761D01*
X97258380Y-39060380D01*
X97163142Y-39060380D01*
X97067904Y-39012761D01*
X97020285Y-38965142D01*
X96972666Y-38869904D01*
X96925047Y-38679428D01*
X96925047Y-38441333D01*
X96972666Y-38250857D01*
X97020285Y-38155619D01*
X97067904Y-38108000D01*
X97163142Y-38060380D01*
X97925047Y-38965142D02*
X97972666Y-39012761D01*
X97925047Y-39060380D01*
X97877428Y-39012761D01*
X97925047Y-38965142D01*
X97925047Y-39060380D01*
X98925047Y-39060380D02*
X98353619Y-39060380D01*
X98639333Y-39060380D02*
X98639333Y-38060380D01*
X98544095Y-38203238D01*
X98448857Y-38298476D01*
X98353619Y-38346095D01*
X99782190Y-38393714D02*
X99782190Y-39060380D01*
X99353619Y-38393714D02*
X99353619Y-38917523D01*
X99401238Y-39012761D01*
X99496476Y-39060380D01*
X99639333Y-39060380D01*
X99734571Y-39012761D01*
X99782190Y-38965142D01*
X100591714Y-38536571D02*
X100258380Y-38536571D01*
X100258380Y-39060380D02*
X100258380Y-38060380D01*
X100734571Y-38060380D01*
G04 #@! TO.C,8x8mm1*
X123550571Y-172220571D02*
X123493428Y-172192000D01*
X123464857Y-172163428D01*
X123436285Y-172106285D01*
X123436285Y-172077714D01*
X123464857Y-172020571D01*
X123493428Y-171992000D01*
X123550571Y-171963428D01*
X123664857Y-171963428D01*
X123722000Y-171992000D01*
X123750571Y-172020571D01*
X123779142Y-172077714D01*
X123779142Y-172106285D01*
X123750571Y-172163428D01*
X123722000Y-172192000D01*
X123664857Y-172220571D01*
X123550571Y-172220571D01*
X123493428Y-172249142D01*
X123464857Y-172277714D01*
X123436285Y-172334857D01*
X123436285Y-172449142D01*
X123464857Y-172506285D01*
X123493428Y-172534857D01*
X123550571Y-172563428D01*
X123664857Y-172563428D01*
X123722000Y-172534857D01*
X123750571Y-172506285D01*
X123779142Y-172449142D01*
X123779142Y-172334857D01*
X123750571Y-172277714D01*
X123722000Y-172249142D01*
X123664857Y-172220571D01*
X123979142Y-172563428D02*
X124293428Y-172163428D01*
X123979142Y-172163428D02*
X124293428Y-172563428D01*
X124607714Y-172220571D02*
X124550571Y-172192000D01*
X124522000Y-172163428D01*
X124493428Y-172106285D01*
X124493428Y-172077714D01*
X124522000Y-172020571D01*
X124550571Y-171992000D01*
X124607714Y-171963428D01*
X124722000Y-171963428D01*
X124779142Y-171992000D01*
X124807714Y-172020571D01*
X124836285Y-172077714D01*
X124836285Y-172106285D01*
X124807714Y-172163428D01*
X124779142Y-172192000D01*
X124722000Y-172220571D01*
X124607714Y-172220571D01*
X124550571Y-172249142D01*
X124522000Y-172277714D01*
X124493428Y-172334857D01*
X124493428Y-172449142D01*
X124522000Y-172506285D01*
X124550571Y-172534857D01*
X124607714Y-172563428D01*
X124722000Y-172563428D01*
X124779142Y-172534857D01*
X124807714Y-172506285D01*
X124836285Y-172449142D01*
X124836285Y-172334857D01*
X124807714Y-172277714D01*
X124779142Y-172249142D01*
X124722000Y-172220571D01*
X125093428Y-172563428D02*
X125093428Y-172163428D01*
X125093428Y-172220571D02*
X125122000Y-172192000D01*
X125179142Y-172163428D01*
X125264857Y-172163428D01*
X125322000Y-172192000D01*
X125350571Y-172249142D01*
X125350571Y-172563428D01*
X125350571Y-172249142D02*
X125379142Y-172192000D01*
X125436285Y-172163428D01*
X125522000Y-172163428D01*
X125579142Y-172192000D01*
X125607714Y-172249142D01*
X125607714Y-172563428D01*
X125893428Y-172563428D02*
X125893428Y-172163428D01*
X125893428Y-172220571D02*
X125922000Y-172192000D01*
X125979142Y-172163428D01*
X126064857Y-172163428D01*
X126122000Y-172192000D01*
X126150571Y-172249142D01*
X126150571Y-172563428D01*
X126150571Y-172249142D02*
X126179142Y-172192000D01*
X126236285Y-172163428D01*
X126322000Y-172163428D01*
X126379142Y-172192000D01*
X126407714Y-172249142D01*
X126407714Y-172563428D01*
X127007714Y-172563428D02*
X126664857Y-172563428D01*
X126836285Y-172563428D02*
X126836285Y-171963428D01*
X126779142Y-172049142D01*
X126722000Y-172106285D01*
X126664857Y-172134857D01*
X122460095Y-178078380D02*
X122460095Y-177078380D01*
X122841047Y-177078380D01*
X122936285Y-177126000D01*
X122983904Y-177173619D01*
X123031523Y-177268857D01*
X123031523Y-177411714D01*
X122983904Y-177506952D01*
X122936285Y-177554571D01*
X122841047Y-177602190D01*
X122460095Y-177602190D01*
X123364857Y-177078380D02*
X123602952Y-178078380D01*
X123793428Y-177364095D01*
X123983904Y-178078380D01*
X124222000Y-177078380D01*
X125174380Y-178078380D02*
X124841047Y-177602190D01*
X124602952Y-178078380D02*
X124602952Y-177078380D01*
X124983904Y-177078380D01*
X125079142Y-177126000D01*
X125126761Y-177173619D01*
X125174380Y-177268857D01*
X125174380Y-177411714D01*
X125126761Y-177506952D01*
X125079142Y-177554571D01*
X124983904Y-177602190D01*
X124602952Y-177602190D01*
X126317238Y-178030761D02*
X126460095Y-178078380D01*
X126698190Y-178078380D01*
X126793428Y-178030761D01*
X126841047Y-177983142D01*
X126888666Y-177887904D01*
X126888666Y-177792666D01*
X126841047Y-177697428D01*
X126793428Y-177649809D01*
X126698190Y-177602190D01*
X126507714Y-177554571D01*
X126412476Y-177506952D01*
X126364857Y-177459333D01*
X126317238Y-177364095D01*
X126317238Y-177268857D01*
X126364857Y-177173619D01*
X126412476Y-177126000D01*
X126507714Y-177078380D01*
X126745809Y-177078380D01*
X126888666Y-177126000D01*
X127222000Y-177078380D02*
X127460095Y-178078380D01*
X127650571Y-177364095D01*
X127841047Y-178078380D01*
X128079142Y-177078380D01*
G04 #@! TO.C,ATXPOWER1*
X120396095Y-111815619D02*
X120443714Y-111768000D01*
X120538952Y-111720380D01*
X120777047Y-111720380D01*
X120872285Y-111768000D01*
X120919904Y-111815619D01*
X120967523Y-111910857D01*
X120967523Y-112006095D01*
X120919904Y-112148952D01*
X120348476Y-112720380D01*
X120967523Y-112720380D01*
X121586571Y-111720380D02*
X121681809Y-111720380D01*
X121777047Y-111768000D01*
X121824666Y-111815619D01*
X121872285Y-111910857D01*
X121919904Y-112101333D01*
X121919904Y-112339428D01*
X121872285Y-112529904D01*
X121824666Y-112625142D01*
X121777047Y-112672761D01*
X121681809Y-112720380D01*
X121586571Y-112720380D01*
X121491333Y-112672761D01*
X121443714Y-112625142D01*
X121396095Y-112529904D01*
X121348476Y-112339428D01*
X121348476Y-112101333D01*
X121396095Y-111910857D01*
X121443714Y-111815619D01*
X121491333Y-111768000D01*
X121586571Y-111720380D01*
X120396095Y-109783619D02*
X120443714Y-109736000D01*
X120538952Y-109688380D01*
X120777047Y-109688380D01*
X120872285Y-109736000D01*
X120919904Y-109783619D01*
X120967523Y-109878857D01*
X120967523Y-109974095D01*
X120919904Y-110116952D01*
X120348476Y-110688380D01*
X120967523Y-110688380D01*
X121824666Y-110021714D02*
X121824666Y-110688380D01*
X121586571Y-109640761D02*
X121348476Y-110355047D01*
X121967523Y-110355047D01*
G04 #@! TO.C,C29*
X36996619Y-116427142D02*
X36996619Y-116522380D01*
X36949000Y-116617619D01*
X36901380Y-116665238D01*
X36806142Y-116712857D01*
X36615666Y-116760476D01*
X36377571Y-116760476D01*
X36187095Y-116712857D01*
X36091857Y-116665238D01*
X36044238Y-116617619D01*
X35996619Y-116522380D01*
X35996619Y-116427142D01*
X36044238Y-116331904D01*
X36091857Y-116284285D01*
X36187095Y-116236666D01*
X36377571Y-116189047D01*
X36615666Y-116189047D01*
X36806142Y-116236666D01*
X36901380Y-116284285D01*
X36949000Y-116331904D01*
X36996619Y-116427142D01*
X36091857Y-117189047D02*
X36044238Y-117236666D01*
X35996619Y-117189047D01*
X36044238Y-117141428D01*
X36091857Y-117189047D01*
X35996619Y-117189047D01*
X35996619Y-118189047D02*
X35996619Y-117617619D01*
X35996619Y-117903333D02*
X36996619Y-117903333D01*
X36853761Y-117808095D01*
X36758523Y-117712857D01*
X36710904Y-117617619D01*
X36663285Y-119046190D02*
X35996619Y-119046190D01*
X36663285Y-118617619D02*
X36139476Y-118617619D01*
X36044238Y-118665238D01*
X35996619Y-118760476D01*
X35996619Y-118903333D01*
X36044238Y-118998571D01*
X36091857Y-119046190D01*
X36520428Y-119855714D02*
X36520428Y-119522380D01*
X35996619Y-119522380D02*
X36996619Y-119522380D01*
X36996619Y-119998571D01*
G04 #@! TO.C,C28*
X57316619Y-116467142D02*
X57316619Y-116562380D01*
X57269000Y-116657619D01*
X57221380Y-116705238D01*
X57126142Y-116752857D01*
X56935666Y-116800476D01*
X56697571Y-116800476D01*
X56507095Y-116752857D01*
X56411857Y-116705238D01*
X56364238Y-116657619D01*
X56316619Y-116562380D01*
X56316619Y-116467142D01*
X56364238Y-116371904D01*
X56411857Y-116324285D01*
X56507095Y-116276666D01*
X56697571Y-116229047D01*
X56935666Y-116229047D01*
X57126142Y-116276666D01*
X57221380Y-116324285D01*
X57269000Y-116371904D01*
X57316619Y-116467142D01*
X56411857Y-117229047D02*
X56364238Y-117276666D01*
X56316619Y-117229047D01*
X56364238Y-117181428D01*
X56411857Y-117229047D01*
X56316619Y-117229047D01*
X56316619Y-118229047D02*
X56316619Y-117657619D01*
X56316619Y-117943333D02*
X57316619Y-117943333D01*
X57173761Y-117848095D01*
X57078523Y-117752857D01*
X57030904Y-117657619D01*
X56983285Y-119086190D02*
X56316619Y-119086190D01*
X56983285Y-118657619D02*
X56459476Y-118657619D01*
X56364238Y-118705238D01*
X56316619Y-118800476D01*
X56316619Y-118943333D01*
X56364238Y-119038571D01*
X56411857Y-119086190D01*
X56840428Y-119895714D02*
X56840428Y-119562380D01*
X56316619Y-119562380D02*
X57316619Y-119562380D01*
X57316619Y-120038571D01*
G04 #@! TO.C,C27*
X32211619Y-116427142D02*
X32211619Y-116522380D01*
X32164000Y-116617619D01*
X32116380Y-116665238D01*
X32021142Y-116712857D01*
X31830666Y-116760476D01*
X31592571Y-116760476D01*
X31402095Y-116712857D01*
X31306857Y-116665238D01*
X31259238Y-116617619D01*
X31211619Y-116522380D01*
X31211619Y-116427142D01*
X31259238Y-116331904D01*
X31306857Y-116284285D01*
X31402095Y-116236666D01*
X31592571Y-116189047D01*
X31830666Y-116189047D01*
X32021142Y-116236666D01*
X32116380Y-116284285D01*
X32164000Y-116331904D01*
X32211619Y-116427142D01*
X31306857Y-117189047D02*
X31259238Y-117236666D01*
X31211619Y-117189047D01*
X31259238Y-117141428D01*
X31306857Y-117189047D01*
X31211619Y-117189047D01*
X31211619Y-118189047D02*
X31211619Y-117617619D01*
X31211619Y-117903333D02*
X32211619Y-117903333D01*
X32068761Y-117808095D01*
X31973523Y-117712857D01*
X31925904Y-117617619D01*
X31878285Y-119046190D02*
X31211619Y-119046190D01*
X31878285Y-118617619D02*
X31354476Y-118617619D01*
X31259238Y-118665238D01*
X31211619Y-118760476D01*
X31211619Y-118903333D01*
X31259238Y-118998571D01*
X31306857Y-119046190D01*
X31735428Y-119855714D02*
X31735428Y-119522380D01*
X31211619Y-119522380D02*
X32211619Y-119522380D01*
X32211619Y-119998571D01*
G04 #@! TO.C,C26*
X77636619Y-116467142D02*
X77636619Y-116562380D01*
X77589000Y-116657619D01*
X77541380Y-116705238D01*
X77446142Y-116752857D01*
X77255666Y-116800476D01*
X77017571Y-116800476D01*
X76827095Y-116752857D01*
X76731857Y-116705238D01*
X76684238Y-116657619D01*
X76636619Y-116562380D01*
X76636619Y-116467142D01*
X76684238Y-116371904D01*
X76731857Y-116324285D01*
X76827095Y-116276666D01*
X77017571Y-116229047D01*
X77255666Y-116229047D01*
X77446142Y-116276666D01*
X77541380Y-116324285D01*
X77589000Y-116371904D01*
X77636619Y-116467142D01*
X76731857Y-117229047D02*
X76684238Y-117276666D01*
X76636619Y-117229047D01*
X76684238Y-117181428D01*
X76731857Y-117229047D01*
X76636619Y-117229047D01*
X76636619Y-118229047D02*
X76636619Y-117657619D01*
X76636619Y-117943333D02*
X77636619Y-117943333D01*
X77493761Y-117848095D01*
X77398523Y-117752857D01*
X77350904Y-117657619D01*
X77303285Y-119086190D02*
X76636619Y-119086190D01*
X77303285Y-118657619D02*
X76779476Y-118657619D01*
X76684238Y-118705238D01*
X76636619Y-118800476D01*
X76636619Y-118943333D01*
X76684238Y-119038571D01*
X76731857Y-119086190D01*
X77160428Y-119895714D02*
X77160428Y-119562380D01*
X76636619Y-119562380D02*
X77636619Y-119562380D01*
X77636619Y-120038571D01*
G04 #@! TO.C,C25*
X36955619Y-45561142D02*
X36955619Y-45656380D01*
X36908000Y-45751619D01*
X36860380Y-45799238D01*
X36765142Y-45846857D01*
X36574666Y-45894476D01*
X36336571Y-45894476D01*
X36146095Y-45846857D01*
X36050857Y-45799238D01*
X36003238Y-45751619D01*
X35955619Y-45656380D01*
X35955619Y-45561142D01*
X36003238Y-45465904D01*
X36050857Y-45418285D01*
X36146095Y-45370666D01*
X36336571Y-45323047D01*
X36574666Y-45323047D01*
X36765142Y-45370666D01*
X36860380Y-45418285D01*
X36908000Y-45465904D01*
X36955619Y-45561142D01*
X36050857Y-46323047D02*
X36003238Y-46370666D01*
X35955619Y-46323047D01*
X36003238Y-46275428D01*
X36050857Y-46323047D01*
X35955619Y-46323047D01*
X35955619Y-47323047D02*
X35955619Y-46751619D01*
X35955619Y-47037333D02*
X36955619Y-47037333D01*
X36812761Y-46942095D01*
X36717523Y-46846857D01*
X36669904Y-46751619D01*
X36622285Y-48180190D02*
X35955619Y-48180190D01*
X36622285Y-47751619D02*
X36098476Y-47751619D01*
X36003238Y-47799238D01*
X35955619Y-47894476D01*
X35955619Y-48037333D01*
X36003238Y-48132571D01*
X36050857Y-48180190D01*
X36479428Y-48989714D02*
X36479428Y-48656380D01*
X35955619Y-48656380D02*
X36955619Y-48656380D01*
X36955619Y-49132571D01*
G04 #@! TO.C,C24*
X32043619Y-45561142D02*
X32043619Y-45656380D01*
X31996000Y-45751619D01*
X31948380Y-45799238D01*
X31853142Y-45846857D01*
X31662666Y-45894476D01*
X31424571Y-45894476D01*
X31234095Y-45846857D01*
X31138857Y-45799238D01*
X31091238Y-45751619D01*
X31043619Y-45656380D01*
X31043619Y-45561142D01*
X31091238Y-45465904D01*
X31138857Y-45418285D01*
X31234095Y-45370666D01*
X31424571Y-45323047D01*
X31662666Y-45323047D01*
X31853142Y-45370666D01*
X31948380Y-45418285D01*
X31996000Y-45465904D01*
X32043619Y-45561142D01*
X31138857Y-46323047D02*
X31091238Y-46370666D01*
X31043619Y-46323047D01*
X31091238Y-46275428D01*
X31138857Y-46323047D01*
X31043619Y-46323047D01*
X31043619Y-47323047D02*
X31043619Y-46751619D01*
X31043619Y-47037333D02*
X32043619Y-47037333D01*
X31900761Y-46942095D01*
X31805523Y-46846857D01*
X31757904Y-46751619D01*
X31710285Y-48180190D02*
X31043619Y-48180190D01*
X31710285Y-47751619D02*
X31186476Y-47751619D01*
X31091238Y-47799238D01*
X31043619Y-47894476D01*
X31043619Y-48037333D01*
X31091238Y-48132571D01*
X31138857Y-48180190D01*
X31567428Y-48989714D02*
X31567428Y-48656380D01*
X31043619Y-48656380D02*
X32043619Y-48656380D01*
X32043619Y-49132571D01*
G04 #@! TO.C,C23*
X77595619Y-45561142D02*
X77595619Y-45656380D01*
X77548000Y-45751619D01*
X77500380Y-45799238D01*
X77405142Y-45846857D01*
X77214666Y-45894476D01*
X76976571Y-45894476D01*
X76786095Y-45846857D01*
X76690857Y-45799238D01*
X76643238Y-45751619D01*
X76595619Y-45656380D01*
X76595619Y-45561142D01*
X76643238Y-45465904D01*
X76690857Y-45418285D01*
X76786095Y-45370666D01*
X76976571Y-45323047D01*
X77214666Y-45323047D01*
X77405142Y-45370666D01*
X77500380Y-45418285D01*
X77548000Y-45465904D01*
X77595619Y-45561142D01*
X76690857Y-46323047D02*
X76643238Y-46370666D01*
X76595619Y-46323047D01*
X76643238Y-46275428D01*
X76690857Y-46323047D01*
X76595619Y-46323047D01*
X76595619Y-47323047D02*
X76595619Y-46751619D01*
X76595619Y-47037333D02*
X77595619Y-47037333D01*
X77452761Y-46942095D01*
X77357523Y-46846857D01*
X77309904Y-46751619D01*
X77262285Y-48180190D02*
X76595619Y-48180190D01*
X77262285Y-47751619D02*
X76738476Y-47751619D01*
X76643238Y-47799238D01*
X76595619Y-47894476D01*
X76595619Y-48037333D01*
X76643238Y-48132571D01*
X76690857Y-48180190D01*
X77119428Y-48989714D02*
X77119428Y-48656380D01*
X76595619Y-48656380D02*
X77595619Y-48656380D01*
X77595619Y-49132571D01*
G04 #@! TO.C,C22*
X57275619Y-45561142D02*
X57275619Y-45656380D01*
X57228000Y-45751619D01*
X57180380Y-45799238D01*
X57085142Y-45846857D01*
X56894666Y-45894476D01*
X56656571Y-45894476D01*
X56466095Y-45846857D01*
X56370857Y-45799238D01*
X56323238Y-45751619D01*
X56275619Y-45656380D01*
X56275619Y-45561142D01*
X56323238Y-45465904D01*
X56370857Y-45418285D01*
X56466095Y-45370666D01*
X56656571Y-45323047D01*
X56894666Y-45323047D01*
X57085142Y-45370666D01*
X57180380Y-45418285D01*
X57228000Y-45465904D01*
X57275619Y-45561142D01*
X56370857Y-46323047D02*
X56323238Y-46370666D01*
X56275619Y-46323047D01*
X56323238Y-46275428D01*
X56370857Y-46323047D01*
X56275619Y-46323047D01*
X56275619Y-47323047D02*
X56275619Y-46751619D01*
X56275619Y-47037333D02*
X57275619Y-47037333D01*
X57132761Y-46942095D01*
X57037523Y-46846857D01*
X56989904Y-46751619D01*
X56942285Y-48180190D02*
X56275619Y-48180190D01*
X56942285Y-47751619D02*
X56418476Y-47751619D01*
X56323238Y-47799238D01*
X56275619Y-47894476D01*
X56275619Y-48037333D01*
X56323238Y-48132571D01*
X56370857Y-48180190D01*
X56799428Y-48989714D02*
X56799428Y-48656380D01*
X56275619Y-48656380D02*
X57275619Y-48656380D01*
X57275619Y-49132571D01*
G04 #@! TO.C,J2*
X117961304Y-19908780D02*
X117961304Y-18908780D01*
X118294638Y-19623066D01*
X118627971Y-18908780D01*
X118627971Y-19908780D01*
X119104161Y-19908780D02*
X119104161Y-19242114D01*
X119104161Y-18908780D02*
X119056542Y-18956400D01*
X119104161Y-19004019D01*
X119151780Y-18956400D01*
X119104161Y-18908780D01*
X119104161Y-19004019D01*
X119580352Y-19242114D02*
X119580352Y-19908780D01*
X119580352Y-19337352D02*
X119627971Y-19289733D01*
X119723209Y-19242114D01*
X119866066Y-19242114D01*
X119961304Y-19289733D01*
X120008923Y-19384971D01*
X120008923Y-19908780D01*
X120485114Y-19908780D02*
X120485114Y-19242114D01*
X120485114Y-18908780D02*
X120437495Y-18956400D01*
X120485114Y-19004019D01*
X120532733Y-18956400D01*
X120485114Y-18908780D01*
X120485114Y-19004019D01*
X120961304Y-19527828D02*
X121723209Y-19527828D01*
X122199400Y-19908780D02*
X122199400Y-18908780D01*
X122437495Y-18908780D01*
X122580352Y-18956400D01*
X122675590Y-19051638D01*
X122723209Y-19146876D01*
X122770828Y-19337352D01*
X122770828Y-19480209D01*
X122723209Y-19670685D01*
X122675590Y-19765923D01*
X122580352Y-19861161D01*
X122437495Y-19908780D01*
X122199400Y-19908780D01*
X123199400Y-19908780D02*
X123199400Y-18908780D01*
X123675590Y-19908780D02*
X123675590Y-18908780D01*
X124247019Y-19908780D01*
X124247019Y-18908780D01*
X124723209Y-19527828D02*
X125485114Y-19527828D01*
X126389876Y-18908780D02*
X126199400Y-18908780D01*
X126104161Y-18956400D01*
X126056542Y-19004019D01*
X125961304Y-19146876D01*
X125913685Y-19337352D01*
X125913685Y-19718304D01*
X125961304Y-19813542D01*
X126008923Y-19861161D01*
X126104161Y-19908780D01*
X126294638Y-19908780D01*
X126389876Y-19861161D01*
X126437495Y-19813542D01*
X126485114Y-19718304D01*
X126485114Y-19480209D01*
X126437495Y-19384971D01*
X126389876Y-19337352D01*
X126294638Y-19289733D01*
X126104161Y-19289733D01*
X126008923Y-19337352D01*
X125961304Y-19384971D01*
X125913685Y-19480209D01*
G04 #@! TO.C,*
G04 #@! TO.C,U17*
X91876952Y-177804380D02*
X92543619Y-177804380D01*
X92115047Y-178804380D01*
X93353142Y-178137714D02*
X93353142Y-178804380D01*
X93115047Y-177756761D02*
X92876952Y-178471047D01*
X93496000Y-178471047D01*
X94353142Y-178804380D02*
X93876952Y-178804380D01*
X93876952Y-177804380D01*
X94638857Y-178756761D02*
X94781714Y-178804380D01*
X95019809Y-178804380D01*
X95115047Y-178756761D01*
X95162666Y-178709142D01*
X95210285Y-178613904D01*
X95210285Y-178518666D01*
X95162666Y-178423428D01*
X95115047Y-178375809D01*
X95019809Y-178328190D01*
X94829333Y-178280571D01*
X94734095Y-178232952D01*
X94686476Y-178185333D01*
X94638857Y-178090095D01*
X94638857Y-177994857D01*
X94686476Y-177899619D01*
X94734095Y-177852000D01*
X94829333Y-177804380D01*
X95067428Y-177804380D01*
X95210285Y-177852000D01*
X96162666Y-178804380D02*
X95591238Y-178804380D01*
X95876952Y-178804380D02*
X95876952Y-177804380D01*
X95781714Y-177947238D01*
X95686476Y-178042476D01*
X95591238Y-178090095D01*
X96496000Y-177804380D02*
X97115047Y-177804380D01*
X96781714Y-178185333D01*
X96924571Y-178185333D01*
X97019809Y-178232952D01*
X97067428Y-178280571D01*
X97115047Y-178375809D01*
X97115047Y-178613904D01*
X97067428Y-178709142D01*
X97019809Y-178756761D01*
X96924571Y-178804380D01*
X96638857Y-178804380D01*
X96543619Y-178756761D01*
X96496000Y-178709142D01*
X97591238Y-178804380D02*
X97781714Y-178804380D01*
X97876952Y-178756761D01*
X97924571Y-178709142D01*
X98019809Y-178566285D01*
X98067428Y-178375809D01*
X98067428Y-177994857D01*
X98019809Y-177899619D01*
X97972190Y-177852000D01*
X97876952Y-177804380D01*
X97686476Y-177804380D01*
X97591238Y-177852000D01*
X97543619Y-177899619D01*
X97496000Y-177994857D01*
X97496000Y-178232952D01*
X97543619Y-178328190D01*
X97591238Y-178375809D01*
X97686476Y-178423428D01*
X97876952Y-178423428D01*
X97972190Y-178375809D01*
X98019809Y-178328190D01*
X98067428Y-178232952D01*
G04 #@! TO.C,R*
X23423523Y-40838380D02*
X23090190Y-40362190D01*
X22852095Y-40838380D02*
X22852095Y-39838380D01*
X23233047Y-39838380D01*
X23328285Y-39886000D01*
X23375904Y-39933619D01*
X23423523Y-40028857D01*
X23423523Y-40171714D01*
X23375904Y-40266952D01*
X23328285Y-40314571D01*
X23233047Y-40362190D01*
X22852095Y-40362190D01*
G04 #@! TO.C,*
G04 #@! TO.C,J4*
X120197619Y-81161428D02*
X121197619Y-81161428D01*
X121197619Y-81542380D01*
X121150000Y-81637619D01*
X121102380Y-81685238D01*
X121007142Y-81732857D01*
X120864285Y-81732857D01*
X120769047Y-81685238D01*
X120721428Y-81637619D01*
X120673809Y-81542380D01*
X120673809Y-81161428D01*
X121197619Y-82351904D02*
X121197619Y-82542380D01*
X121150000Y-82637619D01*
X121054761Y-82732857D01*
X120864285Y-82780476D01*
X120530952Y-82780476D01*
X120340476Y-82732857D01*
X120245238Y-82637619D01*
X120197619Y-82542380D01*
X120197619Y-82351904D01*
X120245238Y-82256666D01*
X120340476Y-82161428D01*
X120530952Y-82113809D01*
X120864285Y-82113809D01*
X121054761Y-82161428D01*
X121150000Y-82256666D01*
X121197619Y-82351904D01*
X120197619Y-83780476D02*
X120673809Y-83447142D01*
X120197619Y-83209047D02*
X121197619Y-83209047D01*
X121197619Y-83590000D01*
X121150000Y-83685238D01*
X121102380Y-83732857D01*
X121007142Y-83780476D01*
X120864285Y-83780476D01*
X120769047Y-83732857D01*
X120721428Y-83685238D01*
X120673809Y-83590000D01*
X120673809Y-83209047D01*
X121197619Y-84066190D02*
X121197619Y-84637619D01*
X120197619Y-84351904D02*
X121197619Y-84351904D01*
X121197619Y-85923333D02*
X121197619Y-86018571D01*
X121150000Y-86113809D01*
X121102380Y-86161428D01*
X121007142Y-86209047D01*
X120816666Y-86256666D01*
X120578571Y-86256666D01*
X120388095Y-86209047D01*
X120292857Y-86161428D01*
X120245238Y-86113809D01*
X120197619Y-86018571D01*
X120197619Y-85923333D01*
X120245238Y-85828095D01*
X120292857Y-85780476D01*
X120388095Y-85732857D01*
X120578571Y-85685238D01*
X120816666Y-85685238D01*
X121007142Y-85732857D01*
X121102380Y-85780476D01*
X121150000Y-85828095D01*
X121197619Y-85923333D01*
X121197619Y-86590000D02*
X120197619Y-87256666D01*
X121197619Y-87256666D02*
X120197619Y-86590000D01*
X120721428Y-87637619D02*
X120721428Y-87970952D01*
X120197619Y-88113809D02*
X120197619Y-87637619D01*
X121197619Y-87637619D01*
X121197619Y-88113809D01*
X121197619Y-88732857D02*
X121197619Y-88828095D01*
X121150000Y-88923333D01*
X121102380Y-88970952D01*
X121007142Y-89018571D01*
X120816666Y-89066190D01*
X120578571Y-89066190D01*
X120388095Y-89018571D01*
X120292857Y-88970952D01*
X120245238Y-88923333D01*
X120197619Y-88828095D01*
X120197619Y-88732857D01*
X120245238Y-88637619D01*
X120292857Y-88590000D01*
X120388095Y-88542380D01*
X120578571Y-88494761D01*
X120816666Y-88494761D01*
X121007142Y-88542380D01*
X121102380Y-88590000D01*
X121150000Y-88637619D01*
X121197619Y-88732857D01*
G04 #@! TO.C,U9*
X30916952Y-149864380D02*
X31583619Y-149864380D01*
X31155047Y-150864380D01*
X32393142Y-150197714D02*
X32393142Y-150864380D01*
X32155047Y-149816761D02*
X31916952Y-150531047D01*
X32536000Y-150531047D01*
X33393142Y-150864380D02*
X32916952Y-150864380D01*
X32916952Y-149864380D01*
X33678857Y-150816761D02*
X33821714Y-150864380D01*
X34059809Y-150864380D01*
X34155047Y-150816761D01*
X34202666Y-150769142D01*
X34250285Y-150673904D01*
X34250285Y-150578666D01*
X34202666Y-150483428D01*
X34155047Y-150435809D01*
X34059809Y-150388190D01*
X33869333Y-150340571D01*
X33774095Y-150292952D01*
X33726476Y-150245333D01*
X33678857Y-150150095D01*
X33678857Y-150054857D01*
X33726476Y-149959619D01*
X33774095Y-149912000D01*
X33869333Y-149864380D01*
X34107428Y-149864380D01*
X34250285Y-149912000D01*
X35202666Y-150864380D02*
X34631238Y-150864380D01*
X34916952Y-150864380D02*
X34916952Y-149864380D01*
X34821714Y-150007238D01*
X34726476Y-150102476D01*
X34631238Y-150150095D01*
X35536000Y-149864380D02*
X36155047Y-149864380D01*
X35821714Y-150245333D01*
X35964571Y-150245333D01*
X36059809Y-150292952D01*
X36107428Y-150340571D01*
X36155047Y-150435809D01*
X36155047Y-150673904D01*
X36107428Y-150769142D01*
X36059809Y-150816761D01*
X35964571Y-150864380D01*
X35678857Y-150864380D01*
X35583619Y-150816761D01*
X35536000Y-150769142D01*
X36726476Y-150292952D02*
X36631238Y-150245333D01*
X36583619Y-150197714D01*
X36536000Y-150102476D01*
X36536000Y-150054857D01*
X36583619Y-149959619D01*
X36631238Y-149912000D01*
X36726476Y-149864380D01*
X36916952Y-149864380D01*
X37012190Y-149912000D01*
X37059809Y-149959619D01*
X37107428Y-150054857D01*
X37107428Y-150102476D01*
X37059809Y-150197714D01*
X37012190Y-150245333D01*
X36916952Y-150292952D01*
X36726476Y-150292952D01*
X36631238Y-150340571D01*
X36583619Y-150388190D01*
X36536000Y-150483428D01*
X36536000Y-150673904D01*
X36583619Y-150769142D01*
X36631238Y-150816761D01*
X36726476Y-150864380D01*
X36916952Y-150864380D01*
X37012190Y-150816761D01*
X37059809Y-150769142D01*
X37107428Y-150673904D01*
X37107428Y-150483428D01*
X37059809Y-150388190D01*
X37012190Y-150340571D01*
X36916952Y-150292952D01*
G04 #@! TO.C,U11*
X32512190Y-178232952D02*
X32416952Y-178185333D01*
X32369333Y-178137714D01*
X32321714Y-178042476D01*
X32321714Y-177994857D01*
X32369333Y-177899619D01*
X32416952Y-177852000D01*
X32512190Y-177804380D01*
X32702666Y-177804380D01*
X32797904Y-177852000D01*
X32845523Y-177899619D01*
X32893142Y-177994857D01*
X32893142Y-178042476D01*
X32845523Y-178137714D01*
X32797904Y-178185333D01*
X32702666Y-178232952D01*
X32512190Y-178232952D01*
X32416952Y-178280571D01*
X32369333Y-178328190D01*
X32321714Y-178423428D01*
X32321714Y-178613904D01*
X32369333Y-178709142D01*
X32416952Y-178756761D01*
X32512190Y-178804380D01*
X32702666Y-178804380D01*
X32797904Y-178756761D01*
X32845523Y-178709142D01*
X32893142Y-178613904D01*
X32893142Y-178423428D01*
X32845523Y-178328190D01*
X32797904Y-178280571D01*
X32702666Y-178232952D01*
X33274095Y-177899619D02*
X33321714Y-177852000D01*
X33416952Y-177804380D01*
X33655047Y-177804380D01*
X33750285Y-177852000D01*
X33797904Y-177899619D01*
X33845523Y-177994857D01*
X33845523Y-178090095D01*
X33797904Y-178232952D01*
X33226476Y-178804380D01*
X33845523Y-178804380D01*
X34416952Y-178232952D02*
X34321714Y-178185333D01*
X34274095Y-178137714D01*
X34226476Y-178042476D01*
X34226476Y-177994857D01*
X34274095Y-177899619D01*
X34321714Y-177852000D01*
X34416952Y-177804380D01*
X34607428Y-177804380D01*
X34702666Y-177852000D01*
X34750285Y-177899619D01*
X34797904Y-177994857D01*
X34797904Y-178042476D01*
X34750285Y-178137714D01*
X34702666Y-178185333D01*
X34607428Y-178232952D01*
X34416952Y-178232952D01*
X34321714Y-178280571D01*
X34274095Y-178328190D01*
X34226476Y-178423428D01*
X34226476Y-178613904D01*
X34274095Y-178709142D01*
X34321714Y-178756761D01*
X34416952Y-178804380D01*
X34607428Y-178804380D01*
X34702666Y-178756761D01*
X34750285Y-178709142D01*
X34797904Y-178613904D01*
X34797904Y-178423428D01*
X34750285Y-178328190D01*
X34702666Y-178280571D01*
X34607428Y-178232952D01*
X35655047Y-178137714D02*
X35655047Y-178804380D01*
X35416952Y-177756761D02*
X35178857Y-178471047D01*
X35797904Y-178471047D01*
G04 #@! TO.C,U12*
X51236952Y-149864380D02*
X51903619Y-149864380D01*
X51475047Y-150864380D01*
X52713142Y-150197714D02*
X52713142Y-150864380D01*
X52475047Y-149816761D02*
X52236952Y-150531047D01*
X52856000Y-150531047D01*
X53713142Y-150864380D02*
X53236952Y-150864380D01*
X53236952Y-149864380D01*
X53998857Y-150816761D02*
X54141714Y-150864380D01*
X54379809Y-150864380D01*
X54475047Y-150816761D01*
X54522666Y-150769142D01*
X54570285Y-150673904D01*
X54570285Y-150578666D01*
X54522666Y-150483428D01*
X54475047Y-150435809D01*
X54379809Y-150388190D01*
X54189333Y-150340571D01*
X54094095Y-150292952D01*
X54046476Y-150245333D01*
X53998857Y-150150095D01*
X53998857Y-150054857D01*
X54046476Y-149959619D01*
X54094095Y-149912000D01*
X54189333Y-149864380D01*
X54427428Y-149864380D01*
X54570285Y-149912000D01*
X55522666Y-150864380D02*
X54951238Y-150864380D01*
X55236952Y-150864380D02*
X55236952Y-149864380D01*
X55141714Y-150007238D01*
X55046476Y-150102476D01*
X54951238Y-150150095D01*
X55856000Y-149864380D02*
X56475047Y-149864380D01*
X56141714Y-150245333D01*
X56284571Y-150245333D01*
X56379809Y-150292952D01*
X56427428Y-150340571D01*
X56475047Y-150435809D01*
X56475047Y-150673904D01*
X56427428Y-150769142D01*
X56379809Y-150816761D01*
X56284571Y-150864380D01*
X55998857Y-150864380D01*
X55903619Y-150816761D01*
X55856000Y-150769142D01*
X57046476Y-150292952D02*
X56951238Y-150245333D01*
X56903619Y-150197714D01*
X56856000Y-150102476D01*
X56856000Y-150054857D01*
X56903619Y-149959619D01*
X56951238Y-149912000D01*
X57046476Y-149864380D01*
X57236952Y-149864380D01*
X57332190Y-149912000D01*
X57379809Y-149959619D01*
X57427428Y-150054857D01*
X57427428Y-150102476D01*
X57379809Y-150197714D01*
X57332190Y-150245333D01*
X57236952Y-150292952D01*
X57046476Y-150292952D01*
X56951238Y-150340571D01*
X56903619Y-150388190D01*
X56856000Y-150483428D01*
X56856000Y-150673904D01*
X56903619Y-150769142D01*
X56951238Y-150816761D01*
X57046476Y-150864380D01*
X57236952Y-150864380D01*
X57332190Y-150816761D01*
X57379809Y-150769142D01*
X57427428Y-150673904D01*
X57427428Y-150483428D01*
X57379809Y-150388190D01*
X57332190Y-150340571D01*
X57236952Y-150292952D01*
G04 #@! TO.C,U13*
X71556952Y-149864380D02*
X72223619Y-149864380D01*
X71795047Y-150864380D01*
X73033142Y-150197714D02*
X73033142Y-150864380D01*
X72795047Y-149816761D02*
X72556952Y-150531047D01*
X73176000Y-150531047D01*
X74033142Y-150864380D02*
X73556952Y-150864380D01*
X73556952Y-149864380D01*
X74318857Y-150816761D02*
X74461714Y-150864380D01*
X74699809Y-150864380D01*
X74795047Y-150816761D01*
X74842666Y-150769142D01*
X74890285Y-150673904D01*
X74890285Y-150578666D01*
X74842666Y-150483428D01*
X74795047Y-150435809D01*
X74699809Y-150388190D01*
X74509333Y-150340571D01*
X74414095Y-150292952D01*
X74366476Y-150245333D01*
X74318857Y-150150095D01*
X74318857Y-150054857D01*
X74366476Y-149959619D01*
X74414095Y-149912000D01*
X74509333Y-149864380D01*
X74747428Y-149864380D01*
X74890285Y-149912000D01*
X75842666Y-150864380D02*
X75271238Y-150864380D01*
X75556952Y-150864380D02*
X75556952Y-149864380D01*
X75461714Y-150007238D01*
X75366476Y-150102476D01*
X75271238Y-150150095D01*
X76176000Y-149864380D02*
X76795047Y-149864380D01*
X76461714Y-150245333D01*
X76604571Y-150245333D01*
X76699809Y-150292952D01*
X76747428Y-150340571D01*
X76795047Y-150435809D01*
X76795047Y-150673904D01*
X76747428Y-150769142D01*
X76699809Y-150816761D01*
X76604571Y-150864380D01*
X76318857Y-150864380D01*
X76223619Y-150816761D01*
X76176000Y-150769142D01*
X77366476Y-150292952D02*
X77271238Y-150245333D01*
X77223619Y-150197714D01*
X77176000Y-150102476D01*
X77176000Y-150054857D01*
X77223619Y-149959619D01*
X77271238Y-149912000D01*
X77366476Y-149864380D01*
X77556952Y-149864380D01*
X77652190Y-149912000D01*
X77699809Y-149959619D01*
X77747428Y-150054857D01*
X77747428Y-150102476D01*
X77699809Y-150197714D01*
X77652190Y-150245333D01*
X77556952Y-150292952D01*
X77366476Y-150292952D01*
X77271238Y-150340571D01*
X77223619Y-150388190D01*
X77176000Y-150483428D01*
X77176000Y-150673904D01*
X77223619Y-150769142D01*
X77271238Y-150816761D01*
X77366476Y-150864380D01*
X77556952Y-150864380D01*
X77652190Y-150816761D01*
X77699809Y-150769142D01*
X77747428Y-150673904D01*
X77747428Y-150483428D01*
X77699809Y-150388190D01*
X77652190Y-150340571D01*
X77556952Y-150292952D01*
G04 #@! TO.C,U14*
X51713142Y-175264380D02*
X52379809Y-175264380D01*
X51951238Y-176264380D01*
X53189333Y-175597714D02*
X53189333Y-176264380D01*
X52951238Y-175216761D02*
X52713142Y-175931047D01*
X53332190Y-175931047D01*
X54189333Y-176264380D02*
X53713142Y-176264380D01*
X53713142Y-175264380D01*
X54475047Y-176216761D02*
X54617904Y-176264380D01*
X54856000Y-176264380D01*
X54951238Y-176216761D01*
X54998857Y-176169142D01*
X55046476Y-176073904D01*
X55046476Y-175978666D01*
X54998857Y-175883428D01*
X54951238Y-175835809D01*
X54856000Y-175788190D01*
X54665523Y-175740571D01*
X54570285Y-175692952D01*
X54522666Y-175645333D01*
X54475047Y-175550095D01*
X54475047Y-175454857D01*
X54522666Y-175359619D01*
X54570285Y-175312000D01*
X54665523Y-175264380D01*
X54903619Y-175264380D01*
X55046476Y-175312000D01*
X55379809Y-175264380D02*
X56046476Y-175264380D01*
X55617904Y-176264380D01*
X56856000Y-175597714D02*
X56856000Y-176264380D01*
X56617904Y-175216761D02*
X56379809Y-175931047D01*
X56998857Y-175931047D01*
G04 #@! TO.C,U15*
X94416952Y-68584380D02*
X95083619Y-68584380D01*
X94655047Y-69584380D01*
X95893142Y-68917714D02*
X95893142Y-69584380D01*
X95655047Y-68536761D02*
X95416952Y-69251047D01*
X96036000Y-69251047D01*
X96893142Y-69584380D02*
X96416952Y-69584380D01*
X96416952Y-68584380D01*
X97178857Y-69536761D02*
X97321714Y-69584380D01*
X97559809Y-69584380D01*
X97655047Y-69536761D01*
X97702666Y-69489142D01*
X97750285Y-69393904D01*
X97750285Y-69298666D01*
X97702666Y-69203428D01*
X97655047Y-69155809D01*
X97559809Y-69108190D01*
X97369333Y-69060571D01*
X97274095Y-69012952D01*
X97226476Y-68965333D01*
X97178857Y-68870095D01*
X97178857Y-68774857D01*
X97226476Y-68679619D01*
X97274095Y-68632000D01*
X97369333Y-68584380D01*
X97607428Y-68584380D01*
X97750285Y-68632000D01*
X98655047Y-68584380D02*
X98178857Y-68584380D01*
X98131238Y-69060571D01*
X98178857Y-69012952D01*
X98274095Y-68965333D01*
X98512190Y-68965333D01*
X98607428Y-69012952D01*
X98655047Y-69060571D01*
X98702666Y-69155809D01*
X98702666Y-69393904D01*
X98655047Y-69489142D01*
X98607428Y-69536761D01*
X98512190Y-69584380D01*
X98274095Y-69584380D01*
X98178857Y-69536761D01*
X98131238Y-69489142D01*
X99036000Y-68584380D02*
X99702666Y-68584380D01*
X99274095Y-69584380D01*
X99988380Y-68584380D02*
X100607428Y-68584380D01*
X100274095Y-68965333D01*
X100416952Y-68965333D01*
X100512190Y-69012952D01*
X100559809Y-69060571D01*
X100607428Y-69155809D01*
X100607428Y-69393904D01*
X100559809Y-69489142D01*
X100512190Y-69536761D01*
X100416952Y-69584380D01*
X100131238Y-69584380D01*
X100036000Y-69536761D01*
X99988380Y-69489142D01*
G04 #@! TO.C,U16*
X92353142Y-147324380D02*
X93019809Y-147324380D01*
X92591238Y-148324380D01*
X93829333Y-147657714D02*
X93829333Y-148324380D01*
X93591238Y-147276761D02*
X93353142Y-147991047D01*
X93972190Y-147991047D01*
X94829333Y-148324380D02*
X94353142Y-148324380D01*
X94353142Y-147324380D01*
X95115047Y-148276761D02*
X95257904Y-148324380D01*
X95496000Y-148324380D01*
X95591238Y-148276761D01*
X95638857Y-148229142D01*
X95686476Y-148133904D01*
X95686476Y-148038666D01*
X95638857Y-147943428D01*
X95591238Y-147895809D01*
X95496000Y-147848190D01*
X95305523Y-147800571D01*
X95210285Y-147752952D01*
X95162666Y-147705333D01*
X95115047Y-147610095D01*
X95115047Y-147514857D01*
X95162666Y-147419619D01*
X95210285Y-147372000D01*
X95305523Y-147324380D01*
X95543619Y-147324380D01*
X95686476Y-147372000D01*
X96305523Y-147324380D02*
X96400761Y-147324380D01*
X96496000Y-147372000D01*
X96543619Y-147419619D01*
X96591238Y-147514857D01*
X96638857Y-147705333D01*
X96638857Y-147943428D01*
X96591238Y-148133904D01*
X96543619Y-148229142D01*
X96496000Y-148276761D01*
X96400761Y-148324380D01*
X96305523Y-148324380D01*
X96210285Y-148276761D01*
X96162666Y-148229142D01*
X96115047Y-148133904D01*
X96067428Y-147943428D01*
X96067428Y-147705333D01*
X96115047Y-147514857D01*
X96162666Y-147419619D01*
X96210285Y-147372000D01*
X96305523Y-147324380D01*
X97496000Y-147657714D02*
X97496000Y-148324380D01*
X97257904Y-147276761D02*
X97019809Y-147991047D01*
X97638857Y-147991047D01*
G04 #@! TO.C,Y2*
X40187619Y-154403523D02*
X40187619Y-153832095D01*
X40187619Y-154117809D02*
X41187619Y-154117809D01*
X41044761Y-154022571D01*
X40949523Y-153927333D01*
X40901904Y-153832095D01*
X40854285Y-155260666D02*
X40187619Y-155260666D01*
X41235238Y-155022571D02*
X40520952Y-154784476D01*
X40520952Y-155403523D01*
X40282857Y-155784476D02*
X40235238Y-155832095D01*
X40187619Y-155784476D01*
X40235238Y-155736857D01*
X40282857Y-155784476D01*
X40187619Y-155784476D01*
X41187619Y-156165428D02*
X41187619Y-156784476D01*
X40806666Y-156451142D01*
X40806666Y-156594000D01*
X40759047Y-156689238D01*
X40711428Y-156736857D01*
X40616190Y-156784476D01*
X40378095Y-156784476D01*
X40282857Y-156736857D01*
X40235238Y-156689238D01*
X40187619Y-156594000D01*
X40187619Y-156308285D01*
X40235238Y-156213047D01*
X40282857Y-156165428D01*
X40187619Y-157736857D02*
X40187619Y-157165428D01*
X40187619Y-157451142D02*
X41187619Y-157451142D01*
X41044761Y-157355904D01*
X40949523Y-157260666D01*
X40901904Y-157165428D01*
X40759047Y-158308285D02*
X40806666Y-158213047D01*
X40854285Y-158165428D01*
X40949523Y-158117809D01*
X40997142Y-158117809D01*
X41092380Y-158165428D01*
X41140000Y-158213047D01*
X41187619Y-158308285D01*
X41187619Y-158498761D01*
X41140000Y-158594000D01*
X41092380Y-158641619D01*
X40997142Y-158689238D01*
X40949523Y-158689238D01*
X40854285Y-158641619D01*
X40806666Y-158594000D01*
X40759047Y-158498761D01*
X40759047Y-158308285D01*
X40711428Y-158213047D01*
X40663809Y-158165428D01*
X40568571Y-158117809D01*
X40378095Y-158117809D01*
X40282857Y-158165428D01*
X40235238Y-158213047D01*
X40187619Y-158308285D01*
X40187619Y-158498761D01*
X40235238Y-158594000D01*
X40282857Y-158641619D01*
X40378095Y-158689238D01*
X40568571Y-158689238D01*
X40663809Y-158641619D01*
X40711428Y-158594000D01*
X40759047Y-158498761D01*
X40187619Y-159641619D02*
X40187619Y-159070190D01*
X40187619Y-159355904D02*
X41187619Y-159355904D01*
X41044761Y-159260666D01*
X40949523Y-159165428D01*
X40901904Y-159070190D01*
X40759047Y-160213047D02*
X40806666Y-160117809D01*
X40854285Y-160070190D01*
X40949523Y-160022571D01*
X40997142Y-160022571D01*
X41092380Y-160070190D01*
X41140000Y-160117809D01*
X41187619Y-160213047D01*
X41187619Y-160403523D01*
X41140000Y-160498761D01*
X41092380Y-160546380D01*
X40997142Y-160594000D01*
X40949523Y-160594000D01*
X40854285Y-160546380D01*
X40806666Y-160498761D01*
X40759047Y-160403523D01*
X40759047Y-160213047D01*
X40711428Y-160117809D01*
X40663809Y-160070190D01*
X40568571Y-160022571D01*
X40378095Y-160022571D01*
X40282857Y-160070190D01*
X40235238Y-160117809D01*
X40187619Y-160213047D01*
X40187619Y-160403523D01*
X40235238Y-160498761D01*
X40282857Y-160546380D01*
X40378095Y-160594000D01*
X40568571Y-160594000D01*
X40663809Y-160546380D01*
X40711428Y-160498761D01*
X40759047Y-160403523D01*
X40187619Y-161784476D02*
X41187619Y-161784476D01*
X40473333Y-162117809D01*
X41187619Y-162451142D01*
X40187619Y-162451142D01*
X40187619Y-162927333D02*
X41187619Y-162927333D01*
X40711428Y-162927333D02*
X40711428Y-163498761D01*
X40187619Y-163498761D02*
X41187619Y-163498761D01*
X40854285Y-163879714D02*
X40854285Y-164403523D01*
X40187619Y-163879714D01*
X40187619Y-164403523D01*
G04 #@! TO.C,U19*
X114427619Y-65462952D02*
X114332380Y-65415333D01*
X114284761Y-65367714D01*
X114237142Y-65272476D01*
X114237142Y-65224857D01*
X114284761Y-65129619D01*
X114332380Y-65082000D01*
X114427619Y-65034380D01*
X114618095Y-65034380D01*
X114713333Y-65082000D01*
X114760952Y-65129619D01*
X114808571Y-65224857D01*
X114808571Y-65272476D01*
X114760952Y-65367714D01*
X114713333Y-65415333D01*
X114618095Y-65462952D01*
X114427619Y-65462952D01*
X114332380Y-65510571D01*
X114284761Y-65558190D01*
X114237142Y-65653428D01*
X114237142Y-65843904D01*
X114284761Y-65939142D01*
X114332380Y-65986761D01*
X114427619Y-66034380D01*
X114618095Y-66034380D01*
X114713333Y-65986761D01*
X114760952Y-65939142D01*
X114808571Y-65843904D01*
X114808571Y-65653428D01*
X114760952Y-65558190D01*
X114713333Y-65510571D01*
X114618095Y-65462952D01*
X115189523Y-65129619D02*
X115237142Y-65082000D01*
X115332380Y-65034380D01*
X115570476Y-65034380D01*
X115665714Y-65082000D01*
X115713333Y-65129619D01*
X115760952Y-65224857D01*
X115760952Y-65320095D01*
X115713333Y-65462952D01*
X115141904Y-66034380D01*
X115760952Y-66034380D01*
X116760952Y-65939142D02*
X116713333Y-65986761D01*
X116570476Y-66034380D01*
X116475238Y-66034380D01*
X116332380Y-65986761D01*
X116237142Y-65891523D01*
X116189523Y-65796285D01*
X116141904Y-65605809D01*
X116141904Y-65462952D01*
X116189523Y-65272476D01*
X116237142Y-65177238D01*
X116332380Y-65082000D01*
X116475238Y-65034380D01*
X116570476Y-65034380D01*
X116713333Y-65082000D01*
X116760952Y-65129619D01*
X117618095Y-65367714D02*
X117618095Y-66034380D01*
X117380000Y-64986761D02*
X117141904Y-65701047D01*
X117760952Y-65701047D01*
X118094285Y-65129619D02*
X118141904Y-65082000D01*
X118237142Y-65034380D01*
X118475238Y-65034380D01*
X118570476Y-65082000D01*
X118618095Y-65129619D01*
X118665714Y-65224857D01*
X118665714Y-65320095D01*
X118618095Y-65462952D01*
X118046666Y-66034380D01*
X118665714Y-66034380D01*
X119808571Y-64986761D02*
X118951428Y-66272476D01*
X120284761Y-65462952D02*
X120189523Y-65415333D01*
X120141904Y-65367714D01*
X120094285Y-65272476D01*
X120094285Y-65224857D01*
X120141904Y-65129619D01*
X120189523Y-65082000D01*
X120284761Y-65034380D01*
X120475238Y-65034380D01*
X120570476Y-65082000D01*
X120618095Y-65129619D01*
X120665714Y-65224857D01*
X120665714Y-65272476D01*
X120618095Y-65367714D01*
X120570476Y-65415333D01*
X120475238Y-65462952D01*
X120284761Y-65462952D01*
X120189523Y-65510571D01*
X120141904Y-65558190D01*
X120094285Y-65653428D01*
X120094285Y-65843904D01*
X120141904Y-65939142D01*
X120189523Y-65986761D01*
X120284761Y-66034380D01*
X120475238Y-66034380D01*
X120570476Y-65986761D01*
X120618095Y-65939142D01*
X120665714Y-65843904D01*
X120665714Y-65653428D01*
X120618095Y-65558190D01*
X120570476Y-65510571D01*
X120475238Y-65462952D01*
X120999047Y-65034380D02*
X121618095Y-65034380D01*
X121284761Y-65415333D01*
X121427619Y-65415333D01*
X121522857Y-65462952D01*
X121570476Y-65510571D01*
X121618095Y-65605809D01*
X121618095Y-65843904D01*
X121570476Y-65939142D01*
X121522857Y-65986761D01*
X121427619Y-66034380D01*
X121141904Y-66034380D01*
X121046666Y-65986761D01*
X120999047Y-65939142D01*
X122618095Y-65939142D02*
X122570476Y-65986761D01*
X122427619Y-66034380D01*
X122332380Y-66034380D01*
X122189523Y-65986761D01*
X122094285Y-65891523D01*
X122046666Y-65796285D01*
X121999047Y-65605809D01*
X121999047Y-65462952D01*
X122046666Y-65272476D01*
X122094285Y-65177238D01*
X122189523Y-65082000D01*
X122332380Y-65034380D01*
X122427619Y-65034380D01*
X122570476Y-65082000D01*
X122618095Y-65129619D01*
X123475238Y-65367714D02*
X123475238Y-66034380D01*
X123237142Y-64986761D02*
X122999047Y-65701047D01*
X123618095Y-65701047D01*
X123951428Y-65129619D02*
X123999047Y-65082000D01*
X124094285Y-65034380D01*
X124332380Y-65034380D01*
X124427619Y-65082000D01*
X124475238Y-65129619D01*
X124522857Y-65224857D01*
X124522857Y-65320095D01*
X124475238Y-65462952D01*
X123903809Y-66034380D01*
X124522857Y-66034380D01*
G04 #@! TO.C,U20*
X94893142Y-93984380D02*
X95559809Y-93984380D01*
X95131238Y-94984380D01*
X96369333Y-94317714D02*
X96369333Y-94984380D01*
X96131238Y-93936761D02*
X95893142Y-94651047D01*
X96512190Y-94651047D01*
X97369333Y-94984380D02*
X96893142Y-94984380D01*
X96893142Y-93984380D01*
X97655047Y-94936761D02*
X97797904Y-94984380D01*
X98036000Y-94984380D01*
X98131238Y-94936761D01*
X98178857Y-94889142D01*
X98226476Y-94793904D01*
X98226476Y-94698666D01*
X98178857Y-94603428D01*
X98131238Y-94555809D01*
X98036000Y-94508190D01*
X97845523Y-94460571D01*
X97750285Y-94412952D01*
X97702666Y-94365333D01*
X97655047Y-94270095D01*
X97655047Y-94174857D01*
X97702666Y-94079619D01*
X97750285Y-94032000D01*
X97845523Y-93984380D01*
X98083619Y-93984380D01*
X98226476Y-94032000D01*
X98845523Y-93984380D02*
X98940761Y-93984380D01*
X99036000Y-94032000D01*
X99083619Y-94079619D01*
X99131238Y-94174857D01*
X99178857Y-94365333D01*
X99178857Y-94603428D01*
X99131238Y-94793904D01*
X99083619Y-94889142D01*
X99036000Y-94936761D01*
X98940761Y-94984380D01*
X98845523Y-94984380D01*
X98750285Y-94936761D01*
X98702666Y-94889142D01*
X98655047Y-94793904D01*
X98607428Y-94603428D01*
X98607428Y-94365333D01*
X98655047Y-94174857D01*
X98702666Y-94079619D01*
X98750285Y-94032000D01*
X98845523Y-93984380D01*
X99512190Y-93984380D02*
X100178857Y-93984380D01*
X99750285Y-94984380D01*
G04 #@! TO.C,C1*
X33663142Y-126452380D02*
X33758380Y-126452380D01*
X33853619Y-126500000D01*
X33901238Y-126547619D01*
X33948857Y-126642857D01*
X33996476Y-126833333D01*
X33996476Y-127071428D01*
X33948857Y-127261904D01*
X33901238Y-127357142D01*
X33853619Y-127404761D01*
X33758380Y-127452380D01*
X33663142Y-127452380D01*
X33567904Y-127404761D01*
X33520285Y-127357142D01*
X33472666Y-127261904D01*
X33425047Y-127071428D01*
X33425047Y-126833333D01*
X33472666Y-126642857D01*
X33520285Y-126547619D01*
X33567904Y-126500000D01*
X33663142Y-126452380D01*
X34425047Y-127357142D02*
X34472666Y-127404761D01*
X34425047Y-127452380D01*
X34377428Y-127404761D01*
X34425047Y-127357142D01*
X34425047Y-127452380D01*
X35425047Y-127452380D02*
X34853619Y-127452380D01*
X35139333Y-127452380D02*
X35139333Y-126452380D01*
X35044095Y-126595238D01*
X34948857Y-126690476D01*
X34853619Y-126738095D01*
X36282190Y-126785714D02*
X36282190Y-127452380D01*
X35853619Y-126785714D02*
X35853619Y-127309523D01*
X35901238Y-127404761D01*
X35996476Y-127452380D01*
X36139333Y-127452380D01*
X36234571Y-127404761D01*
X36282190Y-127357142D01*
X37091714Y-126928571D02*
X36758380Y-126928571D01*
X36758380Y-127452380D02*
X36758380Y-126452380D01*
X37234571Y-126452380D01*
G04 #@! TO.C,C2*
X53983142Y-124420380D02*
X54078380Y-124420380D01*
X54173619Y-124468000D01*
X54221238Y-124515619D01*
X54268857Y-124610857D01*
X54316476Y-124801333D01*
X54316476Y-125039428D01*
X54268857Y-125229904D01*
X54221238Y-125325142D01*
X54173619Y-125372761D01*
X54078380Y-125420380D01*
X53983142Y-125420380D01*
X53887904Y-125372761D01*
X53840285Y-125325142D01*
X53792666Y-125229904D01*
X53745047Y-125039428D01*
X53745047Y-124801333D01*
X53792666Y-124610857D01*
X53840285Y-124515619D01*
X53887904Y-124468000D01*
X53983142Y-124420380D01*
X54745047Y-125325142D02*
X54792666Y-125372761D01*
X54745047Y-125420380D01*
X54697428Y-125372761D01*
X54745047Y-125325142D01*
X54745047Y-125420380D01*
X55745047Y-125420380D02*
X55173619Y-125420380D01*
X55459333Y-125420380D02*
X55459333Y-124420380D01*
X55364095Y-124563238D01*
X55268857Y-124658476D01*
X55173619Y-124706095D01*
X56602190Y-124753714D02*
X56602190Y-125420380D01*
X56173619Y-124753714D02*
X56173619Y-125277523D01*
X56221238Y-125372761D01*
X56316476Y-125420380D01*
X56459333Y-125420380D01*
X56554571Y-125372761D01*
X56602190Y-125325142D01*
X57411714Y-124896571D02*
X57078380Y-124896571D01*
X57078380Y-125420380D02*
X57078380Y-124420380D01*
X57554571Y-124420380D01*
G04 #@! TO.C,C3*
X94663142Y-152360380D02*
X94758380Y-152360380D01*
X94853619Y-152408000D01*
X94901238Y-152455619D01*
X94948857Y-152550857D01*
X94996476Y-152741333D01*
X94996476Y-152979428D01*
X94948857Y-153169904D01*
X94901238Y-153265142D01*
X94853619Y-153312761D01*
X94758380Y-153360380D01*
X94663142Y-153360380D01*
X94567904Y-153312761D01*
X94520285Y-153265142D01*
X94472666Y-153169904D01*
X94425047Y-152979428D01*
X94425047Y-152741333D01*
X94472666Y-152550857D01*
X94520285Y-152455619D01*
X94567904Y-152408000D01*
X94663142Y-152360380D01*
X95425047Y-153265142D02*
X95472666Y-153312761D01*
X95425047Y-153360380D01*
X95377428Y-153312761D01*
X95425047Y-153265142D01*
X95425047Y-153360380D01*
X96425047Y-153360380D02*
X95853619Y-153360380D01*
X96139333Y-153360380D02*
X96139333Y-152360380D01*
X96044095Y-152503238D01*
X95948857Y-152598476D01*
X95853619Y-152646095D01*
X97282190Y-152693714D02*
X97282190Y-153360380D01*
X96853619Y-152693714D02*
X96853619Y-153217523D01*
X96901238Y-153312761D01*
X96996476Y-153360380D01*
X97139333Y-153360380D01*
X97234571Y-153312761D01*
X97282190Y-153265142D01*
X98091714Y-152836571D02*
X97758380Y-152836571D01*
X97758380Y-153360380D02*
X97758380Y-152360380D01*
X98234571Y-152360380D01*
G04 #@! TO.C,C4*
X54023142Y-152360380D02*
X54118380Y-152360380D01*
X54213619Y-152408000D01*
X54261238Y-152455619D01*
X54308857Y-152550857D01*
X54356476Y-152741333D01*
X54356476Y-152979428D01*
X54308857Y-153169904D01*
X54261238Y-153265142D01*
X54213619Y-153312761D01*
X54118380Y-153360380D01*
X54023142Y-153360380D01*
X53927904Y-153312761D01*
X53880285Y-153265142D01*
X53832666Y-153169904D01*
X53785047Y-152979428D01*
X53785047Y-152741333D01*
X53832666Y-152550857D01*
X53880285Y-152455619D01*
X53927904Y-152408000D01*
X54023142Y-152360380D01*
X54785047Y-153265142D02*
X54832666Y-153312761D01*
X54785047Y-153360380D01*
X54737428Y-153312761D01*
X54785047Y-153265142D01*
X54785047Y-153360380D01*
X55785047Y-153360380D02*
X55213619Y-153360380D01*
X55499333Y-153360380D02*
X55499333Y-152360380D01*
X55404095Y-152503238D01*
X55308857Y-152598476D01*
X55213619Y-152646095D01*
X56642190Y-152693714D02*
X56642190Y-153360380D01*
X56213619Y-152693714D02*
X56213619Y-153217523D01*
X56261238Y-153312761D01*
X56356476Y-153360380D01*
X56499333Y-153360380D01*
X56594571Y-153312761D01*
X56642190Y-153265142D01*
X57451714Y-152836571D02*
X57118380Y-152836571D01*
X57118380Y-153360380D02*
X57118380Y-152360380D01*
X57594571Y-152360380D01*
G04 #@! TO.C,C5*
X94663142Y-124420380D02*
X94758380Y-124420380D01*
X94853619Y-124468000D01*
X94901238Y-124515619D01*
X94948857Y-124610857D01*
X94996476Y-124801333D01*
X94996476Y-125039428D01*
X94948857Y-125229904D01*
X94901238Y-125325142D01*
X94853619Y-125372761D01*
X94758380Y-125420380D01*
X94663142Y-125420380D01*
X94567904Y-125372761D01*
X94520285Y-125325142D01*
X94472666Y-125229904D01*
X94425047Y-125039428D01*
X94425047Y-124801333D01*
X94472666Y-124610857D01*
X94520285Y-124515619D01*
X94567904Y-124468000D01*
X94663142Y-124420380D01*
X95425047Y-125325142D02*
X95472666Y-125372761D01*
X95425047Y-125420380D01*
X95377428Y-125372761D01*
X95425047Y-125325142D01*
X95425047Y-125420380D01*
X96425047Y-125420380D02*
X95853619Y-125420380D01*
X96139333Y-125420380D02*
X96139333Y-124420380D01*
X96044095Y-124563238D01*
X95948857Y-124658476D01*
X95853619Y-124706095D01*
X97282190Y-124753714D02*
X97282190Y-125420380D01*
X96853619Y-124753714D02*
X96853619Y-125277523D01*
X96901238Y-125372761D01*
X96996476Y-125420380D01*
X97139333Y-125420380D01*
X97234571Y-125372761D01*
X97282190Y-125325142D01*
X98091714Y-124896571D02*
X97758380Y-124896571D01*
X97758380Y-125420380D02*
X97758380Y-124420380D01*
X98234571Y-124420380D01*
G04 #@! TO.C,C6*
X74303142Y-152360380D02*
X74398380Y-152360380D01*
X74493619Y-152408000D01*
X74541238Y-152455619D01*
X74588857Y-152550857D01*
X74636476Y-152741333D01*
X74636476Y-152979428D01*
X74588857Y-153169904D01*
X74541238Y-153265142D01*
X74493619Y-153312761D01*
X74398380Y-153360380D01*
X74303142Y-153360380D01*
X74207904Y-153312761D01*
X74160285Y-153265142D01*
X74112666Y-153169904D01*
X74065047Y-152979428D01*
X74065047Y-152741333D01*
X74112666Y-152550857D01*
X74160285Y-152455619D01*
X74207904Y-152408000D01*
X74303142Y-152360380D01*
X75065047Y-153265142D02*
X75112666Y-153312761D01*
X75065047Y-153360380D01*
X75017428Y-153312761D01*
X75065047Y-153265142D01*
X75065047Y-153360380D01*
X76065047Y-153360380D02*
X75493619Y-153360380D01*
X75779333Y-153360380D02*
X75779333Y-152360380D01*
X75684095Y-152503238D01*
X75588857Y-152598476D01*
X75493619Y-152646095D01*
X76922190Y-152693714D02*
X76922190Y-153360380D01*
X76493619Y-152693714D02*
X76493619Y-153217523D01*
X76541238Y-153312761D01*
X76636476Y-153360380D01*
X76779333Y-153360380D01*
X76874571Y-153312761D01*
X76922190Y-153265142D01*
X77731714Y-152836571D02*
X77398380Y-152836571D01*
X77398380Y-153360380D02*
X77398380Y-152360380D01*
X77874571Y-152360380D01*
G04 #@! TO.C,C8*
X74343142Y-124420380D02*
X74438380Y-124420380D01*
X74533619Y-124468000D01*
X74581238Y-124515619D01*
X74628857Y-124610857D01*
X74676476Y-124801333D01*
X74676476Y-125039428D01*
X74628857Y-125229904D01*
X74581238Y-125325142D01*
X74533619Y-125372761D01*
X74438380Y-125420380D01*
X74343142Y-125420380D01*
X74247904Y-125372761D01*
X74200285Y-125325142D01*
X74152666Y-125229904D01*
X74105047Y-125039428D01*
X74105047Y-124801333D01*
X74152666Y-124610857D01*
X74200285Y-124515619D01*
X74247904Y-124468000D01*
X74343142Y-124420380D01*
X75105047Y-125325142D02*
X75152666Y-125372761D01*
X75105047Y-125420380D01*
X75057428Y-125372761D01*
X75105047Y-125325142D01*
X75105047Y-125420380D01*
X76105047Y-125420380D02*
X75533619Y-125420380D01*
X75819333Y-125420380D02*
X75819333Y-124420380D01*
X75724095Y-124563238D01*
X75628857Y-124658476D01*
X75533619Y-124706095D01*
X76962190Y-124753714D02*
X76962190Y-125420380D01*
X76533619Y-124753714D02*
X76533619Y-125277523D01*
X76581238Y-125372761D01*
X76676476Y-125420380D01*
X76819333Y-125420380D01*
X76914571Y-125372761D01*
X76962190Y-125325142D01*
X77771714Y-124896571D02*
X77438380Y-124896571D01*
X77438380Y-125420380D02*
X77438380Y-124420380D01*
X77914571Y-124420380D01*
G04 #@! TO.C,C12*
X33703142Y-151852380D02*
X33798380Y-151852380D01*
X33893619Y-151900000D01*
X33941238Y-151947619D01*
X33988857Y-152042857D01*
X34036476Y-152233333D01*
X34036476Y-152471428D01*
X33988857Y-152661904D01*
X33941238Y-152757142D01*
X33893619Y-152804761D01*
X33798380Y-152852380D01*
X33703142Y-152852380D01*
X33607904Y-152804761D01*
X33560285Y-152757142D01*
X33512666Y-152661904D01*
X33465047Y-152471428D01*
X33465047Y-152233333D01*
X33512666Y-152042857D01*
X33560285Y-151947619D01*
X33607904Y-151900000D01*
X33703142Y-151852380D01*
X34465047Y-152757142D02*
X34512666Y-152804761D01*
X34465047Y-152852380D01*
X34417428Y-152804761D01*
X34465047Y-152757142D01*
X34465047Y-152852380D01*
X35465047Y-152852380D02*
X34893619Y-152852380D01*
X35179333Y-152852380D02*
X35179333Y-151852380D01*
X35084095Y-151995238D01*
X34988857Y-152090476D01*
X34893619Y-152138095D01*
X36322190Y-152185714D02*
X36322190Y-152852380D01*
X35893619Y-152185714D02*
X35893619Y-152709523D01*
X35941238Y-152804761D01*
X36036476Y-152852380D01*
X36179333Y-152852380D01*
X36274571Y-152804761D01*
X36322190Y-152757142D01*
X37131714Y-152328571D02*
X36798380Y-152328571D01*
X36798380Y-152852380D02*
X36798380Y-151852380D01*
X37274571Y-151852380D01*
G04 #@! TD*
M02*
