G04 #@! TF.GenerationSoftware,KiCad,Pcbnew,(5.1.8)-1*
G04 #@! TF.CreationDate,2022-05-28T15:46:18-06:00*
G04 #@! TF.ProjectId,Multi,4d756c74-692e-46b6-9963-61645f706362,rev?*
G04 #@! TF.SameCoordinates,Original*
G04 #@! TF.FileFunction,Copper,L2,Bot*
G04 #@! TF.FilePolarity,Positive*
%FSLAX46Y46*%
G04 Gerber Fmt 4.6, Leading zero omitted, Abs format (unit mm)*
G04 Created by KiCad (PCBNEW (5.1.8)-1) date 2022-05-28 15:46:18*
%MOMM*%
%LPD*%
G01*
G04 APERTURE LIST*
G04 #@! TA.AperFunction,ComponentPad*
%ADD10O,1.600000X1.600000*%
G04 #@! TD*
G04 #@! TA.AperFunction,ComponentPad*
%ADD11R,1.600000X1.600000*%
G04 #@! TD*
G04 #@! TA.AperFunction,ComponentPad*
%ADD12C,1.600000*%
G04 #@! TD*
G04 #@! TA.AperFunction,ComponentPad*
%ADD13C,4.826000*%
G04 #@! TD*
G04 #@! TA.AperFunction,ComponentPad*
%ADD14C,1.524000*%
G04 #@! TD*
G04 #@! TA.AperFunction,ComponentPad*
%ADD15O,1.700000X1.700000*%
G04 #@! TD*
G04 #@! TA.AperFunction,ComponentPad*
%ADD16R,1.700000X1.700000*%
G04 #@! TD*
G04 #@! TA.AperFunction,ComponentPad*
%ADD17R,1.524000X1.524000*%
G04 #@! TD*
G04 #@! TA.AperFunction,ComponentPad*
%ADD18C,2.000000*%
G04 #@! TD*
G04 #@! TA.AperFunction,ComponentPad*
%ADD19C,1.800000*%
G04 #@! TD*
G04 #@! TA.AperFunction,ComponentPad*
%ADD20R,1.800000X1.800000*%
G04 #@! TD*
G04 #@! TA.AperFunction,ComponentPad*
%ADD21C,2.590800*%
G04 #@! TD*
G04 #@! TA.AperFunction,ComponentPad*
%ADD22C,2.794000*%
G04 #@! TD*
G04 #@! TA.AperFunction,ComponentPad*
%ADD23C,3.302000*%
G04 #@! TD*
G04 #@! TA.AperFunction,ComponentPad*
%ADD24C,1.500000*%
G04 #@! TD*
G04 #@! TA.AperFunction,ComponentPad*
%ADD25R,1.422400X1.422400*%
G04 #@! TD*
G04 #@! TA.AperFunction,ComponentPad*
%ADD26C,1.422400*%
G04 #@! TD*
G04 #@! TA.AperFunction,ViaPad*
%ADD27C,0.800000*%
G04 #@! TD*
G04 #@! TA.AperFunction,Conductor*
%ADD28C,0.330200*%
G04 #@! TD*
G04 #@! TA.AperFunction,Conductor*
%ADD29C,0.250000*%
G04 #@! TD*
G04 #@! TA.AperFunction,Conductor*
%ADD30C,0.635000*%
G04 #@! TD*
G04 #@! TA.AperFunction,Conductor*
%ADD31C,0.304800*%
G04 #@! TD*
G04 APERTURE END LIST*
D10*
G04 #@! TO.P,U2,20*
G04 #@! TO.N,/5+*
X111506000Y-43942000D03*
G04 #@! TO.P,U2,10*
G04 #@! TO.N,/GND*
X103886000Y-66802000D03*
G04 #@! TO.P,U2,19*
G04 #@! TO.N,/PORT_61_RD*
X111506000Y-46482000D03*
G04 #@! TO.P,U2,9*
G04 #@! TO.N,/D0*
X103886000Y-64262000D03*
G04 #@! TO.P,U2,18*
G04 #@! TO.N,/PORT_61_7*
X111506000Y-49022000D03*
G04 #@! TO.P,U2,8*
G04 #@! TO.N,/D1*
X103886000Y-61722000D03*
G04 #@! TO.P,U2,17*
G04 #@! TO.N,/PORT_61_6*
X111506000Y-51562000D03*
G04 #@! TO.P,U2,7*
G04 #@! TO.N,/D2*
X103886000Y-59182000D03*
G04 #@! TO.P,U2,16*
G04 #@! TO.N,/NMI_EN*
X111506000Y-54102000D03*
G04 #@! TO.P,U2,6*
G04 #@! TO.N,/D3*
X103886000Y-56642000D03*
G04 #@! TO.P,U2,15*
G04 #@! TO.N,/PORT_61_4*
X111506000Y-56642000D03*
G04 #@! TO.P,U2,5*
G04 #@! TO.N,/D4*
X103886000Y-54102000D03*
G04 #@! TO.P,U2,14*
G04 #@! TO.N,/PORT_61_3*
X111506000Y-59182000D03*
G04 #@! TO.P,U2,4*
G04 #@! TO.N,/D5*
X103886000Y-51562000D03*
G04 #@! TO.P,U2,13*
G04 #@! TO.N,/PORT_61_2*
X111506000Y-61722000D03*
G04 #@! TO.P,U2,3*
G04 #@! TO.N,/D6*
X103886000Y-49022000D03*
G04 #@! TO.P,U2,12*
G04 #@! TO.N,/SPK_EN*
X111506000Y-64262000D03*
G04 #@! TO.P,U2,2*
G04 #@! TO.N,/D7*
X103886000Y-46482000D03*
G04 #@! TO.P,U2,11*
G04 #@! TO.N,/SPK_GO*
X111506000Y-66802000D03*
D11*
G04 #@! TO.P,U2,1*
G04 #@! TO.N,/GND*
X103886000Y-43942000D03*
G04 #@! TD*
D12*
G04 #@! TO.P,C13,2*
G04 #@! TO.N,/5+*
X119126000Y-154940000D03*
G04 #@! TO.P,C13,1*
G04 #@! TO.N,/GND*
X114126000Y-154940000D03*
G04 #@! TD*
G04 #@! TO.P,C11,2*
G04 #@! TO.N,/5+*
X111506000Y-40640000D03*
G04 #@! TO.P,C11,1*
G04 #@! TO.N,/GND*
X106506000Y-40640000D03*
G04 #@! TD*
D10*
G04 #@! TO.P,RN3,4*
G04 #@! TO.N,/DRQ0*
X124460000Y-139192000D03*
G04 #@! TO.P,RN3,3*
G04 #@! TO.N,/HOLD*
X124460000Y-136652000D03*
G04 #@! TO.P,RN3,2*
G04 #@! TO.N,/NMI_EN*
X124460000Y-134112000D03*
D11*
G04 #@! TO.P,RN3,1*
G04 #@! TO.N,/GND*
X124460000Y-131572000D03*
G04 #@! TD*
D10*
G04 #@! TO.P,U1,16*
G04 #@! TO.N,/5+*
X119126000Y-158242000D03*
G04 #@! TO.P,U1,8*
G04 #@! TO.N,/GND*
X111506000Y-176022000D03*
G04 #@! TO.P,U1,15*
G04 #@! TO.N,/IO_0061*
X119126000Y-160782000D03*
G04 #@! TO.P,U1,7*
G04 #@! TO.N,Net-(U1-Pad7)*
X111506000Y-173482000D03*
G04 #@! TO.P,U1,14*
G04 #@! TO.N,/IORD*
X119126000Y-163322000D03*
G04 #@! TO.P,U1,6*
G04 #@! TO.N,Net-(U1-Pad6)*
X111506000Y-170942000D03*
G04 #@! TO.P,U1,13*
G04 #@! TO.N,/GND*
X119126000Y-165862000D03*
G04 #@! TO.P,U1,5*
G04 #@! TO.N,Net-(U1-Pad5)*
X111506000Y-168402000D03*
G04 #@! TO.P,U1,12*
G04 #@! TO.N,/PORT_61_RD*
X119126000Y-168402000D03*
G04 #@! TO.P,U1,4*
G04 #@! TO.N,/PORT_0X61_EN*
X111506000Y-165862000D03*
G04 #@! TO.P,U1,11*
G04 #@! TO.N,Net-(U1-Pad11)*
X119126000Y-170942000D03*
G04 #@! TO.P,U1,3*
G04 #@! TO.N,/GND*
X111506000Y-163322000D03*
G04 #@! TO.P,U1,10*
G04 #@! TO.N,Net-(U1-Pad10)*
X119126000Y-173482000D03*
G04 #@! TO.P,U1,2*
G04 #@! TO.N,/IOWR*
X111506000Y-160782000D03*
G04 #@! TO.P,U1,9*
G04 #@! TO.N,Net-(U1-Pad9)*
X119126000Y-176022000D03*
D11*
G04 #@! TO.P,U1,1*
G04 #@! TO.N,/IO_0061*
X111506000Y-158242000D03*
G04 #@! TD*
D13*
G04 #@! TO.P,REF\u002A\u002A,*
G04 #@! TO.N,/GND*
X97536000Y-183642000D03*
G04 #@! TD*
D10*
G04 #@! TO.P,RN1,4*
G04 #@! TO.N,/DRQ2*
X37338000Y-32004000D03*
G04 #@! TO.P,RN1,3*
G04 #@! TO.N,/DRQ3*
X34798000Y-32004000D03*
G04 #@! TO.P,RN1,2*
G04 #@! TO.N,/DRQ1*
X32258000Y-32004000D03*
D11*
G04 #@! TO.P,RN1,1*
G04 #@! TO.N,/GND*
X29718000Y-32004000D03*
G04 #@! TD*
D10*
G04 #@! TO.P,R13,2*
G04 #@! TO.N,/TC*
X125984000Y-101346000D03*
D12*
G04 #@! TO.P,R13,1*
G04 #@! TO.N,/GND*
X115824000Y-101346000D03*
G04 #@! TD*
D10*
G04 #@! TO.P,R12,2*
G04 #@! TO.N,/AEN*
X125984000Y-98298000D03*
D12*
G04 #@! TO.P,R12,1*
G04 #@! TO.N,/GND*
X115824000Y-98298000D03*
G04 #@! TD*
D10*
G04 #@! TO.P,RN2,9*
G04 #@! TO.N,/DACK3*
X82296000Y-32004000D03*
G04 #@! TO.P,RN2,8*
G04 #@! TO.N,/DACK2*
X79756000Y-32004000D03*
G04 #@! TO.P,RN2,7*
G04 #@! TO.N,/DACK1*
X77216000Y-32004000D03*
G04 #@! TO.P,RN2,6*
G04 #@! TO.N,/REFRQ*
X74676000Y-32004000D03*
G04 #@! TO.P,RN2,5*
G04 #@! TO.N,/IORD*
X72136000Y-32004000D03*
G04 #@! TO.P,RN2,4*
G04 #@! TO.N,/IOWR*
X69596000Y-32004000D03*
G04 #@! TO.P,RN2,3*
G04 #@! TO.N,/MRD*
X67056000Y-32004000D03*
G04 #@! TO.P,RN2,2*
G04 #@! TO.N,/MWR*
X64516000Y-32004000D03*
D11*
G04 #@! TO.P,RN2,1*
G04 #@! TO.N,/5+*
X61976000Y-32004000D03*
G04 #@! TD*
D14*
G04 #@! TO.P,R,1*
G04 #@! TO.N,/12+*
X130556000Y-113284000D03*
G04 #@! TD*
G04 #@! TO.P,R,1*
G04 #@! TO.N,/12+*
X130556000Y-122174000D03*
G04 #@! TD*
G04 #@! TO.P,R,1*
G04 #@! TO.N,/12-*
X130556000Y-144780000D03*
G04 #@! TD*
G04 #@! TO.P,R,1*
G04 #@! TO.N,/12-*
X130556000Y-124460000D03*
G04 #@! TD*
D10*
G04 #@! TO.P,R9,2*
G04 #@! TO.N,/T1*
X129540000Y-36040000D03*
D12*
G04 #@! TO.P,R9,1*
G04 #@! TO.N,/5+*
X119380000Y-36040000D03*
G04 #@! TD*
D10*
G04 #@! TO.P,R8,2*
G04 #@! TO.N,/T0*
X129540000Y-33020000D03*
D12*
G04 #@! TO.P,R8,1*
G04 #@! TO.N,/5+*
X119380000Y-33020000D03*
G04 #@! TD*
D10*
G04 #@! TO.P,R7,2*
G04 #@! TO.N,/CH_CK*
X116840000Y-147574000D03*
D12*
G04 #@! TO.P,R7,1*
G04 #@! TO.N,/5+*
X127000000Y-147574000D03*
G04 #@! TD*
D10*
G04 #@! TO.P,R6,2*
G04 #@! TO.N,/RDY1*
X45212000Y-135636000D03*
D12*
G04 #@! TO.P,R6,1*
G04 #@! TO.N,/5+*
X45212000Y-145796000D03*
G04 #@! TD*
D14*
G04 #@! TO.P,R,1*
G04 #@! TO.N,/12-*
X75692000Y-123952000D03*
G04 #@! TD*
G04 #@! TO.P,R,1*
G04 #@! TO.N,/12+*
X77470000Y-122428000D03*
G04 #@! TD*
D12*
G04 #@! TO.P,C10,2*
G04 #@! TO.N,/5+*
X130302000Y-79422000D03*
G04 #@! TO.P,C10,1*
G04 #@! TO.N,/GND*
X130302000Y-74422000D03*
G04 #@! TD*
G04 #@! TO.P,C9,2*
G04 #@! TO.N,/5+*
X130810000Y-38862000D03*
G04 #@! TO.P,C9,1*
G04 #@! TO.N,/GND*
X125810000Y-38862000D03*
G04 #@! TD*
D10*
G04 #@! TO.P,R4,2*
G04 #@! TO.N,/GND*
X42672000Y-177038000D03*
D12*
G04 #@! TO.P,R4,1*
G04 #@! TO.N,/X1_8284*
X42672000Y-166878000D03*
G04 #@! TD*
D10*
G04 #@! TO.P,R2,2*
G04 #@! TO.N,/GND*
X45720000Y-177038000D03*
D12*
G04 #@! TO.P,R2,1*
G04 #@! TO.N,/X2_8284*
X45720000Y-166878000D03*
G04 #@! TD*
D10*
G04 #@! TO.P,R18,2*
G04 #@! TO.N,/CLK*
X26162000Y-165608000D03*
D12*
G04 #@! TO.P,R18,1*
G04 #@! TO.N,/CLK88*
X26162000Y-155448000D03*
G04 #@! TD*
D10*
G04 #@! TO.P,R17,2*
G04 #@! TO.N,/PCLK*
X62992000Y-170942000D03*
D12*
G04 #@! TO.P,R17,1*
G04 #@! TO.N,/PCLK88*
X62992000Y-160782000D03*
G04 #@! TD*
D10*
G04 #@! TO.P,R14,2*
G04 #@! TO.N,/OSC*
X23114000Y-165608000D03*
D12*
G04 #@! TO.P,R14,1*
G04 #@! TO.N,/OSC88*
X23114000Y-155448000D03*
G04 #@! TD*
D10*
G04 #@! TO.P,R5,2*
G04 #@! TO.N,/RESET*
X127000000Y-144526000D03*
D12*
G04 #@! TO.P,R5,1*
G04 #@! TO.N,/POWER_GOOD*
X116840000Y-144526000D03*
G04 #@! TD*
D10*
G04 #@! TO.P,R3,2*
G04 #@! TO.N,/OSC*
X66040000Y-170942000D03*
D12*
G04 #@! TO.P,R3,1*
G04 #@! TO.N,/OSC88HF*
X66040000Y-160782000D03*
G04 #@! TD*
D10*
G04 #@! TO.P,U3,2*
G04 #@! TO.N,/SPK_PIN*
X84582000Y-167640000D03*
D12*
G04 #@! TO.P,U3,1*
G04 #@! TO.N,/SPK_PIN_O*
X84582000Y-177800000D03*
G04 #@! TD*
D15*
G04 #@! TO.P,J6,2*
G04 #@! TO.N,/GND*
X125984000Y-174752000D03*
D16*
G04 #@! TO.P,J6,1*
G04 #@! TO.N,/POWER_ON*
X125984000Y-172212000D03*
G04 #@! TD*
D15*
G04 #@! TO.P,J3,4*
G04 #@! TO.N,/5+*
X128016000Y-186182000D03*
G04 #@! TO.P,J3,3*
G04 #@! TO.N,/GND*
X125476000Y-186182000D03*
G04 #@! TO.P,J3,2*
G04 #@! TO.N,Net-(J3-Pad2)*
X122936000Y-186182000D03*
D16*
G04 #@! TO.P,J3,1*
G04 #@! TO.N,/SPK_PIN_O*
X120396000Y-186182000D03*
G04 #@! TD*
D12*
G04 #@! TO.P,C1,2*
G04 #@! TO.N,/5+*
X101346000Y-73660000D03*
G04 #@! TO.P,C1,1*
G04 #@! TO.N,/GND*
X96346000Y-73660000D03*
G04 #@! TD*
D10*
G04 #@! TO.P,U117,16*
G04 #@! TO.N,/5+*
X78486000Y-158242000D03*
G04 #@! TO.P,U117,8*
G04 #@! TO.N,/GND*
X70866000Y-176022000D03*
G04 #@! TO.P,U117,15*
G04 #@! TO.N,/SPK_EN_*
X78486000Y-160782000D03*
G04 #@! TO.P,U117,7*
G04 #@! TO.N,Net-(U117-Pad7)*
X70866000Y-173482000D03*
G04 #@! TO.P,U117,14*
G04 #@! TO.N,/SPK_OUT*
X78486000Y-163322000D03*
G04 #@! TO.P,U117,6*
G04 #@! TO.N,Net-(U117-Pad6)*
X70866000Y-170942000D03*
G04 #@! TO.P,U117,13*
G04 #@! TO.N,/GND*
X78486000Y-165862000D03*
G04 #@! TO.P,U117,5*
G04 #@! TO.N,Net-(U117-Pad5)*
X70866000Y-168402000D03*
G04 #@! TO.P,U117,12*
G04 #@! TO.N,/SPK_PIN*
X78486000Y-168402000D03*
G04 #@! TO.P,U117,4*
G04 #@! TO.N,Net-(U117-Pad4)*
X70866000Y-165862000D03*
G04 #@! TO.P,U117,11*
G04 #@! TO.N,Net-(U117-Pad11)*
X78486000Y-170942000D03*
G04 #@! TO.P,U117,3*
G04 #@! TO.N,Net-(U117-Pad3)*
X70866000Y-163322000D03*
G04 #@! TO.P,U117,10*
G04 #@! TO.N,Net-(U117-Pad10)*
X78486000Y-173482000D03*
G04 #@! TO.P,U117,2*
G04 #@! TO.N,Net-(U117-Pad2)*
X70866000Y-160782000D03*
G04 #@! TO.P,U117,9*
G04 #@! TO.N,Net-(U117-Pad9)*
X78486000Y-176022000D03*
D11*
G04 #@! TO.P,U117,1*
G04 #@! TO.N,Net-(U117-Pad1)*
X70866000Y-158242000D03*
G04 #@! TD*
D14*
G04 #@! TO.P,J10,16*
G04 #@! TO.N,/RESET*
X87376000Y-130302000D03*
G04 #@! TO.P,J10,15*
G04 #@! TO.N,/READY*
X87376000Y-132842000D03*
D17*
G04 #@! TO.P,J10,1*
G04 #@! TO.N,/IRQ1*
X82296000Y-130302000D03*
D14*
G04 #@! TO.P,J10,2*
G04 #@! TO.N,/IO_000X*
X82296000Y-132842000D03*
G04 #@! TO.P,J10,3*
G04 #@! TO.N,/IO_002X*
X82296000Y-135382000D03*
G04 #@! TO.P,J10,4*
G04 #@! TO.N,/IO_004X*
X82296000Y-137922000D03*
G04 #@! TO.P,J10,5*
G04 #@! TO.N,/IO_006X*
X82296000Y-140462000D03*
G04 #@! TO.P,J10,6*
G04 #@! TO.N,/IO_008X*
X82296000Y-143002000D03*
G04 #@! TO.P,J10,7*
G04 #@! TO.N,Net-(J10-Pad7)*
X82296000Y-145542000D03*
G04 #@! TO.P,J10,8*
G04 #@! TO.N,/NMI*
X82296000Y-148082000D03*
G04 #@! TO.P,J10,9*
G04 #@! TO.N,/SPK_OUT*
X87376000Y-148082000D03*
G04 #@! TO.P,J10,10*
G04 #@! TO.N,/SPK_GO*
X87376000Y-145542000D03*
G04 #@! TO.P,J10,11*
G04 #@! TO.N,/HF_PCLK*
X87376000Y-143002000D03*
G04 #@! TO.P,J10,12*
G04 #@! TO.N,/DRQ0*
X87376000Y-140462000D03*
G04 #@! TO.P,J10,13*
G04 #@! TO.N,/HOLDA*
X87376000Y-137922000D03*
G04 #@! TO.P,J10,14*
G04 #@! TO.N,/HOLD*
X87376000Y-135382000D03*
G04 #@! TD*
D18*
G04 #@! TO.P,SW1,1*
G04 #@! TO.N,/RESET*
X138834000Y-159258000D03*
G04 #@! TO.P,SW1,2*
G04 #@! TO.N,/GND*
X138834000Y-163758000D03*
G04 #@! TO.P,SW1,1*
G04 #@! TO.N,/RESET*
X132334000Y-159258000D03*
G04 #@! TO.P,SW1,2*
G04 #@! TO.N,/GND*
X132334000Y-163758000D03*
G04 #@! TD*
D10*
G04 #@! TO.P,R1,2*
G04 #@! TO.N,/GND*
X115824000Y-106172000D03*
D12*
G04 #@! TO.P,R1,1*
G04 #@! TO.N,/LED_GND*
X125984000Y-106172000D03*
G04 #@! TD*
D19*
G04 #@! TO.P,D1,2*
G04 #@! TO.N,/5+*
X123444000Y-112014000D03*
D20*
G04 #@! TO.P,D1,1*
G04 #@! TO.N,/LED_GND*
X123444000Y-109474000D03*
G04 #@! TD*
D12*
G04 #@! TO.P,C7,2*
G04 #@! TO.N,/5+*
X101346000Y-40640000D03*
G04 #@! TO.P,C7,1*
G04 #@! TO.N,/GND*
X96346000Y-40640000D03*
G04 #@! TD*
D14*
G04 #@! TO.P,8x8mm1,6*
G04 #@! TO.N,Net-(8x8mm1-Pad6)*
X138334000Y-169752000D03*
G04 #@! TO.P,8x8mm1,5*
G04 #@! TO.N,Net-(8x8mm1-Pad5)*
X138334000Y-172252000D03*
G04 #@! TO.P,8x8mm1,4*
G04 #@! TO.N,Net-(8x8mm1-Pad4)*
X138334000Y-174752000D03*
G04 #@! TO.P,8x8mm1,3*
G04 #@! TO.N,/GND*
X132334000Y-174752000D03*
G04 #@! TO.P,8x8mm1,2*
G04 #@! TO.N,/POWER_ON*
X132334000Y-172252000D03*
G04 #@! TO.P,8x8mm1,1*
G04 #@! TO.N,Net-(8x8mm1-Pad1)*
X132334000Y-169752000D03*
G04 #@! TD*
D21*
G04 #@! TO.P,ATXPOWER1,14*
G04 #@! TO.N,/12-*
X139836000Y-146902000D03*
G04 #@! TO.P,ATXPOWER1,13*
G04 #@! TO.N,Net-(ATXPOWER1-Pad13)*
X139836000Y-151102000D03*
G04 #@! TO.P,ATXPOWER1,15*
G04 #@! TO.N,/GND*
X139836000Y-142702000D03*
G04 #@! TO.P,ATXPOWER1,24*
G04 #@! TO.N,Net-(ATXPOWER1-Pad24)*
X139836000Y-104902000D03*
G04 #@! TO.P,ATXPOWER1,23*
G04 #@! TO.N,Net-(ATXPOWER1-Pad23)*
X139836000Y-109102000D03*
G04 #@! TO.P,ATXPOWER1,22*
G04 #@! TO.N,Net-(ATXPOWER1-Pad22)*
X139836000Y-113302000D03*
G04 #@! TO.P,ATXPOWER1,21*
G04 #@! TO.N,/5+*
X139836000Y-117502000D03*
G04 #@! TO.P,ATXPOWER1,18*
G04 #@! TO.N,/GND*
X139836000Y-130102000D03*
G04 #@! TO.P,ATXPOWER1,20*
G04 #@! TO.N,Net-(ATXPOWER1-Pad20)*
X139836000Y-121702000D03*
G04 #@! TO.P,ATXPOWER1,19*
G04 #@! TO.N,/GND*
X139836000Y-125902000D03*
G04 #@! TO.P,ATXPOWER1,16*
G04 #@! TO.N,/POWER_ON*
X139836000Y-138502000D03*
G04 #@! TO.P,ATXPOWER1,17*
G04 #@! TO.N,Net-(ATXPOWER1-Pad17)*
X139836000Y-134302000D03*
G04 #@! TO.P,ATXPOWER1,1*
G04 #@! TO.N,Net-(ATXPOWER1-Pad1)*
X135636000Y-151102000D03*
G04 #@! TO.P,ATXPOWER1,2*
G04 #@! TO.N,Net-(ATXPOWER1-Pad2)*
X135636000Y-146902000D03*
G04 #@! TO.P,ATXPOWER1,3*
G04 #@! TO.N,/GND*
X135636000Y-142702000D03*
G04 #@! TO.P,ATXPOWER1,4*
G04 #@! TO.N,/5+*
X135636000Y-138502000D03*
G04 #@! TO.P,ATXPOWER1,5*
G04 #@! TO.N,/GND*
X135636000Y-134302000D03*
G04 #@! TO.P,ATXPOWER1,6*
G04 #@! TO.N,/5+*
X135636000Y-130102000D03*
G04 #@! TO.P,ATXPOWER1,7*
G04 #@! TO.N,Net-(ATXPOWER1-Pad7)*
X135636000Y-125902000D03*
G04 #@! TO.P,ATXPOWER1,8*
G04 #@! TO.N,/POWER_GOOD*
X135636000Y-121702000D03*
G04 #@! TO.P,ATXPOWER1,9*
G04 #@! TO.N,Net-(ATXPOWER1-Pad9)*
X135636000Y-117502000D03*
G04 #@! TO.P,ATXPOWER1,10*
G04 #@! TO.N,/12+*
X135636000Y-113302000D03*
G04 #@! TO.P,ATXPOWER1,11*
G04 #@! TO.N,Net-(ATXPOWER1-Pad11)*
X135636000Y-109102000D03*
G04 #@! TO.P,ATXPOWER1,12*
G04 #@! TO.N,Net-(ATXPOWER1-Pad12)*
X135636000Y-104902000D03*
G04 #@! TD*
D12*
G04 #@! TO.P,C29,2*
G04 #@! TO.N,/5+*
X38608000Y-115570000D03*
G04 #@! TO.P,C29,1*
G04 #@! TO.N,/GND*
X38608000Y-120570000D03*
G04 #@! TD*
G04 #@! TO.P,C28,2*
G04 #@! TO.N,/5+*
X58928000Y-115570000D03*
G04 #@! TO.P,C28,1*
G04 #@! TO.N,/GND*
X58928000Y-120570000D03*
G04 #@! TD*
G04 #@! TO.P,C27,2*
G04 #@! TO.N,/5+*
X29464000Y-115570000D03*
G04 #@! TO.P,C27,1*
G04 #@! TO.N,/GND*
X29464000Y-120570000D03*
G04 #@! TD*
G04 #@! TO.P,C26,2*
G04 #@! TO.N,/5+*
X79248000Y-115570000D03*
G04 #@! TO.P,C26,1*
G04 #@! TO.N,/GND*
X79248000Y-120570000D03*
G04 #@! TD*
G04 #@! TO.P,C25,2*
G04 #@! TO.N,/5+*
X38608000Y-49704000D03*
G04 #@! TO.P,C25,1*
G04 #@! TO.N,/GND*
X38608000Y-44704000D03*
G04 #@! TD*
G04 #@! TO.P,C24,2*
G04 #@! TO.N,/5+*
X29464000Y-49704000D03*
G04 #@! TO.P,C24,1*
G04 #@! TO.N,/GND*
X29464000Y-44704000D03*
G04 #@! TD*
G04 #@! TO.P,C23,2*
G04 #@! TO.N,/5+*
X79248000Y-49704000D03*
G04 #@! TO.P,C23,1*
G04 #@! TO.N,/GND*
X79248000Y-44704000D03*
G04 #@! TD*
G04 #@! TO.P,C22,2*
G04 #@! TO.N,/5+*
X58928000Y-49704000D03*
G04 #@! TO.P,C22,1*
G04 #@! TO.N,/GND*
X58928000Y-44704000D03*
G04 #@! TD*
D22*
G04 #@! TO.P,J2,*
G04 #@! TO.N,*
X125425200Y-24180800D03*
X138938000Y-24180800D03*
D23*
X132181600Y-23368000D03*
D14*
G04 #@! TO.P,J2,6*
G04 #@! TO.N,Net-(J2-Pad6)*
X135585200Y-29667200D03*
G04 #@! TO.P,J2,5*
G04 #@! TO.N,/T0*
X128778000Y-29667200D03*
G04 #@! TO.P,J2,2*
G04 #@! TO.N,Net-(J2-Pad2)*
X133477000Y-27178000D03*
G04 #@! TO.P,J2,1*
G04 #@! TO.N,/T1*
X130886200Y-27178000D03*
G04 #@! TO.P,J2,4*
G04 #@! TO.N,/5+*
X135585200Y-27178000D03*
G04 #@! TO.P,J2,3*
G04 #@! TO.N,/GND*
X128778000Y-27178000D03*
G04 #@! TD*
D11*
G04 #@! TO.P,U17,1*
G04 #@! TO.N,/NMI_EN_139*
X91186000Y-158242000D03*
D10*
G04 #@! TO.P,U17,9*
G04 #@! TO.N,Net-(U17-Pad9)*
X98806000Y-176022000D03*
G04 #@! TO.P,U17,2*
G04 #@! TO.N,/CH_CK*
X91186000Y-160782000D03*
G04 #@! TO.P,U17,10*
G04 #@! TO.N,Net-(U17-Pad10)*
X98806000Y-173482000D03*
G04 #@! TO.P,U17,3*
G04 #@! TO.N,/GND*
X91186000Y-163322000D03*
G04 #@! TO.P,U17,11*
G04 #@! TO.N,/IO_0061*
X98806000Y-170942000D03*
G04 #@! TO.P,U17,4*
G04 #@! TO.N,/NMI_INPUT*
X91186000Y-165862000D03*
G04 #@! TO.P,U17,12*
G04 #@! TO.N,/IO_0060*
X98806000Y-168402000D03*
G04 #@! TO.P,U17,5*
G04 #@! TO.N,Net-(U17-Pad5)*
X91186000Y-168402000D03*
G04 #@! TO.P,U17,13*
G04 #@! TO.N,/A1*
X98806000Y-165862000D03*
G04 #@! TO.P,U17,6*
G04 #@! TO.N,Net-(U17-Pad6)*
X91186000Y-170942000D03*
G04 #@! TO.P,U17,14*
G04 #@! TO.N,/A0*
X98806000Y-163322000D03*
G04 #@! TO.P,U17,7*
G04 #@! TO.N,Net-(U17-Pad7)*
X91186000Y-173482000D03*
G04 #@! TO.P,U17,15*
G04 #@! TO.N,/IO_006X*
X98806000Y-160782000D03*
G04 #@! TO.P,U17,8*
G04 #@! TO.N,/GND*
X91186000Y-176022000D03*
G04 #@! TO.P,U17,16*
G04 #@! TO.N,/5+*
X98806000Y-158242000D03*
G04 #@! TD*
D14*
G04 #@! TO.P,R,1*
G04 #@! TO.N,/12-*
X43434000Y-40386000D03*
G04 #@! TD*
G04 #@! TO.P,R,1*
G04 #@! TO.N,/12+*
X44958000Y-37846000D03*
G04 #@! TD*
G04 #@! TO.P,R,1*
G04 #@! TO.N,/12+*
X24638000Y-37846000D03*
G04 #@! TD*
G04 #@! TO.P,R,1*
G04 #@! TO.N,/12-*
X23114000Y-40386000D03*
G04 #@! TD*
D13*
G04 #@! TO.P,REF\u002A\u002A,*
G04 #@! TO.N,/GND*
X97536000Y-28702000D03*
G04 #@! TD*
D14*
G04 #@! TO.P,R,1*
G04 #@! TO.N,/12-*
X84074000Y-40386000D03*
G04 #@! TD*
G04 #@! TO.P,R,1*
G04 #@! TO.N,/12+*
X85598000Y-37846000D03*
G04 #@! TD*
G04 #@! TO.P,R,1*
G04 #@! TO.N,/12-*
X63754000Y-40386000D03*
G04 #@! TD*
G04 #@! TO.P,R,1*
G04 #@! TO.N,/12+*
X65278000Y-37846000D03*
G04 #@! TD*
D15*
G04 #@! TO.P,CH376,16*
G04 #@! TO.N,/GND*
X134366000Y-74422000D03*
G04 #@! TO.P,CH376,15*
G04 #@! TO.N,/D0*
X136906000Y-74422000D03*
G04 #@! TO.P,CH376,14*
G04 #@! TO.N,/GND*
X134366000Y-76962000D03*
G04 #@! TO.P,CH376,13*
G04 #@! TO.N,/D1*
X136906000Y-76962000D03*
G04 #@! TO.P,CH376,12*
G04 #@! TO.N,/5+*
X134366000Y-79502000D03*
G04 #@! TO.P,CH376,11*
G04 #@! TO.N,/D2*
X136906000Y-79502000D03*
G04 #@! TO.P,CH376,10*
G04 #@! TO.N,/IN_IRQ6*
X134366000Y-82042000D03*
G04 #@! TO.P,CH376,9*
G04 #@! TO.N,/D3*
X136906000Y-82042000D03*
G04 #@! TO.P,CH376,8*
G04 #@! TO.N,/A2*
X134366000Y-84582000D03*
G04 #@! TO.P,CH376,7*
G04 #@! TO.N,/D4*
X136906000Y-84582000D03*
G04 #@! TO.P,CH376,6*
G04 #@! TO.N,/IO_00EX*
X134366000Y-87122000D03*
G04 #@! TO.P,CH376,5*
G04 #@! TO.N,/D5*
X136906000Y-87122000D03*
G04 #@! TO.P,CH376,4*
G04 #@! TO.N,/IORD*
X134366000Y-89662000D03*
G04 #@! TO.P,CH376,3*
G04 #@! TO.N,/D6*
X136906000Y-89662000D03*
G04 #@! TO.P,CH376,2*
G04 #@! TO.N,/IOWR*
X134366000Y-92202000D03*
D16*
G04 #@! TO.P,CH376,1*
G04 #@! TO.N,/D7*
X136906000Y-92202000D03*
G04 #@! TD*
D10*
G04 #@! TO.P,U9,16*
G04 #@! TO.N,/5+*
X37846000Y-130302000D03*
G04 #@! TO.P,U9,8*
G04 #@! TO.N,/GND*
X30226000Y-148082000D03*
G04 #@! TO.P,U9,15*
G04 #@! TO.N,/IO_0XXX*
X37846000Y-132842000D03*
G04 #@! TO.P,U9,7*
G04 #@! TO.N,Net-(U9-Pad7)*
X30226000Y-145542000D03*
G04 #@! TO.P,U9,14*
G04 #@! TO.N,Net-(U9-Pad14)*
X37846000Y-135382000D03*
G04 #@! TO.P,U9,6*
G04 #@! TO.N,/5+*
X30226000Y-143002000D03*
G04 #@! TO.P,U9,13*
G04 #@! TO.N,Net-(U9-Pad13)*
X37846000Y-137922000D03*
G04 #@! TO.P,U9,5*
G04 #@! TO.N,/HOLDA*
X30226000Y-140462000D03*
G04 #@! TO.P,U9,12*
G04 #@! TO.N,Net-(U9-Pad12)*
X37846000Y-140462000D03*
G04 #@! TO.P,U9,4*
G04 #@! TO.N,/A15*
X30226000Y-137922000D03*
G04 #@! TO.P,U9,11*
G04 #@! TO.N,Net-(U9-Pad11)*
X37846000Y-143002000D03*
G04 #@! TO.P,U9,3*
G04 #@! TO.N,/A14*
X30226000Y-135382000D03*
G04 #@! TO.P,U9,10*
G04 #@! TO.N,Net-(U9-Pad10)*
X37846000Y-145542000D03*
G04 #@! TO.P,U9,2*
G04 #@! TO.N,/A13*
X30226000Y-132842000D03*
G04 #@! TO.P,U9,9*
G04 #@! TO.N,Net-(U9-Pad9)*
X37846000Y-148082000D03*
D11*
G04 #@! TO.P,U9,1*
G04 #@! TO.N,/A12*
X30226000Y-130302000D03*
G04 #@! TD*
G04 #@! TO.P,U11,1*
G04 #@! TO.N,/GND*
X30226000Y-155702000D03*
D10*
G04 #@! TO.P,U11,10*
G04 #@! TO.N,/RESOUT*
X37846000Y-176022000D03*
G04 #@! TO.P,U11,2*
G04 #@! TO.N,/PCLK*
X30226000Y-158242000D03*
G04 #@! TO.P,U11,11*
G04 #@! TO.N,/RESET*
X37846000Y-173482000D03*
G04 #@! TO.P,U11,3*
G04 #@! TO.N,/GND*
X30226000Y-160782000D03*
G04 #@! TO.P,U11,12*
G04 #@! TO.N,/OSC*
X37846000Y-170942000D03*
G04 #@! TO.P,U11,4*
G04 #@! TO.N,/RDY1*
X30226000Y-163322000D03*
G04 #@! TO.P,U11,13*
G04 #@! TO.N,/GND*
X37846000Y-168402000D03*
G04 #@! TO.P,U11,5*
G04 #@! TO.N,/READY*
X30226000Y-165862000D03*
G04 #@! TO.P,U11,14*
G04 #@! TO.N,Net-(U11-Pad14)*
X37846000Y-165862000D03*
G04 #@! TO.P,U11,6*
G04 #@! TO.N,/GND*
X30226000Y-168402000D03*
G04 #@! TO.P,U11,15*
X37846000Y-163322000D03*
G04 #@! TO.P,U11,7*
G04 #@! TO.N,/5+*
X30226000Y-170942000D03*
G04 #@! TO.P,U11,16*
G04 #@! TO.N,/X2_8284*
X37846000Y-160782000D03*
G04 #@! TO.P,U11,8*
G04 #@! TO.N,/CLK*
X30226000Y-173482000D03*
G04 #@! TO.P,U11,17*
G04 #@! TO.N,/X1_8284*
X37846000Y-158242000D03*
G04 #@! TO.P,U11,9*
G04 #@! TO.N,/GND*
X30226000Y-176022000D03*
G04 #@! TO.P,U11,18*
G04 #@! TO.N,/5+*
X37846000Y-155702000D03*
G04 #@! TD*
D11*
G04 #@! TO.P,U12,1*
G04 #@! TO.N,/A8*
X50546000Y-130302000D03*
D10*
G04 #@! TO.P,U12,9*
G04 #@! TO.N,Net-(U12-Pad9)*
X58166000Y-148082000D03*
G04 #@! TO.P,U12,2*
G04 #@! TO.N,/A9*
X50546000Y-132842000D03*
G04 #@! TO.P,U12,10*
G04 #@! TO.N,Net-(U12-Pad10)*
X58166000Y-145542000D03*
G04 #@! TO.P,U12,3*
G04 #@! TO.N,/A10*
X50546000Y-135382000D03*
G04 #@! TO.P,U12,11*
G04 #@! TO.N,Net-(U12-Pad11)*
X58166000Y-143002000D03*
G04 #@! TO.P,U12,4*
G04 #@! TO.N,/A11*
X50546000Y-137922000D03*
G04 #@! TO.P,U12,12*
G04 #@! TO.N,Net-(U12-Pad12)*
X58166000Y-140462000D03*
G04 #@! TO.P,U12,5*
G04 #@! TO.N,/IO_0XXX*
X50546000Y-140462000D03*
G04 #@! TO.P,U12,13*
G04 #@! TO.N,Net-(U12-Pad13)*
X58166000Y-137922000D03*
G04 #@! TO.P,U12,6*
G04 #@! TO.N,/5+*
X50546000Y-143002000D03*
G04 #@! TO.P,U12,14*
G04 #@! TO.N,Net-(U12-Pad14)*
X58166000Y-135382000D03*
G04 #@! TO.P,U12,7*
G04 #@! TO.N,Net-(U12-Pad7)*
X50546000Y-145542000D03*
G04 #@! TO.P,U12,15*
G04 #@! TO.N,/IO_00XX*
X58166000Y-132842000D03*
G04 #@! TO.P,U12,8*
G04 #@! TO.N,/GND*
X50546000Y-148082000D03*
G04 #@! TO.P,U12,16*
G04 #@! TO.N,/5+*
X58166000Y-130302000D03*
G04 #@! TD*
D11*
G04 #@! TO.P,U13,1*
G04 #@! TO.N,/A5*
X70866000Y-130302000D03*
D10*
G04 #@! TO.P,U13,9*
G04 #@! TO.N,Net-(U13-Pad9)*
X78486000Y-148082000D03*
G04 #@! TO.P,U13,2*
G04 #@! TO.N,/A6*
X70866000Y-132842000D03*
G04 #@! TO.P,U13,10*
G04 #@! TO.N,Net-(U13-Pad10)*
X78486000Y-145542000D03*
G04 #@! TO.P,U13,3*
G04 #@! TO.N,/A7*
X70866000Y-135382000D03*
G04 #@! TO.P,U13,11*
G04 #@! TO.N,/IO_008X*
X78486000Y-143002000D03*
G04 #@! TO.P,U13,4*
G04 #@! TO.N,/A4*
X70866000Y-137922000D03*
G04 #@! TO.P,U13,12*
G04 #@! TO.N,/IO_006X*
X78486000Y-140462000D03*
G04 #@! TO.P,U13,5*
G04 #@! TO.N,/IO_00XX*
X70866000Y-140462000D03*
G04 #@! TO.P,U13,13*
G04 #@! TO.N,/IO_004X*
X78486000Y-137922000D03*
G04 #@! TO.P,U13,6*
G04 #@! TO.N,/5+*
X70866000Y-143002000D03*
G04 #@! TO.P,U13,14*
G04 #@! TO.N,/IO_002X*
X78486000Y-135382000D03*
G04 #@! TO.P,U13,7*
G04 #@! TO.N,/IO_00EX*
X70866000Y-145542000D03*
G04 #@! TO.P,U13,15*
G04 #@! TO.N,/IO_000X*
X78486000Y-132842000D03*
G04 #@! TO.P,U13,8*
G04 #@! TO.N,/GND*
X70866000Y-148082000D03*
G04 #@! TO.P,U13,16*
G04 #@! TO.N,/5+*
X78486000Y-130302000D03*
G04 #@! TD*
D11*
G04 #@! TO.P,U14,1*
G04 #@! TO.N,/5+*
X50546000Y-158242000D03*
D10*
G04 #@! TO.P,U14,8*
G04 #@! TO.N,/FB1*
X58166000Y-173482000D03*
G04 #@! TO.P,U14,2*
G04 #@! TO.N,/FB2*
X50546000Y-160782000D03*
G04 #@! TO.P,U14,9*
G04 #@! TO.N,/HF_OSC*
X58166000Y-170942000D03*
G04 #@! TO.P,U14,3*
G04 #@! TO.N,/PCLK88*
X50546000Y-163322000D03*
G04 #@! TO.P,U14,10*
G04 #@! TO.N,/5+*
X58166000Y-168402000D03*
G04 #@! TO.P,U14,4*
X50546000Y-165862000D03*
G04 #@! TO.P,U14,11*
G04 #@! TO.N,/OSC88HF*
X58166000Y-165862000D03*
G04 #@! TO.P,U14,5*
G04 #@! TO.N,/HF_PCLK*
X50546000Y-168402000D03*
G04 #@! TO.P,U14,12*
G04 #@! TO.N,/FB1*
X58166000Y-163322000D03*
G04 #@! TO.P,U14,6*
G04 #@! TO.N,/FB2*
X50546000Y-170942000D03*
G04 #@! TO.P,U14,13*
G04 #@! TO.N,/5+*
X58166000Y-160782000D03*
G04 #@! TO.P,U14,7*
G04 #@! TO.N,/GND*
X50546000Y-173482000D03*
G04 #@! TO.P,U14,14*
G04 #@! TO.N,/5+*
X58166000Y-158242000D03*
G04 #@! TD*
D11*
G04 #@! TO.P,U15,1*
G04 #@! TO.N,/GND*
X93726000Y-43942000D03*
D10*
G04 #@! TO.P,U15,11*
G04 #@! TO.N,/PORT_0X61_CS*
X101346000Y-66802000D03*
G04 #@! TO.P,U15,2*
G04 #@! TO.N,/D7*
X93726000Y-46482000D03*
G04 #@! TO.P,U15,12*
G04 #@! TO.N,/SPK_GO*
X101346000Y-64262000D03*
G04 #@! TO.P,U15,3*
G04 #@! TO.N,/D6*
X93726000Y-49022000D03*
G04 #@! TO.P,U15,13*
G04 #@! TO.N,/SPK_EN*
X101346000Y-61722000D03*
G04 #@! TO.P,U15,4*
G04 #@! TO.N,/D5*
X93726000Y-51562000D03*
G04 #@! TO.P,U15,14*
G04 #@! TO.N,/PORT_61_2*
X101346000Y-59182000D03*
G04 #@! TO.P,U15,5*
G04 #@! TO.N,/D4*
X93726000Y-54102000D03*
G04 #@! TO.P,U15,15*
G04 #@! TO.N,/PORT_61_3*
X101346000Y-56642000D03*
G04 #@! TO.P,U15,6*
G04 #@! TO.N,/D3*
X93726000Y-56642000D03*
G04 #@! TO.P,U15,16*
G04 #@! TO.N,/PORT_61_4*
X101346000Y-54102000D03*
G04 #@! TO.P,U15,7*
G04 #@! TO.N,/D2*
X93726000Y-59182000D03*
G04 #@! TO.P,U15,17*
G04 #@! TO.N,/NMI_EN*
X101346000Y-51562000D03*
G04 #@! TO.P,U15,8*
G04 #@! TO.N,/D1*
X93726000Y-61722000D03*
G04 #@! TO.P,U15,18*
G04 #@! TO.N,/PORT_61_6*
X101346000Y-49022000D03*
G04 #@! TO.P,U15,9*
G04 #@! TO.N,/D0*
X93726000Y-64262000D03*
G04 #@! TO.P,U15,19*
G04 #@! TO.N,/PORT_61_7*
X101346000Y-46482000D03*
G04 #@! TO.P,U15,10*
G04 #@! TO.N,/GND*
X93726000Y-66802000D03*
G04 #@! TO.P,U15,20*
G04 #@! TO.N,/5+*
X101346000Y-43942000D03*
G04 #@! TD*
D11*
G04 #@! TO.P,U16,1*
G04 #@! TO.N,/NMI_EN*
X91186000Y-130302000D03*
D10*
G04 #@! TO.P,U16,8*
G04 #@! TO.N,/PORT_0X61_CS*
X98806000Y-145542000D03*
G04 #@! TO.P,U16,2*
G04 #@! TO.N,/NMI_EN_139*
X91186000Y-132842000D03*
G04 #@! TO.P,U16,9*
G04 #@! TO.N,/PORT_0X61_EN*
X98806000Y-143002000D03*
G04 #@! TO.P,U16,3*
G04 #@! TO.N,/NMI_INPUT*
X91186000Y-135382000D03*
G04 #@! TO.P,U16,10*
G04 #@! TO.N,/KBD_CLK_INVERTED*
X98806000Y-140462000D03*
G04 #@! TO.P,U16,4*
G04 #@! TO.N,/NMI*
X91186000Y-137922000D03*
G04 #@! TO.P,U16,11*
G04 #@! TO.N,/KBD_CLK*
X98806000Y-137922000D03*
G04 #@! TO.P,U16,5*
G04 #@! TO.N,/SPK_EN*
X91186000Y-140462000D03*
G04 #@! TO.P,U16,12*
G04 #@! TO.N,Net-(U16-Pad12)*
X98806000Y-135382000D03*
G04 #@! TO.P,U16,6*
G04 #@! TO.N,/SPK_EN_*
X91186000Y-143002000D03*
G04 #@! TO.P,U16,13*
G04 #@! TO.N,Net-(U16-Pad13)*
X98806000Y-132842000D03*
G04 #@! TO.P,U16,7*
G04 #@! TO.N,/GND*
X91186000Y-145542000D03*
G04 #@! TO.P,U16,14*
G04 #@! TO.N,/5+*
X98806000Y-130302000D03*
G04 #@! TD*
D24*
G04 #@! TO.P,Y2,1*
G04 #@! TO.N,/X2_8284*
X44196000Y-161544000D03*
G04 #@! TO.P,Y2,2*
G04 #@! TO.N,/X1_8284*
X44196000Y-156644000D03*
G04 #@! TD*
D14*
G04 #@! TO.P,J1,62*
G04 #@! TO.N,/A0*
X26416000Y-120142000D03*
G04 #@! TO.P,J1,61*
G04 #@! TO.N,/A1*
X26416000Y-117602000D03*
G04 #@! TO.P,J1,60*
G04 #@! TO.N,/A2*
X26416000Y-115062000D03*
G04 #@! TO.P,J1,59*
G04 #@! TO.N,/A3*
X26416000Y-112522000D03*
G04 #@! TO.P,J1,58*
G04 #@! TO.N,/A4*
X26416000Y-109982000D03*
G04 #@! TO.P,J1,57*
G04 #@! TO.N,/A5*
X26416000Y-107442000D03*
G04 #@! TO.P,J1,56*
G04 #@! TO.N,/A6*
X26416000Y-104902000D03*
G04 #@! TO.P,J1,55*
G04 #@! TO.N,/A7*
X26416000Y-102362000D03*
G04 #@! TO.P,J1,54*
G04 #@! TO.N,/A8*
X26416000Y-99822000D03*
G04 #@! TO.P,J1,53*
G04 #@! TO.N,/A9*
X26416000Y-97282000D03*
G04 #@! TO.P,J1,52*
G04 #@! TO.N,/A10*
X26416000Y-94742000D03*
G04 #@! TO.P,J1,51*
G04 #@! TO.N,/A11*
X26416000Y-92202000D03*
G04 #@! TO.P,J1,50*
G04 #@! TO.N,/A12*
X26416000Y-89662000D03*
G04 #@! TO.P,J1,49*
G04 #@! TO.N,/A13*
X26416000Y-87122000D03*
G04 #@! TO.P,J1,48*
G04 #@! TO.N,/A14*
X26416000Y-84582000D03*
G04 #@! TO.P,J1,47*
G04 #@! TO.N,/A15*
X26416000Y-82042000D03*
G04 #@! TO.P,J1,46*
G04 #@! TO.N,/A16*
X26416000Y-79502000D03*
G04 #@! TO.P,J1,45*
G04 #@! TO.N,/A17*
X26416000Y-76962000D03*
G04 #@! TO.P,J1,44*
G04 #@! TO.N,/A18*
X26416000Y-74422000D03*
G04 #@! TO.P,J1,43*
G04 #@! TO.N,/A19*
X26416000Y-71882000D03*
G04 #@! TO.P,J1,42*
G04 #@! TO.N,/AEN*
X26416000Y-69342000D03*
G04 #@! TO.P,J1,41*
G04 #@! TO.N,/RDY1*
X26416000Y-66802000D03*
G04 #@! TO.P,J1,40*
G04 #@! TO.N,/D0*
X26416000Y-64262000D03*
G04 #@! TO.P,J1,39*
G04 #@! TO.N,/D1*
X26416000Y-61722000D03*
G04 #@! TO.P,J1,38*
G04 #@! TO.N,/D2*
X26416000Y-59182000D03*
G04 #@! TO.P,J1,37*
G04 #@! TO.N,/D3*
X26416000Y-56642000D03*
G04 #@! TO.P,J1,36*
G04 #@! TO.N,/D4*
X26416000Y-54102000D03*
G04 #@! TO.P,J1,35*
G04 #@! TO.N,/D5*
X26416000Y-51562000D03*
G04 #@! TO.P,J1,34*
G04 #@! TO.N,/D6*
X26416000Y-49022000D03*
G04 #@! TO.P,J1,33*
G04 #@! TO.N,/D7*
X26416000Y-46482000D03*
G04 #@! TO.P,J1,32*
G04 #@! TO.N,/CH_CK*
X26416000Y-43942000D03*
G04 #@! TO.P,J1,31*
G04 #@! TO.N,/GND*
X21336000Y-120142000D03*
G04 #@! TO.P,J1,30*
G04 #@! TO.N,/OSC88*
X21336000Y-117602000D03*
G04 #@! TO.P,J1,29*
G04 #@! TO.N,/5+*
X21336000Y-115062000D03*
G04 #@! TO.P,J1,28*
G04 #@! TO.N,/ALE*
X21336000Y-112522000D03*
G04 #@! TO.P,J1,27*
G04 #@! TO.N,/TC*
X21336000Y-109982000D03*
G04 #@! TO.P,J1,26*
G04 #@! TO.N,/DACK2*
X21336000Y-107442000D03*
G04 #@! TO.P,J1,25*
G04 #@! TO.N,/IRQ3*
X21336000Y-104902000D03*
G04 #@! TO.P,J1,24*
G04 #@! TO.N,/IRQ4*
X21336000Y-102362000D03*
G04 #@! TO.P,J1,23*
G04 #@! TO.N,/IRQ5*
X21336000Y-99822000D03*
G04 #@! TO.P,J1,22*
G04 #@! TO.N,/IRQ6*
X21336000Y-97282000D03*
G04 #@! TO.P,J1,21*
G04 #@! TO.N,/IRQ7*
X21336000Y-94742000D03*
G04 #@! TO.P,J1,20*
G04 #@! TO.N,/CLK88*
X21336000Y-92202000D03*
G04 #@! TO.P,J1,19*
G04 #@! TO.N,/REFRQ*
X21336000Y-89662000D03*
G04 #@! TO.P,J1,18*
G04 #@! TO.N,/DRQ1*
X21336000Y-87122000D03*
G04 #@! TO.P,J1,17*
G04 #@! TO.N,/DACK1*
X21336000Y-84582000D03*
G04 #@! TO.P,J1,16*
G04 #@! TO.N,/DRQ3*
X21336000Y-82042000D03*
G04 #@! TO.P,J1,15*
G04 #@! TO.N,/DACK3*
X21336000Y-79502000D03*
G04 #@! TO.P,J1,14*
G04 #@! TO.N,/IORD*
X21336000Y-76962000D03*
G04 #@! TO.P,J1,13*
G04 #@! TO.N,/IOWR*
X21336000Y-74422000D03*
G04 #@! TO.P,J1,12*
G04 #@! TO.N,/MRD*
X21336000Y-71882000D03*
G04 #@! TO.P,J1,11*
G04 #@! TO.N,/MWR*
X21336000Y-69342000D03*
G04 #@! TO.P,J1,10*
G04 #@! TO.N,/GND*
X21336000Y-66802000D03*
G04 #@! TO.P,J1,9*
G04 #@! TO.N,/12+*
X21336000Y-64262000D03*
G04 #@! TO.P,J1,8*
G04 #@! TO.N,/NC*
X21336000Y-61722000D03*
G04 #@! TO.P,J1,7*
G04 #@! TO.N,/12-*
X21336000Y-59182000D03*
G04 #@! TO.P,J1,6*
G04 #@! TO.N,/DRQ2*
X21336000Y-56642000D03*
G04 #@! TO.P,J1,5*
G04 #@! TO.N,/5-*
X21336000Y-54102000D03*
G04 #@! TO.P,J1,4*
G04 #@! TO.N,/IRQ2*
X21336000Y-51562000D03*
G04 #@! TO.P,J1,3*
G04 #@! TO.N,/5+*
X21336000Y-49022000D03*
G04 #@! TO.P,J1,2*
G04 #@! TO.N,/RESOUT*
X21336000Y-46482000D03*
D17*
G04 #@! TO.P,J1,1*
G04 #@! TO.N,/GND*
X21336000Y-43942000D03*
G04 #@! TD*
G04 #@! TO.P,J7,1*
G04 #@! TO.N,/GND*
X41656000Y-43942000D03*
D14*
G04 #@! TO.P,J7,2*
G04 #@! TO.N,/RESOUT*
X41656000Y-46482000D03*
G04 #@! TO.P,J7,3*
G04 #@! TO.N,/5+*
X41656000Y-49022000D03*
G04 #@! TO.P,J7,4*
G04 #@! TO.N,/IRQ2*
X41656000Y-51562000D03*
G04 #@! TO.P,J7,5*
G04 #@! TO.N,/5-*
X41656000Y-54102000D03*
G04 #@! TO.P,J7,6*
G04 #@! TO.N,/DRQ2*
X41656000Y-56642000D03*
G04 #@! TO.P,J7,7*
G04 #@! TO.N,/12-*
X41656000Y-59182000D03*
G04 #@! TO.P,J7,8*
G04 #@! TO.N,/NC*
X41656000Y-61722000D03*
G04 #@! TO.P,J7,9*
G04 #@! TO.N,/12+*
X41656000Y-64262000D03*
G04 #@! TO.P,J7,10*
G04 #@! TO.N,/GND*
X41656000Y-66802000D03*
G04 #@! TO.P,J7,11*
G04 #@! TO.N,/MWR*
X41656000Y-69342000D03*
G04 #@! TO.P,J7,12*
G04 #@! TO.N,/MRD*
X41656000Y-71882000D03*
G04 #@! TO.P,J7,13*
G04 #@! TO.N,/IOWR*
X41656000Y-74422000D03*
G04 #@! TO.P,J7,14*
G04 #@! TO.N,/IORD*
X41656000Y-76962000D03*
G04 #@! TO.P,J7,15*
G04 #@! TO.N,/DACK3*
X41656000Y-79502000D03*
G04 #@! TO.P,J7,16*
G04 #@! TO.N,/DRQ3*
X41656000Y-82042000D03*
G04 #@! TO.P,J7,17*
G04 #@! TO.N,/DACK1*
X41656000Y-84582000D03*
G04 #@! TO.P,J7,18*
G04 #@! TO.N,/DRQ1*
X41656000Y-87122000D03*
G04 #@! TO.P,J7,19*
G04 #@! TO.N,/REFRQ*
X41656000Y-89662000D03*
G04 #@! TO.P,J7,20*
G04 #@! TO.N,/CLK88*
X41656000Y-92202000D03*
G04 #@! TO.P,J7,21*
G04 #@! TO.N,/IRQ7*
X41656000Y-94742000D03*
G04 #@! TO.P,J7,22*
G04 #@! TO.N,/IRQ6*
X41656000Y-97282000D03*
G04 #@! TO.P,J7,23*
G04 #@! TO.N,/IRQ5*
X41656000Y-99822000D03*
G04 #@! TO.P,J7,24*
G04 #@! TO.N,/IRQ4*
X41656000Y-102362000D03*
G04 #@! TO.P,J7,25*
G04 #@! TO.N,/IRQ3*
X41656000Y-104902000D03*
G04 #@! TO.P,J7,26*
G04 #@! TO.N,/DACK2*
X41656000Y-107442000D03*
G04 #@! TO.P,J7,27*
G04 #@! TO.N,/TC*
X41656000Y-109982000D03*
G04 #@! TO.P,J7,28*
G04 #@! TO.N,/ALE*
X41656000Y-112522000D03*
G04 #@! TO.P,J7,29*
G04 #@! TO.N,/5+*
X41656000Y-115062000D03*
G04 #@! TO.P,J7,30*
G04 #@! TO.N,/OSC88*
X41656000Y-117602000D03*
G04 #@! TO.P,J7,31*
G04 #@! TO.N,/GND*
X41656000Y-120142000D03*
G04 #@! TO.P,J7,32*
G04 #@! TO.N,/CH_CK*
X46736000Y-43942000D03*
G04 #@! TO.P,J7,33*
G04 #@! TO.N,/D7*
X46736000Y-46482000D03*
G04 #@! TO.P,J7,34*
G04 #@! TO.N,/D6*
X46736000Y-49022000D03*
G04 #@! TO.P,J7,35*
G04 #@! TO.N,/D5*
X46736000Y-51562000D03*
G04 #@! TO.P,J7,36*
G04 #@! TO.N,/D4*
X46736000Y-54102000D03*
G04 #@! TO.P,J7,37*
G04 #@! TO.N,/D3*
X46736000Y-56642000D03*
G04 #@! TO.P,J7,38*
G04 #@! TO.N,/D2*
X46736000Y-59182000D03*
G04 #@! TO.P,J7,39*
G04 #@! TO.N,/D1*
X46736000Y-61722000D03*
G04 #@! TO.P,J7,40*
G04 #@! TO.N,/D0*
X46736000Y-64262000D03*
G04 #@! TO.P,J7,41*
G04 #@! TO.N,/RDY1*
X46736000Y-66802000D03*
G04 #@! TO.P,J7,42*
G04 #@! TO.N,/AEN*
X46736000Y-69342000D03*
G04 #@! TO.P,J7,43*
G04 #@! TO.N,/A19*
X46736000Y-71882000D03*
G04 #@! TO.P,J7,44*
G04 #@! TO.N,/A18*
X46736000Y-74422000D03*
G04 #@! TO.P,J7,45*
G04 #@! TO.N,/A17*
X46736000Y-76962000D03*
G04 #@! TO.P,J7,46*
G04 #@! TO.N,/A16*
X46736000Y-79502000D03*
G04 #@! TO.P,J7,47*
G04 #@! TO.N,/A15*
X46736000Y-82042000D03*
G04 #@! TO.P,J7,48*
G04 #@! TO.N,/A14*
X46736000Y-84582000D03*
G04 #@! TO.P,J7,49*
G04 #@! TO.N,/A13*
X46736000Y-87122000D03*
G04 #@! TO.P,J7,50*
G04 #@! TO.N,/A12*
X46736000Y-89662000D03*
G04 #@! TO.P,J7,51*
G04 #@! TO.N,/A11*
X46736000Y-92202000D03*
G04 #@! TO.P,J7,52*
G04 #@! TO.N,/A10*
X46736000Y-94742000D03*
G04 #@! TO.P,J7,53*
G04 #@! TO.N,/A9*
X46736000Y-97282000D03*
G04 #@! TO.P,J7,54*
G04 #@! TO.N,/A8*
X46736000Y-99822000D03*
G04 #@! TO.P,J7,55*
G04 #@! TO.N,/A7*
X46736000Y-102362000D03*
G04 #@! TO.P,J7,56*
G04 #@! TO.N,/A6*
X46736000Y-104902000D03*
G04 #@! TO.P,J7,57*
G04 #@! TO.N,/A5*
X46736000Y-107442000D03*
G04 #@! TO.P,J7,58*
G04 #@! TO.N,/A4*
X46736000Y-109982000D03*
G04 #@! TO.P,J7,59*
G04 #@! TO.N,/A3*
X46736000Y-112522000D03*
G04 #@! TO.P,J7,60*
G04 #@! TO.N,/A2*
X46736000Y-115062000D03*
G04 #@! TO.P,J7,61*
G04 #@! TO.N,/A1*
X46736000Y-117602000D03*
G04 #@! TO.P,J7,62*
G04 #@! TO.N,/A0*
X46736000Y-120142000D03*
G04 #@! TD*
G04 #@! TO.P,J8,62*
G04 #@! TO.N,/A0*
X67056000Y-120142000D03*
G04 #@! TO.P,J8,61*
G04 #@! TO.N,/A1*
X67056000Y-117602000D03*
G04 #@! TO.P,J8,60*
G04 #@! TO.N,/A2*
X67056000Y-115062000D03*
G04 #@! TO.P,J8,59*
G04 #@! TO.N,/A3*
X67056000Y-112522000D03*
G04 #@! TO.P,J8,58*
G04 #@! TO.N,/A4*
X67056000Y-109982000D03*
G04 #@! TO.P,J8,57*
G04 #@! TO.N,/A5*
X67056000Y-107442000D03*
G04 #@! TO.P,J8,56*
G04 #@! TO.N,/A6*
X67056000Y-104902000D03*
G04 #@! TO.P,J8,55*
G04 #@! TO.N,/A7*
X67056000Y-102362000D03*
G04 #@! TO.P,J8,54*
G04 #@! TO.N,/A8*
X67056000Y-99822000D03*
G04 #@! TO.P,J8,53*
G04 #@! TO.N,/A9*
X67056000Y-97282000D03*
G04 #@! TO.P,J8,52*
G04 #@! TO.N,/A10*
X67056000Y-94742000D03*
G04 #@! TO.P,J8,51*
G04 #@! TO.N,/A11*
X67056000Y-92202000D03*
G04 #@! TO.P,J8,50*
G04 #@! TO.N,/A12*
X67056000Y-89662000D03*
G04 #@! TO.P,J8,49*
G04 #@! TO.N,/A13*
X67056000Y-87122000D03*
G04 #@! TO.P,J8,48*
G04 #@! TO.N,/A14*
X67056000Y-84582000D03*
G04 #@! TO.P,J8,47*
G04 #@! TO.N,/A15*
X67056000Y-82042000D03*
G04 #@! TO.P,J8,46*
G04 #@! TO.N,/A16*
X67056000Y-79502000D03*
G04 #@! TO.P,J8,45*
G04 #@! TO.N,/A17*
X67056000Y-76962000D03*
G04 #@! TO.P,J8,44*
G04 #@! TO.N,/A18*
X67056000Y-74422000D03*
G04 #@! TO.P,J8,43*
G04 #@! TO.N,/A19*
X67056000Y-71882000D03*
G04 #@! TO.P,J8,42*
G04 #@! TO.N,/AEN*
X67056000Y-69342000D03*
G04 #@! TO.P,J8,41*
G04 #@! TO.N,/RDY1*
X67056000Y-66802000D03*
G04 #@! TO.P,J8,40*
G04 #@! TO.N,/D0*
X67056000Y-64262000D03*
G04 #@! TO.P,J8,39*
G04 #@! TO.N,/D1*
X67056000Y-61722000D03*
G04 #@! TO.P,J8,38*
G04 #@! TO.N,/D2*
X67056000Y-59182000D03*
G04 #@! TO.P,J8,37*
G04 #@! TO.N,/D3*
X67056000Y-56642000D03*
G04 #@! TO.P,J8,36*
G04 #@! TO.N,/D4*
X67056000Y-54102000D03*
G04 #@! TO.P,J8,35*
G04 #@! TO.N,/D5*
X67056000Y-51562000D03*
G04 #@! TO.P,J8,34*
G04 #@! TO.N,/D6*
X67056000Y-49022000D03*
G04 #@! TO.P,J8,33*
G04 #@! TO.N,/D7*
X67056000Y-46482000D03*
G04 #@! TO.P,J8,32*
G04 #@! TO.N,/CH_CK*
X67056000Y-43942000D03*
G04 #@! TO.P,J8,31*
G04 #@! TO.N,/GND*
X61976000Y-120142000D03*
G04 #@! TO.P,J8,30*
G04 #@! TO.N,/OSC88*
X61976000Y-117602000D03*
G04 #@! TO.P,J8,29*
G04 #@! TO.N,/5+*
X61976000Y-115062000D03*
G04 #@! TO.P,J8,28*
G04 #@! TO.N,/ALE*
X61976000Y-112522000D03*
G04 #@! TO.P,J8,27*
G04 #@! TO.N,/TC*
X61976000Y-109982000D03*
G04 #@! TO.P,J8,26*
G04 #@! TO.N,/DACK2*
X61976000Y-107442000D03*
G04 #@! TO.P,J8,25*
G04 #@! TO.N,/IRQ3*
X61976000Y-104902000D03*
G04 #@! TO.P,J8,24*
G04 #@! TO.N,/IRQ4*
X61976000Y-102362000D03*
G04 #@! TO.P,J8,23*
G04 #@! TO.N,/IRQ5*
X61976000Y-99822000D03*
G04 #@! TO.P,J8,22*
G04 #@! TO.N,/IRQ6*
X61976000Y-97282000D03*
G04 #@! TO.P,J8,21*
G04 #@! TO.N,/IRQ7*
X61976000Y-94742000D03*
G04 #@! TO.P,J8,20*
G04 #@! TO.N,/CLK88*
X61976000Y-92202000D03*
G04 #@! TO.P,J8,19*
G04 #@! TO.N,/REFRQ*
X61976000Y-89662000D03*
G04 #@! TO.P,J8,18*
G04 #@! TO.N,/DRQ1*
X61976000Y-87122000D03*
G04 #@! TO.P,J8,17*
G04 #@! TO.N,/DACK1*
X61976000Y-84582000D03*
G04 #@! TO.P,J8,16*
G04 #@! TO.N,/DRQ3*
X61976000Y-82042000D03*
G04 #@! TO.P,J8,15*
G04 #@! TO.N,/DACK3*
X61976000Y-79502000D03*
G04 #@! TO.P,J8,14*
G04 #@! TO.N,/IORD*
X61976000Y-76962000D03*
G04 #@! TO.P,J8,13*
G04 #@! TO.N,/IOWR*
X61976000Y-74422000D03*
G04 #@! TO.P,J8,12*
G04 #@! TO.N,/MRD*
X61976000Y-71882000D03*
G04 #@! TO.P,J8,11*
G04 #@! TO.N,/MWR*
X61976000Y-69342000D03*
G04 #@! TO.P,J8,10*
G04 #@! TO.N,/GND*
X61976000Y-66802000D03*
G04 #@! TO.P,J8,9*
G04 #@! TO.N,/12+*
X61976000Y-64262000D03*
G04 #@! TO.P,J8,8*
G04 #@! TO.N,/NC*
X61976000Y-61722000D03*
G04 #@! TO.P,J8,7*
G04 #@! TO.N,/12-*
X61976000Y-59182000D03*
G04 #@! TO.P,J8,6*
G04 #@! TO.N,/DRQ2*
X61976000Y-56642000D03*
G04 #@! TO.P,J8,5*
G04 #@! TO.N,/5-*
X61976000Y-54102000D03*
G04 #@! TO.P,J8,4*
G04 #@! TO.N,/IRQ2*
X61976000Y-51562000D03*
G04 #@! TO.P,J8,3*
G04 #@! TO.N,/5+*
X61976000Y-49022000D03*
G04 #@! TO.P,J8,2*
G04 #@! TO.N,/RESOUT*
X61976000Y-46482000D03*
D17*
G04 #@! TO.P,J8,1*
G04 #@! TO.N,/GND*
X61976000Y-43942000D03*
G04 #@! TD*
G04 #@! TO.P,J9,1*
G04 #@! TO.N,/GND*
X82296000Y-43942000D03*
D14*
G04 #@! TO.P,J9,2*
G04 #@! TO.N,/RESOUT*
X82296000Y-46482000D03*
G04 #@! TO.P,J9,3*
G04 #@! TO.N,/5+*
X82296000Y-49022000D03*
G04 #@! TO.P,J9,4*
G04 #@! TO.N,/IRQ2*
X82296000Y-51562000D03*
G04 #@! TO.P,J9,5*
G04 #@! TO.N,/5-*
X82296000Y-54102000D03*
G04 #@! TO.P,J9,6*
G04 #@! TO.N,/DRQ2*
X82296000Y-56642000D03*
G04 #@! TO.P,J9,7*
G04 #@! TO.N,/12-*
X82296000Y-59182000D03*
G04 #@! TO.P,J9,8*
G04 #@! TO.N,/NC*
X82296000Y-61722000D03*
G04 #@! TO.P,J9,9*
G04 #@! TO.N,/12+*
X82296000Y-64262000D03*
G04 #@! TO.P,J9,10*
G04 #@! TO.N,/GND*
X82296000Y-66802000D03*
G04 #@! TO.P,J9,11*
G04 #@! TO.N,/MWR*
X82296000Y-69342000D03*
G04 #@! TO.P,J9,12*
G04 #@! TO.N,/MRD*
X82296000Y-71882000D03*
G04 #@! TO.P,J9,13*
G04 #@! TO.N,/IOWR*
X82296000Y-74422000D03*
G04 #@! TO.P,J9,14*
G04 #@! TO.N,/IORD*
X82296000Y-76962000D03*
G04 #@! TO.P,J9,15*
G04 #@! TO.N,/DACK3*
X82296000Y-79502000D03*
G04 #@! TO.P,J9,16*
G04 #@! TO.N,/DRQ3*
X82296000Y-82042000D03*
G04 #@! TO.P,J9,17*
G04 #@! TO.N,/DACK1*
X82296000Y-84582000D03*
G04 #@! TO.P,J9,18*
G04 #@! TO.N,/DRQ1*
X82296000Y-87122000D03*
G04 #@! TO.P,J9,19*
G04 #@! TO.N,/REFRQ*
X82296000Y-89662000D03*
G04 #@! TO.P,J9,20*
G04 #@! TO.N,/CLK88*
X82296000Y-92202000D03*
G04 #@! TO.P,J9,21*
G04 #@! TO.N,/IRQ7*
X82296000Y-94742000D03*
G04 #@! TO.P,J9,22*
G04 #@! TO.N,/IRQ6*
X82296000Y-97282000D03*
G04 #@! TO.P,J9,23*
G04 #@! TO.N,/IRQ5*
X82296000Y-99822000D03*
G04 #@! TO.P,J9,24*
G04 #@! TO.N,/IRQ4*
X82296000Y-102362000D03*
G04 #@! TO.P,J9,25*
G04 #@! TO.N,/IRQ3*
X82296000Y-104902000D03*
G04 #@! TO.P,J9,26*
G04 #@! TO.N,/DACK2*
X82296000Y-107442000D03*
G04 #@! TO.P,J9,27*
G04 #@! TO.N,/TC*
X82296000Y-109982000D03*
G04 #@! TO.P,J9,28*
G04 #@! TO.N,/ALE*
X82296000Y-112522000D03*
G04 #@! TO.P,J9,29*
G04 #@! TO.N,/5+*
X82296000Y-115062000D03*
G04 #@! TO.P,J9,30*
G04 #@! TO.N,/OSC88*
X82296000Y-117602000D03*
G04 #@! TO.P,J9,31*
G04 #@! TO.N,/GND*
X82296000Y-120142000D03*
G04 #@! TO.P,J9,32*
G04 #@! TO.N,/CH_CK*
X87376000Y-43942000D03*
G04 #@! TO.P,J9,33*
G04 #@! TO.N,/D7*
X87376000Y-46482000D03*
G04 #@! TO.P,J9,34*
G04 #@! TO.N,/D6*
X87376000Y-49022000D03*
G04 #@! TO.P,J9,35*
G04 #@! TO.N,/D5*
X87376000Y-51562000D03*
G04 #@! TO.P,J9,36*
G04 #@! TO.N,/D4*
X87376000Y-54102000D03*
G04 #@! TO.P,J9,37*
G04 #@! TO.N,/D3*
X87376000Y-56642000D03*
G04 #@! TO.P,J9,38*
G04 #@! TO.N,/D2*
X87376000Y-59182000D03*
G04 #@! TO.P,J9,39*
G04 #@! TO.N,/D1*
X87376000Y-61722000D03*
G04 #@! TO.P,J9,40*
G04 #@! TO.N,/D0*
X87376000Y-64262000D03*
G04 #@! TO.P,J9,41*
G04 #@! TO.N,/RDY1*
X87376000Y-66802000D03*
G04 #@! TO.P,J9,42*
G04 #@! TO.N,/AEN*
X87376000Y-69342000D03*
G04 #@! TO.P,J9,43*
G04 #@! TO.N,/A19*
X87376000Y-71882000D03*
G04 #@! TO.P,J9,44*
G04 #@! TO.N,/A18*
X87376000Y-74422000D03*
G04 #@! TO.P,J9,45*
G04 #@! TO.N,/A17*
X87376000Y-76962000D03*
G04 #@! TO.P,J9,46*
G04 #@! TO.N,/A16*
X87376000Y-79502000D03*
G04 #@! TO.P,J9,47*
G04 #@! TO.N,/A15*
X87376000Y-82042000D03*
G04 #@! TO.P,J9,48*
G04 #@! TO.N,/A14*
X87376000Y-84582000D03*
G04 #@! TO.P,J9,49*
G04 #@! TO.N,/A13*
X87376000Y-87122000D03*
G04 #@! TO.P,J9,50*
G04 #@! TO.N,/A12*
X87376000Y-89662000D03*
G04 #@! TO.P,J9,51*
G04 #@! TO.N,/A11*
X87376000Y-92202000D03*
G04 #@! TO.P,J9,52*
G04 #@! TO.N,/A10*
X87376000Y-94742000D03*
G04 #@! TO.P,J9,53*
G04 #@! TO.N,/A9*
X87376000Y-97282000D03*
G04 #@! TO.P,J9,54*
G04 #@! TO.N,/A8*
X87376000Y-99822000D03*
G04 #@! TO.P,J9,55*
G04 #@! TO.N,/A7*
X87376000Y-102362000D03*
G04 #@! TO.P,J9,56*
G04 #@! TO.N,/A6*
X87376000Y-104902000D03*
G04 #@! TO.P,J9,57*
G04 #@! TO.N,/A5*
X87376000Y-107442000D03*
G04 #@! TO.P,J9,58*
G04 #@! TO.N,/A4*
X87376000Y-109982000D03*
G04 #@! TO.P,J9,59*
G04 #@! TO.N,/A3*
X87376000Y-112522000D03*
G04 #@! TO.P,J9,60*
G04 #@! TO.N,/A2*
X87376000Y-115062000D03*
G04 #@! TO.P,J9,61*
G04 #@! TO.N,/A1*
X87376000Y-117602000D03*
G04 #@! TO.P,J9,62*
G04 #@! TO.N,/A0*
X87376000Y-120142000D03*
G04 #@! TD*
D25*
G04 #@! TO.P,U19,1*
G04 #@! TO.N,Net-(U19-Pad1)*
X130810000Y-46482000D03*
D26*
G04 #@! TO.P,U19,3*
G04 #@! TO.N,/HF_OSC*
X128270000Y-46482000D03*
G04 #@! TO.P,U19,5*
G04 #@! TO.N,/RESET*
X125730000Y-46482000D03*
G04 #@! TO.P,U19,43*
G04 #@! TO.N,/T1*
X133350000Y-46482000D03*
G04 #@! TO.P,U19,41*
G04 #@! TO.N,/KBD_CLK*
X135890000Y-46482000D03*
G04 #@! TO.P,U19,2*
G04 #@! TO.N,/T0*
X128270000Y-43942000D03*
G04 #@! TO.P,U19,4*
G04 #@! TO.N,Net-(U19-Pad4)*
X125730000Y-43942000D03*
G04 #@! TO.P,U19,6*
G04 #@! TO.N,Net-(U19-Pad6)*
X123190000Y-43942000D03*
G04 #@! TO.P,U19,44*
G04 #@! TO.N,/5+*
X130810000Y-43942000D03*
G04 #@! TO.P,U19,42*
G04 #@! TO.N,/KBD_DATA*
X133350000Y-43942000D03*
G04 #@! TO.P,U19,8*
G04 #@! TO.N,/GND*
X123190000Y-46482000D03*
G04 #@! TO.P,U19,10*
G04 #@! TO.N,/A2*
X123190000Y-49022000D03*
G04 #@! TO.P,U19,12*
G04 #@! TO.N,Net-(U19-Pad12)*
X123190000Y-51562000D03*
G04 #@! TO.P,U19,14*
G04 #@! TO.N,/D0*
X123190000Y-54102000D03*
G04 #@! TO.P,U19,16*
G04 #@! TO.N,/D2*
X123190000Y-56642000D03*
G04 #@! TO.P,U19,7*
G04 #@! TO.N,/IO_0060*
X120650000Y-46482000D03*
G04 #@! TO.P,U19,9*
G04 #@! TO.N,/IORD*
X120650000Y-49022000D03*
G04 #@! TO.P,U19,11*
G04 #@! TO.N,/IOWR*
X120650000Y-51562000D03*
G04 #@! TO.P,U19,13*
G04 #@! TO.N,Net-(U19-Pad13)*
X120650000Y-54102000D03*
G04 #@! TO.P,U19,15*
G04 #@! TO.N,/D1*
X120650000Y-56642000D03*
G04 #@! TO.P,U19,17*
G04 #@! TO.N,/D3*
X120650000Y-59182000D03*
G04 #@! TO.P,U19,19*
G04 #@! TO.N,/D5*
X123190000Y-59182000D03*
G04 #@! TO.P,U19,21*
G04 #@! TO.N,/D7*
X125730000Y-59182000D03*
G04 #@! TO.P,U19,23*
G04 #@! TO.N,Net-(U19-Pad23)*
X128270000Y-59182000D03*
G04 #@! TO.P,U19,25*
G04 #@! TO.N,Net-(U19-Pad25)*
X130810000Y-59182000D03*
G04 #@! TO.P,U19,27*
G04 #@! TO.N,Net-(U19-Pad27)*
X133350000Y-59182000D03*
G04 #@! TO.P,U19,29*
G04 #@! TO.N,Net-(U19-Pad29)*
X138430000Y-59182000D03*
G04 #@! TO.P,U19,18*
G04 #@! TO.N,/D4*
X123190000Y-61722000D03*
G04 #@! TO.P,U19,20*
G04 #@! TO.N,/D6*
X125730000Y-61722000D03*
G04 #@! TO.P,U19,22*
G04 #@! TO.N,/GND*
X128270000Y-61722000D03*
G04 #@! TO.P,U19,24*
G04 #@! TO.N,Net-(U19-Pad24)*
X130810000Y-61722000D03*
G04 #@! TO.P,U19,26*
G04 #@! TO.N,Net-(U19-Pad26)*
X133350000Y-61722000D03*
G04 #@! TO.P,U19,28*
G04 #@! TO.N,Net-(U19-Pad28)*
X135890000Y-61722000D03*
G04 #@! TO.P,U19,30*
G04 #@! TO.N,Net-(U19-Pad30)*
X135890000Y-59182000D03*
G04 #@! TO.P,U19,32*
G04 #@! TO.N,Net-(U19-Pad32)*
X135890000Y-56642000D03*
G04 #@! TO.P,U19,34*
G04 #@! TO.N,Net-(U19-Pad34)*
X135890000Y-54102000D03*
G04 #@! TO.P,U19,36*
G04 #@! TO.N,Net-(U19-Pad36)*
X135890000Y-51562000D03*
G04 #@! TO.P,U19,38*
G04 #@! TO.N,/5+*
X135890000Y-49022000D03*
G04 #@! TO.P,U19,40*
G04 #@! TO.N,Net-(U19-Pad40)*
X135890000Y-43942000D03*
G04 #@! TO.P,U19,31*
G04 #@! TO.N,Net-(U19-Pad31)*
X138430000Y-56642000D03*
G04 #@! TO.P,U19,33*
G04 #@! TO.N,Net-(U19-Pad33)*
X138430000Y-54102000D03*
G04 #@! TO.P,U19,35*
G04 #@! TO.N,Net-(U19-Pad35)*
X138430000Y-51562000D03*
G04 #@! TO.P,U19,37*
G04 #@! TO.N,Net-(U19-Pad37)*
X138430000Y-49022000D03*
G04 #@! TO.P,U19,39*
G04 #@! TO.N,/IRQ1*
X138430000Y-46482000D03*
G04 #@! TD*
D11*
G04 #@! TO.P,U20,1*
G04 #@! TO.N,/KBD_CLK_INVERTED*
X93726000Y-76962000D03*
D10*
G04 #@! TO.P,U20,8*
G04 #@! TO.N,N/C*
X101346000Y-92202000D03*
G04 #@! TO.P,U20,2*
G04 #@! TO.N,/T0*
X93726000Y-79502000D03*
G04 #@! TO.P,U20,9*
G04 #@! TO.N,N/C*
X101346000Y-89662000D03*
G04 #@! TO.P,U20,3*
G04 #@! TO.N,/KBD_DATA*
X93726000Y-82042000D03*
G04 #@! TO.P,U20,10*
G04 #@! TO.N,N/C*
X101346000Y-87122000D03*
G04 #@! TO.P,U20,4*
G04 #@! TO.N,/T1*
X93726000Y-84582000D03*
G04 #@! TO.P,U20,11*
G04 #@! TO.N,N/C*
X101346000Y-84582000D03*
G04 #@! TO.P,U20,5*
X93726000Y-87122000D03*
G04 #@! TO.P,U20,12*
X101346000Y-82042000D03*
G04 #@! TO.P,U20,6*
X93726000Y-89662000D03*
G04 #@! TO.P,U20,13*
X101346000Y-79502000D03*
G04 #@! TO.P,U20,7*
G04 #@! TO.N,/GND*
X93726000Y-92202000D03*
G04 #@! TO.P,U20,14*
G04 #@! TO.N,/5+*
X101346000Y-76962000D03*
G04 #@! TD*
D12*
G04 #@! TO.P,C1,2*
G04 #@! TO.N,/5+*
X37846000Y-127000000D03*
G04 #@! TO.P,C1,1*
G04 #@! TO.N,/GND*
X32846000Y-127000000D03*
G04 #@! TD*
G04 #@! TO.P,C2,1*
G04 #@! TO.N,/GND*
X53166000Y-127000000D03*
G04 #@! TO.P,C2,2*
G04 #@! TO.N,/5+*
X58166000Y-127000000D03*
G04 #@! TD*
G04 #@! TO.P,C3,2*
G04 #@! TO.N,/5+*
X98806000Y-154940000D03*
G04 #@! TO.P,C3,1*
G04 #@! TO.N,/GND*
X93806000Y-154940000D03*
G04 #@! TD*
G04 #@! TO.P,C4,1*
G04 #@! TO.N,/GND*
X53166000Y-154940000D03*
G04 #@! TO.P,C4,2*
G04 #@! TO.N,/5+*
X58166000Y-154940000D03*
G04 #@! TD*
G04 #@! TO.P,C5,1*
G04 #@! TO.N,/GND*
X93806000Y-127000000D03*
G04 #@! TO.P,C5,2*
G04 #@! TO.N,/5+*
X98806000Y-127000000D03*
G04 #@! TD*
G04 #@! TO.P,C6,2*
G04 #@! TO.N,/5+*
X78486000Y-154940000D03*
G04 #@! TO.P,C6,1*
G04 #@! TO.N,/GND*
X73486000Y-154940000D03*
G04 #@! TD*
G04 #@! TO.P,C8,1*
G04 #@! TO.N,/GND*
X73486000Y-127000000D03*
G04 #@! TO.P,C8,2*
G04 #@! TO.N,/5+*
X78486000Y-127000000D03*
G04 #@! TD*
G04 #@! TO.P,C12,2*
G04 #@! TO.N,/5+*
X37846000Y-152400000D03*
G04 #@! TO.P,C12,1*
G04 #@! TO.N,/GND*
X32846000Y-152400000D03*
G04 #@! TD*
D27*
G04 #@! TO.N,/5+*
X40640000Y-142494000D03*
X53340000Y-49530000D03*
X53340000Y-115570000D03*
X55880000Y-165862000D03*
X55880000Y-158242000D03*
X55880000Y-160782000D03*
X55880000Y-168402000D03*
X40640000Y-152400000D03*
X40640000Y-172212000D03*
X40640000Y-155194000D03*
X133858000Y-39370000D03*
X89154000Y-50292000D03*
X101346000Y-70104000D03*
X97536000Y-70104000D03*
X117856000Y-79248000D03*
X40640000Y-127508000D03*
X119380000Y-40386000D03*
X45212000Y-127508000D03*
X45212000Y-116332000D03*
X127000000Y-154940000D03*
X137668000Y-129032000D03*
X84836000Y-115570000D03*
X84836000Y-127508000D03*
X137668000Y-154940000D03*
X137668000Y-137414000D03*
X117856000Y-115316000D03*
X55880000Y-156210000D03*
X97536000Y-42418000D03*
X89154002Y-42417998D03*
X123444000Y-115316000D03*
X69342000Y-49530000D03*
X69342000Y-36322000D03*
X61976000Y-36322000D03*
X45212000Y-142494000D03*
X117602000Y-73660000D03*
G04 #@! TO.N,/GND*
X133350000Y-146304000D03*
X114046000Y-175768000D03*
X114046000Y-163830000D03*
X96012000Y-176276000D03*
X73660000Y-175514000D03*
X53340000Y-147574000D03*
X33020000Y-147574000D03*
X73660000Y-163322000D03*
X93980000Y-163322000D03*
X52324000Y-120650000D03*
X52324000Y-67310000D03*
X52324000Y-44450000D03*
X33655000Y-120650000D03*
X73660000Y-165354000D03*
X33020000Y-155702000D03*
X33020000Y-168402000D03*
X33020000Y-160782000D03*
X33020000Y-163322000D03*
X45720000Y-173228000D03*
X33020000Y-176530000D03*
X73660000Y-147574000D03*
X93726018Y-40132000D03*
X127000000Y-48006000D03*
X128270000Y-74422000D03*
X90932000Y-154432000D03*
X93726000Y-73660000D03*
X128270000Y-93980000D03*
X139836000Y-128016000D03*
X82296000Y-126492000D03*
X133350000Y-142748000D03*
X134112000Y-174752000D03*
X134112000Y-163830000D03*
X115824000Y-93980000D03*
X115824000Y-125476000D03*
X124460000Y-125476000D03*
X114046000Y-166370000D03*
X103886000Y-40132000D03*
X103886000Y-74930000D03*
G04 #@! TO.N,/RESET*
X90170000Y-38354000D03*
X47498000Y-172212000D03*
X47498000Y-129032000D03*
X113792000Y-45212000D03*
X125222000Y-149606000D03*
X84328000Y-149606000D03*
X113792000Y-38354000D03*
X132334000Y-149606000D03*
X84582000Y-130302000D03*
G04 #@! TO.N,/DRQ2*
X36068000Y-57150000D03*
G04 #@! TO.N,/DACK3*
X76454000Y-80010000D03*
X76454000Y-34798000D03*
X82296000Y-34798000D03*
G04 #@! TO.N,/DRQ3*
X34036000Y-82550000D03*
G04 #@! TO.N,/DACK1*
X75692000Y-85090000D03*
G04 #@! TO.N,/DRQ1*
X32004000Y-87630000D03*
G04 #@! TO.N,/DACK2*
X74168000Y-107950000D03*
X74168000Y-34036000D03*
X79756000Y-34036000D03*
G04 #@! TO.N,/TC*
X120396000Y-101346000D03*
X120396000Y-111252000D03*
G04 #@! TO.N,/OSC*
X23114000Y-169672000D03*
G04 #@! TO.N,/CH_CK*
X73406000Y-43434000D03*
X75946000Y-162052000D03*
X102108000Y-147574000D03*
X102108000Y-162052000D03*
G04 #@! TO.N,/D7*
X127000000Y-90932000D03*
X125730000Y-49022000D03*
G04 #@! TO.N,/D6*
X125730000Y-88392000D03*
X124460000Y-50292000D03*
G04 #@! TO.N,/D5*
X117856000Y-57912000D03*
X117856000Y-52832000D03*
X124460000Y-85852000D03*
G04 #@! TO.N,/D4*
X123190000Y-83312000D03*
X117094000Y-61722000D03*
X117094000Y-55372000D03*
G04 #@! TO.N,/D3*
X120904000Y-80772000D03*
G04 #@! TO.N,/D2*
X121920000Y-78232000D03*
X121920000Y-60452000D03*
G04 #@! TO.N,/D1*
X119380000Y-62992000D03*
X119380000Y-75695110D03*
G04 #@! TO.N,/D0*
X118618000Y-55372000D03*
X118618000Y-73152000D03*
X118618000Y-65532000D03*
G04 #@! TO.N,/RDY1*
X34798000Y-66294000D03*
X34798000Y-123698000D03*
X46736000Y-123698000D03*
X46736000Y-135636000D03*
X46736000Y-163068000D03*
G04 #@! TO.N,/AEN*
X120142000Y-69088000D03*
X120142000Y-98298000D03*
G04 #@! TO.N,/A15*
X31750000Y-137922000D03*
X32766000Y-81534000D03*
G04 #@! TO.N,/A14*
X27940000Y-135382000D03*
X30480000Y-84074000D03*
G04 #@! TO.N,/A13*
X28702000Y-132842000D03*
X31242000Y-86614000D03*
G04 #@! TO.N,/A12*
X32004000Y-89154000D03*
G04 #@! TO.N,/A11*
X52070000Y-137922000D03*
X51308000Y-91694000D03*
G04 #@! TO.N,/A10*
X48260000Y-135382000D03*
X49022000Y-94234000D03*
G04 #@! TO.N,/A9*
X49022000Y-132842000D03*
X49784000Y-96774000D03*
G04 #@! TO.N,/A8*
X50546000Y-99314000D03*
G04 #@! TO.N,/A7*
X68580000Y-135382000D03*
X69342000Y-101854000D03*
G04 #@! TO.N,/A6*
X69342000Y-132842000D03*
X70104000Y-104394000D03*
G04 #@! TO.N,/A5*
X70866000Y-106934000D03*
G04 #@! TO.N,/A4*
X72390000Y-137922000D03*
X71628000Y-109474000D03*
G04 #@! TO.N,/A2*
X108458000Y-84836000D03*
X108458000Y-68326000D03*
X89408000Y-68834000D03*
X113284000Y-52069996D03*
X118872000Y-51308000D03*
X89408000Y-114553996D03*
G04 #@! TO.N,/A1*
X64516000Y-117094000D03*
X64516000Y-151638000D03*
X86614000Y-151855010D03*
X86106000Y-164592000D03*
G04 #@! TO.N,/A0*
X65278000Y-119634000D03*
X85852000Y-162052000D03*
X65278000Y-152400000D03*
X85800613Y-152436752D03*
G04 #@! TO.N,/CLK*
X26162000Y-173482000D03*
G04 #@! TO.N,/LED_GND*
X123444000Y-106172000D03*
G04 #@! TO.N,/RESOUT*
X36830000Y-46990000D03*
X36068000Y-175514000D03*
G04 #@! TO.N,/MWR*
X70358000Y-69850000D03*
X70358000Y-35560000D03*
X64516000Y-35556890D03*
G04 #@! TO.N,/MRD*
X71120000Y-72390000D03*
X71120000Y-34798000D03*
X67056000Y-34798000D03*
G04 #@! TO.N,/IOWR*
X72644000Y-74930000D03*
X97028000Y-90932000D03*
X116332000Y-90932000D03*
X106934000Y-150368000D03*
X97028000Y-75692000D03*
X106934000Y-160528000D03*
X72644000Y-34036000D03*
X69596000Y-34036000D03*
X116332000Y-52070000D03*
X75184000Y-149860000D03*
G04 #@! TO.N,/IORD*
X99060000Y-77215992D03*
X71882000Y-77470000D03*
X113280890Y-162814000D03*
X99060000Y-88392000D03*
X112522000Y-88392000D03*
X113792000Y-49530000D03*
G04 #@! TO.N,/REFRQ*
X74930000Y-90170000D03*
G04 #@! TO.N,/IO_0060*
X102870000Y-69850000D03*
X109220000Y-69850000D03*
X102870000Y-167893988D03*
X117094000Y-46482000D03*
X117094000Y-54102000D03*
X113284000Y-54610000D03*
G04 #@! TO.N,/IO_00EX*
X114554000Y-87122000D03*
X74422000Y-146050000D03*
X114554000Y-151130000D03*
X74676000Y-150876000D03*
G04 #@! TO.N,/POWER_GOOD*
X120904000Y-120396000D03*
X120904000Y-144526000D03*
G04 #@! TO.N,/NMI_EN*
X106680000Y-53594000D03*
X105664000Y-51054000D03*
X122174000Y-129032000D03*
X122174000Y-134112000D03*
X91440000Y-50292000D03*
G04 #@! TO.N,/NMI*
X95504000Y-137922000D03*
X95504000Y-146812000D03*
G04 #@! TO.N,/READY*
X34544000Y-134112000D03*
X34544000Y-165354000D03*
G04 #@! TO.N,/HF_PCLK*
X48514000Y-168402000D03*
X48514000Y-150368000D03*
X68579982Y-150368000D03*
X68580000Y-141478000D03*
G04 #@! TO.N,/IRQ1*
X84582000Y-128778000D03*
X90932000Y-71374000D03*
X134620000Y-71373996D03*
X134620000Y-50292000D03*
X89154000Y-128778000D03*
G04 #@! TO.N,/SPK_OUT*
X87158990Y-163322000D03*
G04 #@! TO.N,/SPK_GO*
X97536000Y-131572000D03*
X85090000Y-145542000D03*
X85090000Y-131572000D03*
X106680000Y-66294000D03*
X105664000Y-63754000D03*
X98552000Y-64262000D03*
G04 #@! TO.N,/SPK_EN*
X92202000Y-60452000D03*
X92964000Y-140462000D03*
X105664000Y-61214000D03*
X106680000Y-63754000D03*
G04 #@! TO.N,/IO_0XXX*
X41910000Y-140462000D03*
X41910000Y-132842000D03*
G04 #@! TO.N,/PCLK*
X64516000Y-159512000D03*
G04 #@! TO.N,/IO_00XX*
X67310000Y-132842000D03*
X67310000Y-140462000D03*
G04 #@! TO.N,/IO_006X*
X76708000Y-159512000D03*
X76708000Y-140462000D03*
G04 #@! TO.N,/FB2*
X53594000Y-160782000D03*
X53594000Y-170942000D03*
G04 #@! TO.N,/PORT_0X61_CS*
X99822000Y-66802000D03*
X100330000Y-145542000D03*
G04 #@! TO.N,/NMI_EN_139*
X93980000Y-132842000D03*
X93980000Y-147574000D03*
X91948000Y-147574000D03*
G04 #@! TO.N,/PORT_0X61_EN*
X97282000Y-164592000D03*
X97282000Y-143002000D03*
G04 #@! TO.N,/NMI_INPUT*
X94996000Y-165862000D03*
X94741990Y-135890000D03*
G04 #@! TO.N,/IO_0061*
X116840000Y-160274000D03*
X103632000Y-170434000D03*
X116840000Y-158750000D03*
X103632000Y-157734000D03*
G04 #@! TO.N,/T1*
X131064000Y-36068000D03*
X114554000Y-85852000D03*
X115316000Y-42418000D03*
X132080000Y-41910000D03*
G04 #@! TO.N,/T0*
X128270000Y-42672000D03*
X116078000Y-43180000D03*
X128016000Y-33020000D03*
X115606990Y-78174513D03*
G04 #@! TO.N,/KBD_CLK*
X97028000Y-137922000D03*
X97790000Y-72136000D03*
X132080000Y-48768000D03*
X132079988Y-72136000D03*
G04 #@! TO.N,/KBD_DATA*
X113792000Y-80772000D03*
X114554000Y-41656000D03*
X133350000Y-41148000D03*
G04 #@! TO.N,/KBD_CLK_INVERTED*
X96266000Y-140462000D03*
X96266000Y-76962000D03*
G04 #@! TO.N,/POWER_ON*
X129032000Y-140716000D03*
X129072008Y-172252000D03*
G04 #@! TO.N,/FB1*
X54356000Y-163322000D03*
X54356000Y-173482000D03*
G04 #@! TO.N,/HF_OSC*
X87884000Y-172212000D03*
X110236000Y-151892000D03*
X110236000Y-70612000D03*
X129540000Y-70612000D03*
X88138000Y-151892000D03*
G04 #@! TO.N,/SPK_PIN_O*
X120396000Y-177800000D03*
G04 #@! TO.N,/SPK_EN_*
X89154000Y-160274000D03*
X89154000Y-143002000D03*
G04 #@! TO.N,/OSC88*
X23368000Y-118110000D03*
G04 #@! TO.N,/CLK88*
X24130000Y-92710000D03*
G04 #@! TO.N,/OSC88HF*
X66040000Y-165862000D03*
G04 #@! TO.N,/PORT_61_RD*
X107696000Y-167132000D03*
G04 #@! TO.N,/PORT_61_7*
X105664000Y-45974000D03*
X106680000Y-48514000D03*
G04 #@! TO.N,/PORT_61_6*
X106680000Y-51054000D03*
X105664000Y-48514000D03*
G04 #@! TO.N,/PORT_61_4*
X106680000Y-56134000D03*
X105664000Y-53594000D03*
G04 #@! TO.N,/PORT_61_3*
X106680000Y-58674000D03*
X105664000Y-56134000D03*
G04 #@! TO.N,/PORT_61_2*
X105664000Y-58674000D03*
X106680000Y-61214000D03*
G04 #@! TD*
D28*
G04 #@! TO.N,/5+*
X37846000Y-127000000D02*
X37846000Y-130302000D01*
X58166000Y-127000000D02*
X58166000Y-130302000D01*
X78486000Y-127000000D02*
X78486000Y-130302000D01*
X98806000Y-154940000D02*
X98806000Y-158242000D01*
X53340000Y-49530000D02*
X53340000Y-115570000D01*
X55880000Y-165862000D02*
X55880000Y-168402000D01*
X55880000Y-165862000D02*
X55880000Y-160782000D01*
X55880000Y-160782000D02*
X55880000Y-158242000D01*
X58166000Y-154940000D02*
X58166000Y-158242000D01*
X37846000Y-152400000D02*
X37846000Y-155702000D01*
X78486000Y-154940000D02*
X78486000Y-158242000D01*
X40640000Y-152400000D02*
X40640000Y-142494000D01*
X40640000Y-172212000D02*
X40640000Y-155194000D01*
X40640000Y-152400000D02*
X40640000Y-155194000D01*
X101346000Y-40640000D02*
X101346000Y-43942000D01*
X130810000Y-38862000D02*
X130810000Y-43942000D01*
X101346000Y-73660000D02*
X101346000Y-76962000D01*
X133858000Y-28905200D02*
X133858000Y-39370000D01*
X135585200Y-27178000D02*
X133858000Y-28905200D01*
X98806000Y-127000000D02*
X98806000Y-130302000D01*
X135636000Y-49022000D02*
X135890000Y-49022000D01*
X134620000Y-48006000D02*
X135636000Y-49022000D01*
X134620000Y-40132000D02*
X134620000Y-48006000D01*
X133858000Y-39370000D02*
X134620000Y-40132000D01*
X101346000Y-73660000D02*
X101346000Y-70104000D01*
X119380000Y-40386000D02*
X119380000Y-36040000D01*
X119380000Y-36040000D02*
X119380000Y-33020000D01*
X45212000Y-116332000D02*
X45212000Y-127508000D01*
X40640000Y-142494000D02*
X40640000Y-127508000D01*
X139836000Y-117502000D02*
X137668000Y-119670000D01*
X137668000Y-119670000D02*
X137668000Y-129032000D01*
X84836000Y-115570000D02*
X84836000Y-127508000D01*
X137668000Y-154940000D02*
X137668000Y-137414000D01*
X137668000Y-133604000D02*
X137668000Y-136470000D01*
X137668000Y-129032000D02*
X137668000Y-133604000D01*
X137668000Y-137414000D02*
X137668000Y-133604000D01*
X128016000Y-186182000D02*
X128016000Y-166878000D01*
X127000000Y-165862000D02*
X127000000Y-154940000D01*
X128016000Y-166878000D02*
X127000000Y-165862000D01*
X55880000Y-158242000D02*
X55880000Y-156210000D01*
X97536000Y-70104000D02*
X97536000Y-42418000D01*
X89154000Y-50292000D02*
X89154000Y-42418000D01*
X89154000Y-42418000D02*
X89154002Y-42417998D01*
X123444000Y-112014000D02*
X123444000Y-115316000D01*
X117856000Y-79248000D02*
X117856000Y-115316000D01*
X69342000Y-49530000D02*
X69342000Y-36322000D01*
X61976000Y-32004000D02*
X61976000Y-36322000D01*
X45212000Y-142494000D02*
X45212000Y-145796000D01*
X127000000Y-147574000D02*
X127000000Y-154940000D01*
X111506000Y-40640000D02*
X111506000Y-43942000D01*
X119126000Y-154940000D02*
X119126000Y-158242000D01*
X117856000Y-73914000D02*
X117856000Y-79248000D01*
X117602000Y-73660000D02*
X117856000Y-73914000D01*
G04 #@! TO.N,/GND*
X114046000Y-155020000D02*
X114046000Y-163830000D01*
X114046000Y-163830000D02*
X114046000Y-175768000D01*
X97790000Y-28448000D02*
X97536000Y-28702000D01*
X53166000Y-154940000D02*
X53340000Y-154940000D01*
X73486000Y-154940000D02*
X73660000Y-154940000D01*
X93806000Y-154940000D02*
X93980000Y-154940000D01*
X93980000Y-154940000D02*
X93980000Y-163322000D01*
X73486000Y-127000000D02*
X73660000Y-127000000D01*
X53340000Y-127000000D02*
X53340000Y-147574000D01*
X53166000Y-127000000D02*
X53340000Y-127000000D01*
X33020000Y-127000000D02*
X33020000Y-147574000D01*
X32846000Y-127000000D02*
X33020000Y-127000000D01*
X73660000Y-163322000D02*
X73660000Y-165354000D01*
X52324000Y-120650000D02*
X52324000Y-67310000D01*
X52324000Y-67310000D02*
X52324000Y-44450000D01*
X33655000Y-126191000D02*
X32846000Y-127000000D01*
X33655000Y-120650000D02*
X33655000Y-126191000D01*
X73660000Y-165354000D02*
X73660000Y-175514000D01*
X33020000Y-152226000D02*
X32846000Y-152400000D01*
X33020000Y-147574000D02*
X33020000Y-152226000D01*
X32846000Y-152400000D02*
X32846000Y-152480000D01*
X33020000Y-155702000D02*
X33020000Y-168402000D01*
X45720000Y-173228000D02*
X45720000Y-177038000D01*
X33020000Y-152574000D02*
X32846000Y-152400000D01*
X33020000Y-155702000D02*
X33020000Y-152574000D01*
X53340000Y-154766000D02*
X53166000Y-154940000D01*
X53340000Y-147574000D02*
X53340000Y-154766000D01*
X33020000Y-168402000D02*
X33020000Y-176530000D01*
X73660000Y-155114000D02*
X73660000Y-163322000D01*
X73486000Y-154940000D02*
X73660000Y-155114000D01*
X73660000Y-154766000D02*
X73660000Y-147574000D01*
X73486000Y-154940000D02*
X73660000Y-154766000D01*
X93980000Y-154766000D02*
X93806000Y-154940000D01*
X125476000Y-38862000D02*
X125810000Y-38862000D01*
X93726000Y-43942000D02*
X93726000Y-40132018D01*
X93726000Y-40132018D02*
X93726018Y-40132000D01*
X93726018Y-32511982D02*
X93726018Y-40132000D01*
X97536000Y-28702000D02*
X93726018Y-32511982D01*
X128270000Y-61722000D02*
X128270000Y-61214000D01*
X128270000Y-61214000D02*
X127000000Y-59944000D01*
X127000000Y-59944000D02*
X127000000Y-40640000D01*
X125810000Y-39450000D02*
X125810000Y-38862000D01*
X127000000Y-40640000D02*
X125810000Y-39450000D01*
X128270000Y-61722000D02*
X128270000Y-74422000D01*
X134366000Y-74422000D02*
X134366000Y-76962000D01*
X90932000Y-145796000D02*
X91186000Y-145542000D01*
X90932000Y-154432000D02*
X90932000Y-145796000D01*
X93726000Y-66802000D02*
X93726000Y-73660000D01*
X128270000Y-74422000D02*
X128270000Y-93980000D01*
X128016000Y-27178000D02*
X128778000Y-27178000D01*
X125810000Y-29384000D02*
X128016000Y-27178000D01*
X125810000Y-38862000D02*
X125810000Y-29384000D01*
X139836000Y-125902000D02*
X139836000Y-128016000D01*
X139836000Y-128016000D02*
X139836000Y-130102000D01*
X82296000Y-120142000D02*
X82296000Y-126492000D01*
X135636000Y-134302000D02*
X133350000Y-136588000D01*
X133350000Y-136588000D02*
X133350000Y-142748000D01*
X134112000Y-163830000D02*
X134112000Y-174752000D01*
X125984000Y-185674000D02*
X125476000Y-186182000D01*
X125984000Y-174752000D02*
X125984000Y-185674000D01*
X134112000Y-157480000D02*
X134112000Y-163830000D01*
X133350000Y-156718000D02*
X134112000Y-157480000D01*
X133350000Y-142748000D02*
X133350000Y-156718000D01*
X115824000Y-93980000D02*
X115824000Y-98298000D01*
X115824000Y-98298000D02*
X115824000Y-101346000D01*
X115824000Y-101346000D02*
X115824000Y-106172000D01*
X115824000Y-106172000D02*
X115824000Y-125476000D01*
X29718000Y-44450000D02*
X29464000Y-44704000D01*
X29718000Y-32004000D02*
X29718000Y-44450000D01*
X96012000Y-182118000D02*
X96012000Y-176276000D01*
X97536000Y-183642000D02*
X96012000Y-182118000D01*
X124460000Y-131572000D02*
X124460000Y-125476000D01*
X103886000Y-40132000D02*
X103886000Y-43942000D01*
X103886000Y-66802000D02*
X103886000Y-74930000D01*
D29*
G04 #@! TO.N,/RESET*
X87376000Y-130302000D02*
X87376000Y-128524000D01*
X90170000Y-70866000D02*
X90170000Y-70104000D01*
X87376000Y-128524000D02*
X90170000Y-125730000D01*
X90170000Y-125730000D02*
X90170000Y-70866000D01*
X90170000Y-38354000D02*
X90170000Y-70866000D01*
X132334000Y-159258000D02*
X132334000Y-149606000D01*
X125222000Y-145288000D02*
X125222000Y-149606000D01*
X127000000Y-144526000D02*
X125984000Y-144526000D01*
X125984000Y-144526000D02*
X125222000Y-145288000D01*
X47498000Y-129032000D02*
X47498000Y-172212000D01*
X113792000Y-38354000D02*
X113792000Y-45212000D01*
X84328000Y-130556000D02*
X84582000Y-130302000D01*
X84328000Y-149606000D02*
X84328000Y-130556000D01*
G04 #@! TO.N,/DRQ2*
X36068000Y-33274000D02*
X36068000Y-57150000D01*
X37338000Y-32004000D02*
X36068000Y-33274000D01*
D30*
G04 #@! TO.N,/12-*
X43434000Y-42418000D02*
X43434000Y-40386000D01*
X43688000Y-42672000D02*
X43434000Y-42418000D01*
X43688000Y-59182000D02*
X43688000Y-42672000D01*
X41656000Y-59182000D02*
X43688000Y-59182000D01*
X23114000Y-42418000D02*
X23114000Y-40386000D01*
X21336000Y-59182000D02*
X23368000Y-59182000D01*
X23368000Y-42672000D02*
X23114000Y-42418000D01*
X23368000Y-59182000D02*
X23368000Y-42672000D01*
X63754000Y-42418000D02*
X63754000Y-40386000D01*
X64008000Y-42672000D02*
X63754000Y-42418000D01*
X61976000Y-59182000D02*
X64008000Y-59182000D01*
X64008000Y-59182000D02*
X64008000Y-42672000D01*
X84328000Y-59182000D02*
X84328000Y-42672000D01*
X84328000Y-42672000D02*
X84074000Y-42418000D01*
X82296000Y-59182000D02*
X84328000Y-59182000D01*
X84074000Y-42418000D02*
X84074000Y-40386000D01*
X130556000Y-124460000D02*
X130556000Y-144780000D01*
X75692000Y-110490000D02*
X75692000Y-123952000D01*
X77978000Y-108204000D02*
X75692000Y-110490000D01*
X77978000Y-61468000D02*
X77978000Y-108204000D01*
X80264000Y-59182000D02*
X77978000Y-61468000D01*
X82296000Y-59182000D02*
X80264000Y-59182000D01*
G04 #@! TO.N,/12+*
X44958000Y-42418000D02*
X44958000Y-37846000D01*
X44704000Y-42672000D02*
X44958000Y-42418000D01*
X44704000Y-62992000D02*
X44704000Y-42672000D01*
X43434000Y-64262000D02*
X44704000Y-62992000D01*
X41656000Y-64262000D02*
X43434000Y-64262000D01*
X24638000Y-42418000D02*
X24638000Y-37846000D01*
X24384000Y-42672000D02*
X24638000Y-42418000D01*
X24384000Y-62992000D02*
X24384000Y-42672000D01*
X23114000Y-64262000D02*
X24384000Y-62992000D01*
X21336000Y-64262000D02*
X23114000Y-64262000D01*
X63754000Y-64262000D02*
X65024000Y-62992000D01*
X65024000Y-62992000D02*
X65024000Y-42672000D01*
X65024000Y-42672000D02*
X65278000Y-42418000D01*
X65278000Y-42418000D02*
X65278000Y-37846000D01*
X61976000Y-64262000D02*
X63754000Y-64262000D01*
X84074000Y-64262000D02*
X85344000Y-62992000D01*
X85598000Y-42418000D02*
X85598000Y-37846000D01*
X85344000Y-62992000D02*
X85344000Y-42672000D01*
X85344000Y-42672000D02*
X85598000Y-42418000D01*
X82296000Y-64262000D02*
X84074000Y-64262000D01*
X130556000Y-122174000D02*
X130556000Y-113284000D01*
X79248000Y-65278000D02*
X80264000Y-64262000D01*
X79248000Y-108712000D02*
X79248000Y-65278000D01*
X76962000Y-110998000D02*
X79248000Y-108712000D01*
X80264000Y-64262000D02*
X82296000Y-64262000D01*
X76962000Y-121920000D02*
X76962000Y-110998000D01*
X77470000Y-122428000D02*
X76962000Y-121920000D01*
D29*
G04 #@! TO.N,/DACK3*
X82296000Y-32004000D02*
X82296000Y-34798000D01*
X76454000Y-80010000D02*
X76454000Y-34798000D01*
G04 #@! TO.N,/DRQ3*
X34036000Y-32766000D02*
X34036000Y-82550000D01*
X34798000Y-32004000D02*
X34036000Y-32766000D01*
G04 #@! TO.N,/DACK1*
X75692000Y-33528000D02*
X77216000Y-32004000D01*
X75692000Y-85090000D02*
X75692000Y-33528000D01*
G04 #@! TO.N,/DRQ1*
X32004000Y-32258000D02*
X32004000Y-87630000D01*
X32258000Y-32004000D02*
X32004000Y-32258000D01*
G04 #@! TO.N,/DACK2*
X79756000Y-32004000D02*
X79756000Y-34036000D01*
X74168000Y-107950000D02*
X74168000Y-34036000D01*
G04 #@! TO.N,/TC*
X120396000Y-111252000D02*
X120396000Y-101346000D01*
G04 #@! TO.N,/OSC*
X23114000Y-165608000D02*
X23114000Y-169672000D01*
G04 #@! TO.N,/CH_CK*
X102108000Y-147574000D02*
X102108000Y-162052000D01*
X75955704Y-162042296D02*
X75955704Y-149695935D01*
X75946000Y-162052000D02*
X75955704Y-162042296D01*
X73406000Y-123825000D02*
X73406000Y-43434000D01*
X75946000Y-149686231D02*
X75946000Y-126365000D01*
X75946000Y-126365000D02*
X73406000Y-123825000D01*
X75955704Y-149695935D02*
X75946000Y-149686231D01*
D31*
G04 #@! TO.N,/D7*
X127000000Y-60960000D02*
X127000000Y-90932000D01*
X125730000Y-59690000D02*
X127000000Y-60960000D01*
X125730000Y-59182000D02*
X125730000Y-49022000D01*
X125730000Y-59182000D02*
X125730000Y-59690000D01*
G04 #@! TO.N,/D6*
X124460000Y-50292000D02*
X124460000Y-59944000D01*
X125730000Y-61214000D02*
X125730000Y-61722000D01*
X125730000Y-61722000D02*
X125730000Y-88392000D01*
X124460000Y-59944000D02*
X125730000Y-61214000D01*
G04 #@! TO.N,/D5*
X117856000Y-57912000D02*
X117856000Y-52832000D01*
X123190000Y-59690000D02*
X124460000Y-60960000D01*
X124460000Y-60960000D02*
X124460000Y-85852000D01*
X123190000Y-59182000D02*
X123190000Y-59690000D01*
G04 #@! TO.N,/D4*
X117094000Y-61722000D02*
X117094000Y-55372000D01*
X123190000Y-61722000D02*
X123190000Y-83312000D01*
G04 #@! TO.N,/D3*
X120650000Y-59182000D02*
X120904000Y-59436000D01*
X120904000Y-59436000D02*
X120904000Y-80772000D01*
G04 #@! TO.N,/D2*
X123190000Y-56642000D02*
X121920000Y-57912000D01*
X121920000Y-60452000D02*
X121920000Y-78232000D01*
X121920000Y-57912000D02*
X121920000Y-60452000D01*
G04 #@! TO.N,/D1*
X119380000Y-57912000D02*
X119380000Y-75695110D01*
X120650000Y-56642000D02*
X119380000Y-57912000D01*
G04 #@! TO.N,/D0*
X118618000Y-73152000D02*
X118618000Y-55372000D01*
D29*
G04 #@! TO.N,/RDY1*
X34798000Y-123698000D02*
X34798000Y-66294000D01*
X46736000Y-123698000D02*
X46736000Y-163068000D01*
G04 #@! TO.N,/AEN*
X120142000Y-69088000D02*
X120142000Y-98298000D01*
G04 #@! TO.N,/A15*
X32766000Y-123825000D02*
X32766000Y-81534000D01*
X31242000Y-125349000D02*
X32766000Y-123825000D01*
X31242000Y-128016000D02*
X31242000Y-125349000D01*
X31750000Y-128524000D02*
X31242000Y-128016000D01*
X31750000Y-137922000D02*
X31750000Y-128524000D01*
G04 #@! TO.N,/A14*
X30480000Y-114173000D02*
X30480000Y-84074000D01*
X31045990Y-114738990D02*
X30480000Y-114173000D01*
X31045990Y-122370010D02*
X31045990Y-114738990D01*
X28956000Y-126746000D02*
X28956000Y-124460000D01*
X28956000Y-124460000D02*
X31045990Y-122370010D01*
X27940000Y-127762000D02*
X28956000Y-126746000D01*
X27940000Y-135382000D02*
X27940000Y-127762000D01*
G04 #@! TO.N,/A13*
X31242000Y-86614000D02*
X31242000Y-114046000D01*
X29718000Y-127254000D02*
X28702000Y-128270000D01*
X31496000Y-122936000D02*
X29718000Y-124714000D01*
X28702000Y-128270000D02*
X28702000Y-132842000D01*
X31496000Y-114300000D02*
X31496000Y-122936000D01*
X31242000Y-114046000D02*
X31496000Y-114300000D01*
X29718000Y-124714000D02*
X29718000Y-127254000D01*
G04 #@! TO.N,/A12*
X32004000Y-123571000D02*
X32004000Y-89154000D01*
X30480000Y-125095000D02*
X32004000Y-123571000D01*
X30480000Y-130048000D02*
X30480000Y-125095000D01*
X30226000Y-130302000D02*
X30480000Y-130048000D01*
G04 #@! TO.N,/A11*
X52070000Y-128524000D02*
X51308000Y-127762000D01*
X52070000Y-137922000D02*
X52070000Y-128524000D01*
X51308000Y-127762000D02*
X51308000Y-91694000D01*
G04 #@! TO.N,/A10*
X48260000Y-127762000D02*
X49022000Y-127000000D01*
X48260000Y-135382000D02*
X48260000Y-127762000D01*
X49022000Y-127000000D02*
X49022000Y-94234000D01*
G04 #@! TO.N,/A9*
X49022000Y-128270000D02*
X49784000Y-127508000D01*
X49022000Y-132842000D02*
X49022000Y-128270000D01*
X49784000Y-127508000D02*
X49784000Y-96774000D01*
G04 #@! TO.N,/A8*
X50546000Y-130302000D02*
X50546000Y-99314000D01*
G04 #@! TO.N,/A7*
X68580000Y-135382000D02*
X68580000Y-127762000D01*
X68580000Y-127762000D02*
X69342000Y-127000000D01*
X69342000Y-127000000D02*
X69342000Y-101854000D01*
G04 #@! TO.N,/A6*
X69342000Y-132842000D02*
X69342000Y-128270000D01*
X69342000Y-128270000D02*
X70104000Y-127508000D01*
X70104000Y-127508000D02*
X70104000Y-104394000D01*
G04 #@! TO.N,/A5*
X70866000Y-130302000D02*
X70866000Y-106934000D01*
G04 #@! TO.N,/A4*
X72390000Y-137922000D02*
X72390000Y-128524000D01*
X72390000Y-128524000D02*
X71628000Y-127762000D01*
X71628000Y-127762000D02*
X71628000Y-109474000D01*
G04 #@! TO.N,/A2*
X121920000Y-50292000D02*
X119888000Y-50292000D01*
X123190000Y-49022000D02*
X121920000Y-50292000D01*
X119888000Y-50292000D02*
X118872000Y-51308000D01*
X89408000Y-114553996D02*
X89408000Y-68834000D01*
X112522000Y-52832000D02*
X113284000Y-52070000D01*
X110236000Y-52832000D02*
X112522000Y-52832000D01*
X110236000Y-52832000D02*
X108458000Y-54610000D01*
X108458000Y-68326000D02*
X108458000Y-84836000D01*
X108458000Y-54610000D02*
X108458000Y-68326000D01*
G04 #@! TO.N,/A1*
X64516000Y-151638000D02*
X64516000Y-117094000D01*
X86106000Y-163096501D02*
X86106000Y-164592000D01*
X86614000Y-162588501D02*
X86106000Y-163096501D01*
X86614000Y-151855010D02*
X86614000Y-162588501D01*
G04 #@! TO.N,/A0*
X65278000Y-119634000D02*
X65278000Y-152400000D01*
X85852000Y-152488139D02*
X85800613Y-152436752D01*
X85852000Y-162052000D02*
X85852000Y-152488139D01*
G04 #@! TO.N,/CLK*
X26162000Y-165608000D02*
X26162000Y-173482000D01*
G04 #@! TO.N,/LED_GND*
X123444000Y-106172000D02*
X123444000Y-109474000D01*
G04 #@! TO.N,/RESOUT*
X36830000Y-46990000D02*
X36830000Y-125222000D01*
X36830000Y-125222000D02*
X36068000Y-125984000D01*
X36068000Y-125984000D02*
X36068000Y-175514000D01*
G04 #@! TO.N,/MWR*
X70358000Y-69850000D02*
X70358000Y-35560000D01*
X64516000Y-32004000D02*
X64516000Y-35556890D01*
G04 #@! TO.N,/MRD*
X67056000Y-32004000D02*
X67056000Y-34798000D01*
X71120000Y-72390000D02*
X71120000Y-34798000D01*
G04 #@! TO.N,/IOWR*
X106934000Y-150368000D02*
X106934000Y-160528000D01*
X69596000Y-32004000D02*
X69596000Y-34036000D01*
X97028000Y-75692000D02*
X97028000Y-90932000D01*
X116332000Y-69538011D02*
X116332000Y-69850000D01*
X116332000Y-52070000D02*
X116332000Y-69850000D01*
X116332000Y-69850000D02*
X116332000Y-90932000D01*
X72644000Y-74930000D02*
X72644000Y-34036000D01*
X72644000Y-74930000D02*
X72644000Y-123952000D01*
X72644000Y-123952000D02*
X75184000Y-126492000D01*
X75184000Y-126492000D02*
X75184000Y-149860000D01*
G04 #@! TO.N,/IORD*
X113792000Y-49530000D02*
X114046000Y-49784000D01*
X71882000Y-77470000D02*
X71882000Y-32258000D01*
X114046000Y-69088000D02*
X112522000Y-70612000D01*
X112522000Y-70612000D02*
X112522000Y-88392000D01*
X112522000Y-88392000D02*
X112522000Y-156210000D01*
X114046000Y-49784000D02*
X114046000Y-69088000D01*
X112522000Y-156210000D02*
X113280890Y-156968890D01*
X113280890Y-156968890D02*
X113280890Y-162814000D01*
X99060000Y-77215992D02*
X99060000Y-88392000D01*
X71882000Y-32258000D02*
X72136000Y-32004000D01*
G04 #@! TO.N,/REFRQ*
X74930000Y-32258000D02*
X74676000Y-32004000D01*
X74930000Y-90170000D02*
X74930000Y-32258000D01*
G04 #@! TO.N,/IO_0060*
X102870000Y-69850000D02*
X102870000Y-167893988D01*
X112522000Y-55372000D02*
X113284000Y-54610000D01*
X117094000Y-54102000D02*
X117094000Y-46482000D01*
X109982000Y-55372000D02*
X112522000Y-55372000D01*
X109220000Y-56134000D02*
X109982000Y-55372000D01*
X109220000Y-69850000D02*
X109220000Y-56134000D01*
G04 #@! TO.N,/IO_00EX*
X114554000Y-87122000D02*
X114554000Y-96012000D01*
X114554000Y-96012000D02*
X114300000Y-96266000D01*
X114554000Y-137414000D02*
X114554000Y-151130000D01*
X114300000Y-116332000D02*
X114300000Y-137160000D01*
X114300000Y-96266000D02*
X114300000Y-116332000D01*
X114300000Y-137160000D02*
X114554000Y-137414000D01*
X114300000Y-116332000D02*
X114300000Y-116586000D01*
X74422000Y-150622000D02*
X74676000Y-150876000D01*
X74422000Y-146050000D02*
X74422000Y-150622000D01*
D28*
G04 #@! TO.N,/POWER_GOOD*
X120904000Y-120396000D02*
X120904000Y-144526000D01*
D29*
G04 #@! TO.N,/NMI_EN*
X91694000Y-129794000D02*
X91186000Y-130302000D01*
X105664000Y-52070000D02*
X106680000Y-53086000D01*
X122174000Y-134112000D02*
X122174000Y-129032000D01*
X91440000Y-68072000D02*
X91694000Y-68326000D01*
X91440000Y-50292000D02*
X91440000Y-68072000D01*
X106680000Y-53086000D02*
X106680000Y-53594000D01*
X91694000Y-68326000D02*
X91694000Y-129794000D01*
X105664000Y-51054000D02*
X105664000Y-52070000D01*
G04 #@! TO.N,/NMI*
X95504000Y-137922000D02*
X95504000Y-146812000D01*
G04 #@! TO.N,/READY*
X34544000Y-134112000D02*
X34544000Y-165354000D01*
G04 #@! TO.N,/HF_PCLK*
X48514000Y-168402000D02*
X48514000Y-150368000D01*
X68579982Y-150368000D02*
X68579982Y-141478000D01*
G04 #@! TO.N,/IRQ1*
X83058000Y-130302000D02*
X84582000Y-128778000D01*
X82296000Y-130302000D02*
X83058000Y-130302000D01*
X134620000Y-50292000D02*
X134620000Y-71373996D01*
X90932000Y-127000000D02*
X90932000Y-71374000D01*
X89154000Y-128778000D02*
X90932000Y-127000000D01*
G04 #@! TO.N,/SPK_OUT*
X87376000Y-148082000D02*
X87376000Y-163104990D01*
X87376000Y-163104990D02*
X87158990Y-163322000D01*
G04 #@! TO.N,/SPK_GO*
X85090000Y-145542000D02*
X85090000Y-131572000D01*
X105664000Y-63754000D02*
X105664000Y-64770000D01*
X106680000Y-65786000D02*
X106680000Y-66294000D01*
X105664000Y-64770000D02*
X106680000Y-65786000D01*
X98552000Y-75692000D02*
X98552000Y-64262000D01*
X97536000Y-125730000D02*
X98298000Y-124968000D01*
X97536000Y-131572000D02*
X97536000Y-125730000D01*
X98298000Y-75946000D02*
X98552000Y-75692000D01*
X98298000Y-124968000D02*
X98298000Y-75946000D01*
G04 #@! TO.N,/SPK_EN*
X92202000Y-60452000D02*
X92202000Y-74168000D01*
X92964000Y-129032000D02*
X92964000Y-140462000D01*
X92202000Y-128270000D02*
X92964000Y-129032000D01*
X92202000Y-74168000D02*
X92202000Y-128270000D01*
X92202000Y-74168000D02*
X92202000Y-73914000D01*
X105664000Y-61214000D02*
X105664000Y-62230000D01*
X106680000Y-63246000D02*
X106680000Y-63754000D01*
X105664000Y-62230000D02*
X106680000Y-63246000D01*
G04 #@! TO.N,/IO_0XXX*
X41910000Y-140462000D02*
X41910000Y-132842000D01*
G04 #@! TO.N,/PCLK*
X64516000Y-169418000D02*
X62992000Y-170942000D01*
X64516000Y-159512000D02*
X64516000Y-169418000D01*
G04 #@! TO.N,/X2_8284*
X44196000Y-161544000D02*
X44450000Y-161544000D01*
X44450000Y-161544000D02*
X45212000Y-162306000D01*
X45212000Y-166370000D02*
X45720000Y-166878000D01*
X45212000Y-162306000D02*
X45212000Y-166370000D01*
G04 #@! TO.N,/X1_8284*
X42672000Y-158168000D02*
X42672000Y-166878000D01*
X44196000Y-156644000D02*
X42672000Y-158168000D01*
G04 #@! TO.N,/IO_00XX*
X67310000Y-132842000D02*
X67310000Y-140462000D01*
G04 #@! TO.N,/IO_006X*
X76708000Y-159512000D02*
X76708000Y-140462000D01*
G04 #@! TO.N,/FB2*
X53594000Y-160782000D02*
X53594000Y-170942000D01*
G04 #@! TO.N,/PORT_0X61_CS*
X99822000Y-66802000D02*
X99822000Y-93980000D01*
X99822000Y-93980000D02*
X100330000Y-94488000D01*
X100330000Y-94488000D02*
X100330000Y-145542000D01*
G04 #@! TO.N,/NMI_EN_139*
X91948000Y-157480000D02*
X91948000Y-147574000D01*
X91186000Y-158242000D02*
X91948000Y-157480000D01*
X93980000Y-132842000D02*
X93980000Y-147574000D01*
G04 #@! TO.N,/PORT_0X61_EN*
X97282000Y-164592000D02*
X97282000Y-143002000D01*
G04 #@! TO.N,/NMI_INPUT*
X94742000Y-152654000D02*
X94742000Y-135890010D01*
X94996000Y-165862000D02*
X94996000Y-152908000D01*
X94996000Y-152908000D02*
X94742000Y-152654000D01*
X94742000Y-135890010D02*
X94741990Y-135890000D01*
G04 #@! TO.N,/IO_0061*
X103632000Y-170434000D02*
X103632000Y-157734000D01*
X116840000Y-158750000D02*
X116840000Y-160274000D01*
G04 #@! TO.N,/T1*
X132080000Y-45212000D02*
X132080000Y-41910000D01*
X133350000Y-46482000D02*
X132080000Y-45212000D01*
X131064000Y-36576000D02*
X131064000Y-36068000D01*
X132334000Y-37846000D02*
X131064000Y-36576000D01*
X132334000Y-39878000D02*
X132334000Y-37846000D01*
X132080000Y-40132000D02*
X132334000Y-39878000D01*
X131064000Y-27355800D02*
X130886200Y-27178000D01*
X132080000Y-41910000D02*
X132080000Y-40132000D01*
X131064000Y-36068000D02*
X131064000Y-27355800D01*
X115062000Y-69850000D02*
X114554000Y-70358000D01*
X114554000Y-70358000D02*
X114554000Y-85852000D01*
X115316000Y-42418000D02*
X115062000Y-42672000D01*
X115062000Y-42672000D02*
X115062000Y-69850000D01*
G04 #@! TO.N,/T0*
X128270000Y-43942000D02*
X128270000Y-42672000D01*
X128016000Y-42418000D02*
X128016000Y-33020000D01*
X128016000Y-30429200D02*
X128778000Y-29667200D01*
X115606990Y-43651010D02*
X115606990Y-78174513D01*
X128016000Y-33020000D02*
X128016000Y-30429200D01*
X128270000Y-42672000D02*
X128016000Y-42418000D01*
X116078000Y-43180000D02*
X115606990Y-43651010D01*
X115570000Y-43688000D02*
X115570000Y-78014990D01*
X116078000Y-43180000D02*
X115570000Y-43688000D01*
X115570000Y-78014990D02*
X115787010Y-78232000D01*
G04 #@! TO.N,/KBD_CLK*
X132080000Y-48768000D02*
X132080000Y-72135988D01*
X96716010Y-125279990D02*
X96716010Y-132784010D01*
X97028000Y-96774000D02*
X97028000Y-124968000D01*
X97028000Y-124968000D02*
X96716010Y-125279990D01*
X132080000Y-72135988D02*
X132079988Y-72136000D01*
X97028000Y-133096000D02*
X97028000Y-137922000D01*
X97790000Y-72136000D02*
X97790000Y-96012000D01*
X97790000Y-96012000D02*
X97028000Y-96774000D01*
X96716010Y-132784010D02*
X97028000Y-133096000D01*
G04 #@! TO.N,/KBD_DATA*
X114554000Y-69596000D02*
X113792000Y-70358000D01*
X113792000Y-70358000D02*
X113792000Y-80772000D01*
X114554000Y-41656000D02*
X114554000Y-69596000D01*
X133350000Y-43942000D02*
X133350000Y-41148000D01*
G04 #@! TO.N,/KBD_CLK_INVERTED*
X96266000Y-124460000D02*
X96266000Y-76962000D01*
X96012000Y-124714000D02*
X96266000Y-124460000D01*
X96012000Y-133604000D02*
X96012000Y-124714000D01*
X96266000Y-133858000D02*
X96012000Y-133604000D01*
X96266000Y-140462000D02*
X96266000Y-133858000D01*
D28*
G04 #@! TO.N,/POWER_ON*
X129032000Y-140716000D02*
X129032000Y-172212000D01*
D29*
G04 #@! TO.N,/FB1*
X54356000Y-173482000D02*
X54356000Y-163322000D01*
G04 #@! TO.N,/HF_OSC*
X129540000Y-47752000D02*
X129540000Y-70612000D01*
X128270000Y-46482000D02*
X129540000Y-47752000D01*
X110236000Y-151892000D02*
X110236000Y-70612000D01*
X88138000Y-151892000D02*
X87884000Y-152146000D01*
X87884000Y-152146000D02*
X87884000Y-172212000D01*
G04 #@! TO.N,/SPK_PIN_O*
X120396000Y-186182000D02*
X120396000Y-177800000D01*
G04 #@! TO.N,/SPK_EN_*
X89154000Y-160274000D02*
X89154000Y-143002000D01*
G04 #@! TO.N,/OSC88*
X23368000Y-155194000D02*
X23114000Y-155448000D01*
X23368000Y-118110000D02*
X23368000Y-155194000D01*
G04 #@! TO.N,/CLK88*
X26162000Y-123444000D02*
X26162000Y-155448000D01*
X24130000Y-121412000D02*
X26162000Y-123444000D01*
X24130000Y-92710000D02*
X24130000Y-121412000D01*
G04 #@! TO.N,/OSC88HF*
X66040000Y-160782000D02*
X66040000Y-165862000D01*
G04 #@! TO.N,/PORT_61_RD*
X111506000Y-46482000D02*
X109728000Y-46482000D01*
X109728000Y-46482000D02*
X107696000Y-48514000D01*
X107696000Y-48514000D02*
X107696000Y-167132000D01*
G04 #@! TO.N,/PORT_61_7*
X106680000Y-48006000D02*
X106680000Y-48514000D01*
X105664000Y-46990000D02*
X106680000Y-48006000D01*
X105664000Y-45974000D02*
X105664000Y-46990000D01*
G04 #@! TO.N,/PORT_61_6*
X105664000Y-48514000D02*
X105664000Y-49530000D01*
X106680000Y-50546000D02*
X106680000Y-51054000D01*
X105664000Y-49530000D02*
X106680000Y-50546000D01*
G04 #@! TO.N,/PORT_61_4*
X106680000Y-55626000D02*
X106680000Y-56134000D01*
X105664000Y-53594000D02*
X105664000Y-54610000D01*
X105664000Y-54610000D02*
X106680000Y-55626000D01*
G04 #@! TO.N,/PORT_61_3*
X105664000Y-56134000D02*
X105664000Y-57150000D01*
X106680000Y-58166000D02*
X106680000Y-58674000D01*
X105664000Y-57150000D02*
X106680000Y-58166000D01*
G04 #@! TO.N,/PORT_61_2*
X106680000Y-60706000D02*
X106680000Y-61214000D01*
X105664000Y-59690000D02*
X106680000Y-60706000D01*
X105664000Y-58674000D02*
X105664000Y-59690000D01*
G04 #@! TD*
M02*
