G04 #@! TF.GenerationSoftware,KiCad,Pcbnew,(5.1.8)-1*
G04 #@! TF.CreationDate,2022-06-12T13:47:46-06:00*
G04 #@! TF.ProjectId,USB Adapter,55534220-4164-4617-9074-65722e6b6963,rev?*
G04 #@! TF.SameCoordinates,Original*
G04 #@! TF.FileFunction,Copper,L1,Top*
G04 #@! TF.FilePolarity,Positive*
%FSLAX46Y46*%
G04 Gerber Fmt 4.6, Leading zero omitted, Abs format (unit mm)*
G04 Created by KiCad (PCBNEW (5.1.8)-1) date 2022-06-12 13:47:46*
%MOMM*%
%LPD*%
G01*
G04 APERTURE LIST*
G04 #@! TA.AperFunction,ComponentPad*
%ADD10O,1.700000X1.700000*%
G04 #@! TD*
G04 #@! TA.AperFunction,ComponentPad*
%ADD11R,1.700000X1.700000*%
G04 #@! TD*
G04 #@! TA.AperFunction,ViaPad*
%ADD12C,0.800000*%
G04 #@! TD*
G04 #@! TA.AperFunction,Conductor*
%ADD13C,0.250000*%
G04 #@! TD*
G04 #@! TA.AperFunction,Conductor*
%ADD14C,0.330200*%
G04 #@! TD*
G04 APERTURE END LIST*
D10*
G04 #@! TO.P,J2,16*
G04 #@! TO.N,/5+*
X152400000Y-99060000D03*
G04 #@! TO.P,J2,15*
G04 #@! TO.N,/D7*
X149860000Y-99060000D03*
G04 #@! TO.P,J2,14*
G04 #@! TO.N,/GND*
X152400000Y-96520000D03*
G04 #@! TO.P,J2,13*
G04 #@! TO.N,/D6*
X149860000Y-96520000D03*
G04 #@! TO.P,J2,12*
G04 #@! TO.N,/CS*
X152400000Y-93980000D03*
G04 #@! TO.P,J2,11*
G04 #@! TO.N,/D5*
X149860000Y-93980000D03*
G04 #@! TO.P,J2,10*
G04 #@! TO.N,/INT*
X152400000Y-91440000D03*
G04 #@! TO.P,J2,9*
G04 #@! TO.N,/D4*
X149860000Y-91440000D03*
G04 #@! TO.P,J2,8*
G04 #@! TO.N,/GND*
X152400000Y-88900000D03*
G04 #@! TO.P,J2,7*
G04 #@! TO.N,/D3*
X149860000Y-88900000D03*
G04 #@! TO.P,J2,6*
G04 #@! TO.N,/WR*
X152400000Y-86360000D03*
G04 #@! TO.P,J2,5*
G04 #@! TO.N,/D2*
X149860000Y-86360000D03*
G04 #@! TO.P,J2,4*
G04 #@! TO.N,/RD*
X152400000Y-83820000D03*
G04 #@! TO.P,J2,3*
G04 #@! TO.N,/D1*
X149860000Y-83820000D03*
G04 #@! TO.P,J2,2*
G04 #@! TO.N,/A0*
X152400000Y-81280000D03*
D11*
G04 #@! TO.P,J2,1*
G04 #@! TO.N,/D0*
X149860000Y-81280000D03*
G04 #@! TD*
D10*
G04 #@! TO.P,J1,16*
G04 #@! TO.N,/WR*
X139700000Y-99060000D03*
G04 #@! TO.P,J1,15*
G04 #@! TO.N,/D7*
X137160000Y-99060000D03*
G04 #@! TO.P,J1,14*
G04 #@! TO.N,/RD*
X139700000Y-96520000D03*
G04 #@! TO.P,J1,13*
G04 #@! TO.N,/D6*
X137160000Y-96520000D03*
G04 #@! TO.P,J1,12*
G04 #@! TO.N,/CS*
X139700000Y-93980000D03*
G04 #@! TO.P,J1,11*
G04 #@! TO.N,/D5*
X137160000Y-93980000D03*
G04 #@! TO.P,J1,10*
G04 #@! TO.N,/A0*
X139700000Y-91440000D03*
G04 #@! TO.P,J1,9*
G04 #@! TO.N,/D4*
X137160000Y-91440000D03*
G04 #@! TO.P,J1,8*
G04 #@! TO.N,/INT*
X139700000Y-88900000D03*
G04 #@! TO.P,J1,7*
G04 #@! TO.N,/D3*
X137160000Y-88900000D03*
G04 #@! TO.P,J1,6*
G04 #@! TO.N,/5+*
X139700000Y-86360000D03*
G04 #@! TO.P,J1,5*
G04 #@! TO.N,/D2*
X137160000Y-86360000D03*
G04 #@! TO.P,J1,4*
G04 #@! TO.N,/GND*
X139700000Y-83820000D03*
G04 #@! TO.P,J1,3*
G04 #@! TO.N,/D1*
X137160000Y-83820000D03*
G04 #@! TO.P,J1,2*
G04 #@! TO.N,/GND*
X139700000Y-81280000D03*
D11*
G04 #@! TO.P,J1,1*
G04 #@! TO.N,/D0*
X137160000Y-81280000D03*
G04 #@! TD*
D12*
G04 #@! TO.N,/WR*
X143764000Y-99568000D03*
X143764000Y-86614000D03*
G04 #@! TO.N,/RD*
X143002000Y-97028000D03*
X143002000Y-84074000D03*
G04 #@! TO.N,/A0*
X142240000Y-81788000D03*
X142240000Y-91948000D03*
G04 #@! TO.N,/INT*
X144526000Y-91948000D03*
X144526000Y-89408000D03*
G04 #@! TO.N,/5+*
X146812000Y-99568000D03*
X147066000Y-87376000D03*
G04 #@! TO.N,/GND*
X145796000Y-89408000D03*
X145796000Y-85090000D03*
X145796000Y-97028000D03*
G04 #@! TD*
D13*
G04 #@! TO.N,/D7*
X149352000Y-98552000D02*
X149860000Y-99060000D01*
G04 #@! TO.N,/D3*
X149352000Y-88392000D02*
X149860000Y-88900000D01*
G04 #@! TO.N,/D6*
X149352000Y-96012000D02*
X149860000Y-96520000D01*
G04 #@! TO.N,/D5*
X149352000Y-93472000D02*
X149860000Y-93980000D01*
G04 #@! TO.N,/D4*
X149352000Y-90932000D02*
X149860000Y-91440000D01*
G04 #@! TO.N,/CS*
X148590000Y-95250000D02*
X147828000Y-94488000D01*
X151130000Y-95250000D02*
X148590000Y-95250000D01*
X152400000Y-93980000D02*
X151130000Y-95250000D01*
G04 #@! TO.N,/D0*
X149352000Y-80772000D02*
X149860000Y-81280000D01*
G04 #@! TO.N,/INT*
X152400000Y-91440000D02*
X151130000Y-92710000D01*
X151130000Y-92710000D02*
X148590000Y-92710000D01*
X148590000Y-92710000D02*
X147828000Y-91948000D01*
G04 #@! TO.N,/WR*
X140208000Y-99568000D02*
X139700000Y-99060000D01*
X143764000Y-99568000D02*
X140208000Y-99568000D01*
X151130000Y-87630000D02*
X152400000Y-86360000D01*
X148590000Y-87630000D02*
X151130000Y-87630000D01*
X147320000Y-86360000D02*
X148590000Y-87630000D01*
X146812000Y-86360000D02*
X147320000Y-86360000D01*
X146558000Y-86614000D02*
X146812000Y-86360000D01*
X143764000Y-86614000D02*
X146558000Y-86614000D01*
G04 #@! TO.N,/D7*
X141732000Y-98552000D02*
X149352000Y-98552000D01*
X140970000Y-97790000D02*
X141732000Y-98552000D01*
X138430000Y-97790000D02*
X140970000Y-97790000D01*
X137160000Y-99060000D02*
X138430000Y-97790000D01*
G04 #@! TO.N,/RD*
X140208000Y-97028000D02*
X139700000Y-96520000D01*
X143002000Y-97028000D02*
X140208000Y-97028000D01*
X148590000Y-85090000D02*
X147574000Y-84074000D01*
X152400000Y-83820000D02*
X151130000Y-85090000D01*
X151130000Y-85090000D02*
X148590000Y-85090000D01*
X147574000Y-84074000D02*
X143002000Y-84074000D01*
G04 #@! TO.N,/D6*
X141732000Y-96012000D02*
X149352000Y-96012000D01*
X140970000Y-95250000D02*
X141732000Y-96012000D01*
X138430000Y-95250000D02*
X140970000Y-95250000D01*
X137160000Y-96520000D02*
X138430000Y-95250000D01*
G04 #@! TO.N,/CS*
X140208000Y-94488000D02*
X139700000Y-93980000D01*
X147828000Y-94488000D02*
X140208000Y-94488000D01*
G04 #@! TO.N,/D5*
X141732000Y-93472000D02*
X149352000Y-93472000D01*
X140970000Y-92710000D02*
X141732000Y-93472000D01*
X138430000Y-92710000D02*
X140970000Y-92710000D01*
X137160000Y-93980000D02*
X138430000Y-92710000D01*
G04 #@! TO.N,/A0*
X152400000Y-81280000D02*
X151130000Y-82550000D01*
X151130000Y-82550000D02*
X148590000Y-82550000D01*
X148590000Y-82550000D02*
X147828000Y-81788000D01*
X140208000Y-91948000D02*
X139700000Y-91440000D01*
X142240000Y-91948000D02*
X140208000Y-91948000D01*
X147828000Y-81788000D02*
X142240000Y-81788000D01*
G04 #@! TO.N,/D4*
X141732000Y-90932000D02*
X149352000Y-90932000D01*
X140970000Y-90170000D02*
X141732000Y-90932000D01*
X138430000Y-90170000D02*
X140970000Y-90170000D01*
X137160000Y-91440000D02*
X138430000Y-90170000D01*
G04 #@! TO.N,/INT*
X140208000Y-89408000D02*
X139700000Y-88900000D01*
X144526000Y-89408000D02*
X140208000Y-89408000D01*
X147828000Y-91948000D02*
X144526000Y-91948000D01*
G04 #@! TO.N,/D3*
X141732000Y-88392000D02*
X149352000Y-88392000D01*
X140970000Y-87630000D02*
X141732000Y-88392000D01*
X138430000Y-87630000D02*
X140970000Y-87630000D01*
X137160000Y-88900000D02*
X138430000Y-87630000D01*
D14*
G04 #@! TO.N,/5+*
X148590000Y-100330000D02*
X147828000Y-99568000D01*
X151130000Y-100330000D02*
X148590000Y-100330000D01*
X152400000Y-99060000D02*
X151130000Y-100330000D01*
X146812000Y-99568000D02*
X146812000Y-99568000D01*
X146812000Y-87630000D02*
X147066000Y-87376000D01*
X142494000Y-87630000D02*
X146812000Y-87630000D01*
X141732000Y-86868000D02*
X142494000Y-87630000D01*
X140208000Y-86868000D02*
X141732000Y-86868000D01*
X139700000Y-86360000D02*
X140208000Y-86868000D01*
X147066000Y-87376000D02*
X147066000Y-87376000D01*
X147828000Y-99568000D02*
X146812000Y-99568000D01*
D13*
G04 #@! TO.N,/D2*
X149352000Y-85852000D02*
X149860000Y-86360000D01*
X146558000Y-85852000D02*
X149352000Y-85852000D01*
X146304000Y-86106000D02*
X146558000Y-85852000D01*
X144526000Y-86106000D02*
X146304000Y-86106000D01*
X144272000Y-85852000D02*
X144526000Y-86106000D01*
X141732000Y-85852000D02*
X144272000Y-85852000D01*
X140970000Y-85090000D02*
X141732000Y-85852000D01*
X138430000Y-85090000D02*
X140970000Y-85090000D01*
X137160000Y-86360000D02*
X138430000Y-85090000D01*
D14*
G04 #@! TO.N,/GND*
X142240000Y-85090000D02*
X145796000Y-85090000D01*
X141478000Y-84328000D02*
X142240000Y-85090000D01*
X140208000Y-84328000D02*
X141478000Y-84328000D01*
X139700000Y-83820000D02*
X140208000Y-84328000D01*
X148590000Y-90170000D02*
X147828000Y-89408000D01*
X151130000Y-90170000D02*
X148590000Y-90170000D01*
X152400000Y-88900000D02*
X151130000Y-90170000D01*
X145796000Y-89408000D02*
X145796000Y-89408000D01*
X148590000Y-97790000D02*
X147828000Y-97028000D01*
X151130000Y-97790000D02*
X148590000Y-97790000D01*
X152400000Y-96520000D02*
X151130000Y-97790000D01*
X147828000Y-89408000D02*
X145796000Y-89408000D01*
X147828000Y-97028000D02*
X145796000Y-97028000D01*
D13*
G04 #@! TO.N,/D1*
X149352000Y-83312000D02*
X149860000Y-83820000D01*
X141732000Y-83312000D02*
X149352000Y-83312000D01*
X140970000Y-82550000D02*
X141732000Y-83312000D01*
X138430000Y-82550000D02*
X140970000Y-82550000D01*
X137160000Y-83820000D02*
X138430000Y-82550000D01*
G04 #@! TO.N,/D0*
X141732000Y-80772000D02*
X149352000Y-80772000D01*
X140970000Y-80010000D02*
X141732000Y-80772000D01*
X138430000Y-80010000D02*
X140970000Y-80010000D01*
X137160000Y-81280000D02*
X138430000Y-80010000D01*
G04 #@! TD*
M02*
