G04 #@! TF.GenerationSoftware,KiCad,Pcbnew,(5.1.8)-1*
G04 #@! TF.CreationDate,2022-11-03T09:02:15-06:00*
G04 #@! TF.ProjectId,V40 64K 640K ISA,56343020-3634-44b2-9036-34304b204953,rev?*
G04 #@! TF.SameCoordinates,Original*
G04 #@! TF.FileFunction,Copper,L2,Bot*
G04 #@! TF.FilePolarity,Positive*
%FSLAX46Y46*%
G04 Gerber Fmt 4.6, Leading zero omitted, Abs format (unit mm)*
G04 Created by KiCad (PCBNEW (5.1.8)-1) date 2022-11-03 09:02:15*
%MOMM*%
%LPD*%
G01*
G04 APERTURE LIST*
G04 #@! TA.AperFunction,ComponentPad*
%ADD10O,2.000000X1.440000*%
G04 #@! TD*
G04 #@! TA.AperFunction,ComponentPad*
%ADD11R,2.000000X1.440000*%
G04 #@! TD*
G04 #@! TA.AperFunction,ComponentPad*
%ADD12O,1.600000X1.600000*%
G04 #@! TD*
G04 #@! TA.AperFunction,ComponentPad*
%ADD13C,1.600000*%
G04 #@! TD*
G04 #@! TA.AperFunction,ComponentPad*
%ADD14C,1.500000*%
G04 #@! TD*
G04 #@! TA.AperFunction,ComponentPad*
%ADD15R,1.600000X1.600000*%
G04 #@! TD*
G04 #@! TA.AperFunction,ComponentPad*
%ADD16C,1.422400*%
G04 #@! TD*
G04 #@! TA.AperFunction,ComponentPad*
%ADD17R,1.422400X1.422400*%
G04 #@! TD*
G04 #@! TA.AperFunction,ConnectorPad*
%ADD18R,1.780000X7.620000*%
G04 #@! TD*
G04 #@! TA.AperFunction,ComponentPad*
%ADD19C,3.556000*%
G04 #@! TD*
G04 #@! TA.AperFunction,ViaPad*
%ADD20C,0.800000*%
G04 #@! TD*
G04 #@! TA.AperFunction,Conductor*
%ADD21C,0.250000*%
G04 #@! TD*
G04 #@! TA.AperFunction,Conductor*
%ADD22C,0.330200*%
G04 #@! TD*
G04 APERTURE END LIST*
D10*
G04 #@! TO.P,U1,17*
G04 #@! TO.N,/D3*
X102100380Y-111988600D03*
G04 #@! TO.P,U1,16*
G04 #@! TO.N,GND*
X86860380Y-111988600D03*
G04 #@! TO.P,U1,18*
G04 #@! TO.N,/D4*
X102100380Y-109448600D03*
G04 #@! TO.P,U1,15*
G04 #@! TO.N,/D2*
X86860380Y-109448600D03*
G04 #@! TO.P,U1,19*
G04 #@! TO.N,/D5*
X102100380Y-106908600D03*
G04 #@! TO.P,U1,14*
G04 #@! TO.N,/D1*
X86860380Y-106908600D03*
G04 #@! TO.P,U1,20*
G04 #@! TO.N,/D6*
X102100380Y-104368600D03*
G04 #@! TO.P,U1,13*
G04 #@! TO.N,/D0*
X86860380Y-104368600D03*
G04 #@! TO.P,U1,21*
G04 #@! TO.N,/D7*
X102100380Y-101828600D03*
G04 #@! TO.P,U1,12*
G04 #@! TO.N,/A0*
X86860380Y-101828600D03*
G04 #@! TO.P,U1,22*
G04 #@! TO.N,/64K_ROM_CS*
X102100380Y-99288600D03*
G04 #@! TO.P,U1,11*
G04 #@! TO.N,/A1*
X86860380Y-99288600D03*
G04 #@! TO.P,U1,23*
G04 #@! TO.N,/A10*
X102100380Y-96748600D03*
G04 #@! TO.P,U1,10*
G04 #@! TO.N,/A2*
X86860380Y-96748600D03*
G04 #@! TO.P,U1,24*
G04 #@! TO.N,/MRD*
X102100380Y-94208600D03*
G04 #@! TO.P,U1,9*
G04 #@! TO.N,/A3*
X86860380Y-94208600D03*
G04 #@! TO.P,U1,25*
G04 #@! TO.N,/A11*
X102100380Y-91668600D03*
G04 #@! TO.P,U1,8*
G04 #@! TO.N,/A4*
X86860380Y-91668600D03*
G04 #@! TO.P,U1,26*
G04 #@! TO.N,/A9*
X102100380Y-89128600D03*
G04 #@! TO.P,U1,7*
G04 #@! TO.N,/A5*
X86860380Y-89128600D03*
G04 #@! TO.P,U1,27*
G04 #@! TO.N,/A8*
X102100380Y-86588600D03*
G04 #@! TO.P,U1,6*
G04 #@! TO.N,/A6*
X86860380Y-86588600D03*
G04 #@! TO.P,U1,28*
G04 #@! TO.N,/A13*
X102100380Y-84048600D03*
G04 #@! TO.P,U1,5*
G04 #@! TO.N,/A7*
X86860380Y-84048600D03*
G04 #@! TO.P,U1,29*
G04 #@! TO.N,/A14*
X102100380Y-81508600D03*
G04 #@! TO.P,U1,4*
G04 #@! TO.N,/A12*
X86860380Y-81508600D03*
G04 #@! TO.P,U1,30*
G04 #@! TO.N,GND*
X102100380Y-78968600D03*
G04 #@! TO.P,U1,3*
G04 #@! TO.N,/A15*
X86860380Y-78968600D03*
G04 #@! TO.P,U1,31*
G04 #@! TO.N,VCC*
X102100380Y-76428600D03*
G04 #@! TO.P,U1,2*
G04 #@! TO.N,GND*
X86860380Y-76428600D03*
G04 #@! TO.P,U1,32*
G04 #@! TO.N,VCC*
X102100380Y-73888600D03*
D11*
G04 #@! TO.P,U1,1*
G04 #@! TO.N,GND*
X86860380Y-73888600D03*
G04 #@! TD*
D12*
G04 #@! TO.P,R2,2*
G04 #@! TO.N,/DEN*
X41394380Y-73126600D03*
D13*
G04 #@! TO.P,R2,1*
G04 #@! TO.N,VCC*
X31234380Y-73126600D03*
G04 #@! TD*
D12*
G04 #@! TO.P,R1,2*
G04 #@! TO.N,GND*
X31234380Y-76174600D03*
D13*
G04 #@! TO.P,R1,1*
G04 #@! TO.N,/POLL*
X41394380Y-76174600D03*
G04 #@! TD*
D14*
G04 #@! TO.P,Y1,2*
G04 #@! TO.N,/X2*
X114874380Y-62458600D03*
G04 #@! TO.P,Y1,1*
G04 #@! TO.N,/X1*
X109974380Y-62458600D03*
G04 #@! TD*
D12*
G04 #@! TO.P,U10,20*
G04 #@! TO.N,VCC*
X56634380Y-99796600D03*
G04 #@! TO.P,U10,10*
G04 #@! TO.N,GND*
X49014380Y-122656600D03*
G04 #@! TO.P,U10,19*
G04 #@! TO.N,/A7*
X56634380Y-102336600D03*
G04 #@! TO.P,U10,9*
G04 #@! TO.N,/AD0*
X49014380Y-120116600D03*
G04 #@! TO.P,U10,18*
G04 #@! TO.N,/A6*
X56634380Y-104876600D03*
G04 #@! TO.P,U10,8*
G04 #@! TO.N,/AD1*
X49014380Y-117576600D03*
G04 #@! TO.P,U10,17*
G04 #@! TO.N,/A5*
X56634380Y-107416600D03*
G04 #@! TO.P,U10,7*
G04 #@! TO.N,/AD2*
X49014380Y-115036600D03*
G04 #@! TO.P,U10,16*
G04 #@! TO.N,/A4*
X56634380Y-109956600D03*
G04 #@! TO.P,U10,6*
G04 #@! TO.N,/AD3*
X49014380Y-112496600D03*
G04 #@! TO.P,U10,15*
G04 #@! TO.N,/A3*
X56634380Y-112496600D03*
G04 #@! TO.P,U10,5*
G04 #@! TO.N,/AD4*
X49014380Y-109956600D03*
G04 #@! TO.P,U10,14*
G04 #@! TO.N,/A2*
X56634380Y-115036600D03*
G04 #@! TO.P,U10,4*
G04 #@! TO.N,/AD5*
X49014380Y-107416600D03*
G04 #@! TO.P,U10,13*
G04 #@! TO.N,/A1*
X56634380Y-117576600D03*
G04 #@! TO.P,U10,3*
G04 #@! TO.N,/AD6*
X49014380Y-104876600D03*
G04 #@! TO.P,U10,12*
G04 #@! TO.N,/A0*
X56634380Y-120116600D03*
G04 #@! TO.P,U10,2*
G04 #@! TO.N,/AD7*
X49014380Y-102336600D03*
G04 #@! TO.P,U10,11*
G04 #@! TO.N,/ALE*
X56634380Y-122656600D03*
D15*
G04 #@! TO.P,U10,1*
G04 #@! TO.N,/HOLDA*
X49014380Y-99796600D03*
G04 #@! TD*
D12*
G04 #@! TO.P,U9,20*
G04 #@! TO.N,VCC*
X43934380Y-99796600D03*
G04 #@! TO.P,U9,10*
G04 #@! TO.N,GND*
X36314380Y-122656600D03*
G04 #@! TO.P,U9,19*
G04 #@! TO.N,/DEN*
X43934380Y-102336600D03*
G04 #@! TO.P,U9,9*
G04 #@! TO.N,/AD0*
X36314380Y-120116600D03*
G04 #@! TO.P,U9,18*
G04 #@! TO.N,/D7*
X43934380Y-104876600D03*
G04 #@! TO.P,U9,8*
G04 #@! TO.N,/AD1*
X36314380Y-117576600D03*
G04 #@! TO.P,U9,17*
G04 #@! TO.N,/D6*
X43934380Y-107416600D03*
G04 #@! TO.P,U9,7*
G04 #@! TO.N,/AD2*
X36314380Y-115036600D03*
G04 #@! TO.P,U9,16*
G04 #@! TO.N,/D5*
X43934380Y-109956600D03*
G04 #@! TO.P,U9,6*
G04 #@! TO.N,/AD3*
X36314380Y-112496600D03*
G04 #@! TO.P,U9,15*
G04 #@! TO.N,/D4*
X43934380Y-112496600D03*
G04 #@! TO.P,U9,5*
G04 #@! TO.N,/AD4*
X36314380Y-109956600D03*
G04 #@! TO.P,U9,14*
G04 #@! TO.N,/D3*
X43934380Y-115036600D03*
G04 #@! TO.P,U9,4*
G04 #@! TO.N,/AD5*
X36314380Y-107416600D03*
G04 #@! TO.P,U9,13*
G04 #@! TO.N,/D2*
X43934380Y-117576600D03*
G04 #@! TO.P,U9,3*
G04 #@! TO.N,/AD6*
X36314380Y-104876600D03*
G04 #@! TO.P,U9,12*
G04 #@! TO.N,/D1*
X43934380Y-120116600D03*
G04 #@! TO.P,U9,2*
G04 #@! TO.N,/AD7*
X36314380Y-102336600D03*
G04 #@! TO.P,U9,11*
G04 #@! TO.N,/D0*
X43934380Y-122656600D03*
D15*
G04 #@! TO.P,U9,1*
G04 #@! TO.N,/DTR*
X36314380Y-99796600D03*
G04 #@! TD*
D12*
G04 #@! TO.P,U8,20*
G04 #@! TO.N,VCC*
X31234380Y-87096600D03*
G04 #@! TO.P,U8,10*
G04 #@! TO.N,GND*
X23614380Y-109956600D03*
G04 #@! TO.P,U8,19*
G04 #@! TO.N,/A19*
X31234380Y-89636600D03*
G04 #@! TO.P,U8,9*
G04 #@! TO.N,Net-(U8-Pad9)*
X23614380Y-107416600D03*
G04 #@! TO.P,U8,18*
G04 #@! TO.N,/A18*
X31234380Y-92176600D03*
G04 #@! TO.P,U8,8*
G04 #@! TO.N,Net-(U8-Pad8)*
X23614380Y-104876600D03*
G04 #@! TO.P,U8,17*
G04 #@! TO.N,/A17*
X31234380Y-94716600D03*
G04 #@! TO.P,U8,7*
G04 #@! TO.N,Net-(U8-Pad7)*
X23614380Y-102336600D03*
G04 #@! TO.P,U8,16*
G04 #@! TO.N,/A16*
X31234380Y-97256600D03*
G04 #@! TO.P,U8,6*
G04 #@! TO.N,Net-(U8-Pad6)*
X23614380Y-99796600D03*
G04 #@! TO.P,U8,15*
G04 #@! TO.N,Net-(U8-Pad15)*
X31234380Y-99796600D03*
G04 #@! TO.P,U8,5*
G04 #@! TO.N,/A16_*
X23614380Y-97256600D03*
G04 #@! TO.P,U8,14*
G04 #@! TO.N,Net-(U8-Pad14)*
X31234380Y-102336600D03*
G04 #@! TO.P,U8,4*
G04 #@! TO.N,/A17_*
X23614380Y-94716600D03*
G04 #@! TO.P,U8,13*
G04 #@! TO.N,Net-(U8-Pad13)*
X31234380Y-104876600D03*
G04 #@! TO.P,U8,3*
G04 #@! TO.N,/A18_*
X23614380Y-92176600D03*
G04 #@! TO.P,U8,12*
G04 #@! TO.N,Net-(U8-Pad12)*
X31234380Y-107416600D03*
G04 #@! TO.P,U8,2*
G04 #@! TO.N,/A19_*
X23614380Y-89636600D03*
G04 #@! TO.P,U8,11*
G04 #@! TO.N,/ALE*
X31234380Y-109956600D03*
D15*
G04 #@! TO.P,U8,1*
G04 #@! TO.N,/HOLDA*
X23614380Y-87096600D03*
G04 #@! TD*
D16*
G04 #@! TO.P,U7,60*
G04 #@! TO.N,/MWR*
X74414380Y-68046600D03*
G04 #@! TO.P,U7,58*
G04 #@! TO.N,Net-(U7-Pad58)*
X74414380Y-70586600D03*
G04 #@! TO.P,U7,56*
G04 #@! TO.N,/DEN*
X74414380Y-73126600D03*
G04 #@! TO.P,U7,54*
G04 #@! TO.N,/X1*
X74414380Y-75666600D03*
G04 #@! TO.P,U7,52*
G04 #@! TO.N,GND*
X74414380Y-78206600D03*
G04 #@! TO.P,U7,50*
G04 #@! TO.N,/ALE*
X74414380Y-80746600D03*
G04 #@! TO.P,U7,48*
G04 #@! TO.N,Net-(U7-Pad48)*
X74414380Y-83286600D03*
G04 #@! TO.P,U7,46*
G04 #@! TO.N,/SPK_GO*
X74414380Y-85826600D03*
G04 #@! TO.P,U7,61*
G04 #@! TO.N,/IORD*
X71874380Y-65506600D03*
G04 #@! TO.P,U7,59*
G04 #@! TO.N,/IOWR*
X71874380Y-70586600D03*
G04 #@! TO.P,U7,57*
G04 #@! TO.N,/DTR*
X71874380Y-73126600D03*
G04 #@! TO.P,U7,55*
G04 #@! TO.N,Net-(U7-Pad55)*
X71874380Y-75666600D03*
G04 #@! TO.P,U7,53*
G04 #@! TO.N,/X2*
X71874380Y-78206600D03*
G04 #@! TO.P,U7,51*
G04 #@! TO.N,Net-(U7-Pad51)*
X71874380Y-80746600D03*
G04 #@! TO.P,U7,49*
G04 #@! TO.N,Net-(U7-Pad49)*
X71874380Y-83286600D03*
G04 #@! TO.P,U7,47*
G04 #@! TO.N,/POLL*
X71874380Y-85826600D03*
G04 #@! TO.P,U7,45*
G04 #@! TO.N,/SPK_OUT*
X71874380Y-88366600D03*
G04 #@! TO.P,U7,43*
G04 #@! TO.N,/IRQ7*
X71874380Y-90906600D03*
G04 #@! TO.P,U7,41*
G04 #@! TO.N,/IRQ5*
X69334380Y-90906600D03*
G04 #@! TO.P,U7,39*
G04 #@! TO.N,/IRQ3*
X66794380Y-90906600D03*
G04 #@! TO.P,U7,37*
G04 #@! TO.N,/IRQ1*
X64254380Y-90906600D03*
G04 #@! TO.P,U7,35*
G04 #@! TO.N,Net-(U7-Pad35)*
X61714380Y-90906600D03*
G04 #@! TO.P,U7,33*
G04 #@! TO.N,Net-(U7-Pad33)*
X59174380Y-90906600D03*
G04 #@! TO.P,U7,31*
G04 #@! TO.N,Net-(U7-Pad31)*
X56634380Y-90906600D03*
G04 #@! TO.P,U7,29*
G04 #@! TO.N,Net-(U7-Pad29)*
X54094380Y-90906600D03*
G04 #@! TO.P,U7,27*
G04 #@! TO.N,Net-(U7-Pad27)*
X51554380Y-90906600D03*
G04 #@! TO.P,U7,44*
G04 #@! TO.N,/HF_PCLK*
X74414380Y-88366600D03*
G04 #@! TO.P,U7,42*
G04 #@! TO.N,/IRQ6*
X69334380Y-88366600D03*
G04 #@! TO.P,U7,40*
G04 #@! TO.N,/IRQ4*
X66794380Y-88366600D03*
G04 #@! TO.P,U7,38*
G04 #@! TO.N,/IRQ2*
X64254380Y-88366600D03*
G04 #@! TO.P,U7,36*
G04 #@! TO.N,Net-(U7-Pad36)*
X61714380Y-88366600D03*
G04 #@! TO.P,U7,34*
G04 #@! TO.N,Net-(U7-Pad34)*
X59174380Y-88366600D03*
G04 #@! TO.P,U7,32*
G04 #@! TO.N,Net-(U7-Pad32)*
X56634380Y-88366600D03*
G04 #@! TO.P,U7,30*
G04 #@! TO.N,Net-(U7-Pad30)*
X54094380Y-88366600D03*
G04 #@! TO.P,U7,28*
G04 #@! TO.N,Net-(U7-Pad28)*
X51554380Y-88366600D03*
G04 #@! TO.P,U7,26*
G04 #@! TO.N,/AD0*
X49014380Y-88366600D03*
G04 #@! TO.P,U7,24*
G04 #@! TO.N,/AD2*
X49014380Y-85826600D03*
G04 #@! TO.P,U7,22*
G04 #@! TO.N,/AD4*
X49014380Y-83286600D03*
G04 #@! TO.P,U7,20*
G04 #@! TO.N,/AD6*
X49014380Y-80746600D03*
G04 #@! TO.P,U7,18*
G04 #@! TO.N,GND*
X49014380Y-78206600D03*
G04 #@! TO.P,U7,16*
G04 #@! TO.N,/A9*
X49014380Y-75666600D03*
G04 #@! TO.P,U7,14*
G04 #@! TO.N,/A11*
X49014380Y-73126600D03*
G04 #@! TO.P,U7,12*
G04 #@! TO.N,/A13*
X49014380Y-70586600D03*
G04 #@! TO.P,U7,10*
G04 #@! TO.N,/A15*
X49014380Y-68046600D03*
G04 #@! TO.P,U7,25*
G04 #@! TO.N,/AD1*
X51554380Y-85826600D03*
G04 #@! TO.P,U7,23*
G04 #@! TO.N,/AD3*
X51554380Y-83286600D03*
G04 #@! TO.P,U7,21*
G04 #@! TO.N,/AD5*
X51554380Y-80746600D03*
G04 #@! TO.P,U7,19*
G04 #@! TO.N,/AD7*
X51554380Y-78206600D03*
G04 #@! TO.P,U7,17*
G04 #@! TO.N,/A8*
X51554380Y-75666600D03*
G04 #@! TO.P,U7,15*
G04 #@! TO.N,/A10*
X51554380Y-73126600D03*
G04 #@! TO.P,U7,13*
G04 #@! TO.N,/A12*
X51554380Y-70586600D03*
G04 #@! TO.P,U7,11*
G04 #@! TO.N,/A14*
X51554380Y-68046600D03*
G04 #@! TO.P,U7,63*
G04 #@! TO.N,Net-(U7-Pad63)*
X69334380Y-65506600D03*
G04 #@! TO.P,U7,65*
G04 #@! TO.N,Net-(U7-Pad65)*
X66794380Y-65506600D03*
G04 #@! TO.P,U7,67*
G04 #@! TO.N,/RDY1*
X64254380Y-65506600D03*
G04 #@! TO.P,U7,9*
G04 #@! TO.N,/A16_*
X51554380Y-65506600D03*
G04 #@! TO.P,U7,7*
G04 #@! TO.N,/A18_*
X54094380Y-65506600D03*
G04 #@! TO.P,U7,5*
G04 #@! TO.N,/REFRQ*
X56634380Y-65506600D03*
G04 #@! TO.P,U7,3*
G04 #@! TO.N,/HOLDA*
X59174380Y-65506600D03*
D17*
G04 #@! TO.P,U7,1*
G04 #@! TO.N,VCC*
X61714380Y-65506600D03*
D16*
G04 #@! TO.P,U7,62*
G04 #@! TO.N,/MRD*
X71874380Y-68046600D03*
G04 #@! TO.P,U7,64*
G04 #@! TO.N,Net-(U7-Pad64)*
X69334380Y-68046600D03*
G04 #@! TO.P,U7,66*
G04 #@! TO.N,/NMI*
X66794380Y-68046600D03*
G04 #@! TO.P,U7,68*
G04 #@! TO.N,/RESET*
X64254380Y-68046600D03*
G04 #@! TO.P,U7,8*
G04 #@! TO.N,/A17_*
X54094380Y-68046600D03*
G04 #@! TO.P,U7,6*
G04 #@! TO.N,/A19_*
X56634380Y-68046600D03*
G04 #@! TO.P,U7,4*
G04 #@! TO.N,/HOLD*
X59174380Y-68046600D03*
G04 #@! TO.P,U7,2*
G04 #@! TO.N,Net-(U7-Pad2)*
X61714380Y-68046600D03*
G04 #@! TD*
D18*
G04 #@! TO.P,J1,8*
G04 #@! TO.N,/NMI*
X57396380Y-129768600D03*
G04 #@! TO.P,J1,7*
G04 #@! TO.N,Net-(J1-Pad7)*
X59936380Y-129768600D03*
G04 #@! TO.P,J1,6*
G04 #@! TO.N,Net-(J1-Pad6)*
X62476380Y-129768600D03*
G04 #@! TO.P,J1,5*
G04 #@! TO.N,Net-(J1-Pad5)*
X65016380Y-129768600D03*
G04 #@! TO.P,J1,4*
G04 #@! TO.N,Net-(J1-Pad4)*
X67556380Y-129768600D03*
G04 #@! TO.P,J1,3*
G04 #@! TO.N,Net-(J1-Pad3)*
X70096380Y-129768600D03*
G04 #@! TO.P,J1,2*
G04 #@! TO.N,Net-(J1-Pad2)*
X72636380Y-129768600D03*
G04 #@! TO.P,J1,1*
G04 #@! TO.N,/IRQ1*
X75176380Y-129768600D03*
G04 #@! TD*
D13*
G04 #@! TO.P,C10,2*
G04 #@! TO.N,VCC*
X56634380Y-96494600D03*
G04 #@! TO.P,C10,1*
G04 #@! TO.N,GND*
X51634380Y-96494600D03*
G04 #@! TD*
G04 #@! TO.P,C9,2*
G04 #@! TO.N,VCC*
X43934380Y-96494600D03*
G04 #@! TO.P,C9,1*
G04 #@! TO.N,GND*
X38934380Y-96494600D03*
G04 #@! TD*
G04 #@! TO.P,C8,2*
G04 #@! TO.N,VCC*
X31234380Y-83794600D03*
G04 #@! TO.P,C8,1*
G04 #@! TO.N,GND*
X26234380Y-83794600D03*
G04 #@! TD*
G04 #@! TO.P,C7,2*
G04 #@! TO.N,VCC*
X61714380Y-60934600D03*
G04 #@! TO.P,C7,1*
G04 #@! TO.N,GND*
X56714380Y-60934600D03*
G04 #@! TD*
G04 #@! TO.P,C2,2*
G04 #@! TO.N,VCC*
X122420380Y-70586600D03*
G04 #@! TO.P,C2,1*
G04 #@! TO.N,GND*
X117420380Y-70586600D03*
G04 #@! TD*
D12*
G04 #@! TO.P,U2,32*
G04 #@! TO.N,VCC*
X122420380Y-73888600D03*
G04 #@! TO.P,U2,16*
G04 #@! TO.N,GND*
X107180380Y-111988600D03*
G04 #@! TO.P,U2,31*
G04 #@! TO.N,/MWR*
X122420380Y-76428600D03*
G04 #@! TO.P,U2,15*
G04 #@! TO.N,/D2*
X107180380Y-109448600D03*
G04 #@! TO.P,U2,30*
G04 #@! TO.N,GND*
X122420380Y-78968600D03*
G04 #@! TO.P,U2,14*
G04 #@! TO.N,/D1*
X107180380Y-106908600D03*
G04 #@! TO.P,U2,29*
G04 #@! TO.N,/A14*
X122420380Y-81508600D03*
G04 #@! TO.P,U2,13*
G04 #@! TO.N,/D0*
X107180380Y-104368600D03*
G04 #@! TO.P,U2,28*
G04 #@! TO.N,/A13*
X122420380Y-84048600D03*
G04 #@! TO.P,U2,12*
G04 #@! TO.N,/A0*
X107180380Y-101828600D03*
G04 #@! TO.P,U2,27*
G04 #@! TO.N,/A8*
X122420380Y-86588600D03*
G04 #@! TO.P,U2,11*
G04 #@! TO.N,/A1*
X107180380Y-99288600D03*
G04 #@! TO.P,U2,26*
G04 #@! TO.N,/A9*
X122420380Y-89128600D03*
G04 #@! TO.P,U2,10*
G04 #@! TO.N,/A2*
X107180380Y-96748600D03*
G04 #@! TO.P,U2,25*
G04 #@! TO.N,/A11*
X122420380Y-91668600D03*
G04 #@! TO.P,U2,9*
G04 #@! TO.N,/A3*
X107180380Y-94208600D03*
G04 #@! TO.P,U2,24*
G04 #@! TO.N,/MRD*
X122420380Y-94208600D03*
G04 #@! TO.P,U2,8*
G04 #@! TO.N,/A4*
X107180380Y-91668600D03*
G04 #@! TO.P,U2,23*
G04 #@! TO.N,/A10*
X122420380Y-96748600D03*
G04 #@! TO.P,U2,7*
G04 #@! TO.N,/A5*
X107180380Y-89128600D03*
G04 #@! TO.P,U2,22*
G04 #@! TO.N,/E0000_CS*
X122420380Y-99288600D03*
G04 #@! TO.P,U2,6*
G04 #@! TO.N,/A6*
X107180380Y-86588600D03*
G04 #@! TO.P,U2,21*
G04 #@! TO.N,/D7*
X122420380Y-101828600D03*
G04 #@! TO.P,U2,5*
G04 #@! TO.N,/A7*
X107180380Y-84048600D03*
G04 #@! TO.P,U2,20*
G04 #@! TO.N,/D6*
X122420380Y-104368600D03*
G04 #@! TO.P,U2,4*
G04 #@! TO.N,/A12*
X107180380Y-81508600D03*
G04 #@! TO.P,U2,19*
G04 #@! TO.N,/D5*
X122420380Y-106908600D03*
G04 #@! TO.P,U2,3*
G04 #@! TO.N,/A15*
X107180380Y-78968600D03*
G04 #@! TO.P,U2,18*
G04 #@! TO.N,/D4*
X122420380Y-109448600D03*
G04 #@! TO.P,U2,2*
G04 #@! TO.N,GND*
X107180380Y-76428600D03*
G04 #@! TO.P,U2,17*
G04 #@! TO.N,/D3*
X122420380Y-111988600D03*
D15*
G04 #@! TO.P,U2,1*
G04 #@! TO.N,GND*
X107180380Y-73888600D03*
G04 #@! TD*
D13*
G04 #@! TO.P,C1,2*
G04 #@! TO.N,VCC*
X107514380Y-70586600D03*
G04 #@! TO.P,C1,1*
G04 #@! TO.N,GND*
X112514380Y-70586600D03*
G04 #@! TD*
D12*
G04 #@! TO.P,U3,32*
G04 #@! TO.N,VCC*
X142740380Y-73888600D03*
G04 #@! TO.P,U3,16*
G04 #@! TO.N,GND*
X127500380Y-111988600D03*
G04 #@! TO.P,U3,31*
G04 #@! TO.N,/A15*
X142740380Y-76428600D03*
G04 #@! TO.P,U3,15*
G04 #@! TO.N,/D2*
X127500380Y-109448600D03*
G04 #@! TO.P,U3,30*
G04 #@! TO.N,VCC*
X142740380Y-78968600D03*
G04 #@! TO.P,U3,14*
G04 #@! TO.N,/D1*
X127500380Y-106908600D03*
G04 #@! TO.P,U3,29*
G04 #@! TO.N,/MWR*
X142740380Y-81508600D03*
G04 #@! TO.P,U3,13*
G04 #@! TO.N,/D0*
X127500380Y-104368600D03*
G04 #@! TO.P,U3,28*
G04 #@! TO.N,/A13*
X142740380Y-84048600D03*
G04 #@! TO.P,U3,12*
G04 #@! TO.N,/A0*
X127500380Y-101828600D03*
G04 #@! TO.P,U3,27*
G04 #@! TO.N,/A8*
X142740380Y-86588600D03*
G04 #@! TO.P,U3,11*
G04 #@! TO.N,/A1*
X127500380Y-99288600D03*
G04 #@! TO.P,U3,26*
G04 #@! TO.N,/A9*
X142740380Y-89128600D03*
G04 #@! TO.P,U3,10*
G04 #@! TO.N,/A2*
X127500380Y-96748600D03*
G04 #@! TO.P,U3,25*
G04 #@! TO.N,/A11*
X142740380Y-91668600D03*
G04 #@! TO.P,U3,9*
G04 #@! TO.N,/A3*
X127500380Y-94208600D03*
G04 #@! TO.P,U3,24*
G04 #@! TO.N,/MRD*
X142740380Y-94208600D03*
G04 #@! TO.P,U3,8*
G04 #@! TO.N,/A4*
X127500380Y-91668600D03*
G04 #@! TO.P,U3,23*
G04 #@! TO.N,/A10*
X142740380Y-96748600D03*
G04 #@! TO.P,U3,7*
G04 #@! TO.N,/A5*
X127500380Y-89128600D03*
G04 #@! TO.P,U3,22*
G04 #@! TO.N,/128K_CS*
X142740380Y-99288600D03*
G04 #@! TO.P,U3,6*
G04 #@! TO.N,/A6*
X127500380Y-86588600D03*
G04 #@! TO.P,U3,21*
G04 #@! TO.N,/D7*
X142740380Y-101828600D03*
G04 #@! TO.P,U3,5*
G04 #@! TO.N,/A7*
X127500380Y-84048600D03*
G04 #@! TO.P,U3,20*
G04 #@! TO.N,/D6*
X142740380Y-104368600D03*
G04 #@! TO.P,U3,4*
G04 #@! TO.N,/A12*
X127500380Y-81508600D03*
G04 #@! TO.P,U3,19*
G04 #@! TO.N,/D5*
X142740380Y-106908600D03*
G04 #@! TO.P,U3,3*
G04 #@! TO.N,/A14*
X127500380Y-78968600D03*
G04 #@! TO.P,U3,18*
G04 #@! TO.N,/D4*
X142740380Y-109448600D03*
G04 #@! TO.P,U3,2*
G04 #@! TO.N,/A16*
X127500380Y-76428600D03*
G04 #@! TO.P,U3,17*
G04 #@! TO.N,/D3*
X142740380Y-111988600D03*
D15*
G04 #@! TO.P,U3,1*
G04 #@! TO.N,Net-(U3-Pad1)*
X127500380Y-73888600D03*
G04 #@! TD*
D12*
G04 #@! TO.P,U4,32*
G04 #@! TO.N,VCC*
X163060380Y-73888600D03*
G04 #@! TO.P,U4,16*
G04 #@! TO.N,GND*
X147820380Y-111988600D03*
G04 #@! TO.P,U4,31*
G04 #@! TO.N,/A15*
X163060380Y-76428600D03*
G04 #@! TO.P,U4,15*
G04 #@! TO.N,/D2*
X147820380Y-109448600D03*
G04 #@! TO.P,U4,30*
G04 #@! TO.N,/A17*
X163060380Y-78968600D03*
G04 #@! TO.P,U4,14*
G04 #@! TO.N,/D1*
X147820380Y-106908600D03*
G04 #@! TO.P,U4,29*
G04 #@! TO.N,/MWR*
X163060380Y-81508600D03*
G04 #@! TO.P,U4,13*
G04 #@! TO.N,/D0*
X147820380Y-104368600D03*
G04 #@! TO.P,U4,28*
G04 #@! TO.N,/A13*
X163060380Y-84048600D03*
G04 #@! TO.P,U4,12*
G04 #@! TO.N,/A0*
X147820380Y-101828600D03*
G04 #@! TO.P,U4,27*
G04 #@! TO.N,/A8*
X163060380Y-86588600D03*
G04 #@! TO.P,U4,11*
G04 #@! TO.N,/A1*
X147820380Y-99288600D03*
G04 #@! TO.P,U4,26*
G04 #@! TO.N,/A9*
X163060380Y-89128600D03*
G04 #@! TO.P,U4,10*
G04 #@! TO.N,/A2*
X147820380Y-96748600D03*
G04 #@! TO.P,U4,25*
G04 #@! TO.N,/A11*
X163060380Y-91668600D03*
G04 #@! TO.P,U4,9*
G04 #@! TO.N,/A3*
X147820380Y-94208600D03*
G04 #@! TO.P,U4,24*
G04 #@! TO.N,/MRD*
X163060380Y-94208600D03*
G04 #@! TO.P,U4,8*
G04 #@! TO.N,/A4*
X147820380Y-91668600D03*
G04 #@! TO.P,U4,23*
G04 #@! TO.N,/A10*
X163060380Y-96748600D03*
G04 #@! TO.P,U4,7*
G04 #@! TO.N,/A5*
X147820380Y-89128600D03*
G04 #@! TO.P,U4,22*
G04 #@! TO.N,/512K_CS*
X163060380Y-99288600D03*
G04 #@! TO.P,U4,6*
G04 #@! TO.N,/A6*
X147820380Y-86588600D03*
G04 #@! TO.P,U4,21*
G04 #@! TO.N,/D7*
X163060380Y-101828600D03*
G04 #@! TO.P,U4,5*
G04 #@! TO.N,/A7*
X147820380Y-84048600D03*
G04 #@! TO.P,U4,20*
G04 #@! TO.N,/D6*
X163060380Y-104368600D03*
G04 #@! TO.P,U4,4*
G04 #@! TO.N,/A12*
X147820380Y-81508600D03*
G04 #@! TO.P,U4,19*
G04 #@! TO.N,/D5*
X163060380Y-106908600D03*
G04 #@! TO.P,U4,3*
G04 #@! TO.N,/A14*
X147820380Y-78968600D03*
G04 #@! TO.P,U4,18*
G04 #@! TO.N,/D4*
X163060380Y-109448600D03*
G04 #@! TO.P,U4,2*
G04 #@! TO.N,/A16*
X147820380Y-76428600D03*
G04 #@! TO.P,U4,17*
G04 #@! TO.N,/D3*
X163060380Y-111988600D03*
D15*
G04 #@! TO.P,U4,1*
G04 #@! TO.N,/A18*
X147820380Y-73888600D03*
G04 #@! TD*
D13*
G04 #@! TO.P,C6,2*
G04 #@! TO.N,VCC*
X179316380Y-95986600D03*
G04 #@! TO.P,C6,1*
G04 #@! TO.N,GND*
X174316380Y-95986600D03*
G04 #@! TD*
G04 #@! TO.P,C3,2*
G04 #@! TO.N,VCC*
X142740380Y-70586600D03*
G04 #@! TO.P,C3,1*
G04 #@! TO.N,GND*
X137740380Y-70586600D03*
G04 #@! TD*
D18*
G04 #@! TO.P,J9,31*
G04 #@! TO.N,GND*
X85336380Y-129768600D03*
G04 #@! TO.P,J9,30*
G04 #@! TO.N,/OSC88*
X87876380Y-129768600D03*
G04 #@! TO.P,J9,29*
G04 #@! TO.N,VCC*
X90416380Y-129768600D03*
G04 #@! TO.P,J9,28*
G04 #@! TO.N,/ALE*
X92956380Y-129768600D03*
G04 #@! TO.P,J9,27*
G04 #@! TO.N,/TC*
X95496380Y-129768600D03*
G04 #@! TO.P,J9,26*
G04 #@! TO.N,/DACK2*
X98036380Y-129768600D03*
G04 #@! TO.P,J9,25*
G04 #@! TO.N,/IRQ3*
X100576380Y-129768600D03*
G04 #@! TO.P,J9,24*
G04 #@! TO.N,/IRQ4*
X103116380Y-129768600D03*
G04 #@! TO.P,J9,23*
G04 #@! TO.N,/IRQ5*
X105656380Y-129768600D03*
G04 #@! TO.P,J9,22*
G04 #@! TO.N,/IRQ6*
X108196380Y-129768600D03*
G04 #@! TO.P,J9,21*
G04 #@! TO.N,/IRQ7*
X110736380Y-129768600D03*
G04 #@! TO.P,J9,20*
G04 #@! TO.N,/CLK88*
X113276380Y-129768600D03*
G04 #@! TO.P,J9,19*
G04 #@! TO.N,/REFRQ*
X115816380Y-129768600D03*
G04 #@! TO.P,J9,18*
G04 #@! TO.N,/DRQ1*
X118356380Y-129768600D03*
G04 #@! TO.P,J9,17*
G04 #@! TO.N,/DACK1*
X120896380Y-129768600D03*
G04 #@! TO.P,J9,16*
G04 #@! TO.N,/DRQ3*
X123436380Y-129768600D03*
G04 #@! TO.P,J9,15*
G04 #@! TO.N,/DACK3*
X125976380Y-129768600D03*
G04 #@! TO.P,J9,14*
G04 #@! TO.N,/IORD*
X128516380Y-129768600D03*
G04 #@! TO.P,J9,13*
G04 #@! TO.N,/IOWR*
X131056380Y-129768600D03*
G04 #@! TO.P,J9,12*
G04 #@! TO.N,/MRD*
X133596380Y-129768600D03*
G04 #@! TO.P,J9,11*
G04 #@! TO.N,/MWR*
X136136380Y-129768600D03*
G04 #@! TO.P,J9,10*
G04 #@! TO.N,GND*
X138676380Y-129768600D03*
G04 #@! TO.P,J9,9*
G04 #@! TO.N,/12+*
X141216380Y-129768600D03*
G04 #@! TO.P,J9,8*
G04 #@! TO.N,/NC*
X143756380Y-129768600D03*
G04 #@! TO.P,J9,7*
G04 #@! TO.N,/12-*
X146296380Y-129768600D03*
G04 #@! TO.P,J9,6*
G04 #@! TO.N,/DRQ2*
X148836380Y-129768600D03*
G04 #@! TO.P,J9,5*
G04 #@! TO.N,/5-*
X151376380Y-129768600D03*
G04 #@! TO.P,J9,4*
G04 #@! TO.N,/IRQ2*
X153916380Y-129768600D03*
G04 #@! TO.P,J9,3*
G04 #@! TO.N,VCC*
X156456380Y-129768600D03*
G04 #@! TO.P,J9,2*
G04 #@! TO.N,/RESOUT*
X158996380Y-129768600D03*
G04 #@! TO.P,J9,1*
G04 #@! TO.N,GND*
X161536380Y-129768600D03*
G04 #@! TD*
D19*
G04 #@! TO.P,R,1*
G04 #@! TO.N,/GND*
X181602380Y-122148600D03*
G04 #@! TD*
G04 #@! TO.P,R,1*
G04 #@! TO.N,N/C*
X181602380Y-64998600D03*
G04 #@! TD*
D12*
G04 #@! TO.P,U6,16*
G04 #@! TO.N,VCC*
X179316380Y-99288600D03*
G04 #@! TO.P,U6,8*
G04 #@! TO.N,GND*
X171696380Y-117068600D03*
G04 #@! TO.P,U6,15*
G04 #@! TO.N,Net-(U6-Pad15)*
X179316380Y-101828600D03*
G04 #@! TO.P,U6,7*
G04 #@! TO.N,/64K_ROM_CS*
X171696380Y-114528600D03*
G04 #@! TO.P,U6,14*
G04 #@! TO.N,Net-(U6-Pad14)*
X179316380Y-104368600D03*
G04 #@! TO.P,U6,6*
G04 #@! TO.N,VCC*
X171696380Y-111988600D03*
G04 #@! TO.P,U6,13*
G04 #@! TO.N,Net-(U6-Pad13)*
X179316380Y-106908600D03*
G04 #@! TO.P,U6,5*
G04 #@! TO.N,GND*
X171696380Y-109448600D03*
G04 #@! TO.P,U6,12*
G04 #@! TO.N,Net-(U6-Pad12)*
X179316380Y-109448600D03*
G04 #@! TO.P,U6,4*
G04 #@! TO.N,/UPPER_512K*
X171696380Y-106908600D03*
G04 #@! TO.P,U6,11*
G04 #@! TO.N,Net-(U6-Pad11)*
X179316380Y-111988600D03*
G04 #@! TO.P,U6,3*
G04 #@! TO.N,/A18*
X171696380Y-104368600D03*
G04 #@! TO.P,U6,10*
G04 #@! TO.N,Net-(U6-Pad10)*
X179316380Y-114528600D03*
G04 #@! TO.P,U6,2*
G04 #@! TO.N,/A17*
X171696380Y-101828600D03*
G04 #@! TO.P,U6,9*
G04 #@! TO.N,/E0000_CS*
X179316380Y-117068600D03*
D15*
G04 #@! TO.P,U6,1*
G04 #@! TO.N,/A16*
X171696380Y-99288600D03*
G04 #@! TD*
D12*
G04 #@! TO.P,U5,16*
G04 #@! TO.N,VCC*
X179316380Y-73888600D03*
G04 #@! TO.P,U5,8*
G04 #@! TO.N,GND*
X171696380Y-91668600D03*
G04 #@! TO.P,U5,15*
G04 #@! TO.N,/UPPER_512K*
X179316380Y-76428600D03*
G04 #@! TO.P,U5,7*
G04 #@! TO.N,Net-(U5-Pad7)*
X171696380Y-89128600D03*
G04 #@! TO.P,U5,14*
G04 #@! TO.N,/A17*
X179316380Y-78968600D03*
G04 #@! TO.P,U5,6*
G04 #@! TO.N,Net-(U5-Pad6)*
X171696380Y-86588600D03*
G04 #@! TO.P,U5,13*
G04 #@! TO.N,/A18*
X179316380Y-81508600D03*
G04 #@! TO.P,U5,5*
G04 #@! TO.N,/UPPER_512K*
X171696380Y-84048600D03*
G04 #@! TO.P,U5,12*
G04 #@! TO.N,/128K_CS*
X179316380Y-84048600D03*
G04 #@! TO.P,U5,4*
G04 #@! TO.N,/512K_CS*
X171696380Y-81508600D03*
G04 #@! TO.P,U5,11*
G04 #@! TO.N,Net-(U5-Pad11)*
X179316380Y-86588600D03*
G04 #@! TO.P,U5,3*
G04 #@! TO.N,GND*
X171696380Y-78968600D03*
G04 #@! TO.P,U5,10*
G04 #@! TO.N,Net-(U5-Pad10)*
X179316380Y-89128600D03*
G04 #@! TO.P,U5,2*
G04 #@! TO.N,/A19*
X171696380Y-76428600D03*
G04 #@! TO.P,U5,9*
G04 #@! TO.N,Net-(U5-Pad9)*
X179316380Y-91668600D03*
D15*
G04 #@! TO.P,U5,1*
G04 #@! TO.N,GND*
X171696380Y-73888600D03*
G04 #@! TD*
D13*
G04 #@! TO.P,C5,2*
G04 #@! TO.N,VCC*
X179316380Y-70586600D03*
G04 #@! TO.P,C5,1*
G04 #@! TO.N,GND*
X174316380Y-70586600D03*
G04 #@! TD*
G04 #@! TO.P,C4,2*
G04 #@! TO.N,VCC*
X163060380Y-70586600D03*
G04 #@! TO.P,C4,1*
G04 #@! TO.N,GND*
X158060380Y-70586600D03*
G04 #@! TD*
D20*
G04 #@! TO.N,/IRQ2*
X153916380Y-123926600D03*
X65524380Y-123926600D03*
G04 #@! TO.N,/IRQ7*
X110736380Y-121640600D03*
X72382380Y-121132600D03*
G04 #@! TO.N,/IRQ6*
X108196380Y-122148600D03*
X70604380Y-121640600D03*
G04 #@! TO.N,/IRQ5*
X105656380Y-122656600D03*
X69588380Y-122148600D03*
G04 #@! TO.N,/IRQ4*
X103116380Y-123164600D03*
X68064380Y-122656600D03*
G04 #@! TO.N,/IRQ3*
X100576380Y-123672600D03*
X66794380Y-123164600D03*
G04 #@! TO.N,/ALE*
X76192380Y-80746600D03*
X76192380Y-116306600D03*
X60952380Y-116306600D03*
X60444380Y-122656600D03*
X92956380Y-120624600D03*
X76192380Y-120624600D03*
X34282380Y-124688600D03*
X34282380Y-110464600D03*
G04 #@! TO.N,/D7*
X160266380Y-124688600D03*
X160266380Y-102336600D03*
G04 #@! TO.N,/D6*
X157726380Y-124688600D03*
X157726380Y-104876600D03*
G04 #@! TO.N,/D5*
X155186380Y-124688600D03*
X155186380Y-107416600D03*
G04 #@! TO.N,/D4*
X152646380Y-124688600D03*
X152646380Y-109956600D03*
G04 #@! TO.N,/D3*
X150106380Y-124688600D03*
X149598380Y-113258600D03*
G04 #@! TO.N,/D2*
X147566380Y-124688600D03*
X146042380Y-108940600D03*
X59936380Y-116306600D03*
X59936380Y-108940600D03*
G04 #@! TO.N,/D1*
X145026380Y-124688600D03*
X144772380Y-106400600D03*
X61968380Y-106400600D03*
X62038440Y-119147306D03*
G04 #@! TO.N,/D0*
X142486380Y-124688600D03*
X140962380Y-103098600D03*
X62730380Y-121386600D03*
X62730380Y-103860600D03*
G04 #@! TO.N,/RDY1*
X139946380Y-124688600D03*
X76192380Y-65252600D03*
X140962380Y-65252600D03*
X64254380Y-63728600D03*
X76192380Y-62929610D03*
G04 #@! TO.N,/A19*
X134866380Y-124688600D03*
X169664380Y-75920600D03*
X169664380Y-115798600D03*
X134866380Y-115798600D03*
X33266380Y-92430600D03*
X33266380Y-89636600D03*
X82796380Y-115544600D03*
X81780380Y-92938600D03*
G04 #@! TO.N,/A18*
X132326380Y-124688600D03*
X168902380Y-82778600D03*
X168902380Y-116560600D03*
X132326380Y-116560600D03*
X151122380Y-116560600D03*
X151122380Y-73380600D03*
X168902380Y-104368600D03*
X81018380Y-93700600D03*
X81825272Y-116024057D03*
G04 #@! TO.N,/A17*
X129786380Y-124688600D03*
X168140380Y-80238600D03*
X168140380Y-117322600D03*
X129786380Y-117322600D03*
X168140380Y-101828600D03*
X80256380Y-94462600D03*
X80764380Y-116560608D03*
G04 #@! TO.N,/A16*
X127246380Y-124688600D03*
X129786380Y-75920600D03*
X167378380Y-75158600D03*
X167378380Y-99288600D03*
X127246380Y-117576600D03*
X33266380Y-94462600D03*
X33266380Y-97256600D03*
X79748380Y-117068600D03*
X79494380Y-95224600D03*
G04 #@! TO.N,/A15*
X124706380Y-124688600D03*
X124706380Y-77698600D03*
X57396380Y-69570600D03*
X57396380Y-79476600D03*
G04 #@! TO.N,/A14*
X122166380Y-124688600D03*
X120642380Y-82016600D03*
X130548380Y-82778600D03*
X130548380Y-78460600D03*
X55110380Y-71856600D03*
X89654380Y-82016600D03*
X89654380Y-71856600D03*
G04 #@! TO.N,/A13*
X119626380Y-124688600D03*
X119626380Y-84556600D03*
X55872380Y-71094600D03*
X56126380Y-84556600D03*
G04 #@! TO.N,/A12*
X117086380Y-124688600D03*
X117086380Y-81000600D03*
X56634380Y-70332600D03*
X56634380Y-82016600D03*
G04 #@! TO.N,/A11*
X114546380Y-124688600D03*
X114546380Y-92176600D03*
X82034380Y-74396600D03*
X82034380Y-91922600D03*
G04 #@! TO.N,/A10*
X112006380Y-124688600D03*
X112006380Y-97256600D03*
X58158380Y-73126600D03*
X58666380Y-98018600D03*
G04 #@! TO.N,/A9*
X109466380Y-124688600D03*
X109974380Y-89636600D03*
X81272380Y-90398600D03*
X81272380Y-76936600D03*
G04 #@! TO.N,/A8*
X106926380Y-124688600D03*
X108958380Y-87858600D03*
X54602380Y-86588600D03*
X54602380Y-75666600D03*
G04 #@! TO.N,/A7*
X104386380Y-124688600D03*
X104386380Y-83540600D03*
X83050380Y-84048600D03*
X82542380Y-102336600D03*
G04 #@! TO.N,/A6*
X101846380Y-124688600D03*
X99560380Y-86080600D03*
X83558380Y-86588600D03*
X83050380Y-104876600D03*
G04 #@! TO.N,/A5*
X99306380Y-124688600D03*
X98798380Y-88620600D03*
X84066380Y-89128600D03*
X83558380Y-107416600D03*
G04 #@! TO.N,/A4*
X96766380Y-124688600D03*
X96766380Y-91160600D03*
X84574380Y-91668600D03*
X84066380Y-109956600D03*
G04 #@! TO.N,/A3*
X94226380Y-124688600D03*
X94226380Y-93700600D03*
X85082380Y-94208600D03*
X84828380Y-112496600D03*
G04 #@! TO.N,/A2*
X91686380Y-124688600D03*
X91686380Y-96240600D03*
X91686380Y-114528600D03*
G04 #@! TO.N,/A1*
X89146380Y-124688600D03*
X89654380Y-98780600D03*
X89146380Y-118084600D03*
G04 #@! TO.N,/A0*
X86606380Y-124688600D03*
X88892380Y-101320600D03*
X86606380Y-119862600D03*
G04 #@! TO.N,/MWR*
X136136380Y-82016600D03*
X136136380Y-75158600D03*
X115054380Y-67538600D03*
X115054380Y-75920600D03*
G04 #@! TO.N,/MRD*
X133596380Y-94716600D03*
X114292380Y-66776600D03*
X113784380Y-94716600D03*
G04 #@! TO.N,/IOWR*
X132072380Y-68300600D03*
G04 #@! TO.N,/IORD*
X131310380Y-66014600D03*
G04 #@! TO.N,/REFRQ*
X115816380Y-64490600D03*
X78478380Y-64490600D03*
X78478380Y-62204600D03*
X56634380Y-63474600D03*
G04 #@! TO.N,/512K_CS*
X165854380Y-99796600D03*
X165854380Y-82016600D03*
G04 #@! TO.N,/UPPER_512K*
X175506380Y-84556600D03*
X175506380Y-107162600D03*
X175506380Y-76682600D03*
G04 #@! TO.N,/128K_CS*
X160774380Y-99796600D03*
X160774380Y-85318600D03*
G04 #@! TO.N,VCC*
X179316380Y-69062600D03*
X176776380Y-69062600D03*
X176776380Y-95986600D03*
X155948380Y-70078600D03*
X139692380Y-70078600D03*
X139692380Y-79476600D03*
X90670380Y-70078600D03*
X176776380Y-111988600D03*
X90670380Y-75920600D03*
X43934380Y-83286600D03*
X90670380Y-60426600D03*
X43934380Y-62458600D03*
X58666380Y-60426600D03*
X58666380Y-62458600D03*
X43934380Y-74650600D03*
X102100380Y-70840600D03*
G04 #@! TO.N,GND*
X161536380Y-110718600D03*
X138676380Y-111480600D03*
X174236380Y-109448600D03*
X174236384Y-117068600D03*
X174236380Y-91668600D03*
X174236380Y-73888600D03*
X174236380Y-78968600D03*
X95496380Y-111480600D03*
X95496380Y-76936600D03*
X95496380Y-79476600D03*
X95496380Y-74396600D03*
X39108380Y-78206600D03*
X39108380Y-84302600D03*
X26408378Y-109956600D03*
X26408378Y-123164598D03*
X95496380Y-61696600D03*
X39108380Y-61442600D03*
X39108380Y-76174600D03*
X107180380Y-72364600D03*
X95496380Y-71856600D03*
G04 #@! TO.N,/64K_ROM_CS*
X105148380Y-115036600D03*
X105148380Y-99796600D03*
G04 #@! TO.N,/E0000_CS*
X136898380Y-118338600D03*
X136898380Y-100558600D03*
G04 #@! TO.N,/SPK_OUT*
X58666380Y-124688600D03*
X59174380Y-117068600D03*
X73144380Y-116814600D03*
G04 #@! TO.N,/SPK_GO*
X61206380Y-124688600D03*
X61206380Y-118338600D03*
X73906380Y-118338600D03*
G04 #@! TO.N,/HF_PCLK*
X63238378Y-124688600D03*
X63492380Y-118846600D03*
X74668380Y-119100600D03*
G04 #@! TO.N,/HOLDA*
X68826380Y-124688600D03*
X25392380Y-101066600D03*
X25392380Y-87096600D03*
X68826380Y-95732600D03*
X68826380Y-101066600D03*
X60444380Y-95732600D03*
G04 #@! TO.N,/HOLD*
X71366380Y-124688600D03*
X71620380Y-94970600D03*
X62984380Y-94970600D03*
X62984380Y-71094600D03*
X59174380Y-71094600D03*
G04 #@! TO.N,/RESET*
X76446380Y-124688600D03*
X65524380Y-63728600D03*
X77716380Y-63474600D03*
G04 #@! TO.N,/NMI*
X58666380Y-115544600D03*
X76954380Y-115544600D03*
X68064380Y-64236600D03*
X76960637Y-64245396D03*
G04 #@! TO.N,/IRQ1*
X64254380Y-120624600D03*
X75176380Y-120624600D03*
G04 #@! TO.N,/POLL*
X41140380Y-84556600D03*
G04 #@! TO.N,/DEN*
X41902380Y-101828600D03*
X41902380Y-82016600D03*
X69842380Y-81254600D03*
G04 #@! TO.N,/X1*
X83050380Y-75412600D03*
X83050380Y-62966600D03*
G04 #@! TO.N,/DTR*
X36314380Y-79476600D03*
X69080380Y-78714600D03*
G04 #@! TO.N,/X2*
X76192380Y-76174600D03*
X83812380Y-76174600D03*
X83812380Y-63728600D03*
G04 #@! TO.N,/AD0*
X50792380Y-120624600D03*
G04 #@! TO.N,/AD2*
X51554380Y-115544600D03*
G04 #@! TO.N,/AD4*
X47490380Y-110464600D03*
G04 #@! TO.N,/AD6*
X45966380Y-105384600D03*
G04 #@! TO.N,/AD1*
X53078380Y-118084600D03*
G04 #@! TO.N,/AD3*
X55364380Y-83286600D03*
X54856380Y-113004600D03*
G04 #@! TO.N,/AD5*
X46728380Y-107924600D03*
G04 #@! TO.N,/AD7*
X45204380Y-103606600D03*
G04 #@! TO.N,/A16_*
X28948380Y-97256600D03*
X29710380Y-65506600D03*
G04 #@! TO.N,/A18_*
X27932380Y-92176600D03*
X28694380Y-64236600D03*
G04 #@! TO.N,/A17_*
X28440380Y-94716600D03*
X28948380Y-66776600D03*
G04 #@! TO.N,/A19_*
X55364380Y-63474600D03*
X27424380Y-89636600D03*
X27678380Y-63474600D03*
G04 #@! TD*
D21*
G04 #@! TO.N,/IRQ2*
X153916380Y-129768600D02*
X153916380Y-123926600D01*
X65524380Y-89636600D02*
X65524380Y-123926600D01*
X64254380Y-88366600D02*
X65524380Y-89636600D01*
G04 #@! TO.N,/IRQ7*
X110736380Y-129768600D02*
X110736380Y-121640600D01*
X71874380Y-91668600D02*
X72382380Y-92176600D01*
X72382380Y-92176600D02*
X72382380Y-121132600D01*
X71874380Y-90906600D02*
X71874380Y-91668600D01*
G04 #@! TO.N,/IRQ6*
X108196380Y-129768600D02*
X108196380Y-122148600D01*
X69334380Y-88366600D02*
X70604380Y-89636600D01*
X70604380Y-89636600D02*
X70604380Y-121640600D01*
G04 #@! TO.N,/IRQ5*
X105656380Y-129768600D02*
X105656380Y-122656600D01*
X69334380Y-90906600D02*
X69588380Y-91160600D01*
X69588380Y-91160600D02*
X69588380Y-122148600D01*
G04 #@! TO.N,/IRQ4*
X68064380Y-89636600D02*
X68064380Y-122656600D01*
X66794380Y-88366600D02*
X68064380Y-89636600D01*
X103116380Y-129768600D02*
X103116380Y-123164600D01*
G04 #@! TO.N,/IRQ3*
X66794380Y-90906600D02*
X66794380Y-123164600D01*
X100576380Y-129768600D02*
X100576380Y-123672600D01*
G04 #@! TO.N,/ALE*
X76192380Y-80746600D02*
X76192380Y-116306600D01*
X60952380Y-116306600D02*
X60952380Y-116814600D01*
X60952380Y-116814600D02*
X60444380Y-117322600D01*
X60444380Y-117322600D02*
X60444380Y-122656600D01*
X92956380Y-120624600D02*
X92956380Y-129768600D01*
X76192380Y-116306600D02*
X76192380Y-120624600D01*
X34282380Y-124688600D02*
X34282380Y-110464600D01*
G04 #@! TO.N,/D7*
X160266380Y-124688600D02*
X160266380Y-102336600D01*
G04 #@! TO.N,/D6*
X157726380Y-124688600D02*
X157726380Y-104876600D01*
G04 #@! TO.N,/D5*
X155186380Y-124688600D02*
X155186380Y-107416600D01*
G04 #@! TO.N,/D4*
X152646380Y-124688600D02*
X152646380Y-109956600D01*
G04 #@! TO.N,/D3*
X150106380Y-124688600D02*
X150106380Y-113766600D01*
X150106380Y-113766600D02*
X149598380Y-113258600D01*
G04 #@! TO.N,/D2*
X147566380Y-124688600D02*
X147566380Y-115798600D01*
X147566380Y-115798600D02*
X146042380Y-114274600D01*
X146042380Y-114274600D02*
X146042380Y-108940600D01*
X59936380Y-116306600D02*
X59936380Y-108940600D01*
G04 #@! TO.N,/D1*
X145026380Y-124688600D02*
X145026380Y-106654600D01*
X145026380Y-106654600D02*
X144772380Y-106400600D01*
X61968380Y-106400600D02*
X61968380Y-119077246D01*
X61968380Y-119077246D02*
X62038440Y-119147306D01*
G04 #@! TO.N,/D0*
X142486380Y-124688600D02*
X142486380Y-116560600D01*
X142486380Y-116560600D02*
X140962380Y-115036600D01*
X140962380Y-115036600D02*
X140962380Y-103098600D01*
X62763442Y-103893662D02*
X62730380Y-103860600D01*
X62763442Y-121353538D02*
X62763442Y-103893662D01*
X62730380Y-121386600D02*
X62763442Y-121353538D01*
G04 #@! TO.N,/RDY1*
X140962380Y-81254600D02*
X140962380Y-65252600D01*
X139946380Y-82270600D02*
X140962380Y-81254600D01*
X139946380Y-124688600D02*
X139946380Y-82270600D01*
X64254380Y-65506600D02*
X64254380Y-63728600D01*
X76192380Y-65252600D02*
X76192380Y-62929610D01*
G04 #@! TO.N,/A19*
X169664380Y-115798600D02*
X169664380Y-75920600D01*
X134866380Y-115798600D02*
X134866380Y-124688600D01*
X33266380Y-89636600D02*
X33266380Y-92430600D01*
X81780380Y-92938600D02*
X81780380Y-114528600D01*
X81780380Y-114528600D02*
X82796380Y-115544600D01*
G04 #@! TO.N,/A18*
X168902380Y-82778600D02*
X168902380Y-104368600D01*
X151122380Y-116560600D02*
X151122380Y-73380600D01*
X132326380Y-116560600D02*
X132326380Y-124688600D01*
X168902380Y-104368600D02*
X168902380Y-116560600D01*
X81018380Y-115217165D02*
X81825272Y-116024057D01*
X81018380Y-93700600D02*
X81018380Y-115217165D01*
G04 #@! TO.N,/A17*
X129786380Y-124688600D02*
X129786380Y-117322600D01*
X168140380Y-80238600D02*
X168140380Y-101828600D01*
X168140380Y-117322600D02*
X168140380Y-101828600D01*
X80256380Y-94462600D02*
X80256380Y-116052608D01*
X80256380Y-116052608D02*
X80764380Y-116560608D01*
G04 #@! TO.N,/A16*
X127246380Y-124688600D02*
X127246380Y-117576600D01*
X127246380Y-116560600D02*
X129786380Y-114020600D01*
X129786380Y-114020600D02*
X129786380Y-75920600D01*
X167378380Y-75158600D02*
X167378380Y-99288600D01*
X127246380Y-117576600D02*
X127246380Y-116560600D01*
X33266380Y-94462600D02*
X33266380Y-97256600D01*
X79494380Y-116814600D02*
X79494380Y-95224600D01*
X79748380Y-117068600D02*
X79494380Y-116814600D01*
G04 #@! TO.N,/A15*
X124706380Y-124688600D02*
X124706380Y-77698600D01*
X57396380Y-69570600D02*
X57396380Y-79476600D01*
G04 #@! TO.N,/A14*
X122166380Y-124688600D02*
X122166380Y-116560600D01*
X122166380Y-116560600D02*
X120642380Y-115036600D01*
X120642380Y-115036600D02*
X120642380Y-82016600D01*
X130548380Y-82778600D02*
X130548380Y-78460600D01*
X51554380Y-68046600D02*
X55110380Y-71602600D01*
X55110380Y-71602600D02*
X55110380Y-71856600D01*
X89654380Y-82016600D02*
X89654380Y-71856600D01*
G04 #@! TO.N,/A13*
X119626380Y-124688600D02*
X119626380Y-84556600D01*
X56126380Y-82778600D02*
X56126380Y-84556600D01*
X55872380Y-82524600D02*
X56126380Y-82778600D01*
X55872380Y-71094600D02*
X55872380Y-82524600D01*
G04 #@! TO.N,/A12*
X117086380Y-124688600D02*
X117086380Y-81000600D01*
X56634380Y-70332600D02*
X56634380Y-82016600D01*
G04 #@! TO.N,/A11*
X114546380Y-124688600D02*
X114546380Y-92176600D01*
X82034380Y-74396600D02*
X82034380Y-91922600D01*
G04 #@! TO.N,/A10*
X112006380Y-124688600D02*
X112006380Y-97256600D01*
X58158380Y-73126600D02*
X58158380Y-81000600D01*
X58158380Y-81000600D02*
X57904380Y-81254600D01*
X57904380Y-81254600D02*
X57904380Y-92430600D01*
X57904380Y-92430600D02*
X58666380Y-93192600D01*
X58666380Y-93192600D02*
X58666380Y-98018600D01*
G04 #@! TO.N,/A9*
X109466380Y-124688600D02*
X109466380Y-114782600D01*
X109466380Y-114782600D02*
X109974380Y-114274600D01*
X109974380Y-114274600D02*
X109974380Y-89636600D01*
X81272380Y-90398600D02*
X81272380Y-76936600D01*
G04 #@! TO.N,/A8*
X106926380Y-124688600D02*
X106926380Y-115798600D01*
X106926380Y-115798600D02*
X109212380Y-113512600D01*
X109212380Y-113512600D02*
X109212380Y-88112600D01*
X109212380Y-88112600D02*
X108958380Y-87858600D01*
X54602380Y-86588600D02*
X54602380Y-75666600D01*
G04 #@! TO.N,/A7*
X104386380Y-124688600D02*
X104386380Y-83540600D01*
X82796380Y-84302600D02*
X82796380Y-102082600D01*
X82796380Y-102082600D02*
X82542380Y-102336600D01*
X83050380Y-84048600D02*
X82796380Y-84302600D01*
G04 #@! TO.N,/A6*
X101846380Y-124688600D02*
X101846380Y-117068600D01*
X101846380Y-117068600D02*
X99814380Y-115036600D01*
X99814380Y-115036600D02*
X99814380Y-86334600D01*
X99814380Y-86334600D02*
X99560380Y-86080600D01*
X83558380Y-86588600D02*
X83304380Y-86842600D01*
X83304380Y-86842600D02*
X83304380Y-104622600D01*
X83304380Y-104622600D02*
X83050380Y-104876600D01*
G04 #@! TO.N,/A5*
X99306380Y-124688600D02*
X99306380Y-116306600D01*
X99306380Y-116306600D02*
X98798380Y-115798600D01*
X98798380Y-115798600D02*
X98798380Y-88620600D01*
X84066380Y-89128600D02*
X83812380Y-89382600D01*
X83812380Y-89382600D02*
X83812380Y-107162600D01*
X83812380Y-107162600D02*
X83558380Y-107416600D01*
G04 #@! TO.N,/A4*
X96766380Y-124688600D02*
X96766380Y-91160600D01*
X84320380Y-109702600D02*
X84066380Y-109956600D01*
X84320380Y-91922600D02*
X84320380Y-109702600D01*
X84574380Y-91668600D02*
X84320380Y-91922600D01*
G04 #@! TO.N,/A3*
X94226380Y-124688600D02*
X94226380Y-93700600D01*
X84828380Y-94462600D02*
X84828380Y-112496600D01*
X85082380Y-94208600D02*
X84828380Y-94462600D01*
G04 #@! TO.N,/A2*
X91686380Y-124688600D02*
X91686380Y-96240600D01*
G04 #@! TO.N,/A1*
X89146380Y-124688600D02*
X89146380Y-115798600D01*
X89146380Y-115798600D02*
X89654380Y-115290600D01*
X89654380Y-115290600D02*
X89654380Y-98780600D01*
G04 #@! TO.N,/A0*
X86606380Y-124688600D02*
X86606380Y-119862600D01*
X86606380Y-117068600D02*
X88892380Y-114782600D01*
X88892380Y-114782600D02*
X88892380Y-101320600D01*
X86606380Y-119862600D02*
X86606380Y-117068600D01*
G04 #@! TO.N,/MWR*
X136136380Y-129768600D02*
X136136380Y-82016600D01*
X136136380Y-82016600D02*
X136136380Y-75158600D01*
X115054380Y-67538600D02*
X115054380Y-75920600D01*
G04 #@! TO.N,/MRD*
X133596380Y-129768600D02*
X133596380Y-94716600D01*
X114292380Y-90906600D02*
X114292380Y-66776600D01*
X113784380Y-91414600D02*
X114292380Y-90906600D01*
X113784380Y-94716600D02*
X113784380Y-91414600D01*
G04 #@! TO.N,/IOWR*
X132072380Y-68300600D02*
X132072380Y-114274600D01*
X132072380Y-114274600D02*
X131056380Y-115290600D01*
X131056380Y-115290600D02*
X131056380Y-129768600D01*
G04 #@! TO.N,/IORD*
X131310380Y-114020600D02*
X131310380Y-66014600D01*
X128516380Y-116814600D02*
X131310380Y-114020600D01*
X128516380Y-129768600D02*
X128516380Y-116814600D01*
G04 #@! TO.N,/REFRQ*
X115816380Y-129768600D02*
X115816380Y-64490600D01*
X78478380Y-64490600D02*
X78478380Y-62204600D01*
X56634380Y-65506600D02*
X56634380Y-63474600D01*
G04 #@! TO.N,/512K_CS*
X165854380Y-82016600D02*
X165854380Y-99796600D01*
G04 #@! TO.N,/UPPER_512K*
X175506380Y-97002600D02*
X175506380Y-107162600D01*
X175760380Y-96748600D02*
X175506380Y-97002600D01*
X175760380Y-94970600D02*
X175760380Y-96748600D01*
X175506380Y-94716600D02*
X175760380Y-94970600D01*
X175506380Y-84556600D02*
X175506380Y-94716600D01*
X175506380Y-84556600D02*
X175506380Y-76682600D01*
G04 #@! TO.N,/128K_CS*
X160774380Y-99796600D02*
X160774380Y-85318600D01*
D22*
G04 #@! TO.N,VCC*
X179316380Y-69062600D02*
X179316380Y-70586600D01*
X179316380Y-70586600D02*
X179316380Y-73888600D01*
X176776380Y-69062600D02*
X176776380Y-95986600D01*
X179316380Y-95986600D02*
X179316380Y-99288600D01*
X156456380Y-72618600D02*
X155948380Y-72110600D01*
X155948380Y-72110600D02*
X155948380Y-70078600D01*
X156456380Y-129768600D02*
X156456380Y-72618600D01*
X142740380Y-70586600D02*
X142740380Y-73918600D01*
X163060380Y-70586600D02*
X163060380Y-73918600D01*
X139692380Y-70078600D02*
X139692380Y-79476600D01*
X176776380Y-95986600D02*
X176776380Y-111988600D01*
X90670380Y-107670600D02*
X90670380Y-75920600D01*
X90416380Y-129768600D02*
X90416380Y-107924600D01*
X90670380Y-70078600D02*
X90670380Y-75920600D01*
X90416380Y-107924600D02*
X90670380Y-107670600D01*
X122420380Y-70586600D02*
X122420380Y-73888600D01*
X43934380Y-96494600D02*
X43934380Y-99796600D01*
X56634380Y-96494600D02*
X56634380Y-99796600D01*
X43934380Y-96494600D02*
X43934380Y-83286600D01*
X31234380Y-83794600D02*
X31234380Y-87096600D01*
X90670380Y-70078600D02*
X90670380Y-60426600D01*
X61714380Y-60934600D02*
X61714380Y-65506600D01*
X43934380Y-83286600D02*
X43934380Y-62458600D01*
X58666380Y-60426600D02*
X58666380Y-62458600D01*
X102100380Y-70840600D02*
X102100380Y-73888600D01*
G04 #@! TO.N,GND*
X85336380Y-129768600D02*
X85336380Y-115290600D01*
X86860380Y-113766600D02*
X86860380Y-111988600D01*
X85336380Y-115290600D02*
X86860380Y-113766600D01*
X161536380Y-129768600D02*
X161536380Y-110718600D01*
X138676380Y-111480600D02*
X138676380Y-129768600D01*
X174236380Y-70666600D02*
X174316380Y-70586600D01*
X174236380Y-95732600D02*
X174236380Y-70666600D01*
X174316380Y-95812600D02*
X174236380Y-95732600D01*
X174316380Y-95986600D02*
X174316380Y-95812600D01*
X174316380Y-109368600D02*
X174236380Y-109448600D01*
X174316380Y-95986600D02*
X174316380Y-109368600D01*
X174236380Y-109448600D02*
X174236380Y-117068596D01*
X174236380Y-117068596D02*
X174236384Y-117068600D01*
X95496380Y-111480600D02*
X95496380Y-79476600D01*
X95496380Y-79476600D02*
X95496380Y-76936600D01*
X95496380Y-61696600D02*
X95496380Y-74396600D01*
X95496380Y-76936600D02*
X95496380Y-74396600D01*
X107180380Y-73888600D02*
X107180380Y-76428600D01*
X39108380Y-96320600D02*
X39108380Y-84302600D01*
X38934380Y-96494600D02*
X39108380Y-96320600D01*
X39108380Y-84302600D02*
X39108380Y-78206600D01*
X26408380Y-109956598D02*
X26408378Y-109956600D01*
X26408380Y-83968600D02*
X26408380Y-109956598D01*
X26234380Y-83794600D02*
X26408380Y-83968600D01*
X26408378Y-109956600D02*
X26408378Y-123164598D01*
X39108380Y-61442600D02*
X39108380Y-78206600D01*
D21*
X107180380Y-72364600D02*
X107180380Y-73888600D01*
G04 #@! TO.N,/64K_ROM_CS*
X105148380Y-115036600D02*
X105148380Y-99796600D01*
G04 #@! TO.N,/E0000_CS*
X136898380Y-118338600D02*
X136898380Y-100558600D01*
G04 #@! TO.N,/SPK_OUT*
X59174380Y-124180600D02*
X59174380Y-117068600D01*
X58666380Y-124688600D02*
X59174380Y-124180600D01*
X71874380Y-88366600D02*
X71874380Y-89372388D01*
X71874380Y-89372388D02*
X73144380Y-90642388D01*
X73144380Y-90642388D02*
X73144380Y-116814600D01*
G04 #@! TO.N,/SPK_GO*
X61206380Y-124688600D02*
X61206380Y-118338600D01*
X73144380Y-89128600D02*
X73906380Y-89890600D01*
X73144380Y-87096600D02*
X73144380Y-89128600D01*
X74414380Y-85826600D02*
X73144380Y-87096600D01*
X73906380Y-89890600D02*
X73906380Y-118338600D01*
G04 #@! TO.N,/HF_PCLK*
X63492380Y-124434598D02*
X63238378Y-124688600D01*
X63492380Y-118846600D02*
X63492380Y-124434598D01*
X74668380Y-88620600D02*
X74668380Y-119100600D01*
X74414380Y-88366600D02*
X74668380Y-88620600D01*
G04 #@! TO.N,/HOLDA*
X25392380Y-101066600D02*
X25392380Y-87096600D01*
X68826380Y-124688600D02*
X68826380Y-101066600D01*
X68826380Y-101066600D02*
X68826380Y-95732600D01*
X60444380Y-66776600D02*
X59174380Y-65506600D01*
X60444380Y-95732600D02*
X60444380Y-66776600D01*
G04 #@! TO.N,/HOLD*
X71620380Y-124434600D02*
X71620380Y-94970600D01*
X71366380Y-124688600D02*
X71620380Y-124434600D01*
X62984380Y-94970600D02*
X62984380Y-71094600D01*
X59174380Y-68046600D02*
X59174380Y-71094600D01*
G04 #@! TO.N,/RESET*
X65524380Y-66776600D02*
X65524380Y-63728600D01*
X64254380Y-68046600D02*
X65524380Y-66776600D01*
X77716380Y-123418600D02*
X77716380Y-63474600D01*
X76446380Y-124688600D02*
X77716380Y-123418600D01*
G04 #@! TO.N,/NMI*
X58412380Y-123672600D02*
X58412380Y-115798600D01*
X57396380Y-124688600D02*
X58412380Y-123672600D01*
X57396380Y-129768600D02*
X57396380Y-124688600D01*
X58412380Y-115798600D02*
X58666380Y-115544600D01*
X66794380Y-68046600D02*
X68064380Y-66776600D01*
X68064380Y-66776600D02*
X68064380Y-64236600D01*
X76954380Y-64251653D02*
X76960637Y-64245396D01*
X76954380Y-115544600D02*
X76954380Y-64251653D01*
G04 #@! TO.N,/IRQ1*
X64254380Y-90906600D02*
X64254380Y-120624600D01*
X75176380Y-129768600D02*
X75176380Y-120624600D01*
G04 #@! TO.N,/POLL*
X41140380Y-76428600D02*
X41140380Y-84556600D01*
X41394380Y-76174600D02*
X41140380Y-76428600D01*
G04 #@! TO.N,/DEN*
X41902380Y-101828600D02*
X41902380Y-82016600D01*
X74414380Y-73126600D02*
X73144380Y-74396600D01*
X73144380Y-74396600D02*
X70604380Y-74396600D01*
X70604380Y-74396600D02*
X69842380Y-75158600D01*
X69842380Y-75158600D02*
X69842380Y-81254600D01*
X41902380Y-82016600D02*
X41902380Y-79476600D01*
X41902380Y-79476600D02*
X42918380Y-78460600D01*
X42918380Y-74650600D02*
X41394380Y-73126600D01*
X42918380Y-78460600D02*
X42918380Y-74650600D01*
G04 #@! TO.N,/X1*
X83050380Y-62966600D02*
X83050380Y-75412600D01*
X83050380Y-62966600D02*
X83050380Y-72618600D01*
G04 #@! TO.N,/DTR*
X36314380Y-99796600D02*
X36314380Y-79476600D01*
X71874380Y-73126600D02*
X70604380Y-73126600D01*
X70604380Y-73126600D02*
X69080380Y-74650600D01*
X69080380Y-74650600D02*
X69080380Y-78714600D01*
G04 #@! TO.N,/X2*
X71874380Y-78206600D02*
X73144380Y-76936600D01*
X73144380Y-76936600D02*
X75430380Y-76936600D01*
X75430380Y-76936600D02*
X76192380Y-76174600D01*
X83812380Y-63728600D02*
X83812380Y-76174600D01*
G04 #@! TO.N,/AD0*
X49014380Y-88366600D02*
X49522380Y-88874600D01*
X49522380Y-88874600D02*
X49522380Y-97510600D01*
X50792380Y-98780600D02*
X50792380Y-120624600D01*
X49522380Y-97510600D02*
X50792380Y-98780600D01*
G04 #@! TO.N,/AD2*
X49014380Y-85826600D02*
X50284380Y-87096600D01*
X50284380Y-87096600D02*
X50284380Y-92176600D01*
X50284380Y-92176600D02*
X50030380Y-92430600D01*
X50030380Y-92430600D02*
X50030380Y-97256600D01*
X50030380Y-97256600D02*
X51554380Y-98780600D01*
X51554380Y-98780600D02*
X51554380Y-115544600D01*
G04 #@! TO.N,/AD4*
X47490380Y-84810600D02*
X47490380Y-110464600D01*
X49014380Y-83286600D02*
X47490380Y-84810600D01*
G04 #@! TO.N,/AD6*
X47998380Y-80746600D02*
X45966380Y-82778600D01*
X49014380Y-80746600D02*
X47998380Y-80746600D01*
X45966380Y-104368600D02*
X45966380Y-105384600D01*
X45966380Y-82778600D02*
X45966380Y-104368600D01*
X45966380Y-86588600D02*
X45966380Y-104368600D01*
G04 #@! TO.N,/AD1*
X51554380Y-85826600D02*
X52824380Y-87096600D01*
X52824380Y-92176600D02*
X53078380Y-92430600D01*
X52824380Y-87096600D02*
X52824380Y-92176600D01*
X53078380Y-92430600D02*
X53078380Y-118084600D01*
G04 #@! TO.N,/AD3*
X54856380Y-92684600D02*
X54856380Y-113004600D01*
X55364380Y-92176600D02*
X54856380Y-92684600D01*
X55364380Y-83286600D02*
X55364380Y-92176600D01*
G04 #@! TO.N,/AD5*
X51554380Y-80746600D02*
X50284380Y-82016600D01*
X50284380Y-82016600D02*
X47744380Y-82016600D01*
X47744380Y-82016600D02*
X46728380Y-83032600D01*
X46728380Y-83032600D02*
X46728380Y-107924600D01*
G04 #@! TO.N,/AD7*
X47744380Y-79476600D02*
X45204380Y-82016600D01*
X50284380Y-79476600D02*
X47744380Y-79476600D01*
X51554380Y-78206600D02*
X50284380Y-79476600D01*
X45204380Y-94716600D02*
X45204380Y-86080600D01*
X45458380Y-94970600D02*
X45204380Y-94716600D01*
X45458380Y-103352600D02*
X45458380Y-94970600D01*
X45204380Y-103606600D02*
X45458380Y-103352600D01*
X45204380Y-86080600D02*
X45204380Y-87096600D01*
X45204380Y-82016600D02*
X45204380Y-86080600D01*
G04 #@! TO.N,/A16_*
X29710380Y-67538600D02*
X29710380Y-65506600D01*
X29202380Y-68046600D02*
X29710380Y-67538600D01*
X29202380Y-97002600D02*
X29202380Y-68046600D01*
X28948380Y-97256600D02*
X29202380Y-97002600D01*
G04 #@! TO.N,/A18_*
X28186380Y-64744600D02*
X28694380Y-64236600D01*
X28186380Y-91922600D02*
X28186380Y-64744600D01*
X27932380Y-92176600D02*
X28186380Y-91922600D01*
G04 #@! TO.N,/A17_*
X28694380Y-67538600D02*
X28948380Y-67284600D01*
X28694380Y-94462600D02*
X28694380Y-67538600D01*
X28948380Y-67284600D02*
X28948380Y-66776600D01*
X28440380Y-94716600D02*
X28694380Y-94462600D01*
G04 #@! TO.N,/A19_*
X56634380Y-68046600D02*
X55364380Y-66776600D01*
X55364380Y-66776600D02*
X55364380Y-63474600D01*
X27678380Y-89382600D02*
X27678380Y-63474600D01*
X27424380Y-89636600D02*
X27678380Y-89382600D01*
G04 #@! TD*
M02*
