M48
; DRILL file {KiCad (5.1.8)-1} date 11/03/22 09:02:17
; FORMAT={-:-/ absolute / inch / decimal}
; #@! TF.CreationDate,2022-11-03T09:02:17-06:00
; #@! TF.GenerationSoftware,Kicad,Pcbnew,(5.1.8)-1
; #@! TF.FileFunction,Plated,1,2,PTH
FMAT,2
INCH
T1C0.0157
T2C0.0315
T3C0.0394
T4C0.1200
%
G90
G05
T1
X0.9997Y-3.429
X0.9997Y-3.979
X1.0397Y-4.329
X1.0397Y-4.849
X1.0797Y-3.529
X1.0897Y-2.499
X1.0997Y-3.629
X1.1197Y-3.729
X1.1297Y-2.529
X1.1397Y-2.629
X1.1397Y-3.829
X1.1697Y-2.579
X1.3097Y-3.529
X1.3097Y-3.639
X1.3097Y-3.719
X1.3097Y-3.829
X1.3497Y-4.349
X1.3497Y-4.909
X1.4297Y-3.129
X1.5397Y-2.419
X1.5397Y-2.999
X1.5397Y-3.079
X1.5397Y-3.319
X1.6197Y-3.329
X1.6497Y-3.229
X1.6497Y-4.009
X1.7297Y-2.459
X1.7297Y-2.939
X1.7297Y-3.279
X1.7797Y-4.079
X1.8097Y-4.149
X1.8397Y-4.249
X1.8697Y-4.349
X1.9997Y-4.749
X2.0297Y-4.549
X2.0897Y-4.649
X2.1497Y-2.979
X2.1497Y-3.409
X2.1597Y-4.449
X2.1697Y-2.829
X2.1797Y-2.499
X2.1797Y-3.279
X2.1997Y-2.799
X2.2097Y-3.329
X2.2297Y-2.499
X2.2297Y-2.769
X2.2297Y-3.229
X2.2597Y-2.739
X2.2597Y-3.129
X2.2897Y-2.879
X2.3097Y-2.379
X2.3097Y-2.459
X2.3097Y-3.859
X2.3097Y-4.549
X2.3097Y-4.909
X2.3297Y-2.799
X2.3297Y-4.609
X2.3597Y-4.289
X2.3597Y-4.579
X2.3797Y-3.769
X2.3797Y-4.829
X2.3997Y-4.579
X2.4097Y-4.659
X2.4097Y-4.909
X2.4397Y-4.189
X2.4425Y-4.6908
X2.4697Y-4.089
X2.4697Y-4.779
X2.4797Y-2.799
X2.4797Y-3.739
X2.4897Y-4.909
X2.4997Y-4.679
X2.5297Y-2.509
X2.5297Y-4.749
X2.5797Y-2.509
X2.5797Y-4.879
X2.6297Y-4.849
X2.6797Y-2.529
X2.6797Y-4.829
X2.7097Y-3.769
X2.7097Y-3.979
X2.7097Y-4.909
X2.7197Y-3.099
X2.7397Y-4.809
X2.7497Y-3.199
X2.7797Y-4.789
X2.8097Y-4.909
X2.8197Y-3.739
X2.8497Y-4.769
X2.8797Y-4.599
X2.9097Y-4.659
X2.9397Y-4.689
X2.9597Y-4.749
X2.9997Y-2.4775
X2.9997Y-2.569
X2.9997Y-2.999
X2.9997Y-3.179
X2.9997Y-4.579
X2.9997Y-4.749
X3.0097Y-4.909
X3.0297Y-4.549
X3.0299Y-2.5293
X3.0597Y-2.499
X3.0897Y-2.449
X3.0897Y-2.539
X3.1297Y-3.749
X3.1397Y-4.609
X3.1597Y-3.719
X3.1797Y-4.589
X3.1897Y-3.689
X3.1997Y-3.029
X3.1997Y-3.559
X3.2197Y-3.659
X3.2215Y-4.5679
X3.2297Y-2.929
X3.2297Y-3.619
X3.2497Y-4.029
X3.2597Y-4.549
X3.2697Y-2.479
X3.2697Y-2.969
X3.2697Y-3.309
X3.2697Y-4.129
X3.2897Y-3.409
X3.2897Y-4.229
X3.2997Y-2.509
X3.2997Y-2.999
X3.3097Y-3.509
X3.3097Y-4.329
X3.3297Y-3.609
X3.3397Y-4.429
X3.3497Y-3.709
X3.4097Y-4.719
X3.4097Y-4.909
X3.4997Y-3.989
X3.5097Y-4.649
X3.5097Y-4.909
X3.5297Y-2.829
X3.5297Y-3.229
X3.5297Y-3.889
X3.5697Y-2.379
X3.5697Y-2.759
X3.5697Y-2.989
X3.6097Y-3.789
X3.6097Y-4.509
X3.6097Y-4.909
X3.6597Y-4.749
X3.7097Y-3.689
X3.7097Y-4.909
X3.7597Y-2.429
X3.7597Y-2.829
X3.7597Y-2.929
X3.7597Y-3.029
X3.7597Y-3.129
X3.7597Y-4.389
X3.8097Y-3.589
X3.8097Y-4.909
X3.8897Y-3.489
X3.9097Y-4.909
X3.9197Y-3.389
X3.9597Y-4.869
X4.0097Y-4.909
X4.0197Y-2.789
X4.0597Y-4.849
X4.1097Y-3.289
X4.1097Y-4.909
X4.1397Y-3.929
X4.1397Y-4.529
X4.1597Y-4.829
X4.2097Y-4.909
X4.2197Y-2.849
X4.2597Y-4.809
X4.2897Y-3.459
X4.3097Y-4.909
X4.3297Y-3.529
X4.3597Y-4.789
X4.4097Y-3.829
X4.4097Y-4.909
X4.4797Y-3.729
X4.4997Y-2.629
X4.5097Y-3.629
X4.5097Y-4.909
X4.5297Y-2.659
X4.5297Y-2.989
X4.5597Y-2.539
X4.6097Y-3.189
X4.6097Y-4.909
X4.7097Y-3.329
X4.7097Y-4.909
X4.7497Y-3.229
X4.8097Y-4.909
X4.9097Y-3.059
X4.9097Y-4.909
X5.0097Y-4.629
X5.0097Y-4.909
X5.1097Y-2.989
X5.1097Y-4.619
X5.1097Y-4.909
X5.1397Y-3.089
X5.1397Y-3.259
X5.1697Y-2.599
X5.1997Y-2.689
X5.2097Y-4.589
X5.2097Y-4.909
X5.2597Y-3.729
X5.3097Y-4.559
X5.3097Y-4.909
X5.3597Y-2.959
X5.3597Y-3.229
X5.3897Y-3.959
X5.3897Y-4.659
X5.4597Y-4.389
X5.4997Y-2.759
X5.4997Y-3.129
X5.5097Y-4.909
X5.5497Y-2.569
X5.5497Y-4.059
X5.6097Y-4.909
X5.6997Y-4.189
X5.7097Y-4.909
X5.7497Y-4.289
X5.8097Y-4.909
X5.8897Y-4.459
X5.9097Y-4.909
X5.9497Y-2.889
X5.9497Y-4.589
X6.0097Y-4.329
X6.0097Y-4.909
X6.0597Y-4.879
X6.1097Y-4.229
X6.1097Y-4.909
X6.1397Y-2.759
X6.2097Y-4.129
X6.2097Y-4.909
X6.3097Y-4.029
X6.3097Y-4.909
X6.3297Y-3.359
X6.3297Y-3.929
X6.3597Y-4.359
X6.5297Y-3.229
X6.5297Y-3.929
X6.5897Y-2.959
X6.5897Y-3.909
X6.6197Y-3.159
X6.6197Y-4.009
X6.6197Y-4.619
X6.6497Y-3.259
X6.6497Y-4.109
X6.6497Y-4.589
X6.6797Y-2.989
X6.6797Y-4.559
X6.8597Y-2.909
X6.8597Y-3.109
X6.8597Y-3.609
X6.8597Y-4.309
X6.8597Y-4.609
X6.9097Y-3.019
X6.9097Y-3.329
X6.9097Y-4.219
X6.9597Y-2.719
X6.9597Y-3.779
X6.9597Y-4.409
X7.0597Y-2.719
T2
X6.7597Y-2.909
X6.7597Y-3.009
X6.7597Y-3.109
X6.7597Y-3.209
X6.7597Y-3.309
X6.7597Y-3.409
X6.7597Y-3.509
X6.7597Y-3.609
X7.0597Y-2.909
X7.0597Y-3.009
X7.0597Y-3.109
X7.0597Y-3.209
X7.0597Y-3.309
X7.0597Y-3.409
X7.0597Y-3.509
X7.0597Y-3.609
X2.2328Y-2.399
X2.4297Y-2.399
X4.3297Y-2.459
X4.5226Y-2.459
X1.2297Y-2.879
X1.6297Y-2.879
X6.8628Y-3.779
X7.0597Y-3.779
X1.0328Y-3.299
X1.2297Y-3.299
X5.4228Y-2.779
X5.6197Y-2.779
X1.5328Y-3.799
X1.7297Y-3.799
X6.2228Y-2.779
X6.4197Y-2.779
X5.0197Y-2.909
X5.0197Y-3.009
X5.0197Y-3.109
X5.0197Y-3.209
X5.0197Y-3.309
X5.0197Y-3.409
X5.0197Y-3.509
X5.0197Y-3.609
X5.0197Y-3.709
X5.0197Y-3.809
X5.0197Y-3.909
X5.0197Y-4.009
X5.0197Y-4.109
X5.0197Y-4.209
X5.0197Y-4.309
X5.0197Y-4.409
X5.6197Y-2.909
X5.6197Y-3.009
X5.6197Y-3.109
X5.6197Y-3.209
X5.6197Y-3.309
X5.6197Y-3.409
X5.6197Y-3.509
X5.6197Y-3.609
X5.6197Y-3.709
X5.6197Y-3.809
X5.6197Y-3.909
X5.6197Y-4.009
X5.6197Y-4.109
X5.6197Y-4.209
X5.6197Y-4.309
X5.6197Y-4.409
X2.0328Y-3.799
X2.2297Y-3.799
X5.8197Y-2.909
X5.8197Y-3.009
X5.8197Y-3.109
X5.8197Y-3.209
X5.8197Y-3.309
X5.8197Y-3.409
X5.8197Y-3.509
X5.8197Y-3.609
X5.8197Y-3.709
X5.8197Y-3.809
X5.8197Y-3.909
X5.8197Y-4.009
X5.8197Y-4.109
X5.8197Y-4.209
X5.8197Y-4.309
X5.8197Y-4.409
X6.4197Y-2.909
X6.4197Y-3.009
X6.4197Y-3.109
X6.4197Y-3.209
X6.4197Y-3.309
X6.4197Y-3.409
X6.4197Y-3.509
X6.4197Y-3.609
X6.4197Y-3.709
X6.4197Y-3.809
X6.4197Y-3.909
X6.4197Y-4.009
X6.4197Y-4.109
X6.4197Y-4.209
X6.4197Y-4.309
X6.4197Y-4.409
X6.8628Y-2.779
X7.0597Y-2.779
X4.2328Y-2.779
X4.4297Y-2.779
X1.9297Y-2.679
X1.9297Y-2.779
X1.9297Y-2.879
X1.9297Y-2.979
X1.9297Y-3.079
X1.9297Y-3.179
X1.9297Y-3.279
X1.9297Y-3.379
X1.9297Y-3.479
X2.0297Y-2.579
X2.0297Y-2.679
X2.0297Y-2.779
X2.0297Y-2.879
X2.0297Y-2.979
X2.0297Y-3.079
X2.0297Y-3.179
X2.0297Y-3.279
X2.0297Y-3.379
X2.0297Y-3.479
X2.0297Y-3.579
X2.1297Y-2.579
X2.1297Y-2.679
X2.1297Y-3.479
X2.1297Y-3.579
X2.2297Y-2.579
X2.2297Y-2.679
X2.2297Y-3.479
X2.2297Y-3.579
X2.3297Y-2.579
X2.3297Y-2.679
X2.3297Y-3.479
X2.3297Y-3.579
X2.4297Y-2.579
X2.4297Y-2.679
X2.4297Y-3.479
X2.4297Y-3.579
X2.5297Y-2.579
X2.5297Y-2.679
X2.5297Y-3.479
X2.5297Y-3.579
X2.6297Y-2.579
X2.6297Y-2.679
X2.6297Y-3.479
X2.6297Y-3.579
X2.7297Y-2.579
X2.7297Y-2.679
X2.7297Y-3.479
X2.7297Y-3.579
X2.8297Y-2.579
X2.8297Y-2.679
X2.8297Y-2.779
X2.8297Y-2.879
X2.8297Y-2.979
X2.8297Y-3.079
X2.8297Y-3.179
X2.8297Y-3.279
X2.8297Y-3.379
X2.8297Y-3.479
X2.8297Y-3.579
X2.9297Y-2.679
X2.9297Y-2.779
X2.9297Y-2.879
X2.9297Y-2.979
X2.9297Y-3.079
X2.9297Y-3.179
X2.9297Y-3.279
X2.9297Y-3.379
X2.9297Y-3.479
X6.7597Y-3.909
X6.7597Y-4.009
X6.7597Y-4.109
X6.7597Y-4.209
X6.7597Y-4.309
X6.7597Y-4.409
X6.7597Y-4.509
X6.7597Y-4.609
X7.0597Y-3.909
X7.0597Y-4.009
X7.0597Y-4.109
X7.0597Y-4.209
X7.0597Y-4.309
X7.0597Y-4.409
X7.0597Y-4.509
X7.0597Y-4.609
X4.2197Y-2.909
X4.2197Y-3.009
X4.2197Y-3.109
X4.2197Y-3.209
X4.2197Y-3.309
X4.2197Y-3.409
X4.2197Y-3.509
X4.2197Y-3.609
X4.2197Y-3.709
X4.2197Y-3.809
X4.2197Y-3.909
X4.2197Y-4.009
X4.2197Y-4.109
X4.2197Y-4.209
X4.2197Y-4.309
X4.2197Y-4.409
X4.8197Y-2.909
X4.8197Y-3.009
X4.8197Y-3.109
X4.8197Y-3.209
X4.8197Y-3.309
X4.8197Y-3.409
X4.8197Y-3.509
X4.8197Y-3.609
X4.8197Y-3.709
X4.8197Y-3.809
X4.8197Y-3.909
X4.8197Y-4.009
X4.8197Y-4.109
X4.8197Y-4.209
X4.8197Y-4.309
X4.8197Y-4.409
X0.9297Y-3.429
X0.9297Y-3.529
X0.9297Y-3.629
X0.9297Y-3.729
X0.9297Y-3.829
X0.9297Y-3.929
X0.9297Y-4.029
X0.9297Y-4.129
X0.9297Y-4.229
X0.9297Y-4.329
X1.2297Y-3.429
X1.2297Y-3.529
X1.2297Y-3.629
X1.2297Y-3.729
X1.2297Y-3.829
X1.2297Y-3.929
X1.2297Y-4.029
X1.2297Y-4.129
X1.2297Y-4.229
X1.2297Y-4.329
X1.2297Y-2.999
X1.6297Y-2.999
X4.6228Y-2.779
X4.8197Y-2.779
X1.9297Y-3.929
X1.9297Y-4.029
X1.9297Y-4.129
X1.9297Y-4.229
X1.9297Y-4.329
X1.9297Y-4.429
X1.9297Y-4.529
X1.9297Y-4.629
X1.9297Y-4.729
X1.9297Y-4.829
X2.2297Y-3.929
X2.2297Y-4.029
X2.2297Y-4.129
X2.2297Y-4.229
X2.2297Y-4.329
X2.2297Y-4.429
X2.2297Y-4.529
X2.2297Y-4.629
X2.2297Y-4.729
X2.2297Y-4.829
X1.4297Y-3.929
X1.4297Y-4.029
X1.4297Y-4.129
X1.4297Y-4.229
X1.4297Y-4.329
X1.4297Y-4.429
X1.4297Y-4.529
X1.4297Y-4.629
X1.4297Y-4.729
X1.4297Y-4.829
X1.7297Y-3.929
X1.7297Y-4.029
X1.7297Y-4.129
X1.7297Y-4.229
X1.7297Y-4.329
X1.7297Y-4.429
X1.7297Y-4.529
X1.7297Y-4.629
X1.7297Y-4.729
X1.7297Y-4.829
T3
X3.4197Y-2.909
X3.4197Y-3.009
X3.4197Y-3.109
X3.4197Y-3.209
X3.4197Y-3.309
X3.4197Y-3.409
X3.4197Y-3.509
X3.4197Y-3.609
X3.4197Y-3.709
X3.4197Y-3.809
X3.4197Y-3.909
X3.4197Y-4.009
X3.4197Y-4.109
X3.4197Y-4.209
X3.4197Y-4.309
X3.4197Y-4.409
X4.0197Y-2.909
X4.0197Y-3.009
X4.0197Y-3.109
X4.0197Y-3.209
X4.0197Y-3.309
X4.0197Y-3.409
X4.0197Y-3.509
X4.0197Y-3.609
X4.0197Y-3.709
X4.0197Y-3.809
X4.0197Y-3.909
X4.0197Y-4.009
X4.0197Y-4.109
X4.0197Y-4.209
X4.0197Y-4.309
X4.0197Y-4.409
T4
X7.1497Y-2.559
X7.1497Y-4.809
T0
M30
